<?xml version="1.0" encoding="utf-8" standalone="no"?>
<!DOCTYPE svg PUBLIC "-//W3C//DTD SVG 1.1//EN"
  "http://www.w3.org/Graphics/SVG/1.1/DTD/svg11.dtd">
<svg xmlns:xlink="http://www.w3.org/1999/xlink" width="194.30964pt" height="218.623104pt" viewBox="0 0 194.30964 218.623104" xmlns="http://www.w3.org/2000/svg" version="1.1">
 <metadata>
  <rdf:RDF xmlns:dc="http://purl.org/dc/elements/1.1/" xmlns:cc="http://creativecommons.org/ns#" xmlns:rdf="http://www.w3.org/1999/02/22-rdf-syntax-ns#">
   <cc:Work>
    <dc:type rdf:resource="http://purl.org/dc/dcmitype/StillImage"/>
    <dc:date>2025-02-25T09:59:23.207434</dc:date>
    <dc:format>image/svg+xml</dc:format>
    <dc:creator>
     <cc:Agent>
      <dc:title>Matplotlib v3.8.2, https://matplotlib.org/</dc:title>
     </cc:Agent>
    </dc:creator>
   </cc:Work>
  </rdf:RDF>
 </metadata>
 <defs>
  <style type="text/css">*{stroke-linejoin: round; stroke-linecap: butt}</style>
 </defs>
 <g id="figure_1">
  <g id="patch_1">
   <path d="M 0 218.623104 
L 194.30964 218.623104 
L 194.30964 0 
L 0 0 
z
" style="fill: #ffffff"/>
  </g>
  <g id="axes_1">
   <g id="patch_2">
    <path d="M 33.305084 195.528177 
L 191.3094 195.528177 
L 191.3094 14.319146 
L 33.305084 14.319146 
z
" style="fill: #ffffff"/>
   </g>
   <g id="matplotlib.axis_1">
    <g id="xtick_1">
     <g id="line2d_1"/>
     <g id="text_1">
      <!-- 0.0 -->
      <g style="fill: #262626" transform="translate(37.067823 204.347083) scale(0.07 -0.07)">
       <defs>
        <path id="DejaVuSerif-30" d="M 2034 219 
Q 2513 219 2750 744 
Q 2988 1269 2988 2328 
Q 2988 3391 2750 3916 
Q 2513 4441 2034 4441 
Q 1556 4441 1318 3916 
Q 1081 3391 1081 2328 
Q 1081 1269 1318 744 
Q 1556 219 2034 219 
z
M 2034 -91 
Q 1275 -91 848 546 
Q 422 1184 422 2328 
Q 422 3475 848 4112 
Q 1275 4750 2034 4750 
Q 2797 4750 3222 4112 
Q 3647 3475 3647 2328 
Q 3647 1184 3222 546 
Q 2797 -91 2034 -91 
z
" transform="scale(0.015625)"/>
        <path id="DejaVuSerif-2e" d="M 603 325 
Q 603 500 722 622 
Q 841 744 1019 744 
Q 1191 744 1312 622 
Q 1434 500 1434 325 
Q 1434 153 1312 31 
Q 1191 -91 1019 -91 
Q 841 -91 722 29 
Q 603 150 603 325 
z
" transform="scale(0.015625)"/>
       </defs>
       <use xlink:href="#DejaVuSerif-30"/>
       <use xlink:href="#DejaVuSerif-2e" x="63.623047"/>
       <use xlink:href="#DejaVuSerif-30" x="95.410156"/>
      </g>
     </g>
    </g>
    <g id="xtick_2">
     <g id="line2d_2"/>
     <g id="text_2">
      <!-- 2.5 -->
      <g style="fill: #262626" transform="translate(59.788469 204.347083) scale(0.07 -0.07)">
       <defs>
        <path id="DejaVuSerif-32" d="M 819 3553 
L 469 3553 
L 469 4384 
Q 803 4563 1142 4656 
Q 1481 4750 1806 4750 
Q 2534 4750 2956 4397 
Q 3378 4044 3378 3438 
Q 3378 2753 2422 1800 
Q 2347 1728 2309 1691 
L 1131 513 
L 3078 513 
L 3078 1088 
L 3444 1088 
L 3444 0 
L 434 0 
L 434 341 
L 1850 1753 
Q 2319 2222 2519 2614 
Q 2719 3006 2719 3438 
Q 2719 3909 2473 4175 
Q 2228 4441 1797 4441 
Q 1350 4441 1106 4219 
Q 863 3997 819 3553 
z
" transform="scale(0.015625)"/>
        <path id="DejaVuSerif-35" d="M 3219 4666 
L 3219 4153 
L 1081 4153 
L 1081 2816 
Q 1244 2928 1461 2984 
Q 1678 3041 1947 3041 
Q 2703 3041 3140 2622 
Q 3578 2203 3578 1478 
Q 3578 738 3136 323 
Q 2694 -91 1894 -91 
Q 1572 -91 1234 -12 
Q 897 66 544 225 
L 544 1131 
L 897 1131 
Q 925 688 1179 453 
Q 1434 219 1894 219 
Q 2388 219 2653 544 
Q 2919 869 2919 1478 
Q 2919 2084 2655 2407 
Q 2391 2731 1894 2731 
Q 1613 2731 1398 2631 
Q 1184 2531 1019 2322 
L 750 2322 
L 750 4666 
L 3219 4666 
z
" transform="scale(0.015625)"/>
       </defs>
       <use xlink:href="#DejaVuSerif-32"/>
       <use xlink:href="#DejaVuSerif-2e" x="63.623047"/>
       <use xlink:href="#DejaVuSerif-35" x="95.410156"/>
      </g>
     </g>
    </g>
    <g id="xtick_3">
     <g id="line2d_3"/>
     <g id="text_3">
      <!-- 5.0 -->
      <g style="fill: #262626" transform="translate(82.509116 204.347083) scale(0.07 -0.07)">
       <use xlink:href="#DejaVuSerif-35"/>
       <use xlink:href="#DejaVuSerif-2e" x="63.623047"/>
       <use xlink:href="#DejaVuSerif-30" x="95.410156"/>
      </g>
     </g>
    </g>
    <g id="xtick_4">
     <g id="line2d_4"/>
     <g id="text_4">
      <!-- 7.5 -->
      <g style="fill: #262626" transform="translate(105.229762 204.347083) scale(0.07 -0.07)">
       <defs>
        <path id="DejaVuSerif-37" d="M 3609 4347 
L 1784 0 
L 1319 0 
L 3059 4153 
L 903 4153 
L 903 3578 
L 538 3578 
L 538 4666 
L 3609 4666 
L 3609 4347 
z
" transform="scale(0.015625)"/>
       </defs>
       <use xlink:href="#DejaVuSerif-37"/>
       <use xlink:href="#DejaVuSerif-2e" x="63.623047"/>
       <use xlink:href="#DejaVuSerif-35" x="95.410156"/>
      </g>
     </g>
    </g>
    <g id="xtick_5">
     <g id="line2d_5"/>
     <g id="text_5">
      <!-- 10.0 -->
      <g style="fill: #262626" transform="translate(125.723534 204.347083) scale(0.07 -0.07)">
       <defs>
        <path id="DejaVuSerif-31" d="M 909 0 
L 909 331 
L 1722 331 
L 1722 4213 
L 781 3603 
L 781 4013 
L 1919 4750 
L 2350 4750 
L 2350 331 
L 3163 331 
L 3163 0 
L 909 0 
z
" transform="scale(0.015625)"/>
       </defs>
       <use xlink:href="#DejaVuSerif-31"/>
       <use xlink:href="#DejaVuSerif-30" x="63.623047"/>
       <use xlink:href="#DejaVuSerif-2e" x="127.246094"/>
       <use xlink:href="#DejaVuSerif-30" x="159.033203"/>
      </g>
     </g>
    </g>
    <g id="xtick_6">
     <g id="line2d_6"/>
     <g id="text_6">
      <!-- 12.5 -->
      <g style="fill: #262626" transform="translate(148.44418 204.347083) scale(0.07 -0.07)">
       <use xlink:href="#DejaVuSerif-31"/>
       <use xlink:href="#DejaVuSerif-32" x="63.623047"/>
       <use xlink:href="#DejaVuSerif-2e" x="127.246094"/>
       <use xlink:href="#DejaVuSerif-35" x="159.033203"/>
      </g>
     </g>
    </g>
    <g id="xtick_7">
     <g id="line2d_7"/>
     <g id="text_7">
      <!-- 15.0 -->
      <g style="fill: #262626" transform="translate(171.164827 204.347083) scale(0.07 -0.07)">
       <use xlink:href="#DejaVuSerif-31"/>
       <use xlink:href="#DejaVuSerif-35" x="63.623047"/>
       <use xlink:href="#DejaVuSerif-2e" x="127.246094"/>
       <use xlink:href="#DejaVuSerif-30" x="159.033203"/>
      </g>
     </g>
    </g>
    <g id="text_8">
     <!-- $y_0$ $[m]$ -->
     <g style="fill: #262626" transform="translate(102.887242 214.362864) scale(0.06 -0.06)">
      <defs>
       <path id="DejaVuSans-Oblique-79" d="M 1588 -325 
Q 1188 -997 936 -1164 
Q 684 -1331 294 -1331 
L -159 -1331 
L -63 -850 
L 269 -850 
Q 509 -850 678 -719 
Q 847 -588 1056 -206 
L 1234 128 
L 459 3500 
L 1069 3500 
L 1650 819 
L 3256 3500 
L 3859 3500 
L 1588 -325 
z
" transform="scale(0.015625)"/>
       <path id="DejaVuSans-30" d="M 2034 4250 
Q 1547 4250 1301 3770 
Q 1056 3291 1056 2328 
Q 1056 1369 1301 889 
Q 1547 409 2034 409 
Q 2525 409 2770 889 
Q 3016 1369 3016 2328 
Q 3016 3291 2770 3770 
Q 2525 4250 2034 4250 
z
M 2034 4750 
Q 2819 4750 3233 4129 
Q 3647 3509 3647 2328 
Q 3647 1150 3233 529 
Q 2819 -91 2034 -91 
Q 1250 -91 836 529 
Q 422 1150 422 2328 
Q 422 3509 836 4129 
Q 1250 4750 2034 4750 
z
" transform="scale(0.015625)"/>
       <path id="DejaVuSerif-20" transform="scale(0.015625)"/>
       <path id="DejaVuSans-5b" d="M 550 4863 
L 1875 4863 
L 1875 4416 
L 1125 4416 
L 1125 -397 
L 1875 -397 
L 1875 -844 
L 550 -844 
L 550 4863 
z
" transform="scale(0.015625)"/>
       <path id="DejaVuSans-Oblique-6d" d="M 5747 2113 
L 5338 0 
L 4763 0 
L 5166 2094 
Q 5191 2228 5203 2325 
Q 5216 2422 5216 2491 
Q 5216 2772 5059 2928 
Q 4903 3084 4622 3084 
Q 4203 3084 3875 2770 
Q 3547 2456 3450 1953 
L 3066 0 
L 2491 0 
L 2900 2094 
Q 2925 2209 2937 2307 
Q 2950 2406 2950 2484 
Q 2950 2769 2794 2926 
Q 2638 3084 2363 3084 
Q 1938 3084 1609 2770 
Q 1281 2456 1184 1953 
L 800 0 
L 225 0 
L 909 3500 
L 1484 3500 
L 1375 2956 
Q 1609 3263 1923 3423 
Q 2238 3584 2597 3584 
Q 2978 3584 3223 3384 
Q 3469 3184 3519 2828 
Q 3781 3197 4126 3390 
Q 4472 3584 4856 3584 
Q 5306 3584 5551 3325 
Q 5797 3066 5797 2591 
Q 5797 2488 5784 2364 
Q 5772 2241 5747 2113 
z
" transform="scale(0.015625)"/>
       <path id="DejaVuSans-5d" d="M 1947 4863 
L 1947 -844 
L 622 -844 
L 622 -397 
L 1369 -397 
L 1369 4416 
L 622 4416 
L 622 4863 
L 1947 4863 
z
" transform="scale(0.015625)"/>
      </defs>
      <use xlink:href="#DejaVuSans-Oblique-79" transform="translate(0 0.015625)"/>
      <use xlink:href="#DejaVuSans-30" transform="translate(59.179688 -16.390625) scale(0.7)"/>
      <use xlink:href="#DejaVuSerif-20" transform="translate(106.450195 0.015625)"/>
      <use xlink:href="#DejaVuSans-5b" transform="translate(138.237305 0.015625)"/>
      <use xlink:href="#DejaVuSans-Oblique-6d" transform="translate(177.250977 0.015625)"/>
      <use xlink:href="#DejaVuSans-5d" transform="translate(274.663086 0.015625)"/>
     </g>
    </g>
   </g>
   <g id="matplotlib.axis_2">
    <g id="ytick_1">
     <g id="line2d_8"/>
     <g id="text_9">
      <!-- −2.5 -->
      <g style="fill: #262626" transform="translate(12.807115 180.404949) scale(0.07 -0.07)">
       <defs>
        <path id="DejaVuSerif-2212" d="M 678 2259 
L 4684 2259 
L 4684 1753 
L 678 1753 
L 678 2259 
z
" transform="scale(0.015625)"/>
       </defs>
       <use xlink:href="#DejaVuSerif-2212"/>
       <use xlink:href="#DejaVuSerif-32" x="83.789062"/>
       <use xlink:href="#DejaVuSerif-2e" x="147.412109"/>
       <use xlink:href="#DejaVuSerif-35" x="179.199219"/>
      </g>
     </g>
    </g>
    <g id="ytick_2">
     <g id="line2d_9"/>
     <g id="text_10">
      <!-- 0.0 -->
      <g style="fill: #262626" transform="translate(18.672896 157.684302) scale(0.07 -0.07)">
       <use xlink:href="#DejaVuSerif-30"/>
       <use xlink:href="#DejaVuSerif-2e" x="63.623047"/>
       <use xlink:href="#DejaVuSerif-30" x="95.410156"/>
      </g>
     </g>
    </g>
    <g id="ytick_3">
     <g id="line2d_10"/>
     <g id="text_11">
      <!-- 2.5 -->
      <g style="fill: #262626" transform="translate(18.672896 134.963656) scale(0.07 -0.07)">
       <use xlink:href="#DejaVuSerif-32"/>
       <use xlink:href="#DejaVuSerif-2e" x="63.623047"/>
       <use xlink:href="#DejaVuSerif-35" x="95.410156"/>
      </g>
     </g>
    </g>
    <g id="ytick_4">
     <g id="line2d_11"/>
     <g id="text_12">
      <!-- 5.0 -->
      <g style="fill: #262626" transform="translate(18.672896 112.243009) scale(0.07 -0.07)">
       <use xlink:href="#DejaVuSerif-35"/>
       <use xlink:href="#DejaVuSerif-2e" x="63.623047"/>
       <use xlink:href="#DejaVuSerif-30" x="95.410156"/>
      </g>
     </g>
    </g>
    <g id="ytick_5">
     <g id="line2d_12"/>
     <g id="text_13">
      <!-- 7.5 -->
      <g style="fill: #262626" transform="translate(18.672896 89.522362) scale(0.07 -0.07)">
       <use xlink:href="#DejaVuSerif-37"/>
       <use xlink:href="#DejaVuSerif-2e" x="63.623047"/>
       <use xlink:href="#DejaVuSerif-35" x="95.410156"/>
      </g>
     </g>
    </g>
    <g id="ytick_6">
     <g id="line2d_13"/>
     <g id="text_14">
      <!-- 10.0 -->
      <g style="fill: #262626" transform="translate(14.219146 66.801716) scale(0.07 -0.07)">
       <use xlink:href="#DejaVuSerif-31"/>
       <use xlink:href="#DejaVuSerif-30" x="63.623047"/>
       <use xlink:href="#DejaVuSerif-2e" x="127.246094"/>
       <use xlink:href="#DejaVuSerif-30" x="159.033203"/>
      </g>
     </g>
    </g>
    <g id="ytick_7">
     <g id="line2d_14"/>
     <g id="text_15">
      <!-- 12.5 -->
      <g style="fill: #262626" transform="translate(14.219146 44.081069) scale(0.07 -0.07)">
       <use xlink:href="#DejaVuSerif-31"/>
       <use xlink:href="#DejaVuSerif-32" x="63.623047"/>
       <use xlink:href="#DejaVuSerif-2e" x="127.246094"/>
       <use xlink:href="#DejaVuSerif-35" x="159.033203"/>
      </g>
     </g>
    </g>
    <g id="ytick_8">
     <g id="line2d_15"/>
     <g id="text_16">
      <!-- 15.0 -->
      <g style="fill: #262626" transform="translate(14.219146 21.360423) scale(0.07 -0.07)">
       <use xlink:href="#DejaVuSerif-31"/>
       <use xlink:href="#DejaVuSerif-35" x="63.623047"/>
       <use xlink:href="#DejaVuSerif-2e" x="127.246094"/>
       <use xlink:href="#DejaVuSerif-30" x="159.033203"/>
      </g>
     </g>
    </g>
    <g id="text_17">
     <!-- $x_0$ $[m]$ -->
     <g style="fill: #262626" transform="translate(7.559302 114.343661) rotate(-90) scale(0.06 -0.06)">
      <defs>
       <path id="DejaVuSans-Oblique-78" d="M 3841 3500 
L 2234 1784 
L 3219 0 
L 2559 0 
L 1819 1388 
L 531 0 
L -166 0 
L 1556 1844 
L 641 3500 
L 1300 3500 
L 1972 2234 
L 3144 3500 
L 3841 3500 
z
" transform="scale(0.015625)"/>
      </defs>
      <use xlink:href="#DejaVuSans-Oblique-78" transform="translate(0 0.015625)"/>
      <use xlink:href="#DejaVuSans-30" transform="translate(59.179688 -16.390625) scale(0.7)"/>
      <use xlink:href="#DejaVuSerif-20" transform="translate(106.450195 0.015625)"/>
      <use xlink:href="#DejaVuSans-5b" transform="translate(138.237305 0.015625)"/>
      <use xlink:href="#DejaVuSans-Oblique-6d" transform="translate(177.250977 0.015625)"/>
      <use xlink:href="#DejaVuSans-5d" transform="translate(274.663086 0.015625)"/>
     </g>
    </g>
   </g>
   <g id="line2d_16">
    <path d="M 42.633916 155.024849 
L 42.741992 124.673371 
L 43.122361 118.157565 
L 43.678368 112.38114 
L 44.406824 107.096351 
L 45.312412 102.144467 
L 46.397587 97.452393 
L 47.649121 93.026298 
L 49.076047 88.796272 
L 50.667354 84.769354 
L 52.443156 80.882464 
L 54.361132 77.211869 
L 56.44424 73.696269 
L 58.725875 70.284327 
L 61.159434 67.048742 
L 63.733854 63.995566 
L 66.437525 61.12965 
L 69.309931 58.408803 
L 72.291242 55.888761 
L 75.423578 53.532653 
L 78.64239 51.387504 
L 81.992076 49.422033 
L 85.404589 47.674448 
L 88.926111 46.119272 
L 92.545807 44.765526 
L 96.192203 43.638072 
L 99.912687 42.720407 
L 103.634976 42.028624 
L 107.40671 41.552138 
L 111.21502 41.296225 
L 114.98796 41.264078 
L 118.772018 41.453694 
L 122.553528 41.867987 
L 126.262913 42.497822 
L 129.944166 43.349192 
L 133.530459 44.405305 
L 137.063622 45.677147 
L 140.480364 47.140735 
L 143.8198 48.811655 
L 147.06823 50.687301 
L 150.16873 52.73371 
L 153.155384 54.972315 
L 155.976429 57.363358 
L 158.66228 59.931678 
L 161.16684 62.632388 
L 163.516538 65.493204 
L 165.671414 68.464807 
L 167.653706 71.577241 
L 169.429942 74.777491 
L 171.017999 78.097359 
L 172.391223 81.480901 
L 173.563049 84.961115 
L 174.513843 88.479906 
L 175.252567 92.070896 
L 175.766779 95.674652 
L 176.058675 99.278125 
L 176.130601 102.915085 
L 175.98089 106.525854 
L 175.607646 110.143469 
L 175.016335 113.70893 
L 174.21252 117.210179 
L 173.188236 120.67845 
L 171.959212 124.057459 
L 170.513833 127.376518 
L 168.874401 130.581957 
L 167.04962 133.66352 
L 165.022869 136.647073 
L 162.825459 139.4844 
L 160.467709 142.166789 
L 157.960296 144.686192 
L 155.281145 147.062808 
L 152.471639 149.257965 
L 149.543747 151.265462 
L 146.472509 153.100493 
L 143.305335 154.73282 
L 140.055206 156.158318 
L 136.735214 157.373638 
L 133.318036 158.386847 
L 129.856467 159.180336 
L 126.364166 159.753038 
L 122.854733 160.10468 
L 119.341675 160.235779 
L 115.797257 160.145285 
L 112.276474 159.832472 
L 108.79276 159.300247 
L 105.35928 158.552278 
L 101.988891 157.59298 
L 98.656283 156.412747 
L 95.413588 155.027544 
L 92.272915 153.444118 
L 89.245889 151.669894 
L 86.343625 149.712936 
L 83.576689 147.581924 
L 80.925816 145.258801 
L 78.43332 142.777207 
L 76.108234 140.147811 
L 73.958898 137.381764 
L 71.992936 134.49066 
L 70.21723 131.486495 
L 68.637901 128.381614 
L 67.245818 125.151934 
L 66.06477 121.845543 
L 65.098624 118.476029 
L 64.350391 115.057149 
L 63.822225 111.602781 
L 63.515421 108.126872 
L 63.430411 104.643387 
L 63.566768 101.166255 
L 63.923212 97.709321 
L 64.497616 94.286293 
L 65.287018 90.910692 
L 66.300066 87.55895 
L 67.52436 84.282732 
L 68.954335 81.09513 
L 70.583633 78.00884 
L 72.405131 75.036111 
L 74.410965 72.188707 
L 76.592568 69.477854 
L 78.940702 66.914206 
L 81.445496 64.507803 
L 84.096488 62.268032 
L 86.882665 60.203597 
L 89.792504 58.322481 
L 92.814023 56.631923 
L 95.934826 55.138387 
L 99.142152 53.847542 
L 102.422925 52.76424 
L 105.763808 51.892501 
L 109.1891 51.229411 
L 112.647823 50.788237 
L 116.125699 50.570462 
L 119.608401 50.576657 
L 123.081607 50.806486 
L 126.531057 51.258705 
L 129.942614 51.931166 
L 133.302316 52.820836 
L 136.596433 53.923801 
L 139.811522 55.235291 
L 142.934481 56.749691 
L 145.952599 58.460574 
L 148.853607 60.360723 
L 151.62573 62.442159 
L 154.257729 64.696179 
L 156.738946 67.113389 
L 159.059351 69.683742 
L 161.209579 72.396579 
L 163.180962 75.240674 
L 164.965572 78.204279 
L 166.556245 81.275172 
L 167.946614 84.440707 
L 169.13113 87.687864 
L 170.105088 91.003302 
L 170.864641 94.373415 
L 171.406817 97.784386 
L 171.72953 101.22224 
L 171.831589 104.672906 
L 171.712702 108.122269 
L 171.373474 111.556231 
L 170.815406 114.960765 
L 170.040889 118.321973 
L 169.053193 121.626141 
L 167.856451 124.859797 
L 166.455646 128.009762 
L 164.856587 131.063205 
L 163.065889 134.007695 
L 161.09094 136.83125 
L 158.939877 139.522387 
L 156.621547 142.070166 
L 154.145477 144.464237 
L 151.521829 146.694879 
L 148.761361 148.75304 
L 145.875386 150.630374 
L 142.87572 152.319275 
L 139.77464 153.812904 
L 136.58483 155.105222 
L 133.31933 156.19101 
L 129.991485 157.065892 
L 126.614889 157.726351 
L 123.20333 158.169747 
L 119.770735 158.39432 
L 116.293326 158.398038 
L 113.350244 158.225302 
L 113.350244 158.225302 
" clip-path="url(#p477b78f1b2)" style="fill: none; stroke: #2a2eec; stroke-width: 0.4; stroke-linecap: round"/>
   </g>
   <g id="patch_3">
    <path d="M 33.305084 195.528177 
L 33.305084 14.319146 
" style="fill: none; stroke: #000000; stroke-linejoin: miter; stroke-linecap: square"/>
   </g>
   <g id="patch_4">
    <path d="M 33.305084 195.528177 
L 191.3094 195.528177 
" style="fill: none; stroke: #000000; stroke-linejoin: miter; stroke-linecap: square"/>
   </g>
   <g id="text_18">
    <!-- Track plot -->
    <g style="fill: #262626" transform="translate(94.14607 8.319146) scale(0.07 -0.07)">
     <defs>
      <path id="DejaVuSerif-54" d="M 1222 0 
L 1222 331 
L 1819 331 
L 1819 4294 
L 447 4294 
L 447 3566 
L 63 3566 
L 63 4666 
L 4206 4666 
L 4206 3566 
L 3822 3566 
L 3822 4294 
L 2450 4294 
L 2450 331 
L 3047 331 
L 3047 0 
L 1222 0 
z
" transform="scale(0.015625)"/>
      <path id="DejaVuSerif-72" d="M 3059 3328 
L 3059 2497 
L 2728 2497 
Q 2713 2744 2591 2866 
Q 2469 2988 2234 2988 
Q 1809 2988 1582 2694 
Q 1356 2400 1356 1850 
L 1356 331 
L 2022 331 
L 2022 0 
L 263 0 
L 263 331 
L 781 331 
L 781 2994 
L 231 2994 
L 231 3322 
L 1356 3322 
L 1356 2731 
Q 1525 3078 1790 3245 
Q 2056 3413 2438 3413 
Q 2578 3413 2733 3391 
Q 2888 3369 3059 3328 
z
" transform="scale(0.015625)"/>
      <path id="DejaVuSerif-61" d="M 2547 1044 
L 2547 1747 
L 1806 1747 
Q 1378 1747 1168 1562 
Q 959 1378 959 997 
Q 959 650 1171 447 
Q 1384 244 1747 244 
Q 2106 244 2326 466 
Q 2547 688 2547 1044 
z
M 3122 2075 
L 3122 331 
L 3634 331 
L 3634 0 
L 2547 0 
L 2547 359 
Q 2356 128 2106 18 
Q 1856 -91 1522 -91 
Q 969 -91 644 203 
Q 319 497 319 997 
Q 319 1513 691 1797 
Q 1063 2081 1741 2081 
L 2547 2081 
L 2547 2309 
Q 2547 2688 2317 2895 
Q 2088 3103 1672 3103 
Q 1328 3103 1125 2947 
Q 922 2791 872 2484 
L 575 2484 
L 575 3156 
Q 875 3284 1158 3348 
Q 1441 3413 1709 3413 
Q 2400 3413 2761 3070 
Q 3122 2728 3122 2075 
z
" transform="scale(0.015625)"/>
      <path id="DejaVuSerif-63" d="M 3291 997 
Q 3169 466 2822 187 
Q 2475 -91 1925 -91 
Q 1200 -91 759 389 
Q 319 869 319 1663 
Q 319 2459 759 2936 
Q 1200 3413 1925 3413 
Q 2241 3413 2553 3339 
Q 2866 3266 3181 3116 
L 3181 2266 
L 2847 2266 
Q 2781 2703 2561 2903 
Q 2341 3103 1931 3103 
Q 1466 3103 1228 2742 
Q 991 2381 991 1663 
Q 991 944 1227 581 
Q 1463 219 1931 219 
Q 2303 219 2525 412 
Q 2747 606 2828 997 
L 3291 997 
z
" transform="scale(0.015625)"/>
      <path id="DejaVuSerif-6b" d="M 1831 0 
L 219 0 
L 219 331 
L 738 331 
L 738 4531 
L 184 4531 
L 184 4863 
L 1313 4863 
L 1313 1697 
L 2713 2988 
L 2234 2988 
L 2234 3322 
L 3738 3322 
L 3738 2988 
L 3169 2988 
L 2181 2075 
L 3444 331 
L 3922 331 
L 3922 0 
L 2284 0 
L 2284 331 
L 2759 331 
L 1766 1697 
L 1313 1275 
L 1313 331 
L 1831 331 
L 1831 0 
z
" transform="scale(0.015625)"/>
      <path id="DejaVuSerif-70" d="M 1313 1825 
L 1313 1497 
Q 1313 897 1542 583 
Q 1772 269 2209 269 
Q 2650 269 2876 622 
Q 3103 975 3103 1663 
Q 3103 2353 2876 2703 
Q 2650 3053 2209 3053 
Q 1772 3053 1542 2737 
Q 1313 2422 1313 1825 
z
M 738 2988 
L 184 2988 
L 184 3322 
L 1313 3322 
L 1313 2803 
Q 1481 3116 1742 3264 
Q 2003 3413 2388 3413 
Q 3000 3413 3387 2928 
Q 3775 2444 3775 1663 
Q 3775 881 3387 395 
Q 3000 -91 2388 -91 
Q 2003 -91 1742 57 
Q 1481 206 1313 519 
L 1313 -997 
L 1856 -997 
L 1856 -1331 
L 184 -1331 
L 184 -997 
L 738 -997 
L 738 2988 
z
" transform="scale(0.015625)"/>
      <path id="DejaVuSerif-6c" d="M 1313 331 
L 1856 331 
L 1856 0 
L 184 0 
L 184 331 
L 738 331 
L 738 4531 
L 184 4531 
L 184 4863 
L 1313 4863 
L 1313 331 
z
" transform="scale(0.015625)"/>
      <path id="DejaVuSerif-6f" d="M 1925 219 
Q 2388 219 2623 584 
Q 2859 950 2859 1663 
Q 2859 2375 2623 2739 
Q 2388 3103 1925 3103 
Q 1463 3103 1227 2739 
Q 991 2375 991 1663 
Q 991 950 1228 584 
Q 1466 219 1925 219 
z
M 1925 -91 
Q 1200 -91 759 389 
Q 319 869 319 1663 
Q 319 2456 758 2934 
Q 1197 3413 1925 3413 
Q 2653 3413 3092 2934 
Q 3531 2456 3531 1663 
Q 3531 869 3092 389 
Q 2653 -91 1925 -91 
z
" transform="scale(0.015625)"/>
      <path id="DejaVuSerif-74" d="M 691 2988 
L 184 2988 
L 184 3322 
L 691 3322 
L 691 4353 
L 1269 4353 
L 1269 3322 
L 2350 3322 
L 2350 2988 
L 1269 2988 
L 1269 878 
Q 1269 456 1350 337 
Q 1431 219 1650 219 
Q 1875 219 1978 351 
Q 2081 484 2088 781 
L 2522 781 
Q 2497 328 2275 118 
Q 2053 -91 1600 -91 
Q 1103 -91 897 129 
Q 691 350 691 878 
L 691 2988 
z
" transform="scale(0.015625)"/>
     </defs>
     <use xlink:href="#DejaVuSerif-54"/>
     <use xlink:href="#DejaVuSerif-72" x="66.699219"/>
     <use xlink:href="#DejaVuSerif-61" x="114.501953"/>
     <use xlink:href="#DejaVuSerif-63" x="174.121094"/>
     <use xlink:href="#DejaVuSerif-6b" x="230.126953"/>
     <use xlink:href="#DejaVuSerif-20" x="290.722656"/>
     <use xlink:href="#DejaVuSerif-70" x="322.509766"/>
     <use xlink:href="#DejaVuSerif-6c" x="386.523438"/>
     <use xlink:href="#DejaVuSerif-6f" x="418.505859"/>
     <use xlink:href="#DejaVuSerif-74" x="478.710938"/>
    </g>
   </g>
   <g id="legend_1">
    <g id="line2d_17">
     <path d="M 128.244869 23.488052 
L 135.244869 23.488052 
L 142.244869 23.488052 
" style="fill: none; stroke: #2a2eec; stroke-width: 0.4; stroke-linecap: round"/>
    </g>
    <g id="text_19">
     <!-- simulation -->
     <g style="fill: #262626" transform="translate(147.844869 25.938052) scale(0.07 -0.07)">
      <defs>
       <path id="DejaVuSerif-73" d="M 359 184 
L 359 959 
L 691 959 
Q 703 588 923 403 
Q 1144 219 1575 219 
Q 1963 219 2166 364 
Q 2369 509 2369 788 
Q 2369 1006 2220 1140 
Q 2072 1275 1594 1428 
L 1178 1569 
Q 750 1706 558 1912 
Q 366 2119 366 2438 
Q 366 2894 700 3153 
Q 1034 3413 1625 3413 
Q 1888 3413 2178 3344 
Q 2469 3275 2778 3144 
L 2778 2419 
L 2447 2419 
Q 2434 2741 2221 2922 
Q 2009 3103 1644 3103 
Q 1281 3103 1095 2975 
Q 909 2847 909 2591 
Q 909 2381 1050 2254 
Q 1191 2128 1613 1997 
L 2069 1856 
Q 2541 1709 2748 1489 
Q 2956 1269 2956 922 
Q 2956 450 2595 179 
Q 2234 -91 1600 -91 
Q 1278 -91 972 -22 
Q 666 47 359 184 
z
" transform="scale(0.015625)"/>
       <path id="DejaVuSerif-69" d="M 622 4353 
Q 622 4497 726 4603 
Q 831 4709 978 4709 
Q 1122 4709 1226 4603 
Q 1331 4497 1331 4353 
Q 1331 4206 1228 4103 
Q 1125 4000 978 4000 
Q 831 4000 726 4103 
Q 622 4206 622 4353 
z
M 1356 331 
L 1900 331 
L 1900 0 
L 231 0 
L 231 331 
L 781 331 
L 781 2988 
L 231 2988 
L 231 3322 
L 1356 3322 
L 1356 331 
z
" transform="scale(0.015625)"/>
       <path id="DejaVuSerif-6d" d="M 3316 2675 
Q 3481 3041 3739 3227 
Q 3997 3413 4341 3413 
Q 4863 3413 5119 3089 
Q 5375 2766 5375 2113 
L 5375 331 
L 5894 331 
L 5894 0 
L 4300 0 
L 4300 331 
L 4800 331 
L 4800 2047 
Q 4800 2556 4650 2772 
Q 4500 2988 4153 2988 
Q 3769 2988 3567 2697 
Q 3366 2406 3366 1850 
L 3366 331 
L 3866 331 
L 3866 0 
L 2291 0 
L 2291 331 
L 2791 331 
L 2791 2069 
Q 2791 2566 2641 2777 
Q 2491 2988 2144 2988 
Q 1759 2988 1557 2697 
Q 1356 2406 1356 1850 
L 1356 331 
L 1856 331 
L 1856 0 
L 263 0 
L 263 331 
L 781 331 
L 781 2994 
L 231 2994 
L 231 3322 
L 1356 3322 
L 1356 2731 
Q 1516 3063 1762 3238 
Q 2009 3413 2322 3413 
Q 2709 3413 2968 3220 
Q 3228 3028 3316 2675 
z
" transform="scale(0.015625)"/>
       <path id="DejaVuSerif-75" d="M 2266 3322 
L 3341 3322 
L 3341 331 
L 3884 331 
L 3884 0 
L 2766 0 
L 2766 588 
Q 2606 256 2353 82 
Q 2100 -91 1766 -91 
Q 1213 -91 952 223 
Q 691 538 691 1209 
L 691 2988 
L 172 2988 
L 172 3322 
L 1269 3322 
L 1269 1388 
Q 1269 781 1417 556 
Q 1566 331 1947 331 
Q 2347 331 2556 625 
Q 2766 919 2766 1478 
L 2766 2988 
L 2266 2988 
L 2266 3322 
z
" transform="scale(0.015625)"/>
       <path id="DejaVuSerif-6e" d="M 263 0 
L 263 331 
L 781 331 
L 781 2988 
L 231 2988 
L 231 3322 
L 1356 3322 
L 1356 2731 
Q 1516 3069 1770 3241 
Q 2025 3413 2363 3413 
Q 2913 3413 3172 3097 
Q 3431 2781 3431 2113 
L 3431 331 
L 3944 331 
L 3944 0 
L 2356 0 
L 2356 331 
L 2853 331 
L 2853 1931 
Q 2853 2541 2703 2767 
Q 2553 2994 2175 2994 
Q 1775 2994 1565 2701 
Q 1356 2409 1356 1850 
L 1356 331 
L 1856 331 
L 1856 0 
L 263 0 
z
" transform="scale(0.015625)"/>
      </defs>
      <use xlink:href="#DejaVuSerif-73"/>
      <use xlink:href="#DejaVuSerif-69" x="51.318359"/>
      <use xlink:href="#DejaVuSerif-6d" x="83.300781"/>
      <use xlink:href="#DejaVuSerif-75" x="178.125"/>
      <use xlink:href="#DejaVuSerif-6c" x="242.529297"/>
      <use xlink:href="#DejaVuSerif-61" x="274.511719"/>
      <use xlink:href="#DejaVuSerif-74" x="334.130859"/>
      <use xlink:href="#DejaVuSerif-69" x="374.316406"/>
      <use xlink:href="#DejaVuSerif-6f" x="406.298828"/>
      <use xlink:href="#DejaVuSerif-6e" x="466.503906"/>
     </g>
    </g>
   </g>
   <g id="line2d_18">
    <path d="M 42.633916 133.306584 
L 40.629153 135.47841 
L 39.626772 137.650237 
L 38.624391 141.99389 
L 38.624391 172.399461 
L 38.925105 174.571288 
L 39.626772 176.743114 
L 45.641061 176.743114 
L 46.342728 174.571288 
L 46.643442 172.399461 
L 46.643442 141.99389 
L 45.641061 137.650237 
L 44.638679 135.47841 
L 42.633916 133.306584 
" clip-path="url(#p477b78f1b2)" style="fill: none; stroke: #0000ff; stroke-opacity: 0.2; stroke-width: 0.4; stroke-linecap: round"/>
   </g>
   <g id="patch_5">
    <path d="M 42.633916 133.306584 
L 40.629153 135.47841 
L 39.626772 137.650237 
L 38.624391 141.99389 
L 38.624391 172.399461 
L 38.925105 174.571288 
L 39.626772 176.743114 
L 45.641061 176.743114 
L 46.342728 174.571288 
L 46.643442 172.399461 
L 46.643442 141.99389 
L 45.641061 137.650237 
L 44.638679 135.47841 
z
" clip-path="url(#p477b78f1b2)" style="fill: #0000ff; opacity: 0.2"/>
   </g>
   <g id="line2d_19">
    <path d="M 73.491052 55.655571 
L 70.538143 55.782986 
L 68.29625 56.61696 
L 64.523478 58.991467 
L 43.091185 80.558933 
L 41.773612 82.311434 
L 40.740444 84.346559 
L 45.006537 88.585913 
L 47.035125 87.539971 
L 48.779308 86.211406 
L 70.211601 64.64394 
L 72.562342 60.856315 
L 73.382204 58.609222 
L 73.491052 55.655571 
" clip-path="url(#p477b78f1b2)" style="fill: none; stroke: #0000ff; stroke-opacity: 0.2; stroke-width: 0.4; stroke-linecap: round"/>
   </g>
   <g id="patch_6">
    <path d="M 73.491052 55.655571 
L 70.538143 55.782986 
L 68.29625 56.61696 
L 64.523478 58.991467 
L 43.091185 80.558933 
L 41.773612 82.311434 
L 40.740444 84.346559 
L 45.006537 88.585913 
L 47.035125 87.539971 
L 48.779308 86.211406 
L 70.211601 64.64394 
L 72.562342 60.856315 
L 73.382204 58.609222 
z
" clip-path="url(#p477b78f1b2)" style="fill: #0000ff; opacity: 0.2"/>
   </g>
   <g id="line2d_20">
    <path d="M 138.703859 46.556507 
L 137.0734 44.091246 
L 135.203653 42.599386 
L 131.224871 40.589068 
L 101.698373 33.330647 
L 99.517551 33.104209 
L 97.241013 33.267131 
L 95.805282 39.107537 
L 97.746815 40.307376 
L 99.784064 41.117855 
L 129.310562 48.376276 
L 133.767922 48.439792 
L 136.116246 47.98485 
L 138.703859 46.556507 
" clip-path="url(#p477b78f1b2)" style="fill: none; stroke: #0000ff; stroke-opacity: 0.2; stroke-width: 0.4; stroke-linecap: round"/>
   </g>
   <g id="patch_7">
    <path d="M 138.703859 46.556507 
L 137.0734 44.091246 
L 135.203653 42.599386 
L 131.224871 40.589068 
L 101.698373 33.330647 
L 99.517551 33.104209 
L 97.241013 33.267131 
L 95.805282 39.107537 
L 97.746815 40.307376 
L 99.784064 41.117855 
L 129.310562 48.376276 
L 133.767922 48.439792 
L 136.116246 47.98485 
z
" clip-path="url(#p477b78f1b2)" style="fill: #0000ff; opacity: 0.2"/>
   </g>
   <g id="line2d_21">
    <path d="M 174.666042 88.719109 
L 175.62694 85.92401 
L 175.670258 83.532416 
L 174.839315 79.152733 
L 162.599658 51.319488 
L 161.450123 49.45245 
L 159.933556 47.746815 
L 154.428079 50.167846 
L 154.660034 52.438389 
L 155.259022 54.547529 
L 167.498679 82.380775 
L 170.164781 85.953447 
L 171.956622 87.538031 
L 174.666042 88.719109 
" clip-path="url(#p477b78f1b2)" style="fill: none; stroke: #0000ff; stroke-opacity: 0.2; stroke-width: 0.4; stroke-linecap: round"/>
   </g>
   <g id="patch_8">
    <path d="M 174.666042 88.719109 
L 175.62694 85.92401 
L 175.670258 83.532416 
L 174.839315 79.152733 
L 162.599658 51.319488 
L 161.450123 49.45245 
L 159.933556 47.746815 
L 154.428079 50.167846 
L 154.660034 52.438389 
L 155.259022 54.547529 
L 167.498679 82.380775 
L 170.164781 85.953447 
L 171.956622 87.538031 
z
" clip-path="url(#p477b78f1b2)" style="fill: #0000ff; opacity: 0.2"/>
   </g>
   <g id="line2d_22">
    <path d="M 165.025123 137.184766 
L 167.756441 136.05525 
L 169.577992 134.50491 
L 172.311326 130.983408 
L 185.076294 103.387134 
L 185.715147 101.289725 
L 185.990093 99.023986 
L 180.53149 96.499048 
L 178.982869 98.175634 
L 177.798155 100.020549 
L 165.033188 127.616824 
L 164.119388 131.979972 
L 164.117372 134.371957 
L 165.025123 137.184766 
" clip-path="url(#p477b78f1b2)" style="fill: none; stroke: #0000ff; stroke-opacity: 0.2; stroke-width: 0.4; stroke-linecap: round"/>
   </g>
   <g id="patch_9">
    <path d="M 165.025123 137.184766 
L 167.756441 136.05525 
L 169.577992 134.50491 
L 172.311326 130.983408 
L 185.076294 103.387134 
L 185.715147 101.289725 
L 185.990093 99.023986 
L 180.53149 96.499048 
L 178.982869 98.175634 
L 177.798155 100.020549 
L 165.033188 127.616824 
L 164.119388 131.979972 
L 164.117372 134.371957 
z
" clip-path="url(#p477b78f1b2)" style="fill: #0000ff; opacity: 0.2"/>
   </g>
   <g id="line2d_23">
    <path d="M 125.42742 160.361714 
L 128.129221 161.560119 
L 130.508166 161.80956 
L 134.943199 161.359478 
L 163.728432 151.566161 
L 165.687664 150.581949 
L 167.517752 149.218152 
L 165.580612 143.524369 
L 163.298525 143.559617 
L 161.14558 143.974451 
L 132.360346 153.767768 
L 128.571026 156.115777 
L 126.837794 157.764264 
L 125.42742 160.361714 
" clip-path="url(#p477b78f1b2)" style="fill: none; stroke: #0000ff; stroke-opacity: 0.2; stroke-width: 0.4; stroke-linecap: round"/>
   </g>
   <g id="patch_10">
    <path d="M 125.42742 160.361714 
L 128.129221 161.560119 
L 130.508166 161.80956 
L 134.943199 161.359478 
L 163.728432 151.566161 
L 165.687664 150.581949 
L 167.517752 149.218152 
L 165.580612 143.524369 
L 163.298525 143.559617 
L 161.14558 143.974451 
L 132.360346 153.767768 
L 128.571026 156.115777 
L 126.837794 157.764264 
z
" clip-path="url(#p477b78f1b2)" style="fill: #0000ff; opacity: 0.2"/>
   </g>
   <g id="line2d_24">
    <path d="M 83.38434 148.215099 
L 84.44021 150.975723 
L 85.941146 152.838191 
L 89.388087 155.664972 
L 116.632143 169.165348 
L 118.711668 169.860213 
L 120.969219 170.195817 
L 123.639623 164.806883 
L 122.005166 163.213861 
L 120.192682 161.980102 
L 92.948626 148.479726 
L 88.61155 147.449257 
L 86.220479 147.3831 
L 83.38434 148.215099 
" clip-path="url(#p477b78f1b2)" style="fill: none; stroke: #0000ff; stroke-opacity: 0.2; stroke-width: 0.4; stroke-linecap: round"/>
   </g>
   <g id="patch_11">
    <path d="M 83.38434 148.215099 
L 84.44021 150.975723 
L 85.941146 152.838191 
L 89.388087 155.664972 
L 116.632143 169.165348 
L 118.711668 169.860213 
L 120.969219 170.195817 
L 123.639623 164.806883 
L 122.005166 163.213861 
L 120.192682 161.980102 
L 92.948626 148.479726 
L 88.61155 147.449257 
L 86.220479 147.3831 
z
" clip-path="url(#p477b78f1b2)" style="fill: #0000ff; opacity: 0.2"/>
   </g>
   <g id="line2d_25">
    <path d="M 63.05574 111.024336 
L 61.881778 113.736847 
L 61.653825 116.117947 
L 62.14393 120.548735 
L 72.196736 149.244377 
L 73.198597 151.194642 
L 74.578862 153.012343 
L 80.254923 151.023876 
L 80.199072 148.742199 
L 79.764818 146.593087 
L 69.712011 117.897446 
L 67.329886 114.12948 
L 65.665818 112.411202 
L 63.05574 111.024336 
" clip-path="url(#p477b78f1b2)" style="fill: none; stroke: #0000ff; stroke-opacity: 0.2; stroke-width: 0.4; stroke-linecap: round"/>
   </g>
   <g id="patch_12">
    <path d="M 63.05574 111.024336 
L 61.881778 113.736847 
L 61.653825 116.117947 
L 62.14393 120.548735 
L 72.196736 149.244377 
L 73.198597 151.194642 
L 74.578862 153.012343 
L 80.254923 151.023876 
L 80.199072 148.742199 
L 79.764818 146.593087 
L 69.712011 117.897446 
L 67.329886 114.12948 
L 65.665818 112.411202 
z
" clip-path="url(#p477b78f1b2)" style="fill: #0000ff; opacity: 0.2"/>
   </g>
   <g id="line2d_26">
    <path d="M 74.341102 71.043029 
L 71.615199 72.185551 
L 69.801059 73.744556 
L 67.084542 77.279047 
L 54.451263 104.935854 
L 53.822415 107.036285 
L 53.558272 109.303309 
L 59.028849 111.802199 
L 60.56946 110.11825 
L 61.745366 108.267708 
L 74.378645 80.610901 
L 75.271636 76.243446 
L 75.262251 73.851478 
L 74.341102 71.043029 
" clip-path="url(#p477b78f1b2)" style="fill: none; stroke: #0000ff; stroke-opacity: 0.2; stroke-width: 0.4; stroke-linecap: round"/>
   </g>
   <g id="patch_13">
    <path d="M 74.341102 71.043029 
L 71.615199 72.185551 
L 69.801059 73.744556 
L 67.084542 77.279047 
L 54.451263 104.935854 
L 53.822415 107.036285 
L 53.558272 109.303309 
L 59.028849 111.802199 
L 60.56946 110.11825 
L 61.745366 108.267708 
L 74.378645 80.610901 
L 75.271636 76.243446 
L 75.262251 73.851478 
z
" clip-path="url(#p477b78f1b2)" style="fill: #0000ff; opacity: 0.2"/>
   </g>
   <g id="line2d_27">
    <path d="M 109.785954 50.339229 
L 107.024032 49.286759 
L 104.635164 49.164665 
L 100.23048 49.850854 
L 72.009071 61.166807 
L 70.105172 62.254202 
L 68.350494 63.713747 
L 70.588814 69.296004 
L 72.865767 69.138985 
L 74.993498 68.609816 
L 103.214907 57.293863 
L 106.873484 54.746922 
L 108.516246 53.008264 
L 109.785954 50.339229 
" clip-path="url(#p477b78f1b2)" style="fill: none; stroke: #0000ff; stroke-opacity: 0.2; stroke-width: 0.4; stroke-linecap: round"/>
   </g>
   <g id="patch_14">
    <path d="M 109.785954 50.339229 
L 107.024032 49.286759 
L 104.635164 49.164665 
L 100.23048 49.850854 
L 72.009071 61.166807 
L 70.105172 62.254202 
L 68.350494 63.713747 
L 70.588814 69.296004 
L 72.865767 69.138985 
L 74.993498 68.609816 
L 103.214907 57.293863 
L 106.873484 54.746922 
L 108.516246 53.008264 
z
" clip-path="url(#p477b78f1b2)" style="fill: #0000ff; opacity: 0.2"/>
   </g>
   <g id="line2d_28">
    <path d="M 149.363245 59.72457 
L 148.07837 57.062804 
L 146.425742 55.333521 
L 142.752732 52.807439 
L 114.46739 41.652252 
L 112.336683 41.135198 
L 110.058874 40.991138 
L 107.852353 46.586041 
L 109.615308 48.035578 
L 111.525363 49.112122 
L 139.810705 60.267309 
L 144.219222 60.928424 
L 146.607357 60.792739 
L 149.363245 59.72457 
" clip-path="url(#p477b78f1b2)" style="fill: none; stroke: #0000ff; stroke-opacity: 0.2; stroke-width: 0.4; stroke-linecap: round"/>
   </g>
   <g id="patch_15">
    <path d="M 149.363245 59.72457 
L 148.07837 57.062804 
L 146.425742 55.333521 
L 142.752732 52.807439 
L 114.46739 41.652252 
L 112.336683 41.135198 
L 110.058874 40.991138 
L 107.852353 46.586041 
L 109.615308 48.035578 
L 111.525363 49.112122 
L 139.810705 60.267309 
L 144.219222 60.928424 
L 146.607357 60.792739 
z
" clip-path="url(#p477b78f1b2)" style="fill: #0000ff; opacity: 0.2"/>
   </g>
   <g id="line2d_29">
    <path d="M 171.548695 93.560104 
L 172.43684 90.741044 
L 172.41817 88.34913 
L 171.474014 83.99245 
L 158.517215 56.485721 
L 157.319685 54.649099 
L 155.759429 52.983336 
L 150.318537 55.546219 
L 150.609252 57.809989 
L 151.262693 59.902899 
L 164.219492 87.409628 
L 166.977278 90.912013 
L 168.809579 92.449632 
L 171.548695 93.560104 
" clip-path="url(#p477b78f1b2)" style="fill: none; stroke: #0000ff; stroke-opacity: 0.2; stroke-width: 0.4; stroke-linecap: round"/>
   </g>
   <g id="patch_16">
    <path d="M 171.548695 93.560104 
L 172.43684 90.741044 
L 172.41817 88.34913 
L 171.474014 83.99245 
L 158.517215 56.485721 
L 157.319685 54.649099 
L 155.759429 52.983336 
L 150.318537 55.546219 
L 150.609252 57.809989 
L 151.262693 59.902899 
L 164.219492 87.409628 
L 166.977278 90.912013 
L 168.809579 92.449632 
z
" clip-path="url(#p477b78f1b2)" style="fill: #0000ff; opacity: 0.2"/>
   </g>
   <g id="line2d_30">
    <path d="M 164.509026 133.300692 
L 167.086727 131.854537 
L 168.71109 130.098678 
L 171.006481 126.277255 
L 180.400853 97.359362 
L 180.785878 95.200887 
L 180.789569 92.91853 
L 175.069546 91.060303 
L 173.731184 92.909073 
L 172.774156 94.881726 
L 163.379784 123.799619 
L 162.991068 128.240451 
L 163.273378 130.615719 
L 164.509026 133.300692 
" clip-path="url(#p477b78f1b2)" style="fill: none; stroke: #0000ff; stroke-opacity: 0.2; stroke-width: 0.4; stroke-linecap: round"/>
   </g>
   <g id="patch_17">
    <path d="M 164.509026 133.300692 
L 167.086727 131.854537 
L 168.71109 130.098678 
L 171.006481 126.277255 
L 180.400853 97.359362 
L 180.785878 95.200887 
L 180.789569 92.91853 
L 175.069546 91.060303 
L 173.731184 92.909073 
L 172.774156 94.881726 
L 163.379784 123.799619 
L 162.991068 128.240451 
L 163.273378 130.615719 
z
" clip-path="url(#p477b78f1b2)" style="fill: #0000ff; opacity: 0.2"/>
   </g>
   <g id="line2d_31">
    <path d="M 132.265713 157.369504 
L 135.135588 158.076418 
L 137.521463 157.905542 
L 141.809214 156.686002 
L 168.435481 142.004698 
L 170.192157 140.692696 
L 171.755234 139.02958 
L 168.85124 133.762846 
L 166.610564 134.197058 
L 164.563489 134.982386 
L 137.937222 149.66369 
L 134.617469 152.638808 
L 133.199592 154.565262 
L 132.265713 157.369504 
" clip-path="url(#p477b78f1b2)" style="fill: none; stroke: #0000ff; stroke-opacity: 0.2; stroke-width: 0.4; stroke-linecap: round"/>
   </g>
   <g id="patch_18">
    <path d="M 132.265713 157.369504 
L 135.135588 158.076418 
L 137.521463 157.905542 
L 141.809214 156.686002 
L 168.435481 142.004698 
L 170.192157 140.692696 
L 171.755234 139.02958 
L 168.85124 133.762846 
L 166.610564 134.197058 
L 164.563489 134.982386 
L 137.937222 149.66369 
L 134.617469 152.638808 
L 133.199592 154.565262 
z
" clip-path="url(#p477b78f1b2)" style="fill: #0000ff; opacity: 0.2"/>
   </g>
   <g id="line2d_32">
    <path d="M 92.302033 152.872187 
L 93.91272 155.35041 
L 95.770475 156.857178 
L 99.73305 158.899257 
L 129.200546 166.393618 
L 131.379487 166.637493 
L 133.657255 166.492785 
L 135.139656 160.66405 
L 133.207782 159.448719 
L 131.177081 158.621971 
L 101.709585 151.127609 
L 97.252876 151.028442 
L 94.900988 151.464587 
L 92.302033 152.872187 
" clip-path="url(#p477b78f1b2)" style="fill: none; stroke: #ff0000; stroke-opacity: 0.2; stroke-width: 0.4; stroke-linecap: round"/>
   </g>
   <g id="patch_19">
    <path d="M 92.302033 152.872187 
L 93.91272 155.35041 
L 95.770475 156.857178 
L 99.73305 158.899257 
L 129.200546 166.393618 
L 131.379487 166.637493 
L 133.657255 166.492785 
L 135.139656 160.66405 
L 133.207782 159.448719 
L 131.177081 158.621971 
L 101.709585 151.127609 
L 97.252876 151.028442 
L 94.900988 151.464587 
z
" clip-path="url(#p477b78f1b2)" style="fill: #ff0000; opacity: 0.2"/>
   </g>
  </g>
 </g>
 <defs>
  <clipPath id="p477b78f1b2">
   <rect x="33.305084" y="14.319146" width="158.004316" height="181.20903"/>
  </clipPath>
 </defs>
</svg>
