<?xml version="1.0" encoding="utf-8" standalone="no"?>
<!DOCTYPE svg PUBLIC "-//W3C//DTD SVG 1.1//EN"
  "http://www.w3.org/Graphics/SVG/1.1/DTD/svg11.dtd">
<svg xmlns:xlink="http://www.w3.org/1999/xlink" width="155.447712pt" height="196.760794pt" viewBox="0 0 155.447712 196.760794" xmlns="http://www.w3.org/2000/svg" version="1.1">
 <metadata>
  <rdf:RDF xmlns:dc="http://purl.org/dc/elements/1.1/" xmlns:cc="http://creativecommons.org/ns#" xmlns:rdf="http://www.w3.org/1999/02/22-rdf-syntax-ns#">
   <cc:Work>
    <dc:type rdf:resource="http://purl.org/dc/dcmitype/StillImage"/>
    <dc:date>2025-02-25T10:27:27.172700</dc:date>
    <dc:format>image/svg+xml</dc:format>
    <dc:creator>
     <cc:Agent>
      <dc:title>Matplotlib v3.8.2, https://matplotlib.org/</dc:title>
     </cc:Agent>
    </dc:creator>
   </cc:Work>
  </rdf:RDF>
 </metadata>
 <defs>
  <style type="text/css">*{stroke-linejoin: round; stroke-linecap: butt}</style>
 </defs>
 <g id="figure_1">
  <g id="patch_1">
   <path d="M 0 196.760794 
L 155.447712 196.760794 
L 155.447712 0 
L 0 0 
z
" style="fill: #ffffff"/>
  </g>
  <g id="axes_1">
   <g id="patch_2">
    <path d="M 26.626646 173.665866 
L 152.447472 173.665866 
L 152.447472 3.00024 
L 26.626646 3.00024 
z
" style="fill: #ffffff"/>
   </g>
   <g id="matplotlib.axis_1">
    <g id="xtick_1">
     <g id="line2d_1"/>
     <g id="text_1">
      <!-- 0 -->
      <g style="fill: #262626" transform="translate(33.23102 182.484772) scale(0.07 -0.07)">
       <defs>
        <path id="DejaVuSerif-30" d="M 2034 219 
Q 2513 219 2750 744 
Q 2988 1269 2988 2328 
Q 2988 3391 2750 3916 
Q 2513 4441 2034 4441 
Q 1556 4441 1318 3916 
Q 1081 3391 1081 2328 
Q 1081 1269 1318 744 
Q 1556 219 2034 219 
z
M 2034 -91 
Q 1275 -91 848 546 
Q 422 1184 422 2328 
Q 422 3475 848 4112 
Q 1275 4750 2034 4750 
Q 2797 4750 3222 4112 
Q 3647 3475 3647 2328 
Q 3647 1184 3222 546 
Q 2797 -91 2034 -91 
z
" transform="scale(0.015625)"/>
       </defs>
       <use xlink:href="#DejaVuSerif-30"/>
      </g>
     </g>
    </g>
    <g id="xtick_2">
     <g id="line2d_2"/>
     <g id="text_2">
      <!-- 5 -->
      <g style="fill: #262626" transform="translate(68.501723 182.484772) scale(0.07 -0.07)">
       <defs>
        <path id="DejaVuSerif-35" d="M 3219 4666 
L 3219 4153 
L 1081 4153 
L 1081 2816 
Q 1244 2928 1461 2984 
Q 1678 3041 1947 3041 
Q 2703 3041 3140 2622 
Q 3578 2203 3578 1478 
Q 3578 738 3136 323 
Q 2694 -91 1894 -91 
Q 1572 -91 1234 -12 
Q 897 66 544 225 
L 544 1131 
L 897 1131 
Q 925 688 1179 453 
Q 1434 219 1894 219 
Q 2388 219 2653 544 
Q 2919 869 2919 1478 
Q 2919 2084 2655 2407 
Q 2391 2731 1894 2731 
Q 1613 2731 1398 2631 
Q 1184 2531 1019 2322 
L 750 2322 
L 750 4666 
L 3219 4666 
z
" transform="scale(0.015625)"/>
       </defs>
       <use xlink:href="#DejaVuSerif-35"/>
      </g>
     </g>
    </g>
    <g id="xtick_3">
     <g id="line2d_3"/>
     <g id="text_3">
      <!-- 10 -->
      <g style="fill: #262626" transform="translate(101.54555 182.484772) scale(0.07 -0.07)">
       <defs>
        <path id="DejaVuSerif-31" d="M 909 0 
L 909 331 
L 1722 331 
L 1722 4213 
L 781 3603 
L 781 4013 
L 1919 4750 
L 2350 4750 
L 2350 331 
L 3163 331 
L 3163 0 
L 909 0 
z
" transform="scale(0.015625)"/>
       </defs>
       <use xlink:href="#DejaVuSerif-31"/>
       <use xlink:href="#DejaVuSerif-30" x="63.623047"/>
      </g>
     </g>
    </g>
    <g id="xtick_4">
     <g id="line2d_4"/>
     <g id="text_4">
      <!-- 15 -->
      <g style="fill: #262626" transform="translate(136.816253 182.484772) scale(0.07 -0.07)">
       <use xlink:href="#DejaVuSerif-31"/>
       <use xlink:href="#DejaVuSerif-35" x="63.623047"/>
      </g>
     </g>
    </g>
    <g id="text_5">
     <!-- $y_0$ $[m]$ -->
     <g style="fill: #262626" transform="translate(80.117059 192.500554) scale(0.06 -0.06)">
      <defs>
       <path id="DejaVuSans-Oblique-79" d="M 1588 -325 
Q 1188 -997 936 -1164 
Q 684 -1331 294 -1331 
L -159 -1331 
L -63 -850 
L 269 -850 
Q 509 -850 678 -719 
Q 847 -588 1056 -206 
L 1234 128 
L 459 3500 
L 1069 3500 
L 1650 819 
L 3256 3500 
L 3859 3500 
L 1588 -325 
z
" transform="scale(0.015625)"/>
       <path id="DejaVuSans-30" d="M 2034 4250 
Q 1547 4250 1301 3770 
Q 1056 3291 1056 2328 
Q 1056 1369 1301 889 
Q 1547 409 2034 409 
Q 2525 409 2770 889 
Q 3016 1369 3016 2328 
Q 3016 3291 2770 3770 
Q 2525 4250 2034 4250 
z
M 2034 4750 
Q 2819 4750 3233 4129 
Q 3647 3509 3647 2328 
Q 3647 1150 3233 529 
Q 2819 -91 2034 -91 
Q 1250 -91 836 529 
Q 422 1150 422 2328 
Q 422 3509 836 4129 
Q 1250 4750 2034 4750 
z
" transform="scale(0.015625)"/>
       <path id="DejaVuSerif-20" transform="scale(0.015625)"/>
       <path id="DejaVuSans-5b" d="M 550 4863 
L 1875 4863 
L 1875 4416 
L 1125 4416 
L 1125 -397 
L 1875 -397 
L 1875 -844 
L 550 -844 
L 550 4863 
z
" transform="scale(0.015625)"/>
       <path id="DejaVuSans-Oblique-6d" d="M 5747 2113 
L 5338 0 
L 4763 0 
L 5166 2094 
Q 5191 2228 5203 2325 
Q 5216 2422 5216 2491 
Q 5216 2772 5059 2928 
Q 4903 3084 4622 3084 
Q 4203 3084 3875 2770 
Q 3547 2456 3450 1953 
L 3066 0 
L 2491 0 
L 2900 2094 
Q 2925 2209 2937 2307 
Q 2950 2406 2950 2484 
Q 2950 2769 2794 2926 
Q 2638 3084 2363 3084 
Q 1938 3084 1609 2770 
Q 1281 2456 1184 1953 
L 800 0 
L 225 0 
L 909 3500 
L 1484 3500 
L 1375 2956 
Q 1609 3263 1923 3423 
Q 2238 3584 2597 3584 
Q 2978 3584 3223 3384 
Q 3469 3184 3519 2828 
Q 3781 3197 4126 3390 
Q 4472 3584 4856 3584 
Q 5306 3584 5551 3325 
Q 5797 3066 5797 2591 
Q 5797 2488 5784 2364 
Q 5772 2241 5747 2113 
z
" transform="scale(0.015625)"/>
       <path id="DejaVuSans-5d" d="M 1947 4863 
L 1947 -844 
L 622 -844 
L 622 -397 
L 1369 -397 
L 1369 4416 
L 622 4416 
L 622 4863 
L 1947 4863 
z
" transform="scale(0.015625)"/>
      </defs>
      <use xlink:href="#DejaVuSans-Oblique-79" transform="translate(0 0.015625)"/>
      <use xlink:href="#DejaVuSans-30" transform="translate(59.179688 -16.390625) scale(0.7)"/>
      <use xlink:href="#DejaVuSerif-20" transform="translate(106.450195 0.015625)"/>
      <use xlink:href="#DejaVuSans-5b" transform="translate(138.237305 0.015625)"/>
      <use xlink:href="#DejaVuSans-Oblique-6d" transform="translate(177.250977 0.015625)"/>
      <use xlink:href="#DejaVuSans-5d" transform="translate(274.663086 0.015625)"/>
     </g>
    </g>
   </g>
   <g id="matplotlib.axis_2">
    <g id="ytick_1">
     <g id="line2d_5"/>
     <g id="text_6">
      <!-- −5 -->
      <g style="fill: #262626" transform="translate(12.807115 165.150836) scale(0.07 -0.07)">
       <defs>
        <path id="DejaVuSerif-2212" d="M 678 2259 
L 4684 2259 
L 4684 1753 
L 678 1753 
L 678 2259 
z
" transform="scale(0.015625)"/>
       </defs>
       <use xlink:href="#DejaVuSerif-2212"/>
       <use xlink:href="#DejaVuSerif-35" x="83.789062"/>
      </g>
     </g>
    </g>
    <g id="ytick_2">
     <g id="line2d_6"/>
     <g id="text_7">
      <!-- 0 -->
      <g style="fill: #262626" transform="translate(18.672896 129.880134) scale(0.07 -0.07)">
       <use xlink:href="#DejaVuSerif-30"/>
      </g>
     </g>
    </g>
    <g id="ytick_3">
     <g id="line2d_7"/>
     <g id="text_8">
      <!-- 5 -->
      <g style="fill: #262626" transform="translate(18.672896 94.609431) scale(0.07 -0.07)">
       <use xlink:href="#DejaVuSerif-35"/>
      </g>
     </g>
    </g>
    <g id="ytick_4">
     <g id="line2d_8"/>
     <g id="text_9">
      <!-- 10 -->
      <g style="fill: #262626" transform="translate(14.219146 59.338729) scale(0.07 -0.07)">
       <use xlink:href="#DejaVuSerif-31"/>
       <use xlink:href="#DejaVuSerif-30" x="63.623047"/>
      </g>
     </g>
    </g>
    <g id="ytick_5">
     <g id="line2d_9"/>
     <g id="text_10">
      <!-- 15 -->
      <g style="fill: #262626" transform="translate(14.219146 24.068026) scale(0.07 -0.07)">
       <use xlink:href="#DejaVuSerif-31"/>
       <use xlink:href="#DejaVuSerif-35" x="63.623047"/>
      </g>
     </g>
    </g>
    <g id="text_11">
     <!-- $x_0$ $[m]$ -->
     <g style="fill: #262626" transform="translate(7.559303 97.753053) rotate(-90) scale(0.06 -0.06)">
      <defs>
       <path id="DejaVuSans-Oblique-78" d="M 3841 3500 
L 2234 1784 
L 3219 0 
L 2559 0 
L 1819 1388 
L 531 0 
L -166 0 
L 1556 1844 
L 641 3500 
L 1300 3500 
L 1972 2234 
L 3144 3500 
L 3841 3500 
z
" transform="scale(0.015625)"/>
      </defs>
      <use xlink:href="#DejaVuSans-Oblique-78" transform="translate(0 0.015625)"/>
      <use xlink:href="#DejaVuSans-30" transform="translate(59.179688 -16.390625) scale(0.7)"/>
      <use xlink:href="#DejaVuSerif-20" transform="translate(106.450195 0.015625)"/>
      <use xlink:href="#DejaVuSans-5b" transform="translate(138.237305 0.015625)"/>
      <use xlink:href="#DejaVuSans-Oblique-6d" transform="translate(177.250977 0.015625)"/>
      <use xlink:href="#DejaVuSans-5d" transform="translate(274.663086 0.015625)"/>
     </g>
    </g>
   </g>
   <g id="line2d_10">
    <path d="M 35.457895 127.22068 
L 35.564164 103.141246 
L 35.926149 97.510704 
L 36.466223 92.535923 
L 37.176092 88.026356 
L 38.065763 83.799131 
L 39.11928 79.860666 
L 40.35494 76.09931 
L 41.763547 72.525192 
L 43.332517 69.146072 
L 45.075713 65.917063 
L 46.984252 62.848663 
L 49.047547 59.94982 
L 51.253723 57.227814 
L 53.628236 54.649708 
L 56.12346 52.264781 
L 58.766898 50.043677 
L 61.548738 47.997963 
L 64.414109 46.1644 
L 67.39325 44.519959 
L 70.474114 43.073309 
L 73.643942 41.832157 
L 76.842832 40.816351 
L 80.103092 40.012126 
L 83.410892 39.424382 
L 86.751987 39.057058 
L 90.11177 38.913129 
L 93.430225 38.991992 
L 96.739038 39.291315 
L 100.023462 39.8113 
L 103.268625 40.551158 
L 106.418827 41.495354 
L 109.502896 42.64975 
L 112.506428 44.010856 
L 115.41513 45.574185 
L 118.180817 47.311201 
L 120.827659 49.234467 
L 123.342426 51.336922 
L 125.712227 53.610541 
L 127.899063 56.016245 
L 129.921172 58.571445 
L 131.746545 61.233112 
L 133.390257 64.020567 
L 134.842471 66.922188 
L 136.080738 69.890278 
L 137.115079 72.9458 
L 137.937962 76.075284 
L 138.537099 79.228234 
L 138.917449 82.426109 
L 139.073661 85.617801 
L 139.007413 88.824649 
L 138.720252 91.995804 
L 138.210713 95.152018 
L 137.487114 98.243557 
L 136.545045 101.290157 
L 135.399369 104.244035 
L 134.042986 107.123521 
L 132.496981 109.883598 
L 130.771565 112.513018 
L 128.856022 115.027559 
L 126.779766 117.387938 
L 124.530203 119.607754 
L 122.14172 121.652273 
L 119.627604 123.513918 
L 116.972969 125.20279 
L 114.21822 126.692202 
L 111.377885 127.977248 
L 108.435673 129.064221 
L 105.436298 129.935471 
L 102.395043 130.588987 
L 99.295125 131.027148 
L 96.183683 131.242005 
L 93.076224 131.234592 
L 89.988042 131.006953 
L 86.90291 130.556414 
L 83.867943 129.888305 
L 80.897893 129.007723 
L 78.007049 127.920709 
L 75.181163 126.620077 
L 72.463776 125.123925 
L 69.867851 123.441168 
L 67.405655 121.581533 
L 65.08871 119.555506 
L 62.906751 117.351498 
L 60.894143 115.001356 
L 59.060183 112.517911 
L 57.413229 109.914548 
L 55.96067 107.205144 
L 54.708895 104.403996 
L 53.653875 101.496637 
L 52.81361 98.526029 
L 52.191463 95.507787 
L 51.789692 92.457671 
L 51.609446 89.391513 
L 51.650766 86.325141 
L 51.912592 83.274304 
L 52.392768 80.254597 
L 53.096009 77.252234 
L 54.014225 74.312811 
L 55.141922 71.451459 
L 56.472562 68.682851 
L 57.998602 66.02113 
L 59.711536 63.47984 
L 61.601937 61.071866 
L 63.659508 58.80937 
L 65.873137 56.703733 
L 68.230954 54.765502 
L 70.720391 53.004341 
L 73.328245 51.428982 
L 76.067815 50.034624 
L 78.899409 48.844597 
L 81.807899 47.864774 
L 84.777795 47.099924 
L 87.793324 46.553685 
L 90.838515 46.228553 
L 93.897274 46.125871 
L 96.953472 46.245819 
L 99.991026 46.587425 
L 102.99398 47.148561 
L 105.946588 47.925967 
L 108.833391 48.915261 
L 111.639302 50.110968 
L 114.349676 51.506546 
L 116.950388 53.094426 
L 119.427906 54.866049 
L 121.769358 56.811912 
L 123.962595 58.921619 
L 125.996257 61.183933 
L 127.859828 63.586839 
L 129.543691 66.117603 
L 131.039174 68.76284 
L 132.338596 71.508585 
L 133.435305 74.340363 
L 134.331299 77.271749 
L 135.010301 80.259932 
L 135.46884 83.288912 
L 135.704619 86.342485 
L 135.716527 89.404331 
L 135.504641 92.458097 
L 135.070229 95.48749 
L 134.415739 98.476354 
L 133.544783 101.408764 
L 132.462126 104.269103 
L 131.173651 107.042147 
L 129.686331 109.713147 
L 128.008193 112.267905 
L 126.148271 114.692848 
L 124.116561 116.9751 
L 121.923968 119.10255 
L 119.582244 121.063917 
L 117.103929 122.848807 
L 114.502283 124.447769 
L 111.791217 125.852345 
L 108.985215 127.055113 
L 106.099262 128.049727 
L 103.148761 128.830949 
L 100.149452 129.394679 
L 97.11733 129.737973 
L 94.068559 129.859061 
L 91.019384 129.757354 
L 90.346619 129.704814 
L 90.346619 129.704814 
" clip-path="url(#p0c1533fec3)" style="fill: none; stroke: #2a2eec; stroke-width: 0.4; stroke-linecap: round"/>
   </g>
   <g id="patch_3">
    <path d="M 26.626646 173.665866 
L 26.626646 3.00024 
" style="fill: none; stroke: #000000; stroke-linejoin: miter; stroke-linecap: square"/>
   </g>
   <g id="patch_4">
    <path d="M 26.626646 173.665866 
L 152.447472 173.665866 
" style="fill: none; stroke: #000000; stroke-linejoin: miter; stroke-linecap: square"/>
   </g>
   <g id="line2d_11">
    <path d="M 35.457895 110.363359 
L 33.901835 112.049092 
L 33.123805 113.734824 
L 32.345775 117.106288 
L 32.345775 140.706537 
L 32.579184 142.392269 
L 33.123805 144.078001 
L 37.791986 144.078001 
L 38.336607 142.392269 
L 38.570016 140.706537 
L 38.570016 117.106288 
L 37.791986 113.734824 
L 37.013956 112.049092 
L 35.457895 110.363359 
" clip-path="url(#p0c1533fec3)" style="fill: none; stroke: #0000ff; stroke-opacity: 0.2; stroke-width: 0.4; stroke-linecap: round"/>
   </g>
   <g id="patch_5">
    <path d="M 35.457895 110.363359 
L 33.901835 112.049092 
L 33.123805 113.734824 
L 32.345775 117.106288 
L 32.345775 140.706537 
L 32.579184 142.392269 
L 33.123805 144.078001 
L 37.791986 144.078001 
L 38.336607 142.392269 
L 38.570016 140.706537 
L 38.570016 117.106288 
L 37.791986 113.734824 
L 37.013956 112.049092 
z
" clip-path="url(#p0c1533fec3)" style="fill: #0000ff; opacity: 0.2"/>
   </g>
   <g id="line2d_12">
    <path d="M 59.408641 50.09206 
L 57.116647 50.190958 
L 55.37653 50.838273 
L 52.448174 52.681322 
L 35.812819 69.421596 
L 34.790143 70.781855 
L 33.988217 72.361482 
L 37.29948 75.651991 
L 38.874034 74.84015 
L 40.227836 73.808942 
L 56.863191 57.068669 
L 58.687793 54.128783 
L 59.324155 52.384631 
L 59.408641 50.09206 
" clip-path="url(#p0c1533fec3)" style="fill: none; stroke: #0000ff; stroke-opacity: 0.2; stroke-width: 0.4; stroke-linecap: round"/>
   </g>
   <g id="patch_6">
    <path d="M 59.408641 50.09206 
L 57.116647 50.190958 
L 55.37653 50.838273 
L 52.448174 52.681322 
L 35.812819 69.421596 
L 34.790143 70.781855 
L 33.988217 72.361482 
L 37.29948 75.651991 
L 38.874034 74.84015 
L 40.227836 73.808942 
L 56.863191 57.068669 
L 58.687793 54.128783 
L 59.324155 52.384631 
z
" clip-path="url(#p0c1533fec3)" style="fill: #0000ff; opacity: 0.2"/>
   </g>
   <g id="line2d_13">
    <path d="M 110.025631 43.029533 
L 108.760099 41.116042 
L 107.308836 39.958088 
L 104.220577 38.397716 
L 81.302649 32.763862 
L 79.609934 32.588105 
L 77.842927 32.714562 
L 76.728539 37.247779 
L 78.235522 38.179072 
L 79.816797 38.808151 
L 102.734726 44.442005 
L 106.194447 44.491305 
L 108.017174 44.138187 
L 110.025631 43.029533 
" clip-path="url(#p0c1533fec3)" style="fill: none; stroke: #0000ff; stroke-opacity: 0.2; stroke-width: 0.4; stroke-linecap: round"/>
   </g>
   <g id="patch_7">
    <path d="M 110.025631 43.029533 
L 108.760099 41.116042 
L 107.308836 39.958088 
L 104.220577 38.397716 
L 81.302649 32.763862 
L 79.609934 32.588105 
L 77.842927 32.714562 
L 76.728539 37.247779 
L 78.235522 38.179072 
L 79.816797 38.808151 
L 102.734726 44.442005 
L 106.194447 44.491305 
L 108.017174 44.138187 
z
" clip-path="url(#p0c1533fec3)" style="fill: #0000ff; opacity: 0.2"/>
   </g>
   <g id="line2d_14">
    <path d="M 137.938822 75.755376 
L 138.684653 73.585871 
L 138.718276 71.729559 
L 138.073313 68.330129 
L 128.573114 46.726472 
L 127.680866 45.277312 
L 126.503735 43.953429 
L 122.230484 45.832589 
L 122.410524 47.594942 
L 122.875447 49.232019 
L 132.375646 70.835676 
L 134.445025 73.608719 
L 135.835819 74.838644 
L 137.938822 75.755376 
" clip-path="url(#p0c1533fec3)" style="fill: none; stroke: #0000ff; stroke-opacity: 0.2; stroke-width: 0.4; stroke-linecap: round"/>
   </g>
   <g id="patch_8">
    <path d="M 137.938822 75.755376 
L 138.684653 73.585871 
L 138.718276 71.729559 
L 138.073313 68.330129 
L 128.573114 46.726472 
L 127.680866 45.277312 
L 126.503735 43.953429 
L 122.230484 45.832589 
L 122.410524 47.594942 
L 122.875447 49.232019 
L 132.375646 70.835676 
L 134.445025 73.608719 
L 135.835819 74.838644 
z
" clip-path="url(#p0c1533fec3)" style="fill: #0000ff; opacity: 0.2"/>
   </g>
   <g id="line2d_15">
    <path d="M 130.455716 113.373533 
L 132.575715 112.496824 
L 133.98957 111.293479 
L 136.111134 108.560153 
L 146.019069 87.140429 
L 146.514935 85.512458 
L 146.728344 83.753833 
L 142.491475 81.794022 
L 141.289464 83.095357 
L 140.369911 84.527347 
L 130.461976 105.947071 
L 129.752701 109.333667 
L 129.751136 111.190283 
L 130.455716 113.373533 
" clip-path="url(#p0c1533fec3)" style="fill: none; stroke: #0000ff; stroke-opacity: 0.2; stroke-width: 0.4; stroke-linecap: round"/>
   </g>
   <g id="patch_9">
    <path d="M 130.455716 113.373533 
L 132.575715 112.496824 
L 133.98957 111.293479 
L 136.111134 108.560153 
L 146.019069 87.140429 
L 146.514935 85.512458 
L 146.728344 83.753833 
L 142.491475 81.794022 
L 141.289464 83.095357 
L 140.369911 84.527347 
L 130.461976 105.947071 
L 129.752701 109.333667 
L 129.751136 111.190283 
z
" clip-path="url(#p0c1533fec3)" style="fill: #0000ff; opacity: 0.2"/>
   </g>
   <g id="line2d_16">
    <path d="M 99.720702 131.363058 
L 101.817791 132.293238 
L 103.664284 132.486849 
L 107.106676 132.137504 
L 129.449249 124.53611 
L 130.969968 123.772183 
L 132.39045 122.713628 
L 130.886877 118.294218 
L 129.115562 118.321577 
L 127.444485 118.643563 
L 105.101912 126.244957 
L 102.160712 128.067439 
L 100.815409 129.346964 
L 99.720702 131.363058 
" clip-path="url(#p0c1533fec3)" style="fill: none; stroke: #0000ff; stroke-opacity: 0.2; stroke-width: 0.4; stroke-linecap: round"/>
   </g>
   <g id="patch_10">
    <path d="M 99.720702 131.363058 
L 101.817791 132.293238 
L 103.664284 132.486849 
L 107.106676 132.137504 
L 129.449249 124.53611 
L 130.969968 123.772183 
L 132.39045 122.713628 
L 130.886877 118.294218 
L 129.115562 118.321577 
L 127.444485 118.643563 
L 105.101912 126.244957 
L 102.160712 128.067439 
L 100.815409 129.346964 
z
" clip-path="url(#p0c1533fec3)" style="fill: #0000ff; opacity: 0.2"/>
   </g>
   <g id="line2d_17">
    <path d="M 67.087631 121.935077 
L 67.907177 124.077823 
L 69.072177 125.523436 
L 71.747629 127.717532 
L 92.893969 138.196277 
L 94.508058 138.73562 
L 96.260328 138.996109 
L 98.333046 134.813317 
L 97.064411 133.576842 
L 95.657594 132.619221 
L 74.511255 122.140476 
L 71.144896 121.340644 
L 69.28899 121.289294 
L 67.087631 121.935077 
" clip-path="url(#p0c1533fec3)" style="fill: none; stroke: #0000ff; stroke-opacity: 0.2; stroke-width: 0.4; stroke-linecap: round"/>
   </g>
   <g id="patch_11">
    <path d="M 67.087631 121.935077 
L 67.907177 124.077823 
L 69.072177 125.523436 
L 71.747629 127.717532 
L 92.893969 138.196277 
L 94.508058 138.73562 
L 96.260328 138.996109 
L 98.333046 134.813317 
L 97.064411 133.576842 
L 95.657594 132.619221 
L 74.511255 122.140476 
L 71.144896 121.340644 
L 69.28899 121.289294 
z
" clip-path="url(#p0c1533fec3)" style="fill: #0000ff; opacity: 0.2"/>
   </g>
   <g id="line2d_18">
    <path d="M 51.308942 93.068285 
L 50.397734 95.173687 
L 50.220801 97.021853 
L 50.601212 100.46095 
L 58.404017 122.733983 
L 59.181643 124.247744 
L 60.252979 125.65861 
L 64.658634 124.115198 
L 64.615284 122.344202 
L 64.278223 120.676101 
L 56.475419 98.403068 
L 54.626456 95.478441 
L 53.334837 94.144746 
L 51.308942 93.068285 
" clip-path="url(#p0c1533fec3)" style="fill: none; stroke: #0000ff; stroke-opacity: 0.2; stroke-width: 0.4; stroke-linecap: round"/>
   </g>
   <g id="patch_12">
    <path d="M 51.308942 93.068285 
L 50.397734 95.173687 
L 50.220801 97.021853 
L 50.601212 100.46095 
L 58.404017 122.733983 
L 59.181643 124.247744 
L 60.252979 125.65861 
L 64.658634 124.115198 
L 64.615284 122.344202 
L 64.278223 120.676101 
L 56.475419 98.403068 
L 54.626456 95.478441 
L 53.334837 94.144746 
z
" clip-path="url(#p0c1533fec3)" style="fill: #0000ff; opacity: 0.2"/>
   </g>
   <g id="line2d_19">
    <path d="M 60.068434 62.035524 
L 57.952638 62.92233 
L 56.544536 64.1324 
L 54.436025 66.875808 
L 44.630304 88.342517 
L 44.142204 89.972833 
L 43.937181 91.732455 
L 48.183343 93.672048 
L 49.379137 92.364998 
L 50.291854 90.928641 
L 60.097575 69.461932 
L 60.790698 66.071994 
L 60.783413 64.215392 
L 60.068434 62.035524 
" clip-path="url(#p0c1533fec3)" style="fill: none; stroke: #0000ff; stroke-opacity: 0.2; stroke-width: 0.4; stroke-linecap: round"/>
   </g>
   <g id="patch_13">
    <path d="M 60.068434 62.035524 
L 57.952638 62.92233 
L 56.544536 64.1324 
L 54.436025 66.875808 
L 44.630304 88.342517 
L 44.142204 89.972833 
L 43.937181 91.732455 
L 48.183343 93.672048 
L 49.379137 92.364998 
L 50.291854 90.928641 
L 60.097575 69.461932 
L 60.790698 66.071994 
L 60.783413 64.215392 
z
" clip-path="url(#p0c1533fec3)" style="fill: #0000ff; opacity: 0.2"/>
   </g>
   <g id="line2d_20">
    <path d="M 87.580081 45.965613 
L 85.436328 45.148705 
L 83.582132 45.053938 
L 80.163297 45.586545 
L 58.258354 54.369781 
L 56.780582 55.213797 
L 55.418634 56.34667 
L 57.155977 60.679516 
L 58.923306 60.557641 
L 60.574812 60.146909 
L 82.479755 51.363673 
L 85.319475 49.386784 
L 86.594557 48.037269 
L 87.580081 45.965613 
" clip-path="url(#p0c1533fec3)" style="fill: none; stroke: #0000ff; stroke-opacity: 0.2; stroke-width: 0.4; stroke-linecap: round"/>
   </g>
   <g id="patch_14">
    <path d="M 87.580081 45.965613 
L 85.436328 45.148705 
L 83.582132 45.053938 
L 80.163297 45.586545 
L 58.258354 54.369781 
L 56.780582 55.213797 
L 55.418634 56.34667 
L 57.155977 60.679516 
L 58.923306 60.557641 
L 60.574812 60.146909 
L 82.479755 51.363673 
L 85.319475 49.386784 
L 86.594557 48.037269 
z
" clip-path="url(#p0c1533fec3)" style="fill: #0000ff; opacity: 0.2"/>
   </g>
   <g id="line2d_21">
    <path d="M 118.299252 53.250343 
L 117.301956 51.184329 
L 116.019216 49.842091 
L 113.168293 47.881392 
L 91.213727 39.22294 
L 89.559911 38.821612 
L 87.791917 38.709795 
L 86.079256 43.052457 
L 87.447629 44.177561 
L 88.930179 45.013155 
L 110.884745 53.671608 
L 114.306555 54.184752 
L 116.160182 54.079436 
L 118.299252 53.250343 
" clip-path="url(#p0c1533fec3)" style="fill: none; stroke: #0000ff; stroke-opacity: 0.2; stroke-width: 0.4; stroke-linecap: round"/>
   </g>
   <g id="patch_15">
    <path d="M 118.299252 53.250343 
L 117.301956 51.184329 
L 116.019216 49.842091 
L 113.168293 47.881392 
L 91.213727 39.22294 
L 89.559911 38.821612 
L 87.791917 38.709795 
L 86.079256 43.052457 
L 87.447629 44.177561 
L 88.930179 45.013155 
L 110.884745 53.671608 
L 114.306555 54.184752 
L 116.160182 54.079436 
z
" clip-path="url(#p0c1533fec3)" style="fill: #0000ff; opacity: 0.2"/>
   </g>
   <g id="line2d_22">
    <path d="M 135.519194 79.512868 
L 136.208556 77.324764 
L 136.194064 75.468204 
L 135.461228 72.086629 
L 125.404397 50.736408 
L 124.474896 49.310856 
L 123.263853 48.01792 
L 119.040733 50.007184 
L 119.266381 51.76428 
L 119.77357 53.388759 
L 129.8304 74.73898 
L 131.970944 77.457468 
L 133.393142 78.650939 
L 135.519194 79.512868 
" clip-path="url(#p0c1533fec3)" style="fill: none; stroke: #0000ff; stroke-opacity: 0.2; stroke-width: 0.4; stroke-linecap: round"/>
   </g>
   <g id="patch_16">
    <path d="M 135.519194 79.512868 
L 136.208556 77.324764 
L 136.194064 75.468204 
L 135.461228 72.086629 
L 125.404397 50.736408 
L 124.474896 49.310856 
L 123.263853 48.01792 
L 119.040733 50.007184 
L 119.266381 51.76428 
L 119.77357 53.388759 
L 129.8304 74.73898 
L 131.970944 77.457468 
L 133.393142 78.650939 
z
" clip-path="url(#p0c1533fec3)" style="fill: #0000ff; opacity: 0.2"/>
   </g>
   <g id="line2d_23">
    <path d="M 130.055131 110.358786 
L 132.055896 109.236307 
L 133.316697 107.873442 
L 135.098337 104.907323 
L 142.390077 82.461782 
L 142.688927 80.786413 
L 142.691792 79.014889 
L 138.252014 77.572567 
L 137.213202 79.007549 
L 136.470374 80.538686 
L 129.178634 102.984227 
L 128.87692 106.431119 
L 129.096044 108.274759 
L 130.055131 110.358786 
" clip-path="url(#p0c1533fec3)" style="fill: none; stroke: #0000ff; stroke-opacity: 0.2; stroke-width: 0.4; stroke-linecap: round"/>
   </g>
   <g id="patch_17">
    <path d="M 130.055131 110.358786 
L 132.055896 109.236307 
L 133.316697 107.873442 
L 135.098337 104.907323 
L 142.390077 82.461782 
L 142.688927 80.786413 
L 142.691792 79.014889 
L 138.252014 77.572567 
L 137.213202 79.007549 
L 136.470374 80.538686 
L 129.178634 102.984227 
L 128.87692 106.431119 
L 129.096044 108.274759 
z
" clip-path="url(#p0c1533fec3)" style="fill: #0000ff; opacity: 0.2"/>
   </g>
   <g id="line2d_24">
    <path d="M 105.028461 129.040559 
L 107.256005 129.589252 
L 109.107877 129.456622 
L 112.435952 128.510037 
L 133.102774 117.114677 
L 134.466274 116.096325 
L 135.679506 114.805444 
L 133.425478 110.717501 
L 131.686307 111.054529 
L 130.097404 111.664086 
L 109.430582 123.059447 
L 106.85385 125.368679 
L 105.75332 126.863957 
L 105.028461 129.040559 
" clip-path="url(#p0c1533fec3)" style="fill: none; stroke: #0000ff; stroke-opacity: 0.2; stroke-width: 0.4; stroke-linecap: round"/>
   </g>
   <g id="patch_18">
    <path d="M 105.028461 129.040559 
L 107.256005 129.589252 
L 109.107877 129.456622 
L 112.435952 128.510037 
L 133.102774 117.114677 
L 134.466274 116.096325 
L 135.679506 114.805444 
L 133.425478 110.717501 
L 131.686307 111.054529 
L 130.097404 111.664086 
L 109.430582 123.059447 
L 106.85385 125.368679 
L 105.75332 126.863957 
z
" clip-path="url(#p0c1533fec3)" style="fill: #0000ff; opacity: 0.2"/>
   </g>
   <g id="line2d_25">
    <path d="M 74.009381 125.549823 
L 75.259567 127.473375 
L 76.701522 128.642901 
L 79.777201 130.227925 
L 102.649333 136.044912 
L 104.340588 136.234203 
L 106.10855 136.121883 
L 107.259162 131.597725 
L 105.759677 130.654408 
L 104.183484 130.012701 
L 81.311351 124.195714 
L 77.852135 124.118743 
L 76.026642 124.45727 
L 74.009381 125.549823 
" clip-path="url(#p0c1533fec3)" style="fill: none; stroke: #ff0000; stroke-opacity: 0.2; stroke-width: 0.4; stroke-linecap: round"/>
   </g>
   <g id="patch_19">
    <path d="M 74.009381 125.549823 
L 75.259567 127.473375 
L 76.701522 128.642901 
L 79.777201 130.227925 
L 102.649333 136.044912 
L 104.340588 136.234203 
L 106.10855 136.121883 
L 107.259162 131.597725 
L 105.759677 130.654408 
L 104.183484 130.012701 
L 81.311351 124.195714 
L 77.852135 124.118743 
L 76.026642 124.45727 
z
" clip-path="url(#p0c1533fec3)" style="fill: #ff0000; opacity: 0.2"/>
   </g>
  </g>
 </g>
 <defs>
  <clipPath id="p0c1533fec3">
   <rect x="26.626646" y="3.00024" width="125.820826" height="170.665626"/>
  </clipPath>
 </defs>
</svg>
