<?xml version="1.0" encoding="utf-8" standalone="no"?>
<!DOCTYPE svg PUBLIC "-//W3C//DTD SVG 1.1//EN"
  "http://www.w3.org/Graphics/SVG/1.1/DTD/svg11.dtd">
<svg xmlns:xlink="http://www.w3.org/1999/xlink" width="194.30964pt" height="109.311552pt" viewBox="0 0 194.30964 109.311552" xmlns="http://www.w3.org/2000/svg" version="1.1">
 <metadata>
  <rdf:RDF xmlns:dc="http://purl.org/dc/elements/1.1/" xmlns:cc="http://creativecommons.org/ns#" xmlns:rdf="http://www.w3.org/1999/02/22-rdf-syntax-ns#">
   <cc:Work>
    <dc:type rdf:resource="http://purl.org/dc/dcmitype/StillImage"/>
    <dc:date>2024-12-17T09:53:13.168245</dc:date>
    <dc:format>image/svg+xml</dc:format>
    <dc:creator>
     <cc:Agent>
      <dc:title>Matplotlib v3.8.2, https://matplotlib.org/</dc:title>
     </cc:Agent>
    </dc:creator>
   </cc:Work>
  </rdf:RDF>
 </metadata>
 <defs>
  <style type="text/css">*{stroke-linejoin: round; stroke-linecap: butt}</style>
 </defs>
 <g id="figure_1">
  <g id="patch_1">
   <path d="M 0 109.311552 
L 194.30964 109.311552 
L 194.30964 0 
L 0 0 
z
" style="fill: #ffffff"/>
  </g>
  <g id="axes_1">
   <g id="patch_2">
    <path d="M 20.154 93.681552 
L 188.90964 93.681552 
L 188.90964 5.4 
L 20.154 5.4 
z
" style="fill: #ffffff"/>
   </g>
   <g id="matplotlib.axis_1">
    <g id="xtick_1">
     <g id="line2d_1"/>
     <g id="text_1">
      <!-- 35 -->
      <g style="fill: #262626" transform="translate(20.823086 102.500458) scale(0.07 -0.07)">
       <defs>
        <path id="DejaVuSerif-33" d="M 622 4469 
Q 988 4606 1323 4678 
Q 1659 4750 1953 4750 
Q 2638 4750 3022 4454 
Q 3406 4159 3406 3634 
Q 3406 3213 3140 2930 
Q 2875 2647 2388 2547 
Q 2963 2466 3280 2130 
Q 3597 1794 3597 1259 
Q 3597 606 3158 257 
Q 2719 -91 1894 -91 
Q 1528 -91 1179 -12 
Q 831 66 488 225 
L 488 1131 
L 838 1131 
Q 869 681 1141 450 
Q 1413 219 1906 219 
Q 2384 219 2661 495 
Q 2938 772 2938 1253 
Q 2938 1803 2653 2086 
Q 2369 2369 1819 2369 
L 1522 2369 
L 1522 2688 
L 1678 2688 
Q 2225 2688 2498 2914 
Q 2772 3141 2772 3597 
Q 2772 4006 2547 4223 
Q 2322 4441 1900 4441 
Q 1478 4441 1245 4241 
Q 1013 4041 972 3647 
L 622 3647 
L 622 4469 
z
" transform="scale(0.015625)"/>
        <path id="DejaVuSerif-35" d="M 3219 4666 
L 3219 4153 
L 1081 4153 
L 1081 2816 
Q 1244 2928 1461 2984 
Q 1678 3041 1947 3041 
Q 2703 3041 3140 2622 
Q 3578 2203 3578 1478 
Q 3578 738 3136 323 
Q 2694 -91 1894 -91 
Q 1572 -91 1234 -12 
Q 897 66 544 225 
L 544 1131 
L 897 1131 
Q 925 688 1179 453 
Q 1434 219 1894 219 
Q 2388 219 2653 544 
Q 2919 869 2919 1478 
Q 2919 2084 2655 2407 
Q 2391 2731 1894 2731 
Q 1613 2731 1398 2631 
Q 1184 2531 1019 2322 
L 750 2322 
L 750 4666 
L 3219 4666 
z
" transform="scale(0.015625)"/>
       </defs>
       <use xlink:href="#DejaVuSerif-33"/>
       <use xlink:href="#DejaVuSerif-35" x="63.623047"/>
      </g>
     </g>
    </g>
    <g id="xtick_2">
     <g id="line2d_2"/>
     <g id="text_2">
      <!-- 40 -->
      <g style="fill: #262626" transform="translate(42.091408 102.500458) scale(0.07 -0.07)">
       <defs>
        <path id="DejaVuSerif-34" d="M 2234 1581 
L 2234 4063 
L 641 1581 
L 2234 1581 
z
M 3609 0 
L 1484 0 
L 1484 331 
L 2234 331 
L 2234 1247 
L 197 1247 
L 197 1588 
L 2241 4750 
L 2859 4750 
L 2859 1581 
L 3750 1581 
L 3750 1247 
L 2859 1247 
L 2859 331 
L 3609 331 
L 3609 0 
z
" transform="scale(0.015625)"/>
        <path id="DejaVuSerif-30" d="M 2034 219 
Q 2513 219 2750 744 
Q 2988 1269 2988 2328 
Q 2988 3391 2750 3916 
Q 2513 4441 2034 4441 
Q 1556 4441 1318 3916 
Q 1081 3391 1081 2328 
Q 1081 1269 1318 744 
Q 1556 219 2034 219 
z
M 2034 -91 
Q 1275 -91 848 546 
Q 422 1184 422 2328 
Q 422 3475 848 4112 
Q 1275 4750 2034 4750 
Q 2797 4750 3222 4112 
Q 3647 3475 3647 2328 
Q 3647 1184 3222 546 
Q 2797 -91 2034 -91 
z
" transform="scale(0.015625)"/>
       </defs>
       <use xlink:href="#DejaVuSerif-34"/>
       <use xlink:href="#DejaVuSerif-30" x="63.623047"/>
      </g>
     </g>
    </g>
    <g id="xtick_3">
     <g id="line2d_3"/>
     <g id="text_3">
      <!-- 45 -->
      <g style="fill: #262626" transform="translate(63.359731 102.500458) scale(0.07 -0.07)">
       <use xlink:href="#DejaVuSerif-34"/>
       <use xlink:href="#DejaVuSerif-35" x="63.623047"/>
      </g>
     </g>
    </g>
    <g id="xtick_4">
     <g id="line2d_4"/>
     <g id="text_4">
      <!-- 50 -->
      <g style="fill: #262626" transform="translate(84.628053 102.500458) scale(0.07 -0.07)">
       <use xlink:href="#DejaVuSerif-35"/>
       <use xlink:href="#DejaVuSerif-30" x="63.623047"/>
      </g>
     </g>
    </g>
    <g id="xtick_5">
     <g id="line2d_5"/>
     <g id="text_5">
      <!-- 55 -->
      <g style="fill: #262626" transform="translate(105.896375 102.500458) scale(0.07 -0.07)">
       <use xlink:href="#DejaVuSerif-35"/>
       <use xlink:href="#DejaVuSerif-35" x="63.623047"/>
      </g>
     </g>
    </g>
    <g id="xtick_6">
     <g id="line2d_6"/>
     <g id="text_6">
      <!-- 60 -->
      <g style="fill: #262626" transform="translate(127.164697 102.500458) scale(0.07 -0.07)">
       <defs>
        <path id="DejaVuSerif-36" d="M 2094 219 
Q 2534 219 2771 542 
Q 3009 866 3009 1472 
Q 3009 2078 2771 2401 
Q 2534 2725 2094 2725 
Q 1647 2725 1412 2412 
Q 1178 2100 1178 1509 
Q 1178 888 1415 553 
Q 1653 219 2094 219 
z
M 1075 2569 
Q 1288 2803 1556 2918 
Q 1825 3034 2163 3034 
Q 2859 3034 3264 2615 
Q 3669 2197 3669 1472 
Q 3669 763 3233 336 
Q 2797 -91 2069 -91 
Q 1278 -91 853 498 
Q 428 1088 428 2181 
Q 428 3406 931 4078 
Q 1434 4750 2350 4750 
Q 2597 4750 2869 4703 
Q 3141 4656 3425 4563 
L 3425 3794 
L 3072 3794 
Q 3034 4109 2831 4275 
Q 2628 4441 2284 4441 
Q 1678 4441 1381 3981 
Q 1084 3522 1075 2569 
z
" transform="scale(0.015625)"/>
       </defs>
       <use xlink:href="#DejaVuSerif-36"/>
       <use xlink:href="#DejaVuSerif-30" x="63.623047"/>
      </g>
     </g>
    </g>
    <g id="xtick_7">
     <g id="line2d_7"/>
     <g id="text_7">
      <!-- 65 -->
      <g style="fill: #262626" transform="translate(148.433019 102.500458) scale(0.07 -0.07)">
       <use xlink:href="#DejaVuSerif-36"/>
       <use xlink:href="#DejaVuSerif-35" x="63.623047"/>
      </g>
     </g>
    </g>
    <g id="xtick_8">
     <g id="line2d_8"/>
     <g id="text_8">
      <!-- 70 -->
      <g style="fill: #262626" transform="translate(169.701341 102.500458) scale(0.07 -0.07)">
       <defs>
        <path id="DejaVuSerif-37" d="M 3609 4347 
L 1784 0 
L 1319 0 
L 3059 4153 
L 903 4153 
L 903 3578 
L 538 3578 
L 538 4666 
L 3609 4666 
L 3609 4347 
z
" transform="scale(0.015625)"/>
       </defs>
       <use xlink:href="#DejaVuSerif-37"/>
       <use xlink:href="#DejaVuSerif-30" x="63.623047"/>
      </g>
     </g>
    </g>
    <g id="text_9">
     <!-- Time [s] -->
     <g style="fill: #262626" transform="translate(92.116976 112.515302) scale(0.06 -0.06)">
      <defs>
       <path id="DejaVuSerif-54" d="M 1222 0 
L 1222 331 
L 1819 331 
L 1819 4294 
L 447 4294 
L 447 3566 
L 63 3566 
L 63 4666 
L 4206 4666 
L 4206 3566 
L 3822 3566 
L 3822 4294 
L 2450 4294 
L 2450 331 
L 3047 331 
L 3047 0 
L 1222 0 
z
" transform="scale(0.015625)"/>
       <path id="DejaVuSerif-69" d="M 622 4353 
Q 622 4497 726 4603 
Q 831 4709 978 4709 
Q 1122 4709 1226 4603 
Q 1331 4497 1331 4353 
Q 1331 4206 1228 4103 
Q 1125 4000 978 4000 
Q 831 4000 726 4103 
Q 622 4206 622 4353 
z
M 1356 331 
L 1900 331 
L 1900 0 
L 231 0 
L 231 331 
L 781 331 
L 781 2988 
L 231 2988 
L 231 3322 
L 1356 3322 
L 1356 331 
z
" transform="scale(0.015625)"/>
       <path id="DejaVuSerif-6d" d="M 3316 2675 
Q 3481 3041 3739 3227 
Q 3997 3413 4341 3413 
Q 4863 3413 5119 3089 
Q 5375 2766 5375 2113 
L 5375 331 
L 5894 331 
L 5894 0 
L 4300 0 
L 4300 331 
L 4800 331 
L 4800 2047 
Q 4800 2556 4650 2772 
Q 4500 2988 4153 2988 
Q 3769 2988 3567 2697 
Q 3366 2406 3366 1850 
L 3366 331 
L 3866 331 
L 3866 0 
L 2291 0 
L 2291 331 
L 2791 331 
L 2791 2069 
Q 2791 2566 2641 2777 
Q 2491 2988 2144 2988 
Q 1759 2988 1557 2697 
Q 1356 2406 1356 1850 
L 1356 331 
L 1856 331 
L 1856 0 
L 263 0 
L 263 331 
L 781 331 
L 781 2994 
L 231 2994 
L 231 3322 
L 1356 3322 
L 1356 2731 
Q 1516 3063 1762 3238 
Q 2009 3413 2322 3413 
Q 2709 3413 2968 3220 
Q 3228 3028 3316 2675 
z
" transform="scale(0.015625)"/>
       <path id="DejaVuSerif-65" d="M 3469 1600 
L 991 1600 
L 991 1575 
Q 991 903 1244 561 
Q 1497 219 1991 219 
Q 2369 219 2611 417 
Q 2853 616 2950 1006 
L 3413 1006 
Q 3275 459 2904 184 
Q 2534 -91 1931 -91 
Q 1203 -91 761 389 
Q 319 869 319 1663 
Q 319 2450 753 2931 
Q 1188 3413 1894 3413 
Q 2647 3413 3050 2948 
Q 3453 2484 3469 1600 
z
M 2791 1931 
Q 2772 2513 2545 2808 
Q 2319 3103 1894 3103 
Q 1497 3103 1269 2806 
Q 1041 2509 991 1931 
L 2791 1931 
z
" transform="scale(0.015625)"/>
       <path id="DejaVuSerif-20" transform="scale(0.015625)"/>
       <path id="DejaVuSerif-5b" d="M 550 4863 
L 2003 4863 
L 2003 4531 
L 1147 4531 
L 1147 -513 
L 2003 -513 
L 2003 -844 
L 550 -844 
L 550 4863 
z
" transform="scale(0.015625)"/>
       <path id="DejaVuSerif-73" d="M 359 184 
L 359 959 
L 691 959 
Q 703 588 923 403 
Q 1144 219 1575 219 
Q 1963 219 2166 364 
Q 2369 509 2369 788 
Q 2369 1006 2220 1140 
Q 2072 1275 1594 1428 
L 1178 1569 
Q 750 1706 558 1912 
Q 366 2119 366 2438 
Q 366 2894 700 3153 
Q 1034 3413 1625 3413 
Q 1888 3413 2178 3344 
Q 2469 3275 2778 3144 
L 2778 2419 
L 2447 2419 
Q 2434 2741 2221 2922 
Q 2009 3103 1644 3103 
Q 1281 3103 1095 2975 
Q 909 2847 909 2591 
Q 909 2381 1050 2254 
Q 1191 2128 1613 1997 
L 2069 1856 
Q 2541 1709 2748 1489 
Q 2956 1269 2956 922 
Q 2956 450 2595 179 
Q 2234 -91 1600 -91 
Q 1278 -91 972 -22 
Q 666 47 359 184 
z
" transform="scale(0.015625)"/>
       <path id="DejaVuSerif-5d" d="M 1947 4863 
L 1947 -844 
L 494 -844 
L 494 -513 
L 1350 -513 
L 1350 4531 
L 494 4531 
L 494 4863 
L 1947 4863 
z
" transform="scale(0.015625)"/>
      </defs>
      <use xlink:href="#DejaVuSerif-54"/>
      <use xlink:href="#DejaVuSerif-69" x="66.699219"/>
      <use xlink:href="#DejaVuSerif-6d" x="98.681641"/>
      <use xlink:href="#DejaVuSerif-65" x="193.505859"/>
      <use xlink:href="#DejaVuSerif-20" x="252.685547"/>
      <use xlink:href="#DejaVuSerif-5b" x="284.472656"/>
      <use xlink:href="#DejaVuSerif-73" x="323.486328"/>
      <use xlink:href="#DejaVuSerif-5d" x="374.804688"/>
     </g>
    </g>
   </g>
   <g id="matplotlib.axis_2">
    <g id="ytick_1">
     <g id="line2d_9"/>
     <g id="text_10">
      <!-- −20 -->
      <g style="fill: #262626" transform="translate(1.880719 95.115657) scale(0.07 -0.07)">
       <defs>
        <path id="DejaVuSerif-2212" d="M 678 2259 
L 4684 2259 
L 4684 1753 
L 678 1753 
L 678 2259 
z
" transform="scale(0.015625)"/>
        <path id="DejaVuSerif-32" d="M 819 3553 
L 469 3553 
L 469 4384 
Q 803 4563 1142 4656 
Q 1481 4750 1806 4750 
Q 2534 4750 2956 4397 
Q 3378 4044 3378 3438 
Q 3378 2753 2422 1800 
Q 2347 1728 2309 1691 
L 1131 513 
L 3078 513 
L 3078 1088 
L 3444 1088 
L 3444 0 
L 434 0 
L 434 341 
L 1850 1753 
Q 2319 2222 2519 2614 
Q 2719 3006 2719 3438 
Q 2719 3909 2473 4175 
Q 2228 4441 1797 4441 
Q 1350 4441 1106 4219 
Q 863 3997 819 3553 
z
" transform="scale(0.015625)"/>
       </defs>
       <use xlink:href="#DejaVuSerif-2212"/>
       <use xlink:href="#DejaVuSerif-32" x="83.789062"/>
       <use xlink:href="#DejaVuSerif-30" x="147.412109"/>
      </g>
     </g>
    </g>
    <g id="ytick_2">
     <g id="line2d_10"/>
     <g id="text_11">
      <!-- −10 -->
      <g style="fill: #262626" transform="translate(1.880719 73.700432) scale(0.07 -0.07)">
       <defs>
        <path id="DejaVuSerif-31" d="M 909 0 
L 909 331 
L 1722 331 
L 1722 4213 
L 781 3603 
L 781 4013 
L 1919 4750 
L 2350 4750 
L 2350 331 
L 3163 331 
L 3163 0 
L 909 0 
z
" transform="scale(0.015625)"/>
       </defs>
       <use xlink:href="#DejaVuSerif-2212"/>
       <use xlink:href="#DejaVuSerif-31" x="83.789062"/>
       <use xlink:href="#DejaVuSerif-30" x="147.412109"/>
      </g>
     </g>
    </g>
    <g id="ytick_3">
     <g id="line2d_11"/>
     <g id="text_12">
      <!-- 0 -->
      <g style="fill: #262626" transform="translate(12.20025 52.285208) scale(0.07 -0.07)">
       <use xlink:href="#DejaVuSerif-30"/>
      </g>
     </g>
    </g>
    <g id="ytick_4">
     <g id="line2d_12"/>
     <g id="text_13">
      <!-- 10 -->
      <g style="fill: #262626" transform="translate(7.7465 30.869983) scale(0.07 -0.07)">
       <use xlink:href="#DejaVuSerif-31"/>
       <use xlink:href="#DejaVuSerif-30" x="63.623047"/>
      </g>
     </g>
    </g>
    <g id="ytick_5">
     <g id="line2d_13"/>
     <g id="text_14">
      <!-- 20 -->
      <g style="fill: #262626" transform="translate(7.7465 9.454758) scale(0.07 -0.07)">
       <use xlink:href="#DejaVuSerif-32"/>
       <use xlink:href="#DejaVuSerif-30" x="63.623047"/>
      </g>
     </g>
    </g>
    <g id="text_15">
     <!-- $N_M$ [Nm] -->
     <g style="fill: #262626" transform="translate(-3.367094 62.470776) rotate(-90) scale(0.06 -0.06)">
      <defs>
       <path id="DejaVuSans-Oblique-4e" d="M 1081 4666 
L 1931 4666 
L 3219 666 
L 4000 4666 
L 4616 4666 
L 3706 0 
L 2853 0 
L 1569 4025 
L 788 0 
L 172 0 
L 1081 4666 
z
" transform="scale(0.015625)"/>
       <path id="DejaVuSans-Oblique-4d" d="M 1081 4666 
L 2028 4666 
L 2572 1522 
L 4378 4666 
L 5350 4666 
L 4441 0 
L 3828 0 
L 4622 4091 
L 2791 897 
L 2175 897 
L 1581 4103 
L 788 0 
L 172 0 
L 1081 4666 
z
" transform="scale(0.015625)"/>
       <path id="DejaVuSerif-4e" d="M 313 0 
L 313 331 
L 941 331 
L 941 4331 
L 313 4331 
L 313 4666 
L 1509 4666 
L 4306 984 
L 4306 4331 
L 3681 4331 
L 3681 4666 
L 5319 4666 
L 5319 4331 
L 4691 4331 
L 4691 -91 
L 4313 -91 
L 1325 3841 
L 1325 331 
L 1953 331 
L 1953 0 
L 313 0 
z
" transform="scale(0.015625)"/>
      </defs>
      <use xlink:href="#DejaVuSans-Oblique-4e" transform="translate(0 0.015625)"/>
      <use xlink:href="#DejaVuSans-Oblique-4d" transform="translate(74.804688 -16.390625) scale(0.7)"/>
      <use xlink:href="#DejaVuSerif-20" transform="translate(137.93457 0.015625)"/>
      <use xlink:href="#DejaVuSerif-5b" transform="translate(169.72168 0.015625)"/>
      <use xlink:href="#DejaVuSerif-4e" transform="translate(208.735352 0.015625)"/>
      <use xlink:href="#DejaVuSerif-6d" transform="translate(296.235352 0.015625)"/>
      <use xlink:href="#DejaVuSerif-5d" transform="translate(391.05957 0.015625)"/>
     </g>
    </g>
   </g>
   <g id="line2d_14">
    <path d="M 27.824711 60.826634 
L 28.222329 61.64672 
L 28.288598 61.37641 
L 28.354868 62.179287 
L 28.421138 61.564164 
L 28.487407 61.95527 
L 28.553677 62.323505 
L 28.619947 61.788294 
L 28.686216 62.017269 
L 28.752486 63.204495 
L 28.818756 62.478492 
L 28.885025 61.72138 
L 28.951295 62.537595 
L 29.017564 61.891005 
L 29.083834 62.166699 
L 29.150104 62.536355 
L 29.216373 61.911944 
L 29.282643 62.278264 
L 29.348913 62.544067 
L 29.415182 62.377243 
L 29.481452 62.169843 
L 29.680261 62.959946 
L 29.74653 62.217192 
L 29.8128 63.385156 
L 29.87907 63.198022 
L 30.011609 62.677874 
L 30.077879 63.672915 
L 30.144148 63.463738 
L 30.210418 63.152977 
L 30.276688 64.198137 
L 30.342957 63.912118 
L 30.939384 65.642 
L 31.005654 65.309002 
L 31.071923 66.185579 
L 31.138193 66.094185 
L 31.204463 65.632899 
L 31.403272 66.881286 
L 31.535811 66.723035 
L 31.60208 66.883867 
L 31.66835 66.833195 
L 31.73462 66.523961 
L 31.800889 67.459446 
L 31.867159 66.6352 
L 31.933429 67.024401 
L 31.999698 67.554049 
L 32.065968 66.825705 
L 32.132238 67.333636 
L 32.198507 67.299421 
L 32.264777 67.346674 
L 32.331046 69.017484 
L 32.397316 67.397992 
L 32.463586 67.54748 
L 32.662395 67.6517 
L 32.728664 68.329719 
L 32.861204 67.641936 
L 33.060013 68.209177 
L 33.126282 68.013882 
L 33.192552 67.714121 
L 33.258821 68.42445 
L 33.325091 67.966513 
L 33.5239 69.044006 
L 33.656439 69.012047 
L 33.722709 68.258695 
L 33.788979 69.875301 
L 33.855248 69.07159 
L 33.921518 69.890896 
L 33.987787 69.675558 
L 34.054057 69.376333 
L 34.186596 70.392006 
L 34.252866 70.264469 
L 34.385405 70.522403 
L 34.451675 70.873293 
L 34.517945 70.723681 
L 34.584214 70.413752 
L 34.650484 71.316022 
L 34.716754 70.879548 
L 34.849293 71.128054 
L 34.915562 71.041897 
L 35.048102 71.0934 
L 35.246911 71.331501 
L 35.31318 72.023411 
L 35.44572 71.391507 
L 35.909607 72.556213 
L 35.975877 72.260777 
L 36.042146 72.761625 
L 36.108416 72.372306 
L 36.174686 72.629732 
L 36.373495 72.923625 
L 36.439764 73.106166 
L 36.506034 72.725011 
L 36.704843 73.587189 
L 36.771112 73.567897 
L 36.903652 73.741665 
L 37.102461 75.226749 
L 37.235 74.352199 
L 37.433809 74.922134 
L 37.500078 74.924772 
L 37.632618 75.56038 
L 37.698887 75.398846 
L 37.765157 74.869015 
L 37.897696 75.472474 
L 37.963966 75.447225 
L 38.030236 76.018596 
L 38.162775 75.506343 
L 38.361584 76.439218 
L 38.427853 75.113596 
L 38.494123 75.811484 
L 38.560393 76.058031 
L 38.626662 74.887198 
L 38.759202 77.098158 
L 38.825471 76.694559 
L 38.891741 75.350392 
L 38.958011 76.108609 
L 39.02428 76.640952 
L 39.156819 75.990848 
L 39.223089 76.794646 
L 39.289359 76.027134 
L 39.355628 76.787409 
L 39.421898 76.162009 
L 39.488168 76.53178 
L 39.554437 77.126762 
L 39.620707 76.350596 
L 39.686977 77.829483 
L 39.753246 76.557477 
L 39.819516 77.080145 
L 39.885786 77.700556 
L 39.952055 77.072143 
L 40.018325 77.914869 
L 40.084594 77.264912 
L 40.217134 78.440157 
L 40.283403 77.560643 
L 40.349673 78.539313 
L 40.415943 77.796268 
L 40.482212 78.295756 
L 40.548482 78.845243 
L 40.614752 78.006437 
L 40.681021 79.273933 
L 40.747291 77.900524 
L 40.81356 78.832556 
L 40.87983 78.819481 
L 40.9461 78.585219 
L 41.012369 78.754095 
L 41.078639 79.115344 
L 41.144909 78.801972 
L 41.211178 78.922765 
L 41.277448 78.995548 
L 41.343718 79.25683 
L 41.409987 79.152035 
L 41.476257 78.794524 
L 41.542527 79.587563 
L 41.675066 78.961238 
L 41.741335 79.917104 
L 41.807605 79.824282 
L 41.873875 79.759247 
L 41.940144 79.421674 
L 42.006414 80.171123 
L 42.072684 80.005473 
L 42.138953 79.76283 
L 42.271493 80.608996 
L 42.337762 80.020972 
L 42.404032 80.811535 
L 42.470302 80.53695 
L 42.536571 79.976433 
L 42.73538 82.003616 
L 42.867919 80.763159 
L 43.066728 81.623466 
L 43.132998 81.109676 
L 43.199268 81.670412 
L 43.265537 81.3195 
L 43.331807 81.805632 
L 43.398076 81.241476 
L 43.464346 82.088053 
L 43.530616 81.459601 
L 43.596885 81.947425 
L 43.663155 81.476792 
L 43.729425 82.25828 
L 43.861964 81.529608 
L 43.928234 82.463505 
L 43.994503 81.12989 
L 44.060773 81.657678 
L 44.127043 82.291667 
L 44.193312 82.030379 
L 44.259582 82.180947 
L 44.325851 82.103944 
L 44.392121 81.476836 
L 44.458391 82.396511 
L 44.52466 82.34151 
L 44.723469 81.779546 
L 44.789739 82.619522 
L 44.856009 81.804227 
L 44.922278 82.932082 
L 44.988548 82.495545 
L 45.187357 82.667794 
L 45.253626 82.603202 
L 45.319896 82.723922 
L 45.386166 82.547041 
L 45.452435 83.015274 
L 45.518705 82.586516 
L 45.584975 83.260032 
L 45.651244 83.06511 
L 45.717514 83.198823 
L 45.783784 83.032045 
L 45.850053 84.740747 
L 45.916323 83.25844 
L 45.982592 83.464033 
L 46.048862 84.853652 
L 46.115132 83.705617 
L 46.181401 83.840663 
L 46.51275 84.279094 
L 46.711559 84.373053 
L 46.844098 84.720788 
L 46.910367 84.347129 
L 46.976637 84.596207 
L 47.042907 84.813604 
L 47.109176 84.310687 
L 47.175446 84.595186 
L 47.307985 84.45295 
L 47.506794 84.778991 
L 47.573064 84.792669 
L 47.639333 84.920499 
L 47.705603 84.652551 
L 47.771873 85.12853 
L 47.838142 85.087681 
L 47.904412 84.802331 
L 48.103221 85.71283 
L 48.169491 85.947841 
L 48.23576 85.542334 
L 48.30203 85.565243 
L 48.434569 85.691425 
L 48.500839 85.629516 
L 48.567108 85.774428 
L 48.633378 85.722818 
L 48.699648 85.622242 
L 48.765917 85.917784 
L 48.832187 85.841285 
L 49.030996 86.128634 
L 49.097266 86.144463 
L 49.362344 86.960143 
L 49.428614 86.664214 
L 49.494883 86.91005 
L 49.561153 88.752308 
L 49.693692 86.978855 
L 49.892501 87.594782 
L 49.958771 87.275225 
L 50.025041 87.508324 
L 50.09131 87.324087 
L 50.15758 87.763932 
L 50.223849 87.362869 
L 50.290119 87.781531 
L 50.356389 87.520349 
L 50.422658 87.73767 
L 50.488928 87.473723 
L 50.555198 87.812393 
L 50.621467 87.342296 
L 50.687737 87.783844 
L 50.754007 87.30852 
L 50.820276 87.89965 
L 50.886546 87.074804 
L 50.952816 87.888556 
L 51.019085 87.221863 
L 51.085355 87.716827 
L 51.151624 87.268141 
L 51.217894 87.780904 
L 51.284164 87.287518 
L 51.350433 87.680573 
L 51.416703 87.462535 
L 51.482973 87.374915 
L 51.549242 87.894875 
L 51.615512 87.536168 
L 51.681782 87.224447 
L 51.748051 87.641155 
L 51.814321 87.507529 
L 51.88059 86.915791 
L 51.94686 87.676253 
L 52.01313 87.354783 
L 52.211939 87.936764 
L 52.278208 87.325072 
L 52.344478 88.189023 
L 52.410748 87.062833 
L 52.477017 88.088036 
L 52.543287 87.310633 
L 52.609557 87.405575 
L 52.742096 88.251967 
L 52.808365 87.357107 
L 52.874635 87.81456 
L 52.940905 87.688912 
L 53.007174 87.11086 
L 53.139714 87.992674 
L 53.205983 86.515263 
L 53.272253 87.200801 
L 53.471062 88.05052 
L 53.537331 87.907086 
L 53.603601 88.455687 
L 53.669871 88.358769 
L 53.73614 88.410401 
L 53.80241 88.66409 
L 53.86868 88.532557 
L 53.934949 88.388511 
L 54.067489 88.883452 
L 54.200028 88.789393 
L 54.266298 89.203743 
L 54.332567 88.885314 
L 54.398837 89.031591 
L 54.465106 89.44112 
L 54.531376 88.556322 
L 54.597646 88.754248 
L 54.730185 88.974113 
L 54.796455 88.743915 
L 54.862724 88.938215 
L 54.928994 88.453973 
L 54.995264 89.108273 
L 55.061533 88.169981 
L 55.127803 88.294369 
L 55.194073 88.695575 
L 55.260342 88.110343 
L 55.326612 88.300845 
L 55.392881 88.588852 
L 55.459151 88.094094 
L 55.525421 88.994307 
L 55.59169 88.314421 
L 55.65796 89.201421 
L 55.72423 88.487412 
L 55.790499 89.318135 
L 55.856769 88.556117 
L 55.923039 89.349923 
L 55.989308 88.953211 
L 56.055578 89.309091 
L 56.121847 88.874642 
L 56.188117 89.362215 
L 56.254387 89.259947 
L 56.320656 88.979818 
L 56.386926 89.659271 
L 56.453196 89.301711 
L 56.652005 88.876182 
L 56.718274 89.402637 
L 56.784544 89.201506 
L 57.049622 89.480783 
L 57.115892 89.165668 
L 57.182162 89.668754 
L 57.248431 89.330799 
L 57.844858 88.932061 
L 58.109937 88.583435 
L 58.441285 89.118592 
L 58.640094 89.210376 
L 58.772633 89.041487 
L 58.838903 89.086127 
L 58.905172 88.995836 
L 59.037712 89.255218 
L 59.103981 88.990479 
L 59.170251 89.059619 
L 59.30279 88.801536 
L 59.501599 88.607411 
L 59.766678 89.042509 
L 59.899217 89.255655 
L 59.965487 89.146272 
L 60.098026 89.157794 
L 60.164296 89.05794 
L 60.230565 89.163078 
L 60.296835 88.990333 
L 60.363104 89.358976 
L 60.429374 89.10654 
L 60.495644 89.142729 
L 60.628183 88.944343 
L 60.760722 88.984294 
L 60.826992 89.142264 
L 60.893262 89.019258 
L 61.357149 89.468898 
L 61.555958 89.377883 
L 61.688497 89.530968 
L 61.754767 89.356037 
L 61.821037 89.513352 
L 62.218654 88.614108 
L 62.284924 88.797969 
L 62.351194 88.72792 
L 62.550003 89.169891 
L 62.748812 89.365183 
L 62.815081 89.164638 
L 62.881351 89.418749 
L 62.94762 89.215224 
L 63.01389 89.291301 
L 63.212699 89.136825 
L 63.278969 88.696173 
L 63.345238 89.182104 
L 63.411508 89.015722 
L 63.544047 88.997521 
L 63.610317 88.697646 
L 63.676587 88.898081 
L 63.742856 88.620118 
L 63.809126 88.75027 
L 63.875395 88.619333 
L 63.941665 88.755556 
L 64.074204 88.512906 
L 64.206744 88.462638 
L 64.339283 88.11713 
L 64.538092 87.944555 
L 64.80317 86.960406 
L 64.86944 86.797294 
L 64.93571 87.12755 
L 65.001979 87.00031 
L 65.200788 87.518614 
L 65.267058 86.370837 
L 65.333328 86.908338 
L 65.399597 87.085404 
L 65.465867 86.920407 
L 65.532136 86.9704 
L 65.664676 87.253848 
L 65.730945 87.189017 
L 65.929754 87.541479 
L 65.996024 87.325238 
L 66.062294 87.377744 
L 66.128563 87.351857 
L 66.261103 86.982794 
L 66.327372 86.997491 
L 66.65872 87.713583 
L 66.857529 87.444725 
L 66.923799 87.465883 
L 67.056338 87.169517 
L 67.453956 87.809353 
L 67.520226 87.605829 
L 67.652765 87.511995 
L 67.785304 86.941468 
L 67.851574 86.81509 
L 67.917844 86.97602 
L 67.984113 86.774179 
L 68.116652 87.200839 
L 68.182922 88.128973 
L 68.249192 87.187278 
L 68.315461 87.274119 
L 68.381731 87.257802 
L 68.51427 86.617679 
L 68.58054 86.627611 
L 68.64681 86.321848 
L 68.713079 86.388633 
L 68.779349 86.535887 
L 68.845618 86.44805 
L 68.911888 86.492735 
L 68.978158 86.741116 
L 69.309506 85.494307 
L 69.375776 85.456764 
L 69.442045 85.190363 
L 69.508315 85.267812 
L 69.574585 85.507824 
L 69.640854 85.279705 
L 69.707124 85.431671 
L 69.773393 85.501377 
L 70.237281 84.266832 
L 70.303551 84.613359 
L 70.36982 84.273656 
L 70.43609 84.657194 
L 70.50236 84.5862 
L 70.568629 84.677076 
L 71.098786 83.842841 
L 71.297595 84.569306 
L 71.363865 84.274003 
L 71.430134 84.723044 
L 71.628943 83.862962 
L 71.695213 83.981645 
L 71.761483 83.813587 
L 71.827752 84.14276 
L 71.894022 83.865377 
L 72.092831 84.395167 
L 72.357909 84.107506 
L 72.556718 83.522289 
L 72.821797 83.603684 
L 72.888067 83.051679 
L 72.954336 83.475648 
L 73.020606 83.318268 
L 73.086875 83.384183 
L 73.153145 82.371654 
L 73.219415 82.46352 
L 73.285684 82.45256 
L 73.351954 82.064021 
L 73.418224 82.587345 
L 73.484493 82.02453 
L 73.550763 82.64293 
L 73.617033 81.196417 
L 73.683302 82.795125 
L 73.749572 82.32456 
L 73.815842 82.475931 
L 74.01465 80.998508 
L 74.08092 81.362675 
L 74.279729 80.783279 
L 74.412268 81.503363 
L 74.677347 81.366251 
L 74.876156 80.809103 
L 74.942425 80.902214 
L 75.273774 80.342536 
L 75.340043 81.048183 
L 75.472583 79.756406 
L 75.605122 79.814154 
L 75.671391 79.640754 
L 75.737661 78.949293 
L 75.803931 80.480153 
L 75.8702 79.651501 
L 76.069009 79.490069 
L 76.135279 79.568881 
L 76.334088 79.245416 
L 76.400358 79.295094 
L 76.466627 78.582725 
L 76.665436 79.559686 
L 76.864245 79.448062 
L 77.129324 79.080023 
L 77.328132 77.923063 
L 77.394402 78.226019 
L 77.460672 77.752106 
L 77.526941 78.113351 
L 77.659481 77.393343 
L 77.72575 77.833615 
L 77.85829 77.308965 
L 78.057099 77.854399 
L 78.123368 77.398634 
L 78.189638 77.897602 
L 78.255907 77.44388 
L 78.322177 77.879241 
L 78.388447 77.40715 
L 78.454716 77.784429 
L 78.520986 77.057132 
L 78.587256 78.077402 
L 78.719795 76.971736 
L 78.786065 76.864033 
L 78.852334 77.183908 
L 78.984874 76.342915 
L 79.051143 77.210507 
L 79.117413 76.622403 
L 79.183682 75.85833 
L 79.249952 76.626857 
L 79.382491 75.474588 
L 79.448761 76.176908 
L 79.515031 75.253249 
L 79.5813 75.938722 
L 79.71384 74.850823 
L 79.780109 75.328431 
L 79.846379 75.120796 
L 79.912648 74.875754 
L 79.978918 75.17893 
L 80.111457 74.51318 
L 80.177727 74.809146 
L 80.243997 75.039218 
L 80.310266 74.48444 
L 80.376536 74.732489 
L 80.442806 74.718019 
L 80.575345 74.363732 
L 80.641615 74.738721 
L 80.707884 73.855714 
L 80.774154 74.999706 
L 80.840423 73.945766 
L 80.906693 73.962009 
L 80.972963 74.497175 
L 81.039232 73.647259 
L 81.105502 74.317097 
L 81.171772 74.222894 
L 81.238041 73.310552 
L 81.304311 73.875678 
L 81.50312 73.006782 
L 81.635659 73.112424 
L 81.701929 73.002181 
L 81.900738 71.862271 
L 81.967007 72.432484 
L 82.033277 72.365046 
L 82.165816 71.697669 
L 82.232086 71.804247 
L 82.298356 72.019186 
L 82.497164 70.916621 
L 82.563434 70.654381 
L 82.629704 71.619796 
L 82.695973 71.024179 
L 83.35867 70.281564 
L 83.424939 70.776391 
L 83.557479 70.065306 
L 84.087636 69.667057 
L 84.220175 69.296102 
L 84.418984 69.076183 
L 84.485254 68.888619 
L 84.551523 69.103732 
L 84.617793 69.045873 
L 84.816602 68.719948 
L 85.015411 68.309938 
L 85.08168 68.487215 
L 85.14795 68.427735 
L 85.413029 67.987655 
L 85.479298 67.348358 
L 85.545568 67.741434 
L 86.009455 66.745481 
L 86.075725 66.731276 
L 86.274534 66.254484 
L 86.870961 65.271379 
L 86.93723 65.192336 
L 87.0035 62.253738 
L 87.06977 64.956062 
L 87.136039 63.645392 
L 87.202309 65.324692 
L 87.268579 64.66372 
L 87.467388 64.462397 
L 87.533657 64.447515 
L 87.599927 62.850816 
L 87.666196 64.340084 
L 87.732466 63.492273 
L 87.798736 64.104032 
L 87.865005 64.01498 
L 87.931275 63.739696 
L 87.997545 64.356282 
L 88.063814 63.227685 
L 88.130084 63.765613 
L 88.196354 64.054144 
L 88.328893 62.118927 
L 88.395162 63.688053 
L 88.461432 63.674297 
L 88.527702 63.651832 
L 88.593971 63.805335 
L 88.660241 63.105863 
L 88.726511 64.332482 
L 88.79278 62.432438 
L 88.85905 63.400242 
L 88.92532 63.284007 
L 88.991589 62.886545 
L 89.057859 61.536367 
L 89.124129 63.290245 
L 89.190398 62.129138 
L 89.256668 62.369997 
L 89.455477 61.334265 
L 89.521746 61.919905 
L 89.588016 61.738466 
L 89.786825 60.034431 
L 89.919364 60.642294 
L 90.118173 60.034497 
L 90.250712 59.775239 
L 91.178487 58.185147 
L 91.244757 58.784473 
L 91.311027 57.880846 
L 91.377296 58.189511 
L 91.443566 58.539879 
L 91.509836 58.004771 
L 91.576105 58.087446 
L 91.708645 58.053466 
L 91.774914 58.266374 
L 91.841184 57.723069 
L 91.907453 57.924789 
L 91.973723 57.893046 
L 92.039993 58.499424 
L 92.172532 57.795259 
L 92.50388 57.276633 
L 92.967768 56.008931 
L 93.034037 56.035059 
L 93.100307 55.358614 
L 93.166577 55.605366 
L 93.431655 54.554804 
L 93.763003 53.738112 
L 94.028082 53.072119 
L 94.094352 53.401416 
L 94.226891 52.780066 
L 94.293161 53.252223 
L 94.35943 52.544602 
L 94.4257 53.385509 
L 94.491969 52.487357 
L 94.558239 52.882493 
L 94.823318 52.858521 
L 95.022127 52.711949 
L 95.154666 52.670903 
L 95.220935 51.303367 
L 95.287205 52.432272 
L 95.353475 52.388536 
L 95.419744 52.461554 
L 95.552284 52.258165 
L 95.751093 52.196117 
L 95.949902 51.942008 
L 96.016171 51.926649 
L 96.082441 51.400325 
L 96.14871 51.589984 
L 96.546328 50.619374 
L 96.612598 50.725139 
L 96.811407 50.164573 
L 97.407834 48.759008 
L 97.606643 48.359793 
L 97.739182 46.762466 
L 97.805451 47.771199 
L 97.871721 47.582679 
L 98.335609 46.54329 
L 98.468148 46.417257 
L 98.534418 46.717734 
L 98.600687 46.323717 
L 98.666957 46.474517 
L 98.799496 45.851936 
L 98.865766 46.618666 
L 98.932035 45.753715 
L 98.998305 46.018091 
L 99.064575 45.593586 
L 99.130844 45.803637 
L 99.197114 46.264955 
L 99.263384 45.299693 
L 99.329653 45.606393 
L 99.395923 45.944087 
L 99.462192 44.719769 
L 99.528462 45.30705 
L 99.594732 45.61694 
L 99.661001 44.307215 
L 99.727271 44.937716 
L 99.793541 45.207235 
L 99.85981 44.235509 
L 99.92608 44.547792 
L 99.99235 44.862446 
L 100.058619 43.874434 
L 100.124889 44.175687 
L 100.456237 43.315438 
L 100.522507 43.710173 
L 100.588776 43.06975 
L 100.655046 43.122171 
L 100.721316 43.331599 
L 100.787585 42.676363 
L 100.853855 43.012071 
L 101.052664 42.509769 
L 101.317742 41.816037 
L 101.384012 41.436111 
L 101.450282 41.604877 
L 101.516551 42.097007 
L 101.582821 41.313718 
L 101.649091 41.457876 
L 101.914169 41.073142 
L 101.980439 40.534 
L 102.046708 40.561505 
L 102.112978 41.195491 
L 102.245517 40.300758 
L 102.311787 40.185461 
L 102.378057 38.847779 
L 102.510596 40.032591 
L 102.709405 38.767955 
L 102.775675 39.43382 
L 102.841944 39.324548 
L 103.107023 39.02944 
L 103.239562 38.934005 
L 103.305832 39.033738 
L 103.438371 38.923131 
L 103.504641 38.017149 
L 103.57091 39.570613 
L 103.63718 38.732099 
L 103.703449 38.74138 
L 104.167337 37.806802 
L 104.233607 38.044525 
L 104.432416 37.333843 
L 104.498685 37.265891 
L 104.564955 36.313492 
L 104.631224 36.924338 
L 104.962573 36.113658 
L 105.028842 36.102348 
L 105.227651 35.728071 
L 105.293921 35.723318 
L 105.49273 35.444973 
L 105.956617 34.986119 
L 106.022887 34.020872 
L 106.155426 34.786069 
L 106.420505 34.213625 
L 106.486774 34.59465 
L 106.685583 32.220794 
L 106.751853 33.700807 
L 106.818123 33.270267 
L 106.950662 33.083126 
L 107.149471 32.546844 
L 107.28201 31.944143 
L 107.34828 32.496701 
L 107.414549 31.84219 
L 107.480819 32.363116 
L 107.547089 31.88785 
L 107.613358 32.020955 
L 107.679628 32.192098 
L 107.745898 31.673389 
L 107.812167 31.844933 
L 107.878437 31.677719 
L 107.944706 31.820522 
L 108.010976 31.783656 
L 108.077246 31.717946 
L 108.143515 31.261291 
L 108.209785 31.574048 
L 108.276055 31.353127 
L 108.342324 30.398954 
L 108.474864 31.441822 
L 108.541133 31.142103 
L 108.607403 31.281668 
L 108.673673 31.251388 
L 108.739942 31.087874 
L 108.806212 30.57166 
L 108.872481 32.029004 
L 108.938751 31.235037 
L 109.005021 30.213426 
L 109.07129 30.305851 
L 109.13756 30.884313 
L 109.336369 29.61788 
L 109.402639 30.411461 
L 109.468908 29.777774 
L 109.535178 29.817669 
L 109.667717 29.598405 
L 109.866526 29.169398 
L 109.999065 28.937206 
L 110.065335 28.303053 
L 110.131605 28.783247 
L 110.197874 28.542072 
L 110.330414 28.416784 
L 110.529222 27.723544 
L 110.595492 27.875739 
L 110.661762 27.749907 
L 110.92684 27.198145 
L 111.05938 27.149287 
L 111.125649 27.472701 
L 111.324458 26.967935 
L 111.390728 26.965121 
L 111.456997 27.154714 
L 111.655806 26.539046 
L 111.722076 26.78818 
L 111.788346 26.675353 
L 111.920885 26.687522 
L 112.053424 26.623163 
L 112.252233 26.023824 
L 112.318503 26.183921 
L 112.384772 25.332894 
L 112.451042 25.727181 
L 112.517312 25.554156 
L 112.583581 24.692032 
L 112.649851 25.21709 
L 112.78239 25.004271 
L 113.113738 24.378354 
L 113.180008 24.361849 
L 113.378817 23.913948 
L 113.445087 23.948149 
L 113.577626 23.681022 
L 113.643896 22.526092 
L 113.710165 23.60016 
L 113.776435 23.495102 
L 113.842705 23.829455 
L 113.908974 22.761831 
L 113.975244 23.725847 
L 114.041513 22.616397 
L 114.107783 23.573745 
L 114.174053 22.562812 
L 114.240322 22.892078 
L 114.306592 23.498654 
L 114.439131 22.406175 
L 114.505401 22.698101 
L 114.571671 23.424017 
L 114.63794 22.930479 
L 114.70421 22.877314 
L 114.770479 22.319797 
L 114.836749 23.430022 
L 114.903019 22.286844 
L 114.969288 22.865546 
L 115.035558 22.296992 
L 115.101828 23.239433 
L 115.168097 21.291242 
L 115.234367 22.624548 
L 115.300637 22.515703 
L 115.433176 22.428282 
L 115.565715 21.66319 
L 115.631985 22.393187 
L 115.698254 21.903494 
L 115.764524 21.751093 
L 115.830794 21.15143 
L 115.897063 21.987237 
L 116.029603 20.754415 
L 116.095872 21.497865 
L 116.294681 20.259076 
L 116.427221 20.81923 
L 116.49349 19.829433 
L 116.55976 20.223858 
L 116.626029 20.482429 
L 116.692299 19.512395 
L 116.758569 19.856953 
L 116.824838 19.688616 
L 116.891108 19.989202 
L 116.957378 19.936463 
L 117.156187 19.449279 
L 117.222456 19.477049 
L 117.288726 18.147008 
L 117.354995 20.17366 
L 117.421265 18.249148 
L 117.487535 19.418382 
L 117.553804 18.613967 
L 117.620074 19.101527 
L 117.686344 19.316431 
L 117.752613 18.659774 
L 117.818883 18.745642 
L 117.951422 18.863768 
L 118.017692 18.720867 
L 118.083962 17.350499 
L 118.150231 18.759131 
L 118.216501 18.736349 
L 118.28277 18.531401 
L 118.34904 18.598864 
L 118.481579 18.49535 
L 118.547849 18.086651 
L 118.614119 18.408655 
L 118.812928 18.012888 
L 118.879197 18.405552 
L 119.011736 18.057443 
L 119.078006 18.070417 
L 119.144276 17.63631 
L 119.343085 18.058372 
L 119.409354 18.221668 
L 119.541894 17.546559 
L 119.608163 17.981305 
L 119.740703 17.195447 
L 119.806972 17.418946 
L 120.005781 16.747603 
L 120.072051 17.252956 
L 120.20459 16.345628 
L 120.27086 17.060782 
L 120.337129 16.785991 
L 120.403399 16.815961 
L 120.535938 16.669724 
L 120.602208 15.34286 
L 120.668478 16.3926 
L 120.734747 15.711819 
L 120.867286 16.885397 
L 120.933556 16.528934 
L 121.132365 16.045727 
L 121.198635 16.374614 
L 121.264904 16.246121 
L 121.331174 16.121325 
L 121.397444 16.266569 
L 121.463713 15.586358 
L 121.529983 16.164446 
L 121.662522 15.152288 
L 121.728792 15.220382 
L 121.795061 15.230997 
L 121.861331 15.366734 
L 121.927601 14.749783 
L 121.99387 14.913398 
L 122.06014 15.050123 
L 122.12641 14.613993 
L 122.192679 14.96073 
L 122.258949 14.222139 
L 122.325219 14.830206 
L 122.391488 14.759572 
L 122.457758 14.722141 
L 122.524027 14.446983 
L 122.590297 14.904569 
L 122.656567 14.655149 
L 122.722836 14.281952 
L 122.789106 14.455905 
L 122.855376 14.53814 
L 123.054185 14.001044 
L 123.120454 14.376506 
L 123.186724 14.237015 
L 123.252993 13.755631 
L 123.319263 13.91873 
L 123.385533 13.725196 
L 123.518072 14.189279 
L 123.584342 13.702399 
L 123.650611 13.864544 
L 123.783151 14.017142 
L 123.84942 12.979536 
L 123.98196 14.421964 
L 124.048229 10.95355 
L 124.114499 13.699141 
L 124.180768 13.305463 
L 124.247038 13.563488 
L 124.313308 13.022534 
L 124.379577 13.496029 
L 124.445847 12.890636 
L 124.512117 13.310536 
L 124.578386 12.729419 
L 124.644656 13.047626 
L 124.843465 11.973314 
L 124.909735 12.485094 
L 125.042274 11.081899 
L 125.108543 11.693378 
L 125.174813 11.786788 
L 125.241083 11.127261 
L 125.307352 11.588249 
L 125.373622 10.626795 
L 125.439892 11.849247 
L 125.506161 10.77607 
L 125.572431 11.504663 
L 125.638701 10.967648 
L 125.70497 11.939072 
L 125.77124 11.218639 
L 125.970049 12.813532 
L 126.036318 11.78409 
L 126.102588 12.53183 
L 126.168858 12.11131 
L 126.367667 13.085359 
L 126.433936 12.852347 
L 126.500206 13.01923 
L 126.566476 12.847661 
L 126.632745 13.200264 
L 126.699015 12.715676 
L 126.765284 13.016868 
L 126.964093 12.446883 
L 127.030363 12.642762 
L 127.295442 11.654909 
L 127.361711 11.745819 
L 127.49425 11.289861 
L 127.56052 11.388987 
L 127.62679 11.318589 
L 127.825599 11.388679 
L 127.958138 10.625676 
L 128.024408 10.929366 
L 128.156947 10.733698 
L 128.355756 11.07095 
L 128.422025 11.041856 
L 128.488295 11.20047 
L 128.554565 11.149581 
L 128.620834 10.928401 
L 128.687104 11.772674 
L 128.753374 11.248221 
L 128.819643 11.258441 
L 128.952183 11.680104 
L 129.018452 11.254095 
L 129.084722 11.708385 
L 129.150992 11.440903 
L 129.217261 11.524561 
L 129.283531 12.355895 
L 129.48234 11.309047 
L 129.747418 11.21634 
L 129.879958 10.298281 
L 129.946227 11.3153 
L 130.012497 10.668616 
L 130.078766 9.973268 
L 130.145036 11.365064 
L 130.211306 10.23564 
L 130.277575 10.925303 
L 130.343845 10.18993 
L 130.410115 10.719708 
L 130.476384 10.513999 
L 130.542654 10.040452 
L 130.608924 10.842794 
L 130.675193 10.184946 
L 130.741463 10.984468 
L 130.807733 10.592568 
L 130.874002 11.140434 
L 130.940272 11.103555 
L 131.006541 10.550517 
L 131.072811 10.790181 
L 131.139081 11.198774 
L 131.27162 10.207528 
L 131.404159 10.696243 
L 131.470429 9.942057 
L 131.536699 10.382847 
L 131.735508 10.409744 
L 131.868047 9.95678 
L 131.934316 10.109639 
L 132.000586 9.675229 
L 132.066856 9.828477 
L 132.133125 9.889383 
L 132.199395 9.705357 
L 132.331934 10.381256 
L 132.398204 9.570357 
L 132.464474 10.082727 
L 132.530743 9.58216 
L 132.597013 9.624247 
L 132.663282 9.860368 
L 132.729552 9.412798 
L 132.795822 9.504672 
L 132.862091 10.052315 
L 132.928361 9.485137 
L 132.994631 9.826687 
L 133.12717 10.206362 
L 133.19344 10.071925 
L 133.259709 10.071584 
L 133.325979 10.361814 
L 133.392249 10.007349 
L 133.591057 10.522641 
L 133.723597 10.720589 
L 133.988675 10.243452 
L 134.054945 10.510839 
L 134.121215 9.861593 
L 134.187484 10.044971 
L 134.253754 10.108349 
L 134.386293 10.05209 
L 134.452563 10.093738 
L 134.518832 10.44209 
L 134.585102 9.781398 
L 134.651372 9.895849 
L 134.717641 9.848247 
L 135.04899 10.363957 
L 135.247798 10.359481 
L 135.380338 9.83528 
L 135.446607 9.800736 
L 135.512877 9.619742 
L 135.579147 9.800854 
L 135.645416 9.659903 
L 135.844225 9.970282 
L 135.910495 9.533443 
L 135.976765 9.745508 
L 136.043034 9.59444 
L 136.241843 10.006682 
L 136.308113 9.94321 
L 136.374382 10.191294 
L 136.573191 9.953745 
L 136.83827 9.847617 
L 136.970809 9.996085 
L 137.037079 10.342919 
L 137.103348 9.931996 
L 137.169618 10.21093 
L 137.235888 10.103431 
L 137.699775 11.09992 
L 138.031123 10.642052 
L 138.163663 10.522418 
L 138.229932 10.563604 
L 138.428741 10.362708 
L 138.56128 10.468054 
L 138.760089 10.274343 
L 139.157707 11.060502 
L 139.356516 10.711783 
L 139.621595 10.319305 
L 139.820404 10.826067 
L 139.886673 10.644482 
L 139.952943 10.911358 
L 140.019213 10.79618 
L 140.151752 10.869413 
L 140.350561 11.519112 
L 140.41683 11.468283 
L 140.4831 11.990262 
L 140.54937 11.922564 
L 140.615639 11.810581 
L 140.681909 11.986199 
L 140.748179 11.89576 
L 140.880718 11.573087 
L 141.013257 11.718748 
L 141.145796 11.683011 
L 141.278336 12.004106 
L 141.410875 11.854552 
L 141.477145 12.064123 
L 141.543414 11.939663 
L 141.675954 11.807213 
L 141.808493 12.288543 
L 141.874763 12.278604 
L 141.941032 12.733078 
L 142.007302 12.643029 
L 142.073571 12.667426 
L 142.33865 11.93159 
L 142.40492 12.245637 
L 142.471189 12.050547 
L 142.603729 11.818942 
L 142.669998 12.080846 
L 142.736268 11.999375 
L 142.868807 12.042474 
L 142.935077 10.805779 
L 143.067616 11.814773 
L 143.133886 11.797879 
L 143.398964 12.206635 
L 143.862852 11.574629 
L 143.929121 11.56485 
L 144.061661 11.856868 
L 144.12793 11.87054 
L 144.26047 12.164181 
L 144.326739 12.188464 
L 144.393009 12.03587 
L 144.658087 12.934777 
L 144.724357 12.977512 
L 144.923166 13.640715 
L 144.989436 13.731692 
L 145.055705 13.476895 
L 145.121975 13.773331 
L 145.188245 13.527155 
L 145.254514 13.589533 
L 145.652132 14.608769 
L 145.850941 15.081092 
L 145.917211 14.736127 
L 145.98348 15.310091 
L 146.04975 15.00669 
L 146.248559 16.072079 
L 146.314828 15.665529 
L 146.381098 16.294854 
L 146.447368 15.632338 
L 146.513637 15.803098 
L 146.712446 15.269924 
L 146.778716 15.469228 
L 146.844986 15.135694 
L 146.911255 15.51256 
L 146.977525 15.231094 
L 147.043794 15.324698 
L 147.110064 15.231094 
L 147.176334 15.514666 
L 147.242603 15.023003 
L 147.308873 15.228068 
L 147.375143 14.912421 
L 147.441412 15.275211 
L 147.507682 15.032394 
L 147.706491 15.453733 
L 147.83903 15.360571 
L 148.037839 15.12426 
L 148.104109 15.65389 
L 148.170378 15.086402 
L 148.236648 16.000413 
L 148.302918 15.330378 
L 148.501727 16.322125 
L 148.567996 15.736971 
L 148.634266 17.37872 
L 148.700536 15.892501 
L 148.766805 16.418304 
L 148.833075 16.110033 
L 148.899344 16.565819 
L 148.965614 16.29778 
L 149.230693 16.542318 
L 149.429502 17.406859 
L 149.62831 17.900387 
L 149.893389 18.433619 
L 149.959659 17.759925 
L 150.025928 19.560435 
L 150.092198 18.746161 
L 150.224737 18.752171 
L 150.357277 18.811299 
L 150.423546 19.30893 
L 150.489816 18.471447 
L 150.556085 18.90579 
L 150.887434 18.892337 
L 150.953703 18.808735 
L 151.019973 19.299846 
L 151.086243 18.430641 
L 151.152512 18.95766 
L 151.218782 18.977461 
L 151.285052 19.184069 
L 151.351321 19.022891 
L 151.48386 19.886447 
L 151.55013 18.898492 
L 151.6164 19.603905 
L 151.682669 19.28208 
L 151.748939 18.851305 
L 151.815209 19.150613 
L 151.881478 19.562785 
L 151.947748 18.510217 
L 152.014018 19.647701 
L 152.080287 18.827523 
L 152.212826 19.907524 
L 152.279096 19.426444 
L 152.345366 20.497756 
L 152.411635 19.628176 
L 152.477905 20.065345 
L 152.544175 19.621614 
L 152.742984 20.950808 
L 153.008062 21.400654 
L 153.074332 21.108897 
L 153.140601 21.342821 
L 153.206871 20.603537 
L 153.273141 21.245426 
L 153.33941 21.03369 
L 153.47195 21.06116 
L 153.538219 21.284252 
L 153.604489 21.104528 
L 153.737028 21.798254 
L 153.803298 21.720388 
L 153.869567 21.8985 
L 153.935837 22.483874 
L 154.002107 22.198631 
L 154.068376 22.239526 
L 154.399725 23.683568 
L 154.465994 22.756246 
L 154.598534 24.539235 
L 154.664803 23.789428 
L 154.731073 24.151016 
L 154.797342 24.603209 
L 154.863612 23.586875 
L 154.929882 24.951834 
L 154.996151 24.289937 
L 155.062421 24.128232 
L 155.128691 24.544618 
L 155.19496 24.105697 
L 155.26123 24.396776 
L 155.3275 24.70907 
L 155.460039 24.30897 
L 155.526309 24.550059 
L 155.592578 24.235327 
L 155.658848 24.580968 
L 155.725117 24.421923 
L 155.791387 24.072099 
L 155.857657 24.271423 
L 155.990196 24.596285 
L 156.056466 24.113856 
L 156.122735 24.932287 
L 156.189005 24.291869 
L 156.387814 25.0802 
L 156.454083 24.38799 
L 156.520353 25.309692 
L 156.586623 24.870239 
L 156.719162 25.069705 
L 156.785432 25.626949 
L 156.851701 25.205232 
L 157.05051 26.01112 
L 157.11678 25.977295 
L 157.18305 25.658779 
L 157.315589 26.790017 
L 157.381858 26.735952 
L 157.448128 26.600812 
L 157.646937 27.336467 
L 157.713207 26.91971 
L 157.779476 27.076163 
L 157.978285 28.076799 
L 158.044555 27.519444 
L 158.110824 28.284337 
L 158.177094 27.944653 
L 158.243364 28.297786 
L 158.309633 27.90028 
L 158.375903 28.447482 
L 158.442173 28.114602 
L 158.508442 28.617594 
L 158.574712 28.268419 
L 158.707251 28.808802 
L 158.773521 28.399246 
L 158.839791 29.127038 
L 158.90606 28.983157 
L 158.97233 28.760462 
L 159.038599 29.26378 
L 159.104869 29.170171 
L 159.171139 29.118775 
L 159.369948 29.709682 
L 159.436217 28.949231 
L 159.568757 29.688042 
L 159.833835 30.154562 
L 159.900105 29.919541 
L 159.966374 29.992071 
L 160.297723 30.561776 
L 160.363992 30.796124 
L 160.430262 30.599664 
L 160.496532 30.689686 
L 160.69534 30.901123 
L 160.960419 31.358285 
L 161.159228 31.761749 
L 162.285812 33.438338 
L 162.352081 34.610639 
L 162.418351 33.920845 
L 162.484621 34.66229 
L 162.55089 33.72914 
L 162.61716 33.767031 
L 162.68343 35.62731 
L 162.749699 33.866142 
L 162.815969 34.205027 
L 163.014778 35.702594 
L 163.081048 34.585357 
L 163.147317 35.077372 
L 163.279856 34.401632 
L 163.478665 35.313642 
L 163.544935 34.821768 
L 163.611205 37.146072 
L 163.677474 35.37559 
L 163.743744 35.525972 
L 163.810014 35.401459 
L 163.876283 36.253939 
L 163.942553 36.045048 
L 164.008823 36.404389 
L 164.075092 36.049772 
L 164.273901 36.666397 
L 164.340171 36.697998 
L 164.40644 37.485435 
L 164.47271 36.839315 
L 164.53898 37.107725 
L 164.605249 37.123512 
L 164.870328 37.792896 
L 164.936597 37.818551 
L 165.334215 39.30709 
L 165.400485 38.743524 
L 165.466755 38.899588 
L 165.599294 39.296054 
L 165.665564 39.095871 
L 165.798103 39.812253 
L 165.864372 39.662236 
L 165.930642 39.367133 
L 165.996912 40.139119 
L 166.063181 39.589621 
L 166.129451 40.197689 
L 166.195721 39.891703 
L 166.26199 39.815552 
L 166.39453 40.206454 
L 166.460799 40.077509 
L 166.792147 40.275707 
L 167.123496 40.658556 
L 167.256035 40.833898 
L 167.322305 40.3679 
L 167.587383 41.286437 
L 167.985001 42.201691 
L 168.25008 43.303392 
L 168.316349 42.989253 
L 168.515158 43.891663 
L 168.647697 44.258149 
L 168.713967 44.912263 
L 168.780237 44.147882 
L 168.846506 45.232502 
L 168.912776 44.446119 
L 168.979046 44.917076 
L 169.177854 45.702888 
L 169.244124 45.044675 
L 169.310394 45.237987 
L 169.442933 45.914805 
L 169.509203 45.729595 
L 169.575472 44.900896 
L 169.641742 45.996269 
L 169.708012 45.869806 
L 169.774281 45.386095 
L 169.840551 45.851369 
L 169.906821 45.517757 
L 169.97309 45.948431 
L 170.03936 45.816992 
L 170.105629 45.589281 
L 170.171899 46.053516 
L 170.238169 45.964007 
L 170.304438 45.968479 
L 170.503247 46.176019 
L 170.702056 46.317513 
L 170.768326 47.699441 
L 170.900865 46.686785 
L 171.298483 47.482663 
L 171.364753 47.905469 
L 171.431022 47.814066 
L 171.497292 47.713041 
L 171.563562 47.80217 
L 171.89491 48.323046 
L 171.961179 48.12099 
L 172.159988 48.677473 
L 172.822685 49.710867 
L 173.485381 51.499268 
L 173.551651 52.799461 
L 173.61792 51.83556 
L 173.68419 51.964684 
L 173.75046 52.139411 
L 173.949269 53.024405 
L 174.015538 52.312985 
L 174.081808 53.253237 
L 174.148078 52.520132 
L 174.214347 53.379853 
L 174.280617 53.114944 
L 174.346886 52.68567 
L 174.413156 53.641653 
L 174.479426 52.848846 
L 174.545695 53.751437 
L 174.611965 52.935524 
L 174.678235 53.751436 
L 174.744504 53.474942 
L 174.810774 52.745552 
L 175.009583 54.547266 
L 175.142122 53.384444 
L 175.208392 54.371004 
L 175.274661 53.580389 
L 175.340931 54.566949 
L 175.407201 54.351542 
L 175.47347 54.510207 
L 175.53974 54.967871 
L 175.60601 54.856849 
L 176.268706 56.680821 
L 176.533785 57.269223 
L 176.865133 57.797974 
L 176.931402 59.181302 
L 176.997672 58.065999 
L 177.063942 58.110165 
L 177.32902 58.464282 
L 177.39529 58.185935 
L 177.594099 59.235714 
L 177.660368 58.840316 
L 177.726638 58.422286 
L 177.792908 58.986669 
L 177.859177 58.533232 
L 178.057986 59.623207 
L 178.124256 58.775233 
L 178.190526 59.581354 
L 178.256795 58.81209 
L 178.323065 59.724716 
L 178.389335 59.416837 
L 178.455604 59.094174 
L 178.521874 60.00903 
L 178.588143 59.633845 
L 178.654413 59.305596 
L 178.720683 60.174327 
L 178.786952 59.823262 
L 179.118301 60.218515 
L 179.648458 61.094783 
L 179.847267 61.476316 
L 180.244884 62.341499 
L 180.377424 62.769327 
L 180.443693 62.518517 
L 180.642502 64.000531 
L 180.708772 63.422184 
L 180.907581 63.832241 
L 180.973851 64.325992 
L 181.04012 63.841098 
L 181.10639 64.583126 
L 181.172659 63.989741 
L 181.238929 64.504314 
L 181.238929 64.504314 
" clip-path="url(#p2fad6c2b9a)" style="fill: none; stroke: #2a2eec; stroke-width: 0.4; stroke-linecap: round"/>
   </g>
   <g id="line2d_15">
    <path d="M 27.824711 61.409583 
L 31.867159 67.631306 
L 35.180641 72.341684 
L 38.162775 76.203126 
L 40.87983 79.359643 
L 43.331807 81.879576 
L 45.651244 83.953673 
L 47.838142 85.617575 
L 49.892501 86.911686 
L 51.88059 87.908178 
L 53.80241 88.626873 
L 55.65796 89.089241 
L 57.51351 89.322187 
L 59.36906 89.325069 
L 61.22461 89.0985 
L 63.08016 88.644326 
L 65.001979 87.937259 
L 66.923799 86.994059 
L 68.978158 85.73157 
L 71.098786 84.162203 
L 73.351954 82.21154 
L 75.737661 79.845877 
L 78.322177 76.959609 
L 81.105502 73.510105 
L 84.220175 69.282506 
L 87.732466 64.129921 
L 92.106262 57.293585 
L 99.92608 44.555192 
L 105.691539 35.375513 
L 109.601448 29.553938 
L 112.84866 25.098849 
L 115.764524 21.466478 
L 118.41531 18.515986 
L 120.801017 16.1799 
L 123.054185 14.274931 
L 125.174813 12.766408 
L 127.162902 11.614707 
L 129.084722 10.751674 
L 130.940272 10.15809 
L 132.729552 9.812908 
L 134.518832 9.693433 
L 136.308113 9.800915 
L 138.097393 10.135235 
L 139.886673 10.694898 
L 141.742223 11.510224 
L 143.664043 12.601807 
L 145.652132 13.988227 
L 147.772761 15.744459 
L 150.025928 17.908519 
L 152.411635 20.512745 
L 154.996151 23.666144 
L 157.845746 27.497978 
L 161.092958 32.247259 
L 165.002867 38.380936 
L 170.569517 47.573934 
L 179.052031 61.560089 
L 181.238929 64.976643 
L 181.238929 64.976643 
" clip-path="url(#p2fad6c2b9a)" style="fill: none; stroke: #fa7c17; stroke-width: 0.4; stroke-linecap: round"/>
   </g>
   <g id="patch_3">
    <path d="M 20.154 93.681552 
L 20.154 5.4 
" style="fill: none; stroke: #000000; stroke-linejoin: miter; stroke-linecap: square"/>
   </g>
   <g id="patch_4">
    <path d="M 20.154 93.681552 
L 188.90964 93.681552 
" style="fill: none; stroke: #000000; stroke-linejoin: miter; stroke-linecap: square"/>
   </g>
   <g id="legend_1">
    <g id="line2d_16">
     <path d="M 98.711359 73.201083 
L 105.711359 73.201083 
L 112.711359 73.201083 
" style="fill: none; stroke: #2a2eec; stroke-width: 0.4; stroke-linecap: round"/>
    </g>
    <g id="text_16">
     <!-- ShipFlow Motions -->
     <g style="fill: #262626" transform="translate(118.311359 75.651083) scale(0.07 -0.07)">
      <defs>
       <path id="DejaVuSerif-53" d="M 594 225 
L 594 1288 
L 953 1284 
Q 969 753 1261 498 
Q 1553 244 2150 244 
Q 2706 244 2998 464 
Q 3291 684 3291 1106 
Q 3291 1444 3114 1625 
Q 2938 1806 2369 1978 
L 1753 2163 
Q 1084 2366 811 2669 
Q 538 2972 538 3500 
Q 538 4094 959 4422 
Q 1381 4750 2144 4750 
Q 2469 4750 2856 4679 
Q 3244 4609 3681 4475 
L 3681 3481 
L 3328 3481 
Q 3275 3975 2998 4195 
Q 2722 4416 2156 4416 
Q 1663 4416 1405 4214 
Q 1147 4013 1147 3628 
Q 1147 3294 1340 3103 
Q 1534 2913 2163 2725 
L 2741 2553 
Q 3375 2363 3645 2067 
Q 3916 1772 3916 1275 
Q 3916 597 3481 253 
Q 3047 -91 2188 -91 
Q 1803 -91 1404 -12 
Q 1006 66 594 225 
z
" transform="scale(0.015625)"/>
       <path id="DejaVuSerif-68" d="M 263 0 
L 263 331 
L 781 331 
L 781 4531 
L 231 4531 
L 231 4863 
L 1356 4863 
L 1356 2731 
Q 1516 3069 1770 3241 
Q 2025 3413 2363 3413 
Q 2913 3413 3172 3097 
Q 3431 2781 3431 2113 
L 3431 331 
L 3944 331 
L 3944 0 
L 2356 0 
L 2356 331 
L 2853 331 
L 2853 1931 
Q 2853 2541 2704 2764 
Q 2556 2988 2175 2988 
Q 1775 2988 1565 2697 
Q 1356 2406 1356 1850 
L 1356 331 
L 1856 331 
L 1856 0 
L 263 0 
z
" transform="scale(0.015625)"/>
       <path id="DejaVuSerif-70" d="M 1313 1825 
L 1313 1497 
Q 1313 897 1542 583 
Q 1772 269 2209 269 
Q 2650 269 2876 622 
Q 3103 975 3103 1663 
Q 3103 2353 2876 2703 
Q 2650 3053 2209 3053 
Q 1772 3053 1542 2737 
Q 1313 2422 1313 1825 
z
M 738 2988 
L 184 2988 
L 184 3322 
L 1313 3322 
L 1313 2803 
Q 1481 3116 1742 3264 
Q 2003 3413 2388 3413 
Q 3000 3413 3387 2928 
Q 3775 2444 3775 1663 
Q 3775 881 3387 395 
Q 3000 -91 2388 -91 
Q 2003 -91 1742 57 
Q 1481 206 1313 519 
L 1313 -997 
L 1856 -997 
L 1856 -1331 
L 184 -1331 
L 184 -997 
L 738 -997 
L 738 2988 
z
" transform="scale(0.015625)"/>
       <path id="DejaVuSerif-46" d="M 353 0 
L 353 331 
L 947 331 
L 947 4331 
L 353 4331 
L 353 4666 
L 4172 4666 
L 4172 3628 
L 3788 3628 
L 3788 4281 
L 1581 4281 
L 1581 2719 
L 3175 2719 
L 3175 3303 
L 3559 3303 
L 3559 1753 
L 3175 1753 
L 3175 2338 
L 1581 2338 
L 1581 331 
L 2328 331 
L 2328 0 
L 353 0 
z
" transform="scale(0.015625)"/>
       <path id="DejaVuSerif-6c" d="M 1313 331 
L 1856 331 
L 1856 0 
L 184 0 
L 184 331 
L 738 331 
L 738 4531 
L 184 4531 
L 184 4863 
L 1313 4863 
L 1313 331 
z
" transform="scale(0.015625)"/>
       <path id="DejaVuSerif-6f" d="M 1925 219 
Q 2388 219 2623 584 
Q 2859 950 2859 1663 
Q 2859 2375 2623 2739 
Q 2388 3103 1925 3103 
Q 1463 3103 1227 2739 
Q 991 2375 991 1663 
Q 991 950 1228 584 
Q 1466 219 1925 219 
z
M 1925 -91 
Q 1200 -91 759 389 
Q 319 869 319 1663 
Q 319 2456 758 2934 
Q 1197 3413 1925 3413 
Q 2653 3413 3092 2934 
Q 3531 2456 3531 1663 
Q 3531 869 3092 389 
Q 2653 -91 1925 -91 
z
" transform="scale(0.015625)"/>
       <path id="DejaVuSerif-77" d="M 3072 3322 
L 3922 728 
L 4672 2988 
L 4191 2988 
L 4191 3322 
L 5394 3322 
L 5394 2988 
L 5025 2988 
L 4038 0 
L 3559 0 
L 2741 2484 
L 1919 0 
L 1459 0 
L 475 2988 
L 103 2988 
L 103 3322 
L 1606 3322 
L 1606 2988 
L 1069 2988 
L 1813 728 
L 2669 3322 
L 3072 3322 
z
" transform="scale(0.015625)"/>
       <path id="DejaVuSerif-4d" d="M 353 0 
L 353 331 
L 947 331 
L 947 4331 
L 319 4331 
L 319 4666 
L 1678 4666 
L 3316 1344 
L 4953 4666 
L 6228 4666 
L 6228 4331 
L 5606 4331 
L 5606 331 
L 6203 331 
L 6203 0 
L 4378 0 
L 4378 331 
L 4972 331 
L 4972 3938 
L 3372 684 
L 2931 684 
L 1331 3938 
L 1331 331 
L 1925 331 
L 1925 0 
L 353 0 
z
" transform="scale(0.015625)"/>
       <path id="DejaVuSerif-74" d="M 691 2988 
L 184 2988 
L 184 3322 
L 691 3322 
L 691 4353 
L 1269 4353 
L 1269 3322 
L 2350 3322 
L 2350 2988 
L 1269 2988 
L 1269 878 
Q 1269 456 1350 337 
Q 1431 219 1650 219 
Q 1875 219 1978 351 
Q 2081 484 2088 781 
L 2522 781 
Q 2497 328 2275 118 
Q 2053 -91 1600 -91 
Q 1103 -91 897 129 
Q 691 350 691 878 
L 691 2988 
z
" transform="scale(0.015625)"/>
       <path id="DejaVuSerif-6e" d="M 263 0 
L 263 331 
L 781 331 
L 781 2988 
L 231 2988 
L 231 3322 
L 1356 3322 
L 1356 2731 
Q 1516 3069 1770 3241 
Q 2025 3413 2363 3413 
Q 2913 3413 3172 3097 
Q 3431 2781 3431 2113 
L 3431 331 
L 3944 331 
L 3944 0 
L 2356 0 
L 2356 331 
L 2853 331 
L 2853 1931 
Q 2853 2541 2703 2767 
Q 2553 2994 2175 2994 
Q 1775 2994 1565 2701 
Q 1356 2409 1356 1850 
L 1356 331 
L 1856 331 
L 1856 0 
L 263 0 
z
" transform="scale(0.015625)"/>
      </defs>
      <use xlink:href="#DejaVuSerif-53"/>
      <use xlink:href="#DejaVuSerif-68" x="68.505859"/>
      <use xlink:href="#DejaVuSerif-69" x="132.910156"/>
      <use xlink:href="#DejaVuSerif-70" x="164.892578"/>
      <use xlink:href="#DejaVuSerif-46" x="228.90625"/>
      <use xlink:href="#DejaVuSerif-6c" x="298.291016"/>
      <use xlink:href="#DejaVuSerif-6f" x="330.273438"/>
      <use xlink:href="#DejaVuSerif-77" x="390.478516"/>
      <use xlink:href="#DejaVuSerif-20" x="476.074219"/>
      <use xlink:href="#DejaVuSerif-4d" x="507.861328"/>
      <use xlink:href="#DejaVuSerif-6f" x="610.253906"/>
      <use xlink:href="#DejaVuSerif-74" x="670.458984"/>
      <use xlink:href="#DejaVuSerif-69" x="710.644531"/>
      <use xlink:href="#DejaVuSerif-6f" x="742.626953"/>
      <use xlink:href="#DejaVuSerif-6e" x="802.832031"/>
      <use xlink:href="#DejaVuSerif-73" x="867.236328"/>
     </g>
    </g>
    <g id="line2d_17">
     <path d="M 98.711359 83.475771 
L 105.711359 83.475771 
L 112.711359 83.475771 
" style="fill: none; stroke: #fa7c17; stroke-width: 0.4; stroke-linecap: round"/>
    </g>
    <g id="text_17">
     <!-- Fourier -->
     <g style="fill: #262626" transform="translate(118.311359 85.925771) scale(0.07 -0.07)">
      <defs>
       <path id="DejaVuSerif-75" d="M 2266 3322 
L 3341 3322 
L 3341 331 
L 3884 331 
L 3884 0 
L 2766 0 
L 2766 588 
Q 2606 256 2353 82 
Q 2100 -91 1766 -91 
Q 1213 -91 952 223 
Q 691 538 691 1209 
L 691 2988 
L 172 2988 
L 172 3322 
L 1269 3322 
L 1269 1388 
Q 1269 781 1417 556 
Q 1566 331 1947 331 
Q 2347 331 2556 625 
Q 2766 919 2766 1478 
L 2766 2988 
L 2266 2988 
L 2266 3322 
z
" transform="scale(0.015625)"/>
       <path id="DejaVuSerif-72" d="M 3059 3328 
L 3059 2497 
L 2728 2497 
Q 2713 2744 2591 2866 
Q 2469 2988 2234 2988 
Q 1809 2988 1582 2694 
Q 1356 2400 1356 1850 
L 1356 331 
L 2022 331 
L 2022 0 
L 263 0 
L 263 331 
L 781 331 
L 781 2994 
L 231 2994 
L 231 3322 
L 1356 3322 
L 1356 2731 
Q 1525 3078 1790 3245 
Q 2056 3413 2438 3413 
Q 2578 3413 2733 3391 
Q 2888 3369 3059 3328 
z
" transform="scale(0.015625)"/>
      </defs>
      <use xlink:href="#DejaVuSerif-46"/>
      <use xlink:href="#DejaVuSerif-6f" x="63.884766"/>
      <use xlink:href="#DejaVuSerif-75" x="124.089844"/>
      <use xlink:href="#DejaVuSerif-72" x="188.494141"/>
      <use xlink:href="#DejaVuSerif-69" x="236.296875"/>
      <use xlink:href="#DejaVuSerif-65" x="268.279297"/>
      <use xlink:href="#DejaVuSerif-72" x="327.458984"/>
     </g>
    </g>
   </g>
  </g>
 </g>
 <defs>
  <clipPath id="p2fad6c2b9a">
   <rect x="20.154" y="5.4" width="168.75564" height="88.281552"/>
  </clipPath>
 </defs>
</svg>
