<?xml version="1.0" encoding="utf-8" standalone="no"?>
<!DOCTYPE svg PUBLIC "-//W3C//DTD SVG 1.1//EN"
  "http://www.w3.org/Graphics/SVG/1.1/DTD/svg11.dtd">
<svg xmlns:xlink="http://www.w3.org/1999/xlink" width="194.30964pt" height="109.311552pt" viewBox="0 0 194.30964 109.311552" xmlns="http://www.w3.org/2000/svg" version="1.1">
 <metadata>
  <rdf:RDF xmlns:dc="http://purl.org/dc/elements/1.1/" xmlns:cc="http://creativecommons.org/ns#" xmlns:rdf="http://www.w3.org/1999/02/22-rdf-syntax-ns#">
   <cc:Work>
    <dc:type rdf:resource="http://purl.org/dc/dcmitype/StillImage"/>
    <dc:date>2024-12-03T19:47:22.918543</dc:date>
    <dc:format>image/svg+xml</dc:format>
    <dc:creator>
     <cc:Agent>
      <dc:title>Matplotlib v3.8.2, https://matplotlib.org/</dc:title>
     </cc:Agent>
    </dc:creator>
   </cc:Work>
  </rdf:RDF>
 </metadata>
 <defs>
  <style type="text/css">*{stroke-linejoin: round; stroke-linecap: butt}</style>
 </defs>
 <g id="figure_1">
  <g id="patch_1">
   <path d="M 0 109.311552 
L 194.30964 109.311552 
L 194.30964 0 
L 0 0 
z
" style="fill: #ffffff"/>
  </g>
  <g id="axes_1">
   <g id="patch_2">
    <path d="M 37.758834 86.036625 
L 191.3094 86.036625 
L 191.3094 3.00024 
L 37.758834 3.00024 
z
" style="fill: #ffffff"/>
   </g>
   <g id="matplotlib.axis_1">
    <g id="xtick_1">
     <g id="line2d_1"/>
     <g id="text_1">
      <!-- −10 -->
      <g style="fill: #262626" transform="translate(40.504641 94.855531) scale(0.07 -0.07)">
       <defs>
        <path id="DejaVuSerif-2212" d="M 678 2259 
L 4684 2259 
L 4684 1753 
L 678 1753 
L 678 2259 
z
" transform="scale(0.015625)"/>
        <path id="DejaVuSerif-31" d="M 909 0 
L 909 331 
L 1722 331 
L 1722 4213 
L 781 3603 
L 781 4013 
L 1919 4750 
L 2350 4750 
L 2350 331 
L 3163 331 
L 3163 0 
L 909 0 
z
" transform="scale(0.015625)"/>
        <path id="DejaVuSerif-30" d="M 2034 219 
Q 2513 219 2750 744 
Q 2988 1269 2988 2328 
Q 2988 3391 2750 3916 
Q 2513 4441 2034 4441 
Q 1556 4441 1318 3916 
Q 1081 3391 1081 2328 
Q 1081 1269 1318 744 
Q 1556 219 2034 219 
z
M 2034 -91 
Q 1275 -91 848 546 
Q 422 1184 422 2328 
Q 422 3475 848 4112 
Q 1275 4750 2034 4750 
Q 2797 4750 3222 4112 
Q 3647 3475 3647 2328 
Q 3647 1184 3222 546 
Q 2797 -91 2034 -91 
z
" transform="scale(0.015625)"/>
       </defs>
       <use xlink:href="#DejaVuSerif-2212"/>
       <use xlink:href="#DejaVuSerif-31" x="83.789062"/>
       <use xlink:href="#DejaVuSerif-30" x="147.412109"/>
      </g>
     </g>
    </g>
    <g id="xtick_2">
     <g id="line2d_2"/>
     <g id="text_2">
      <!-- −5 -->
      <g style="fill: #262626" transform="translate(75.465572 94.855531) scale(0.07 -0.07)">
       <defs>
        <path id="DejaVuSerif-35" d="M 3219 4666 
L 3219 4153 
L 1081 4153 
L 1081 2816 
Q 1244 2928 1461 2984 
Q 1678 3041 1947 3041 
Q 2703 3041 3140 2622 
Q 3578 2203 3578 1478 
Q 3578 738 3136 323 
Q 2694 -91 1894 -91 
Q 1572 -91 1234 -12 
Q 897 66 544 225 
L 544 1131 
L 897 1131 
Q 925 688 1179 453 
Q 1434 219 1894 219 
Q 2388 219 2653 544 
Q 2919 869 2919 1478 
Q 2919 2084 2655 2407 
Q 2391 2731 1894 2731 
Q 1613 2731 1398 2631 
Q 1184 2531 1019 2322 
L 750 2322 
L 750 4666 
L 3219 4666 
z
" transform="scale(0.015625)"/>
       </defs>
       <use xlink:href="#DejaVuSerif-2212"/>
       <use xlink:href="#DejaVuSerif-35" x="83.789062"/>
      </g>
     </g>
    </g>
    <g id="xtick_3">
     <g id="line2d_3"/>
     <g id="text_3">
      <!-- 0 -->
      <g style="fill: #262626" transform="translate(111.132519 94.855531) scale(0.07 -0.07)">
       <use xlink:href="#DejaVuSerif-30"/>
      </g>
     </g>
    </g>
    <g id="xtick_4">
     <g id="line2d_4"/>
     <g id="text_4">
      <!-- 5 -->
      <g style="fill: #262626" transform="translate(143.866575 94.855531) scale(0.07 -0.07)">
       <use xlink:href="#DejaVuSerif-35"/>
      </g>
     </g>
    </g>
    <g id="xtick_5">
     <g id="line2d_5"/>
     <g id="text_5">
      <!-- 10 -->
      <g style="fill: #262626" transform="translate(174.373756 94.855531) scale(0.07 -0.07)">
       <use xlink:href="#DejaVuSerif-31"/>
       <use xlink:href="#DejaVuSerif-30" x="63.623047"/>
      </g>
     </g>
    </g>
    <g id="text_6">
     <!-- Drift angle $\beta$ [deg] -->
     <g style="fill: #262626" transform="translate(86.304117 104.931312) scale(0.06 -0.06)">
      <defs>
       <path id="DejaVuSerif-44" d="M 1581 331 
L 2163 331 
Q 3072 331 3558 850 
Q 4044 1369 4044 2338 
Q 4044 3306 3559 3818 
Q 3075 4331 2163 4331 
L 1581 4331 
L 1581 331 
z
M 353 0 
L 353 331 
L 947 331 
L 947 4331 
L 353 4331 
L 353 4666 
L 2209 4666 
Q 3416 4666 4089 4050 
Q 4763 3434 4763 2338 
Q 4763 1238 4088 619 
Q 3413 0 2209 0 
L 353 0 
z
" transform="scale(0.015625)"/>
       <path id="DejaVuSerif-72" d="M 3059 3328 
L 3059 2497 
L 2728 2497 
Q 2713 2744 2591 2866 
Q 2469 2988 2234 2988 
Q 1809 2988 1582 2694 
Q 1356 2400 1356 1850 
L 1356 331 
L 2022 331 
L 2022 0 
L 263 0 
L 263 331 
L 781 331 
L 781 2994 
L 231 2994 
L 231 3322 
L 1356 3322 
L 1356 2731 
Q 1525 3078 1790 3245 
Q 2056 3413 2438 3413 
Q 2578 3413 2733 3391 
Q 2888 3369 3059 3328 
z
" transform="scale(0.015625)"/>
       <path id="DejaVuSerif-69" d="M 622 4353 
Q 622 4497 726 4603 
Q 831 4709 978 4709 
Q 1122 4709 1226 4603 
Q 1331 4497 1331 4353 
Q 1331 4206 1228 4103 
Q 1125 4000 978 4000 
Q 831 4000 726 4103 
Q 622 4206 622 4353 
z
M 1356 331 
L 1900 331 
L 1900 0 
L 231 0 
L 231 331 
L 781 331 
L 781 2988 
L 231 2988 
L 231 3322 
L 1356 3322 
L 1356 331 
z
" transform="scale(0.015625)"/>
       <path id="DejaVuSerif-66" d="M 2753 4078 
L 2450 4078 
Q 2447 4313 2317 4434 
Q 2188 4556 1941 4556 
Q 1619 4556 1487 4379 
Q 1356 4203 1356 3750 
L 1356 3322 
L 2284 3322 
L 2284 2988 
L 1356 2988 
L 1356 331 
L 2094 331 
L 2094 0 
L 231 0 
L 231 331 
L 781 331 
L 781 2988 
L 231 2988 
L 231 3322 
L 781 3322 
L 781 3738 
Q 781 4294 1070 4578 
Q 1359 4863 1919 4863 
Q 2128 4863 2337 4825 
Q 2547 4788 2753 4709 
L 2753 4078 
z
" transform="scale(0.015625)"/>
       <path id="DejaVuSerif-74" d="M 691 2988 
L 184 2988 
L 184 3322 
L 691 3322 
L 691 4353 
L 1269 4353 
L 1269 3322 
L 2350 3322 
L 2350 2988 
L 1269 2988 
L 1269 878 
Q 1269 456 1350 337 
Q 1431 219 1650 219 
Q 1875 219 1978 351 
Q 2081 484 2088 781 
L 2522 781 
Q 2497 328 2275 118 
Q 2053 -91 1600 -91 
Q 1103 -91 897 129 
Q 691 350 691 878 
L 691 2988 
z
" transform="scale(0.015625)"/>
       <path id="DejaVuSerif-20" transform="scale(0.015625)"/>
       <path id="DejaVuSerif-61" d="M 2547 1044 
L 2547 1747 
L 1806 1747 
Q 1378 1747 1168 1562 
Q 959 1378 959 997 
Q 959 650 1171 447 
Q 1384 244 1747 244 
Q 2106 244 2326 466 
Q 2547 688 2547 1044 
z
M 3122 2075 
L 3122 331 
L 3634 331 
L 3634 0 
L 2547 0 
L 2547 359 
Q 2356 128 2106 18 
Q 1856 -91 1522 -91 
Q 969 -91 644 203 
Q 319 497 319 997 
Q 319 1513 691 1797 
Q 1063 2081 1741 2081 
L 2547 2081 
L 2547 2309 
Q 2547 2688 2317 2895 
Q 2088 3103 1672 3103 
Q 1328 3103 1125 2947 
Q 922 2791 872 2484 
L 575 2484 
L 575 3156 
Q 875 3284 1158 3348 
Q 1441 3413 1709 3413 
Q 2400 3413 2761 3070 
Q 3122 2728 3122 2075 
z
" transform="scale(0.015625)"/>
       <path id="DejaVuSerif-6e" d="M 263 0 
L 263 331 
L 781 331 
L 781 2988 
L 231 2988 
L 231 3322 
L 1356 3322 
L 1356 2731 
Q 1516 3069 1770 3241 
Q 2025 3413 2363 3413 
Q 2913 3413 3172 3097 
Q 3431 2781 3431 2113 
L 3431 331 
L 3944 331 
L 3944 0 
L 2356 0 
L 2356 331 
L 2853 331 
L 2853 1931 
Q 2853 2541 2703 2767 
Q 2553 2994 2175 2994 
Q 1775 2994 1565 2701 
Q 1356 2409 1356 1850 
L 1356 331 
L 1856 331 
L 1856 0 
L 263 0 
z
" transform="scale(0.015625)"/>
       <path id="DejaVuSerif-67" d="M 3359 2988 
L 3359 72 
Q 3359 -644 2965 -1033 
Q 2572 -1422 1844 -1422 
Q 1516 -1422 1216 -1362 
Q 916 -1303 641 -1184 
L 641 -488 
L 941 -488 
Q 997 -813 1206 -963 
Q 1416 -1113 1806 -1113 
Q 2313 -1113 2548 -827 
Q 2784 -541 2784 72 
L 2784 519 
Q 2616 206 2355 57 
Q 2094 -91 1709 -91 
Q 1097 -91 708 395 
Q 319 881 319 1663 
Q 319 2444 706 2928 
Q 1094 3413 1709 3413 
Q 2094 3413 2355 3264 
Q 2616 3116 2784 2803 
L 2784 3322 
L 3909 3322 
L 3909 2988 
L 3359 2988 
z
M 2784 1825 
Q 2784 2422 2554 2737 
Q 2325 3053 1888 3053 
Q 1444 3053 1217 2703 
Q 991 2353 991 1663 
Q 991 975 1217 622 
Q 1444 269 1888 269 
Q 2325 269 2554 583 
Q 2784 897 2784 1497 
L 2784 1825 
z
" transform="scale(0.015625)"/>
       <path id="DejaVuSerif-6c" d="M 1313 331 
L 1856 331 
L 1856 0 
L 184 0 
L 184 331 
L 738 331 
L 738 4531 
L 184 4531 
L 184 4863 
L 1313 4863 
L 1313 331 
z
" transform="scale(0.015625)"/>
       <path id="DejaVuSerif-65" d="M 3469 1600 
L 991 1600 
L 991 1575 
Q 991 903 1244 561 
Q 1497 219 1991 219 
Q 2369 219 2611 417 
Q 2853 616 2950 1006 
L 3413 1006 
Q 3275 459 2904 184 
Q 2534 -91 1931 -91 
Q 1203 -91 761 389 
Q 319 869 319 1663 
Q 319 2450 753 2931 
Q 1188 3413 1894 3413 
Q 2647 3413 3050 2948 
Q 3453 2484 3469 1600 
z
M 2791 1931 
Q 2772 2513 2545 2808 
Q 2319 3103 1894 3103 
Q 1497 3103 1269 2806 
Q 1041 2509 991 1931 
L 2791 1931 
z
" transform="scale(0.015625)"/>
       <path id="DejaVuSans-Oblique-3b2" d="M 872 216 
L 572 -1331 
L -6 -1331 
L 928 3478 
Q 1206 4903 2538 4903 
Q 3888 4903 3659 3700 
Q 3503 2844 2894 2531 
Q 3713 2250 3553 1416 
Q 3272 -69 1759 -66 
Q 1097 -63 872 216 
z
M 1019 966 
Q 1259 422 1875 425 
Q 2775 425 2966 1406 
Q 3138 2288 1675 2219 
L 1778 2750 
Q 2909 2731 3106 3750 
Q 3241 4438 2509 4434 
Q 1691 4434 1503 3459 
L 1019 966 
z
" transform="scale(0.015625)"/>
       <path id="DejaVuSerif-5b" d="M 550 4863 
L 2003 4863 
L 2003 4531 
L 1147 4531 
L 1147 -513 
L 2003 -513 
L 2003 -844 
L 550 -844 
L 550 4863 
z
" transform="scale(0.015625)"/>
       <path id="DejaVuSerif-64" d="M 3359 331 
L 3909 331 
L 3909 0 
L 2784 0 
L 2784 519 
Q 2616 206 2355 57 
Q 2094 -91 1709 -91 
Q 1097 -91 708 395 
Q 319 881 319 1663 
Q 319 2444 706 2928 
Q 1094 3413 1709 3413 
Q 2094 3413 2355 3264 
Q 2616 3116 2784 2803 
L 2784 4531 
L 2241 4531 
L 2241 4863 
L 3359 4863 
L 3359 331 
z
M 2784 1497 
L 2784 1825 
Q 2784 2422 2554 2737 
Q 2325 3053 1888 3053 
Q 1444 3053 1217 2703 
Q 991 2353 991 1663 
Q 991 975 1217 622 
Q 1444 269 1888 269 
Q 2325 269 2554 583 
Q 2784 897 2784 1497 
z
" transform="scale(0.015625)"/>
       <path id="DejaVuSerif-5d" d="M 1947 4863 
L 1947 -844 
L 494 -844 
L 494 -513 
L 1350 -513 
L 1350 4531 
L 494 4531 
L 494 4863 
L 1947 4863 
z
" transform="scale(0.015625)"/>
      </defs>
      <use xlink:href="#DejaVuSerif-44" transform="translate(0 0.390625)"/>
      <use xlink:href="#DejaVuSerif-72" transform="translate(80.175781 0.390625)"/>
      <use xlink:href="#DejaVuSerif-69" transform="translate(127.978516 0.390625)"/>
      <use xlink:href="#DejaVuSerif-66" transform="translate(159.960938 0.390625)"/>
      <use xlink:href="#DejaVuSerif-74" transform="translate(196.972656 0.390625)"/>
      <use xlink:href="#DejaVuSerif-20" transform="translate(237.158203 0.390625)"/>
      <use xlink:href="#DejaVuSerif-61" transform="translate(268.945312 0.390625)"/>
      <use xlink:href="#DejaVuSerif-6e" transform="translate(328.564453 0.390625)"/>
      <use xlink:href="#DejaVuSerif-67" transform="translate(392.96875 0.390625)"/>
      <use xlink:href="#DejaVuSerif-6c" transform="translate(456.982422 0.390625)"/>
      <use xlink:href="#DejaVuSerif-65" transform="translate(488.964844 0.390625)"/>
      <use xlink:href="#DejaVuSerif-20" transform="translate(548.144531 0.390625)"/>
      <use xlink:href="#DejaVuSans-Oblique-3b2" transform="translate(579.931641 0.390625)"/>
      <use xlink:href="#DejaVuSerif-20" transform="translate(643.75 0.390625)"/>
      <use xlink:href="#DejaVuSerif-5b" transform="translate(675.537109 0.390625)"/>
      <use xlink:href="#DejaVuSerif-64" transform="translate(714.550781 0.390625)"/>
      <use xlink:href="#DejaVuSerif-65" transform="translate(778.564453 0.390625)"/>
      <use xlink:href="#DejaVuSerif-67" transform="translate(837.744141 0.390625)"/>
      <use xlink:href="#DejaVuSerif-5d" transform="translate(901.757812 0.390625)"/>
     </g>
    </g>
   </g>
   <g id="matplotlib.axis_2">
    <g id="ytick_1">
     <g id="line2d_6"/>
     <g id="text_7">
      <!-- −0.05 -->
      <g style="fill: #262626" transform="translate(12.807115 73.868625) scale(0.07 -0.07)">
       <defs>
        <path id="DejaVuSerif-2e" d="M 603 325 
Q 603 500 722 622 
Q 841 744 1019 744 
Q 1191 744 1312 622 
Q 1434 500 1434 325 
Q 1434 153 1312 31 
Q 1191 -91 1019 -91 
Q 841 -91 722 29 
Q 603 150 603 325 
z
" transform="scale(0.015625)"/>
       </defs>
       <use xlink:href="#DejaVuSerif-2212"/>
       <use xlink:href="#DejaVuSerif-30" x="83.789062"/>
       <use xlink:href="#DejaVuSerif-2e" x="147.412109"/>
       <use xlink:href="#DejaVuSerif-30" x="179.199219"/>
       <use xlink:href="#DejaVuSerif-35" x="242.822266"/>
      </g>
     </g>
    </g>
    <g id="ytick_2">
     <g id="line2d_7"/>
     <g id="text_8">
      <!-- 0.00 -->
      <g style="fill: #262626" transform="translate(18.672896 52.364414) scale(0.07 -0.07)">
       <use xlink:href="#DejaVuSerif-30"/>
       <use xlink:href="#DejaVuSerif-2e" x="63.623047"/>
       <use xlink:href="#DejaVuSerif-30" x="95.410156"/>
       <use xlink:href="#DejaVuSerif-30" x="159.033203"/>
      </g>
     </g>
    </g>
    <g id="ytick_3">
     <g id="line2d_8"/>
     <g id="text_9">
      <!-- 0.05 -->
      <g style="fill: #262626" transform="translate(18.672896 30.860203) scale(0.07 -0.07)">
       <use xlink:href="#DejaVuSerif-30"/>
       <use xlink:href="#DejaVuSerif-2e" x="63.623047"/>
       <use xlink:href="#DejaVuSerif-30" x="95.410156"/>
       <use xlink:href="#DejaVuSerif-35" x="159.033203"/>
      </g>
     </g>
    </g>
    <g id="ytick_4">
     <g id="line2d_9"/>
     <g id="text_10">
      <!-- 0.10 -->
      <g style="fill: #262626" transform="translate(18.672896 9.355992) scale(0.07 -0.07)">
       <use xlink:href="#DejaVuSerif-30"/>
       <use xlink:href="#DejaVuSerif-2e" x="63.623047"/>
       <use xlink:href="#DejaVuSerif-31" x="95.410156"/>
       <use xlink:href="#DejaVuSerif-30" x="159.033203"/>
      </g>
     </g>
    </g>
    <g id="text_11">
     <!-- Yaw rate $r$ [rad/s] -->
     <g style="fill: #262626" transform="translate(7.559302 71.188432) rotate(-90) scale(0.06 -0.06)">
      <defs>
       <path id="DejaVuSerif-59" d="M 1209 0 
L 1209 331 
L 1806 331 
L 1806 2009 
L 366 4331 
L -72 4331 
L -72 4666 
L 1663 4666 
L 1663 4331 
L 1119 4331 
L 2284 2444 
L 3450 4331 
L 2925 4331 
L 2925 4666 
L 4281 4666 
L 4281 4331 
L 3841 4331 
L 2438 2069 
L 2438 331 
L 3034 331 
L 3034 0 
L 1209 0 
z
" transform="scale(0.015625)"/>
       <path id="DejaVuSerif-77" d="M 3072 3322 
L 3922 728 
L 4672 2988 
L 4191 2988 
L 4191 3322 
L 5394 3322 
L 5394 2988 
L 5025 2988 
L 4038 0 
L 3559 0 
L 2741 2484 
L 1919 0 
L 1459 0 
L 475 2988 
L 103 2988 
L 103 3322 
L 1606 3322 
L 1606 2988 
L 1069 2988 
L 1813 728 
L 2669 3322 
L 3072 3322 
z
" transform="scale(0.015625)"/>
       <path id="DejaVuSans-Oblique-72" d="M 2853 2969 
Q 2766 3016 2653 3041 
Q 2541 3066 2413 3066 
Q 1953 3066 1609 2717 
Q 1266 2369 1153 1784 
L 800 0 
L 225 0 
L 909 3500 
L 1484 3500 
L 1375 2956 
Q 1603 3259 1920 3421 
Q 2238 3584 2597 3584 
Q 2691 3584 2781 3573 
Q 2872 3563 2963 3538 
L 2853 2969 
z
" transform="scale(0.015625)"/>
       <path id="DejaVuSerif-2f" d="M 1656 4666 
L 2156 4666 
L 500 -594 
L 0 -594 
L 1656 4666 
z
" transform="scale(0.015625)"/>
       <path id="DejaVuSerif-73" d="M 359 184 
L 359 959 
L 691 959 
Q 703 588 923 403 
Q 1144 219 1575 219 
Q 1963 219 2166 364 
Q 2369 509 2369 788 
Q 2369 1006 2220 1140 
Q 2072 1275 1594 1428 
L 1178 1569 
Q 750 1706 558 1912 
Q 366 2119 366 2438 
Q 366 2894 700 3153 
Q 1034 3413 1625 3413 
Q 1888 3413 2178 3344 
Q 2469 3275 2778 3144 
L 2778 2419 
L 2447 2419 
Q 2434 2741 2221 2922 
Q 2009 3103 1644 3103 
Q 1281 3103 1095 2975 
Q 909 2847 909 2591 
Q 909 2381 1050 2254 
Q 1191 2128 1613 1997 
L 2069 1856 
Q 2541 1709 2748 1489 
Q 2956 1269 2956 922 
Q 2956 450 2595 179 
Q 2234 -91 1600 -91 
Q 1278 -91 972 -22 
Q 666 47 359 184 
z
" transform="scale(0.015625)"/>
      </defs>
      <use xlink:href="#DejaVuSerif-59" transform="translate(0 0.015625)"/>
      <use xlink:href="#DejaVuSerif-61" transform="translate(66.015625 0.015625)"/>
      <use xlink:href="#DejaVuSerif-77" transform="translate(125.634766 0.015625)"/>
      <use xlink:href="#DejaVuSerif-20" transform="translate(211.230469 0.015625)"/>
      <use xlink:href="#DejaVuSerif-72" transform="translate(243.017578 0.015625)"/>
      <use xlink:href="#DejaVuSerif-61" transform="translate(290.820312 0.015625)"/>
      <use xlink:href="#DejaVuSerif-74" transform="translate(350.439453 0.015625)"/>
      <use xlink:href="#DejaVuSerif-65" transform="translate(390.625 0.015625)"/>
      <use xlink:href="#DejaVuSerif-20" transform="translate(449.804688 0.015625)"/>
      <use xlink:href="#DejaVuSans-Oblique-72" transform="translate(481.591797 0.015625)"/>
      <use xlink:href="#DejaVuSerif-20" transform="translate(522.705078 0.015625)"/>
      <use xlink:href="#DejaVuSerif-5b" transform="translate(554.492188 0.015625)"/>
      <use xlink:href="#DejaVuSerif-72" transform="translate(593.505859 0.015625)"/>
      <use xlink:href="#DejaVuSerif-61" transform="translate(641.308594 0.015625)"/>
      <use xlink:href="#DejaVuSerif-64" transform="translate(700.927734 0.015625)"/>
      <use xlink:href="#DejaVuSerif-2f" transform="translate(764.941406 0.015625)"/>
      <use xlink:href="#DejaVuSerif-73" transform="translate(798.632812 0.015625)"/>
      <use xlink:href="#DejaVuSerif-5d" transform="translate(849.951172 0.015625)"/>
     </g>
    </g>
   </g>
   <g id="line2d_10">
    <path d="M 113.359394 49.704961 
L 112.917424 50.52185 
L 109.700319 54.23861 
L 107.350686 56.869819 
L 105.823733 58.165444 
L 103.919772 59.429895 
L 101.131722 61.01661 
L 91.165211 66.251028 
L 89.858177 66.772155 
L 89.369523 66.720744 
L 89.045751 66.476186 
L 88.842507 66.046999 
L 88.769436 65.356372 
L 88.888103 64.126123 
L 89.024664 61.867612 
L 89.211662 58.390243 
L 89.51376 57.369429 
L 90.052315 56.355219 
L 90.751348 55.511493 
L 91.680237 54.747016 
L 93.060095 53.925233 
L 95.389003 52.809267 
L 99.676946 51.011191 
L 102.873245 49.685421 
L 105.936088 48.182872 
L 114.184591 43.896379 
L 119.760935 41.355356 
L 141.340223 30.79645 
L 147.234029 28.379242 
L 149.376986 27.68415 
L 152.929091 26.866475 
L 156.01282 26.135511 
L 157.525918 25.870851 
L 158.306115 25.895921 
L 158.580022 26.155082 
L 158.723327 26.60042 
L 158.70931 27.320018 
L 158.438879 28.556021 
L 157.15556 33.340562 
L 156.481089 35.591484 
L 155.977442 36.557719 
L 155.256501 37.502821 
L 154.151198 38.56958 
L 152.653064 39.625829 
L 150.89897 40.627173 
L 148.180335 41.857275 
L 143.737876 43.597491 
L 123.868177 51.265311 
L 120.40829 52.884877 
L 108.823111 57.727522 
L 101.773434 60.254791 
L 97.06135 62.050872 
L 93.483411 63.610537 
L 83.974258 67.912088 
L 83.159495 68.150349 
L 83.159495 68.150349 
" clip-path="url(#p16fd1c1cd7)" style="fill: none; stroke: #0000ff; stroke-width: 0.4; stroke-linecap: round"/>
   </g>
   <g id="line2d_11">
    <path d="M 113.359394 49.704961 
L 112.254261 51.32901 
L 106.64427 59.204786 
L 104.115616 62.345666 
L 102.105132 64.513483 
L 99.892585 66.559274 
L 97.830473 68.16938 
L 95.467183 69.733187 
L 91.912646 71.790979 
L 86.49118 74.620331 
L 80.449256 77.506584 
L 73.947482 80.404797 
L 70.499611 81.683105 
L 68.341007 82.250986 
L 67.546955 82.209326 
L 66.959858 81.982169 
L 66.480739 81.583905 
L 66.063285 80.939143 
L 65.752357 80.045259 
L 65.560795 78.822652 
L 65.54349 77.142986 
L 65.734589 75.186132 
L 66.153683 72.970616 
L 66.849111 70.46365 
L 69.16607 62.854962 
L 69.898494 61.430655 
L 70.830603 60.054323 
L 71.962147 58.781974 
L 73.414801 57.487081 
L 75.529482 55.931174 
L 78.46063 54.067453 
L 83.083911 51.416837 
L 98.060069 43.164818 
L 102.107994 41.18739 
L 107.377106 38.848945 
L 113.070145 36.515676 
L 119.456865 34.101496 
L 145.475398 24.699496 
L 151.33868 23.055622 
L 157.563275 21.523616 
L 161.916073 20.688119 
L 168.403412 19.642644 
L 171.742136 19.087473 
L 179.219713 18.470516 
L 182.821678 18.483008 
L 183.756968 18.776365 
L 184.228322 19.191761 
L 184.326028 19.66501 
L 184.261718 20.434581 
L 183.945805 21.459016 
L 182.231123 25.479721 
L 181.060238 27.875858 
L 179.51952 30.516562 
L 176.218099 35.60421 
L 174.53588 37.821583 
L 172.888263 39.603196 
L 171.251362 41.05101 
L 169.687588 42.130423 
L 167.363306 43.434289 
L 164.685783 44.685314 
L 161.575464 45.886025 
L 153.675223 48.512499 
L 144.048272 51.824759 
L 134.795448 55.287211 
L 126.256107 58.150547 
L 90.399269 69.728136 
L 72.883426 75.671842 
L 68.916075 76.585095 
L 65.037093 77.230563 
L 59.244268 78.031797 
L 49.660077 79.204629 
L 46.285729 79.365277 
L 44.900158 79.049955 
L 44.765563 78.704419 
L 44.760886 78.074787 
L 44.999728 77.132786 
L 45.734321 75.347505 
L 47.070892 72.714655 
L 49.299888 68.835639 
L 52.960647 63.144855 
L 54.403585 61.184749 
L 55.824919 59.656744 
L 57.354972 58.332012 
L 59.372006 56.900747 
L 61.566651 55.612676 
L 64.458965 54.232683 
L 67.817968 52.865948 
L 75.557994 50.060452 
L 82.923035 47.286095 
L 90.538207 44.144338 
L 97.317362 41.631084 
L 102.279957 39.970993 
L 108.819176 37.790156 
L 114.04357 35.816796 
L 115.231524 35.348457 
L 115.231524 35.348457 
" clip-path="url(#p16fd1c1cd7)" style="fill: none; stroke: #bf00bf; stroke-width: 0.4; stroke-linecap: round"/>
   </g>
   <g id="line2d_12">
    <defs>
     <path id="ma86dceaa97" d="M -1.5 0 
L 1.5 0 
M 0 1.5 
L 0 -1.5 
" style="stroke: #ff0000"/>
    </defs>
    <g clip-path="url(#p16fd1c1cd7)">
     <use xlink:href="#ma86dceaa97" x="113.359394" y="21.657139" style="fill: #ff0000; stroke: #ff0000"/>
     <use xlink:href="#ma86dceaa97" x="113.359394" y="28.669094" style="fill: #ff0000; stroke: #ff0000"/>
     <use xlink:href="#ma86dceaa97" x="113.359394" y="39.187028" style="fill: #ff0000; stroke: #ff0000"/>
     <use xlink:href="#ma86dceaa97" x="113.359394" y="77.752783" style="fill: #ff0000; stroke: #ff0000"/>
     <use xlink:href="#ma86dceaa97" x="113.359394" y="70.740827" style="fill: #ff0000; stroke: #ff0000"/>
     <use xlink:href="#ma86dceaa97" x="113.359394" y="60.222894" style="fill: #ff0000; stroke: #ff0000"/>
     <use xlink:href="#ma86dceaa97" x="126.453016" y="28.669094" style="fill: #ff0000; stroke: #ff0000"/>
     <use xlink:href="#ma86dceaa97" x="47.891282" y="77.752783" style="fill: #ff0000; stroke: #ff0000"/>
     <use xlink:href="#ma86dceaa97" x="80.625338" y="77.752783" style="fill: #ff0000; stroke: #ff0000"/>
     <use xlink:href="#ma86dceaa97" x="47.891282" y="70.740827" style="fill: #ff0000; stroke: #ff0000"/>
     <use xlink:href="#ma86dceaa97" x="100.265771" y="70.740827" style="fill: #ff0000; stroke: #ff0000"/>
     <use xlink:href="#ma86dceaa97" x="80.625338" y="70.740827" style="fill: #ff0000; stroke: #ff0000"/>
     <use xlink:href="#ma86dceaa97" x="100.265771" y="60.222894" style="fill: #ff0000; stroke: #ff0000"/>
     <use xlink:href="#ma86dceaa97" x="80.625338" y="60.222894" style="fill: #ff0000; stroke: #ff0000"/>
     <use xlink:href="#ma86dceaa97" x="126.453016" y="60.222894" style="fill: #ff0000; stroke: #ff0000"/>
     <use xlink:href="#ma86dceaa97" x="47.891282" y="60.209763" style="fill: #ff0000; stroke: #ff0000"/>
     <use xlink:href="#ma86dceaa97" x="178.827506" y="6.774621" style="fill: #ff0000; stroke: #ff0000"/>
     <use xlink:href="#ma86dceaa97" x="178.827506" y="21.657139" style="fill: #ff0000; stroke: #ff0000"/>
     <use xlink:href="#ma86dceaa97" x="146.09345" y="21.657139" style="fill: #ff0000; stroke: #ff0000"/>
     <use xlink:href="#ma86dceaa97" x="178.827506" y="28.669094" style="fill: #ff0000; stroke: #ff0000"/>
     <use xlink:href="#ma86dceaa97" x="146.09345" y="28.669094" style="fill: #ff0000; stroke: #ff0000"/>
     <use xlink:href="#ma86dceaa97" x="178.827506" y="39.200159" style="fill: #ff0000; stroke: #ff0000"/>
     <use xlink:href="#ma86dceaa97" x="80.625338" y="39.187028" style="fill: #ff0000; stroke: #ff0000"/>
     <use xlink:href="#ma86dceaa97" x="126.453016" y="39.200159" style="fill: #ff0000; stroke: #ff0000"/>
     <use xlink:href="#ma86dceaa97" x="126.453016" y="39.200159" style="fill: #ff0000; stroke: #ff0000"/>
     <use xlink:href="#ma86dceaa97" x="139.546639" y="39.200159" style="fill: #ff0000; stroke: #ff0000"/>
     <use xlink:href="#ma86dceaa97" x="139.546639" y="39.200159" style="fill: #ff0000; stroke: #ff0000"/>
     <use xlink:href="#ma86dceaa97" x="159.187072" y="39.200159" style="fill: #ff0000; stroke: #ff0000"/>
     <use xlink:href="#ma86dceaa97" x="159.187072" y="39.200159" style="fill: #ff0000; stroke: #ff0000"/>
     <use xlink:href="#ma86dceaa97" x="113.359394" y="29.081562" style="fill: #ff0000; stroke: #ff0000"/>
     <use xlink:href="#ma86dceaa97" x="113.359394" y="39.200159" style="fill: #ff0000; stroke: #ff0000"/>
     <use xlink:href="#ma86dceaa97" x="113.359394" y="39.187028" style="fill: #ff0000; stroke: #ff0000"/>
     <use xlink:href="#ma86dceaa97" x="113.359394" y="39.187028" style="fill: #ff0000; stroke: #ff0000"/>
     <use xlink:href="#ma86dceaa97" x="113.359394" y="60.222894" style="fill: #ff0000; stroke: #ff0000"/>
     <use xlink:href="#ma86dceaa97" x="113.359394" y="60.222894" style="fill: #ff0000; stroke: #ff0000"/>
     <use xlink:href="#ma86dceaa97" x="67.531715" y="49.704961" style="fill: #ff0000; stroke: #ff0000"/>
     <use xlink:href="#ma86dceaa97" x="159.187072" y="49.704961" style="fill: #ff0000; stroke: #ff0000"/>
     <use xlink:href="#ma86dceaa97" x="47.891282" y="49.704961" style="fill: #ff0000; stroke: #ff0000"/>
     <use xlink:href="#ma86dceaa97" x="106.812583" y="49.704961" style="fill: #ff0000; stroke: #ff0000"/>
     <use xlink:href="#ma86dceaa97" x="100.265771" y="49.704961" style="fill: #ff0000; stroke: #ff0000"/>
     <use xlink:href="#ma86dceaa97" x="87.172149" y="49.704961" style="fill: #ff0000; stroke: #ff0000"/>
     <use xlink:href="#ma86dceaa97" x="178.827506" y="49.704961" style="fill: #ff0000; stroke: #ff0000"/>
     <use xlink:href="#ma86dceaa97" x="119.906205" y="49.704961" style="fill: #ff0000; stroke: #ff0000"/>
     <use xlink:href="#ma86dceaa97" x="126.453016" y="49.704961" style="fill: #ff0000; stroke: #ff0000"/>
     <use xlink:href="#ma86dceaa97" x="139.546639" y="49.704961" style="fill: #ff0000; stroke: #ff0000"/>
     <use xlink:href="#ma86dceaa97" x="126.453016" y="49.704961" style="fill: #ff0000; stroke: #ff0000"/>
     <use xlink:href="#ma86dceaa97" x="139.546639" y="49.704961" style="fill: #ff0000; stroke: #ff0000"/>
     <use xlink:href="#ma86dceaa97" x="159.187072" y="49.704961" style="fill: #ff0000; stroke: #ff0000"/>
     <use xlink:href="#ma86dceaa97" x="87.172149" y="49.704961" style="fill: #ff0000; stroke: #ff0000"/>
     <use xlink:href="#ma86dceaa97" x="87.172149" y="49.704961" style="fill: #ff0000; stroke: #ff0000"/>
     <use xlink:href="#ma86dceaa97" x="139.546639" y="49.704961" style="fill: #ff0000; stroke: #ff0000"/>
     <use xlink:href="#ma86dceaa97" x="139.546639" y="49.704961" style="fill: #ff0000; stroke: #ff0000"/>
     <use xlink:href="#ma86dceaa97" x="113.359394" y="49.704961" style="fill: #ff0000; stroke: #ff0000"/>
     <use xlink:href="#ma86dceaa97" x="113.359394" y="49.704961" style="fill: #ff0000; stroke: #ff0000"/>
     <use xlink:href="#ma86dceaa97" x="113.359394" y="49.704961" style="fill: #ff0000; stroke: #ff0000"/>
     <use xlink:href="#ma86dceaa97" x="113.359394" y="49.704961" style="fill: #ff0000; stroke: #ff0000"/>
     <use xlink:href="#ma86dceaa97" x="113.359394" y="49.704961" style="fill: #ff0000; stroke: #ff0000"/>
     <use xlink:href="#ma86dceaa97" x="113.359394" y="49.704961" style="fill: #ff0000; stroke: #ff0000"/>
     <use xlink:href="#ma86dceaa97" x="113.359394" y="49.704961" style="fill: #ff0000; stroke: #ff0000"/>
     <use xlink:href="#ma86dceaa97" x="113.359394" y="49.704961" style="fill: #ff0000; stroke: #ff0000"/>
     <use xlink:href="#ma86dceaa97" x="113.359394" y="49.704961" style="fill: #ff0000; stroke: #ff0000"/>
     <use xlink:href="#ma86dceaa97" x="113.359394" y="49.704961" style="fill: #ff0000; stroke: #ff0000"/>
     <use xlink:href="#ma86dceaa97" x="113.359394" y="49.704961" style="fill: #ff0000; stroke: #ff0000"/>
     <use xlink:href="#ma86dceaa97" x="113.359394" y="49.704961" style="fill: #ff0000; stroke: #ff0000"/>
     <use xlink:href="#ma86dceaa97" x="113.359394" y="49.704961" style="fill: #ff0000; stroke: #ff0000"/>
     <use xlink:href="#ma86dceaa97" x="113.359394" y="49.704961" style="fill: #ff0000; stroke: #ff0000"/>
     <use xlink:href="#ma86dceaa97" x="113.359394" y="49.704961" style="fill: #ff0000; stroke: #ff0000"/>
     <use xlink:href="#ma86dceaa97" x="113.359394" y="49.704961" style="fill: #ff0000; stroke: #ff0000"/>
     <use xlink:href="#ma86dceaa97" x="113.359394" y="49.704961" style="fill: #ff0000; stroke: #ff0000"/>
     <use xlink:href="#ma86dceaa97" x="113.359394" y="49.704961" style="fill: #ff0000; stroke: #ff0000"/>
     <use xlink:href="#ma86dceaa97" x="113.359394" y="49.704961" style="fill: #ff0000; stroke: #ff0000"/>
     <use xlink:href="#ma86dceaa97" x="113.359394" y="49.704961" style="fill: #ff0000; stroke: #ff0000"/>
     <use xlink:href="#ma86dceaa97" x="113.359394" y="49.704961" style="fill: #ff0000; stroke: #ff0000"/>
     <use xlink:href="#ma86dceaa97" x="113.359394" y="49.704961" style="fill: #ff0000; stroke: #ff0000"/>
     <use xlink:href="#ma86dceaa97" x="113.359394" y="49.704961" style="fill: #ff0000; stroke: #ff0000"/>
     <use xlink:href="#ma86dceaa97" x="113.359394" y="49.704961" style="fill: #ff0000; stroke: #ff0000"/>
     <use xlink:href="#ma86dceaa97" x="113.359394" y="49.704961" style="fill: #ff0000; stroke: #ff0000"/>
    </g>
   </g>
   <g id="line2d_13">
    <defs>
     <path id="m15076b0c88" d="M 0 0.75 
C 0.198902 0.75 0.389685 0.670975 0.53033 0.53033 
C 0.670975 0.389685 0.75 0.198902 0.75 0 
C 0.75 -0.198902 0.670975 -0.389685 0.53033 -0.53033 
C 0.389685 -0.670975 0.198902 -0.75 0 -0.75 
C -0.198902 -0.75 -0.389685 -0.670975 -0.53033 -0.53033 
C -0.670975 -0.389685 -0.75 -0.198902 -0.75 0 
C -0.75 0.198902 -0.670975 0.389685 -0.53033 0.53033 
C -0.389685 0.670975 -0.198902 0.75 0 0.75 
z
" style="stroke: #008000"/>
    </defs>
    <g clip-path="url(#p16fd1c1cd7)">
     <use xlink:href="#m15076b0c88" x="178.995759" y="30.943083" style="fill: #008000; stroke: #008000"/>
     <use xlink:href="#m15076b0c88" x="182.680959" y="21.54629" style="fill: #008000; stroke: #008000"/>
     <use xlink:href="#m15076b0c88" x="98.733883" y="42.069358" style="fill: #008000; stroke: #008000"/>
     <use xlink:href="#m15076b0c88" x="46.67292" y="71.529283" style="fill: #008000; stroke: #008000"/>
     <use xlink:href="#m15076b0c88" x="151.118389" y="25.642432" style="fill: #008000; stroke: #008000"/>
     <use xlink:href="#m15076b0c88" x="52.435816" y="81.994557" style="fill: #008000; stroke: #008000"/>
     <use xlink:href="#m15076b0c88" x="85.112522" y="74.176362" style="fill: #008000; stroke: #008000"/>
     <use xlink:href="#m15076b0c88" x="70.910721" y="64.085207" style="fill: #008000; stroke: #008000"/>
     <use xlink:href="#m15076b0c88" x="159.337649" y="35.278556" style="fill: #008000; stroke: #008000"/>
     <use xlink:href="#m15076b0c88" x="69.467215" y="71.321582" style="fill: #008000; stroke: #008000"/>
     <use xlink:href="#m15076b0c88" x="161.59224" y="23.123802" style="fill: #008000; stroke: #008000"/>
     <use xlink:href="#m15076b0c88" x="138.471587" y="39.540251" style="fill: #008000; stroke: #008000"/>
     <use xlink:href="#m15076b0c88" x="138.310666" y="33.943362" style="fill: #008000; stroke: #008000"/>
     <use xlink:href="#m15076b0c88" x="131.07716" y="29.734376" style="fill: #008000; stroke: #008000"/>
     <use xlink:href="#m15076b0c88" x="122.658092" y="39.259799" style="fill: #008000; stroke: #008000"/>
    </g>
   </g>
   <g id="patch_3">
    <path d="M 37.758834 86.036625 
L 37.758834 3.00024 
" style="fill: none; stroke: #000000; stroke-linejoin: miter; stroke-linecap: square"/>
   </g>
   <g id="patch_4">
    <path d="M 37.758834 86.036625 
L 191.3094 86.036625 
" style="fill: none; stroke: #000000; stroke-linejoin: miter; stroke-linecap: square"/>
   </g>
   <g id="legend_1">
    <g id="line2d_14">
     <path d="M 44.058834 12.169146 
L 51.058834 12.169146 
L 58.058834 12.169146 
" style="fill: none; stroke: #0000ff; stroke-width: 0.4; stroke-linecap: round"/>
    </g>
    <g id="text_12">
     <!-- zigzag 10/10 -->
     <g style="fill: #262626" transform="translate(63.658834 14.619146) scale(0.07 -0.07)">
      <defs>
       <path id="DejaVuSerif-7a" d="M 256 0 
L 256 269 
L 2338 2988 
L 691 2988 
L 691 2413 
L 359 2413 
L 359 3322 
L 3078 3322 
L 3078 3053 
L 997 331 
L 2803 331 
L 2803 934 
L 3138 934 
L 3138 0 
L 256 0 
z
" transform="scale(0.015625)"/>
      </defs>
      <use xlink:href="#DejaVuSerif-7a"/>
      <use xlink:href="#DejaVuSerif-69" x="52.685547"/>
      <use xlink:href="#DejaVuSerif-67" x="84.667969"/>
      <use xlink:href="#DejaVuSerif-7a" x="148.681641"/>
      <use xlink:href="#DejaVuSerif-61" x="201.367188"/>
      <use xlink:href="#DejaVuSerif-67" x="260.986328"/>
      <use xlink:href="#DejaVuSerif-20" x="325"/>
      <use xlink:href="#DejaVuSerif-31" x="356.787109"/>
      <use xlink:href="#DejaVuSerif-30" x="420.410156"/>
      <use xlink:href="#DejaVuSerif-2f" x="484.033203"/>
      <use xlink:href="#DejaVuSerif-31" x="517.724609"/>
      <use xlink:href="#DejaVuSerif-30" x="581.347656"/>
     </g>
    </g>
    <g id="line2d_15">
     <path d="M 44.058834 22.543365 
L 51.058834 22.543365 
L 58.058834 22.543365 
" style="fill: none; stroke: #bf00bf; stroke-width: 0.4; stroke-linecap: round"/>
    </g>
    <g id="text_13">
     <!-- zigzag 20/20 -->
     <g style="fill: #262626" transform="translate(63.658834 24.993365) scale(0.07 -0.07)">
      <defs>
       <path id="DejaVuSerif-32" d="M 819 3553 
L 469 3553 
L 469 4384 
Q 803 4563 1142 4656 
Q 1481 4750 1806 4750 
Q 2534 4750 2956 4397 
Q 3378 4044 3378 3438 
Q 3378 2753 2422 1800 
Q 2347 1728 2309 1691 
L 1131 513 
L 3078 513 
L 3078 1088 
L 3444 1088 
L 3444 0 
L 434 0 
L 434 341 
L 1850 1753 
Q 2319 2222 2519 2614 
Q 2719 3006 2719 3438 
Q 2719 3909 2473 4175 
Q 2228 4441 1797 4441 
Q 1350 4441 1106 4219 
Q 863 3997 819 3553 
z
" transform="scale(0.015625)"/>
      </defs>
      <use xlink:href="#DejaVuSerif-7a"/>
      <use xlink:href="#DejaVuSerif-69" x="52.685547"/>
      <use xlink:href="#DejaVuSerif-67" x="84.667969"/>
      <use xlink:href="#DejaVuSerif-7a" x="148.681641"/>
      <use xlink:href="#DejaVuSerif-61" x="201.367188"/>
      <use xlink:href="#DejaVuSerif-67" x="260.986328"/>
      <use xlink:href="#DejaVuSerif-20" x="325"/>
      <use xlink:href="#DejaVuSerif-32" x="356.787109"/>
      <use xlink:href="#DejaVuSerif-30" x="420.410156"/>
      <use xlink:href="#DejaVuSerif-2f" x="484.033203"/>
      <use xlink:href="#DejaVuSerif-32" x="517.724609"/>
      <use xlink:href="#DejaVuSerif-30" x="581.347656"/>
     </g>
    </g>
    <g id="line2d_16">
     <g>
      <use xlink:href="#ma86dceaa97" x="51.058834" y="32.917584" style="fill: #ff0000; stroke: #ff0000"/>
     </g>
    </g>
    <g id="text_14">
     <!-- VCT -->
     <g style="fill: #262626" transform="translate(63.658834 35.367584) scale(0.07 -0.07)">
      <defs>
       <path id="DejaVuSerif-56" d="M 1119 4331 
L 2497 750 
L 3872 4331 
L 3347 4331 
L 3347 4666 
L 4716 4666 
L 4716 4331 
L 4263 4331 
L 2597 0 
L 2059 0 
L 403 4331 
L -63 4331 
L -63 4666 
L 1638 4666 
L 1638 4331 
L 1119 4331 
z
" transform="scale(0.015625)"/>
       <path id="DejaVuSerif-43" d="M 4513 1234 
Q 4306 581 3820 245 
Q 3334 -91 2591 -91 
Q 2134 -91 1743 65 
Q 1353 222 1050 525 
Q 700 875 529 1320 
Q 359 1766 359 2328 
Q 359 3416 987 4083 
Q 1616 4750 2644 4750 
Q 3025 4750 3456 4650 
Q 3888 4550 4384 4347 
L 4384 3272 
L 4031 3272 
Q 3916 3859 3567 4137 
Q 3219 4416 2591 4416 
Q 1844 4416 1459 3886 
Q 1075 3356 1075 2328 
Q 1075 1303 1459 773 
Q 1844 244 2591 244 
Q 3113 244 3450 492 
Q 3788 741 3938 1234 
L 4513 1234 
z
" transform="scale(0.015625)"/>
       <path id="DejaVuSerif-54" d="M 1222 0 
L 1222 331 
L 1819 331 
L 1819 4294 
L 447 4294 
L 447 3566 
L 63 3566 
L 63 4666 
L 4206 4666 
L 4206 3566 
L 3822 3566 
L 3822 4294 
L 2450 4294 
L 2450 331 
L 3047 331 
L 3047 0 
L 1222 0 
z
" transform="scale(0.015625)"/>
      </defs>
      <use xlink:href="#DejaVuSerif-56"/>
      <use xlink:href="#DejaVuSerif-43" x="72.216797"/>
      <use xlink:href="#DejaVuSerif-54" x="148.730469"/>
     </g>
    </g>
    <g id="line2d_17">
     <g>
      <use xlink:href="#m15076b0c88" x="51.058834" y="43.192271" style="fill: #008000; stroke: #008000"/>
     </g>
    </g>
    <g id="text_15">
     <!-- state VCT -->
     <g style="fill: #262626" transform="translate(63.658834 45.642271) scale(0.07 -0.07)">
      <use xlink:href="#DejaVuSerif-73"/>
      <use xlink:href="#DejaVuSerif-74" x="51.318359"/>
      <use xlink:href="#DejaVuSerif-61" x="91.503906"/>
      <use xlink:href="#DejaVuSerif-74" x="151.123047"/>
      <use xlink:href="#DejaVuSerif-65" x="191.308594"/>
      <use xlink:href="#DejaVuSerif-20" x="250.488281"/>
      <use xlink:href="#DejaVuSerif-56" x="282.275391"/>
      <use xlink:href="#DejaVuSerif-43" x="354.492188"/>
      <use xlink:href="#DejaVuSerif-54" x="431.005859"/>
     </g>
    </g>
   </g>
  </g>
 </g>
 <defs>
  <clipPath id="p16fd1c1cd7">
   <rect x="37.758834" y="3.00024" width="153.550566" height="83.036384"/>
  </clipPath>
 </defs>
</svg>
