<?xml version="1.0" encoding="utf-8" standalone="no"?>
<!DOCTYPE svg PUBLIC "-//W3C//DTD SVG 1.1//EN"
  "http://www.w3.org/Graphics/SVG/1.1/DTD/svg11.dtd">
<svg xmlns:xlink="http://www.w3.org/1999/xlink" width="194.30964pt" height="109.311552pt" viewBox="0 0 194.30964 109.311552" xmlns="http://www.w3.org/2000/svg" version="1.1">
 <metadata>
  <rdf:RDF xmlns:dc="http://purl.org/dc/elements/1.1/" xmlns:cc="http://creativecommons.org/ns#" xmlns:rdf="http://www.w3.org/1999/02/22-rdf-syntax-ns#">
   <cc:Work>
    <dc:type rdf:resource="http://purl.org/dc/dcmitype/StillImage"/>
    <dc:date>2024-12-17T09:56:09.524069</dc:date>
    <dc:format>image/svg+xml</dc:format>
    <dc:creator>
     <cc:Agent>
      <dc:title>Matplotlib v3.8.2, https://matplotlib.org/</dc:title>
     </cc:Agent>
    </dc:creator>
   </cc:Work>
  </rdf:RDF>
 </metadata>
 <defs>
  <style type="text/css">*{stroke-linejoin: round; stroke-linecap: butt}</style>
 </defs>
 <g id="figure_1">
  <g id="patch_1">
   <path d="M 0 109.311552 
L 194.30964 109.311552 
L 194.30964 0 
L 0 0 
z
" style="fill: #ffffff"/>
  </g>
  <g id="axes_1">
   <g id="patch_2">
    <path d="M 35.547271 86.22975 
L 191.3094 86.22975 
L 191.3094 14.319146 
L 35.547271 14.319146 
z
" style="fill: #ffffff"/>
   </g>
   <g id="matplotlib.axis_1">
    <g id="xtick_1">
     <g id="line2d_1">
      <path d="M 36.229235 86.22975 
L 36.229235 14.319146 
" clip-path="url(#p9325d26d8f)" style="fill: none; stroke: #b0b0b0; stroke-width: 0.1; stroke-linecap: round"/>
     </g>
     <g id="line2d_2"/>
     <g id="text_1">
      <!-- 500 -->
      <g style="fill: #262626" transform="translate(29.54861 95.048656) scale(0.07 -0.07)">
       <defs>
        <path id="DejaVuSerif-35" d="M 3219 4666 
L 3219 4153 
L 1081 4153 
L 1081 2816 
Q 1244 2928 1461 2984 
Q 1678 3041 1947 3041 
Q 2703 3041 3140 2622 
Q 3578 2203 3578 1478 
Q 3578 738 3136 323 
Q 2694 -91 1894 -91 
Q 1572 -91 1234 -12 
Q 897 66 544 225 
L 544 1131 
L 897 1131 
Q 925 688 1179 453 
Q 1434 219 1894 219 
Q 2388 219 2653 544 
Q 2919 869 2919 1478 
Q 2919 2084 2655 2407 
Q 2391 2731 1894 2731 
Q 1613 2731 1398 2631 
Q 1184 2531 1019 2322 
L 750 2322 
L 750 4666 
L 3219 4666 
z
" transform="scale(0.015625)"/>
        <path id="DejaVuSerif-30" d="M 2034 219 
Q 2513 219 2750 744 
Q 2988 1269 2988 2328 
Q 2988 3391 2750 3916 
Q 2513 4441 2034 4441 
Q 1556 4441 1318 3916 
Q 1081 3391 1081 2328 
Q 1081 1269 1318 744 
Q 1556 219 2034 219 
z
M 2034 -91 
Q 1275 -91 848 546 
Q 422 1184 422 2328 
Q 422 3475 848 4112 
Q 1275 4750 2034 4750 
Q 2797 4750 3222 4112 
Q 3647 3475 3647 2328 
Q 3647 1184 3222 546 
Q 2797 -91 2034 -91 
z
" transform="scale(0.015625)"/>
       </defs>
       <use xlink:href="#DejaVuSerif-35"/>
       <use xlink:href="#DejaVuSerif-30" x="63.623047"/>
       <use xlink:href="#DejaVuSerif-30" x="127.246094"/>
      </g>
     </g>
    </g>
    <g id="xtick_2">
     <g id="line2d_3">
      <path d="M 59.182124 86.22975 
L 59.182124 14.319146 
" clip-path="url(#p9325d26d8f)" style="fill: none; stroke: #b0b0b0; stroke-width: 0.1; stroke-linecap: round"/>
     </g>
     <g id="line2d_4"/>
     <g id="text_2">
      <!-- 750 -->
      <g style="fill: #262626" transform="translate(52.501499 95.048656) scale(0.07 -0.07)">
       <defs>
        <path id="DejaVuSerif-37" d="M 3609 4347 
L 1784 0 
L 1319 0 
L 3059 4153 
L 903 4153 
L 903 3578 
L 538 3578 
L 538 4666 
L 3609 4666 
L 3609 4347 
z
" transform="scale(0.015625)"/>
       </defs>
       <use xlink:href="#DejaVuSerif-37"/>
       <use xlink:href="#DejaVuSerif-35" x="63.623047"/>
       <use xlink:href="#DejaVuSerif-30" x="127.246094"/>
      </g>
     </g>
    </g>
    <g id="xtick_3">
     <g id="line2d_5">
      <path d="M 82.135013 86.22975 
L 82.135013 14.319146 
" clip-path="url(#p9325d26d8f)" style="fill: none; stroke: #b0b0b0; stroke-width: 0.1; stroke-linecap: round"/>
     </g>
     <g id="line2d_6"/>
     <g id="text_3">
      <!-- 1000 -->
      <g style="fill: #262626" transform="translate(73.227513 95.048656) scale(0.07 -0.07)">
       <defs>
        <path id="DejaVuSerif-31" d="M 909 0 
L 909 331 
L 1722 331 
L 1722 4213 
L 781 3603 
L 781 4013 
L 1919 4750 
L 2350 4750 
L 2350 331 
L 3163 331 
L 3163 0 
L 909 0 
z
" transform="scale(0.015625)"/>
       </defs>
       <use xlink:href="#DejaVuSerif-31"/>
       <use xlink:href="#DejaVuSerif-30" x="63.623047"/>
       <use xlink:href="#DejaVuSerif-30" x="127.246094"/>
       <use xlink:href="#DejaVuSerif-30" x="190.869141"/>
      </g>
     </g>
    </g>
    <g id="xtick_4">
     <g id="line2d_7">
      <path d="M 105.087902 86.22975 
L 105.087902 14.319146 
" clip-path="url(#p9325d26d8f)" style="fill: none; stroke: #b0b0b0; stroke-width: 0.1; stroke-linecap: round"/>
     </g>
     <g id="line2d_8"/>
     <g id="text_4">
      <!-- 1250 -->
      <g style="fill: #262626" transform="translate(96.180402 95.048656) scale(0.07 -0.07)">
       <defs>
        <path id="DejaVuSerif-32" d="M 819 3553 
L 469 3553 
L 469 4384 
Q 803 4563 1142 4656 
Q 1481 4750 1806 4750 
Q 2534 4750 2956 4397 
Q 3378 4044 3378 3438 
Q 3378 2753 2422 1800 
Q 2347 1728 2309 1691 
L 1131 513 
L 3078 513 
L 3078 1088 
L 3444 1088 
L 3444 0 
L 434 0 
L 434 341 
L 1850 1753 
Q 2319 2222 2519 2614 
Q 2719 3006 2719 3438 
Q 2719 3909 2473 4175 
Q 2228 4441 1797 4441 
Q 1350 4441 1106 4219 
Q 863 3997 819 3553 
z
" transform="scale(0.015625)"/>
       </defs>
       <use xlink:href="#DejaVuSerif-31"/>
       <use xlink:href="#DejaVuSerif-32" x="63.623047"/>
       <use xlink:href="#DejaVuSerif-35" x="127.246094"/>
       <use xlink:href="#DejaVuSerif-30" x="190.869141"/>
      </g>
     </g>
    </g>
    <g id="xtick_5">
     <g id="line2d_9">
      <path d="M 128.040791 86.22975 
L 128.040791 14.319146 
" clip-path="url(#p9325d26d8f)" style="fill: none; stroke: #b0b0b0; stroke-width: 0.1; stroke-linecap: round"/>
     </g>
     <g id="line2d_10"/>
     <g id="text_5">
      <!-- 1500 -->
      <g style="fill: #262626" transform="translate(119.133291 95.048656) scale(0.07 -0.07)">
       <use xlink:href="#DejaVuSerif-31"/>
       <use xlink:href="#DejaVuSerif-35" x="63.623047"/>
       <use xlink:href="#DejaVuSerif-30" x="127.246094"/>
       <use xlink:href="#DejaVuSerif-30" x="190.869141"/>
      </g>
     </g>
    </g>
    <g id="xtick_6">
     <g id="line2d_11">
      <path d="M 150.99368 86.22975 
L 150.99368 14.319146 
" clip-path="url(#p9325d26d8f)" style="fill: none; stroke: #b0b0b0; stroke-width: 0.1; stroke-linecap: round"/>
     </g>
     <g id="line2d_12"/>
     <g id="text_6">
      <!-- 1750 -->
      <g style="fill: #262626" transform="translate(142.08618 95.048656) scale(0.07 -0.07)">
       <use xlink:href="#DejaVuSerif-31"/>
       <use xlink:href="#DejaVuSerif-37" x="63.623047"/>
       <use xlink:href="#DejaVuSerif-35" x="127.246094"/>
       <use xlink:href="#DejaVuSerif-30" x="190.869141"/>
      </g>
     </g>
    </g>
    <g id="xtick_7">
     <g id="line2d_13">
      <path d="M 173.94657 86.22975 
L 173.94657 14.319146 
" clip-path="url(#p9325d26d8f)" style="fill: none; stroke: #b0b0b0; stroke-width: 0.1; stroke-linecap: round"/>
     </g>
     <g id="line2d_14"/>
     <g id="text_7">
      <!-- 2000 -->
      <g style="fill: #262626" transform="translate(165.03907 95.048656) scale(0.07 -0.07)">
       <use xlink:href="#DejaVuSerif-32"/>
       <use xlink:href="#DejaVuSerif-30" x="63.623047"/>
       <use xlink:href="#DejaVuSerif-30" x="127.246094"/>
       <use xlink:href="#DejaVuSerif-30" x="190.869141"/>
      </g>
     </g>
    </g>
    <g id="text_8">
     <!-- $x_0$ $[m]$ -->
     <g style="fill: #262626" transform="translate(104.008336 105.0635) scale(0.06 -0.06)">
      <defs>
       <path id="DejaVuSans-Oblique-78" d="M 3841 3500 
L 2234 1784 
L 3219 0 
L 2559 0 
L 1819 1388 
L 531 0 
L -166 0 
L 1556 1844 
L 641 3500 
L 1300 3500 
L 1972 2234 
L 3144 3500 
L 3841 3500 
z
" transform="scale(0.015625)"/>
       <path id="DejaVuSans-30" d="M 2034 4250 
Q 1547 4250 1301 3770 
Q 1056 3291 1056 2328 
Q 1056 1369 1301 889 
Q 1547 409 2034 409 
Q 2525 409 2770 889 
Q 3016 1369 3016 2328 
Q 3016 3291 2770 3770 
Q 2525 4250 2034 4250 
z
M 2034 4750 
Q 2819 4750 3233 4129 
Q 3647 3509 3647 2328 
Q 3647 1150 3233 529 
Q 2819 -91 2034 -91 
Q 1250 -91 836 529 
Q 422 1150 422 2328 
Q 422 3509 836 4129 
Q 1250 4750 2034 4750 
z
" transform="scale(0.015625)"/>
       <path id="DejaVuSerif-20" transform="scale(0.015625)"/>
       <path id="DejaVuSans-5b" d="M 550 4863 
L 1875 4863 
L 1875 4416 
L 1125 4416 
L 1125 -397 
L 1875 -397 
L 1875 -844 
L 550 -844 
L 550 4863 
z
" transform="scale(0.015625)"/>
       <path id="DejaVuSans-Oblique-6d" d="M 5747 2113 
L 5338 0 
L 4763 0 
L 5166 2094 
Q 5191 2228 5203 2325 
Q 5216 2422 5216 2491 
Q 5216 2772 5059 2928 
Q 4903 3084 4622 3084 
Q 4203 3084 3875 2770 
Q 3547 2456 3450 1953 
L 3066 0 
L 2491 0 
L 2900 2094 
Q 2925 2209 2937 2307 
Q 2950 2406 2950 2484 
Q 2950 2769 2794 2926 
Q 2638 3084 2363 3084 
Q 1938 3084 1609 2770 
Q 1281 2456 1184 1953 
L 800 0 
L 225 0 
L 909 3500 
L 1484 3500 
L 1375 2956 
Q 1609 3263 1923 3423 
Q 2238 3584 2597 3584 
Q 2978 3584 3223 3384 
Q 3469 3184 3519 2828 
Q 3781 3197 4126 3390 
Q 4472 3584 4856 3584 
Q 5306 3584 5551 3325 
Q 5797 3066 5797 2591 
Q 5797 2488 5784 2364 
Q 5772 2241 5747 2113 
z
" transform="scale(0.015625)"/>
       <path id="DejaVuSans-5d" d="M 1947 4863 
L 1947 -844 
L 622 -844 
L 622 -397 
L 1369 -397 
L 1369 4416 
L 622 4416 
L 622 4863 
L 1947 4863 
z
" transform="scale(0.015625)"/>
      </defs>
      <use xlink:href="#DejaVuSans-Oblique-78" transform="translate(0 0.015625)"/>
      <use xlink:href="#DejaVuSans-30" transform="translate(59.179688 -16.390625) scale(0.7)"/>
      <use xlink:href="#DejaVuSerif-20" transform="translate(106.450195 0.015625)"/>
      <use xlink:href="#DejaVuSans-5b" transform="translate(138.237305 0.015625)"/>
      <use xlink:href="#DejaVuSans-Oblique-6d" transform="translate(177.250977 0.015625)"/>
      <use xlink:href="#DejaVuSans-5d" transform="translate(274.663086 0.015625)"/>
     </g>
    </g>
   </g>
   <g id="matplotlib.axis_2">
    <g id="ytick_1">
     <g id="line2d_15">
      <path d="M 35.547271 68.570562 
L 191.3094 68.570562 
" clip-path="url(#p9325d26d8f)" style="fill: none; stroke: #b0b0b0; stroke-width: 0.1; stroke-linecap: round"/>
     </g>
     <g id="line2d_16"/>
     <g id="text_9">
      <!-- −200 -->
      <g style="fill: #262626" transform="translate(12.82024 71.230015) scale(0.07 -0.07)">
       <defs>
        <path id="DejaVuSerif-2212" d="M 678 2259 
L 4684 2259 
L 4684 1753 
L 678 1753 
L 678 2259 
z
" transform="scale(0.015625)"/>
       </defs>
       <use xlink:href="#DejaVuSerif-2212"/>
       <use xlink:href="#DejaVuSerif-32" x="83.789062"/>
       <use xlink:href="#DejaVuSerif-30" x="147.412109"/>
       <use xlink:href="#DejaVuSerif-30" x="211.035156"/>
      </g>
     </g>
    </g>
    <g id="ytick_2">
     <g id="line2d_17">
      <path d="M 35.547271 50.20825 
L 191.3094 50.20825 
" clip-path="url(#p9325d26d8f)" style="fill: none; stroke: #b0b0b0; stroke-width: 0.1; stroke-linecap: round"/>
     </g>
     <g id="line2d_18"/>
     <g id="text_10">
      <!-- 0 -->
      <g style="fill: #262626" transform="translate(27.593521 52.867704) scale(0.07 -0.07)">
       <use xlink:href="#DejaVuSerif-30"/>
      </g>
     </g>
    </g>
    <g id="ytick_3">
     <g id="line2d_19">
      <path d="M 35.547271 31.845939 
L 191.3094 31.845939 
" clip-path="url(#p9325d26d8f)" style="fill: none; stroke: #b0b0b0; stroke-width: 0.1; stroke-linecap: round"/>
     </g>
     <g id="line2d_20"/>
     <g id="text_11">
      <!-- 200 -->
      <g style="fill: #262626" transform="translate(18.686021 34.505392) scale(0.07 -0.07)">
       <use xlink:href="#DejaVuSerif-32"/>
       <use xlink:href="#DejaVuSerif-30" x="63.623047"/>
       <use xlink:href="#DejaVuSerif-30" x="127.246094"/>
      </g>
     </g>
    </g>
    <g id="text_12">
     <!-- $y_0$ $[m]$ -->
     <g style="fill: #262626" transform="translate(7.56024 59.694448) rotate(-90) scale(0.06 -0.06)">
      <defs>
       <path id="DejaVuSans-Oblique-79" d="M 1588 -325 
Q 1188 -997 936 -1164 
Q 684 -1331 294 -1331 
L -159 -1331 
L -63 -850 
L 269 -850 
Q 509 -850 678 -719 
Q 847 -588 1056 -206 
L 1234 128 
L 459 3500 
L 1069 3500 
L 1650 819 
L 3256 3500 
L 3859 3500 
L 1588 -325 
z
" transform="scale(0.015625)"/>
      </defs>
      <use xlink:href="#DejaVuSans-Oblique-79" transform="translate(0 0.015625)"/>
      <use xlink:href="#DejaVuSans-30" transform="translate(59.179688 -16.390625) scale(0.7)"/>
      <use xlink:href="#DejaVuSerif-20" transform="translate(106.450195 0.015625)"/>
      <use xlink:href="#DejaVuSans-5b" transform="translate(138.237305 0.015625)"/>
      <use xlink:href="#DejaVuSans-Oblique-6d" transform="translate(177.250977 0.015625)"/>
      <use xlink:href="#DejaVuSans-5d" transform="translate(274.663086 0.015625)"/>
     </g>
    </g>
   </g>
   <g id="line2d_21">
    <path d="M 51.700465 50.09524 
L 59.08739 46.494454 
L 63.308797 44.691196 
L 66.98526 43.359449 
L 70.410725 42.353475 
L 73.67356 41.623945 
L 76.866476 41.135776 
L 80.029269 40.877492 
L 83.145754 40.844585 
L 86.256819 41.031402 
L 89.403498 41.441994 
L 92.625851 42.089271 
L 95.908222 42.976346 
L 99.344731 44.135966 
L 103.079156 45.63404 
L 107.458709 47.640498 
L 114.813823 51.306821 
L 120.741778 54.1493 
L 124.868839 55.884666 
L 128.500124 57.174498 
L 131.877432 58.143099 
L 135.144933 58.85139 
L 138.341164 59.317309 
L 141.505742 59.55268 
L 144.622384 59.562696 
L 147.732011 59.353245 
L 150.875727 58.920511 
L 154.09373 58.251901 
L 157.424836 57.32825 
L 160.907241 56.127629 
L 164.68517 54.585934 
L 169.209217 52.486744 
L 175.749491 49.218402 
L 175.749491 49.218402 
" clip-path="url(#p9325d26d8f)" style="fill: none; stroke: #2a2eec; stroke-width: 0.4; stroke-linecap: round"/>
   </g>
   <g id="patch_3">
    <path d="M 35.547271 86.229749 
L 35.547271 14.319146 
" style="fill: none; stroke: #000000; stroke-linejoin: miter; stroke-linecap: square"/>
   </g>
   <g id="patch_4">
    <path d="M 35.547271 86.22975 
L 191.3094 86.22975 
" style="fill: none; stroke: #000000; stroke-linejoin: miter; stroke-linecap: square"/>
   </g>
   <g id="text_13">
    <!-- Track plot -->
    <g style="fill: #262626" transform="translate(95.267164 8.319146) scale(0.07 -0.07)">
     <defs>
      <path id="DejaVuSerif-54" d="M 1222 0 
L 1222 331 
L 1819 331 
L 1819 4294 
L 447 4294 
L 447 3566 
L 63 3566 
L 63 4666 
L 4206 4666 
L 4206 3566 
L 3822 3566 
L 3822 4294 
L 2450 4294 
L 2450 331 
L 3047 331 
L 3047 0 
L 1222 0 
z
" transform="scale(0.015625)"/>
      <path id="DejaVuSerif-72" d="M 3059 3328 
L 3059 2497 
L 2728 2497 
Q 2713 2744 2591 2866 
Q 2469 2988 2234 2988 
Q 1809 2988 1582 2694 
Q 1356 2400 1356 1850 
L 1356 331 
L 2022 331 
L 2022 0 
L 263 0 
L 263 331 
L 781 331 
L 781 2994 
L 231 2994 
L 231 3322 
L 1356 3322 
L 1356 2731 
Q 1525 3078 1790 3245 
Q 2056 3413 2438 3413 
Q 2578 3413 2733 3391 
Q 2888 3369 3059 3328 
z
" transform="scale(0.015625)"/>
      <path id="DejaVuSerif-61" d="M 2547 1044 
L 2547 1747 
L 1806 1747 
Q 1378 1747 1168 1562 
Q 959 1378 959 997 
Q 959 650 1171 447 
Q 1384 244 1747 244 
Q 2106 244 2326 466 
Q 2547 688 2547 1044 
z
M 3122 2075 
L 3122 331 
L 3634 331 
L 3634 0 
L 2547 0 
L 2547 359 
Q 2356 128 2106 18 
Q 1856 -91 1522 -91 
Q 969 -91 644 203 
Q 319 497 319 997 
Q 319 1513 691 1797 
Q 1063 2081 1741 2081 
L 2547 2081 
L 2547 2309 
Q 2547 2688 2317 2895 
Q 2088 3103 1672 3103 
Q 1328 3103 1125 2947 
Q 922 2791 872 2484 
L 575 2484 
L 575 3156 
Q 875 3284 1158 3348 
Q 1441 3413 1709 3413 
Q 2400 3413 2761 3070 
Q 3122 2728 3122 2075 
z
" transform="scale(0.015625)"/>
      <path id="DejaVuSerif-63" d="M 3291 997 
Q 3169 466 2822 187 
Q 2475 -91 1925 -91 
Q 1200 -91 759 389 
Q 319 869 319 1663 
Q 319 2459 759 2936 
Q 1200 3413 1925 3413 
Q 2241 3413 2553 3339 
Q 2866 3266 3181 3116 
L 3181 2266 
L 2847 2266 
Q 2781 2703 2561 2903 
Q 2341 3103 1931 3103 
Q 1466 3103 1228 2742 
Q 991 2381 991 1663 
Q 991 944 1227 581 
Q 1463 219 1931 219 
Q 2303 219 2525 412 
Q 2747 606 2828 997 
L 3291 997 
z
" transform="scale(0.015625)"/>
      <path id="DejaVuSerif-6b" d="M 1831 0 
L 219 0 
L 219 331 
L 738 331 
L 738 4531 
L 184 4531 
L 184 4863 
L 1313 4863 
L 1313 1697 
L 2713 2988 
L 2234 2988 
L 2234 3322 
L 3738 3322 
L 3738 2988 
L 3169 2988 
L 2181 2075 
L 3444 331 
L 3922 331 
L 3922 0 
L 2284 0 
L 2284 331 
L 2759 331 
L 1766 1697 
L 1313 1275 
L 1313 331 
L 1831 331 
L 1831 0 
z
" transform="scale(0.015625)"/>
      <path id="DejaVuSerif-70" d="M 1313 1825 
L 1313 1497 
Q 1313 897 1542 583 
Q 1772 269 2209 269 
Q 2650 269 2876 622 
Q 3103 975 3103 1663 
Q 3103 2353 2876 2703 
Q 2650 3053 2209 3053 
Q 1772 3053 1542 2737 
Q 1313 2422 1313 1825 
z
M 738 2988 
L 184 2988 
L 184 3322 
L 1313 3322 
L 1313 2803 
Q 1481 3116 1742 3264 
Q 2003 3413 2388 3413 
Q 3000 3413 3387 2928 
Q 3775 2444 3775 1663 
Q 3775 881 3387 395 
Q 3000 -91 2388 -91 
Q 2003 -91 1742 57 
Q 1481 206 1313 519 
L 1313 -997 
L 1856 -997 
L 1856 -1331 
L 184 -1331 
L 184 -997 
L 738 -997 
L 738 2988 
z
" transform="scale(0.015625)"/>
      <path id="DejaVuSerif-6c" d="M 1313 331 
L 1856 331 
L 1856 0 
L 184 0 
L 184 331 
L 738 331 
L 738 4531 
L 184 4531 
L 184 4863 
L 1313 4863 
L 1313 331 
z
" transform="scale(0.015625)"/>
      <path id="DejaVuSerif-6f" d="M 1925 219 
Q 2388 219 2623 584 
Q 2859 950 2859 1663 
Q 2859 2375 2623 2739 
Q 2388 3103 1925 3103 
Q 1463 3103 1227 2739 
Q 991 2375 991 1663 
Q 991 950 1228 584 
Q 1466 219 1925 219 
z
M 1925 -91 
Q 1200 -91 759 389 
Q 319 869 319 1663 
Q 319 2456 758 2934 
Q 1197 3413 1925 3413 
Q 2653 3413 3092 2934 
Q 3531 2456 3531 1663 
Q 3531 869 3092 389 
Q 2653 -91 1925 -91 
z
" transform="scale(0.015625)"/>
      <path id="DejaVuSerif-74" d="M 691 2988 
L 184 2988 
L 184 3322 
L 691 3322 
L 691 4353 
L 1269 4353 
L 1269 3322 
L 2350 3322 
L 2350 2988 
L 1269 2988 
L 1269 878 
Q 1269 456 1350 337 
Q 1431 219 1650 219 
Q 1875 219 1978 351 
Q 2081 484 2088 781 
L 2522 781 
Q 2497 328 2275 118 
Q 2053 -91 1600 -91 
Q 1103 -91 897 129 
Q 691 350 691 878 
L 691 2988 
z
" transform="scale(0.015625)"/>
     </defs>
     <use xlink:href="#DejaVuSerif-54"/>
     <use xlink:href="#DejaVuSerif-72" x="66.699219"/>
     <use xlink:href="#DejaVuSerif-61" x="114.501953"/>
     <use xlink:href="#DejaVuSerif-63" x="174.121094"/>
     <use xlink:href="#DejaVuSerif-6b" x="230.126953"/>
     <use xlink:href="#DejaVuSerif-20" x="290.722656"/>
     <use xlink:href="#DejaVuSerif-70" x="322.509766"/>
     <use xlink:href="#DejaVuSerif-6c" x="386.523438"/>
     <use xlink:href="#DejaVuSerif-6f" x="418.505859"/>
     <use xlink:href="#DejaVuSerif-74" x="478.710938"/>
    </g>
   </g>
   <g id="line2d_22">
    <path d="M 60.169038 45.825338 
L 58.919165 45.45302 
L 57.8708 45.480356 
L 55.975577 45.934682 
L 44.119575 51.912544 
L 43.33317 52.45943 
L 42.627368 53.166179 
L 43.836416 55.564105 
L 44.824329 55.416873 
L 45.731638 55.109779 
L 57.587641 49.131916 
L 59.079848 47.878282 
L 59.725197 47.051637 
L 60.169038 45.825338 
" clip-path="url(#p9325d26d8f)" style="fill: none; stroke: #0000ff; stroke-opacity: 0.2; stroke-width: 0.4; stroke-linecap: round"/>
   </g>
   <g id="patch_5">
    <path d="M 60.169038 45.825338 
L 58.919165 45.45302 
L 57.8708 45.480356 
L 55.975577 45.934682 
L 44.119575 51.912544 
L 43.33317 52.45943 
L 42.627368 53.166179 
L 43.836416 55.564105 
L 44.824329 55.416873 
L 45.731638 55.109779 
L 57.587641 49.131916 
L 59.079848 47.878282 
L 59.725197 47.051637 
z
" clip-path="url(#p9325d26d8f)" style="fill: #0000ff; opacity: 0.2"/>
   </g>
   <g id="line2d_23">
    <path d="M 73.856545 40.804681 
L 72.658145 40.29025 
L 71.613657 40.196103 
L 69.678597 40.428096 
L 57.210566 44.994042 
L 56.366167 45.446266 
L 55.583333 46.066605 
L 56.506814 48.588316 
L 57.505127 48.556377 
L 58.441875 48.356323 
L 70.909905 43.790378 
L 72.537139 42.717815 
L 73.273799 41.971391 
L 73.856545 40.804681 
" clip-path="url(#p9325d26d8f)" style="fill: none; stroke: #0000ff; stroke-opacity: 0.2; stroke-width: 0.4; stroke-linecap: round"/>
   </g>
   <g id="patch_6">
    <path d="M 73.856545 40.804681 
L 72.658145 40.29025 
L 71.613657 40.196103 
L 69.678597 40.428096 
L 57.210566 44.994042 
L 56.366167 45.446266 
L 55.583333 46.066605 
L 56.506814 48.588316 
L 57.505127 48.556377 
L 58.441875 48.356323 
L 70.909905 43.790378 
L 72.537139 42.717815 
L 73.273799 41.971391 
z
" clip-path="url(#p9325d26d8f)" style="fill: #0000ff; opacity: 0.2"/>
   </g>
   <g id="line2d_24">
    <path d="M 88.587144 40.299838 
L 87.581493 39.469494 
L 86.605504 39.085748 
L 84.683186 38.764852 
L 71.434586 39.644763 
L 70.497156 39.841593 
L 69.57159 40.217062 
L 69.749556 42.896647 
L 70.716647 43.146414 
L 71.671874 43.217543 
L 84.920474 42.337631 
L 86.78347 41.765332 
L 87.700137 41.255884 
L 88.587144 40.299838 
" clip-path="url(#p9325d26d8f)" style="fill: none; stroke: #0000ff; stroke-opacity: 0.2; stroke-width: 0.4; stroke-linecap: round"/>
   </g>
   <g id="patch_7">
    <path d="M 88.587144 40.299838 
L 87.581493 39.469494 
L 86.605504 39.085748 
L 84.683186 38.764852 
L 71.434586 39.644763 
L 70.497156 39.841593 
L 69.57159 40.217062 
L 69.749556 42.896647 
L 70.716647 43.146414 
L 71.671874 43.217543 
L 84.920474 42.337631 
L 86.78347 41.765332 
L 87.700137 41.255884 
z
" clip-path="url(#p9325d26d8f)" style="fill: #0000ff; opacity: 0.2"/>
   </g>
   <g id="line2d_25">
    <path d="M 102.750143 44.668287 
L 102.053001 43.566109 
L 101.244999 42.897566 
L 99.518135 41.994115 
L 86.654077 38.705402 
L 85.701958 38.600584 
L 84.705495 38.66922 
L 84.040339 41.27103 
L 84.881599 41.809483 
L 85.767202 42.174481 
L 98.631261 45.463194 
L 100.579843 45.499375 
L 101.609564 45.300649 
L 102.750143 44.668287 
" clip-path="url(#p9325d26d8f)" style="fill: none; stroke: #0000ff; stroke-opacity: 0.2; stroke-width: 0.4; stroke-linecap: round"/>
   </g>
   <g id="patch_8">
    <path d="M 102.750143 44.668287 
L 102.053001 43.566109 
L 101.244999 42.897566 
L 99.518135 41.994115 
L 86.654077 38.705402 
L 85.701958 38.600584 
L 84.705495 38.66922 
L 84.040339 41.27103 
L 84.881599 41.809483 
L 85.767202 42.174481 
L 98.631261 45.463194 
L 100.579843 45.499375 
L 101.609564 45.300649 
z
" clip-path="url(#p9325d26d8f)" style="fill: #0000ff; opacity: 0.2"/>
   </g>
   <g id="line2d_26">
    <path d="M 115.706203 51.589262 
L 115.237398 50.372289 
L 114.575292 49.559003 
L 113.057782 48.33612 
L 101.08211 42.601758 
L 100.168715 42.313267 
L 99.178 42.186251 
L 98.018201 44.608381 
L 98.738296 45.30056 
L 99.535711 45.831264 
L 111.511383 51.565626 
L 113.415494 51.981133 
L 114.464199 51.987042 
L 115.706203 51.589262 
" clip-path="url(#p9325d26d8f)" style="fill: none; stroke: #0000ff; stroke-opacity: 0.2; stroke-width: 0.4; stroke-linecap: round"/>
   </g>
   <g id="patch_9">
    <path d="M 115.706203 51.589262 
L 115.237398 50.372289 
L 114.575292 49.559003 
L 113.057782 48.33612 
L 101.08211 42.601758 
L 100.168715 42.313267 
L 99.178 42.186251 
L 98.018201 44.608381 
L 98.738296 45.30056 
L 99.535711 45.831264 
L 111.511383 51.565626 
L 113.415494 51.981133 
L 114.464199 51.987042 
z
" clip-path="url(#p9325d26d8f)" style="fill: #0000ff; opacity: 0.2"/>
   </g>
   <g id="line2d_27">
    <path d="M 128.907134 57.872228 
L 128.415385 56.664342 
L 127.73801 55.86373 
L 126.197632 54.66978 
L 114.115601 49.163043 
L 113.196911 48.891887 
L 112.20397 48.78364 
L 111.090209 51.227281 
L 111.823273 51.905711 
L 112.630587 52.421231 
L 124.712618 57.927969 
L 126.624249 58.307372 
L 127.672878 58.293437 
L 128.907134 57.872228 
" clip-path="url(#p9325d26d8f)" style="fill: none; stroke: #0000ff; stroke-opacity: 0.2; stroke-width: 0.4; stroke-linecap: round"/>
   </g>
   <g id="patch_10">
    <path d="M 128.907134 57.872228 
L 128.415385 56.664342 
L 127.73801 55.86373 
L 126.197632 54.66978 
L 114.115601 49.163043 
L 113.196911 48.891887 
L 112.20397 48.78364 
L 111.090209 51.227281 
L 111.823273 51.905711 
L 112.630587 52.421231 
L 124.712618 57.927969 
L 126.624249 58.307372 
L 127.672878 58.293437 
z
" clip-path="url(#p9325d26d8f)" style="fill: #0000ff; opacity: 0.2"/>
   </g>
   <g id="line2d_28">
    <path d="M 143.321868 60.545974 
L 142.573145 59.478164 
L 141.734292 58.848766 
L 139.966453 58.028383 
L 126.960667 55.35459 
L 126.004643 55.295128 
L 125.012567 55.411032 
L 124.471781 58.041506 
L 125.337674 58.53938 
L 126.239619 58.861889 
L 139.245405 61.535683 
L 141.193506 61.479241 
L 142.212621 61.231814 
L 143.321868 60.545974 
" clip-path="url(#p9325d26d8f)" style="fill: none; stroke: #0000ff; stroke-opacity: 0.2; stroke-width: 0.4; stroke-linecap: round"/>
   </g>
   <g id="patch_11">
    <path d="M 143.321868 60.545974 
L 142.573145 59.478164 
L 141.734292 58.848766 
L 139.966453 58.028383 
L 126.960667 55.35459 
L 126.004643 55.295128 
L 125.012567 55.411032 
L 124.471781 58.041506 
L 125.337674 58.53938 
L 126.239619 58.861889 
L 139.245405 61.535683 
L 141.193506 61.479241 
L 142.212621 61.231814 
z
" clip-path="url(#p9325d26d8f)" style="fill: #0000ff; opacity: 0.2"/>
   </g>
   <g id="line2d_29">
    <path d="M 157.937002 58.133792 
L 156.888552 57.358191 
L 155.893508 57.026973 
L 153.956827 56.808921 
L 140.7739 58.393242 
L 139.848284 58.639723 
L 138.944031 59.063957 
L 139.264467 61.73026 
L 140.243488 61.928162 
L 141.201148 61.948312 
L 154.384075 60.36399 
L 156.213944 59.693275 
L 157.102176 59.135726 
L 157.937002 58.133792 
" clip-path="url(#p9325d26d8f)" style="fill: none; stroke: #0000ff; stroke-opacity: 0.2; stroke-width: 0.4; stroke-linecap: round"/>
   </g>
   <g id="patch_12">
    <path d="M 157.937002 58.133792 
L 156.888552 57.358191 
L 155.893508 57.026973 
L 153.956827 56.808921 
L 140.7739 58.393242 
L 139.848284 58.639723 
L 138.944031 59.063957 
L 139.264467 61.73026 
L 140.243488 61.928162 
L 141.201148 61.948312 
L 154.384075 60.36399 
L 156.213944 59.693275 
L 157.102176 59.135726 
z
" clip-path="url(#p9325d26d8f)" style="fill: #0000ff; opacity: 0.2"/>
   </g>
   <g id="line2d_30">
    <path d="M 171.335374 51.930665 
L 170.120449 51.456574 
L 169.073399 51.397388 
L 167.147173 51.693923 
L 154.838708 56.674016 
L 154.009894 57.154209 
L 153.24823 57.800364 
L 154.255474 60.289803 
L 155.252162 60.224516 
L 156.181701 59.993267 
L 168.490166 55.013175 
L 170.080644 53.886827 
L 170.791946 53.116199 
L 171.335374 51.930665 
" clip-path="url(#p9325d26d8f)" style="fill: none; stroke: #0000ff; stroke-opacity: 0.2; stroke-width: 0.4; stroke-linecap: round"/>
   </g>
   <g id="patch_13">
    <path d="M 171.335374 51.930665 
L 170.120449 51.456574 
L 169.073399 51.397388 
L 167.147173 51.693923 
L 154.838708 56.674016 
L 154.009894 57.154209 
L 153.24823 57.800364 
L 154.255474 60.289803 
L 155.252162 60.224516 
L 156.181701 59.993267 
L 168.490166 55.013175 
L 170.080644 53.886827 
L 170.791946 53.116199 
z
" clip-path="url(#p9325d26d8f)" style="fill: #0000ff; opacity: 0.2"/>
   </g>
   <g id="line2d_31">
    <path d="M 184.229303 44.970864 
L 182.980417 44.595248 
L 181.931983 44.619817 
L 180.035568 45.06914 
L 168.163831 51.015693 
L 167.375986 51.560503 
L 166.668321 52.265386 
L 167.871037 54.666494 
L 168.859335 54.52187 
L 169.767452 54.217171 
L 181.639189 48.270618 
L 183.134698 47.020925 
L 183.782227 46.195987 
L 184.229303 44.970864 
" clip-path="url(#p9325d26d8f)" style="fill: none; stroke: #ff0000; stroke-opacity: 0.2; stroke-width: 0.4; stroke-linecap: round"/>
   </g>
   <g id="patch_14">
    <path d="M 184.229303 44.970864 
L 182.980417 44.595248 
L 181.931983 44.619817 
L 180.035568 45.06914 
L 168.163831 51.015693 
L 167.375986 51.560503 
L 166.668321 52.265386 
L 167.871037 54.666494 
L 168.859335 54.52187 
L 169.767452 54.217171 
L 181.639189 48.270618 
L 183.134698 47.020925 
L 183.782227 46.195987 
z
" clip-path="url(#p9325d26d8f)" style="fill: #ff0000; opacity: 0.2"/>
   </g>
  </g>
 </g>
 <defs>
  <clipPath id="p9325d26d8f">
   <rect x="35.547271" y="14.319146" width="155.762129" height="71.910603"/>
  </clipPath>
 </defs>
</svg>
