<?xml version="1.0" encoding="utf-8" standalone="no"?>
<!DOCTYPE svg PUBLIC "-//W3C//DTD SVG 1.1//EN"
  "http://www.w3.org/Graphics/SVG/1.1/DTD/svg11.dtd">
<svg xmlns:xlink="http://www.w3.org/1999/xlink" width="198pt" height="136.8pt" viewBox="0 0 198 136.8" xmlns="http://www.w3.org/2000/svg" version="1.1">
 <metadata>
  <rdf:RDF xmlns:dc="http://purl.org/dc/elements/1.1/" xmlns:cc="http://creativecommons.org/ns#" xmlns:rdf="http://www.w3.org/1999/02/22-rdf-syntax-ns#">
   <cc:Work>
    <dc:type rdf:resource="http://purl.org/dc/dcmitype/StillImage"/>
    <dc:date>2024-02-12T15:26:05.397239</dc:date>
    <dc:format>image/svg+xml</dc:format>
    <dc:creator>
     <cc:Agent>
      <dc:title>Matplotlib v3.8.2, https://matplotlib.org/</dc:title>
     </cc:Agent>
    </dc:creator>
   </cc:Work>
  </rdf:RDF>
 </metadata>
 <defs>
  <style type="text/css">*{stroke-linejoin: round; stroke-linecap: butt}</style>
 </defs>
 <g id="figure_1">
  <g id="patch_1">
   <path d="M 0 136.8 
L 198 136.8 
L 198 0 
L 0 0 
z
" style="fill: #ffffff"/>
  </g>
  <g id="axes_1">
   <g id="patch_2">
    <path d="M 41.065084 108.589447 
L 194.99976 108.589447 
L 194.99976 3.00024 
L 41.065084 3.00024 
z
" style="fill: #ffffff"/>
   </g>
   <g id="line2d_1">
    <path d="M -1 56.105053 
L 199 56.105053 
" clip-path="url(#p4602d9aeb4)" style="fill: none; stroke: #000000; stroke-width: 0.5; stroke-linecap: round"/>
   </g>
   <g id="line2d_2">
    <path d="M 117.160233 137.8 
L 117.160233 -1 
" clip-path="url(#p4602d9aeb4)" style="fill: none; stroke: #000000; stroke-width: 0.5; stroke-linecap: round"/>
   </g>
   <g id="matplotlib.axis_1">
    <g id="xtick_1">
     <g id="line2d_3"/>
     <g id="text_1">
      <!-- −10 -->
      <g style="fill: #262626" transform="translate(56.287903 118.928041) scale(0.09 -0.09)">
       <defs>
        <path id="DejaVuSerif-2212" d="M 678 2259 
L 4684 2259 
L 4684 1753 
L 678 1753 
L 678 2259 
z
" transform="scale(0.015625)"/>
        <path id="DejaVuSerif-31" d="M 909 0 
L 909 331 
L 1722 331 
L 1722 4213 
L 781 3603 
L 781 4013 
L 1919 4750 
L 2350 4750 
L 2350 331 
L 3163 331 
L 3163 0 
L 909 0 
z
" transform="scale(0.015625)"/>
        <path id="DejaVuSerif-30" d="M 2034 219 
Q 2513 219 2750 744 
Q 2988 1269 2988 2328 
Q 2988 3391 2750 3916 
Q 2513 4441 2034 4441 
Q 1556 4441 1318 3916 
Q 1081 3391 1081 2328 
Q 1081 1269 1318 744 
Q 1556 219 2034 219 
z
M 2034 -91 
Q 1275 -91 848 546 
Q 422 1184 422 2328 
Q 422 3475 848 4112 
Q 1275 4750 2034 4750 
Q 2797 4750 3222 4112 
Q 3647 3475 3647 2328 
Q 3647 1184 3222 546 
Q 2797 -91 2034 -91 
z
" transform="scale(0.015625)"/>
       </defs>
       <use xlink:href="#DejaVuSerif-2212"/>
       <use xlink:href="#DejaVuSerif-31" x="83.789062"/>
       <use xlink:href="#DejaVuSerif-30" x="147.412109"/>
      </g>
     </g>
    </g>
    <g id="xtick_2">
     <g id="line2d_4"/>
     <g id="text_2">
      <!-- 0 -->
      <g style="fill: #262626" transform="translate(114.297108 118.928041) scale(0.09 -0.09)">
       <use xlink:href="#DejaVuSerif-30"/>
      </g>
     </g>
    </g>
    <g id="xtick_3">
     <g id="line2d_5"/>
     <g id="text_3">
      <!-- 10 -->
      <g style="fill: #262626" transform="translate(162.809205 118.928041) scale(0.09 -0.09)">
       <use xlink:href="#DejaVuSerif-31"/>
       <use xlink:href="#DejaVuSerif-30" x="63.623047"/>
      </g>
     </g>
    </g>
    <g id="text_4">
     <!-- Drift angle $\beta$ $[deg]$ -->
     <g style="fill: #262626" transform="translate(75.597422 131.72976) scale(0.09 -0.09)">
      <defs>
       <path id="DejaVuSerif-44" d="M 1581 331 
L 2163 331 
Q 3072 331 3558 850 
Q 4044 1369 4044 2338 
Q 4044 3306 3559 3818 
Q 3075 4331 2163 4331 
L 1581 4331 
L 1581 331 
z
M 353 0 
L 353 331 
L 947 331 
L 947 4331 
L 353 4331 
L 353 4666 
L 2209 4666 
Q 3416 4666 4089 4050 
Q 4763 3434 4763 2338 
Q 4763 1238 4088 619 
Q 3413 0 2209 0 
L 353 0 
z
" transform="scale(0.015625)"/>
       <path id="DejaVuSerif-72" d="M 3059 3328 
L 3059 2497 
L 2728 2497 
Q 2713 2744 2591 2866 
Q 2469 2988 2234 2988 
Q 1809 2988 1582 2694 
Q 1356 2400 1356 1850 
L 1356 331 
L 2022 331 
L 2022 0 
L 263 0 
L 263 331 
L 781 331 
L 781 2994 
L 231 2994 
L 231 3322 
L 1356 3322 
L 1356 2731 
Q 1525 3078 1790 3245 
Q 2056 3413 2438 3413 
Q 2578 3413 2733 3391 
Q 2888 3369 3059 3328 
z
" transform="scale(0.015625)"/>
       <path id="DejaVuSerif-69" d="M 622 4353 
Q 622 4497 726 4603 
Q 831 4709 978 4709 
Q 1122 4709 1226 4603 
Q 1331 4497 1331 4353 
Q 1331 4206 1228 4103 
Q 1125 4000 978 4000 
Q 831 4000 726 4103 
Q 622 4206 622 4353 
z
M 1356 331 
L 1900 331 
L 1900 0 
L 231 0 
L 231 331 
L 781 331 
L 781 2988 
L 231 2988 
L 231 3322 
L 1356 3322 
L 1356 331 
z
" transform="scale(0.015625)"/>
       <path id="DejaVuSerif-66" d="M 2753 4078 
L 2450 4078 
Q 2447 4313 2317 4434 
Q 2188 4556 1941 4556 
Q 1619 4556 1487 4379 
Q 1356 4203 1356 3750 
L 1356 3322 
L 2284 3322 
L 2284 2988 
L 1356 2988 
L 1356 331 
L 2094 331 
L 2094 0 
L 231 0 
L 231 331 
L 781 331 
L 781 2988 
L 231 2988 
L 231 3322 
L 781 3322 
L 781 3738 
Q 781 4294 1070 4578 
Q 1359 4863 1919 4863 
Q 2128 4863 2337 4825 
Q 2547 4788 2753 4709 
L 2753 4078 
z
" transform="scale(0.015625)"/>
       <path id="DejaVuSerif-74" d="M 691 2988 
L 184 2988 
L 184 3322 
L 691 3322 
L 691 4353 
L 1269 4353 
L 1269 3322 
L 2350 3322 
L 2350 2988 
L 1269 2988 
L 1269 878 
Q 1269 456 1350 337 
Q 1431 219 1650 219 
Q 1875 219 1978 351 
Q 2081 484 2088 781 
L 2522 781 
Q 2497 328 2275 118 
Q 2053 -91 1600 -91 
Q 1103 -91 897 129 
Q 691 350 691 878 
L 691 2988 
z
" transform="scale(0.015625)"/>
       <path id="DejaVuSerif-20" transform="scale(0.015625)"/>
       <path id="DejaVuSerif-61" d="M 2547 1044 
L 2547 1747 
L 1806 1747 
Q 1378 1747 1168 1562 
Q 959 1378 959 997 
Q 959 650 1171 447 
Q 1384 244 1747 244 
Q 2106 244 2326 466 
Q 2547 688 2547 1044 
z
M 3122 2075 
L 3122 331 
L 3634 331 
L 3634 0 
L 2547 0 
L 2547 359 
Q 2356 128 2106 18 
Q 1856 -91 1522 -91 
Q 969 -91 644 203 
Q 319 497 319 997 
Q 319 1513 691 1797 
Q 1063 2081 1741 2081 
L 2547 2081 
L 2547 2309 
Q 2547 2688 2317 2895 
Q 2088 3103 1672 3103 
Q 1328 3103 1125 2947 
Q 922 2791 872 2484 
L 575 2484 
L 575 3156 
Q 875 3284 1158 3348 
Q 1441 3413 1709 3413 
Q 2400 3413 2761 3070 
Q 3122 2728 3122 2075 
z
" transform="scale(0.015625)"/>
       <path id="DejaVuSerif-6e" d="M 263 0 
L 263 331 
L 781 331 
L 781 2988 
L 231 2988 
L 231 3322 
L 1356 3322 
L 1356 2731 
Q 1516 3069 1770 3241 
Q 2025 3413 2363 3413 
Q 2913 3413 3172 3097 
Q 3431 2781 3431 2113 
L 3431 331 
L 3944 331 
L 3944 0 
L 2356 0 
L 2356 331 
L 2853 331 
L 2853 1931 
Q 2853 2541 2703 2767 
Q 2553 2994 2175 2994 
Q 1775 2994 1565 2701 
Q 1356 2409 1356 1850 
L 1356 331 
L 1856 331 
L 1856 0 
L 263 0 
z
" transform="scale(0.015625)"/>
       <path id="DejaVuSerif-67" d="M 3359 2988 
L 3359 72 
Q 3359 -644 2965 -1033 
Q 2572 -1422 1844 -1422 
Q 1516 -1422 1216 -1362 
Q 916 -1303 641 -1184 
L 641 -488 
L 941 -488 
Q 997 -813 1206 -963 
Q 1416 -1113 1806 -1113 
Q 2313 -1113 2548 -827 
Q 2784 -541 2784 72 
L 2784 519 
Q 2616 206 2355 57 
Q 2094 -91 1709 -91 
Q 1097 -91 708 395 
Q 319 881 319 1663 
Q 319 2444 706 2928 
Q 1094 3413 1709 3413 
Q 2094 3413 2355 3264 
Q 2616 3116 2784 2803 
L 2784 3322 
L 3909 3322 
L 3909 2988 
L 3359 2988 
z
M 2784 1825 
Q 2784 2422 2554 2737 
Q 2325 3053 1888 3053 
Q 1444 3053 1217 2703 
Q 991 2353 991 1663 
Q 991 975 1217 622 
Q 1444 269 1888 269 
Q 2325 269 2554 583 
Q 2784 897 2784 1497 
L 2784 1825 
z
" transform="scale(0.015625)"/>
       <path id="DejaVuSerif-6c" d="M 1313 331 
L 1856 331 
L 1856 0 
L 184 0 
L 184 331 
L 738 331 
L 738 4531 
L 184 4531 
L 184 4863 
L 1313 4863 
L 1313 331 
z
" transform="scale(0.015625)"/>
       <path id="DejaVuSerif-65" d="M 3469 1600 
L 991 1600 
L 991 1575 
Q 991 903 1244 561 
Q 1497 219 1991 219 
Q 2369 219 2611 417 
Q 2853 616 2950 1006 
L 3413 1006 
Q 3275 459 2904 184 
Q 2534 -91 1931 -91 
Q 1203 -91 761 389 
Q 319 869 319 1663 
Q 319 2450 753 2931 
Q 1188 3413 1894 3413 
Q 2647 3413 3050 2948 
Q 3453 2484 3469 1600 
z
M 2791 1931 
Q 2772 2513 2545 2808 
Q 2319 3103 1894 3103 
Q 1497 3103 1269 2806 
Q 1041 2509 991 1931 
L 2791 1931 
z
" transform="scale(0.015625)"/>
       <path id="DejaVuSans-Oblique-3b2" d="M 872 216 
L 572 -1331 
L -6 -1331 
L 928 3478 
Q 1206 4903 2538 4903 
Q 3888 4903 3659 3700 
Q 3503 2844 2894 2531 
Q 3713 2250 3553 1416 
Q 3272 -69 1759 -66 
Q 1097 -63 872 216 
z
M 1019 966 
Q 1259 422 1875 425 
Q 2775 425 2966 1406 
Q 3138 2288 1675 2219 
L 1778 2750 
Q 2909 2731 3106 3750 
Q 3241 4438 2509 4434 
Q 1691 4434 1503 3459 
L 1019 966 
z
" transform="scale(0.015625)"/>
       <path id="DejaVuSans-5b" d="M 550 4863 
L 1875 4863 
L 1875 4416 
L 1125 4416 
L 1125 -397 
L 1875 -397 
L 1875 -844 
L 550 -844 
L 550 4863 
z
" transform="scale(0.015625)"/>
       <path id="DejaVuSans-Oblique-64" d="M 2675 525 
Q 2444 222 2128 65 
Q 1813 -91 1428 -91 
Q 903 -91 598 267 
Q 294 625 294 1247 
Q 294 1766 478 2236 
Q 663 2706 1013 3078 
Q 1244 3325 1534 3454 
Q 1825 3584 2144 3584 
Q 2481 3584 2739 3421 
Q 2997 3259 3138 2956 
L 3513 4863 
L 4091 4863 
L 3144 0 
L 2566 0 
L 2675 525 
z
M 891 1350 
Q 891 897 1095 644 
Q 1300 391 1663 391 
Q 1931 391 2161 520 
Q 2391 650 2566 903 
Q 2750 1166 2856 1509 
Q 2963 1853 2963 2188 
Q 2963 2622 2758 2865 
Q 2553 3109 2194 3109 
Q 1922 3109 1687 2981 
Q 1453 2853 1288 2613 
Q 1106 2353 998 2009 
Q 891 1666 891 1350 
z
" transform="scale(0.015625)"/>
       <path id="DejaVuSans-Oblique-65" d="M 3078 2063 
Q 3088 2113 3092 2166 
Q 3097 2219 3097 2272 
Q 3097 2653 2873 2875 
Q 2650 3097 2266 3097 
Q 1838 3097 1509 2826 
Q 1181 2556 1013 2059 
L 3078 2063 
z
M 3578 1613 
L 903 1613 
Q 884 1494 878 1425 
Q 872 1356 872 1306 
Q 872 872 1139 634 
Q 1406 397 1894 397 
Q 2269 397 2603 481 
Q 2938 566 3225 728 
L 3116 159 
Q 2806 34 2476 -28 
Q 2147 -91 1806 -91 
Q 1078 -91 686 257 
Q 294 606 294 1247 
Q 294 1794 489 2264 
Q 684 2734 1063 3103 
Q 1306 3334 1642 3459 
Q 1978 3584 2356 3584 
Q 2950 3584 3301 3228 
Q 3653 2872 3653 2272 
Q 3653 2128 3634 1964 
Q 3616 1800 3578 1613 
z
" transform="scale(0.015625)"/>
       <path id="DejaVuSans-Oblique-67" d="M 3816 3500 
L 3219 434 
Q 3047 -456 2561 -893 
Q 2075 -1331 1253 -1331 
Q 950 -1331 690 -1286 
Q 431 -1241 206 -1147 
L 313 -588 
Q 525 -725 762 -790 
Q 1000 -856 1269 -856 
Q 1816 -856 2167 -557 
Q 2519 -259 2631 300 
L 2681 563 
Q 2441 288 2122 144 
Q 1803 0 1434 0 
Q 903 0 598 351 
Q 294 703 294 1319 
Q 294 1803 478 2267 
Q 663 2731 997 3091 
Q 1219 3328 1514 3456 
Q 1809 3584 2131 3584 
Q 2484 3584 2746 3420 
Q 3009 3256 3138 2956 
L 3238 3500 
L 3816 3500 
z
M 2950 2216 
Q 2950 2641 2750 2872 
Q 2550 3103 2181 3103 
Q 1953 3103 1747 3012 
Q 1541 2922 1394 2759 
Q 1156 2491 1023 2127 
Q 891 1763 891 1375 
Q 891 944 1092 712 
Q 1294 481 1672 481 
Q 2219 481 2584 976 
Q 2950 1472 2950 2216 
z
" transform="scale(0.015625)"/>
       <path id="DejaVuSans-5d" d="M 1947 4863 
L 1947 -844 
L 622 -844 
L 622 -397 
L 1369 -397 
L 1369 4416 
L 622 4416 
L 622 4863 
L 1947 4863 
z
" transform="scale(0.015625)"/>
      </defs>
      <use xlink:href="#DejaVuSerif-44" transform="translate(0 0.390625)"/>
      <use xlink:href="#DejaVuSerif-72" transform="translate(80.175781 0.390625)"/>
      <use xlink:href="#DejaVuSerif-69" transform="translate(127.978516 0.390625)"/>
      <use xlink:href="#DejaVuSerif-66" transform="translate(159.960938 0.390625)"/>
      <use xlink:href="#DejaVuSerif-74" transform="translate(196.972656 0.390625)"/>
      <use xlink:href="#DejaVuSerif-20" transform="translate(237.158203 0.390625)"/>
      <use xlink:href="#DejaVuSerif-61" transform="translate(268.945312 0.390625)"/>
      <use xlink:href="#DejaVuSerif-6e" transform="translate(328.564453 0.390625)"/>
      <use xlink:href="#DejaVuSerif-67" transform="translate(392.96875 0.390625)"/>
      <use xlink:href="#DejaVuSerif-6c" transform="translate(456.982422 0.390625)"/>
      <use xlink:href="#DejaVuSerif-65" transform="translate(488.964844 0.390625)"/>
      <use xlink:href="#DejaVuSerif-20" transform="translate(548.144531 0.390625)"/>
      <use xlink:href="#DejaVuSans-Oblique-3b2" transform="translate(579.931641 0.390625)"/>
      <use xlink:href="#DejaVuSerif-20" transform="translate(643.75 0.390625)"/>
      <use xlink:href="#DejaVuSans-5b" transform="translate(675.537109 0.390625)"/>
      <use xlink:href="#DejaVuSans-Oblique-64" transform="translate(714.550781 0.390625)"/>
      <use xlink:href="#DejaVuSans-Oblique-65" transform="translate(778.027344 0.390625)"/>
      <use xlink:href="#DejaVuSans-Oblique-67" transform="translate(839.550781 0.390625)"/>
      <use xlink:href="#DejaVuSans-5d" transform="translate(903.027344 0.390625)"/>
     </g>
    </g>
   </g>
   <g id="matplotlib.axis_2">
    <g id="ytick_1">
     <g id="line2d_6"/>
     <g id="text_5">
      <!-- −0.4 -->
      <g style="fill: #262626" transform="translate(15.710552 102.502569) scale(0.09 -0.09)">
       <defs>
        <path id="DejaVuSerif-2e" d="M 603 325 
Q 603 500 722 622 
Q 841 744 1019 744 
Q 1191 744 1312 622 
Q 1434 500 1434 325 
Q 1434 153 1312 31 
Q 1191 -91 1019 -91 
Q 841 -91 722 29 
Q 603 150 603 325 
z
" transform="scale(0.015625)"/>
        <path id="DejaVuSerif-34" d="M 2234 1581 
L 2234 4063 
L 641 1581 
L 2234 1581 
z
M 3609 0 
L 1484 0 
L 1484 331 
L 2234 331 
L 2234 1247 
L 197 1247 
L 197 1588 
L 2241 4750 
L 2859 4750 
L 2859 1581 
L 3750 1581 
L 3750 1247 
L 2859 1247 
L 2859 331 
L 3609 331 
L 3609 0 
z
" transform="scale(0.015625)"/>
       </defs>
       <use xlink:href="#DejaVuSerif-2212"/>
       <use xlink:href="#DejaVuSerif-30" x="83.789062"/>
       <use xlink:href="#DejaVuSerif-2e" x="147.412109"/>
       <use xlink:href="#DejaVuSerif-34" x="179.199219"/>
      </g>
     </g>
    </g>
    <g id="ytick_2">
     <g id="line2d_7"/>
     <g id="text_6">
      <!-- −0.2 -->
      <g style="fill: #262626" transform="translate(15.710552 81.013459) scale(0.09 -0.09)">
       <defs>
        <path id="DejaVuSerif-32" d="M 819 3553 
L 469 3553 
L 469 4384 
Q 803 4563 1142 4656 
Q 1481 4750 1806 4750 
Q 2534 4750 2956 4397 
Q 3378 4044 3378 3438 
Q 3378 2753 2422 1800 
Q 2347 1728 2309 1691 
L 1131 513 
L 3078 513 
L 3078 1088 
L 3444 1088 
L 3444 0 
L 434 0 
L 434 341 
L 1850 1753 
Q 2319 2222 2519 2614 
Q 2719 3006 2719 3438 
Q 2719 3909 2473 4175 
Q 2228 4441 1797 4441 
Q 1350 4441 1106 4219 
Q 863 3997 819 3553 
z
" transform="scale(0.015625)"/>
       </defs>
       <use xlink:href="#DejaVuSerif-2212"/>
       <use xlink:href="#DejaVuSerif-30" x="83.789062"/>
       <use xlink:href="#DejaVuSerif-2e" x="147.412109"/>
       <use xlink:href="#DejaVuSerif-32" x="179.199219"/>
      </g>
     </g>
    </g>
    <g id="ytick_3">
     <g id="line2d_8"/>
     <g id="text_7">
      <!-- 0.0 -->
      <g style="fill: #262626" transform="translate(23.252271 59.52435) scale(0.09 -0.09)">
       <use xlink:href="#DejaVuSerif-30"/>
       <use xlink:href="#DejaVuSerif-2e" x="63.623047"/>
       <use xlink:href="#DejaVuSerif-30" x="95.410156"/>
      </g>
     </g>
    </g>
    <g id="ytick_4">
     <g id="line2d_9"/>
     <g id="text_8">
      <!-- 0.2 -->
      <g style="fill: #262626" transform="translate(23.252271 38.03524) scale(0.09 -0.09)">
       <use xlink:href="#DejaVuSerif-30"/>
       <use xlink:href="#DejaVuSerif-2e" x="63.623047"/>
       <use xlink:href="#DejaVuSerif-32" x="95.410156"/>
      </g>
     </g>
    </g>
    <g id="ytick_5">
     <g id="line2d_10"/>
     <g id="text_9">
      <!-- 0.4 -->
      <g style="fill: #262626" transform="translate(23.252271 16.54613) scale(0.09 -0.09)">
       <use xlink:href="#DejaVuSerif-30"/>
       <use xlink:href="#DejaVuSerif-2e" x="63.623047"/>
       <use xlink:href="#DejaVuSerif-34" x="95.410156"/>
      </g>
     </g>
    </g>
    <g id="text_10">
     <!-- Yaw rate ${r}'$ $[-]$ -->
     <g style="fill: #262626" transform="translate(9.838834 89.229844) rotate(-90) scale(0.09 -0.09)">
      <defs>
       <path id="DejaVuSerif-59" d="M 1209 0 
L 1209 331 
L 1806 331 
L 1806 2009 
L 366 4331 
L -72 4331 
L -72 4666 
L 1663 4666 
L 1663 4331 
L 1119 4331 
L 2284 2444 
L 3450 4331 
L 2925 4331 
L 2925 4666 
L 4281 4666 
L 4281 4331 
L 3841 4331 
L 2438 2069 
L 2438 331 
L 3034 331 
L 3034 0 
L 1209 0 
z
" transform="scale(0.015625)"/>
       <path id="DejaVuSerif-77" d="M 3072 3322 
L 3922 728 
L 4672 2988 
L 4191 2988 
L 4191 3322 
L 5394 3322 
L 5394 2988 
L 5025 2988 
L 4038 0 
L 3559 0 
L 2741 2484 
L 1919 0 
L 1459 0 
L 475 2988 
L 103 2988 
L 103 3322 
L 1606 3322 
L 1606 2988 
L 1069 2988 
L 1813 728 
L 2669 3322 
L 3072 3322 
z
" transform="scale(0.015625)"/>
       <path id="DejaVuSans-Oblique-72" d="M 2853 2969 
Q 2766 3016 2653 3041 
Q 2541 3066 2413 3066 
Q 1953 3066 1609 2717 
Q 1266 2369 1153 1784 
L 800 0 
L 225 0 
L 909 3500 
L 1484 3500 
L 1375 2956 
Q 1603 3259 1920 3421 
Q 2238 3584 2597 3584 
Q 2691 3584 2781 3573 
Q 2872 3563 2963 3538 
L 2853 2969 
z
" transform="scale(0.015625)"/>
       <path id="Cmsy10-30" d="M 225 347 
Q 184 359 184 409 
L 966 3316 
Q 1003 3434 1093 3506 
Q 1184 3578 1300 3578 
Q 1450 3578 1564 3479 
Q 1678 3381 1678 3231 
Q 1678 3166 1644 3084 
L 488 319 
Q 466 275 428 275 
Q 394 275 320 306 
Q 247 338 225 347 
z
" transform="scale(0.015625)"/>
       <path id="DejaVuSans-2212" d="M 678 2272 
L 4684 2272 
L 4684 1741 
L 678 1741 
L 678 2272 
z
" transform="scale(0.015625)"/>
      </defs>
      <use xlink:href="#DejaVuSerif-59" transform="translate(0 0.584375)"/>
      <use xlink:href="#DejaVuSerif-61" transform="translate(66.015625 0.584375)"/>
      <use xlink:href="#DejaVuSerif-77" transform="translate(125.634766 0.584375)"/>
      <use xlink:href="#DejaVuSerif-20" transform="translate(211.230469 0.584375)"/>
      <use xlink:href="#DejaVuSerif-72" transform="translate(243.017578 0.584375)"/>
      <use xlink:href="#DejaVuSerif-61" transform="translate(290.820312 0.584375)"/>
      <use xlink:href="#DejaVuSerif-74" transform="translate(350.439453 0.584375)"/>
      <use xlink:href="#DejaVuSerif-65" transform="translate(390.625 0.584375)"/>
      <use xlink:href="#DejaVuSerif-20" transform="translate(449.804688 0.584375)"/>
      <use xlink:href="#DejaVuSans-Oblique-72" transform="translate(481.591797 0.584375)"/>
      <use xlink:href="#Cmsy10-30" transform="translate(527.354974 38.865625) scale(0.7)"/>
      <use xlink:href="#DejaVuSerif-20" transform="translate(549.332513 0.584375)"/>
      <use xlink:href="#DejaVuSans-5b" transform="translate(581.119622 0.584375)"/>
      <use xlink:href="#DejaVuSans-2212" transform="translate(620.133294 0.584375)"/>
      <use xlink:href="#DejaVuSans-5d" transform="translate(703.922357 0.584375)"/>
     </g>
    </g>
   </g>
   <g id="line2d_11">
    <path d="M 116.906845 56.500199 
L 116.860172 56.625248 
L 115.417461 60.608528 
L 114.336404 62.979674 
L 113.166763 65.023957 
L 111.879693 66.834649 
L 110.492909 68.411548 
L 108.927737 69.864781 
L 107.251464 71.121066 
L 105.312557 72.297518 
L 102.9174 73.482559 
L 99.523255 74.823207 
L 94.215051 76.465783 
L 92.386128 76.879973 
L 92.16356 76.676591 
L 91.991027 76.187022 
L 91.92424 75.21323 
L 92.056708 73.670872 
L 92.491749 71.343814 
L 93.289256 68.327743 
L 94.509225 64.617906 
L 95.782505 61.387796 
L 97.16083 58.511795 
L 98.570127 56.066411 
L 100.138661 53.782249 
L 101.861305 51.67771 
L 103.726808 49.760345 
L 105.79389 47.960222 
L 108.107649 46.25973 
L 110.363301 44.878728 
L 113.066415 43.473726 
L 116.203098 42.11926 
L 119.847477 40.791574 
L 123.230052 39.75399 
L 131.185568 37.587834 
L 137.569053 36.013563 
L 143.138865 34.759917 
L 151.899341 32.806945 
L 151.947418 33.307619 
L 151.801389 34.587972 
L 151.305439 36.779359 
L 150.360305 39.920949 
L 148.968887 43.773252 
L 147.246246 47.914147 
L 145.806551 50.791342 
L 144.271687 53.37615 
L 142.638254 55.707698 
L 140.845694 57.875919 
L 138.894014 59.89202 
L 136.794059 61.739835 
L 134.417151 63.514295 
L 131.848335 65.157924 
L 129.052496 66.687968 
L 125.658597 68.258224 
L 122.096853 69.646997 
L 117.346153 71.206666 
L 112.483515 72.54351 
L 103.966573 74.724549 
L 96.555935 76.448572 
L 91.476042 77.618938 
L 86.516618 78.783468 
L 83.451082 79.438169 
L 83.290531 79.325729 
L 83.210238 78.929062 
L 83.276812 77.899356 
L 83.640017 75.984009 
L 84.411108 73.157386 
L 85.642991 69.495562 
L 87.312149 65.245542 
L 88.718222 62.224071 
L 90.216497 59.518427 
L 91.803302 57.102633 
L 93.557635 54.835027 
L 95.479119 52.722112 
L 97.550986 50.778021 
L 99.749399 49.030671 
L 102.36908 47.251266 
L 105.07495 45.689486 
L 107.896987 44.317571 
L 111.389799 42.881838 
L 115.815612 41.317788 
L 120.064255 40.051573 
L 127.497217 38.060022 
L 139.695226 35.201552 
L 144.232046 34.139938 
L 147.588408 33.373083 
L 151.99932 32.453697 
L 152.083503 32.763853 
L 152.045482 33.64582 
L 151.725065 35.427455 
L 151.009438 38.108256 
L 149.778647 41.787976 
L 148.073967 46.164184 
L 146.650907 49.282234 
L 145.136563 52.066377 
L 143.526384 54.567192 
L 141.742728 56.911746 
L 139.878594 58.990037 
L 137.872475 60.892085 
L 135.568416 62.759514 
L 132.991628 64.535779 
L 130.107385 66.217992 
L 127.103774 67.709168 
L 124.018919 69.012761 
L 119.749712 70.547767 
L 114.596984 72.095635 
L 104.866274 74.636933 
L 96.289883 76.633564 
L 96.289883 76.633564 
" clip-path="url(#p4602d9aeb4)" style="fill: none; stroke: #000000; stroke-linecap: round"/>
   </g>
   <g id="line2d_12">
    <path d="M 117.202943 55.471873 
L 117.113707 55.920058 
L 116.484285 57.991918 
L 115.188223 61.506332 
L 113.470786 65.561827 
L 111.519844 69.644787 
L 109.912353 72.529571 
L 108.190925 75.167801 
L 106.360933 77.574975 
L 104.428231 79.759797 
L 102.146382 81.982667 
L 99.782227 83.961894 
L 97.013089 85.951673 
L 94.554848 87.458038 
L 90.988722 89.365645 
L 86.612938 91.356917 
L 81.404152 93.403163 
L 76.744852 95.017842 
L 67.402923 97.926723 
L 66.784794 97.866003 
L 66.346928 97.600236 
L 65.954419 97.081582 
L 65.630655 96.287601 
L 65.410922 95.15253 
L 65.31769 93.446199 
L 65.435624 91.37764 
L 65.838399 88.532377 
L 66.526501 85.33305 
L 67.545845 81.660412 
L 68.937954 77.49646 
L 70.649585 73.076609 
L 72.786247 68.179172 
L 75.383452 62.831338 
L 78.049156 57.834609 
L 80.317135 54.045193 
L 82.475887 50.88671 
L 84.770988 47.937656 
L 87.200472 45.189722 
L 89.76641 42.611671 
L 92.731614 39.96516 
L 95.535524 37.757107 
L 98.704962 35.538495 
L 101.951213 33.53645 
L 105.512621 31.600609 
L 109.343949 29.775583 
L 114.245369 27.69828 
L 118.259624 26.216507 
L 124.047879 24.303697 
L 136.197146 20.521309 
L 144.006626 18.496179 
L 156.288371 15.334465 
L 180.901555 8.68074 
L 192.484418 5.398982 
L 194.53257 4.851146 
L 194.746205 5.062536 
L 194.916932 5.576693 
L 194.999731 6.619314 
L 194.874016 8.306362 
L 194.447151 10.777794 
L 193.629218 14.106791 
L 192.410815 18.094409 
L 190.764021 22.7065 
L 188.723702 27.757981 
L 186.316426 33.110144 
L 183.446581 38.930819 
L 180.23416 44.936139 
L 177.018659 50.508835 
L 174.58379 54.313014 
L 172.292859 57.481045 
L 169.851335 60.479518 
L 167.270825 63.297259 
L 164.548373 65.942529 
L 161.539996 68.554294 
L 158.403432 70.987835 
L 154.860025 73.440674 
L 151.074794 75.785191 
L 146.774851 78.174123 
L 142.836856 80.150833 
L 138.603634 82.024225 
L 133.850012 83.88134 
L 127.380268 86.158057 
L 120.638575 88.279771 
L 109.728798 91.390123 
L 102.440389 93.243169 
L 88.392687 96.556499 
L 67.977165 101.710108 
L 48.914106 106.65825 
L 41.614721 108.525007 
L 41.357132 108.258206 
L 41.169142 107.699747 
L 41.066778 106.65495 
L 41.144007 105.008846 
L 41.482113 102.638088 
L 42.160205 99.491373 
L 43.261766 95.522087 
L 44.806313 90.843045 
L 46.714446 85.809304 
L 48.977278 80.474489 
L 51.839488 74.323736 
L 54.975353 68.107586 
L 57.967849 62.661775 
L 60.336002 58.765173 
L 62.571238 55.498861 
L 64.947519 52.411413 
L 67.474442 49.487895 
L 70.132767 46.756677 
L 73.226017 43.917065 
L 76.440152 41.292497 
L 79.774875 38.853761 
L 83.217137 36.596064 
L 87.303587 34.195936 
L 91.186921 32.136478 
L 95.100921 30.31065 
L 100.710824 27.991445 
L 106.4792 25.86217 
L 112.233656 23.952398 
L 126.139826 19.830002 
L 131.84753 18.371827 
L 150.170959 14.028168 
L 181.448261 6.187212 
L 187.19505 4.605355 
L 193.924235 3.023415 
L 194.162449 3.226992 
L 194.362941 3.736733 
L 194.477972 4.746647 
L 194.415199 6.393029 
L 194.083499 8.708456 
L 193.381372 11.973534 
L 192.351726 15.699858 
L 190.845014 20.296835 
L 188.961763 25.328002 
L 186.607334 30.958109 
L 183.869787 36.904336 
L 180.637348 43.355891 
L 177.659959 48.818161 
L 175.152146 52.979962 
L 172.927612 56.249734 
L 170.557932 59.349679 
L 168.036641 62.294404 
L 165.37214 65.073629 
L 162.417619 67.834409 
L 159.484857 70.285146 
L 156.145531 72.786634 
L 151.987594 75.548589 
L 148.881607 77.399761 
L 144.022232 80.015965 
L 139.576215 82.090645 
L 134.629712 84.131645 
L 127.613288 86.723875 
L 122.377312 88.407944 
L 109.527693 92.258183 
L 109.527693 92.258183 
" clip-path="url(#p4602d9aeb4)" style="fill: none; stroke: #a9a9a9; stroke-linecap: round"/>
   </g>
   <g id="patch_3">
    <path d="M 41.065084 108.589447 
L 41.065084 3.00024 
" style="fill: none; stroke: #000000; stroke-linejoin: miter; stroke-linecap: square"/>
   </g>
   <g id="patch_4">
    <path d="M 41.065084 108.589447 
L 194.99976 108.589447 
" style="fill: none; stroke: #000000; stroke-linejoin: miter; stroke-linecap: square"/>
   </g>
  </g>
 </g>
 <defs>
  <clipPath id="p4602d9aeb4">
   <rect x="41.065084" y="3.00024" width="153.934676" height="105.589207"/>
  </clipPath>
 </defs>
</svg>
