<?xml version="1.0" encoding="utf-8" standalone="no"?>
<!DOCTYPE svg PUBLIC "-//W3C//DTD SVG 1.1//EN"
  "http://www.w3.org/Graphics/SVG/1.1/DTD/svg11.dtd">
<svg xmlns:xlink="http://www.w3.org/1999/xlink" width="388.61928pt" height="218.623104pt" viewBox="0 0 388.61928 218.623104" xmlns="http://www.w3.org/2000/svg" version="1.1">
 <metadata>
  <rdf:RDF xmlns:dc="http://purl.org/dc/elements/1.1/" xmlns:cc="http://creativecommons.org/ns#" xmlns:rdf="http://www.w3.org/1999/02/22-rdf-syntax-ns#">
   <cc:Work>
    <dc:type rdf:resource="http://purl.org/dc/dcmitype/StillImage"/>
    <dc:date>2024-12-09T17:34:04.261140</dc:date>
    <dc:format>image/svg+xml</dc:format>
    <dc:creator>
     <cc:Agent>
      <dc:title>Matplotlib v3.8.2, https://matplotlib.org/</dc:title>
     </cc:Agent>
    </dc:creator>
   </cc:Work>
  </rdf:RDF>
 </metadata>
 <defs>
  <style type="text/css">*{stroke-linejoin: round; stroke-linecap: butt}</style>
 </defs>
 <g id="figure_1">
  <g id="patch_1">
   <path d="M 0 218.623104 
L 388.61928 218.623104 
L 388.61928 0 
L 0 0 
z
" style="fill: #ffffff"/>
  </g>
  <g id="axes_1">
   <g id="patch_2">
    <path d="M 25.214615 195.528177 
L 385.61904 195.528177 
L 385.61904 27.094314 
L 25.214615 27.094314 
z
" style="fill: #ffffff"/>
   </g>
   <g id="matplotlib.axis_1">
    <g id="xtick_1">
     <g id="line2d_1">
      <path d="M 66.961397 195.528177 
L 66.961397 27.094314 
" clip-path="url(#pd441bd77a1)" style="fill: none; stroke: #b0b0b0; stroke-width: 0.1; stroke-linecap: round"/>
     </g>
     <g id="line2d_2"/>
     <g id="text_1">
      <!-- −30 -->
      <g style="fill: #262626" transform="translate(59.574756 204.347083) scale(0.07 -0.07)">
       <defs>
        <path id="DejaVuSerif-2212" d="M 678 2259 
L 4684 2259 
L 4684 1753 
L 678 1753 
L 678 2259 
z
" transform="scale(0.015625)"/>
        <path id="DejaVuSerif-33" d="M 622 4469 
Q 988 4606 1323 4678 
Q 1659 4750 1953 4750 
Q 2638 4750 3022 4454 
Q 3406 4159 3406 3634 
Q 3406 3213 3140 2930 
Q 2875 2647 2388 2547 
Q 2963 2466 3280 2130 
Q 3597 1794 3597 1259 
Q 3597 606 3158 257 
Q 2719 -91 1894 -91 
Q 1528 -91 1179 -12 
Q 831 66 488 225 
L 488 1131 
L 838 1131 
Q 869 681 1141 450 
Q 1413 219 1906 219 
Q 2384 219 2661 495 
Q 2938 772 2938 1253 
Q 2938 1803 2653 2086 
Q 2369 2369 1819 2369 
L 1522 2369 
L 1522 2688 
L 1678 2688 
Q 2225 2688 2498 2914 
Q 2772 3141 2772 3597 
Q 2772 4006 2547 4223 
Q 2322 4441 1900 4441 
Q 1478 4441 1245 4241 
Q 1013 4041 972 3647 
L 622 3647 
L 622 4469 
z
" transform="scale(0.015625)"/>
        <path id="DejaVuSerif-30" d="M 2034 219 
Q 2513 219 2750 744 
Q 2988 1269 2988 2328 
Q 2988 3391 2750 3916 
Q 2513 4441 2034 4441 
Q 1556 4441 1318 3916 
Q 1081 3391 1081 2328 
Q 1081 1269 1318 744 
Q 1556 219 2034 219 
z
M 2034 -91 
Q 1275 -91 848 546 
Q 422 1184 422 2328 
Q 422 3475 848 4112 
Q 1275 4750 2034 4750 
Q 2797 4750 3222 4112 
Q 3647 3475 3647 2328 
Q 3647 1184 3222 546 
Q 2797 -91 2034 -91 
z
" transform="scale(0.015625)"/>
       </defs>
       <use xlink:href="#DejaVuSerif-2212"/>
       <use xlink:href="#DejaVuSerif-33" x="83.789062"/>
       <use xlink:href="#DejaVuSerif-30" x="147.412109"/>
      </g>
     </g>
    </g>
    <g id="xtick_2">
     <g id="line2d_3">
      <path d="M 110.507135 195.528177 
L 110.507135 27.094314 
" clip-path="url(#pd441bd77a1)" style="fill: none; stroke: #b0b0b0; stroke-width: 0.1; stroke-linecap: round"/>
     </g>
     <g id="line2d_4"/>
     <g id="text_2">
      <!-- −20 -->
      <g style="fill: #262626" transform="translate(103.120494 204.347083) scale(0.07 -0.07)">
       <defs>
        <path id="DejaVuSerif-32" d="M 819 3553 
L 469 3553 
L 469 4384 
Q 803 4563 1142 4656 
Q 1481 4750 1806 4750 
Q 2534 4750 2956 4397 
Q 3378 4044 3378 3438 
Q 3378 2753 2422 1800 
Q 2347 1728 2309 1691 
L 1131 513 
L 3078 513 
L 3078 1088 
L 3444 1088 
L 3444 0 
L 434 0 
L 434 341 
L 1850 1753 
Q 2319 2222 2519 2614 
Q 2719 3006 2719 3438 
Q 2719 3909 2473 4175 
Q 2228 4441 1797 4441 
Q 1350 4441 1106 4219 
Q 863 3997 819 3553 
z
" transform="scale(0.015625)"/>
       </defs>
       <use xlink:href="#DejaVuSerif-2212"/>
       <use xlink:href="#DejaVuSerif-32" x="83.789062"/>
       <use xlink:href="#DejaVuSerif-30" x="147.412109"/>
      </g>
     </g>
    </g>
    <g id="xtick_3">
     <g id="line2d_5">
      <path d="M 154.052873 195.528177 
L 154.052873 27.094314 
" clip-path="url(#pd441bd77a1)" style="fill: none; stroke: #b0b0b0; stroke-width: 0.1; stroke-linecap: round"/>
     </g>
     <g id="line2d_6"/>
     <g id="text_3">
      <!-- −10 -->
      <g style="fill: #262626" transform="translate(146.666232 204.347083) scale(0.07 -0.07)">
       <defs>
        <path id="DejaVuSerif-31" d="M 909 0 
L 909 331 
L 1722 331 
L 1722 4213 
L 781 3603 
L 781 4013 
L 1919 4750 
L 2350 4750 
L 2350 331 
L 3163 331 
L 3163 0 
L 909 0 
z
" transform="scale(0.015625)"/>
       </defs>
       <use xlink:href="#DejaVuSerif-2212"/>
       <use xlink:href="#DejaVuSerif-31" x="83.789062"/>
       <use xlink:href="#DejaVuSerif-30" x="147.412109"/>
      </g>
     </g>
    </g>
    <g id="xtick_4">
     <g id="line2d_7">
      <path d="M 197.598611 195.528177 
L 197.598611 27.094314 
" clip-path="url(#pd441bd77a1)" style="fill: none; stroke: #b0b0b0; stroke-width: 0.1; stroke-linecap: round"/>
     </g>
     <g id="line2d_8"/>
     <g id="text_4">
      <!-- 0 -->
      <g style="fill: #262626" transform="translate(195.371736 204.347083) scale(0.07 -0.07)">
       <use xlink:href="#DejaVuSerif-30"/>
      </g>
     </g>
    </g>
    <g id="xtick_5">
     <g id="line2d_9">
      <path d="M 241.144348 195.528177 
L 241.144348 27.094314 
" clip-path="url(#pd441bd77a1)" style="fill: none; stroke: #b0b0b0; stroke-width: 0.1; stroke-linecap: round"/>
     </g>
     <g id="line2d_10"/>
     <g id="text_5">
      <!-- 10 -->
      <g style="fill: #262626" transform="translate(236.690598 204.347083) scale(0.07 -0.07)">
       <use xlink:href="#DejaVuSerif-31"/>
       <use xlink:href="#DejaVuSerif-30" x="63.623047"/>
      </g>
     </g>
    </g>
    <g id="xtick_6">
     <g id="line2d_11">
      <path d="M 284.690086 195.528177 
L 284.690086 27.094314 
" clip-path="url(#pd441bd77a1)" style="fill: none; stroke: #b0b0b0; stroke-width: 0.1; stroke-linecap: round"/>
     </g>
     <g id="line2d_12"/>
     <g id="text_6">
      <!-- 20 -->
      <g style="fill: #262626" transform="translate(280.236336 204.347083) scale(0.07 -0.07)">
       <use xlink:href="#DejaVuSerif-32"/>
       <use xlink:href="#DejaVuSerif-30" x="63.623047"/>
      </g>
     </g>
    </g>
    <g id="xtick_7">
     <g id="line2d_13">
      <path d="M 328.235824 195.528177 
L 328.235824 27.094314 
" clip-path="url(#pd441bd77a1)" style="fill: none; stroke: #b0b0b0; stroke-width: 0.1; stroke-linecap: round"/>
     </g>
     <g id="line2d_14"/>
     <g id="text_7">
      <!-- 30 -->
      <g style="fill: #262626" transform="translate(323.782074 204.347083) scale(0.07 -0.07)">
       <use xlink:href="#DejaVuSerif-33"/>
       <use xlink:href="#DejaVuSerif-30" x="63.623047"/>
      </g>
     </g>
    </g>
    <g id="xtick_8">
     <g id="line2d_15">
      <path d="M 371.781562 195.528177 
L 371.781562 27.094314 
" clip-path="url(#pd441bd77a1)" style="fill: none; stroke: #b0b0b0; stroke-width: 0.1; stroke-linecap: round"/>
     </g>
     <g id="line2d_16"/>
     <g id="text_8">
      <!-- 40 -->
      <g style="fill: #262626" transform="translate(367.327812 204.347083) scale(0.07 -0.07)">
       <defs>
        <path id="DejaVuSerif-34" d="M 2234 1581 
L 2234 4063 
L 641 1581 
L 2234 1581 
z
M 3609 0 
L 1484 0 
L 1484 331 
L 2234 331 
L 2234 1247 
L 197 1247 
L 197 1588 
L 2241 4750 
L 2859 4750 
L 2859 1581 
L 3750 1581 
L 3750 1247 
L 2859 1247 
L 2859 331 
L 3609 331 
L 3609 0 
z
" transform="scale(0.015625)"/>
       </defs>
       <use xlink:href="#DejaVuSerif-34"/>
       <use xlink:href="#DejaVuSerif-30" x="63.623047"/>
      </g>
     </g>
    </g>
    <g id="text_9">
     <!-- $y_0$ $[m]$ -->
     <g style="fill: #262626" transform="translate(195.996828 214.362864) scale(0.06 -0.06)">
      <defs>
       <path id="DejaVuSans-Oblique-79" d="M 1588 -325 
Q 1188 -997 936 -1164 
Q 684 -1331 294 -1331 
L -159 -1331 
L -63 -850 
L 269 -850 
Q 509 -850 678 -719 
Q 847 -588 1056 -206 
L 1234 128 
L 459 3500 
L 1069 3500 
L 1650 819 
L 3256 3500 
L 3859 3500 
L 1588 -325 
z
" transform="scale(0.015625)"/>
       <path id="DejaVuSans-30" d="M 2034 4250 
Q 1547 4250 1301 3770 
Q 1056 3291 1056 2328 
Q 1056 1369 1301 889 
Q 1547 409 2034 409 
Q 2525 409 2770 889 
Q 3016 1369 3016 2328 
Q 3016 3291 2770 3770 
Q 2525 4250 2034 4250 
z
M 2034 4750 
Q 2819 4750 3233 4129 
Q 3647 3509 3647 2328 
Q 3647 1150 3233 529 
Q 2819 -91 2034 -91 
Q 1250 -91 836 529 
Q 422 1150 422 2328 
Q 422 3509 836 4129 
Q 1250 4750 2034 4750 
z
" transform="scale(0.015625)"/>
       <path id="DejaVuSerif-20" transform="scale(0.015625)"/>
       <path id="DejaVuSans-5b" d="M 550 4863 
L 1875 4863 
L 1875 4416 
L 1125 4416 
L 1125 -397 
L 1875 -397 
L 1875 -844 
L 550 -844 
L 550 4863 
z
" transform="scale(0.015625)"/>
       <path id="DejaVuSans-Oblique-6d" d="M 5747 2113 
L 5338 0 
L 4763 0 
L 5166 2094 
Q 5191 2228 5203 2325 
Q 5216 2422 5216 2491 
Q 5216 2772 5059 2928 
Q 4903 3084 4622 3084 
Q 4203 3084 3875 2770 
Q 3547 2456 3450 1953 
L 3066 0 
L 2491 0 
L 2900 2094 
Q 2925 2209 2937 2307 
Q 2950 2406 2950 2484 
Q 2950 2769 2794 2926 
Q 2638 3084 2363 3084 
Q 1938 3084 1609 2770 
Q 1281 2456 1184 1953 
L 800 0 
L 225 0 
L 909 3500 
L 1484 3500 
L 1375 2956 
Q 1609 3263 1923 3423 
Q 2238 3584 2597 3584 
Q 2978 3584 3223 3384 
Q 3469 3184 3519 2828 
Q 3781 3197 4126 3390 
Q 4472 3584 4856 3584 
Q 5306 3584 5551 3325 
Q 5797 3066 5797 2591 
Q 5797 2488 5784 2364 
Q 5772 2241 5747 2113 
z
" transform="scale(0.015625)"/>
       <path id="DejaVuSans-5d" d="M 1947 4863 
L 1947 -844 
L 622 -844 
L 622 -397 
L 1369 -397 
L 1369 4416 
L 622 4416 
L 622 4863 
L 1947 4863 
z
" transform="scale(0.015625)"/>
      </defs>
      <use xlink:href="#DejaVuSans-Oblique-79" transform="translate(0 0.015625)"/>
      <use xlink:href="#DejaVuSans-30" transform="translate(59.179688 -16.390625) scale(0.7)"/>
      <use xlink:href="#DejaVuSerif-20" transform="translate(106.450195 0.015625)"/>
      <use xlink:href="#DejaVuSans-5b" transform="translate(138.237305 0.015625)"/>
      <use xlink:href="#DejaVuSans-Oblique-6d" transform="translate(177.250977 0.015625)"/>
      <use xlink:href="#DejaVuSans-5d" transform="translate(274.663086 0.015625)"/>
     </g>
    </g>
   </g>
   <g id="matplotlib.axis_2">
    <g id="ytick_1">
     <g id="line2d_17">
      <path d="M 25.214615 176.953949 
L 385.61904 176.953949 
" clip-path="url(#pd441bd77a1)" style="fill: none; stroke: #b0b0b0; stroke-width: 0.1; stroke-linecap: round"/>
     </g>
     <g id="line2d_18"/>
     <g id="text_10">
      <!-- 0 -->
      <g style="fill: #262626" transform="translate(17.260865 179.613402) scale(0.07 -0.07)">
       <use xlink:href="#DejaVuSerif-30"/>
      </g>
     </g>
    </g>
    <g id="ytick_2">
     <g id="line2d_19">
      <path d="M 25.214615 155.18108 
L 385.61904 155.18108 
" clip-path="url(#pd441bd77a1)" style="fill: none; stroke: #b0b0b0; stroke-width: 0.1; stroke-linecap: round"/>
     </g>
     <g id="line2d_20"/>
     <g id="text_11">
      <!-- 5 -->
      <g style="fill: #262626" transform="translate(17.260865 157.840533) scale(0.07 -0.07)">
       <defs>
        <path id="DejaVuSerif-35" d="M 3219 4666 
L 3219 4153 
L 1081 4153 
L 1081 2816 
Q 1244 2928 1461 2984 
Q 1678 3041 1947 3041 
Q 2703 3041 3140 2622 
Q 3578 2203 3578 1478 
Q 3578 738 3136 323 
Q 2694 -91 1894 -91 
Q 1572 -91 1234 -12 
Q 897 66 544 225 
L 544 1131 
L 897 1131 
Q 925 688 1179 453 
Q 1434 219 1894 219 
Q 2388 219 2653 544 
Q 2919 869 2919 1478 
Q 2919 2084 2655 2407 
Q 2391 2731 1894 2731 
Q 1613 2731 1398 2631 
Q 1184 2531 1019 2322 
L 750 2322 
L 750 4666 
L 3219 4666 
z
" transform="scale(0.015625)"/>
       </defs>
       <use xlink:href="#DejaVuSerif-35"/>
      </g>
     </g>
    </g>
    <g id="ytick_3">
     <g id="line2d_21">
      <path d="M 25.214615 133.408211 
L 385.61904 133.408211 
" clip-path="url(#pd441bd77a1)" style="fill: none; stroke: #b0b0b0; stroke-width: 0.1; stroke-linecap: round"/>
     </g>
     <g id="line2d_22"/>
     <g id="text_12">
      <!-- 10 -->
      <g style="fill: #262626" transform="translate(12.807115 136.067665) scale(0.07 -0.07)">
       <use xlink:href="#DejaVuSerif-31"/>
       <use xlink:href="#DejaVuSerif-30" x="63.623047"/>
      </g>
     </g>
    </g>
    <g id="ytick_4">
     <g id="line2d_23">
      <path d="M 25.214615 111.635342 
L 385.61904 111.635342 
" clip-path="url(#pd441bd77a1)" style="fill: none; stroke: #b0b0b0; stroke-width: 0.1; stroke-linecap: round"/>
     </g>
     <g id="line2d_24"/>
     <g id="text_13">
      <!-- 15 -->
      <g style="fill: #262626" transform="translate(12.807115 114.294796) scale(0.07 -0.07)">
       <use xlink:href="#DejaVuSerif-31"/>
       <use xlink:href="#DejaVuSerif-35" x="63.623047"/>
      </g>
     </g>
    </g>
    <g id="ytick_5">
     <g id="line2d_25">
      <path d="M 25.214615 89.862474 
L 385.61904 89.862474 
" clip-path="url(#pd441bd77a1)" style="fill: none; stroke: #b0b0b0; stroke-width: 0.1; stroke-linecap: round"/>
     </g>
     <g id="line2d_26"/>
     <g id="text_14">
      <!-- 20 -->
      <g style="fill: #262626" transform="translate(12.807115 92.521927) scale(0.07 -0.07)">
       <use xlink:href="#DejaVuSerif-32"/>
       <use xlink:href="#DejaVuSerif-30" x="63.623047"/>
      </g>
     </g>
    </g>
    <g id="ytick_6">
     <g id="line2d_27">
      <path d="M 25.214615 68.089605 
L 385.61904 68.089605 
" clip-path="url(#pd441bd77a1)" style="fill: none; stroke: #b0b0b0; stroke-width: 0.1; stroke-linecap: round"/>
     </g>
     <g id="line2d_28"/>
     <g id="text_15">
      <!-- 25 -->
      <g style="fill: #262626" transform="translate(12.807115 70.749058) scale(0.07 -0.07)">
       <use xlink:href="#DejaVuSerif-32"/>
       <use xlink:href="#DejaVuSerif-35" x="63.623047"/>
      </g>
     </g>
    </g>
    <g id="ytick_7">
     <g id="line2d_29">
      <path d="M 25.214615 46.316736 
L 385.61904 46.316736 
" clip-path="url(#pd441bd77a1)" style="fill: none; stroke: #b0b0b0; stroke-width: 0.1; stroke-linecap: round"/>
     </g>
     <g id="line2d_30"/>
     <g id="text_16">
      <!-- 30 -->
      <g style="fill: #262626" transform="translate(12.807115 48.976189) scale(0.07 -0.07)">
       <use xlink:href="#DejaVuSerif-33"/>
       <use xlink:href="#DejaVuSerif-30" x="63.623047"/>
      </g>
     </g>
    </g>
    <g id="text_17">
     <!-- $x_0$ $[m]$ -->
     <g style="fill: #262626" transform="translate(7.559302 120.731245) rotate(-90) scale(0.06 -0.06)">
      <defs>
       <path id="DejaVuSans-Oblique-78" d="M 3841 3500 
L 2234 1784 
L 3219 0 
L 2559 0 
L 1819 1388 
L 531 0 
L -166 0 
L 1556 1844 
L 641 3500 
L 1300 3500 
L 1972 2234 
L 3144 3500 
L 3841 3500 
z
" transform="scale(0.015625)"/>
      </defs>
      <use xlink:href="#DejaVuSans-Oblique-78" transform="translate(0 0.015625)"/>
      <use xlink:href="#DejaVuSans-30" transform="translate(59.179688 -16.390625) scale(0.7)"/>
      <use xlink:href="#DejaVuSerif-20" transform="translate(106.450195 0.015625)"/>
      <use xlink:href="#DejaVuSans-5b" transform="translate(138.237305 0.015625)"/>
      <use xlink:href="#DejaVuSans-Oblique-6d" transform="translate(177.250977 0.015625)"/>
      <use xlink:href="#DejaVuSans-5d" transform="translate(274.663086 0.015625)"/>
     </g>
    </g>
   </g>
   <g id="line2d_31">
    <path d="M 197.598611 176.953949 
L 197.709133 159.170174 
L 198.075826 155.16191 
L 198.629473 151.508425 
L 199.340457 148.246099 
L 200.246191 145.147352 
L 201.432814 141.902904 
L 203.120591 137.988797 
L 208.615349 125.634663 
L 209.970639 121.814694 
L 210.983371 118.303462 
L 211.730966 114.912379 
L 212.229751 111.623443 
L 212.496358 108.382765 
L 212.534517 105.20563 
L 212.351196 102.108619 
L 211.956908 99.139086 
L 211.365668 96.371463 
L 210.529829 93.528445 
L 209.359488 90.362577 
L 207.453837 85.914033 
L 203.835461 77.526739 
L 202.450328 73.679775 
L 201.44263 70.233472 
L 200.709098 66.937128 
L 200.225661 63.746772 
L 199.977737 60.622082 
L 199.957503 57.549933 
L 200.145903 54.671302 
L 200.145903 54.671302 
" clip-path="url(#pd441bd77a1)" style="fill: none; stroke: #0000ff; stroke-width: 0.4; stroke-linecap: round"/>
   </g>
   <g id="patch_3">
    <path d="M 25.214615 195.528177 
L 25.214615 27.094314 
" style="fill: none; stroke: #000000; stroke-linejoin: miter; stroke-linecap: square"/>
   </g>
   <g id="patch_4">
    <path d="M 25.214615 195.528177 
L 385.61904 195.528177 
" style="fill: none; stroke: #000000; stroke-linejoin: miter; stroke-linecap: square"/>
   </g>
   <g id="text_18">
    <!-- Track plot -->
    <g style="fill: #262626" transform="translate(187.255656 21.094314) scale(0.07 -0.07)">
     <defs>
      <path id="DejaVuSerif-54" d="M 1222 0 
L 1222 331 
L 1819 331 
L 1819 4294 
L 447 4294 
L 447 3566 
L 63 3566 
L 63 4666 
L 4206 4666 
L 4206 3566 
L 3822 3566 
L 3822 4294 
L 2450 4294 
L 2450 331 
L 3047 331 
L 3047 0 
L 1222 0 
z
" transform="scale(0.015625)"/>
      <path id="DejaVuSerif-72" d="M 3059 3328 
L 3059 2497 
L 2728 2497 
Q 2713 2744 2591 2866 
Q 2469 2988 2234 2988 
Q 1809 2988 1582 2694 
Q 1356 2400 1356 1850 
L 1356 331 
L 2022 331 
L 2022 0 
L 263 0 
L 263 331 
L 781 331 
L 781 2994 
L 231 2994 
L 231 3322 
L 1356 3322 
L 1356 2731 
Q 1525 3078 1790 3245 
Q 2056 3413 2438 3413 
Q 2578 3413 2733 3391 
Q 2888 3369 3059 3328 
z
" transform="scale(0.015625)"/>
      <path id="DejaVuSerif-61" d="M 2547 1044 
L 2547 1747 
L 1806 1747 
Q 1378 1747 1168 1562 
Q 959 1378 959 997 
Q 959 650 1171 447 
Q 1384 244 1747 244 
Q 2106 244 2326 466 
Q 2547 688 2547 1044 
z
M 3122 2075 
L 3122 331 
L 3634 331 
L 3634 0 
L 2547 0 
L 2547 359 
Q 2356 128 2106 18 
Q 1856 -91 1522 -91 
Q 969 -91 644 203 
Q 319 497 319 997 
Q 319 1513 691 1797 
Q 1063 2081 1741 2081 
L 2547 2081 
L 2547 2309 
Q 2547 2688 2317 2895 
Q 2088 3103 1672 3103 
Q 1328 3103 1125 2947 
Q 922 2791 872 2484 
L 575 2484 
L 575 3156 
Q 875 3284 1158 3348 
Q 1441 3413 1709 3413 
Q 2400 3413 2761 3070 
Q 3122 2728 3122 2075 
z
" transform="scale(0.015625)"/>
      <path id="DejaVuSerif-63" d="M 3291 997 
Q 3169 466 2822 187 
Q 2475 -91 1925 -91 
Q 1200 -91 759 389 
Q 319 869 319 1663 
Q 319 2459 759 2936 
Q 1200 3413 1925 3413 
Q 2241 3413 2553 3339 
Q 2866 3266 3181 3116 
L 3181 2266 
L 2847 2266 
Q 2781 2703 2561 2903 
Q 2341 3103 1931 3103 
Q 1466 3103 1228 2742 
Q 991 2381 991 1663 
Q 991 944 1227 581 
Q 1463 219 1931 219 
Q 2303 219 2525 412 
Q 2747 606 2828 997 
L 3291 997 
z
" transform="scale(0.015625)"/>
      <path id="DejaVuSerif-6b" d="M 1831 0 
L 219 0 
L 219 331 
L 738 331 
L 738 4531 
L 184 4531 
L 184 4863 
L 1313 4863 
L 1313 1697 
L 2713 2988 
L 2234 2988 
L 2234 3322 
L 3738 3322 
L 3738 2988 
L 3169 2988 
L 2181 2075 
L 3444 331 
L 3922 331 
L 3922 0 
L 2284 0 
L 2284 331 
L 2759 331 
L 1766 1697 
L 1313 1275 
L 1313 331 
L 1831 331 
L 1831 0 
z
" transform="scale(0.015625)"/>
      <path id="DejaVuSerif-70" d="M 1313 1825 
L 1313 1497 
Q 1313 897 1542 583 
Q 1772 269 2209 269 
Q 2650 269 2876 622 
Q 3103 975 3103 1663 
Q 3103 2353 2876 2703 
Q 2650 3053 2209 3053 
Q 1772 3053 1542 2737 
Q 1313 2422 1313 1825 
z
M 738 2988 
L 184 2988 
L 184 3322 
L 1313 3322 
L 1313 2803 
Q 1481 3116 1742 3264 
Q 2003 3413 2388 3413 
Q 3000 3413 3387 2928 
Q 3775 2444 3775 1663 
Q 3775 881 3387 395 
Q 3000 -91 2388 -91 
Q 2003 -91 1742 57 
Q 1481 206 1313 519 
L 1313 -997 
L 1856 -997 
L 1856 -1331 
L 184 -1331 
L 184 -997 
L 738 -997 
L 738 2988 
z
" transform="scale(0.015625)"/>
      <path id="DejaVuSerif-6c" d="M 1313 331 
L 1856 331 
L 1856 0 
L 184 0 
L 184 331 
L 738 331 
L 738 4531 
L 184 4531 
L 184 4863 
L 1313 4863 
L 1313 331 
z
" transform="scale(0.015625)"/>
      <path id="DejaVuSerif-6f" d="M 1925 219 
Q 2388 219 2623 584 
Q 2859 950 2859 1663 
Q 2859 2375 2623 2739 
Q 2388 3103 1925 3103 
Q 1463 3103 1227 2739 
Q 991 2375 991 1663 
Q 991 950 1228 584 
Q 1466 219 1925 219 
z
M 1925 -91 
Q 1200 -91 759 389 
Q 319 869 319 1663 
Q 319 2456 758 2934 
Q 1197 3413 1925 3413 
Q 2653 3413 3092 2934 
Q 3531 2456 3531 1663 
Q 3531 869 3092 389 
Q 2653 -91 1925 -91 
z
" transform="scale(0.015625)"/>
      <path id="DejaVuSerif-74" d="M 691 2988 
L 184 2988 
L 184 3322 
L 691 3322 
L 691 4353 
L 1269 4353 
L 1269 3322 
L 2350 3322 
L 2350 2988 
L 1269 2988 
L 1269 878 
Q 1269 456 1350 337 
Q 1431 219 1650 219 
Q 1875 219 1978 351 
Q 2081 484 2088 781 
L 2522 781 
Q 2497 328 2275 118 
Q 2053 -91 1600 -91 
Q 1103 -91 897 129 
Q 691 350 691 878 
L 691 2988 
z
" transform="scale(0.015625)"/>
     </defs>
     <use xlink:href="#DejaVuSerif-54"/>
     <use xlink:href="#DejaVuSerif-72" x="66.699219"/>
     <use xlink:href="#DejaVuSerif-61" x="114.501953"/>
     <use xlink:href="#DejaVuSerif-63" x="174.121094"/>
     <use xlink:href="#DejaVuSerif-6b" x="230.126953"/>
     <use xlink:href="#DejaVuSerif-20" x="290.722656"/>
     <use xlink:href="#DejaVuSerif-70" x="322.509766"/>
     <use xlink:href="#DejaVuSerif-6c" x="386.523438"/>
     <use xlink:href="#DejaVuSerif-6f" x="418.505859"/>
     <use xlink:href="#DejaVuSerif-74" x="478.710938"/>
    </g>
   </g>
   <g id="legend_1">
    <g id="line2d_32">
     <path d="M 280.792946 36.26322 
L 287.792946 36.26322 
L 294.792946 36.26322 
" style="fill: none; stroke: #000000; stroke-width: 0.7; stroke-linecap: round"/>
    </g>
    <g id="text_19">
     <!-- experiment -->
     <g style="fill: #262626" transform="translate(300.392946 38.71322) scale(0.07 -0.07)">
      <defs>
       <path id="DejaVuSerif-65" d="M 3469 1600 
L 991 1600 
L 991 1575 
Q 991 903 1244 561 
Q 1497 219 1991 219 
Q 2369 219 2611 417 
Q 2853 616 2950 1006 
L 3413 1006 
Q 3275 459 2904 184 
Q 2534 -91 1931 -91 
Q 1203 -91 761 389 
Q 319 869 319 1663 
Q 319 2450 753 2931 
Q 1188 3413 1894 3413 
Q 2647 3413 3050 2948 
Q 3453 2484 3469 1600 
z
M 2791 1931 
Q 2772 2513 2545 2808 
Q 2319 3103 1894 3103 
Q 1497 3103 1269 2806 
Q 1041 2509 991 1931 
L 2791 1931 
z
" transform="scale(0.015625)"/>
       <path id="DejaVuSerif-78" d="M 1863 2028 
L 2559 2988 
L 2113 2988 
L 2113 3322 
L 3391 3322 
L 3391 2988 
L 2950 2988 
L 2059 1759 
L 3097 331 
L 3531 331 
L 3531 0 
L 1997 0 
L 1997 331 
L 2419 331 
L 1697 1325 
L 972 331 
L 1403 331 
L 1403 0 
L 141 0 
L 141 331 
L 581 331 
L 1497 1594 
L 488 2988 
L 78 2988 
L 78 3322 
L 1563 3322 
L 1563 2988 
L 1166 2988 
L 1863 2028 
z
" transform="scale(0.015625)"/>
       <path id="DejaVuSerif-69" d="M 622 4353 
Q 622 4497 726 4603 
Q 831 4709 978 4709 
Q 1122 4709 1226 4603 
Q 1331 4497 1331 4353 
Q 1331 4206 1228 4103 
Q 1125 4000 978 4000 
Q 831 4000 726 4103 
Q 622 4206 622 4353 
z
M 1356 331 
L 1900 331 
L 1900 0 
L 231 0 
L 231 331 
L 781 331 
L 781 2988 
L 231 2988 
L 231 3322 
L 1356 3322 
L 1356 331 
z
" transform="scale(0.015625)"/>
       <path id="DejaVuSerif-6d" d="M 3316 2675 
Q 3481 3041 3739 3227 
Q 3997 3413 4341 3413 
Q 4863 3413 5119 3089 
Q 5375 2766 5375 2113 
L 5375 331 
L 5894 331 
L 5894 0 
L 4300 0 
L 4300 331 
L 4800 331 
L 4800 2047 
Q 4800 2556 4650 2772 
Q 4500 2988 4153 2988 
Q 3769 2988 3567 2697 
Q 3366 2406 3366 1850 
L 3366 331 
L 3866 331 
L 3866 0 
L 2291 0 
L 2291 331 
L 2791 331 
L 2791 2069 
Q 2791 2566 2641 2777 
Q 2491 2988 2144 2988 
Q 1759 2988 1557 2697 
Q 1356 2406 1356 1850 
L 1356 331 
L 1856 331 
L 1856 0 
L 263 0 
L 263 331 
L 781 331 
L 781 2994 
L 231 2994 
L 231 3322 
L 1356 3322 
L 1356 2731 
Q 1516 3063 1762 3238 
Q 2009 3413 2322 3413 
Q 2709 3413 2968 3220 
Q 3228 3028 3316 2675 
z
" transform="scale(0.015625)"/>
       <path id="DejaVuSerif-6e" d="M 263 0 
L 263 331 
L 781 331 
L 781 2988 
L 231 2988 
L 231 3322 
L 1356 3322 
L 1356 2731 
Q 1516 3069 1770 3241 
Q 2025 3413 2363 3413 
Q 2913 3413 3172 3097 
Q 3431 2781 3431 2113 
L 3431 331 
L 3944 331 
L 3944 0 
L 2356 0 
L 2356 331 
L 2853 331 
L 2853 1931 
Q 2853 2541 2703 2767 
Q 2553 2994 2175 2994 
Q 1775 2994 1565 2701 
Q 1356 2409 1356 1850 
L 1356 331 
L 1856 331 
L 1856 0 
L 263 0 
z
" transform="scale(0.015625)"/>
      </defs>
      <use xlink:href="#DejaVuSerif-65"/>
      <use xlink:href="#DejaVuSerif-78" x="59.179688"/>
      <use xlink:href="#DejaVuSerif-70" x="115.576172"/>
      <use xlink:href="#DejaVuSerif-65" x="179.589844"/>
      <use xlink:href="#DejaVuSerif-72" x="238.769531"/>
      <use xlink:href="#DejaVuSerif-69" x="286.572266"/>
      <use xlink:href="#DejaVuSerif-6d" x="318.554688"/>
      <use xlink:href="#DejaVuSerif-65" x="413.378906"/>
      <use xlink:href="#DejaVuSerif-6e" x="472.558594"/>
      <use xlink:href="#DejaVuSerif-74" x="536.962891"/>
     </g>
    </g>
    <g id="line2d_33">
     <path d="M 280.792946 46.537907 
L 287.792946 46.537907 
L 294.792946 46.537907 
" style="fill: none; stroke: #0000ff; stroke-width: 0.4; stroke-linecap: round"/>
    </g>
    <g id="text_20">
     <!-- semi-empirical rudder -->
     <g style="fill: #262626" transform="translate(300.392946 48.987907) scale(0.07 -0.07)">
      <defs>
       <path id="DejaVuSerif-73" d="M 359 184 
L 359 959 
L 691 959 
Q 703 588 923 403 
Q 1144 219 1575 219 
Q 1963 219 2166 364 
Q 2369 509 2369 788 
Q 2369 1006 2220 1140 
Q 2072 1275 1594 1428 
L 1178 1569 
Q 750 1706 558 1912 
Q 366 2119 366 2438 
Q 366 2894 700 3153 
Q 1034 3413 1625 3413 
Q 1888 3413 2178 3344 
Q 2469 3275 2778 3144 
L 2778 2419 
L 2447 2419 
Q 2434 2741 2221 2922 
Q 2009 3103 1644 3103 
Q 1281 3103 1095 2975 
Q 909 2847 909 2591 
Q 909 2381 1050 2254 
Q 1191 2128 1613 1997 
L 2069 1856 
Q 2541 1709 2748 1489 
Q 2956 1269 2956 922 
Q 2956 450 2595 179 
Q 2234 -91 1600 -91 
Q 1278 -91 972 -22 
Q 666 47 359 184 
z
" transform="scale(0.015625)"/>
       <path id="DejaVuSerif-2d" d="M 281 1959 
L 1881 1959 
L 1881 1472 
L 281 1472 
L 281 1959 
z
" transform="scale(0.015625)"/>
       <path id="DejaVuSerif-75" d="M 2266 3322 
L 3341 3322 
L 3341 331 
L 3884 331 
L 3884 0 
L 2766 0 
L 2766 588 
Q 2606 256 2353 82 
Q 2100 -91 1766 -91 
Q 1213 -91 952 223 
Q 691 538 691 1209 
L 691 2988 
L 172 2988 
L 172 3322 
L 1269 3322 
L 1269 1388 
Q 1269 781 1417 556 
Q 1566 331 1947 331 
Q 2347 331 2556 625 
Q 2766 919 2766 1478 
L 2766 2988 
L 2266 2988 
L 2266 3322 
z
" transform="scale(0.015625)"/>
       <path id="DejaVuSerif-64" d="M 3359 331 
L 3909 331 
L 3909 0 
L 2784 0 
L 2784 519 
Q 2616 206 2355 57 
Q 2094 -91 1709 -91 
Q 1097 -91 708 395 
Q 319 881 319 1663 
Q 319 2444 706 2928 
Q 1094 3413 1709 3413 
Q 2094 3413 2355 3264 
Q 2616 3116 2784 2803 
L 2784 4531 
L 2241 4531 
L 2241 4863 
L 3359 4863 
L 3359 331 
z
M 2784 1497 
L 2784 1825 
Q 2784 2422 2554 2737 
Q 2325 3053 1888 3053 
Q 1444 3053 1217 2703 
Q 991 2353 991 1663 
Q 991 975 1217 622 
Q 1444 269 1888 269 
Q 2325 269 2554 583 
Q 2784 897 2784 1497 
z
" transform="scale(0.015625)"/>
      </defs>
      <use xlink:href="#DejaVuSerif-73"/>
      <use xlink:href="#DejaVuSerif-65" x="51.318359"/>
      <use xlink:href="#DejaVuSerif-6d" x="110.498047"/>
      <use xlink:href="#DejaVuSerif-69" x="205.322266"/>
      <use xlink:href="#DejaVuSerif-2d" x="237.304688"/>
      <use xlink:href="#DejaVuSerif-65" x="271.09375"/>
      <use xlink:href="#DejaVuSerif-6d" x="330.273438"/>
      <use xlink:href="#DejaVuSerif-70" x="425.097656"/>
      <use xlink:href="#DejaVuSerif-69" x="489.111328"/>
      <use xlink:href="#DejaVuSerif-72" x="521.09375"/>
      <use xlink:href="#DejaVuSerif-69" x="568.896484"/>
      <use xlink:href="#DejaVuSerif-63" x="600.878906"/>
      <use xlink:href="#DejaVuSerif-61" x="656.884766"/>
      <use xlink:href="#DejaVuSerif-6c" x="716.503906"/>
      <use xlink:href="#DejaVuSerif-20" x="748.486328"/>
      <use xlink:href="#DejaVuSerif-72" x="780.273438"/>
      <use xlink:href="#DejaVuSerif-75" x="828.076172"/>
      <use xlink:href="#DejaVuSerif-64" x="892.480469"/>
      <use xlink:href="#DejaVuSerif-64" x="956.494141"/>
      <use xlink:href="#DejaVuSerif-65" x="1020.507812"/>
      <use xlink:href="#DejaVuSerif-72" x="1079.6875"/>
     </g>
    </g>
   </g>
   <g id="line2d_34">
    <path d="M 197.583012 161.156822 
L 196.553638 162.24971 
L 196.03952 163.34206 
L 195.526539 165.526224 
L 195.542462 180.811615 
L 195.698176 181.903268 
L 196.059993 182.994706 
L 199.151527 182.991485 
L 199.511069 181.899296 
L 199.664508 180.807321 
L 199.648585 165.52193 
L 199.131054 163.338839 
L 198.614661 162.247563 
L 197.583012 161.156822 
" clip-path="url(#pd441bd77a1)" style="fill: none; stroke: #0000ff; stroke-opacity: 0.2; stroke-width: 0.4; stroke-linecap: round"/>
   </g>
   <g id="patch_5">
    <path d="M 197.583012 161.156822 
L 196.553638 162.24971 
L 196.03952 163.34206 
L 195.526539 165.526224 
L 195.542462 180.811615 
L 195.698176 181.903268 
L 196.059993 182.994706 
L 199.151527 182.991485 
L 199.511069 181.899296 
L 199.664508 180.807321 
L 199.648585 165.52193 
L 199.131054 163.338839 
L 198.614661 162.247563 
z
" clip-path="url(#pd441bd77a1)" style="fill: #0000ff; opacity: 0.2"/>
   </g>
   <g id="line2d_35">
    <path d="M 202.548694 132.943178 
L 201.20429 133.611451 
L 200.343376 134.457841 
L 199.10504 136.328735 
L 193.821123 150.671805 
L 193.588748 151.749745 
L 193.549769 152.898931 
L 196.450715 153.967625 
L 197.166581 153.067801 
L 197.689051 152.096731 
L 202.972968 137.753661 
L 203.244322 135.526535 
L 203.138254 134.323914 
L 202.548694 132.943178 
" clip-path="url(#pd441bd77a1)" style="fill: none; stroke: #0000ff; stroke-opacity: 0.2; stroke-width: 0.4; stroke-linecap: round"/>
   </g>
   <g id="patch_6">
    <path d="M 202.548694 132.943178 
L 201.20429 133.611451 
L 200.343376 134.457841 
L 199.10504 136.328735 
L 193.821123 150.671805 
L 193.588748 151.749745 
L 193.549769 152.898931 
L 196.450715 153.967625 
L 197.166581 153.067801 
L 197.689051 152.096731 
L 202.972968 137.753661 
L 203.244322 135.526535 
L 203.138254 134.323914 
z
" clip-path="url(#pd441bd77a1)" style="fill: #0000ff; opacity: 0.2"/>
   </g>
   <g id="line2d_36">
    <path d="M 211.141097 107.357345 
L 209.831216 108.090983 
L 209.013007 108.978723 
L 207.868263 110.908304 
L 203.296756 125.494077 
L 203.117722 126.582148 
L 203.135356 127.73186 
L 206.08539 128.656466 
L 206.756097 127.722496 
L 207.230134 126.726885 
L 211.801641 112.141113 
L 211.963041 109.90333 
L 211.797905 108.707388 
L 211.141097 107.357345 
" clip-path="url(#pd441bd77a1)" style="fill: none; stroke: #0000ff; stroke-opacity: 0.2; stroke-width: 0.4; stroke-linecap: round"/>
   </g>
   <g id="patch_7">
    <path d="M 211.141097 107.357345 
L 209.831216 108.090983 
L 209.013007 108.978723 
L 207.868263 110.908304 
L 203.296756 125.494077 
L 203.117722 126.582148 
L 203.135356 127.73186 
L 206.08539 128.656466 
L 206.756097 127.722496 
L 207.230134 126.726885 
L 211.801641 112.141113 
L 211.963041 109.90333 
L 211.797905 108.707388 
z
" clip-path="url(#pd441bd77a1)" style="fill: #0000ff; opacity: 0.2"/>
   </g>
   <g id="line2d_37">
    <path d="M 212.342184 81.744096 
L 211.483761 82.975811 
L 211.134972 84.13162 
L 210.947028 86.36733 
L 213.198859 101.485951 
L 213.512594 102.54308 
L 214.030183 103.569847 
L 217.087987 103.114405 
L 217.283886 101.981368 
L 217.275931 100.878695 
L 215.024101 85.760074 
L 214.192777 83.676178 
L 213.522297 82.672183 
L 212.342184 81.744096 
" clip-path="url(#pd441bd77a1)" style="fill: none; stroke: #0000ff; stroke-opacity: 0.2; stroke-width: 0.4; stroke-linecap: round"/>
   </g>
   <g id="patch_8">
    <path d="M 212.342184 81.744096 
L 211.483761 82.975811 
L 211.134972 84.13162 
L 210.947028 86.36733 
L 213.198859 101.485951 
L 213.512594 102.54308 
L 214.030183 103.569847 
L 217.087987 103.114405 
L 217.283886 101.981368 
L 217.275931 100.878695 
L 215.024101 85.760074 
L 214.192777 83.676178 
L 213.522297 82.672183 
z
" clip-path="url(#pd441bd77a1)" style="fill: #0000ff; opacity: 0.2"/>
   </g>
   <g id="line2d_38">
    <path d="M 205.293102 58.670935 
L 204.82048 60.095941 
L 204.81485 61.303217 
L 205.270585 63.500039 
L 211.729678 77.353687 
L 212.33114 78.277914 
L 213.119399 79.115049 
L 215.921357 77.808671 
L 215.786888 76.666714 
L 215.465622 75.611849 
L 209.006529 61.758201 
L 207.616809 59.996838 
L 206.688452 59.225021 
L 205.293102 58.670935 
" clip-path="url(#pd441bd77a1)" style="fill: none; stroke: #0000ff; stroke-opacity: 0.2; stroke-width: 0.4; stroke-linecap: round"/>
   </g>
   <g id="patch_9">
    <path d="M 205.293102 58.670935 
L 204.82048 60.095941 
L 204.81485 61.303217 
L 205.270585 63.500039 
L 211.729678 77.353687 
L 212.33114 78.277914 
L 213.119399 79.115049 
L 215.921357 77.808671 
L 215.786888 76.666714 
L 215.465622 75.611849 
L 209.006529 61.758201 
L 207.616809 59.996838 
L 206.688452 59.225021 
z
" clip-path="url(#pd441bd77a1)" style="fill: #0000ff; opacity: 0.2"/>
   </g>
   <g id="line2d_39">
    <path d="M 200.715897 34.750398 
L 199.784453 35.927864 
L 199.366305 37.060427 
L 199.043304 39.280651 
L 200.375368 54.507897 
L 200.624504 55.582087 
L 201.078959 56.638316 
L 204.158733 56.3689 
L 204.422893 55.249808 
L 204.481734 54.148677 
L 203.14967 38.92143 
L 202.446079 36.791012 
L 201.837636 35.748254 
L 200.715897 34.750398 
" clip-path="url(#pd441bd77a1)" style="fill: none; stroke: #ff0000; stroke-opacity: 0.2; stroke-width: 0.4; stroke-linecap: round"/>
   </g>
   <g id="patch_10">
    <path d="M 200.715897 34.750398 
L 199.784453 35.927864 
L 199.366305 37.060427 
L 199.043304 39.280651 
L 200.375368 54.507897 
L 200.624504 55.582087 
L 201.078959 56.638316 
L 204.158733 56.3689 
L 204.422893 55.249808 
L 204.481734 54.148677 
L 203.14967 38.92143 
L 202.446079 36.791012 
L 201.837636 35.748254 
z
" clip-path="url(#pd441bd77a1)" style="fill: #ff0000; opacity: 0.2"/>
   </g>
   <g id="line2d_40">
    <path d="M 197.598611 166.035807 
L 196.568099 167.127621 
L 196.052843 168.219435 
L 195.537587 170.403064 
L 195.537587 185.688463 
L 195.692163 186.780278 
L 196.052843 187.872092 
L 199.144379 187.872092 
L 199.505058 186.780278 
L 199.659635 185.688463 
L 199.659635 170.403064 
L 199.144379 168.219435 
L 198.629123 167.127621 
L 197.598611 166.035807 
" clip-path="url(#pd441bd77a1)" style="fill: none; stroke: #0000ff; stroke-opacity: 0.2; stroke-width: 0.4; stroke-linecap: round"/>
   </g>
   <g id="patch_11">
    <path d="M 197.598611 166.035807 
L 196.568099 167.127621 
L 196.052843 168.219435 
L 195.537587 170.403064 
L 195.537587 185.688463 
L 195.692163 186.780278 
L 196.052843 187.872092 
L 199.144379 187.872092 
L 199.505058 186.780278 
L 199.659635 185.688463 
L 199.659635 170.403064 
L 199.144379 168.219435 
L 198.629123 167.127621 
z
" clip-path="url(#pd441bd77a1)" style="fill: #0000ff; opacity: 0.2"/>
   </g>
   <g id="line2d_41">
    <path d="M 206.729714 132.22764 
L 205.300927 132.688705 
L 204.323793 133.397758 
L 202.821178 135.063852 
L 195.464444 148.462431 
L 195.074459 149.493868 
L 194.865135 150.624502 
L 197.575054 152.112432 
L 198.416692 151.328982 
L 199.077669 150.446338 
L 206.434403 137.047759 
L 207.033712 134.885688 
L 207.10754 133.680659 
L 206.729714 132.22764 
" clip-path="url(#pd441bd77a1)" style="fill: none; stroke: #0000ff; stroke-opacity: 0.2; stroke-width: 0.4; stroke-linecap: round"/>
   </g>
   <g id="patch_12">
    <path d="M 206.729714 132.22764 
L 205.300927 132.688705 
L 204.323793 133.397758 
L 202.821178 135.063852 
L 195.464444 148.462431 
L 195.074459 149.493868 
L 194.865135 150.624502 
L 197.575054 152.112432 
L 198.416692 151.328982 
L 199.077669 150.446338 
L 206.434403 137.047759 
L 207.033712 134.885688 
L 207.10754 133.680659 
z
" clip-path="url(#pd441bd77a1)" style="fill: #0000ff; opacity: 0.2"/>
   </g>
   <g id="line2d_42">
    <path d="M 211.147242 100.275614 
L 210.236054 101.468823 
L 209.837318 102.608366 
L 209.552301 104.833784 
L 211.144358 120.036047 
L 211.411812 121.105823 
L 211.884248 122.154132 
L 214.958969 121.832132 
L 215.203968 120.70869 
L 215.243986 119.606714 
L 213.65193 104.404451 
L 212.91204 102.286366 
L 212.285868 101.254156 
L 211.147242 100.275614 
" clip-path="url(#pd441bd77a1)" style="fill: none; stroke: #0000ff; stroke-opacity: 0.2; stroke-width: 0.4; stroke-linecap: round"/>
   </g>
   <g id="patch_13">
    <path d="M 211.147242 100.275614 
L 210.236054 101.468823 
L 209.837318 102.608366 
L 209.552301 104.833784 
L 211.144358 120.036047 
L 211.411812 121.105823 
L 211.884248 122.154132 
L 214.958969 121.832132 
L 215.203968 120.70869 
L 215.243986 119.606714 
L 213.65193 104.404451 
L 212.91204 102.286366 
L 212.285868 101.254156 
z
" clip-path="url(#pd441bd77a1)" style="fill: #0000ff; opacity: 0.2"/>
   </g>
   <g id="line2d_43">
    <path d="M 201.874182 72.449438 
L 201.327317 73.847635 
L 201.258244 75.052946 
L 201.597888 77.270685 
L 207.319933 91.444662 
L 207.871988 92.399224 
L 208.615159 93.276631 
L 211.481906 92.119324 
L 211.407642 90.971878 
L 211.142262 89.901585 
L 205.420216 75.727608 
L 204.12499 73.895639 
L 203.238481 73.076096 
L 201.874182 72.449438 
" clip-path="url(#pd441bd77a1)" style="fill: none; stroke: #0000ff; stroke-opacity: 0.2; stroke-width: 0.4; stroke-linecap: round"/>
   </g>
   <g id="patch_14">
    <path d="M 201.874182 72.449438 
L 201.327317 73.847635 
L 201.258244 75.052946 
L 201.597888 77.270685 
L 207.319933 91.444662 
L 207.871988 92.399224 
L 208.615159 93.276631 
L 211.481906 92.119324 
L 211.407642 90.971878 
L 211.142262 89.901585 
L 205.420216 75.727608 
L 204.12499 73.895639 
L 203.238481 73.076096 
z
" clip-path="url(#pd441bd77a1)" style="fill: #0000ff; opacity: 0.2"/>
   </g>
   <g id="line2d_44">
    <path d="M 203.878397 44.410974 
L 202.536724 45.084714 
L 201.679263 45.934601 
L 200.448552 47.81052 
L 195.22306 62.174979 
L 194.995074 63.253855 
L 194.960773 64.403191 
L 197.866045 65.460068 
L 198.578243 64.557338 
L 199.096756 63.584149 
L 204.322248 49.21969 
L 204.584534 46.991478 
L 204.473572 45.789299 
L 203.878397 44.410974 
" clip-path="url(#pd441bd77a1)" style="fill: none; stroke: #ff0000; stroke-opacity: 0.2; stroke-width: 0.4; stroke-linecap: round"/>
   </g>
   <g id="patch_15">
    <path d="M 203.878397 44.410974 
L 202.536724 45.084714 
L 201.679263 45.934601 
L 200.448552 47.81052 
L 195.22306 62.174979 
L 194.995074 63.253855 
L 194.960773 64.403191 
L 197.866045 65.460068 
L 198.578243 64.557338 
L 199.096756 63.584149 
L 204.322248 49.21969 
L 204.584534 46.991478 
L 204.473572 45.789299 
z
" clip-path="url(#pd441bd77a1)" style="fill: #ff0000; opacity: 0.2"/>
   </g>
   <g id="line2d_45">
    <path d="M 197.594386 172.074959 
L 197.672412 152.948407 
L 198.033014 148.445323 
L 198.584924 144.30484 
L 199.315224 140.483808 
L 200.186632 137.095772 
L 201.295861 133.68889 
L 202.827137 129.746988 
L 206.25745 121.709442 
L 208.616734 115.86133 
L 210.2685 111.17585 
L 211.544098 106.896841 
L 212.551366 102.746681 
L 213.276154 98.829959 
L 213.762262 94.988961 
L 214.009964 91.26935 
L 214.030357 87.616295 
L 213.829984 84.111968 
L 213.410508 80.664859 
L 212.809556 77.522977 
L 211.993278 74.442782 
L 210.867053 71.087576 
L 209.024224 66.368694 
L 204.559151 55.128471 
L 203.006885 50.480726 
L 201.815541 46.22477 
L 201.667371 45.627003 
L 201.667371 45.627003 
" clip-path="url(#pd441bd77a1)" style="fill: none; stroke: #000000; stroke-width: 0.7; stroke-linecap: round"/>
   </g>
  </g>
  <g id="text_21">
   <!-- zigzag 20/20 -->
   <g style="fill: #262626" transform="translate(171.735187 8.219615) scale(0.07 -0.07)">
    <defs>
     <path id="DejaVuSerif-7a" d="M 256 0 
L 256 269 
L 2338 2988 
L 691 2988 
L 691 2413 
L 359 2413 
L 359 3322 
L 3078 3322 
L 3078 3053 
L 997 331 
L 2803 331 
L 2803 934 
L 3138 934 
L 3138 0 
L 256 0 
z
" transform="scale(0.015625)"/>
     <path id="DejaVuSerif-67" d="M 3359 2988 
L 3359 72 
Q 3359 -644 2965 -1033 
Q 2572 -1422 1844 -1422 
Q 1516 -1422 1216 -1362 
Q 916 -1303 641 -1184 
L 641 -488 
L 941 -488 
Q 997 -813 1206 -963 
Q 1416 -1113 1806 -1113 
Q 2313 -1113 2548 -827 
Q 2784 -541 2784 72 
L 2784 519 
Q 2616 206 2355 57 
Q 2094 -91 1709 -91 
Q 1097 -91 708 395 
Q 319 881 319 1663 
Q 319 2444 706 2928 
Q 1094 3413 1709 3413 
Q 2094 3413 2355 3264 
Q 2616 3116 2784 2803 
L 2784 3322 
L 3909 3322 
L 3909 2988 
L 3359 2988 
z
M 2784 1825 
Q 2784 2422 2554 2737 
Q 2325 3053 1888 3053 
Q 1444 3053 1217 2703 
Q 991 2353 991 1663 
Q 991 975 1217 622 
Q 1444 269 1888 269 
Q 2325 269 2554 583 
Q 2784 897 2784 1497 
L 2784 1825 
z
" transform="scale(0.015625)"/>
     <path id="DejaVuSerif-2f" d="M 1656 4666 
L 2156 4666 
L 500 -594 
L 0 -594 
L 1656 4666 
z
" transform="scale(0.015625)"/>
    </defs>
    <use xlink:href="#DejaVuSerif-7a"/>
    <use xlink:href="#DejaVuSerif-69" x="52.685547"/>
    <use xlink:href="#DejaVuSerif-67" x="84.667969"/>
    <use xlink:href="#DejaVuSerif-7a" x="148.681641"/>
    <use xlink:href="#DejaVuSerif-61" x="201.367188"/>
    <use xlink:href="#DejaVuSerif-67" x="260.986328"/>
    <use xlink:href="#DejaVuSerif-20" x="325"/>
    <use xlink:href="#DejaVuSerif-32" x="356.787109"/>
    <use xlink:href="#DejaVuSerif-30" x="420.410156"/>
    <use xlink:href="#DejaVuSerif-2f" x="484.033203"/>
    <use xlink:href="#DejaVuSerif-32" x="517.724609"/>
    <use xlink:href="#DejaVuSerif-30" x="581.347656"/>
   </g>
  </g>
 </g>
 <defs>
  <clipPath id="pd441bd77a1">
   <rect x="25.214615" y="27.094314" width="360.404425" height="168.433863"/>
  </clipPath>
 </defs>
</svg>
