<?xml version="1.0" encoding="utf-8" standalone="no"?>
<!DOCTYPE svg PUBLIC "-//W3C//DTD SVG 1.1//EN"
  "http://www.w3.org/Graphics/SVG/1.1/DTD/svg11.dtd">
<svg xmlns:xlink="http://www.w3.org/1999/xlink" width="129.53976pt" height="72.874368pt" viewBox="0 0 129.53976 72.874368" xmlns="http://www.w3.org/2000/svg" version="1.1">
 <metadata>
  <rdf:RDF xmlns:dc="http://purl.org/dc/elements/1.1/" xmlns:cc="http://creativecommons.org/ns#" xmlns:rdf="http://www.w3.org/1999/02/22-rdf-syntax-ns#">
   <cc:Work>
    <dc:type rdf:resource="http://purl.org/dc/dcmitype/StillImage"/>
    <dc:date>2025-01-02T14:26:38.560499</dc:date>
    <dc:format>image/svg+xml</dc:format>
    <dc:creator>
     <cc:Agent>
      <dc:title>Matplotlib v3.8.2, https://matplotlib.org/</dc:title>
     </cc:Agent>
    </dc:creator>
   </cc:Work>
  </rdf:RDF>
 </metadata>
 <defs>
  <style type="text/css">*{stroke-linejoin: round; stroke-linecap: butt}</style>
 </defs>
 <g id="figure_1">
  <g id="patch_1">
   <path d="M 0 72.874368 
L 129.53976 72.874368 
L 129.53976 0 
L 0 0 
z
" style="fill: #ffffff"/>
  </g>
  <g id="patch_2">
   <path d="M 31.332936 69.874128 
L 98.206824 69.874128 
L 98.206824 3.00024 
L 31.332936 3.00024 
z
" style="fill: #ffffff"/>
  </g>
  <g id="pane3d_1">
   <g id="patch_3">
    <path d="M 95.53931 49.888215 
L 65.673581 37.145691 
L 65.673581 9.540638 
L 96.687927 20.626677 
" style="fill: #f2f2f2; opacity: 0.5; stroke: #f2f2f2; stroke-linejoin: miter"/>
   </g>
  </g>
  <g id="pane3d_2">
   <g id="patch_4">
    <path d="M 35.807853 49.888215 
L 65.673581 37.145691 
L 65.673581 9.540638 
L 34.659235 20.626677 
" style="fill: #e6e6e6; opacity: 0.5; stroke: #e6e6e6; stroke-linejoin: miter"/>
   </g>
  </g>
  <g id="pane3d_3">
   <g id="patch_5">
    <path d="M 65.673581 64.693511 
L 95.53931 49.888215 
L 65.673581 37.145691 
L 35.807853 49.888215 
" style="fill: #ececec; opacity: 0.5; stroke: #ececec; stroke-linejoin: miter"/>
   </g>
  </g>
  <g id="grid3d_1">
   <g id="Line3DCollection_1">
    <path d="M 67.717431 63.680316 
L 37.841023 49.020742 
L 36.775871 19.870088 
" style="fill: none; stroke: #b0b0b0; stroke-width: 0.1"/>
    <path d="M 81.187276 57.002929 
L 51.279624 43.287022 
L 50.746759 14.876212 
" style="fill: none; stroke: #b0b0b0; stroke-width: 0.1"/>
    <path d="M 93.772658 50.763995 
L 63.89756 37.903449 
L 63.833891 10.198233 
" style="fill: none; stroke: #b0b0b0; stroke-width: 0.1"/>
   </g>
  </g>
  <g id="grid3d_2">
   <g id="Line3DCollection_2">
    <path d="M 83.453645 15.896099 
L 82.814704 44.459129 
L 52.907895 58.365195 
" style="fill: none; stroke: #b0b0b0; stroke-width: 0.1"/>
    <path d="M 67.48539 10.188267 
L 67.42269 37.891967 
L 37.547726 50.75072 
" style="fill: none; stroke: #b0b0b0; stroke-width: 0.1"/>
   </g>
  </g>
  <g id="grid3d_3">
   <g id="Line3DCollection_3">
    <path d="M 35.345656 38.113542 
L 65.673581 26.019812 
L 96.001507 38.113542 
" style="fill: none; stroke: #b0b0b0; stroke-width: 0.1"/>
    <path d="M 34.81028 24.474611 
L 65.673581 13.162316 
L 96.536882 24.474611 
" style="fill: none; stroke: #b0b0b0; stroke-width: 0.1"/>
   </g>
  </g>
  <g id="axis3d_1">
   <g id="line2d_1">
    <path d="M 95.53931 49.888215 
L 65.673581 64.693511 
" style="fill: none; stroke: #000000; stroke-linecap: round"/>
   </g>
   <g id="xtick_1">
    <g id="line2d_2">
     <path d="M 67.45934 63.553677 
L 68.234613 63.934084 
" style="fill: none; stroke: #262626; stroke-width: 0.8; stroke-linecap: round"/>
    </g>
    <g id="text_1">
     <!-- −10 -->
     <g style="fill: #262626" transform="translate(71.107468 84.257945) scale(0.07 -0.07)">
      <defs>
       <path id="DejaVuSerif-2212" d="M 678 2259 
L 4684 2259 
L 4684 1753 
L 678 1753 
L 678 2259 
z
" transform="scale(0.015625)"/>
       <path id="DejaVuSerif-31" d="M 909 0 
L 909 331 
L 1722 331 
L 1722 4213 
L 781 3603 
L 781 4013 
L 1919 4750 
L 2350 4750 
L 2350 331 
L 3163 331 
L 3163 0 
L 909 0 
z
" transform="scale(0.015625)"/>
       <path id="DejaVuSerif-30" d="M 2034 219 
Q 2513 219 2750 744 
Q 2988 1269 2988 2328 
Q 2988 3391 2750 3916 
Q 2513 4441 2034 4441 
Q 1556 4441 1318 3916 
Q 1081 3391 1081 2328 
Q 1081 1269 1318 744 
Q 1556 219 2034 219 
z
M 2034 -91 
Q 1275 -91 848 546 
Q 422 1184 422 2328 
Q 422 3475 848 4112 
Q 1275 4750 2034 4750 
Q 2797 4750 3222 4112 
Q 3647 3475 3647 2328 
Q 3647 1184 3222 546 
Q 2797 -91 2034 -91 
z
" transform="scale(0.015625)"/>
      </defs>
      <use xlink:href="#DejaVuSerif-2212"/>
      <use xlink:href="#DejaVuSerif-31" x="83.789062"/>
      <use xlink:href="#DejaVuSerif-30" x="147.412109"/>
     </g>
    </g>
   </g>
   <g id="xtick_2">
    <g id="line2d_3">
     <path d="M 80.929562 56.884739 
L 81.703666 57.23975 
" style="fill: none; stroke: #262626; stroke-width: 0.8; stroke-linecap: round"/>
    </g>
    <g id="text_2">
     <!-- 0 -->
     <g style="fill: #262626" transform="translate(89.543601 76.967956) scale(0.07 -0.07)">
      <use xlink:href="#DejaVuSerif-30"/>
     </g>
    </g>
   </g>
   <g id="xtick_3">
    <g id="line2d_4">
     <path d="M 93.515829 50.653436 
L 94.287243 50.985512 
" style="fill: none; stroke: #262626; stroke-width: 0.8; stroke-linecap: round"/>
    </g>
    <g id="text_3">
     <!-- 10 -->
     <g style="fill: #262626" transform="translate(99.710251 70.162732) scale(0.07 -0.07)">
      <use xlink:href="#DejaVuSerif-31"/>
      <use xlink:href="#DejaVuSerif-30" x="63.623047"/>
     </g>
    </g>
   </g>
   <g id="text_4">
    <!-- $\beta$ [deg] -->
    <g style="fill: #262626" transform="translate(93.725017 90.961612) scale(0.06 -0.06)">
     <defs>
      <path id="DejaVuSans-Oblique-3b2" d="M 872 216 
L 572 -1331 
L -6 -1331 
L 928 3478 
Q 1206 4903 2538 4903 
Q 3888 4903 3659 3700 
Q 3503 2844 2894 2531 
Q 3713 2250 3553 1416 
Q 3272 -69 1759 -66 
Q 1097 -63 872 216 
z
M 1019 966 
Q 1259 422 1875 425 
Q 2775 425 2966 1406 
Q 3138 2288 1675 2219 
L 1778 2750 
Q 2909 2731 3106 3750 
Q 3241 4438 2509 4434 
Q 1691 4434 1503 3459 
L 1019 966 
z
" transform="scale(0.015625)"/>
      <path id="DejaVuSerif-20" transform="scale(0.015625)"/>
      <path id="DejaVuSerif-5b" d="M 550 4863 
L 2003 4863 
L 2003 4531 
L 1147 4531 
L 1147 -513 
L 2003 -513 
L 2003 -844 
L 550 -844 
L 550 4863 
z
" transform="scale(0.015625)"/>
      <path id="DejaVuSerif-64" d="M 3359 331 
L 3909 331 
L 3909 0 
L 2784 0 
L 2784 519 
Q 2616 206 2355 57 
Q 2094 -91 1709 -91 
Q 1097 -91 708 395 
Q 319 881 319 1663 
Q 319 2444 706 2928 
Q 1094 3413 1709 3413 
Q 2094 3413 2355 3264 
Q 2616 3116 2784 2803 
L 2784 4531 
L 2241 4531 
L 2241 4863 
L 3359 4863 
L 3359 331 
z
M 2784 1497 
L 2784 1825 
Q 2784 2422 2554 2737 
Q 2325 3053 1888 3053 
Q 1444 3053 1217 2703 
Q 991 2353 991 1663 
Q 991 975 1217 622 
Q 1444 269 1888 269 
Q 2325 269 2554 583 
Q 2784 897 2784 1497 
z
" transform="scale(0.015625)"/>
      <path id="DejaVuSerif-65" d="M 3469 1600 
L 991 1600 
L 991 1575 
Q 991 903 1244 561 
Q 1497 219 1991 219 
Q 2369 219 2611 417 
Q 2853 616 2950 1006 
L 3413 1006 
Q 3275 459 2904 184 
Q 2534 -91 1931 -91 
Q 1203 -91 761 389 
Q 319 869 319 1663 
Q 319 2450 753 2931 
Q 1188 3413 1894 3413 
Q 2647 3413 3050 2948 
Q 3453 2484 3469 1600 
z
M 2791 1931 
Q 2772 2513 2545 2808 
Q 2319 3103 1894 3103 
Q 1497 3103 1269 2806 
Q 1041 2509 991 1931 
L 2791 1931 
z
" transform="scale(0.015625)"/>
      <path id="DejaVuSerif-67" d="M 3359 2988 
L 3359 72 
Q 3359 -644 2965 -1033 
Q 2572 -1422 1844 -1422 
Q 1516 -1422 1216 -1362 
Q 916 -1303 641 -1184 
L 641 -488 
L 941 -488 
Q 997 -813 1206 -963 
Q 1416 -1113 1806 -1113 
Q 2313 -1113 2548 -827 
Q 2784 -541 2784 72 
L 2784 519 
Q 2616 206 2355 57 
Q 2094 -91 1709 -91 
Q 1097 -91 708 395 
Q 319 881 319 1663 
Q 319 2444 706 2928 
Q 1094 3413 1709 3413 
Q 2094 3413 2355 3264 
Q 2616 3116 2784 2803 
L 2784 3322 
L 3909 3322 
L 3909 2988 
L 3359 2988 
z
M 2784 1825 
Q 2784 2422 2554 2737 
Q 2325 3053 1888 3053 
Q 1444 3053 1217 2703 
Q 991 2353 991 1663 
Q 991 975 1217 622 
Q 1444 269 1888 269 
Q 2325 269 2554 583 
Q 2784 897 2784 1497 
L 2784 1825 
z
" transform="scale(0.015625)"/>
      <path id="DejaVuSerif-5d" d="M 1947 4863 
L 1947 -844 
L 494 -844 
L 494 -513 
L 1350 -513 
L 1350 4531 
L 494 4531 
L 494 4863 
L 1947 4863 
z
" transform="scale(0.015625)"/>
     </defs>
     <use xlink:href="#DejaVuSans-Oblique-3b2" transform="translate(0 0.390625)"/>
     <use xlink:href="#DejaVuSerif-20" transform="translate(63.818359 0.390625)"/>
     <use xlink:href="#DejaVuSerif-5b" transform="translate(95.605469 0.390625)"/>
     <use xlink:href="#DejaVuSerif-64" transform="translate(134.619141 0.390625)"/>
     <use xlink:href="#DejaVuSerif-65" transform="translate(198.632812 0.390625)"/>
     <use xlink:href="#DejaVuSerif-67" transform="translate(257.8125 0.390625)"/>
     <use xlink:href="#DejaVuSerif-5d" transform="translate(321.826172 0.390625)"/>
    </g>
   </g>
  </g>
  <g id="axis3d_2">
   <g id="line2d_5">
    <path d="M 35.807853 49.888215 
L 65.673581 64.693511 
" style="fill: none; stroke: #000000; stroke-linecap: round"/>
   </g>
   <g id="xtick_4">
    <g id="line2d_6">
     <path d="M 53.165733 58.245305 
L 52.391247 58.605426 
" style="fill: none; stroke: #262626; stroke-width: 0.8; stroke-linecap: round"/>
    </g>
    <g id="text_5">
     <!-- 0.0 -->
     <g style="fill: #262626" transform="translate(36.718132 78.454653) scale(0.07 -0.07)">
      <defs>
       <path id="DejaVuSerif-2e" d="M 603 325 
Q 603 500 722 622 
Q 841 744 1019 744 
Q 1191 744 1312 622 
Q 1434 500 1434 325 
Q 1434 153 1312 31 
Q 1191 -91 1019 -91 
Q 841 -91 722 29 
Q 603 150 603 325 
z
" transform="scale(0.015625)"/>
      </defs>
      <use xlink:href="#DejaVuSerif-30"/>
      <use xlink:href="#DejaVuSerif-2e" x="63.623047"/>
      <use xlink:href="#DejaVuSerif-30" x="95.410156"/>
     </g>
    </g>
   </g>
   <g id="xtick_5">
    <g id="line2d_7">
     <path d="M 37.804552 50.640177 
L 37.033146 50.972205 
" style="fill: none; stroke: #262626; stroke-width: 0.8; stroke-linecap: round"/>
    </g>
    <g id="text_6">
     <!-- 0.1 -->
     <g style="fill: #262626" transform="translate(21.590708 70.148258) scale(0.07 -0.07)">
      <use xlink:href="#DejaVuSerif-30"/>
      <use xlink:href="#DejaVuSerif-2e" x="63.623047"/>
      <use xlink:href="#DejaVuSerif-31" x="95.410156"/>
     </g>
    </g>
   </g>
   <g id="text_7">
    <!-- $r$ [rad/s] -->
    <g style="fill: #262626" transform="translate(14.552146 90.997237) scale(0.06 -0.06)">
     <defs>
      <path id="DejaVuSans-Oblique-72" d="M 2853 2969 
Q 2766 3016 2653 3041 
Q 2541 3066 2413 3066 
Q 1953 3066 1609 2717 
Q 1266 2369 1153 1784 
L 800 0 
L 225 0 
L 909 3500 
L 1484 3500 
L 1375 2956 
Q 1603 3259 1920 3421 
Q 2238 3584 2597 3584 
Q 2691 3584 2781 3573 
Q 2872 3563 2963 3538 
L 2853 2969 
z
" transform="scale(0.015625)"/>
      <path id="DejaVuSerif-72" d="M 3059 3328 
L 3059 2497 
L 2728 2497 
Q 2713 2744 2591 2866 
Q 2469 2988 2234 2988 
Q 1809 2988 1582 2694 
Q 1356 2400 1356 1850 
L 1356 331 
L 2022 331 
L 2022 0 
L 263 0 
L 263 331 
L 781 331 
L 781 2994 
L 231 2994 
L 231 3322 
L 1356 3322 
L 1356 2731 
Q 1525 3078 1790 3245 
Q 2056 3413 2438 3413 
Q 2578 3413 2733 3391 
Q 2888 3369 3059 3328 
z
" transform="scale(0.015625)"/>
      <path id="DejaVuSerif-61" d="M 2547 1044 
L 2547 1747 
L 1806 1747 
Q 1378 1747 1168 1562 
Q 959 1378 959 997 
Q 959 650 1171 447 
Q 1384 244 1747 244 
Q 2106 244 2326 466 
Q 2547 688 2547 1044 
z
M 3122 2075 
L 3122 331 
L 3634 331 
L 3634 0 
L 2547 0 
L 2547 359 
Q 2356 128 2106 18 
Q 1856 -91 1522 -91 
Q 969 -91 644 203 
Q 319 497 319 997 
Q 319 1513 691 1797 
Q 1063 2081 1741 2081 
L 2547 2081 
L 2547 2309 
Q 2547 2688 2317 2895 
Q 2088 3103 1672 3103 
Q 1328 3103 1125 2947 
Q 922 2791 872 2484 
L 575 2484 
L 575 3156 
Q 875 3284 1158 3348 
Q 1441 3413 1709 3413 
Q 2400 3413 2761 3070 
Q 3122 2728 3122 2075 
z
" transform="scale(0.015625)"/>
      <path id="DejaVuSerif-2f" d="M 1656 4666 
L 2156 4666 
L 500 -594 
L 0 -594 
L 1656 4666 
z
" transform="scale(0.015625)"/>
      <path id="DejaVuSerif-73" d="M 359 184 
L 359 959 
L 691 959 
Q 703 588 923 403 
Q 1144 219 1575 219 
Q 1963 219 2166 364 
Q 2369 509 2369 788 
Q 2369 1006 2220 1140 
Q 2072 1275 1594 1428 
L 1178 1569 
Q 750 1706 558 1912 
Q 366 2119 366 2438 
Q 366 2894 700 3153 
Q 1034 3413 1625 3413 
Q 1888 3413 2178 3344 
Q 2469 3275 2778 3144 
L 2778 2419 
L 2447 2419 
Q 2434 2741 2221 2922 
Q 2009 3103 1644 3103 
Q 1281 3103 1095 2975 
Q 909 2847 909 2591 
Q 909 2381 1050 2254 
Q 1191 2128 1613 1997 
L 2069 1856 
Q 2541 1709 2748 1489 
Q 2956 1269 2956 922 
Q 2956 450 2595 179 
Q 2234 -91 1600 -91 
Q 1278 -91 972 -22 
Q 666 47 359 184 
z
" transform="scale(0.015625)"/>
     </defs>
     <use xlink:href="#DejaVuSans-Oblique-72" transform="translate(0 0.015625)"/>
     <use xlink:href="#DejaVuSerif-20" transform="translate(41.113281 0.015625)"/>
     <use xlink:href="#DejaVuSerif-5b" transform="translate(72.900391 0.015625)"/>
     <use xlink:href="#DejaVuSerif-72" transform="translate(111.914062 0.015625)"/>
     <use xlink:href="#DejaVuSerif-61" transform="translate(159.716797 0.015625)"/>
     <use xlink:href="#DejaVuSerif-64" transform="translate(219.335938 0.015625)"/>
     <use xlink:href="#DejaVuSerif-2f" transform="translate(283.349609 0.015625)"/>
     <use xlink:href="#DejaVuSerif-73" transform="translate(317.041016 0.015625)"/>
     <use xlink:href="#DejaVuSerif-5d" transform="translate(368.359375 0.015625)"/>
    </g>
   </g>
  </g>
  <g id="axis3d_3">
   <g id="line2d_8">
    <path d="M 35.807853 49.888215 
L 34.659235 20.626677 
" style="fill: none; stroke: #000000; stroke-linecap: round"/>
   </g>
   <g id="xtick_6">
    <g id="line2d_9">
     <path d="M 35.606569 38.009499 
L 34.822875 38.322009 
" style="fill: none; stroke: #262626; stroke-width: 0.8; stroke-linecap: round"/>
    </g>
    <g id="text_8">
     <!-- 0 -->
     <g style="fill: #262626" transform="translate(13.091813 43.432448) scale(0.07 -0.07)">
      <use xlink:href="#DejaVuSerif-30"/>
     </g>
    </g>
   </g>
   <g id="xtick_7">
    <g id="line2d_10">
     <path d="M 35.076128 24.37717 
L 34.277596 24.669855 
" style="fill: none; stroke: #262626; stroke-width: 0.8; stroke-linecap: round"/>
    </g>
    <g id="text_9">
     <!-- 100 -->
     <g style="fill: #262626" transform="translate(7.749153 29.793518) scale(0.07 -0.07)">
      <use xlink:href="#DejaVuSerif-31"/>
      <use xlink:href="#DejaVuSerif-30" x="63.623047"/>
      <use xlink:href="#DejaVuSerif-30" x="127.246094"/>
     </g>
    </g>
   </g>
   <g id="text_10">
    <!-- $Y_H$ -->
    <g style="fill: #262626" transform="translate(2.030434 37.189108) scale(0.06 -0.06)">
     <defs>
      <path id="DejaVuSans-Oblique-59" d="M 403 4666 
L 1081 4666 
L 1953 2747 
L 3616 4666 
L 4325 4666 
L 2209 2222 
L 1778 0 
L 1147 0 
L 1575 2222 
L 403 4666 
z
" transform="scale(0.015625)"/>
      <path id="DejaVuSans-Oblique-48" d="M 1081 4666 
L 1716 4666 
L 1344 2753 
L 3634 2753 
L 4006 4666 
L 4641 4666 
L 3731 0 
L 3097 0 
L 3531 2222 
L 1241 2222 
L 806 0 
L 172 0 
L 1081 4666 
z
" transform="scale(0.015625)"/>
     </defs>
     <use xlink:href="#DejaVuSans-Oblique-59" transform="translate(0 0.09375)"/>
     <use xlink:href="#DejaVuSans-Oblique-48" transform="translate(61.083984 -16.3125) scale(0.7)"/>
    </g>
   </g>
  </g>
  <g id="axes_1">
   <g id="Path3DCollection_1">
    <defs>
     <path id="C0_0_6b0a3fd14a" d="M 0 0.216506 
C 0.057418 0.216506 0.112492 0.193694 0.153093 0.153093 
C 0.193694 0.112492 0.216506 0.057418 0.216506 -0 
C 0.216506 -0.057418 0.193694 -0.112492 0.153093 -0.153093 
C 0.112492 -0.193694 0.057418 -0.216506 0 -0.216506 
C -0.057418 -0.216506 -0.112492 -0.193694 -0.153093 -0.153093 
C -0.193694 -0.112492 -0.216506 -0.057418 -0.216506 0 
C -0.216506 0.057418 -0.193694 0.112492 -0.153093 0.153093 
C -0.112492 0.193694 -0.057418 0.216506 0 0.216506 
z
"/>
    </defs>
    <g clip-path="url(#pb5c8e9c822)">
     <use xlink:href="#C0_0_6b0a3fd14a" x="65.673581" y="12.690936" style="fill-opacity: 0.3; stroke: #000000; stroke-opacity: 0.3"/>
    </g>
    <g clip-path="url(#pb5c8e9c822)">
     <use xlink:href="#C0_0_6b0a3fd14a" x="71.013464" y="19.704527" style="fill-opacity: 0.34673; stroke: #000000; stroke-opacity: 0.34673"/>
    </g>
    <g clip-path="url(#pb5c8e9c822)">
     <use xlink:href="#C0_0_6b0a3fd14a" x="73.563315" y="22.265413" style="fill-opacity: 0.375595; stroke: #000000; stroke-opacity: 0.375595"/>
    </g>
    <g clip-path="url(#pb5c8e9c822)">
     <use xlink:href="#C0_0_6b0a3fd14a" x="77.431262" y="26.371769" style="fill-opacity: 0.41754; stroke: #000000; stroke-opacity: 0.41754"/>
    </g>
    <g clip-path="url(#pb5c8e9c822)">
     <use xlink:href="#C0_0_6b0a3fd14a" x="64.63509" y="26.011676" style="fill-opacity: 0.422129; stroke: #000000; stroke-opacity: 0.422129"/>
    </g>
    <g clip-path="url(#pb5c8e9c822)">
     <use xlink:href="#C0_0_6b0a3fd14a" x="67.1865" y="28.356729" style="fill-opacity: 0.454015; stroke: #000000; stroke-opacity: 0.454015"/>
    </g>
    <g clip-path="url(#pb5c8e9c822)">
     <use xlink:href="#C0_0_6b0a3fd14a" x="81.372681" y="28.794372" style="fill-opacity: 0.474926; stroke: #000000; stroke-opacity: 0.474926"/>
    </g>
    <g clip-path="url(#pb5c8e9c822)">
     <use xlink:href="#C0_0_6b0a3fd14a" x="63.287067" y="31.660269" style="fill-opacity: 0.50564; stroke: #000000; stroke-opacity: 0.50564"/>
    </g>
    <g clip-path="url(#pb5c8e9c822)">
     <use xlink:href="#C0_0_6b0a3fd14a" x="77.566976" y="32.268477" style="fill-opacity: 0.525488; stroke: #000000; stroke-opacity: 0.525488"/>
    </g>
    <g clip-path="url(#pb5c8e9c822)">
     <use xlink:href="#C0_0_6b0a3fd14a" x="73.707199" y="35.517164" style="fill-opacity: 0.57928; stroke: #000000; stroke-opacity: 0.57928"/>
    </g>
    <g clip-path="url(#pb5c8e9c822)">
     <use xlink:href="#C0_0_6b0a3fd14a" x="71.102017" y="37.453205" style="fill-opacity: 0.617935; stroke: #000000; stroke-opacity: 0.617935"/>
    </g>
    <g clip-path="url(#pb5c8e9c822)">
     <use xlink:href="#C0_0_6b0a3fd14a" x="69.788626" y="38.400102" style="fill-opacity: 0.637688; stroke: #000000; stroke-opacity: 0.637688"/>
    </g>
    <g clip-path="url(#pb5c8e9c822)">
     <use xlink:href="#C0_0_6b0a3fd14a" x="75.108916" y="40.226186" style="fill-opacity: 0.677254; stroke: #000000; stroke-opacity: 0.677254"/>
    </g>
    <g clip-path="url(#pb5c8e9c822)">
     <use xlink:href="#C0_0_6b0a3fd14a" x="67.139373" y="40.283827" style="fill-opacity: 0.677774; stroke: #000000; stroke-opacity: 0.677774"/>
    </g>
    <g clip-path="url(#pb5c8e9c822)">
     <use xlink:href="#C0_0_6b0a3fd14a" x="57.81345" y="41.680074" style="fill-opacity: 0.694964; stroke: #000000; stroke-opacity: 0.694964"/>
    </g>
    <g clip-path="url(#pb5c8e9c822)">
     <use xlink:href="#C0_0_6b0a3fd14a" x="65.803286" y="41.250474" style="fill-opacity: 0.697838; stroke: #000000; stroke-opacity: 0.697838"/>
    </g>
    <g clip-path="url(#pb5c8e9c822)">
     <use xlink:href="#C0_0_6b0a3fd14a" x="63.108126" y="43.226332" style="fill-opacity: 0.738074; stroke: #000000; stroke-opacity: 0.738074"/>
    </g>
    <g clip-path="url(#pb5c8e9c822)">
     <use xlink:href="#C0_0_6b0a3fd14a" x="69.810287" y="44.201941" style="fill-opacity: 0.757485; stroke: #000000; stroke-opacity: 0.757485"/>
    </g>
    <g clip-path="url(#pb5c8e9c822)">
     <use xlink:href="#C0_0_6b0a3fd14a" x="59.010035" y="46.575086" style="fill-opacity: 0.796107; stroke: #000000; stroke-opacity: 0.796107"/>
    </g>
    <g clip-path="url(#pb5c8e9c822)">
     <use xlink:href="#C0_0_6b0a3fd14a" x="73.884327" y="47.345523" style="fill-opacity: 0.816825; stroke: #000000; stroke-opacity: 0.816825"/>
    </g>
    <g clip-path="url(#pb5c8e9c822)">
     <use xlink:href="#C0_0_6b0a3fd14a" x="65.756042" y="47.245625" style="fill-opacity: 0.818858; stroke: #000000; stroke-opacity: 0.818858"/>
    </g>
    <g clip-path="url(#pb5c8e9c822)">
     <use xlink:href="#C0_0_6b0a3fd14a" x="54.849514" y="50.357652" style="fill-opacity: 0.851524; stroke: #000000; stroke-opacity: 0.851524"/>
    </g>
    <g clip-path="url(#pb5c8e9c822)">
     <use xlink:href="#C0_0_6b0a3fd14a" x="69.828652" y="50.94798" style="fill-opacity: 0.874437; stroke: #000000; stroke-opacity: 0.874437"/>
    </g>
    <g clip-path="url(#pb5c8e9c822)">
     <use xlink:href="#C0_0_6b0a3fd14a" x="72.577774" y="53.590517" style="fill-opacity: 0.910612; stroke: #000000; stroke-opacity: 0.910612"/>
    </g>
    <g clip-path="url(#pb5c8e9c822)">
     <use xlink:href="#C0_0_6b0a3fd14a" x="58.842034" y="53.136917" style="fill-opacity: 0.916729; stroke: #000000; stroke-opacity: 0.916729"/>
    </g>
    <g clip-path="url(#pb5c8e9c822)">
     <use xlink:href="#C0_0_6b0a3fd14a" x="62.92477" y="57.845455" style="fill-opacity: 0.965155; stroke: #000000; stroke-opacity: 0.965155"/>
    </g>
    <g clip-path="url(#pb5c8e9c822)">
     <use xlink:href="#C0_0_6b0a3fd14a" x="65.673581" y="60.786424" style="stroke: #000000"/>
    </g>
   </g>
   <g id="Poly3DCollection_1">
    <path d="M 65.673581 20.314882 
L 66.99914 19.089504 
L 65.673581 18.182881 
L 64.348547 19.402621 
z
" clip-path="url(#pb5c8e9c822)" style="fill: #b40426; fill-opacity: 0.75"/>
    <path d="M 64.341461 21.475407 
L 65.673581 20.314882 
L 64.348547 19.402621 
L 63.016854 20.557582 
z
" clip-path="url(#pb5c8e9c822)" style="fill: #c32e31; fill-opacity: 0.75"/>
    <path d="M 67.006111 21.232304 
L 68.332179 20.001244 
L 66.99914 19.089504 
L 65.673581 20.314882 
z
" clip-path="url(#pb5c8e9c822)" style="fill: #bd1f2d; fill-opacity: 0.75"/>
    <path d="M 63.002398 22.57866 
L 64.341461 21.475407 
L 63.016854 20.557582 
L 61.678133 21.65533 
z
" clip-path="url(#pb5c8e9c822)" style="fill: #d0473d; fill-opacity: 0.75"/>
    <path d="M 65.673581 22.398438 
L 67.006111 21.232304 
L 65.673581 20.314882 
L 64.341461 21.475407 
z
" clip-path="url(#pb5c8e9c822)" style="fill: #cc403a; fill-opacity: 0.75"/>
    <path d="M 68.346201 22.15493 
L 69.672762 20.918143 
L 68.332179 20.001244 
L 67.006111 21.232304 
z
" clip-path="url(#pb5c8e9c822)" style="fill: #c53334; fill-opacity: 0.75"/>
    <path d="M 61.656054 23.632441 
L 63.002398 22.57866 
L 61.678133 21.65533 
L 60.332062 22.703654 
z
" clip-path="url(#pb5c8e9c822)" style="fill: #da5a49; fill-opacity: 0.75"/>
    <path d="M 64.334192 23.507239 
L 65.673581 22.398438 
L 64.341461 21.475407 
L 63.002398 22.57866 
z
" clip-path="url(#pb5c8e9c822)" style="fill: #d85646; fill-opacity: 0.75"/>
    <path d="M 67.013277 23.326718 
L 68.346201 22.15493 
L 67.006111 21.232304 
L 65.673581 22.398438 
z
" clip-path="url(#pb5c8e9c822)" style="fill: #d44e41; fill-opacity: 0.75"/>
    <path d="M 69.693914 23.082805 
L 71.020953 21.840246 
L 69.672762 20.918143 
L 68.346201 22.15493 
z
" clip-path="url(#pb5c8e9c822)" style="fill: #cf453c; fill-opacity: 0.75"/>
    <path d="M 60.302143 24.644761 
L 61.656054 23.632441 
L 60.332062 22.703654 
L 58.978367 23.710549 
z
" clip-path="url(#pb5c8e9c822)" style="fill: #e36b54; fill-opacity: 0.75"/>
    <path d="M 62.987595 24.566523 
L 64.334192 23.507239 
L 63.002398 22.57866 
L 61.656054 23.632441 
z
" clip-path="url(#pb5c8e9c822)" style="fill: #e16751; fill-opacity: 0.75"/>
    <path d="M 65.673581 24.441113 
L 67.013277 23.326718 
L 65.673581 22.398438 
L 64.334192 23.507239 
z
" clip-path="url(#pb5c8e9c822)" style="fill: #df634e; fill-opacity: 0.75"/>
    <path d="M 68.360614 24.260292 
L 69.693914 23.082805 
L 68.346201 22.15493 
L 67.013277 23.326718 
z
" clip-path="url(#pb5c8e9c822)" style="fill: #dc5d4a; fill-opacity: 0.75"/>
    <path d="M 71.049316 24.015973 
L 72.376817 22.767596 
L 71.020953 21.840246 
L 69.693914 23.082805 
z
" clip-path="url(#pb5c8e9c822)" style="fill: #d65244; fill-opacity: 0.75"/>
    <path d="M 58.94043 25.623821 
L 60.302143 24.644761 
L 58.978367 23.710549 
L 57.616828 24.684203 
z
" clip-path="url(#pb5c8e9c822)" style="fill: #e9785d; fill-opacity: 0.75"/>
    <path d="M 61.633487 25.584314 
L 62.987595 24.566523 
L 61.656054 23.632441 
L 60.302143 24.644761 
z
" clip-path="url(#pb5c8e9c822)" style="fill: #e8765c; fill-opacity: 0.75"/>
    <path d="M 64.326749 25.505946 
L 65.673581 24.441113 
L 64.334192 23.507239 
L 62.987595 24.566523 
z
" clip-path="url(#pb5c8e9c822)" style="fill: #e7745b; fill-opacity: 0.75"/>
    <path d="M 67.020629 25.380328 
L 68.360614 24.260292 
L 67.013277 23.326718 
L 65.673581 24.441113 
z
" clip-path="url(#pb5c8e9c822)" style="fill: #e46e56; fill-opacity: 0.75"/>
    <path d="M 69.715657 25.199206 
L 71.049316 24.015973 
L 69.693914 23.082805 
L 68.360614 24.260292 
z
" clip-path="url(#pb5c8e9c822)" style="fill: #e26952; fill-opacity: 0.75"/>
    <path d="M 72.412473 24.954481 
L 73.740419 23.70024 
L 72.376817 22.767596 
L 71.049316 24.015973 
z
" clip-path="url(#pb5c8e9c822)" style="fill: #de614d; fill-opacity: 0.75"/>
    <path d="M 57.570733 26.577993 
L 58.94043 25.623821 
L 57.616828 24.684203 
L 56.247279 25.632973 
z
" clip-path="url(#pb5c8e9c822)" style="fill: #ee8468; fill-opacity: 0.75"/>
    <path d="M 60.271619 26.568826 
L 61.633487 25.584314 
L 60.302143 24.644761 
L 58.94043 25.623821 
z
" clip-path="url(#pb5c8e9c822)" style="fill: #ee8468; fill-opacity: 0.75"/>
    <path d="M 62.972464 26.529253 
L 64.326749 25.505946 
L 62.987595 24.566523 
L 61.633487 25.584314 
z
" clip-path="url(#pb5c8e9c822)" style="fill: #ed8366; fill-opacity: 0.75"/>
    <path d="M 65.673581 26.450755 
L 67.020629 25.380328 
L 65.673581 24.441113 
L 64.326749 25.505946 
z
" clip-path="url(#pb5c8e9c822)" style="fill: #ec7f63; fill-opacity: 0.75"/>
    <path d="M 68.375402 26.324929 
L 69.715657 25.199206 
L 68.360614 24.260292 
L 67.020629 25.380328 
z
" clip-path="url(#pb5c8e9c822)" style="fill: #ea7b60; fill-opacity: 0.75"/>
    <path d="M 71.078473 26.143506 
L 72.412473 24.954481 
L 71.049316 24.015973 
L 69.715657 25.199206 
z
" clip-path="url(#pb5c8e9c822)" style="fill: #e7745b; fill-opacity: 0.75"/>
    <path d="M 73.783452 25.898373 
L 75.111827 24.638221 
L 73.740419 23.70024 
L 72.412473 24.954481 
z
" clip-path="url(#pb5c8e9c822)" style="fill: #e36c55; fill-opacity: 0.75"/>
    <path d="M 58.901797 27.528447 
L 60.271619 26.568826 
L 58.94043 25.623821 
L 57.570733 26.577993 
z
" clip-path="url(#pb5c8e9c822)" style="fill: #f29072; fill-opacity: 0.75"/>
    <path d="M 56.19293 27.515802 
L 57.570733 26.577993 
L 56.247279 25.632973 
L 54.86961 26.565369 
z
" clip-path="url(#pb5c8e9c822)" style="fill: #f29072; fill-opacity: 0.75"/>
    <path d="M 61.610463 27.519264 
L 62.972464 26.529253 
L 61.633487 25.584314 
L 60.271619 26.568826 
z
" clip-path="url(#pb5c8e9c822)" style="fill: #f18f71; fill-opacity: 0.75"/>
    <path d="M 64.31914 27.479626 
L 65.673581 26.450755 
L 64.326749 25.505946 
L 62.972464 26.529253 
z
" clip-path="url(#pb5c8e9c822)" style="fill: #f18d6f; fill-opacity: 0.75"/>
    <path d="M 67.028158 27.400998 
L 68.375402 26.324929 
L 67.020629 25.380328 
L 65.673581 26.450755 
z
" clip-path="url(#pb5c8e9c822)" style="fill: #f08b6e; fill-opacity: 0.75"/>
    <path d="M 69.737967 27.274962 
L 71.078473 26.143506 
L 69.715657 25.199206 
L 68.375402 26.324929 
z
" clip-path="url(#pb5c8e9c822)" style="fill: #ee8669; fill-opacity: 0.75"/>
    <path d="M 72.449129 27.093238 
L 73.783452 25.898373 
L 72.412473 24.954481 
L 71.078473 26.143506 
z
" clip-path="url(#pb5c8e9c822)" style="fill: #ec8165; fill-opacity: 0.75"/>
    <path d="M 75.16232 26.847698 
L 76.491107 25.581587 
L 75.111827 24.638221 
L 73.783452 25.898373 
z
" clip-path="url(#pb5c8e9c822)" style="fill: #e9785d; fill-opacity: 0.75"/>
    <path d="M 60.240535 28.484381 
L 61.610463 27.519264 
L 60.271619 26.568826 
L 58.901797 27.528447 
z
" clip-path="url(#pb5c8e9c822)" style="fill: #f49a7b; fill-opacity: 0.75"/>
    <path d="M 57.52388 28.471715 
L 58.901797 27.528447 
L 57.570733 26.577993 
L 56.19293 27.515802 
z
" clip-path="url(#pb5c8e9c822)" style="fill: #f49a7b; fill-opacity: 0.75"/>
    <path d="M 54.806954 28.4459 
L 56.19293 27.515802 
L 54.86961 26.565369 
L 53.483771 27.49003 
z
" clip-path="url(#pb5c8e9c822)" style="fill: #f49a7b; fill-opacity: 0.75"/>
    <path d="M 62.957026 28.475183 
L 64.31914 27.479626 
L 62.972464 26.529253 
L 61.610463 27.519264 
z
" clip-path="url(#pb5c8e9c822)" style="fill: #f49a7b; fill-opacity: 0.75"/>
    <path d="M 65.673581 28.435479 
L 67.028158 27.400998 
L 65.673581 26.450755 
L 64.31914 27.479626 
z
" clip-path="url(#pb5c8e9c822)" style="fill: #f4987a; fill-opacity: 0.75"/>
    <path d="M 68.390548 28.35672 
L 69.737967 27.274962 
L 68.375402 26.324929 
L 67.028158 27.400998 
z
" clip-path="url(#pb5c8e9c822)" style="fill: #f39577; fill-opacity: 0.75"/>
    <path d="M 71.108391 28.230475 
L 72.449129 27.093238 
L 71.078473 26.143506 
L 69.737967 27.274962 
z
" clip-path="url(#pb5c8e9c822)" style="fill: #f29274; fill-opacity: 0.75"/>
    <path d="M 73.827692 28.048449 
L 75.16232 26.847698 
L 73.783452 25.898373 
L 72.449129 27.093238 
z
" clip-path="url(#pb5c8e9c822)" style="fill: #f08b6e; fill-opacity: 0.75"/>
    <path d="M 76.549145 27.802501 
L 77.878326 26.530384 
L 76.491107 25.581587 
L 75.16232 26.847698 
z
" clip-path="url(#pb5c8e9c822)" style="fill: #ee8468; fill-opacity: 0.75"/>
    <path d="M 61.587015 29.445843 
L 62.957026 28.475183 
L 61.610463 27.519264 
L 60.240535 28.484381 
z
" clip-path="url(#pb5c8e9c822)" style="fill: #f6a385; fill-opacity: 0.75"/>
    <path d="M 58.862527 29.433156 
L 60.240535 28.484381 
L 58.901797 27.528447 
L 57.52388 28.471715 
z
" clip-path="url(#pb5c8e9c822)" style="fill: #f6a385; fill-opacity: 0.75"/>
    <path d="M 56.13779 29.407298 
L 57.52388 28.471715 
L 56.19293 27.515802 
L 54.806954 28.4459 
z
" clip-path="url(#pb5c8e9c822)" style="fill: #f6a385; fill-opacity: 0.75"/>
    <path d="M 64.311376 29.43663 
L 65.673581 28.435479 
L 64.31914 27.479626 
L 62.957026 28.475183 
z
" clip-path="url(#pb5c8e9c822)" style="fill: #f6a385; fill-opacity: 0.75"/>
    <path d="M 53.412803 29.377043 
L 54.806954 28.4459 
L 53.483771 27.49003 
L 52.089773 28.415695 
z
" clip-path="url(#pb5c8e9c822)" style="fill: #f6a385; fill-opacity: 0.75"/>
    <path d="M 67.035855 29.39686 
L 68.390548 28.35672 
L 67.028158 27.400998 
L 65.673581 28.435479 
z
" clip-path="url(#pb5c8e9c822)" style="fill: #f6a283; fill-opacity: 0.75"/>
    <path d="M 69.760816 29.31797 
L 71.108391 28.230475 
L 69.737967 27.274962 
L 68.390548 28.35672 
z
" clip-path="url(#pb5c8e9c822)" style="fill: #f5a081; fill-opacity: 0.75"/>
    <path d="M 72.486742 29.191516 
L 73.827692 28.048449 
L 72.449129 27.093238 
L 71.108391 28.230475 
z
" clip-path="url(#pb5c8e9c822)" style="fill: #f59c7d; fill-opacity: 0.75"/>
    <path d="M 75.214232 29.009187 
L 76.549145 27.802501 
L 75.16232 26.847698 
L 73.827692 28.048449 
z
" clip-path="url(#pb5c8e9c822)" style="fill: #f39778; fill-opacity: 0.75"/>
    <path d="M 77.943998 28.76283 
L 79.273555 27.484659 
L 77.878326 26.530384 
L 76.549145 27.802501 
z
" clip-path="url(#pb5c8e9c822)" style="fill: #f18f71; fill-opacity: 0.75"/>
    <path d="M 62.941304 30.41288 
L 64.311376 29.43663 
L 62.957026 28.475183 
L 61.587015 29.445843 
z
" clip-path="url(#pb5c8e9c822)" style="fill: #f7ad90; fill-opacity: 0.75"/>
    <path d="M 60.208937 30.400173 
L 61.587015 29.445843 
L 60.240535 28.484381 
L 58.862527 29.433156 
z
" clip-path="url(#pb5c8e9c822)" style="fill: #f7ad90; fill-opacity: 0.75"/>
    <path d="M 57.476343 30.374272 
L 58.862527 29.433156 
L 57.52388 28.471715 
L 56.13779 29.407298 
z
" clip-path="url(#pb5c8e9c822)" style="fill: #f7ad90; fill-opacity: 0.75"/>
    <path d="M 65.673581 30.403652 
L 67.035855 29.39686 
L 65.673581 28.435479 
L 64.311376 29.43663 
z
" clip-path="url(#pb5c8e9c822)" style="fill: #f7ac8e; fill-opacity: 0.75"/>
    <path d="M 54.743506 30.343966 
L 56.13779 29.407298 
L 54.806954 28.4459 
L 53.412803 29.377043 
z
" clip-path="url(#pb5c8e9c822)" style="fill: #f7ac8e; fill-opacity: 0.75"/>
    <path d="M 52.010534 30.318062 
L 53.412803 29.377043 
L 52.089773 28.415695 
L 50.687689 29.351181 
z
" clip-path="url(#pb5c8e9c822)" style="fill: #f7ac8e; fill-opacity: 0.75"/>
    <path d="M 68.40603 30.363816 
L 69.760816 29.31797 
L 68.390548 28.35672 
L 67.035855 29.39686 
z
" clip-path="url(#pb5c8e9c822)" style="fill: #f7ac8e; fill-opacity: 0.75"/>
    <path d="M 71.139033 30.284796 
L 72.486742 29.191516 
L 71.108391 28.230475 
L 69.760816 29.31797 
z
" clip-path="url(#pb5c8e9c822)" style="fill: #f7a98b; fill-opacity: 0.75"/>
    <path d="M 73.87309 30.158132 
L 75.214232 29.009187 
L 73.827692 28.048449 
L 72.486742 29.191516 
z
" clip-path="url(#pb5c8e9c822)" style="fill: #f7a688; fill-opacity: 0.75"/>
    <path d="M 76.608817 29.9755 
L 77.943998 28.76283 
L 76.549145 27.802501 
L 75.214232 29.009187 
z
" clip-path="url(#pb5c8e9c822)" style="fill: #f5a081; fill-opacity: 0.75"/>
    <path d="M 79.346946 29.728733 
L 80.676863 28.444459 
L 79.273555 27.484659 
L 77.943998 28.76283 
z
" clip-path="url(#pb5c8e9c822)" style="fill: #f49a7b; fill-opacity: 0.75"/>
    <path d="M 64.303469 31.385543 
L 65.673581 30.403652 
L 64.311376 29.43663 
L 62.941304 30.41288 
z
" clip-path="url(#pb5c8e9c822)" style="fill: #f7b599; fill-opacity: 0.75"/>
    <path d="M 61.563179 31.372814 
L 62.941304 30.41288 
L 61.587015 29.445843 
L 60.208937 30.400173 
z
" clip-path="url(#pb5c8e9c822)" style="fill: #f7b599; fill-opacity: 0.75"/>
    <path d="M 58.822683 31.34687 
L 60.208937 30.400173 
L 58.862527 29.433156 
L 57.476343 30.374272 
z
" clip-path="url(#pb5c8e9c822)" style="fill: #f7b599; fill-opacity: 0.75"/>
    <path d="M 67.043709 31.376299 
L 68.40603 30.363816 
L 67.035855 29.39686 
L 65.673581 30.403652 
z
" clip-path="url(#pb5c8e9c822)" style="fill: #f7b599; fill-opacity: 0.75"/>
    <path d="M 56.08195 31.316514 
L 57.476343 30.374272 
L 56.13779 29.407298 
L 54.743506 30.343966 
z
" clip-path="url(#pb5c8e9c822)" style="fill: #f7b599; fill-opacity: 0.75"/>
    <path d="M 53.341073 31.290567 
L 54.743506 30.343966 
L 53.412803 29.377043 
L 52.010534 30.318062 
z
" clip-path="url(#pb5c8e9c822)" style="fill: #f7b497; fill-opacity: 0.75"/>
    <path d="M 69.784175 31.336397 
L 71.139033 30.284796 
L 69.760816 29.31797 
L 68.40603 30.363816 
z
" clip-path="url(#pb5c8e9c822)" style="fill: #f7b497; fill-opacity: 0.75"/>
    <path d="M 50.60027 31.277835 
L 52.010534 30.318062 
L 50.687689 29.351181 
L 49.277657 30.305351 
z
" clip-path="url(#pb5c8e9c822)" style="fill: #f7b497; fill-opacity: 0.75"/>
    <path d="M 72.525267 31.257246 
L 73.87309 30.158132 
L 72.486742 29.191516 
L 71.139033 30.284796 
z
" clip-path="url(#pb5c8e9c822)" style="fill: #f7b194; fill-opacity: 0.75"/>
    <path d="M 75.267503 31.130371 
L 76.608817 29.9755 
L 75.214232 29.009187 
L 73.87309 30.158132 
z
" clip-path="url(#pb5c8e9c822)" style="fill: #f7af91; fill-opacity: 0.75"/>
    <path d="M 78.011518 30.947437 
L 79.346946 29.728733 
L 77.943998 28.76283 
L 76.608817 29.9755 
z
" clip-path="url(#pb5c8e9c822)" style="fill: #f7aa8c; fill-opacity: 0.75"/>
    <path d="M 80.758062 30.70026 
L 82.088319 29.409832 
L 80.676863 28.444459 
L 79.346946 29.728733 
z
" clip-path="url(#pb5c8e9c822)" style="fill: #f6a385; fill-opacity: 0.75"/>
    <path d="M 65.673581 32.363879 
L 67.043709 31.376299 
L 65.673581 30.403652 
L 64.303469 31.385543 
z
" clip-path="url(#pb5c8e9c822)" style="fill: #f6bea4; fill-opacity: 0.75"/>
    <path d="M 62.92532 32.351129 
L 64.303469 31.385543 
L 62.941304 30.41288 
L 61.563179 31.372814 
z
" clip-path="url(#pb5c8e9c822)" style="fill: #f6bea4; fill-opacity: 0.75"/>
    <path d="M 60.176876 32.325142 
L 61.563179 31.372814 
L 60.208937 30.400173 
L 58.822683 31.34687 
z
" clip-path="url(#pb5c8e9c822)" style="fill: #f6bda2; fill-opacity: 0.75"/>
    <path d="M 68.42183 32.35462 
L 69.784175 31.336397 
L 68.40603 30.363816 
L 67.043709 31.376299 
z
" clip-path="url(#pb5c8e9c822)" style="fill: #f6bda2; fill-opacity: 0.75"/>
    <path d="M 57.428202 32.294736 
L 58.822683 31.34687 
L 57.476343 30.374272 
L 56.08195 31.316514 
z
" clip-path="url(#pb5c8e9c822)" style="fill: #f6bda2; fill-opacity: 0.75"/>
    <path d="M 54.679375 32.268746 
L 56.08195 31.316514 
L 54.743506 30.343966 
L 53.341073 31.290567 
z
" clip-path="url(#pb5c8e9c822)" style="fill: #f6bda2; fill-opacity: 0.75"/>
    <path d="M 71.17036 32.314652 
L 72.525267 31.257246 
L 71.139033 30.284796 
L 69.784175 31.336397 
z
" clip-path="url(#pb5c8e9c822)" style="fill: #f7bca1; fill-opacity: 0.75"/>
    <path d="M 51.930598 32.255993 
L 53.341073 31.290567 
L 52.010534 30.318062 
L 50.60027 31.277835 
z
" clip-path="url(#pb5c8e9c822)" style="fill: #f7bca1; fill-opacity: 0.75"/>
    <path d="M 49.182198 32.265254 
L 50.60027 31.277835 
L 49.277657 30.305351 
L 47.859879 31.287081 
z
" clip-path="url(#pb5c8e9c822)" style="fill: #f7bca1; fill-opacity: 0.75"/>
    <path d="M 73.919589 32.23537 
L 75.267503 31.130371 
L 73.87309 30.158132 
L 72.525267 31.257246 
z
" clip-path="url(#pb5c8e9c822)" style="fill: #f7ba9f; fill-opacity: 0.75"/>
    <path d="M 76.670054 32.108285 
L 78.011518 30.947437 
L 76.608817 29.9755 
L 75.267503 31.130371 
z
" clip-path="url(#pb5c8e9c822)" style="fill: #f7b79b; fill-opacity: 0.75"/>
    <path d="M 79.422407 31.925046 
L 80.758062 30.70026 
L 79.346946 29.728733 
L 78.011518 30.947437 
z
" clip-path="url(#pb5c8e9c822)" style="fill: #f7b396; fill-opacity: 0.75"/>
    <path d="M 82.177417 31.677458 
L 83.507995 30.380828 
L 82.088319 29.409832 
L 80.758062 30.70026 
z
" clip-path="url(#pb5c8e9c822)" style="fill: #f7ad90; fill-opacity: 0.75"/>
    <path d="M 67.051709 33.347939 
L 68.42183 32.35462 
L 67.043709 31.376299 
L 65.673581 32.363879 
z
" clip-path="url(#pb5c8e9c822)" style="fill: #f4c5ad; fill-opacity: 0.75"/>
    <path d="M 64.295431 33.335168 
L 65.673581 32.363879 
L 64.303469 31.385543 
L 62.92532 32.351129 
z
" clip-path="url(#pb5c8e9c822)" style="fill: #f4c5ad; fill-opacity: 0.75"/>
    <path d="M 61.538993 33.309138 
L 62.92532 32.351129 
L 61.563179 31.372814 
L 60.176876 32.325142 
z
" clip-path="url(#pb5c8e9c822)" style="fill: #f4c5ad; fill-opacity: 0.75"/>
    <path d="M 69.808013 33.338665 
L 71.17036 32.314652 
L 69.784175 31.336397 
L 68.42183 32.35462 
z
" clip-path="url(#pb5c8e9c822)" style="fill: #f4c5ad; fill-opacity: 0.75"/>
    <path d="M 58.78233 33.278682 
L 60.176876 32.325142 
L 58.822683 31.34687 
L 57.428202 32.294736 
z
" clip-path="url(#pb5c8e9c822)" style="fill: #f5c4ac; fill-opacity: 0.75"/>
    <path d="M 47.756572 33.28919 
L 49.182198 32.265254 
L 47.859879 31.287081 
L 46.434622 32.305227 
z
" clip-path="url(#pb5c8e9c822)" style="fill: #f5c4ac; fill-opacity: 0.75"/>
    <path d="M 56.025507 33.252648 
L 57.428202 32.294736 
L 56.08195 31.316514 
L 54.679375 32.268746 
z
" clip-path="url(#pb5c8e9c822)" style="fill: #f5c4ac; fill-opacity: 0.75"/>
    <path d="M 72.564655 33.298631 
L 73.919589 32.23537 
L 72.525267 31.257246 
L 71.17036 32.314652 
z
" clip-path="url(#pb5c8e9c822)" style="fill: #f5c4ac; fill-opacity: 0.75"/>
    <path d="M 53.268711 33.239874 
L 54.679375 32.268746 
L 53.341073 31.290567 
L 51.930598 32.255993 
z
" clip-path="url(#pb5c8e9c822)" style="fill: #f5c4ac; fill-opacity: 0.75"/>
    <path d="M 50.512254 33.24915 
L 51.930598 32.255993 
L 50.60027 31.277835 
L 49.182198 32.265254 
z
" clip-path="url(#pb5c8e9c822)" style="fill: #f5c4ac; fill-opacity: 0.75"/>
    <path d="M 75.32207 33.219217 
L 76.670054 32.108285 
L 75.267503 31.130371 
L 73.919589 32.23537 
z
" clip-path="url(#pb5c8e9c822)" style="fill: #f5c1a9; fill-opacity: 0.75"/>
    <path d="M 78.080812 33.091921 
L 79.422407 31.925046 
L 78.011518 30.947437 
L 76.670054 32.108285 
z
" clip-path="url(#pb5c8e9c822)" style="fill: #f6bfa6; fill-opacity: 0.75"/>
    <path d="M 80.841554 32.908378 
L 82.177417 31.677458 
L 80.758062 30.70026 
L 79.422407 31.925046 
z
" clip-path="url(#pb5c8e9c822)" style="fill: #f7ba9f; fill-opacity: 0.75"/>
    <path d="M 83.605082 32.660379 
L 84.935964 31.357495 
L 83.507995 30.380828 
L 82.177417 31.677458 
z
" clip-path="url(#pb5c8e9c822)" style="fill: #f7b599; fill-opacity: 0.75"/>
    <path d="M 68.437922 34.337773 
L 69.808013 33.338665 
L 68.42183 32.35462 
L 67.051709 33.347939 
z
" clip-path="url(#pb5c8e9c822)" style="fill: #f1ccb8; fill-opacity: 0.75"/>
    <path d="M 65.673581 34.324981 
L 67.051709 33.347939 
L 65.673581 32.363879 
L 64.295431 33.335168 
z
" clip-path="url(#pb5c8e9c822)" style="fill: #f1ccb8; fill-opacity: 0.75"/>
    <path d="M 46.32371 34.358458 
L 47.756572 33.28919 
L 46.434622 32.305227 
L 45.00222 33.368589 
z
" clip-path="url(#pb5c8e9c822)" style="fill: #f2cbb7; fill-opacity: 0.75"/>
    <path d="M 62.909102 34.298908 
L 64.295431 33.335168 
L 62.92532 32.351129 
L 61.538993 33.309138 
z
" clip-path="url(#pb5c8e9c822)" style="fill: #f2cbb7; fill-opacity: 0.75"/>
    <path d="M 71.202329 34.328484 
L 72.564655 33.298631 
L 71.17036 32.314652 
L 69.808013 33.338665 
z
" clip-path="url(#pb5c8e9c822)" style="fill: #f2cbb7; fill-opacity: 0.75"/>
    <path d="M 60.144405 34.268401 
L 61.538993 33.309138 
L 60.176876 32.325142 
L 58.78233 33.278682 
z
" clip-path="url(#pb5c8e9c822)" style="fill: #f2cbb7; fill-opacity: 0.75"/>
    <path d="M 49.086278 34.278926 
L 50.512254 33.24915 
L 49.182198 32.265254 
L 47.756572 33.28919 
z
" clip-path="url(#pb5c8e9c822)" style="fill: #f2cab5; fill-opacity: 0.75"/>
    <path d="M 57.379539 34.242324 
L 58.78233 33.278682 
L 57.428202 32.294736 
L 56.025507 33.252648 
z
" clip-path="url(#pb5c8e9c822)" style="fill: #f2cab5; fill-opacity: 0.75"/>
    <path d="M 73.967132 34.288383 
L 75.32207 33.219217 
L 73.919589 32.23537 
L 72.564655 33.298631 
z
" clip-path="url(#pb5c8e9c822)" style="fill: #f2cab5; fill-opacity: 0.75"/>
    <path d="M 54.614676 34.229528 
L 56.025507 33.252648 
L 54.679375 32.268746 
L 53.268711 33.239874 
z
" clip-path="url(#pb5c8e9c822)" style="fill: #f2cab5; fill-opacity: 0.75"/>
    <path d="M 51.850115 34.23882 
L 53.268711 33.239874 
L 51.930598 32.255993 
L 50.512254 33.24915 
z
" clip-path="url(#pb5c8e9c822)" style="fill: #f2cab5; fill-opacity: 0.75"/>
    <path d="M 76.732781 34.208837 
L 78.080812 33.091921 
L 76.670054 32.108285 
L 75.32207 33.219217 
z
" clip-path="url(#pb5c8e9c822)" style="fill: #f2c9b4; fill-opacity: 0.75"/>
    <path d="M 79.499851 34.08133 
L 80.841554 32.908378 
L 79.422407 31.925046 
L 78.080812 33.091921 
z
" clip-path="url(#pb5c8e9c822)" style="fill: #f4c6af; fill-opacity: 0.75"/>
    <path d="M 82.269033 33.897483 
L 83.605082 32.660379 
L 82.177417 31.677458 
L 80.841554 32.908378 
z
" clip-path="url(#pb5c8e9c822)" style="fill: #f5c2aa; fill-opacity: 0.75"/>
    <path d="M 85.041132 33.649072 
L 86.372297 32.339883 
L 84.935964 31.357495 
L 83.605082 32.660379 
z
" clip-path="url(#pb5c8e9c822)" style="fill: #f6bda2; fill-opacity: 0.75"/>
    <path d="M 44.883999 35.481778 
L 46.32371 34.358458 
L 45.00222 33.368589 
L 43.563072 34.485874 
z
" clip-path="url(#pb5c8e9c822)" style="fill: #edd2c3; fill-opacity: 0.75"/>
    <path d="M 69.832293 35.333432 
L 71.202329 34.328484 
L 69.808013 33.338665 
L 68.437922 34.337773 
z
" clip-path="url(#pb5c8e9c822)" style="fill: #edd1c2; fill-opacity: 0.75"/>
    <path d="M 67.059841 35.320619 
L 68.437922 34.337773 
L 67.051709 33.347939 
L 65.673581 34.324981 
z
" clip-path="url(#pb5c8e9c822)" style="fill: #edd1c2; fill-opacity: 0.75"/>
    <path d="M 47.652977 35.354151 
L 49.086278 34.278926 
L 47.756572 33.28919 
L 46.32371 34.358458 
z
" clip-path="url(#pb5c8e9c822)" style="fill: #edd1c2; fill-opacity: 0.75"/>
    <path d="M 64.287274 35.294502 
L 65.673581 34.324981 
L 64.295431 33.335168 
L 62.909102 34.298908 
z
" clip-path="url(#pb5c8e9c822)" style="fill: #edd1c2; fill-opacity: 0.75"/>
    <path d="M 72.604851 35.324127 
L 73.967132 34.288383 
L 72.564655 33.298631 
L 71.202329 34.328484 
z
" clip-path="url(#pb5c8e9c822)" style="fill: #edd1c2; fill-opacity: 0.75"/>
    <path d="M 61.514496 35.263945 
L 62.909102 34.298908 
L 61.538993 33.309138 
L 60.144405 34.268401 
z
" clip-path="url(#pb5c8e9c822)" style="fill: #eed0c0; fill-opacity: 0.75"/>
    <path d="M 50.423811 35.274488 
L 51.850115 34.23882 
L 50.512254 33.24915 
L 49.086278 34.278926 
z
" clip-path="url(#pb5c8e9c822)" style="fill: #eed0c0; fill-opacity: 0.75"/>
    <path d="M 58.74154 35.237825 
L 60.144405 34.268401 
L 58.78233 33.278682 
L 57.379539 34.242324 
z
" clip-path="url(#pb5c8e9c822)" style="fill: #eed0c0; fill-opacity: 0.75"/>
    <path d="M 75.377862 35.28396 
L 76.732781 34.208837 
L 75.32207 33.219217 
L 73.967132 34.288383 
z
" clip-path="url(#pb5c8e9c822)" style="fill: #eed0c0; fill-opacity: 0.75"/>
    <path d="M 55.968563 35.225008 
L 57.379539 34.242324 
L 56.025507 33.252648 
L 54.614676 34.229528 
z
" clip-path="url(#pb5c8e9c822)" style="fill: #efcfbf; fill-opacity: 0.75"/>
    <path d="M 53.19585 35.234315 
L 54.614676 34.229528 
L 53.268711 33.239874 
L 51.850115 34.23882 
z
" clip-path="url(#pb5c8e9c822)" style="fill: #efcfbf; fill-opacity: 0.75"/>
    <path d="M 78.151795 35.204282 
L 79.499851 34.08133 
L 78.080812 33.091921 
L 76.732781 34.208837 
z
" clip-path="url(#pb5c8e9c822)" style="fill: #efcebd; fill-opacity: 0.75"/>
    <path d="M 80.927244 35.076564 
L 82.269033 33.897483 
L 80.841554 32.908378 
L 79.499851 34.08133 
z
" clip-path="url(#pb5c8e9c822)" style="fill: #f1cdba; fill-opacity: 0.75"/>
    <path d="M 83.704917 34.892412 
L 85.041132 33.649072 
L 83.605082 32.660379 
L 82.269033 33.897483 
z
" clip-path="url(#pb5c8e9c822)" style="fill: #f2c9b4; fill-opacity: 0.75"/>
    <path d="M 86.485641 34.643588 
L 87.81707 33.328043 
L 86.372297 32.339883 
L 85.041132 33.649072 
z
" clip-path="url(#pb5c8e9c822)" style="fill: #f4c5ad; fill-opacity: 0.75"/>
    <path d="M 43.437888 36.667735 
L 44.883999 35.481778 
L 43.563072 34.485874 
L 42.117643 35.66565 
z
" clip-path="url(#pb5c8e9c822)" style="fill: #e5d8d1; fill-opacity: 0.75"/>
    <path d="M 46.21272 36.483559 
L 47.652977 35.354151 
L 46.32371 34.358458 
L 44.883999 35.481778 
z
" clip-path="url(#pb5c8e9c822)" style="fill: #e7d7ce; fill-opacity: 0.75"/>
    <path d="M 71.234894 36.334967 
L 72.604851 35.324127 
L 71.202329 34.328484 
L 69.832293 35.333432 
z
" clip-path="url(#pb5c8e9c822)" style="fill: #e9d5cb; fill-opacity: 0.75"/>
    <path d="M 68.454284 36.322133 
L 69.832293 35.333432 
L 68.437922 34.337773 
L 67.059841 35.320619 
z
" clip-path="url(#pb5c8e9c822)" style="fill: #e9d5cb; fill-opacity: 0.75"/>
    <path d="M 48.990089 36.355721 
L 50.423811 35.274488 
L 49.086278 34.278926 
L 47.652977 35.354151 
z
" clip-path="url(#pb5c8e9c822)" style="fill: #e9d5cb; fill-opacity: 0.75"/>
    <path d="M 65.673581 36.295973 
L 67.059841 35.320619 
L 65.673581 34.324981 
L 64.287274 35.294502 
z
" clip-path="url(#pb5c8e9c822)" style="fill: #e9d5cb; fill-opacity: 0.75"/>
    <path d="M 74.015651 36.325647 
L 75.377862 35.28396 
L 73.967132 34.288383 
L 72.604851 35.324127 
z
" clip-path="url(#pb5c8e9c822)" style="fill: #e9d5cb; fill-opacity: 0.75"/>
    <path d="M 62.892675 36.265365 
L 64.287274 35.294502 
L 62.909102 34.298908 
L 61.514496 35.263945 
z
" clip-path="url(#pb5c8e9c822)" style="fill: #e9d5cb; fill-opacity: 0.75"/>
    <path d="M 51.769239 36.275926 
L 53.19585 35.234315 
L 51.850115 34.23882 
L 50.423811 35.274488 
z
" clip-path="url(#pb5c8e9c822)" style="fill: #ead5c9; fill-opacity: 0.75"/>
    <path d="M 60.11158 36.239202 
L 61.514496 35.263945 
L 60.144405 34.268401 
L 58.74154 35.237825 
z
" clip-path="url(#pb5c8e9c822)" style="fill: #ead5c9; fill-opacity: 0.75"/>
    <path d="M 76.796919 36.285413 
L 78.151795 35.204282 
L 76.732781 34.208837 
L 75.377862 35.28396 
z
" clip-path="url(#pb5c8e9c822)" style="fill: #ead5c9; fill-opacity: 0.75"/>
    <path d="M 57.330442 36.226364 
L 58.74154 35.237825 
L 57.379539 34.242324 
L 55.968563 35.225008 
z
" clip-path="url(#pb5c8e9c822)" style="fill: #ead5c9; fill-opacity: 0.75"/>
    <path d="M 54.549529 36.235687 
L 55.968563 35.225008 
L 54.614676 34.229528 
L 53.19585 35.234315 
z
" clip-path="url(#pb5c8e9c822)" style="fill: #ead5c9; fill-opacity: 0.75"/>
    <path d="M 79.579186 36.205604 
L 80.927244 35.076564 
L 79.499851 34.08133 
L 78.151795 35.204282 
z
" clip-path="url(#pb5c8e9c822)" style="fill: #ebd3c6; fill-opacity: 0.75"/>
    <path d="M 82.363064 36.077674 
L 83.704917 34.892412 
L 82.269033 33.897483 
L 80.927244 35.076564 
z
" clip-path="url(#pb5c8e9c822)" style="fill: #edd2c3; fill-opacity: 0.75"/>
    <path d="M 85.14928 35.893217 
L 86.485641 34.643588 
L 85.041132 33.649072 
L 83.704917 34.892412 
z
" clip-path="url(#pb5c8e9c822)" style="fill: #efcfbf; fill-opacity: 0.75"/>
    <path d="M 87.938683 35.64398 
L 89.270355 34.322026 
L 87.81707 33.328043 
L 86.485641 34.643588 
z
" clip-path="url(#pb5c8e9c822)" style="fill: #f2cbb7; fill-opacity: 0.75"/>
    <path d="M 41.985892 37.924739 
L 43.437888 36.667735 
L 42.117643 35.66565 
L 40.66646 36.916314 
z
" clip-path="url(#pb5c8e9c822)" style="fill: #dbdcde; fill-opacity: 0.75"/>
    <path d="M 44.765945 37.67575 
L 46.21272 36.483559 
L 44.883999 35.481778 
L 43.437888 36.667735 
z
" clip-path="url(#pb5c8e9c822)" style="fill: #dedcdb; fill-opacity: 0.75"/>
    <path d="M 47.549306 37.491269 
L 48.990089 36.355721 
L 47.652977 35.354151 
L 46.21272 36.483559 
z
" clip-path="url(#pb5c8e9c822)" style="fill: #e1dad6; fill-opacity: 0.75"/>
    <path d="M 72.645798 37.342432 
L 74.015651 36.325647 
L 72.604851 35.324127 
L 71.234894 36.334967 
z
" clip-path="url(#pb5c8e9c822)" style="fill: #e2dad5; fill-opacity: 0.75"/>
    <path d="M 69.856981 37.329576 
L 71.234894 36.334967 
L 69.832293 35.333432 
L 68.454284 36.322133 
z
" clip-path="url(#pb5c8e9c822)" style="fill: #e2dad5; fill-opacity: 0.75"/>
    <path d="M 50.335116 37.363219 
L 51.769239 36.275926 
L 50.423811 35.274488 
L 48.990089 36.355721 
z
" clip-path="url(#pb5c8e9c822)" style="fill: #e2dad5; fill-opacity: 0.75"/>
    <path d="M 67.068095 37.303373 
L 68.454284 36.322133 
L 67.059841 35.320619 
L 65.673581 36.295973 
z
" clip-path="url(#pb5c8e9c822)" style="fill: #e2dad5; fill-opacity: 0.75"/>
    <path d="M 75.434803 37.333096 
L 76.796919 36.285413 
L 75.377862 35.28396 
L 74.015651 36.325647 
z
" clip-path="url(#pb5c8e9c822)" style="fill: #e3d9d3; fill-opacity: 0.75"/>
    <path d="M 64.279012 37.272714 
L 65.673581 36.295973 
L 64.287274 35.294502 
L 62.892675 36.265365 
z
" clip-path="url(#pb5c8e9c822)" style="fill: #e3d9d3; fill-opacity: 0.75"/>
    <path d="M 53.122631 37.283292 
L 54.549529 36.235687 
L 53.19585 35.234315 
L 51.769239 36.275926 
z
" clip-path="url(#pb5c8e9c822)" style="fill: #e3d9d3; fill-opacity: 0.75"/>
    <path d="M 61.489732 37.246508 
L 62.892675 36.265365 
L 61.514496 35.263945 
L 60.11158 36.239202 
z
" clip-path="url(#pb5c8e9c822)" style="fill: #e3d9d3; fill-opacity: 0.75"/>
    <path d="M 78.224377 37.292796 
L 79.579186 36.205604 
L 78.151795 35.204282 
L 76.796919 36.285413 
z
" clip-path="url(#pb5c8e9c822)" style="fill: #e3d9d3; fill-opacity: 0.75"/>
    <path d="M 58.700384 37.233648 
L 60.11158 36.239202 
L 58.74154 35.237825 
L 57.330442 36.226364 
z
" clip-path="url(#pb5c8e9c822)" style="fill: #e4d9d2; fill-opacity: 0.75"/>
    <path d="M 55.911222 37.242986 
L 57.330442 36.226364 
L 55.968563 35.225008 
L 54.549529 36.235687 
z
" clip-path="url(#pb5c8e9c822)" style="fill: #e4d9d2; fill-opacity: 0.75"/>
    <path d="M 81.015028 37.212854 
L 82.363064 36.077674 
L 80.927244 35.076564 
L 79.579186 36.205604 
z
" clip-path="url(#pb5c8e9c822)" style="fill: #e5d8d1; fill-opacity: 0.75"/>
    <path d="M 83.807386 37.084712 
L 85.14928 35.893217 
L 83.704917 34.892412 
L 82.363064 36.077674 
z
" clip-path="url(#pb5c8e9c822)" style="fill: #e8d6cc; fill-opacity: 0.75"/>
    <path d="M 86.602199 36.899949 
L 87.938683 35.64398 
L 86.485641 34.643588 
L 85.14928 35.893217 
z
" clip-path="url(#pb5c8e9c822)" style="fill: #ead4c8; fill-opacity: 0.75"/>
    <path d="M 89.400334 36.650299 
L 90.732229 35.321883 
L 89.270355 34.322026 
L 87.938683 35.64398 
z
" clip-path="url(#pb5c8e9c822)" style="fill: #edd1c2; fill-opacity: 0.75"/>
    <path d="M 40.528589 39.26098 
L 41.985892 37.924739 
L 40.66646 36.916314 
L 39.210113 38.246042 
z
" clip-path="url(#pb5c8e9c822)" style="fill: #cfdaea; fill-opacity: 0.75"/>
    <path d="M 43.313153 38.939147 
L 44.765945 37.67575 
L 43.437888 36.667735 
L 41.985892 37.924739 
z
" clip-path="url(#pb5c8e9c822)" style="fill: #d5dbe5; fill-opacity: 0.75"/>
    <path d="M 46.101884 38.689746 
L 47.549306 37.491269 
L 46.21272 36.483559 
L 44.765945 37.67575 
z
" clip-path="url(#pb5c8e9c822)" style="fill: #d8dce2; fill-opacity: 0.75"/>
    <path d="M 48.893826 38.50496 
L 50.335116 37.363219 
L 48.990089 36.355721 
L 47.549306 37.491269 
z
" clip-path="url(#pb5c8e9c822)" style="fill: #dadce0; fill-opacity: 0.75"/>
    <path d="M 74.065079 38.355877 
L 75.434803 37.333096 
L 74.015651 36.325647 
L 72.645798 37.342432 
z
" clip-path="url(#pb5c8e9c822)" style="fill: #dcdddd; fill-opacity: 0.75"/>
    <path d="M 71.268006 38.343 
L 72.645798 37.342432 
L 71.234894 36.334967 
L 69.856981 37.329576 
z
" clip-path="url(#pb5c8e9c822)" style="fill: #dcdddd; fill-opacity: 0.75"/>
    <path d="M 51.688129 38.376699 
L 53.122631 37.283292 
L 51.769239 36.275926 
L 50.335116 37.363219 
z
" clip-path="url(#pb5c8e9c822)" style="fill: #dcdddd; fill-opacity: 0.75"/>
    <path d="M 68.470889 38.316754 
L 69.856981 37.329576 
L 68.454284 36.322133 
L 67.068095 37.303373 
z
" clip-path="url(#pb5c8e9c822)" style="fill: #dcdddd; fill-opacity: 0.75"/>
    <path d="M 76.86238 38.346526 
L 78.224377 37.292796 
L 76.796919 36.285413 
L 75.434803 37.333096 
z
" clip-path="url(#pb5c8e9c822)" style="fill: #dcdddd; fill-opacity: 0.75"/>
    <path d="M 65.673581 38.286044 
L 67.068095 37.303373 
L 65.673581 36.295973 
L 64.279012 37.272714 
z
" clip-path="url(#pb5c8e9c822)" style="fill: #dddcdc; fill-opacity: 0.75"/>
    <path d="M 54.48406 38.29664 
L 55.911222 37.242986 
L 54.549529 36.235687 
L 53.122631 37.283292 
z
" clip-path="url(#pb5c8e9c822)" style="fill: #dddcdc; fill-opacity: 0.75"/>
    <path d="M 62.876067 38.259794 
L 64.279012 37.272714 
L 62.892675 36.265365 
L 61.489732 37.246508 
z
" clip-path="url(#pb5c8e9c822)" style="fill: #dddcdc; fill-opacity: 0.75"/>
    <path d="M 79.660311 38.306159 
L 81.015028 37.212854 
L 79.579186 36.205604 
L 78.224377 37.292796 
z
" clip-path="url(#pb5c8e9c822)" style="fill: #dddcdc; fill-opacity: 0.75"/>
    <path d="M 60.07846 38.246914 
L 61.489732 37.246508 
L 60.11158 36.239202 
L 58.700384 37.233648 
z
" clip-path="url(#pb5c8e9c822)" style="fill: #dddcdc; fill-opacity: 0.75"/>
    <path d="M 57.281001 38.256268 
L 58.700384 37.233648 
L 57.330442 36.226364 
L 55.911222 37.242986 
z
" clip-path="url(#pb5c8e9c822)" style="fill: #dddcdc; fill-opacity: 0.75"/>
    <path d="M 82.459397 38.226085 
L 83.807386 37.084712 
L 82.363064 36.077674 
L 81.015028 37.212854 
z
" clip-path="url(#pb5c8e9c822)" style="fill: #dfdbd9; fill-opacity: 0.75"/>
    <path d="M 85.260286 38.097731 
L 86.602199 36.899949 
L 85.14928 35.893217 
L 83.807386 37.084712 
z
" clip-path="url(#pb5c8e9c822)" style="fill: #e1dad6; fill-opacity: 0.75"/>
    <path d="M 88.063749 37.912662 
L 89.400334 36.650299 
L 87.938683 35.64398 
L 86.602199 36.899949 
z
" clip-path="url(#pb5c8e9c822)" style="fill: #e4d9d2; fill-opacity: 0.75"/>
    <path d="M 90.87067 37.662597 
L 92.202769 36.327666 
L 90.732229 35.321883 
L 89.400334 36.650299 
z
" clip-path="url(#pb5c8e9c822)" style="fill: #e9d5cb; fill-opacity: 0.75"/>
    <path d="M 41.854908 40.281954 
L 43.313153 38.939147 
L 41.985892 37.924739 
L 40.528589 39.26098 
z
" clip-path="url(#pb5c8e9c822)" style="fill: #c9d7f0; fill-opacity: 0.75"/>
    <path d="M 44.648311 39.959591 
L 46.101884 38.689746 
L 44.765945 37.67575 
L 43.313153 38.939147 
z
" clip-path="url(#pb5c8e9c822)" style="fill: #cdd9ec; fill-opacity: 0.75"/>
    <path d="M 47.445775 39.709779 
L 48.893826 38.50496 
L 47.549306 37.491269 
L 46.101884 38.689746 
z
" clip-path="url(#pb5c8e9c822)" style="fill: #d1dae9; fill-opacity: 0.75"/>
    <path d="M 50.24635 39.524688 
L 51.688129 38.376699 
L 50.335116 37.363219 
L 48.893826 38.50496 
z
" clip-path="url(#pb5c8e9c822)" style="fill: #d4dbe6; fill-opacity: 0.75"/>
    <path d="M 75.492811 39.375358 
L 76.86238 38.346526 
L 75.434803 37.333096 
L 74.065079 38.355877 
z
" clip-path="url(#pb5c8e9c822)" style="fill: #d5dbe5; fill-opacity: 0.75"/>
    <path d="M 72.687434 39.362459 
L 74.065079 38.355877 
L 72.645798 37.342432 
L 71.268006 38.343 
z
" clip-path="url(#pb5c8e9c822)" style="fill: #d5dbe5; fill-opacity: 0.75"/>
    <path d="M 53.049198 39.396214 
L 54.48406 38.29664 
L 53.122631 37.283292 
L 51.688129 38.376699 
z
" clip-path="url(#pb5c8e9c822)" style="fill: #d6dce4; fill-opacity: 0.75"/>
    <path d="M 69.882036 39.33617 
L 71.268006 38.343 
L 69.856981 37.329576 
L 68.470889 38.316754 
z
" clip-path="url(#pb5c8e9c822)" style="fill: #d6dce4; fill-opacity: 0.75"/>
    <path d="M 78.298459 39.365991 
L 79.660311 38.306159 
L 78.224377 37.292796 
L 76.86238 38.346526 
z
" clip-path="url(#pb5c8e9c822)" style="fill: #d6dce4; fill-opacity: 0.75"/>
    <path d="M 67.076456 39.30541 
L 68.470889 38.316754 
L 67.068095 37.303373 
L 65.673581 38.286044 
z
" clip-path="url(#pb5c8e9c822)" style="fill: #d6dce4; fill-opacity: 0.75"/>
    <path d="M 55.853596 39.316022 
L 57.281001 38.256268 
L 55.911222 37.242986 
L 54.48406 38.29664 
z
" clip-path="url(#pb5c8e9c822)" style="fill: #d6dce4; fill-opacity: 0.75"/>
    <path d="M 64.270659 39.279116 
L 65.673581 38.286044 
L 64.279012 37.272714 
L 62.876067 38.259794 
z
" clip-path="url(#pb5c8e9c822)" style="fill: #d7dce3; fill-opacity: 0.75"/>
    <path d="M 81.104796 39.325558 
L 82.459397 38.226085 
L 81.015028 37.212854 
L 79.660311 38.306159 
z
" clip-path="url(#pb5c8e9c822)" style="fill: #d7dce3; fill-opacity: 0.75"/>
    <path d="M 61.464744 39.266214 
L 62.876067 38.259794 
L 61.489732 37.246508 
L 60.07846 38.246914 
z
" clip-path="url(#pb5c8e9c822)" style="fill: #d7dce3; fill-opacity: 0.75"/>
    <path d="M 58.658938 39.275584 
L 60.07846 38.246914 
L 58.700384 37.233648 
L 57.281001 38.256268 
z
" clip-path="url(#pb5c8e9c822)" style="fill: #d7dce3; fill-opacity: 0.75"/>
    <path d="M 83.912367 39.245351 
L 85.260286 38.097731 
L 83.807386 37.084712 
L 82.459397 38.226085 
z
" clip-path="url(#pb5c8e9c822)" style="fill: #d8dce2; fill-opacity: 0.75"/>
    <path d="M 86.721842 39.116785 
L 88.063749 37.912662 
L 86.602199 36.899949 
L 85.260286 38.097731 
z
" clip-path="url(#pb5c8e9c822)" style="fill: #dbdcde; fill-opacity: 0.75"/>
    <path d="M 89.534007 38.931409 
L 90.87067 37.662597 
L 89.400334 36.650299 
L 88.063749 37.912662 
z
" clip-path="url(#pb5c8e9c822)" style="fill: #dedcdb; fill-opacity: 0.75"/>
    <path d="M 43.189139 41.309019 
L 44.648311 39.959591 
L 43.313153 38.939147 
L 41.854908 40.281954 
z
" clip-path="url(#pb5c8e9c822)" style="fill: #c0d4f5; fill-opacity: 0.75"/>
    <path d="M 45.991438 40.986125 
L 47.445775 39.709779 
L 46.101884 38.689746 
L 44.648311 39.959591 
z
" clip-path="url(#pb5c8e9c822)" style="fill: #c6d6f1; fill-opacity: 0.75"/>
    <path d="M 48.797688 40.735901 
L 50.24635 39.524688 
L 48.893826 38.50496 
L 47.445775 39.709779 
z
" clip-path="url(#pb5c8e9c822)" style="fill: #cad8ef; fill-opacity: 0.75"/>
    <path d="M 51.606951 40.550504 
L 53.049198 39.396214 
L 51.688129 38.376699 
L 50.24635 39.524688 
z
" clip-path="url(#pb5c8e9c822)" style="fill: #ccd9ed; fill-opacity: 0.75"/>
    <path d="M 76.929071 40.400928 
L 78.298459 39.365991 
L 76.86238 38.346526 
L 75.492811 39.375358 
z
" clip-path="url(#pb5c8e9c822)" style="fill: #cedaeb; fill-opacity: 0.75"/>
    <path d="M 74.11534 40.388008 
L 75.492811 39.375358 
L 74.065079 38.355877 
L 72.687434 39.362459 
z
" clip-path="url(#pb5c8e9c822)" style="fill: #cedaeb; fill-opacity: 0.75"/>
    <path d="M 54.418397 40.421818 
L 55.853596 39.316022 
L 54.48406 38.29664 
L 53.049198 39.396214 
z
" clip-path="url(#pb5c8e9c822)" style="fill: #cedaeb; fill-opacity: 0.75"/>
    <path d="M 71.301613 40.361675 
L 72.687434 39.362459 
L 71.268006 38.343 
L 69.882036 39.33617 
z
" clip-path="url(#pb5c8e9c822)" style="fill: #cedaeb; fill-opacity: 0.75"/>
    <path d="M 79.743115 40.391546 
L 81.104796 39.325558 
L 79.660311 38.306159 
L 78.298459 39.365991 
z
" clip-path="url(#pb5c8e9c822)" style="fill: #cedaeb; fill-opacity: 0.75"/>
    <path d="M 68.48771 40.330864 
L 69.882036 39.33617 
L 68.470889 38.316754 
L 67.076456 39.30541 
z
" clip-path="url(#pb5c8e9c822)" style="fill: #cfdaea; fill-opacity: 0.75"/>
    <path d="M 57.231313 40.341494 
L 58.658938 39.275584 
L 57.281001 38.256268 
L 55.853596 39.316022 
z
" clip-path="url(#pb5c8e9c822)" style="fill: #cfdaea; fill-opacity: 0.75"/>
    <path d="M 65.673581 40.304527 
L 67.076456 39.30541 
L 65.673581 38.286044 
L 64.270659 39.279116 
z
" clip-path="url(#pb5c8e9c822)" style="fill: #cfdaea; fill-opacity: 0.75"/>
    <path d="M 82.557909 40.351045 
L 83.912367 39.245351 
L 82.459397 38.226085 
L 81.104796 39.325558 
z
" clip-path="url(#pb5c8e9c822)" style="fill: #cfdaea; fill-opacity: 0.75"/>
    <path d="M 62.859309 40.291604 
L 64.270659 39.279116 
L 62.876067 38.259794 
L 61.464744 39.266214 
z
" clip-path="url(#pb5c8e9c822)" style="fill: #cfdaea; fill-opacity: 0.75"/>
    <path d="M 60.045106 40.300988 
L 61.464744 39.266214 
L 60.07846 38.246914 
L 58.658938 39.275584 
z
" clip-path="url(#pb5c8e9c822)" style="fill: #cfdaea; fill-opacity: 0.75"/>
    <path d="M 85.374018 40.270706 
L 86.721842 39.116785 
L 85.260286 38.097731 
L 83.912367 39.245351 
z
" clip-path="url(#pb5c8e9c822)" style="fill: #d2dbe8; fill-opacity: 0.75"/>
    <path d="M 88.192129 40.141927 
L 89.534007 38.931409 
L 88.063749 37.912662 
L 86.721842 39.116785 
z
" clip-path="url(#pb5c8e9c822)" style="fill: #d4dbe6; fill-opacity: 0.75"/>
    <path d="M 44.531353 42.342229 
L 45.991438 40.986125 
L 44.648311 39.959591 
L 43.189139 41.309019 
z
" clip-path="url(#pb5c8e9c822)" style="fill: #b9d0f9; fill-opacity: 0.75"/>
    <path d="M 47.342604 42.018803 
L 48.797688 40.735901 
L 47.445775 39.709779 
L 45.991438 40.986125 
z
" clip-path="url(#pb5c8e9c822)" style="fill: #bed2f6; fill-opacity: 0.75"/>
    <path d="M 50.157697 41.768167 
L 51.606951 40.550504 
L 50.24635 39.524688 
L 48.797688 40.735901 
z
" clip-path="url(#pb5c8e9c822)" style="fill: #c3d5f4; fill-opacity: 0.75"/>
    <path d="M 52.975701 41.582464 
L 54.418397 40.421818 
L 53.049198 39.396214 
L 51.606951 40.550504 
z
" clip-path="url(#pb5c8e9c822)" style="fill: #c5d6f2; fill-opacity: 0.75"/>
    <path d="M 78.373934 41.432641 
L 79.743115 40.391546 
L 78.298459 39.365991 
L 76.929071 40.400928 
z
" clip-path="url(#pb5c8e9c822)" style="fill: #c6d6f1; fill-opacity: 0.75"/>
    <path d="M 75.5518 41.4197 
L 76.929071 40.400928 
L 75.492811 39.375358 
L 74.11534 40.388008 
z
" clip-path="url(#pb5c8e9c822)" style="fill: #c6d6f1; fill-opacity: 0.75"/>
    <path d="M 55.795797 41.453566 
L 57.231313 40.341494 
L 55.853596 39.316022 
L 54.418397 40.421818 
z
" clip-path="url(#pb5c8e9c822)" style="fill: #c7d7f0; fill-opacity: 0.75"/>
    <path d="M 72.729694 41.393323 
L 74.11534 40.388008 
L 72.687434 39.362459 
L 71.301613 40.361675 
z
" clip-path="url(#pb5c8e9c822)" style="fill: #c7d7f0; fill-opacity: 0.75"/>
    <path d="M 81.196425 41.423243 
L 82.557909 40.351045 
L 81.104796 39.325558 
L 79.743115 40.391546 
z
" clip-path="url(#pb5c8e9c822)" style="fill: #c7d7f0; fill-opacity: 0.75"/>
    <path d="M 69.907418 41.362461 
L 71.301613 40.361675 
L 69.882036 39.33617 
L 68.48771 40.330864 
z
" clip-path="url(#pb5c8e9c822)" style="fill: #c7d7f0; fill-opacity: 0.75"/>
    <path d="M 58.617283 41.373109 
L 60.045106 40.300988 
L 58.658938 39.275584 
L 57.231313 40.341494 
z
" clip-path="url(#pb5c8e9c822)" style="fill: #c9d7f0; fill-opacity: 0.75"/>
    <path d="M 67.084909 41.336081 
L 68.48771 40.330864 
L 67.076456 39.30541 
L 65.673581 40.304527 
z
" clip-path="url(#pb5c8e9c822)" style="fill: #c9d7f0; fill-opacity: 0.75"/>
    <path d="M 84.019727 41.382676 
L 85.374018 40.270706 
L 83.912367 39.245351 
L 82.557909 40.351045 
z
" clip-path="url(#pb5c8e9c822)" style="fill: #c9d7f0; fill-opacity: 0.75"/>
    <path d="M 64.26223 41.323136 
L 65.673581 40.304527 
L 64.270659 39.279116 
L 62.859309 40.291604 
z
" clip-path="url(#pb5c8e9c822)" style="fill: #c9d7f0; fill-opacity: 0.75"/>
    <path d="M 61.439579 41.332537 
L 62.859309 40.291604 
L 61.464744 39.266214 
L 60.045106 40.300988 
z
" clip-path="url(#pb5c8e9c822)" style="fill: #c9d7f0; fill-opacity: 0.75"/>
    <path d="M 86.844426 41.302204 
L 88.192129 40.141927 
L 86.721842 39.116785 
L 85.374018 40.270706 
z
" clip-path="url(#pb5c8e9c822)" style="fill: #cad8ef; fill-opacity: 0.75"/>
    <path d="M 45.881623 43.38164 
L 47.342604 42.018803 
L 45.991438 40.986125 
L 44.531353 42.342229 
z
" clip-path="url(#pb5c8e9c822)" style="fill: #afcafc; fill-opacity: 0.75"/>
    <path d="M 48.701883 43.057682 
L 50.157697 41.768167 
L 48.797688 40.735901 
L 47.342604 42.018803 
z
" clip-path="url(#pb5c8e9c822)" style="fill: #b6cefa; fill-opacity: 0.75"/>
    <path d="M 51.525874 42.806633 
L 52.975701 41.582464 
L 51.606951 40.550504 
L 50.157697 41.768167 
z
" clip-path="url(#pb5c8e9c822)" style="fill: #bad0f8; fill-opacity: 0.75"/>
    <path d="M 54.352674 42.620624 
L 55.795797 41.453566 
L 54.418397 40.421818 
L 52.975701 41.582464 
z
" clip-path="url(#pb5c8e9c822)" style="fill: #bed2f6; fill-opacity: 0.75"/>
    <path d="M 79.82748 42.470554 
L 81.196425 41.423243 
L 79.743115 40.391546 
L 78.373934 41.432641 
z
" clip-path="url(#pb5c8e9c822)" style="fill: #bfd3f6; fill-opacity: 0.75"/>
    <path d="M 76.996891 42.457591 
L 78.373934 41.432641 
L 76.929071 40.400928 
L 75.5518 41.4197 
z
" clip-path="url(#pb5c8e9c822)" style="fill: #bfd3f6; fill-opacity: 0.75"/>
    <path d="M 57.181474 42.491513 
L 58.617283 41.373109 
L 57.231313 40.341494 
L 55.795797 41.453566 
z
" clip-path="url(#pb5c8e9c822)" style="fill: #bfd3f6; fill-opacity: 0.75"/>
    <path d="M 74.166356 42.431171 
L 75.5518 41.4197 
L 74.11534 40.388008 
L 72.729694 41.393323 
z
" clip-path="url(#pb5c8e9c822)" style="fill: #bfd3f6; fill-opacity: 0.75"/>
    <path d="M 82.658468 42.46114 
L 84.019727 41.382676 
L 82.557909 40.351045 
L 81.196425 41.423243 
z
" clip-path="url(#pb5c8e9c822)" style="fill: #bfd3f6; fill-opacity: 0.75"/>
    <path d="M 71.335659 42.400258 
L 72.729694 41.393323 
L 71.301613 40.361675 
L 69.907418 41.362461 
z
" clip-path="url(#pb5c8e9c822)" style="fill: #c0d4f5; fill-opacity: 0.75"/>
    <path d="M 60.011582 42.410923 
L 61.439579 41.332537 
L 60.045106 40.300988 
L 58.617283 41.373109 
z
" clip-path="url(#pb5c8e9c822)" style="fill: #c0d4f5; fill-opacity: 0.75"/>
    <path d="M 68.504717 42.373834 
L 69.907418 41.362461 
L 68.48771 40.330864 
L 67.084909 41.336081 
z
" clip-path="url(#pb5c8e9c822)" style="fill: #c0d4f5; fill-opacity: 0.75"/>
    <path d="M 85.49033 42.420506 
L 86.844426 41.302204 
L 85.374018 40.270706 
L 84.019727 41.382676 
z
" clip-path="url(#pb5c8e9c822)" style="fill: #c0d4f5; fill-opacity: 0.75"/>
    <path d="M 65.673581 42.360868 
L 67.084909 41.336081 
L 65.673581 40.304527 
L 64.26223 41.323136 
z
" clip-path="url(#pb5c8e9c822)" style="fill: #c1d4f4; fill-opacity: 0.75"/>
    <path d="M 62.842432 42.370284 
L 64.26223 41.323136 
L 62.859309 40.291604 
L 61.439579 41.332537 
z
" clip-path="url(#pb5c8e9c822)" style="fill: #c1d4f4; fill-opacity: 0.75"/>
    <path d="M 47.24002 44.427308 
L 48.701883 43.057682 
L 47.342604 42.018803 
L 45.881623 43.38164 
z
" clip-path="url(#pb5c8e9c822)" style="fill: #a7c5fe; fill-opacity: 0.75"/>
    <path d="M 50.069348 44.102817 
L 51.525874 42.806633 
L 50.157697 41.768167 
L 48.701883 43.057682 
z
" clip-path="url(#pb5c8e9c822)" style="fill: #adc9fd; fill-opacity: 0.75"/>
    <path d="M 52.902293 43.851355 
L 54.352674 42.620624 
L 52.975701 41.582464 
L 51.525874 42.806633 
z
" clip-path="url(#pb5c8e9c822)" style="fill: #b2ccfb; fill-opacity: 0.75"/>
    <path d="M 55.737944 43.665039 
L 57.181474 42.491513 
L 55.795797 41.453566 
L 54.352674 42.620624 
z
" clip-path="url(#pb5c8e9c822)" style="fill: #b5cdfa; fill-opacity: 0.75"/>
    <path d="M 81.289785 43.514721 
L 82.658468 42.46114 
L 81.196425 41.423243 
L 79.82748 42.470554 
z
" clip-path="url(#pb5c8e9c822)" style="fill: #b7cff9; fill-opacity: 0.75"/>
    <path d="M 78.450691 43.501737 
L 79.82748 42.470554 
L 78.373934 41.432641 
L 76.996891 42.457591 
z
" clip-path="url(#pb5c8e9c822)" style="fill: #b7cff9; fill-opacity: 0.75"/>
    <path d="M 58.575501 43.535716 
L 60.011582 42.410923 
L 58.617283 41.373109 
L 57.181474 42.491513 
z
" clip-path="url(#pb5c8e9c822)" style="fill: #b7cff9; fill-opacity: 0.75"/>
    <path d="M 75.611676 43.475274 
L 76.996891 42.457591 
L 75.5518 41.4197 
L 74.166356 42.431171 
z
" clip-path="url(#pb5c8e9c822)" style="fill: #b7cff9; fill-opacity: 0.75"/>
    <path d="M 84.129322 43.505293 
L 85.49033 42.420506 
L 84.019727 41.382676 
L 82.658468 42.46114 
z
" clip-path="url(#pb5c8e9c822)" style="fill: #b7cff9; fill-opacity: 0.75"/>
    <path d="M 72.772507 43.44431 
L 74.166356 42.431171 
L 72.729694 41.393323 
L 71.335659 42.400258 
z
" clip-path="url(#pb5c8e9c822)" style="fill: #b7cff9; fill-opacity: 0.75"/>
    <path d="M 61.414285 43.454993 
L 62.842432 42.370284 
L 61.439579 41.332537 
L 60.011582 42.410923 
z
" clip-path="url(#pb5c8e9c822)" style="fill: #b9d0f9; fill-opacity: 0.75"/>
    <path d="M 69.933084 43.417842 
L 71.335659 42.400258 
L 69.907418 41.362461 
L 68.504717 42.373834 
z
" clip-path="url(#pb5c8e9c822)" style="fill: #b9d0f9; fill-opacity: 0.75"/>
    <path d="M 67.093439 43.404855 
L 68.504717 42.373834 
L 67.084909 41.336081 
L 65.673581 42.360868 
z
" clip-path="url(#pb5c8e9c822)" style="fill: #b9d0f9; fill-opacity: 0.75"/>
    <path d="M 64.25374 43.414286 
L 65.673581 42.360868 
L 64.26223 41.323136 
L 62.842432 42.370284 
z
" clip-path="url(#pb5c8e9c822)" style="fill: #b9d0f9; fill-opacity: 0.75"/>
    <path d="M 48.606619 45.479289 
L 50.069348 44.102817 
L 48.701883 43.057682 
L 47.24002 44.427308 
z
" clip-path="url(#pb5c8e9c822)" style="fill: #9fbfff; fill-opacity: 0.75"/>
    <path d="M 51.445072 45.154265 
L 52.902293 43.851355 
L 51.525874 42.806633 
L 50.069348 44.102817 
z
" clip-path="url(#pb5c8e9c822)" style="fill: #a5c3fe; fill-opacity: 0.75"/>
    <path d="M 54.287029 44.902389 
L 55.737944 43.665039 
L 54.352674 42.620624 
L 52.902293 43.851355 
z
" clip-path="url(#pb5c8e9c822)" style="fill: #a9c6fd; fill-opacity: 0.75"/>
    <path d="M 57.131586 44.715767 
L 58.575501 43.535716 
L 57.181474 42.491513 
L 55.737944 43.665039 
z
" clip-path="url(#pb5c8e9c822)" style="fill: #adc9fd; fill-opacity: 0.75"/>
    <path d="M 82.76093 44.565201 
L 84.129322 43.505293 
L 82.658468 42.46114 
L 81.289785 43.514721 
z
" clip-path="url(#pb5c8e9c822)" style="fill: #aec9fc; fill-opacity: 0.75"/>
    <path d="M 79.91328 44.552195 
L 81.289785 43.514721 
L 79.82748 42.470554 
L 78.450691 43.501737 
z
" clip-path="url(#pb5c8e9c822)" style="fill: #aec9fc; fill-opacity: 0.75"/>
    <path d="M 59.977955 44.58623 
L 61.414285 43.454993 
L 60.011582 42.410923 
L 58.575501 43.535716 
z
" clip-path="url(#pb5c8e9c822)" style="fill: #aec9fc; fill-opacity: 0.75"/>
    <path d="M 77.065734 44.525688 
L 78.450691 43.501737 
L 76.996891 42.457591 
L 75.611676 43.475274 
z
" clip-path="url(#pb5c8e9c822)" style="fill: #afcafc; fill-opacity: 0.75"/>
    <path d="M 74.218042 44.494673 
L 75.611676 43.475274 
L 74.166356 42.431171 
L 72.772507 43.44431 
z
" clip-path="url(#pb5c8e9c822)" style="fill: #afcafc; fill-opacity: 0.75"/>
    <path d="M 62.825467 44.505374 
L 64.25374 43.414286 
L 62.842432 42.370284 
L 61.414285 43.454993 
z
" clip-path="url(#pb5c8e9c822)" style="fill: #afcafc; fill-opacity: 0.75"/>
    <path d="M 71.370085 44.468162 
L 72.772507 43.44431 
L 71.335659 42.400258 
L 69.933084 43.417842 
z
" clip-path="url(#pb5c8e9c822)" style="fill: #afcafc; fill-opacity: 0.75"/>
    <path d="M 68.521882 44.455153 
L 69.933084 43.417842 
L 68.504717 42.373834 
L 67.093439 43.404855 
z
" clip-path="url(#pb5c8e9c822)" style="fill: #b1cbfc; fill-opacity: 0.75"/>
    <path d="M 65.673581 44.4646 
L 67.093439 43.404855 
L 65.673581 42.360868 
L 64.25374 43.414286 
z
" clip-path="url(#pb5c8e9c822)" style="fill: #b1cbfc; fill-opacity: 0.75"/>
    <path d="M 49.981494 46.537641 
L 51.445072 45.154265 
L 50.069348 44.102817 
L 48.606619 45.479289 
z
" clip-path="url(#pb5c8e9c822)" style="fill: #96b7ff; fill-opacity: 0.75"/>
    <path d="M 52.829131 46.212084 
L 54.287029 44.902389 
L 52.902293 43.851355 
L 51.445072 45.154265 
z
" clip-path="url(#pb5c8e9c822)" style="fill: #9dbdff; fill-opacity: 0.75"/>
    <path d="M 55.680157 45.959793 
L 57.131586 44.715767 
L 55.737944 43.665039 
L 54.287029 44.902389 
z
" clip-path="url(#pb5c8e9c822)" style="fill: #a1c0ff; fill-opacity: 0.75"/>
    <path d="M 58.533676 45.772864 
L 59.977955 44.58623 
L 58.575501 43.535716 
L 57.131586 44.715767 
z
" clip-path="url(#pb5c8e9c822)" style="fill: #a3c2fe; fill-opacity: 0.75"/>
    <path d="M 81.384737 45.609023 
L 82.76093 44.565201 
L 81.289785 43.514721 
L 79.91328 44.552195 
z
" clip-path="url(#pb5c8e9c822)" style="fill: #a6c4fe; fill-opacity: 0.75"/>
    <path d="M 61.388912 45.643113 
L 62.825467 44.505374 
L 61.414285 43.454993 
L 59.977955 44.58623 
z
" clip-path="url(#pb5c8e9c822)" style="fill: #a6c4fe; fill-opacity: 0.75"/>
    <path d="M 78.528609 45.582472 
L 79.91328 44.552195 
L 78.450691 43.501737 
L 77.065734 44.525688 
z
" clip-path="url(#pb5c8e9c822)" style="fill: #a6c4fe; fill-opacity: 0.75"/>
    <path d="M 75.672342 45.551405 
L 77.065734 44.525688 
L 75.611676 43.475274 
L 74.218042 44.494673 
z
" clip-path="url(#pb5c8e9c822)" style="fill: #a7c5fe; fill-opacity: 0.75"/>
    <path d="M 64.245207 45.562124 
L 65.673581 44.4646 
L 64.25374 43.414286 
L 62.825467 44.505374 
z
" clip-path="url(#pb5c8e9c822)" style="fill: #a7c5fe; fill-opacity: 0.75"/>
    <path d="M 72.815801 45.524851 
L 74.218042 44.494673 
L 72.772507 43.44431 
L 71.370085 44.468162 
z
" clip-path="url(#pb5c8e9c822)" style="fill: #a7c5fe; fill-opacity: 0.75"/>
    <path d="M 69.958986 45.51182 
L 71.370085 44.468162 
L 69.933084 43.417842 
L 68.521882 44.455153 
z
" clip-path="url(#pb5c8e9c822)" style="fill: #a7c5fe; fill-opacity: 0.75"/>
    <path d="M 67.102032 45.521283 
L 68.521882 44.455153 
L 67.093439 43.404855 
L 65.673581 44.4646 
z
" clip-path="url(#pb5c8e9c822)" style="fill: #a7c5fe; fill-opacity: 0.75"/>
    <path d="M 51.364721 47.602421 
L 52.829131 46.212084 
L 51.445072 45.154265 
L 49.981494 46.537641 
z
" clip-path="url(#pb5c8e9c822)" style="fill: #8db0fe; fill-opacity: 0.75"/>
    <path d="M 54.221601 47.27633 
L 55.680157 45.959793 
L 54.287029 44.902389 
L 52.829131 46.212084 
z
" clip-path="url(#pb5c8e9c822)" style="fill: #93b5fe; fill-opacity: 0.75"/>
    <path d="M 57.081753 47.023625 
L 58.533676 45.772864 
L 57.131586 44.715767 
L 55.680157 45.959793 
z
" clip-path="url(#pb5c8e9c822)" style="fill: #98b9ff; fill-opacity: 0.75"/>
    <path d="M 59.944292 46.836388 
L 61.388912 45.643113 
L 59.977955 44.58623 
L 58.533676 45.772864 
z
" clip-path="url(#pb5c8e9c822)" style="fill: #9bbcff; fill-opacity: 0.75"/>
    <path d="M 62.808449 46.706424 
L 64.245207 45.562124 
L 62.825467 44.505374 
L 61.388912 45.643113 
z
" clip-path="url(#pb5c8e9c822)" style="fill: #9ebeff; fill-opacity: 0.75"/>
    <path d="M 80.000381 46.645683 
L 81.384737 45.609023 
L 79.91328 44.552195 
L 78.528609 45.582472 
z
" clip-path="url(#pb5c8e9c822)" style="fill: #9ebeff; fill-opacity: 0.75"/>
    <path d="M 77.135488 46.614565 
L 78.528609 45.582472 
L 77.065734 44.525688 
L 75.672342 45.551405 
z
" clip-path="url(#pb5c8e9c822)" style="fill: #9ebeff; fill-opacity: 0.75"/>
    <path d="M 65.673581 46.625301 
L 67.102032 45.521283 
L 65.673581 44.4646 
L 64.245207 45.562124 
z
" clip-path="url(#pb5c8e9c822)" style="fill: #9ebeff; fill-opacity: 0.75"/>
    <path d="M 74.27031 46.587967 
L 75.672342 45.551405 
L 74.218042 44.494673 
L 72.815801 45.524851 
z
" clip-path="url(#pb5c8e9c822)" style="fill: #9fbfff; fill-opacity: 0.75"/>
    <path d="M 71.404832 46.574915 
L 72.815801 45.524851 
L 71.370085 44.468162 
L 69.958986 45.51182 
z
" clip-path="url(#pb5c8e9c822)" style="fill: #9fbfff; fill-opacity: 0.75"/>
    <path d="M 68.539171 46.584393 
L 69.958986 45.51182 
L 68.521882 44.455153 
L 67.102032 45.521283 
z
" clip-path="url(#pb5c8e9c822)" style="fill: #9fbfff; fill-opacity: 0.75"/>
    <path d="M 52.756375 48.67369 
L 54.221601 47.27633 
L 52.829131 46.212084 
L 51.364721 47.602421 
z
" clip-path="url(#pb5c8e9c822)" style="fill: #84a7fc; fill-opacity: 0.75"/>
    <path d="M 55.622559 48.347064 
L 57.081753 47.023625 
L 55.680157 45.959793 
L 54.221601 47.27633 
z
" clip-path="url(#pb5c8e9c822)" style="fill: #8badfd; fill-opacity: 0.75"/>
    <path d="M 58.491896 48.093944 
L 59.944292 46.836388 
L 58.533676 45.772864 
L 57.081753 47.023625 
z
" clip-path="url(#pb5c8e9c822)" style="fill: #8fb1fe; fill-opacity: 0.75"/>
    <path d="M 61.36351 47.906399 
L 62.808449 46.706424 
L 61.388912 45.643113 
L 59.944292 46.836388 
z
" clip-path="url(#pb5c8e9c822)" style="fill: #93b5fe; fill-opacity: 0.75"/>
    <path d="M 64.236646 47.776221 
L 65.673581 46.625301 
L 64.245207 45.562124 
L 62.808449 46.706424 
z
" clip-path="url(#pb5c8e9c822)" style="fill: #94b6ff; fill-opacity: 0.75"/>
    <path d="M 78.607559 47.684211 
L 80.000381 46.645683 
L 78.528609 45.582472 
L 77.135488 46.614565 
z
" clip-path="url(#pb5c8e9c822)" style="fill: #96b7ff; fill-opacity: 0.75"/>
    <path d="M 67.11067 47.694965 
L 68.539171 46.584393 
L 67.102032 45.521283 
L 65.673581 46.625301 
z
" clip-path="url(#pb5c8e9c822)" style="fill: #96b7ff; fill-opacity: 0.75"/>
    <path d="M 75.733693 47.657569 
L 77.135488 46.614565 
L 75.672342 45.551405 
L 74.27031 46.587967 
z
" clip-path="url(#pb5c8e9c822)" style="fill: #96b7ff; fill-opacity: 0.75"/>
    <path d="M 72.859499 47.644496 
L 74.27031 46.587967 
L 72.815801 45.524851 
L 71.404832 46.574915 
z
" clip-path="url(#pb5c8e9c822)" style="fill: #96b7ff; fill-opacity: 0.75"/>
    <path d="M 69.985078 47.653989 
L 71.404832 46.574915 
L 69.958986 45.51182 
L 68.539171 46.584393 
z
" clip-path="url(#pb5c8e9c822)" style="fill: #96b7ff; fill-opacity: 0.75"/>
    <path d="M 54.156534 49.751505 
L 55.622559 48.347064 
L 54.221601 47.27633 
L 52.756375 48.67369 
z
" clip-path="url(#pb5c8e9c822)" style="fill: #7b9ff9; fill-opacity: 0.75"/>
    <path d="M 57.032082 49.424344 
L 58.491896 48.093944 
L 57.081753 47.023625 
L 55.622559 48.347064 
z
" clip-path="url(#pb5c8e9c822)" style="fill: #81a4fb; fill-opacity: 0.75"/>
    <path d="M 59.910663 49.170808 
L 61.36351 47.906399 
L 59.944292 46.836388 
L 58.491896 48.093944 
z
" clip-path="url(#pb5c8e9c822)" style="fill: #86a9fc; fill-opacity: 0.75"/>
    <path d="M 62.791412 48.982956 
L 64.236646 47.776221 
L 62.808449 46.706424 
L 61.36351 47.906399 
z
" clip-path="url(#pb5c8e9c822)" style="fill: #89acfd; fill-opacity: 0.75"/>
    <path d="M 65.673581 48.852564 
L 67.11067 47.694965 
L 65.673581 46.625301 
L 64.236646 47.776221 
z
" clip-path="url(#pb5c8e9c822)" style="fill: #8caffe; fill-opacity: 0.75"/>
    <path d="M 68.556552 48.771174 
L 69.985078 47.653989 
L 68.539171 46.584393 
L 67.11067 47.694965 
z
" clip-path="url(#pb5c8e9c822)" style="fill: #8db0fe; fill-opacity: 0.75"/>
    <path d="M 77.206032 48.733716 
L 78.607559 47.684211 
L 77.135488 46.614565 
L 75.733693 47.657569 
z
" clip-path="url(#pb5c8e9c822)" style="fill: #8db0fe; fill-opacity: 0.75"/>
    <path d="M 74.323068 48.720622 
L 75.733693 47.657569 
L 74.27031 46.587967 
L 72.859499 47.644496 
z
" clip-path="url(#pb5c8e9c822)" style="fill: #8db0fe; fill-opacity: 0.75"/>
    <path d="M 71.439834 48.730131 
L 72.859499 47.644496 
L 71.404832 46.574915 
L 69.985078 47.653989 
z
" clip-path="url(#pb5c8e9c822)" style="fill: #8db0fe; fill-opacity: 0.75"/>
    <path d="M 55.565277 50.835927 
L 57.032082 49.424344 
L 55.622559 48.347064 
L 54.156534 49.751505 
z
" clip-path="url(#pb5c8e9c822)" style="fill: #7295f4; fill-opacity: 0.75"/>
    <path d="M 58.45025 50.508231 
L 59.910663 49.170808 
L 58.491896 48.093944 
L 57.032082 49.424344 
z
" clip-path="url(#pb5c8e9c822)" style="fill: #799cf8; fill-opacity: 0.75"/>
    <path d="M 61.338135 50.25428 
L 62.791412 48.982956 
L 61.36351 47.906399 
L 59.910663 49.170808 
z
" clip-path="url(#pb5c8e9c822)" style="fill: #7da0f9; fill-opacity: 0.75"/>
    <path d="M 64.228075 50.066119 
L 65.673581 48.852564 
L 64.236646 47.776221 
L 62.791412 48.982956 
z
" clip-path="url(#pb5c8e9c822)" style="fill: #81a4fb; fill-opacity: 0.75"/>
    <path d="M 67.119336 49.935513 
L 68.556552 48.771174 
L 67.11067 47.694965 
L 65.673581 48.852564 
z
" clip-path="url(#pb5c8e9c822)" style="fill: #82a6fb; fill-opacity: 0.75"/>
    <path d="M 70.01131 49.853989 
L 71.439834 48.730131 
L 69.985078 47.653989 
L 68.556552 48.771174 
z
" clip-path="url(#pb5c8e9c822)" style="fill: #84a7fc; fill-opacity: 0.75"/>
    <path d="M 75.795621 49.803354 
L 77.206032 48.733716 
L 75.733693 47.657569 
L 74.323068 48.720622 
z
" clip-path="url(#pb5c8e9c822)" style="fill: #85a8fc; fill-opacity: 0.75"/>
    <path d="M 72.903519 49.812878 
L 74.323068 48.720622 
L 72.859499 47.644496 
L 71.439834 48.730131 
z
" clip-path="url(#pb5c8e9c822)" style="fill: #85a8fc; fill-opacity: 0.75"/>
    <path d="M 56.982682 51.927018 
L 58.45025 50.508231 
L 57.032082 49.424344 
L 55.565277 50.835927 
z
" clip-path="url(#pb5c8e9c822)" style="fill: #6a8bef; fill-opacity: 0.75"/>
    <path d="M 59.877142 51.598785 
L 61.338135 50.25428 
L 59.910663 49.170808 
L 58.45025 50.508231 
z
" clip-path="url(#pb5c8e9c822)" style="fill: #6f92f3; fill-opacity: 0.75"/>
    <path d="M 62.774391 51.344418 
L 64.228075 50.066119 
L 62.791412 48.982956 
L 61.338135 50.25428 
z
" clip-path="url(#pb5c8e9c822)" style="fill: #7597f6; fill-opacity: 0.75"/>
    <path d="M 65.673581 51.155949 
L 67.119336 49.935513 
L 65.673581 48.852564 
L 64.228075 50.066119 
z
" clip-path="url(#pb5c8e9c822)" style="fill: #779af7; fill-opacity: 0.75"/>
    <path d="M 68.573991 51.025128 
L 70.01131 49.853989 
L 68.556552 48.771174 
L 67.119336 49.935513 
z
" clip-path="url(#pb5c8e9c822)" style="fill: #7a9df8; fill-opacity: 0.75"/>
    <path d="M 71.475024 50.943471 
L 72.903519 49.812878 
L 71.439834 48.730131 
L 70.01131 49.853989 
z
" clip-path="url(#pb5c8e9c822)" style="fill: #7b9ff9; fill-opacity: 0.75"/>
    <path d="M 74.376217 50.902293 
L 75.795621 49.803354 
L 74.323068 48.720622 
L 72.903519 49.812878 
z
" clip-path="url(#pb5c8e9c822)" style="fill: #7b9ff9; fill-opacity: 0.75"/>
    <path d="M 58.40883 53.024839 
L 59.877142 51.598785 
L 58.45025 50.508231 
L 56.982682 51.927018 
z
" clip-path="url(#pb5c8e9c822)" style="fill: #6282ea; fill-opacity: 0.75"/>
    <path d="M 61.312839 52.69607 
L 62.774391 51.344418 
L 61.338135 50.25428 
L 59.877142 51.598785 
z
" clip-path="url(#pb5c8e9c822)" style="fill: #6788ee; fill-opacity: 0.75"/>
    <path d="M 64.219512 52.441286 
L 65.673581 51.155949 
L 64.228075 50.066119 
L 62.774391 51.344418 
z
" clip-path="url(#pb5c8e9c822)" style="fill: #6b8df0; fill-opacity: 0.75"/>
    <path d="M 67.128013 52.252508 
L 68.573991 51.025128 
L 67.119336 49.935513 
L 65.673581 51.155949 
z
" clip-path="url(#pb5c8e9c822)" style="fill: #6f92f3; fill-opacity: 0.75"/>
    <path d="M 70.037629 52.121473 
L 71.475024 50.943471 
L 70.01131 49.853989 
L 68.573991 51.025128 
z
" clip-path="url(#pb5c8e9c822)" style="fill: #7093f3; fill-opacity: 0.75"/>
    <path d="M 72.947778 52.039682 
L 74.376217 50.902293 
L 72.903519 49.812878 
L 71.475024 50.943471 
z
" clip-path="url(#pb5c8e9c822)" style="fill: #7295f4; fill-opacity: 0.75"/>
    <path d="M 59.843801 54.129451 
L 61.312839 52.69607 
L 59.877142 51.598785 
L 58.40883 53.024839 
z
" clip-path="url(#pb5c8e9c822)" style="fill: #5977e3; fill-opacity: 0.75"/>
    <path d="M 62.757422 53.800146 
L 64.219512 52.441286 
L 62.774391 51.344418 
L 61.312839 52.69607 
z
" clip-path="url(#pb5c8e9c822)" style="fill: #5f7fe8; fill-opacity: 0.75"/>
    <path d="M 65.673581 53.544946 
L 67.128013 52.252508 
L 65.673581 51.155949 
L 64.219512 52.441286 
z
" clip-path="url(#pb5c8e9c822)" style="fill: #6384eb; fill-opacity: 0.75"/>
    <path d="M 68.591452 53.355858 
L 70.037629 52.121473 
L 68.573991 51.025128 
L 67.128013 52.252508 
z
" clip-path="url(#pb5c8e9c822)" style="fill: #6687ed; fill-opacity: 0.75"/>
    <path d="M 71.510334 53.224609 
L 72.947778 52.039682 
L 71.475024 50.943471 
L 70.037629 52.121473 
z
" clip-path="url(#pb5c8e9c822)" style="fill: #688aef; fill-opacity: 0.75"/>
    <path d="M 61.287678 55.24092 
L 62.757422 53.800146 
L 61.312839 52.69607 
L 59.843801 54.129451 
z
" clip-path="url(#pb5c8e9c822)" style="fill: #516ddb; fill-opacity: 0.75"/>
    <path d="M 64.210975 54.911077 
L 65.673581 53.544946 
L 64.219512 52.441286 
L 62.757422 53.800146 
z
" clip-path="url(#pb5c8e9c822)" style="fill: #5673e0; fill-opacity: 0.75"/>
    <path d="M 67.136682 54.65546 
L 68.591452 53.355858 
L 67.128013 52.252508 
L 65.673581 53.544946 
z
" clip-path="url(#pb5c8e9c822)" style="fill: #5b7ae5; fill-opacity: 0.75"/>
    <path d="M 70.063983 54.466064 
L 71.510334 53.224609 
L 70.037629 52.121473 
L 68.591452 53.355858 
z
" clip-path="url(#pb5c8e9c822)" style="fill: #5e7de7; fill-opacity: 0.75"/>
    <path d="M 62.740544 56.359308 
L 64.210975 54.911077 
L 62.757422 53.800146 
L 61.287678 55.24092 
z
" clip-path="url(#pb5c8e9c822)" style="fill: #4961d2; fill-opacity: 0.75"/>
    <path d="M 65.673581 56.028927 
L 67.136682 54.65546 
L 65.673581 53.544946 
L 64.210975 54.911077 
z
" clip-path="url(#pb5c8e9c822)" style="fill: #4f69d9; fill-opacity: 0.75"/>
    <path d="M 68.608898 55.772894 
L 70.063983 54.466064 
L 68.591452 53.355858 
L 67.136682 54.65546 
z
" clip-path="url(#pb5c8e9c822)" style="fill: #536edd; fill-opacity: 0.75"/>
    <path d="M 64.202483 57.48468 
L 65.673581 56.028927 
L 64.210975 54.911077 
L 62.740544 56.359308 
z
" clip-path="url(#pb5c8e9c822)" style="fill: #4257c9; fill-opacity: 0.75"/>
    <path d="M 67.145325 57.153762 
L 68.608898 55.772894 
L 67.136682 54.65546 
L 65.673581 56.028927 
z
" clip-path="url(#pb5c8e9c822)" style="fill: #465ecf; fill-opacity: 0.75"/>
    <path d="M 65.673581 58.617102 
L 67.145325 57.153762 
L 65.673581 56.028927 
L 64.202483 57.48468 
z
" clip-path="url(#pb5c8e9c822)" style="fill: #3b4cc0; fill-opacity: 0.75"/>
   </g>
  </g>
 </g>
 <defs>
  <clipPath id="pb5c8e9c822">
   <rect x="31.332936" y="3.00024" width="66.873888" height="66.873888"/>
  </clipPath>
 </defs>
</svg>
