<?xml version="1.0" encoding="utf-8" standalone="no"?>
<!DOCTYPE svg PUBLIC "-//W3C//DTD SVG 1.1//EN"
  "http://www.w3.org/Graphics/SVG/1.1/DTD/svg11.dtd">
<svg xmlns:xlink="http://www.w3.org/1999/xlink" width="194.30964pt" height="218.623104pt" viewBox="0 0 194.30964 218.623104" xmlns="http://www.w3.org/2000/svg" version="1.1">
 <metadata>
  <rdf:RDF xmlns:dc="http://purl.org/dc/elements/1.1/" xmlns:cc="http://creativecommons.org/ns#" xmlns:rdf="http://www.w3.org/1999/02/22-rdf-syntax-ns#">
   <cc:Work>
    <dc:type rdf:resource="http://purl.org/dc/dcmitype/StillImage"/>
    <dc:date>2025-01-02T14:20:39.891475</dc:date>
    <dc:format>image/svg+xml</dc:format>
    <dc:creator>
     <cc:Agent>
      <dc:title>Matplotlib v3.8.2, https://matplotlib.org/</dc:title>
     </cc:Agent>
    </dc:creator>
   </cc:Work>
  </rdf:RDF>
 </metadata>
 <defs>
  <style type="text/css">*{stroke-linejoin: round; stroke-linecap: butt}</style>
 </defs>
 <g id="figure_1">
  <g id="patch_1">
   <path d="M 0 218.623104 
L 194.30964 218.623104 
L 194.30964 0 
L 0 0 
z
" style="fill: #ffffff"/>
  </g>
  <g id="axes_1">
   <g id="patch_2">
    <path d="M 31.080396 195.348177 
L 191.3094 195.348177 
L 191.3094 9.00072 
L 31.080396 9.00072 
z
" style="fill: #ffffff"/>
   </g>
   <g id="matplotlib.axis_1">
    <g id="xtick_1">
     <g id="line2d_1">
      <path d="M 38.363533 195.348177 
L 38.363533 9.00072 
" clip-path="url(#p7a298e0c94)" style="fill: none; stroke: #b0b0b0; stroke-width: 0.1; stroke-linecap: round"/>
     </g>
     <g id="line2d_2"/>
     <g id="text_1">
      <!-- −10 -->
      <g style="fill: #262626" transform="translate(30.976892 204.167083) scale(0.07 -0.07)">
       <defs>
        <path id="DejaVuSerif-2212" d="M 678 2259 
L 4684 2259 
L 4684 1753 
L 678 1753 
L 678 2259 
z
" transform="scale(0.015625)"/>
        <path id="DejaVuSerif-31" d="M 909 0 
L 909 331 
L 1722 331 
L 1722 4213 
L 781 3603 
L 781 4013 
L 1919 4750 
L 2350 4750 
L 2350 331 
L 3163 331 
L 3163 0 
L 909 0 
z
" transform="scale(0.015625)"/>
        <path id="DejaVuSerif-30" d="M 2034 219 
Q 2513 219 2750 744 
Q 2988 1269 2988 2328 
Q 2988 3391 2750 3916 
Q 2513 4441 2034 4441 
Q 1556 4441 1318 3916 
Q 1081 3391 1081 2328 
Q 1081 1269 1318 744 
Q 1556 219 2034 219 
z
M 2034 -91 
Q 1275 -91 848 546 
Q 422 1184 422 2328 
Q 422 3475 848 4112 
Q 1275 4750 2034 4750 
Q 2797 4750 3222 4112 
Q 3647 3475 3647 2328 
Q 3647 1184 3222 546 
Q 2797 -91 2034 -91 
z
" transform="scale(0.015625)"/>
       </defs>
       <use xlink:href="#DejaVuSerif-2212"/>
       <use xlink:href="#DejaVuSerif-31" x="83.789062"/>
       <use xlink:href="#DejaVuSerif-30" x="147.412109"/>
      </g>
     </g>
    </g>
    <g id="xtick_2">
     <g id="line2d_3">
      <path d="M 74.779215 195.348177 
L 74.779215 9.00072 
" clip-path="url(#p7a298e0c94)" style="fill: none; stroke: #b0b0b0; stroke-width: 0.1; stroke-linecap: round"/>
     </g>
     <g id="line2d_4"/>
     <g id="text_2">
      <!-- −5 -->
      <g style="fill: #262626" transform="translate(69.61945 204.167083) scale(0.07 -0.07)">
       <defs>
        <path id="DejaVuSerif-35" d="M 3219 4666 
L 3219 4153 
L 1081 4153 
L 1081 2816 
Q 1244 2928 1461 2984 
Q 1678 3041 1947 3041 
Q 2703 3041 3140 2622 
Q 3578 2203 3578 1478 
Q 3578 738 3136 323 
Q 2694 -91 1894 -91 
Q 1572 -91 1234 -12 
Q 897 66 544 225 
L 544 1131 
L 897 1131 
Q 925 688 1179 453 
Q 1434 219 1894 219 
Q 2388 219 2653 544 
Q 2919 869 2919 1478 
Q 2919 2084 2655 2407 
Q 2391 2731 1894 2731 
Q 1613 2731 1398 2631 
Q 1184 2531 1019 2322 
L 750 2322 
L 750 4666 
L 3219 4666 
z
" transform="scale(0.015625)"/>
       </defs>
       <use xlink:href="#DejaVuSerif-2212"/>
       <use xlink:href="#DejaVuSerif-35" x="83.789062"/>
      </g>
     </g>
    </g>
    <g id="xtick_3">
     <g id="line2d_5">
      <path d="M 111.194898 195.348177 
L 111.194898 9.00072 
" clip-path="url(#p7a298e0c94)" style="fill: none; stroke: #b0b0b0; stroke-width: 0.1; stroke-linecap: round"/>
     </g>
     <g id="line2d_6"/>
     <g id="text_3">
      <!-- 0 -->
      <g style="fill: #262626" transform="translate(108.968023 204.167083) scale(0.07 -0.07)">
       <use xlink:href="#DejaVuSerif-30"/>
      </g>
     </g>
    </g>
    <g id="xtick_4">
     <g id="line2d_7">
      <path d="M 147.610581 195.348177 
L 147.610581 9.00072 
" clip-path="url(#p7a298e0c94)" style="fill: none; stroke: #b0b0b0; stroke-width: 0.1; stroke-linecap: round"/>
     </g>
     <g id="line2d_8"/>
     <g id="text_4">
      <!-- 5 -->
      <g style="fill: #262626" transform="translate(145.383706 204.167083) scale(0.07 -0.07)">
       <use xlink:href="#DejaVuSerif-35"/>
      </g>
     </g>
    </g>
    <g id="xtick_5">
     <g id="line2d_9">
      <path d="M 184.026263 195.348177 
L 184.026263 9.00072 
" clip-path="url(#p7a298e0c94)" style="fill: none; stroke: #b0b0b0; stroke-width: 0.1; stroke-linecap: round"/>
     </g>
     <g id="line2d_10"/>
     <g id="text_5">
      <!-- 10 -->
      <g style="fill: #262626" transform="translate(179.572513 204.167083) scale(0.07 -0.07)">
       <use xlink:href="#DejaVuSerif-31"/>
       <use xlink:href="#DejaVuSerif-30" x="63.623047"/>
      </g>
     </g>
    </g>
    <g id="text_6">
     <!-- Drift angle $\beta$ [deg] -->
     <g style="fill: #262626" transform="translate(82.964898 214.242864) scale(0.06 -0.06)">
      <defs>
       <path id="DejaVuSerif-44" d="M 1581 331 
L 2163 331 
Q 3072 331 3558 850 
Q 4044 1369 4044 2338 
Q 4044 3306 3559 3818 
Q 3075 4331 2163 4331 
L 1581 4331 
L 1581 331 
z
M 353 0 
L 353 331 
L 947 331 
L 947 4331 
L 353 4331 
L 353 4666 
L 2209 4666 
Q 3416 4666 4089 4050 
Q 4763 3434 4763 2338 
Q 4763 1238 4088 619 
Q 3413 0 2209 0 
L 353 0 
z
" transform="scale(0.015625)"/>
       <path id="DejaVuSerif-72" d="M 3059 3328 
L 3059 2497 
L 2728 2497 
Q 2713 2744 2591 2866 
Q 2469 2988 2234 2988 
Q 1809 2988 1582 2694 
Q 1356 2400 1356 1850 
L 1356 331 
L 2022 331 
L 2022 0 
L 263 0 
L 263 331 
L 781 331 
L 781 2994 
L 231 2994 
L 231 3322 
L 1356 3322 
L 1356 2731 
Q 1525 3078 1790 3245 
Q 2056 3413 2438 3413 
Q 2578 3413 2733 3391 
Q 2888 3369 3059 3328 
z
" transform="scale(0.015625)"/>
       <path id="DejaVuSerif-69" d="M 622 4353 
Q 622 4497 726 4603 
Q 831 4709 978 4709 
Q 1122 4709 1226 4603 
Q 1331 4497 1331 4353 
Q 1331 4206 1228 4103 
Q 1125 4000 978 4000 
Q 831 4000 726 4103 
Q 622 4206 622 4353 
z
M 1356 331 
L 1900 331 
L 1900 0 
L 231 0 
L 231 331 
L 781 331 
L 781 2988 
L 231 2988 
L 231 3322 
L 1356 3322 
L 1356 331 
z
" transform="scale(0.015625)"/>
       <path id="DejaVuSerif-66" d="M 2753 4078 
L 2450 4078 
Q 2447 4313 2317 4434 
Q 2188 4556 1941 4556 
Q 1619 4556 1487 4379 
Q 1356 4203 1356 3750 
L 1356 3322 
L 2284 3322 
L 2284 2988 
L 1356 2988 
L 1356 331 
L 2094 331 
L 2094 0 
L 231 0 
L 231 331 
L 781 331 
L 781 2988 
L 231 2988 
L 231 3322 
L 781 3322 
L 781 3738 
Q 781 4294 1070 4578 
Q 1359 4863 1919 4863 
Q 2128 4863 2337 4825 
Q 2547 4788 2753 4709 
L 2753 4078 
z
" transform="scale(0.015625)"/>
       <path id="DejaVuSerif-74" d="M 691 2988 
L 184 2988 
L 184 3322 
L 691 3322 
L 691 4353 
L 1269 4353 
L 1269 3322 
L 2350 3322 
L 2350 2988 
L 1269 2988 
L 1269 878 
Q 1269 456 1350 337 
Q 1431 219 1650 219 
Q 1875 219 1978 351 
Q 2081 484 2088 781 
L 2522 781 
Q 2497 328 2275 118 
Q 2053 -91 1600 -91 
Q 1103 -91 897 129 
Q 691 350 691 878 
L 691 2988 
z
" transform="scale(0.015625)"/>
       <path id="DejaVuSerif-20" transform="scale(0.015625)"/>
       <path id="DejaVuSerif-61" d="M 2547 1044 
L 2547 1747 
L 1806 1747 
Q 1378 1747 1168 1562 
Q 959 1378 959 997 
Q 959 650 1171 447 
Q 1384 244 1747 244 
Q 2106 244 2326 466 
Q 2547 688 2547 1044 
z
M 3122 2075 
L 3122 331 
L 3634 331 
L 3634 0 
L 2547 0 
L 2547 359 
Q 2356 128 2106 18 
Q 1856 -91 1522 -91 
Q 969 -91 644 203 
Q 319 497 319 997 
Q 319 1513 691 1797 
Q 1063 2081 1741 2081 
L 2547 2081 
L 2547 2309 
Q 2547 2688 2317 2895 
Q 2088 3103 1672 3103 
Q 1328 3103 1125 2947 
Q 922 2791 872 2484 
L 575 2484 
L 575 3156 
Q 875 3284 1158 3348 
Q 1441 3413 1709 3413 
Q 2400 3413 2761 3070 
Q 3122 2728 3122 2075 
z
" transform="scale(0.015625)"/>
       <path id="DejaVuSerif-6e" d="M 263 0 
L 263 331 
L 781 331 
L 781 2988 
L 231 2988 
L 231 3322 
L 1356 3322 
L 1356 2731 
Q 1516 3069 1770 3241 
Q 2025 3413 2363 3413 
Q 2913 3413 3172 3097 
Q 3431 2781 3431 2113 
L 3431 331 
L 3944 331 
L 3944 0 
L 2356 0 
L 2356 331 
L 2853 331 
L 2853 1931 
Q 2853 2541 2703 2767 
Q 2553 2994 2175 2994 
Q 1775 2994 1565 2701 
Q 1356 2409 1356 1850 
L 1356 331 
L 1856 331 
L 1856 0 
L 263 0 
z
" transform="scale(0.015625)"/>
       <path id="DejaVuSerif-67" d="M 3359 2988 
L 3359 72 
Q 3359 -644 2965 -1033 
Q 2572 -1422 1844 -1422 
Q 1516 -1422 1216 -1362 
Q 916 -1303 641 -1184 
L 641 -488 
L 941 -488 
Q 997 -813 1206 -963 
Q 1416 -1113 1806 -1113 
Q 2313 -1113 2548 -827 
Q 2784 -541 2784 72 
L 2784 519 
Q 2616 206 2355 57 
Q 2094 -91 1709 -91 
Q 1097 -91 708 395 
Q 319 881 319 1663 
Q 319 2444 706 2928 
Q 1094 3413 1709 3413 
Q 2094 3413 2355 3264 
Q 2616 3116 2784 2803 
L 2784 3322 
L 3909 3322 
L 3909 2988 
L 3359 2988 
z
M 2784 1825 
Q 2784 2422 2554 2737 
Q 2325 3053 1888 3053 
Q 1444 3053 1217 2703 
Q 991 2353 991 1663 
Q 991 975 1217 622 
Q 1444 269 1888 269 
Q 2325 269 2554 583 
Q 2784 897 2784 1497 
L 2784 1825 
z
" transform="scale(0.015625)"/>
       <path id="DejaVuSerif-6c" d="M 1313 331 
L 1856 331 
L 1856 0 
L 184 0 
L 184 331 
L 738 331 
L 738 4531 
L 184 4531 
L 184 4863 
L 1313 4863 
L 1313 331 
z
" transform="scale(0.015625)"/>
       <path id="DejaVuSerif-65" d="M 3469 1600 
L 991 1600 
L 991 1575 
Q 991 903 1244 561 
Q 1497 219 1991 219 
Q 2369 219 2611 417 
Q 2853 616 2950 1006 
L 3413 1006 
Q 3275 459 2904 184 
Q 2534 -91 1931 -91 
Q 1203 -91 761 389 
Q 319 869 319 1663 
Q 319 2450 753 2931 
Q 1188 3413 1894 3413 
Q 2647 3413 3050 2948 
Q 3453 2484 3469 1600 
z
M 2791 1931 
Q 2772 2513 2545 2808 
Q 2319 3103 1894 3103 
Q 1497 3103 1269 2806 
Q 1041 2509 991 1931 
L 2791 1931 
z
" transform="scale(0.015625)"/>
       <path id="DejaVuSans-Oblique-3b2" d="M 872 216 
L 572 -1331 
L -6 -1331 
L 928 3478 
Q 1206 4903 2538 4903 
Q 3888 4903 3659 3700 
Q 3503 2844 2894 2531 
Q 3713 2250 3553 1416 
Q 3272 -69 1759 -66 
Q 1097 -63 872 216 
z
M 1019 966 
Q 1259 422 1875 425 
Q 2775 425 2966 1406 
Q 3138 2288 1675 2219 
L 1778 2750 
Q 2909 2731 3106 3750 
Q 3241 4438 2509 4434 
Q 1691 4434 1503 3459 
L 1019 966 
z
" transform="scale(0.015625)"/>
       <path id="DejaVuSerif-5b" d="M 550 4863 
L 2003 4863 
L 2003 4531 
L 1147 4531 
L 1147 -513 
L 2003 -513 
L 2003 -844 
L 550 -844 
L 550 4863 
z
" transform="scale(0.015625)"/>
       <path id="DejaVuSerif-64" d="M 3359 331 
L 3909 331 
L 3909 0 
L 2784 0 
L 2784 519 
Q 2616 206 2355 57 
Q 2094 -91 1709 -91 
Q 1097 -91 708 395 
Q 319 881 319 1663 
Q 319 2444 706 2928 
Q 1094 3413 1709 3413 
Q 2094 3413 2355 3264 
Q 2616 3116 2784 2803 
L 2784 4531 
L 2241 4531 
L 2241 4863 
L 3359 4863 
L 3359 331 
z
M 2784 1497 
L 2784 1825 
Q 2784 2422 2554 2737 
Q 2325 3053 1888 3053 
Q 1444 3053 1217 2703 
Q 991 2353 991 1663 
Q 991 975 1217 622 
Q 1444 269 1888 269 
Q 2325 269 2554 583 
Q 2784 897 2784 1497 
z
" transform="scale(0.015625)"/>
       <path id="DejaVuSerif-5d" d="M 1947 4863 
L 1947 -844 
L 494 -844 
L 494 -513 
L 1350 -513 
L 1350 4531 
L 494 4531 
L 494 4863 
L 1947 4863 
z
" transform="scale(0.015625)"/>
      </defs>
      <use xlink:href="#DejaVuSerif-44" transform="translate(0 0.390625)"/>
      <use xlink:href="#DejaVuSerif-72" transform="translate(80.175781 0.390625)"/>
      <use xlink:href="#DejaVuSerif-69" transform="translate(127.978516 0.390625)"/>
      <use xlink:href="#DejaVuSerif-66" transform="translate(159.960938 0.390625)"/>
      <use xlink:href="#DejaVuSerif-74" transform="translate(196.972656 0.390625)"/>
      <use xlink:href="#DejaVuSerif-20" transform="translate(237.158203 0.390625)"/>
      <use xlink:href="#DejaVuSerif-61" transform="translate(268.945312 0.390625)"/>
      <use xlink:href="#DejaVuSerif-6e" transform="translate(328.564453 0.390625)"/>
      <use xlink:href="#DejaVuSerif-67" transform="translate(392.96875 0.390625)"/>
      <use xlink:href="#DejaVuSerif-6c" transform="translate(456.982422 0.390625)"/>
      <use xlink:href="#DejaVuSerif-65" transform="translate(488.964844 0.390625)"/>
      <use xlink:href="#DejaVuSerif-20" transform="translate(548.144531 0.390625)"/>
      <use xlink:href="#DejaVuSans-Oblique-3b2" transform="translate(579.931641 0.390625)"/>
      <use xlink:href="#DejaVuSerif-20" transform="translate(643.75 0.390625)"/>
      <use xlink:href="#DejaVuSerif-5b" transform="translate(675.537109 0.390625)"/>
      <use xlink:href="#DejaVuSerif-64" transform="translate(714.550781 0.390625)"/>
      <use xlink:href="#DejaVuSerif-65" transform="translate(778.564453 0.390625)"/>
      <use xlink:href="#DejaVuSerif-67" transform="translate(837.744141 0.390625)"/>
      <use xlink:href="#DejaVuSerif-5d" transform="translate(901.757812 0.390625)"/>
     </g>
    </g>
   </g>
   <g id="matplotlib.axis_2">
    <g id="ytick_1">
     <g id="line2d_11">
      <path d="M 31.080396 186.500221 
L 191.3094 186.500221 
" clip-path="url(#p7a298e0c94)" style="fill: none; stroke: #b0b0b0; stroke-width: 0.1; stroke-linecap: round"/>
     </g>
     <g id="line2d_12"/>
     <g id="text_7">
      <!-- −75 -->
      <g style="fill: #262626" transform="translate(12.807115 189.159675) scale(0.07 -0.07)">
       <defs>
        <path id="DejaVuSerif-37" d="M 3609 4347 
L 1784 0 
L 1319 0 
L 3059 4153 
L 903 4153 
L 903 3578 
L 538 3578 
L 538 4666 
L 3609 4666 
L 3609 4347 
z
" transform="scale(0.015625)"/>
       </defs>
       <use xlink:href="#DejaVuSerif-2212"/>
       <use xlink:href="#DejaVuSerif-37" x="83.789062"/>
       <use xlink:href="#DejaVuSerif-35" x="147.412109"/>
      </g>
     </g>
    </g>
    <g id="ytick_2">
     <g id="line2d_13">
      <path d="M 31.080396 164.06564 
L 191.3094 164.06564 
" clip-path="url(#p7a298e0c94)" style="fill: none; stroke: #b0b0b0; stroke-width: 0.1; stroke-linecap: round"/>
     </g>
     <g id="line2d_14"/>
     <g id="text_8">
      <!-- −50 -->
      <g style="fill: #262626" transform="translate(12.807115 166.725093) scale(0.07 -0.07)">
       <use xlink:href="#DejaVuSerif-2212"/>
       <use xlink:href="#DejaVuSerif-35" x="83.789062"/>
       <use xlink:href="#DejaVuSerif-30" x="147.412109"/>
      </g>
     </g>
    </g>
    <g id="ytick_3">
     <g id="line2d_15">
      <path d="M 31.080396 141.631059 
L 191.3094 141.631059 
" clip-path="url(#p7a298e0c94)" style="fill: none; stroke: #b0b0b0; stroke-width: 0.1; stroke-linecap: round"/>
     </g>
     <g id="line2d_16"/>
     <g id="text_9">
      <!-- −25 -->
      <g style="fill: #262626" transform="translate(12.807115 144.290512) scale(0.07 -0.07)">
       <defs>
        <path id="DejaVuSerif-32" d="M 819 3553 
L 469 3553 
L 469 4384 
Q 803 4563 1142 4656 
Q 1481 4750 1806 4750 
Q 2534 4750 2956 4397 
Q 3378 4044 3378 3438 
Q 3378 2753 2422 1800 
Q 2347 1728 2309 1691 
L 1131 513 
L 3078 513 
L 3078 1088 
L 3444 1088 
L 3444 0 
L 434 0 
L 434 341 
L 1850 1753 
Q 2319 2222 2519 2614 
Q 2719 3006 2719 3438 
Q 2719 3909 2473 4175 
Q 2228 4441 1797 4441 
Q 1350 4441 1106 4219 
Q 863 3997 819 3553 
z
" transform="scale(0.015625)"/>
       </defs>
       <use xlink:href="#DejaVuSerif-2212"/>
       <use xlink:href="#DejaVuSerif-32" x="83.789062"/>
       <use xlink:href="#DejaVuSerif-35" x="147.412109"/>
      </g>
     </g>
    </g>
    <g id="ytick_4">
     <g id="line2d_17">
      <path d="M 31.080396 119.196477 
L 191.3094 119.196477 
" clip-path="url(#p7a298e0c94)" style="fill: none; stroke: #b0b0b0; stroke-width: 0.1; stroke-linecap: round"/>
     </g>
     <g id="line2d_18"/>
     <g id="text_10">
      <!-- 0 -->
      <g style="fill: #262626" transform="translate(23.126646 121.85593) scale(0.07 -0.07)">
       <use xlink:href="#DejaVuSerif-30"/>
      </g>
     </g>
    </g>
    <g id="ytick_5">
     <g id="line2d_19">
      <path d="M 31.080396 96.761896 
L 191.3094 96.761896 
" clip-path="url(#p7a298e0c94)" style="fill: none; stroke: #b0b0b0; stroke-width: 0.1; stroke-linecap: round"/>
     </g>
     <g id="line2d_20"/>
     <g id="text_11">
      <!-- 25 -->
      <g style="fill: #262626" transform="translate(18.672896 99.421349) scale(0.07 -0.07)">
       <use xlink:href="#DejaVuSerif-32"/>
       <use xlink:href="#DejaVuSerif-35" x="63.623047"/>
      </g>
     </g>
    </g>
    <g id="ytick_6">
     <g id="line2d_21">
      <path d="M 31.080396 74.327314 
L 191.3094 74.327314 
" clip-path="url(#p7a298e0c94)" style="fill: none; stroke: #b0b0b0; stroke-width: 0.1; stroke-linecap: round"/>
     </g>
     <g id="line2d_22"/>
     <g id="text_12">
      <!-- 50 -->
      <g style="fill: #262626" transform="translate(18.672896 76.986768) scale(0.07 -0.07)">
       <use xlink:href="#DejaVuSerif-35"/>
       <use xlink:href="#DejaVuSerif-30" x="63.623047"/>
      </g>
     </g>
    </g>
    <g id="ytick_7">
     <g id="line2d_23">
      <path d="M 31.080396 51.892733 
L 191.3094 51.892733 
" clip-path="url(#p7a298e0c94)" style="fill: none; stroke: #b0b0b0; stroke-width: 0.1; stroke-linecap: round"/>
     </g>
     <g id="line2d_24"/>
     <g id="text_13">
      <!-- 75 -->
      <g style="fill: #262626" transform="translate(18.672896 54.552186) scale(0.07 -0.07)">
       <use xlink:href="#DejaVuSerif-37"/>
       <use xlink:href="#DejaVuSerif-35" x="63.623047"/>
      </g>
     </g>
    </g>
    <g id="ytick_8">
     <g id="line2d_25">
      <path d="M 31.080396 29.458152 
L 191.3094 29.458152 
" clip-path="url(#p7a298e0c94)" style="fill: none; stroke: #b0b0b0; stroke-width: 0.1; stroke-linecap: round"/>
     </g>
     <g id="line2d_26"/>
     <g id="text_14">
      <!-- 100 -->
      <g style="fill: #262626" transform="translate(14.219146 32.117605) scale(0.07 -0.07)">
       <use xlink:href="#DejaVuSerif-31"/>
       <use xlink:href="#DejaVuSerif-30" x="63.623047"/>
       <use xlink:href="#DejaVuSerif-30" x="127.246094"/>
      </g>
     </g>
    </g>
    <g id="text_15">
     <!-- $Y_H$ [N] -->
     <g style="fill: #262626" transform="translate(7.559302 111.594448) rotate(-90) scale(0.06 -0.06)">
      <defs>
       <path id="DejaVuSans-Oblique-59" d="M 403 4666 
L 1081 4666 
L 1953 2747 
L 3616 4666 
L 4325 4666 
L 2209 2222 
L 1778 0 
L 1147 0 
L 1575 2222 
L 403 4666 
z
" transform="scale(0.015625)"/>
       <path id="DejaVuSans-Oblique-48" d="M 1081 4666 
L 1716 4666 
L 1344 2753 
L 3634 2753 
L 4006 4666 
L 4641 4666 
L 3731 0 
L 3097 0 
L 3531 2222 
L 1241 2222 
L 806 0 
L 172 0 
L 1081 4666 
z
" transform="scale(0.015625)"/>
       <path id="DejaVuSerif-4e" d="M 313 0 
L 313 331 
L 941 331 
L 941 4331 
L 313 4331 
L 313 4666 
L 1509 4666 
L 4306 984 
L 4306 4331 
L 3681 4331 
L 3681 4666 
L 5319 4666 
L 5319 4331 
L 4691 4331 
L 4691 -91 
L 4313 -91 
L 1325 3841 
L 1325 331 
L 1953 331 
L 1953 0 
L 313 0 
z
" transform="scale(0.015625)"/>
      </defs>
      <use xlink:href="#DejaVuSans-Oblique-59" transform="translate(0 0.015625)"/>
      <use xlink:href="#DejaVuSans-Oblique-48" transform="translate(61.083984 -16.390625) scale(0.7)"/>
      <use xlink:href="#DejaVuSerif-20" transform="translate(116.455078 0.015625)"/>
      <use xlink:href="#DejaVuSerif-5b" transform="translate(148.242188 0.015625)"/>
      <use xlink:href="#DejaVuSerif-4e" transform="translate(187.255859 0.015625)"/>
      <use xlink:href="#DejaVuSerif-5d" transform="translate(274.755859 0.015625)"/>
     </g>
    </g>
   </g>
   <g id="line2d_27">
    <defs>
     <path id="me499f4f6de" d="M 0 0.75 
C 0.198902 0.75 0.389685 0.670975 0.53033 0.53033 
C 0.670975 0.389685 0.75 0.198902 0.75 0 
C 0.75 -0.198902 0.670975 -0.389685 0.53033 -0.53033 
C 0.389685 -0.670975 0.198902 -0.75 0 -0.75 
C -0.198902 -0.75 -0.389685 -0.670975 -0.53033 -0.53033 
C -0.670975 -0.389685 -0.75 -0.198902 -0.75 0 
C -0.75 0.198902 -0.670975 0.389685 -0.53033 0.53033 
C -0.389685 0.670975 -0.198902 0.75 0 0.75 
z
" style="stroke: #e4ff7a"/>
    </defs>
    <g clip-path="url(#p7a298e0c94)">
     <use xlink:href="#me499f4f6de" x="38.363533" y="186.875688" style="fill: #e4ff7a; stroke: #e4ff7a"/>
     <use xlink:href="#me499f4f6de" x="74.779215" y="161.482468" style="fill: #e4ff7a; stroke: #e4ff7a"/>
    </g>
   </g>
   <g id="line2d_28">
    <defs>
     <path id="mb9015b1077" d="M 0 0.75 
C 0.198902 0.75 0.389685 0.670975 0.53033 0.53033 
C 0.670975 0.389685 0.75 0.198902 0.75 0 
C 0.75 -0.198902 0.670975 -0.389685 0.53033 -0.53033 
C 0.389685 -0.670975 0.198902 -0.75 0 -0.75 
C -0.198902 -0.75 -0.389685 -0.670975 -0.53033 -0.53033 
C -0.670975 -0.389685 -0.75 -0.198902 -0.75 0 
C -0.75 0.198902 -0.670975 0.389685 -0.53033 0.53033 
C -0.389685 0.670975 -0.198902 0.75 0 0.75 
z
" style="stroke: #ffe81a"/>
    </defs>
    <g clip-path="url(#p7a298e0c94)">
     <use xlink:href="#mb9015b1077" x="38.363533" y="176.342472" style="fill: #ffe81a; stroke: #ffe81a"/>
     <use xlink:href="#mb9015b1077" x="74.779215" y="152.450514" style="fill: #ffe81a; stroke: #ffe81a"/>
     <use xlink:href="#mb9015b1077" x="96.628625" y="141.103099" style="fill: #ffe81a; stroke: #ffe81a"/>
    </g>
   </g>
   <g id="line2d_29">
    <defs>
     <path id="m88f8675a81" d="M 0 0.75 
C 0.198902 0.75 0.389685 0.670975 0.53033 0.53033 
C 0.670975 0.389685 0.75 0.198902 0.75 0 
C 0.75 -0.198902 0.670975 -0.389685 0.53033 -0.53033 
C 0.389685 -0.670975 0.198902 -0.75 0 -0.75 
C -0.198902 -0.75 -0.389685 -0.670975 -0.53033 -0.53033 
C -0.670975 -0.389685 -0.75 -0.198902 -0.75 0 
C -0.75 0.198902 -0.670975 0.389685 -0.53033 0.53033 
C -0.389685 0.670975 -0.198902 0.75 0 0.75 
z
" style="stroke: #ffbd00"/>
    </defs>
    <g clip-path="url(#p7a298e0c94)">
     <use xlink:href="#m88f8675a81" x="74.779215" y="140.298773" style="fill: #ffbd00; stroke: #ffbd00"/>
     <use xlink:href="#m88f8675a81" x="96.628625" y="132.265345" style="fill: #ffbd00; stroke: #ffbd00"/>
     <use xlink:href="#m88f8675a81" x="125.761171" y="121.568444" style="fill: #ffbd00; stroke: #ffbd00"/>
    </g>
   </g>
   <g id="line2d_30">
    <defs>
     <path id="medfcd950bf" d="M 0 0.75 
C 0.198902 0.75 0.389685 0.670975 0.53033 0.53033 
C 0.670975 0.389685 0.75 0.198902 0.75 0 
C 0.75 -0.198902 0.670975 -0.389685 0.53033 -0.53033 
C 0.389685 -0.670975 0.198902 -0.75 0 -0.75 
C -0.198902 -0.75 -0.389685 -0.670975 -0.53033 -0.53033 
C -0.670975 -0.389685 -0.75 -0.198902 -0.75 0 
C -0.75 0.198902 -0.670975 0.389685 -0.53033 0.53033 
C -0.389685 0.670975 -0.198902 0.75 0 0.75 
z
" style="stroke: #ffa000"/>
    </defs>
    <g clip-path="url(#p7a298e0c94)">
     <use xlink:href="#medfcd950bf" x="125.761171" y="97.501655" style="fill: #ffa000; stroke: #ffa000"/>
     <use xlink:href="#medfcd950bf" x="147.610581" y="85.949077" style="fill: #ffa000; stroke: #ffa000"/>
     <use xlink:href="#medfcd950bf" x="184.026263" y="61.97271" style="fill: #ffa000; stroke: #ffa000"/>
    </g>
   </g>
   <g id="line2d_31">
    <defs>
     <path id="mb7eb7eb450" d="M 0 0.75 
C 0.198902 0.75 0.389685 0.670975 0.53033 0.53033 
C 0.670975 0.389685 0.75 0.198902 0.75 0 
C 0.75 -0.198902 0.670975 -0.389685 0.53033 -0.53033 
C 0.389685 -0.670975 0.198902 -0.75 0 -0.75 
C -0.198902 -0.75 -0.389685 -0.670975 -0.53033 -0.53033 
C -0.670975 -0.389685 -0.75 -0.198902 -0.75 0 
C -0.75 0.198902 -0.670975 0.389685 -0.53033 0.53033 
C -0.389685 0.670975 -0.198902 0.75 0 0.75 
z
" style="stroke: #fc7f00"/>
    </defs>
    <g clip-path="url(#p7a298e0c94)">
     <use xlink:href="#mb7eb7eb450" x="147.610581" y="77.009298" style="fill: #fc7f00; stroke: #fc7f00"/>
     <use xlink:href="#mb7eb7eb450" x="184.026263" y="51.189755" style="fill: #fc7f00; stroke: #fc7f00"/>
    </g>
   </g>
   <g id="line2d_32">
    <path d="M 38.363533 186.877838 
L 74.779215 162.487452 
" clip-path="url(#p7a298e0c94)" style="fill: none; stroke: #e4ff7a; stroke-width: 0.4; stroke-linecap: round"/>
   </g>
   <g id="line2d_33">
    <path d="M 38.363533 174.734119 
L 74.779215 153.237948 
L 96.628625 142.554546 
" clip-path="url(#p7a298e0c94)" style="fill: none; stroke: #f2f34a; stroke-width: 0.4; stroke-linecap: round"/>
   </g>
   <g id="line2d_34">
    <path d="M 74.779215 141.665627 
L 96.628625 132.885284 
L 125.761171 121.724426 
" clip-path="url(#p7a298e0c94)" style="fill: none; stroke: #ffe81a; stroke-width: 0.4; stroke-linecap: round"/>
   </g>
   <g id="line2d_35">
    <path d="M 38.363533 161.039254 
" clip-path="url(#p7a298e0c94)" style="fill: none; stroke: #ffd20d; stroke-width: 0.4; stroke-linecap: round"/>
   </g>
   <g id="line2d_36">
    <path d="M 184.026263 77.289413 
" clip-path="url(#p7a298e0c94)" style="fill: none; stroke: #ffbd00; stroke-width: 0.4; stroke-linecap: round"/>
   </g>
   <g id="line2d_37">
    <path d="M 74.779215 126.810353 
" clip-path="url(#p7a298e0c94)" style="fill: none; stroke: #ffae00; stroke-width: 0.4; stroke-linecap: round"/>
   </g>
   <g id="line2d_38">
    <path d="M 125.761171 95.848375 
L 147.610581 85.095431 
L 184.026263 63.472955 
" clip-path="url(#p7a298e0c94)" style="fill: none; stroke: #ffa000; stroke-width: 0.4; stroke-linecap: round"/>
   </g>
   <g id="line2d_39">
    <path d="M 147.610581 75.75381 
L 184.026263 51.283411 
" clip-path="url(#p7a298e0c94)" style="fill: none; stroke: #fd8f00; stroke-width: 0.4; stroke-linecap: round"/>
   </g>
   <g id="line2d_40">
    <path d="M 184.026263 17.471059 
" clip-path="url(#p7a298e0c94)" style="fill: none; stroke: #fc7f00; stroke-width: 0.4; stroke-linecap: round"/>
   </g>
   <g id="patch_3">
    <path d="M 31.080396 195.348177 
L 31.080396 9.00072 
" style="fill: none; stroke: #000000; stroke-linejoin: miter; stroke-linecap: square"/>
   </g>
   <g id="patch_4">
    <path d="M 31.080396 195.348177 
L 191.3094 195.348177 
" style="fill: none; stroke: #000000; stroke-linejoin: miter; stroke-linecap: square"/>
   </g>
   <g id="legend_1">
    <g id="patch_5">
     <path d="M 37.380396 20.619626 
L 51.380396 20.619626 
L 51.380396 15.719626 
L 37.380396 15.719626 
z
" style="fill: #e4ff7a; stroke: #e4ff7a; stroke-linejoin: miter"/>
    </g>
    <g id="text_16">
     <!-- r = -0.07 [rad/s] -->
     <g style="fill: #262626" transform="translate(56.980396 20.619626) scale(0.07 -0.07)">
      <defs>
       <path id="DejaVuSerif-3d" d="M 678 2894 
L 4684 2894 
L 4684 2394 
L 678 2394 
L 678 2894 
z
M 678 1619 
L 4684 1619 
L 4684 1119 
L 678 1119 
L 678 1619 
z
" transform="scale(0.015625)"/>
       <path id="DejaVuSerif-2d" d="M 281 1959 
L 1881 1959 
L 1881 1472 
L 281 1472 
L 281 1959 
z
" transform="scale(0.015625)"/>
       <path id="DejaVuSerif-2e" d="M 603 325 
Q 603 500 722 622 
Q 841 744 1019 744 
Q 1191 744 1312 622 
Q 1434 500 1434 325 
Q 1434 153 1312 31 
Q 1191 -91 1019 -91 
Q 841 -91 722 29 
Q 603 150 603 325 
z
" transform="scale(0.015625)"/>
       <path id="DejaVuSerif-2f" d="M 1656 4666 
L 2156 4666 
L 500 -594 
L 0 -594 
L 1656 4666 
z
" transform="scale(0.015625)"/>
       <path id="DejaVuSerif-73" d="M 359 184 
L 359 959 
L 691 959 
Q 703 588 923 403 
Q 1144 219 1575 219 
Q 1963 219 2166 364 
Q 2369 509 2369 788 
Q 2369 1006 2220 1140 
Q 2072 1275 1594 1428 
L 1178 1569 
Q 750 1706 558 1912 
Q 366 2119 366 2438 
Q 366 2894 700 3153 
Q 1034 3413 1625 3413 
Q 1888 3413 2178 3344 
Q 2469 3275 2778 3144 
L 2778 2419 
L 2447 2419 
Q 2434 2741 2221 2922 
Q 2009 3103 1644 3103 
Q 1281 3103 1095 2975 
Q 909 2847 909 2591 
Q 909 2381 1050 2254 
Q 1191 2128 1613 1997 
L 2069 1856 
Q 2541 1709 2748 1489 
Q 2956 1269 2956 922 
Q 2956 450 2595 179 
Q 2234 -91 1600 -91 
Q 1278 -91 972 -22 
Q 666 47 359 184 
z
" transform="scale(0.015625)"/>
      </defs>
      <use xlink:href="#DejaVuSerif-72"/>
      <use xlink:href="#DejaVuSerif-20" x="47.802734"/>
      <use xlink:href="#DejaVuSerif-3d" x="79.589844"/>
      <use xlink:href="#DejaVuSerif-20" x="163.378906"/>
      <use xlink:href="#DejaVuSerif-2d" x="195.166016"/>
      <use xlink:href="#DejaVuSerif-30" x="228.955078"/>
      <use xlink:href="#DejaVuSerif-2e" x="292.578125"/>
      <use xlink:href="#DejaVuSerif-30" x="324.365234"/>
      <use xlink:href="#DejaVuSerif-37" x="387.988281"/>
      <use xlink:href="#DejaVuSerif-20" x="451.611328"/>
      <use xlink:href="#DejaVuSerif-5b" x="483.398438"/>
      <use xlink:href="#DejaVuSerif-72" x="522.412109"/>
      <use xlink:href="#DejaVuSerif-61" x="570.214844"/>
      <use xlink:href="#DejaVuSerif-64" x="629.833984"/>
      <use xlink:href="#DejaVuSerif-2f" x="693.847656"/>
      <use xlink:href="#DejaVuSerif-73" x="727.539062"/>
      <use xlink:href="#DejaVuSerif-5d" x="778.857422"/>
     </g>
    </g>
    <g id="patch_6">
     <path d="M 37.380396 30.894314 
L 51.380396 30.894314 
L 51.380396 25.994314 
L 37.380396 25.994314 
z
" style="fill: #ffe81a; stroke: #ffe81a; stroke-linejoin: miter"/>
    </g>
    <g id="text_17">
     <!-- r = -0.05 [rad/s] -->
     <g style="fill: #262626" transform="translate(56.980396 30.894314) scale(0.07 -0.07)">
      <use xlink:href="#DejaVuSerif-72"/>
      <use xlink:href="#DejaVuSerif-20" x="47.802734"/>
      <use xlink:href="#DejaVuSerif-3d" x="79.589844"/>
      <use xlink:href="#DejaVuSerif-20" x="163.378906"/>
      <use xlink:href="#DejaVuSerif-2d" x="195.166016"/>
      <use xlink:href="#DejaVuSerif-30" x="228.955078"/>
      <use xlink:href="#DejaVuSerif-2e" x="292.578125"/>
      <use xlink:href="#DejaVuSerif-30" x="324.365234"/>
      <use xlink:href="#DejaVuSerif-35" x="387.988281"/>
      <use xlink:href="#DejaVuSerif-20" x="451.611328"/>
      <use xlink:href="#DejaVuSerif-5b" x="483.398438"/>
      <use xlink:href="#DejaVuSerif-72" x="522.412109"/>
      <use xlink:href="#DejaVuSerif-61" x="570.214844"/>
      <use xlink:href="#DejaVuSerif-64" x="629.833984"/>
      <use xlink:href="#DejaVuSerif-2f" x="693.847656"/>
      <use xlink:href="#DejaVuSerif-73" x="727.539062"/>
      <use xlink:href="#DejaVuSerif-5d" x="778.857422"/>
     </g>
    </g>
    <g id="patch_7">
     <path d="M 37.380396 41.169001 
L 51.380396 41.169001 
L 51.380396 36.269001 
L 37.380396 36.269001 
z
" style="fill: #ffbd00; stroke: #ffbd00; stroke-linejoin: miter"/>
    </g>
    <g id="text_18">
     <!-- r = -0.02 [rad/s] -->
     <g style="fill: #262626" transform="translate(56.980396 41.169001) scale(0.07 -0.07)">
      <use xlink:href="#DejaVuSerif-72"/>
      <use xlink:href="#DejaVuSerif-20" x="47.802734"/>
      <use xlink:href="#DejaVuSerif-3d" x="79.589844"/>
      <use xlink:href="#DejaVuSerif-20" x="163.378906"/>
      <use xlink:href="#DejaVuSerif-2d" x="195.166016"/>
      <use xlink:href="#DejaVuSerif-30" x="228.955078"/>
      <use xlink:href="#DejaVuSerif-2e" x="292.578125"/>
      <use xlink:href="#DejaVuSerif-30" x="324.365234"/>
      <use xlink:href="#DejaVuSerif-32" x="387.988281"/>
      <use xlink:href="#DejaVuSerif-20" x="451.611328"/>
      <use xlink:href="#DejaVuSerif-5b" x="483.398438"/>
      <use xlink:href="#DejaVuSerif-72" x="522.412109"/>
      <use xlink:href="#DejaVuSerif-61" x="570.214844"/>
      <use xlink:href="#DejaVuSerif-64" x="629.833984"/>
      <use xlink:href="#DejaVuSerif-2f" x="693.847656"/>
      <use xlink:href="#DejaVuSerif-73" x="727.539062"/>
      <use xlink:href="#DejaVuSerif-5d" x="778.857422"/>
     </g>
    </g>
    <g id="patch_8">
     <path d="M 37.380396 51.443689 
L 51.380396 51.443689 
L 51.380396 46.543689 
L 37.380396 46.543689 
z
" style="fill: #ffa000; stroke: #ffa000; stroke-linejoin: miter"/>
    </g>
    <g id="text_19">
     <!-- r = 0.05 [rad/s] -->
     <g style="fill: #262626" transform="translate(56.980396 51.443689) scale(0.07 -0.07)">
      <use xlink:href="#DejaVuSerif-72"/>
      <use xlink:href="#DejaVuSerif-20" x="47.802734"/>
      <use xlink:href="#DejaVuSerif-3d" x="79.589844"/>
      <use xlink:href="#DejaVuSerif-20" x="163.378906"/>
      <use xlink:href="#DejaVuSerif-30" x="195.166016"/>
      <use xlink:href="#DejaVuSerif-2e" x="258.789062"/>
      <use xlink:href="#DejaVuSerif-30" x="290.576172"/>
      <use xlink:href="#DejaVuSerif-35" x="354.199219"/>
      <use xlink:href="#DejaVuSerif-20" x="417.822266"/>
      <use xlink:href="#DejaVuSerif-5b" x="449.609375"/>
      <use xlink:href="#DejaVuSerif-72" x="488.623047"/>
      <use xlink:href="#DejaVuSerif-61" x="536.425781"/>
      <use xlink:href="#DejaVuSerif-64" x="596.044922"/>
      <use xlink:href="#DejaVuSerif-2f" x="660.058594"/>
      <use xlink:href="#DejaVuSerif-73" x="693.75"/>
      <use xlink:href="#DejaVuSerif-5d" x="745.068359"/>
     </g>
    </g>
    <g id="patch_9">
     <path d="M 37.380396 61.718376 
L 51.380396 61.718376 
L 51.380396 56.818376 
L 37.380396 56.818376 
z
" style="fill: #fc7f00; stroke: #fc7f00; stroke-linejoin: miter"/>
    </g>
    <g id="text_20">
     <!-- r = 0.07 [rad/s] -->
     <g style="fill: #262626" transform="translate(56.980396 61.718376) scale(0.07 -0.07)">
      <use xlink:href="#DejaVuSerif-72"/>
      <use xlink:href="#DejaVuSerif-20" x="47.802734"/>
      <use xlink:href="#DejaVuSerif-3d" x="79.589844"/>
      <use xlink:href="#DejaVuSerif-20" x="163.378906"/>
      <use xlink:href="#DejaVuSerif-30" x="195.166016"/>
      <use xlink:href="#DejaVuSerif-2e" x="258.789062"/>
      <use xlink:href="#DejaVuSerif-30" x="290.576172"/>
      <use xlink:href="#DejaVuSerif-37" x="354.199219"/>
      <use xlink:href="#DejaVuSerif-20" x="417.822266"/>
      <use xlink:href="#DejaVuSerif-5b" x="449.609375"/>
      <use xlink:href="#DejaVuSerif-72" x="488.623047"/>
      <use xlink:href="#DejaVuSerif-61" x="536.425781"/>
      <use xlink:href="#DejaVuSerif-64" x="596.044922"/>
      <use xlink:href="#DejaVuSerif-2f" x="660.058594"/>
      <use xlink:href="#DejaVuSerif-73" x="693.75"/>
      <use xlink:href="#DejaVuSerif-5d" x="745.068359"/>
     </g>
    </g>
   </g>
  </g>
 </g>
 <defs>
  <clipPath id="p7a298e0c94">
   <rect x="31.080396" y="9.00072" width="160.229004" height="186.347456"/>
  </clipPath>
 </defs>
</svg>
