<?xml version="1.0" encoding="utf-8" standalone="no"?>
<!DOCTYPE svg PUBLIC "-//W3C//DTD SVG 1.1//EN"
  "http://www.w3.org/Graphics/SVG/1.1/DTD/svg11.dtd">
<svg xmlns:xlink="http://www.w3.org/1999/xlink" width="388.61928pt" height="218.623104pt" viewBox="0 0 388.61928 218.623104" xmlns="http://www.w3.org/2000/svg" version="1.1">
 <metadata>
  <rdf:RDF xmlns:dc="http://purl.org/dc/elements/1.1/" xmlns:cc="http://creativecommons.org/ns#" xmlns:rdf="http://www.w3.org/1999/02/22-rdf-syntax-ns#">
   <cc:Work>
    <dc:type rdf:resource="http://purl.org/dc/dcmitype/StillImage"/>
    <dc:date>2024-11-15T17:38:50.312634</dc:date>
    <dc:format>image/svg+xml</dc:format>
    <dc:creator>
     <cc:Agent>
      <dc:title>Matplotlib v3.8.2, https://matplotlib.org/</dc:title>
     </cc:Agent>
    </dc:creator>
   </cc:Work>
  </rdf:RDF>
 </metadata>
 <defs>
  <style type="text/css">*{stroke-linejoin: round; stroke-linecap: butt}</style>
 </defs>
 <g id="figure_1">
  <g id="patch_1">
   <path d="M 0 218.623104 
L 388.61928 218.623104 
L 388.61928 0 
L 0 0 
z
" style="fill: #ffffff"/>
  </g>
  <g id="axes_1">
   <g id="patch_2">
    <path d="M 31.893052 195.408177 
L 385.61904 195.408177 
L 385.61904 4.902887 
L 31.893052 4.902887 
z
" style="fill: #ffffff"/>
   </g>
   <g id="matplotlib.axis_1">
    <g id="xtick_1">
     <g id="line2d_1">
      <path d="M 37.863263 195.408177 
L 37.863263 4.902887 
" clip-path="url(#p1ad46c57b7)" style="fill: none; stroke: #b0b0b0; stroke-width: 0.1; stroke-linecap: round"/>
     </g>
     <g id="line2d_2"/>
     <g id="text_1">
      <!-- −0.7 -->
      <g style="fill: #262626" transform="translate(29.364278 204.227083) scale(0.07 -0.07)">
       <defs>
        <path id="DejaVuSerif-2212" d="M 678 2259 
L 4684 2259 
L 4684 1753 
L 678 1753 
L 678 2259 
z
" transform="scale(0.015625)"/>
        <path id="DejaVuSerif-30" d="M 2034 219 
Q 2513 219 2750 744 
Q 2988 1269 2988 2328 
Q 2988 3391 2750 3916 
Q 2513 4441 2034 4441 
Q 1556 4441 1318 3916 
Q 1081 3391 1081 2328 
Q 1081 1269 1318 744 
Q 1556 219 2034 219 
z
M 2034 -91 
Q 1275 -91 848 546 
Q 422 1184 422 2328 
Q 422 3475 848 4112 
Q 1275 4750 2034 4750 
Q 2797 4750 3222 4112 
Q 3647 3475 3647 2328 
Q 3647 1184 3222 546 
Q 2797 -91 2034 -91 
z
" transform="scale(0.015625)"/>
        <path id="DejaVuSerif-2e" d="M 603 325 
Q 603 500 722 622 
Q 841 744 1019 744 
Q 1191 744 1312 622 
Q 1434 500 1434 325 
Q 1434 153 1312 31 
Q 1191 -91 1019 -91 
Q 841 -91 722 29 
Q 603 150 603 325 
z
" transform="scale(0.015625)"/>
        <path id="DejaVuSerif-37" d="M 3609 4347 
L 1784 0 
L 1319 0 
L 3059 4153 
L 903 4153 
L 903 3578 
L 538 3578 
L 538 4666 
L 3609 4666 
L 3609 4347 
z
" transform="scale(0.015625)"/>
       </defs>
       <use xlink:href="#DejaVuSerif-2212"/>
       <use xlink:href="#DejaVuSerif-30" x="83.789062"/>
       <use xlink:href="#DejaVuSerif-2e" x="147.412109"/>
       <use xlink:href="#DejaVuSerif-37" x="179.199219"/>
      </g>
     </g>
    </g>
    <g id="xtick_2">
     <g id="line2d_3">
      <path d="M 66.05242 195.408177 
L 66.05242 4.902887 
" clip-path="url(#p1ad46c57b7)" style="fill: none; stroke: #b0b0b0; stroke-width: 0.1; stroke-linecap: round"/>
     </g>
     <g id="line2d_4"/>
     <g id="text_2">
      <!-- −0.6 -->
      <g style="fill: #262626" transform="translate(57.553436 204.227083) scale(0.07 -0.07)">
       <defs>
        <path id="DejaVuSerif-36" d="M 2094 219 
Q 2534 219 2771 542 
Q 3009 866 3009 1472 
Q 3009 2078 2771 2401 
Q 2534 2725 2094 2725 
Q 1647 2725 1412 2412 
Q 1178 2100 1178 1509 
Q 1178 888 1415 553 
Q 1653 219 2094 219 
z
M 1075 2569 
Q 1288 2803 1556 2918 
Q 1825 3034 2163 3034 
Q 2859 3034 3264 2615 
Q 3669 2197 3669 1472 
Q 3669 763 3233 336 
Q 2797 -91 2069 -91 
Q 1278 -91 853 498 
Q 428 1088 428 2181 
Q 428 3406 931 4078 
Q 1434 4750 2350 4750 
Q 2597 4750 2869 4703 
Q 3141 4656 3425 4563 
L 3425 3794 
L 3072 3794 
Q 3034 4109 2831 4275 
Q 2628 4441 2284 4441 
Q 1678 4441 1381 3981 
Q 1084 3522 1075 2569 
z
" transform="scale(0.015625)"/>
       </defs>
       <use xlink:href="#DejaVuSerif-2212"/>
       <use xlink:href="#DejaVuSerif-30" x="83.789062"/>
       <use xlink:href="#DejaVuSerif-2e" x="147.412109"/>
       <use xlink:href="#DejaVuSerif-36" x="179.199219"/>
      </g>
     </g>
    </g>
    <g id="xtick_3">
     <g id="line2d_5">
      <path d="M 94.241578 195.408177 
L 94.241578 4.902887 
" clip-path="url(#p1ad46c57b7)" style="fill: none; stroke: #b0b0b0; stroke-width: 0.1; stroke-linecap: round"/>
     </g>
     <g id="line2d_6"/>
     <g id="text_3">
      <!-- −0.5 -->
      <g style="fill: #262626" transform="translate(85.742594 204.227083) scale(0.07 -0.07)">
       <defs>
        <path id="DejaVuSerif-35" d="M 3219 4666 
L 3219 4153 
L 1081 4153 
L 1081 2816 
Q 1244 2928 1461 2984 
Q 1678 3041 1947 3041 
Q 2703 3041 3140 2622 
Q 3578 2203 3578 1478 
Q 3578 738 3136 323 
Q 2694 -91 1894 -91 
Q 1572 -91 1234 -12 
Q 897 66 544 225 
L 544 1131 
L 897 1131 
Q 925 688 1179 453 
Q 1434 219 1894 219 
Q 2388 219 2653 544 
Q 2919 869 2919 1478 
Q 2919 2084 2655 2407 
Q 2391 2731 1894 2731 
Q 1613 2731 1398 2631 
Q 1184 2531 1019 2322 
L 750 2322 
L 750 4666 
L 3219 4666 
z
" transform="scale(0.015625)"/>
       </defs>
       <use xlink:href="#DejaVuSerif-2212"/>
       <use xlink:href="#DejaVuSerif-30" x="83.789062"/>
       <use xlink:href="#DejaVuSerif-2e" x="147.412109"/>
       <use xlink:href="#DejaVuSerif-35" x="179.199219"/>
      </g>
     </g>
    </g>
    <g id="xtick_4">
     <g id="line2d_7">
      <path d="M 122.430736 195.408177 
L 122.430736 4.902887 
" clip-path="url(#p1ad46c57b7)" style="fill: none; stroke: #b0b0b0; stroke-width: 0.1; stroke-linecap: round"/>
     </g>
     <g id="line2d_8"/>
     <g id="text_4">
      <!-- −0.4 -->
      <g style="fill: #262626" transform="translate(113.931751 204.227083) scale(0.07 -0.07)">
       <defs>
        <path id="DejaVuSerif-34" d="M 2234 1581 
L 2234 4063 
L 641 1581 
L 2234 1581 
z
M 3609 0 
L 1484 0 
L 1484 331 
L 2234 331 
L 2234 1247 
L 197 1247 
L 197 1588 
L 2241 4750 
L 2859 4750 
L 2859 1581 
L 3750 1581 
L 3750 1247 
L 2859 1247 
L 2859 331 
L 3609 331 
L 3609 0 
z
" transform="scale(0.015625)"/>
       </defs>
       <use xlink:href="#DejaVuSerif-2212"/>
       <use xlink:href="#DejaVuSerif-30" x="83.789062"/>
       <use xlink:href="#DejaVuSerif-2e" x="147.412109"/>
       <use xlink:href="#DejaVuSerif-34" x="179.199219"/>
      </g>
     </g>
    </g>
    <g id="xtick_5">
     <g id="line2d_9">
      <path d="M 150.619893 195.408177 
L 150.619893 4.902887 
" clip-path="url(#p1ad46c57b7)" style="fill: none; stroke: #b0b0b0; stroke-width: 0.1; stroke-linecap: round"/>
     </g>
     <g id="line2d_10"/>
     <g id="text_5">
      <!-- −0.3 -->
      <g style="fill: #262626" transform="translate(142.120909 204.227083) scale(0.07 -0.07)">
       <defs>
        <path id="DejaVuSerif-33" d="M 622 4469 
Q 988 4606 1323 4678 
Q 1659 4750 1953 4750 
Q 2638 4750 3022 4454 
Q 3406 4159 3406 3634 
Q 3406 3213 3140 2930 
Q 2875 2647 2388 2547 
Q 2963 2466 3280 2130 
Q 3597 1794 3597 1259 
Q 3597 606 3158 257 
Q 2719 -91 1894 -91 
Q 1528 -91 1179 -12 
Q 831 66 488 225 
L 488 1131 
L 838 1131 
Q 869 681 1141 450 
Q 1413 219 1906 219 
Q 2384 219 2661 495 
Q 2938 772 2938 1253 
Q 2938 1803 2653 2086 
Q 2369 2369 1819 2369 
L 1522 2369 
L 1522 2688 
L 1678 2688 
Q 2225 2688 2498 2914 
Q 2772 3141 2772 3597 
Q 2772 4006 2547 4223 
Q 2322 4441 1900 4441 
Q 1478 4441 1245 4241 
Q 1013 4041 972 3647 
L 622 3647 
L 622 4469 
z
" transform="scale(0.015625)"/>
       </defs>
       <use xlink:href="#DejaVuSerif-2212"/>
       <use xlink:href="#DejaVuSerif-30" x="83.789062"/>
       <use xlink:href="#DejaVuSerif-2e" x="147.412109"/>
       <use xlink:href="#DejaVuSerif-33" x="179.199219"/>
      </g>
     </g>
    </g>
    <g id="xtick_6">
     <g id="line2d_11">
      <path d="M 178.809051 195.408177 
L 178.809051 4.902887 
" clip-path="url(#p1ad46c57b7)" style="fill: none; stroke: #b0b0b0; stroke-width: 0.1; stroke-linecap: round"/>
     </g>
     <g id="line2d_12"/>
     <g id="text_6">
      <!-- −0.2 -->
      <g style="fill: #262626" transform="translate(170.310066 204.227083) scale(0.07 -0.07)">
       <defs>
        <path id="DejaVuSerif-32" d="M 819 3553 
L 469 3553 
L 469 4384 
Q 803 4563 1142 4656 
Q 1481 4750 1806 4750 
Q 2534 4750 2956 4397 
Q 3378 4044 3378 3438 
Q 3378 2753 2422 1800 
Q 2347 1728 2309 1691 
L 1131 513 
L 3078 513 
L 3078 1088 
L 3444 1088 
L 3444 0 
L 434 0 
L 434 341 
L 1850 1753 
Q 2319 2222 2519 2614 
Q 2719 3006 2719 3438 
Q 2719 3909 2473 4175 
Q 2228 4441 1797 4441 
Q 1350 4441 1106 4219 
Q 863 3997 819 3553 
z
" transform="scale(0.015625)"/>
       </defs>
       <use xlink:href="#DejaVuSerif-2212"/>
       <use xlink:href="#DejaVuSerif-30" x="83.789062"/>
       <use xlink:href="#DejaVuSerif-2e" x="147.412109"/>
       <use xlink:href="#DejaVuSerif-32" x="179.199219"/>
      </g>
     </g>
    </g>
    <g id="xtick_7">
     <g id="line2d_13">
      <path d="M 206.998208 195.408177 
L 206.998208 4.902887 
" clip-path="url(#p1ad46c57b7)" style="fill: none; stroke: #b0b0b0; stroke-width: 0.1; stroke-linecap: round"/>
     </g>
     <g id="line2d_14"/>
     <g id="text_7">
      <!-- −0.1 -->
      <g style="fill: #262626" transform="translate(198.499224 204.227083) scale(0.07 -0.07)">
       <defs>
        <path id="DejaVuSerif-31" d="M 909 0 
L 909 331 
L 1722 331 
L 1722 4213 
L 781 3603 
L 781 4013 
L 1919 4750 
L 2350 4750 
L 2350 331 
L 3163 331 
L 3163 0 
L 909 0 
z
" transform="scale(0.015625)"/>
       </defs>
       <use xlink:href="#DejaVuSerif-2212"/>
       <use xlink:href="#DejaVuSerif-30" x="83.789062"/>
       <use xlink:href="#DejaVuSerif-2e" x="147.412109"/>
       <use xlink:href="#DejaVuSerif-31" x="179.199219"/>
      </g>
     </g>
    </g>
    <g id="xtick_8">
     <g id="line2d_15">
      <path d="M 235.187366 195.408177 
L 235.187366 4.902887 
" clip-path="url(#p1ad46c57b7)" style="fill: none; stroke: #b0b0b0; stroke-width: 0.1; stroke-linecap: round"/>
     </g>
     <g id="line2d_16"/>
     <g id="text_8">
      <!-- 0.0 -->
      <g style="fill: #262626" transform="translate(229.621272 204.227083) scale(0.07 -0.07)">
       <use xlink:href="#DejaVuSerif-30"/>
       <use xlink:href="#DejaVuSerif-2e" x="63.623047"/>
       <use xlink:href="#DejaVuSerif-30" x="95.410156"/>
      </g>
     </g>
    </g>
    <g id="xtick_9">
     <g id="line2d_17">
      <path d="M 263.376524 195.408177 
L 263.376524 4.902887 
" clip-path="url(#p1ad46c57b7)" style="fill: none; stroke: #b0b0b0; stroke-width: 0.1; stroke-linecap: round"/>
     </g>
     <g id="line2d_18"/>
     <g id="text_9">
      <!-- 0.1 -->
      <g style="fill: #262626" transform="translate(257.81043 204.227083) scale(0.07 -0.07)">
       <use xlink:href="#DejaVuSerif-30"/>
       <use xlink:href="#DejaVuSerif-2e" x="63.623047"/>
       <use xlink:href="#DejaVuSerif-31" x="95.410156"/>
      </g>
     </g>
    </g>
    <g id="xtick_10">
     <g id="line2d_19">
      <path d="M 291.565681 195.408177 
L 291.565681 4.902887 
" clip-path="url(#p1ad46c57b7)" style="fill: none; stroke: #b0b0b0; stroke-width: 0.1; stroke-linecap: round"/>
     </g>
     <g id="line2d_20"/>
     <g id="text_10">
      <!-- 0.2 -->
      <g style="fill: #262626" transform="translate(285.999588 204.227083) scale(0.07 -0.07)">
       <use xlink:href="#DejaVuSerif-30"/>
       <use xlink:href="#DejaVuSerif-2e" x="63.623047"/>
       <use xlink:href="#DejaVuSerif-32" x="95.410156"/>
      </g>
     </g>
    </g>
    <g id="xtick_11">
     <g id="line2d_21">
      <path d="M 319.754839 195.408177 
L 319.754839 4.902887 
" clip-path="url(#p1ad46c57b7)" style="fill: none; stroke: #b0b0b0; stroke-width: 0.1; stroke-linecap: round"/>
     </g>
     <g id="line2d_22"/>
     <g id="text_11">
      <!-- 0.3 -->
      <g style="fill: #262626" transform="translate(314.188745 204.227083) scale(0.07 -0.07)">
       <use xlink:href="#DejaVuSerif-30"/>
       <use xlink:href="#DejaVuSerif-2e" x="63.623047"/>
       <use xlink:href="#DejaVuSerif-33" x="95.410156"/>
      </g>
     </g>
    </g>
    <g id="xtick_12">
     <g id="line2d_23">
      <path d="M 347.943997 195.408177 
L 347.943997 4.902887 
" clip-path="url(#p1ad46c57b7)" style="fill: none; stroke: #b0b0b0; stroke-width: 0.1; stroke-linecap: round"/>
     </g>
     <g id="line2d_24"/>
     <g id="text_12">
      <!-- 0.4 -->
      <g style="fill: #262626" transform="translate(342.377903 204.227083) scale(0.07 -0.07)">
       <use xlink:href="#DejaVuSerif-30"/>
       <use xlink:href="#DejaVuSerif-2e" x="63.623047"/>
       <use xlink:href="#DejaVuSerif-34" x="95.410156"/>
      </g>
     </g>
    </g>
    <g id="xtick_13">
     <g id="line2d_25">
      <path d="M 376.133154 195.408177 
L 376.133154 4.902887 
" clip-path="url(#p1ad46c57b7)" style="fill: none; stroke: #b0b0b0; stroke-width: 0.1; stroke-linecap: round"/>
     </g>
     <g id="line2d_26"/>
     <g id="text_13">
      <!-- 0.5 -->
      <g style="fill: #262626" transform="translate(370.56706 204.227083) scale(0.07 -0.07)">
       <use xlink:href="#DejaVuSerif-30"/>
       <use xlink:href="#DejaVuSerif-2e" x="63.623047"/>
       <use xlink:href="#DejaVuSerif-35" x="95.410156"/>
      </g>
     </g>
    </g>
    <g id="text_14">
     <!-- Lateral inflow velocity $v_R$ [m/s] -->
     <g style="fill: #262626" transform="translate(161.806046 214.242864) scale(0.06 -0.06)">
      <defs>
       <path id="DejaVuSerif-4c" d="M 353 0 
L 353 331 
L 947 331 
L 947 4331 
L 353 4331 
L 353 4666 
L 2175 4666 
L 2175 4331 
L 1581 4331 
L 1581 384 
L 3713 384 
L 3713 1166 
L 4097 1166 
L 4097 0 
L 353 0 
z
" transform="scale(0.015625)"/>
       <path id="DejaVuSerif-61" d="M 2547 1044 
L 2547 1747 
L 1806 1747 
Q 1378 1747 1168 1562 
Q 959 1378 959 997 
Q 959 650 1171 447 
Q 1384 244 1747 244 
Q 2106 244 2326 466 
Q 2547 688 2547 1044 
z
M 3122 2075 
L 3122 331 
L 3634 331 
L 3634 0 
L 2547 0 
L 2547 359 
Q 2356 128 2106 18 
Q 1856 -91 1522 -91 
Q 969 -91 644 203 
Q 319 497 319 997 
Q 319 1513 691 1797 
Q 1063 2081 1741 2081 
L 2547 2081 
L 2547 2309 
Q 2547 2688 2317 2895 
Q 2088 3103 1672 3103 
Q 1328 3103 1125 2947 
Q 922 2791 872 2484 
L 575 2484 
L 575 3156 
Q 875 3284 1158 3348 
Q 1441 3413 1709 3413 
Q 2400 3413 2761 3070 
Q 3122 2728 3122 2075 
z
" transform="scale(0.015625)"/>
       <path id="DejaVuSerif-74" d="M 691 2988 
L 184 2988 
L 184 3322 
L 691 3322 
L 691 4353 
L 1269 4353 
L 1269 3322 
L 2350 3322 
L 2350 2988 
L 1269 2988 
L 1269 878 
Q 1269 456 1350 337 
Q 1431 219 1650 219 
Q 1875 219 1978 351 
Q 2081 484 2088 781 
L 2522 781 
Q 2497 328 2275 118 
Q 2053 -91 1600 -91 
Q 1103 -91 897 129 
Q 691 350 691 878 
L 691 2988 
z
" transform="scale(0.015625)"/>
       <path id="DejaVuSerif-65" d="M 3469 1600 
L 991 1600 
L 991 1575 
Q 991 903 1244 561 
Q 1497 219 1991 219 
Q 2369 219 2611 417 
Q 2853 616 2950 1006 
L 3413 1006 
Q 3275 459 2904 184 
Q 2534 -91 1931 -91 
Q 1203 -91 761 389 
Q 319 869 319 1663 
Q 319 2450 753 2931 
Q 1188 3413 1894 3413 
Q 2647 3413 3050 2948 
Q 3453 2484 3469 1600 
z
M 2791 1931 
Q 2772 2513 2545 2808 
Q 2319 3103 1894 3103 
Q 1497 3103 1269 2806 
Q 1041 2509 991 1931 
L 2791 1931 
z
" transform="scale(0.015625)"/>
       <path id="DejaVuSerif-72" d="M 3059 3328 
L 3059 2497 
L 2728 2497 
Q 2713 2744 2591 2866 
Q 2469 2988 2234 2988 
Q 1809 2988 1582 2694 
Q 1356 2400 1356 1850 
L 1356 331 
L 2022 331 
L 2022 0 
L 263 0 
L 263 331 
L 781 331 
L 781 2994 
L 231 2994 
L 231 3322 
L 1356 3322 
L 1356 2731 
Q 1525 3078 1790 3245 
Q 2056 3413 2438 3413 
Q 2578 3413 2733 3391 
Q 2888 3369 3059 3328 
z
" transform="scale(0.015625)"/>
       <path id="DejaVuSerif-6c" d="M 1313 331 
L 1856 331 
L 1856 0 
L 184 0 
L 184 331 
L 738 331 
L 738 4531 
L 184 4531 
L 184 4863 
L 1313 4863 
L 1313 331 
z
" transform="scale(0.015625)"/>
       <path id="DejaVuSerif-20" transform="scale(0.015625)"/>
       <path id="DejaVuSerif-69" d="M 622 4353 
Q 622 4497 726 4603 
Q 831 4709 978 4709 
Q 1122 4709 1226 4603 
Q 1331 4497 1331 4353 
Q 1331 4206 1228 4103 
Q 1125 4000 978 4000 
Q 831 4000 726 4103 
Q 622 4206 622 4353 
z
M 1356 331 
L 1900 331 
L 1900 0 
L 231 0 
L 231 331 
L 781 331 
L 781 2988 
L 231 2988 
L 231 3322 
L 1356 3322 
L 1356 331 
z
" transform="scale(0.015625)"/>
       <path id="DejaVuSerif-6e" d="M 263 0 
L 263 331 
L 781 331 
L 781 2988 
L 231 2988 
L 231 3322 
L 1356 3322 
L 1356 2731 
Q 1516 3069 1770 3241 
Q 2025 3413 2363 3413 
Q 2913 3413 3172 3097 
Q 3431 2781 3431 2113 
L 3431 331 
L 3944 331 
L 3944 0 
L 2356 0 
L 2356 331 
L 2853 331 
L 2853 1931 
Q 2853 2541 2703 2767 
Q 2553 2994 2175 2994 
Q 1775 2994 1565 2701 
Q 1356 2409 1356 1850 
L 1356 331 
L 1856 331 
L 1856 0 
L 263 0 
z
" transform="scale(0.015625)"/>
       <path id="DejaVuSerif-66" d="M 2753 4078 
L 2450 4078 
Q 2447 4313 2317 4434 
Q 2188 4556 1941 4556 
Q 1619 4556 1487 4379 
Q 1356 4203 1356 3750 
L 1356 3322 
L 2284 3322 
L 2284 2988 
L 1356 2988 
L 1356 331 
L 2094 331 
L 2094 0 
L 231 0 
L 231 331 
L 781 331 
L 781 2988 
L 231 2988 
L 231 3322 
L 781 3322 
L 781 3738 
Q 781 4294 1070 4578 
Q 1359 4863 1919 4863 
Q 2128 4863 2337 4825 
Q 2547 4788 2753 4709 
L 2753 4078 
z
" transform="scale(0.015625)"/>
       <path id="DejaVuSerif-6f" d="M 1925 219 
Q 2388 219 2623 584 
Q 2859 950 2859 1663 
Q 2859 2375 2623 2739 
Q 2388 3103 1925 3103 
Q 1463 3103 1227 2739 
Q 991 2375 991 1663 
Q 991 950 1228 584 
Q 1466 219 1925 219 
z
M 1925 -91 
Q 1200 -91 759 389 
Q 319 869 319 1663 
Q 319 2456 758 2934 
Q 1197 3413 1925 3413 
Q 2653 3413 3092 2934 
Q 3531 2456 3531 1663 
Q 3531 869 3092 389 
Q 2653 -91 1925 -91 
z
" transform="scale(0.015625)"/>
       <path id="DejaVuSerif-77" d="M 3072 3322 
L 3922 728 
L 4672 2988 
L 4191 2988 
L 4191 3322 
L 5394 3322 
L 5394 2988 
L 5025 2988 
L 4038 0 
L 3559 0 
L 2741 2484 
L 1919 0 
L 1459 0 
L 475 2988 
L 103 2988 
L 103 3322 
L 1606 3322 
L 1606 2988 
L 1069 2988 
L 1813 728 
L 2669 3322 
L 3072 3322 
z
" transform="scale(0.015625)"/>
       <path id="DejaVuSerif-76" d="M 1581 0 
L 359 2988 
L -19 2988 
L -19 3322 
L 1509 3322 
L 1509 2988 
L 978 2988 
L 1913 703 
L 2847 2988 
L 2350 2988 
L 2350 3322 
L 3597 3322 
L 3597 2988 
L 3225 2988 
L 2003 0 
L 1581 0 
z
" transform="scale(0.015625)"/>
       <path id="DejaVuSerif-63" d="M 3291 997 
Q 3169 466 2822 187 
Q 2475 -91 1925 -91 
Q 1200 -91 759 389 
Q 319 869 319 1663 
Q 319 2459 759 2936 
Q 1200 3413 1925 3413 
Q 2241 3413 2553 3339 
Q 2866 3266 3181 3116 
L 3181 2266 
L 2847 2266 
Q 2781 2703 2561 2903 
Q 2341 3103 1931 3103 
Q 1466 3103 1228 2742 
Q 991 2381 991 1663 
Q 991 944 1227 581 
Q 1463 219 1931 219 
Q 2303 219 2525 412 
Q 2747 606 2828 997 
L 3291 997 
z
" transform="scale(0.015625)"/>
       <path id="DejaVuSerif-79" d="M 1381 -609 
L 1600 -56 
L 359 2988 
L -19 2988 
L -19 3322 
L 1509 3322 
L 1509 2988 
L 978 2988 
L 1913 703 
L 2847 2988 
L 2350 2988 
L 2350 3322 
L 3597 3322 
L 3597 2988 
L 3225 2988 
L 1703 -750 
Q 1547 -1138 1356 -1280 
Q 1166 -1422 819 -1422 
Q 672 -1422 517 -1397 
Q 363 -1372 206 -1325 
L 206 -691 
L 500 -691 
Q 519 -903 608 -995 
Q 697 -1088 884 -1088 
Q 1056 -1088 1161 -992 
Q 1266 -897 1381 -609 
z
" transform="scale(0.015625)"/>
       <path id="DejaVuSans-Oblique-76" d="M 459 3500 
L 1069 3500 
L 1581 525 
L 3256 3500 
L 3866 3500 
L 1875 0 
L 1100 0 
L 459 3500 
z
" transform="scale(0.015625)"/>
       <path id="DejaVuSans-Oblique-52" d="M 1613 4147 
L 1294 2491 
L 2106 2491 
Q 2584 2491 2879 2755 
Q 3175 3019 3175 3444 
Q 3175 3784 2976 3965 
Q 2778 4147 2406 4147 
L 1613 4147 
z
M 2772 2241 
Q 2972 2194 3105 2009 
Q 3238 1825 3413 1275 
L 3809 0 
L 3144 0 
L 2778 1197 
Q 2638 1659 2453 1815 
Q 2269 1972 1888 1972 
L 1191 1972 
L 806 0 
L 172 0 
L 1081 4666 
L 2503 4666 
Q 3150 4666 3495 4373 
Q 3841 4081 3841 3531 
Q 3841 3044 3547 2687 
Q 3253 2331 2772 2241 
z
" transform="scale(0.015625)"/>
       <path id="DejaVuSerif-5b" d="M 550 4863 
L 2003 4863 
L 2003 4531 
L 1147 4531 
L 1147 -513 
L 2003 -513 
L 2003 -844 
L 550 -844 
L 550 4863 
z
" transform="scale(0.015625)"/>
       <path id="DejaVuSerif-6d" d="M 3316 2675 
Q 3481 3041 3739 3227 
Q 3997 3413 4341 3413 
Q 4863 3413 5119 3089 
Q 5375 2766 5375 2113 
L 5375 331 
L 5894 331 
L 5894 0 
L 4300 0 
L 4300 331 
L 4800 331 
L 4800 2047 
Q 4800 2556 4650 2772 
Q 4500 2988 4153 2988 
Q 3769 2988 3567 2697 
Q 3366 2406 3366 1850 
L 3366 331 
L 3866 331 
L 3866 0 
L 2291 0 
L 2291 331 
L 2791 331 
L 2791 2069 
Q 2791 2566 2641 2777 
Q 2491 2988 2144 2988 
Q 1759 2988 1557 2697 
Q 1356 2406 1356 1850 
L 1356 331 
L 1856 331 
L 1856 0 
L 263 0 
L 263 331 
L 781 331 
L 781 2994 
L 231 2994 
L 231 3322 
L 1356 3322 
L 1356 2731 
Q 1516 3063 1762 3238 
Q 2009 3413 2322 3413 
Q 2709 3413 2968 3220 
Q 3228 3028 3316 2675 
z
" transform="scale(0.015625)"/>
       <path id="DejaVuSerif-2f" d="M 1656 4666 
L 2156 4666 
L 500 -594 
L 0 -594 
L 1656 4666 
z
" transform="scale(0.015625)"/>
       <path id="DejaVuSerif-73" d="M 359 184 
L 359 959 
L 691 959 
Q 703 588 923 403 
Q 1144 219 1575 219 
Q 1963 219 2166 364 
Q 2369 509 2369 788 
Q 2369 1006 2220 1140 
Q 2072 1275 1594 1428 
L 1178 1569 
Q 750 1706 558 1912 
Q 366 2119 366 2438 
Q 366 2894 700 3153 
Q 1034 3413 1625 3413 
Q 1888 3413 2178 3344 
Q 2469 3275 2778 3144 
L 2778 2419 
L 2447 2419 
Q 2434 2741 2221 2922 
Q 2009 3103 1644 3103 
Q 1281 3103 1095 2975 
Q 909 2847 909 2591 
Q 909 2381 1050 2254 
Q 1191 2128 1613 1997 
L 2069 1856 
Q 2541 1709 2748 1489 
Q 2956 1269 2956 922 
Q 2956 450 2595 179 
Q 2234 -91 1600 -91 
Q 1278 -91 972 -22 
Q 666 47 359 184 
z
" transform="scale(0.015625)"/>
       <path id="DejaVuSerif-5d" d="M 1947 4863 
L 1947 -844 
L 494 -844 
L 494 -513 
L 1350 -513 
L 1350 4531 
L 494 4531 
L 494 4863 
L 1947 4863 
z
" transform="scale(0.015625)"/>
      </defs>
      <use xlink:href="#DejaVuSerif-4c" transform="translate(0 0.015625)"/>
      <use xlink:href="#DejaVuSerif-61" transform="translate(66.40625 0.015625)"/>
      <use xlink:href="#DejaVuSerif-74" transform="translate(126.025391 0.015625)"/>
      <use xlink:href="#DejaVuSerif-65" transform="translate(166.210938 0.015625)"/>
      <use xlink:href="#DejaVuSerif-72" transform="translate(225.390625 0.015625)"/>
      <use xlink:href="#DejaVuSerif-61" transform="translate(273.193359 0.015625)"/>
      <use xlink:href="#DejaVuSerif-6c" transform="translate(332.8125 0.015625)"/>
      <use xlink:href="#DejaVuSerif-20" transform="translate(364.794922 0.015625)"/>
      <use xlink:href="#DejaVuSerif-69" transform="translate(396.582031 0.015625)"/>
      <use xlink:href="#DejaVuSerif-6e" transform="translate(428.564453 0.015625)"/>
      <use xlink:href="#DejaVuSerif-66" transform="translate(492.96875 0.015625)"/>
      <use xlink:href="#DejaVuSerif-6c" transform="translate(529.980469 0.015625)"/>
      <use xlink:href="#DejaVuSerif-6f" transform="translate(561.962891 0.015625)"/>
      <use xlink:href="#DejaVuSerif-77" transform="translate(622.167969 0.015625)"/>
      <use xlink:href="#DejaVuSerif-20" transform="translate(707.763672 0.015625)"/>
      <use xlink:href="#DejaVuSerif-76" transform="translate(739.550781 0.015625)"/>
      <use xlink:href="#DejaVuSerif-65" transform="translate(796.044922 0.015625)"/>
      <use xlink:href="#DejaVuSerif-6c" transform="translate(855.224609 0.015625)"/>
      <use xlink:href="#DejaVuSerif-6f" transform="translate(887.207031 0.015625)"/>
      <use xlink:href="#DejaVuSerif-63" transform="translate(947.412109 0.015625)"/>
      <use xlink:href="#DejaVuSerif-69" transform="translate(1003.417969 0.015625)"/>
      <use xlink:href="#DejaVuSerif-74" transform="translate(1035.400391 0.015625)"/>
      <use xlink:href="#DejaVuSerif-79" transform="translate(1075.585938 0.015625)"/>
      <use xlink:href="#DejaVuSerif-20" transform="translate(1132.080078 0.015625)"/>
      <use xlink:href="#DejaVuSans-Oblique-76" transform="translate(1163.867188 0.015625)"/>
      <use xlink:href="#DejaVuSans-Oblique-52" transform="translate(1223.046875 -16.390625) scale(0.7)"/>
      <use xlink:href="#DejaVuSerif-20" transform="translate(1274.418945 0.015625)"/>
      <use xlink:href="#DejaVuSerif-5b" transform="translate(1306.206055 0.015625)"/>
      <use xlink:href="#DejaVuSerif-6d" transform="translate(1345.219727 0.015625)"/>
      <use xlink:href="#DejaVuSerif-2f" transform="translate(1440.043945 0.015625)"/>
      <use xlink:href="#DejaVuSerif-73" transform="translate(1473.735352 0.015625)"/>
      <use xlink:href="#DejaVuSerif-5d" transform="translate(1525.053711 0.015625)"/>
     </g>
    </g>
   </g>
   <g id="matplotlib.axis_2">
    <g id="ytick_1">
     <g id="line2d_27"/>
     <g id="text_15">
      <!-- 0.10 -->
      <g style="fill: #262626" transform="translate(12.807115 30.882778) scale(0.07 -0.07)">
       <use xlink:href="#DejaVuSerif-30"/>
       <use xlink:href="#DejaVuSerif-2e" x="63.623047"/>
       <use xlink:href="#DejaVuSerif-31" x="95.410156"/>
       <use xlink:href="#DejaVuSerif-30" x="159.033203"/>
      </g>
     </g>
    </g>
    <g id="ytick_2">
     <g id="line2d_28"/>
     <g id="text_16">
      <!-- 0.15 -->
      <g style="fill: #262626" transform="translate(12.807115 71.28295) scale(0.07 -0.07)">
       <use xlink:href="#DejaVuSerif-30"/>
       <use xlink:href="#DejaVuSerif-2e" x="63.623047"/>
       <use xlink:href="#DejaVuSerif-31" x="95.410156"/>
       <use xlink:href="#DejaVuSerif-35" x="159.033203"/>
      </g>
     </g>
    </g>
    <g id="ytick_3">
     <g id="line2d_29"/>
     <g id="text_17">
      <!-- 0.20 -->
      <g style="fill: #262626" transform="translate(12.807115 111.683121) scale(0.07 -0.07)">
       <use xlink:href="#DejaVuSerif-30"/>
       <use xlink:href="#DejaVuSerif-2e" x="63.623047"/>
       <use xlink:href="#DejaVuSerif-32" x="95.410156"/>
       <use xlink:href="#DejaVuSerif-30" x="159.033203"/>
      </g>
     </g>
    </g>
    <g id="ytick_4">
     <g id="line2d_30"/>
     <g id="text_18">
      <!-- 0.25 -->
      <g style="fill: #262626" transform="translate(12.807115 152.083293) scale(0.07 -0.07)">
       <use xlink:href="#DejaVuSerif-30"/>
       <use xlink:href="#DejaVuSerif-2e" x="63.623047"/>
       <use xlink:href="#DejaVuSerif-32" x="95.410156"/>
       <use xlink:href="#DejaVuSerif-35" x="159.033203"/>
      </g>
     </g>
    </g>
    <g id="ytick_5">
     <g id="line2d_31"/>
     <g id="text_19">
      <!-- 0.30 -->
      <g style="fill: #262626" transform="translate(12.807115 192.483464) scale(0.07 -0.07)">
       <use xlink:href="#DejaVuSerif-30"/>
       <use xlink:href="#DejaVuSerif-2e" x="63.623047"/>
       <use xlink:href="#DejaVuSerif-33" x="95.410156"/>
       <use xlink:href="#DejaVuSerif-30" x="159.033203"/>
      </g>
     </g>
    </g>
    <g id="text_20">
     <!-- Rudder span [m] -->
     <g style="fill: #262626" transform="translate(7.559302 125.670532) rotate(-90) scale(0.06 -0.06)">
      <defs>
       <path id="DejaVuSerif-52" d="M 3066 2316 
Q 3284 2256 3442 2114 
Q 3600 1972 3725 1716 
L 4403 331 
L 4972 331 
L 4972 0 
L 3872 0 
L 3144 1484 
Q 2934 1916 2759 2042 
Q 2584 2169 2278 2169 
L 1581 2169 
L 1581 331 
L 2241 331 
L 2241 0 
L 353 0 
L 353 331 
L 947 331 
L 947 4331 
L 353 4331 
L 353 4666 
L 2719 4666 
Q 3400 4666 3770 4341 
Q 4141 4016 4141 3419 
Q 4141 2938 3870 2661 
Q 3600 2384 3066 2316 
z
M 1581 2503 
L 2503 2503 
Q 2975 2503 3200 2726 
Q 3425 2950 3425 3419 
Q 3425 3888 3200 4109 
Q 2975 4331 2503 4331 
L 1581 4331 
L 1581 2503 
z
" transform="scale(0.015625)"/>
       <path id="DejaVuSerif-75" d="M 2266 3322 
L 3341 3322 
L 3341 331 
L 3884 331 
L 3884 0 
L 2766 0 
L 2766 588 
Q 2606 256 2353 82 
Q 2100 -91 1766 -91 
Q 1213 -91 952 223 
Q 691 538 691 1209 
L 691 2988 
L 172 2988 
L 172 3322 
L 1269 3322 
L 1269 1388 
Q 1269 781 1417 556 
Q 1566 331 1947 331 
Q 2347 331 2556 625 
Q 2766 919 2766 1478 
L 2766 2988 
L 2266 2988 
L 2266 3322 
z
" transform="scale(0.015625)"/>
       <path id="DejaVuSerif-64" d="M 3359 331 
L 3909 331 
L 3909 0 
L 2784 0 
L 2784 519 
Q 2616 206 2355 57 
Q 2094 -91 1709 -91 
Q 1097 -91 708 395 
Q 319 881 319 1663 
Q 319 2444 706 2928 
Q 1094 3413 1709 3413 
Q 2094 3413 2355 3264 
Q 2616 3116 2784 2803 
L 2784 4531 
L 2241 4531 
L 2241 4863 
L 3359 4863 
L 3359 331 
z
M 2784 1497 
L 2784 1825 
Q 2784 2422 2554 2737 
Q 2325 3053 1888 3053 
Q 1444 3053 1217 2703 
Q 991 2353 991 1663 
Q 991 975 1217 622 
Q 1444 269 1888 269 
Q 2325 269 2554 583 
Q 2784 897 2784 1497 
z
" transform="scale(0.015625)"/>
       <path id="DejaVuSerif-70" d="M 1313 1825 
L 1313 1497 
Q 1313 897 1542 583 
Q 1772 269 2209 269 
Q 2650 269 2876 622 
Q 3103 975 3103 1663 
Q 3103 2353 2876 2703 
Q 2650 3053 2209 3053 
Q 1772 3053 1542 2737 
Q 1313 2422 1313 1825 
z
M 738 2988 
L 184 2988 
L 184 3322 
L 1313 3322 
L 1313 2803 
Q 1481 3116 1742 3264 
Q 2003 3413 2388 3413 
Q 3000 3413 3387 2928 
Q 3775 2444 3775 1663 
Q 3775 881 3387 395 
Q 3000 -91 2388 -91 
Q 2003 -91 1742 57 
Q 1481 206 1313 519 
L 1313 -997 
L 1856 -997 
L 1856 -1331 
L 184 -1331 
L 184 -997 
L 738 -997 
L 738 2988 
z
" transform="scale(0.015625)"/>
      </defs>
      <use xlink:href="#DejaVuSerif-52"/>
      <use xlink:href="#DejaVuSerif-75" x="75.292969"/>
      <use xlink:href="#DejaVuSerif-64" x="139.697266"/>
      <use xlink:href="#DejaVuSerif-64" x="203.710938"/>
      <use xlink:href="#DejaVuSerif-65" x="267.724609"/>
      <use xlink:href="#DejaVuSerif-72" x="326.904297"/>
      <use xlink:href="#DejaVuSerif-20" x="374.707031"/>
      <use xlink:href="#DejaVuSerif-73" x="406.494141"/>
      <use xlink:href="#DejaVuSerif-70" x="457.8125"/>
      <use xlink:href="#DejaVuSerif-61" x="521.826172"/>
      <use xlink:href="#DejaVuSerif-6e" x="581.445312"/>
      <use xlink:href="#DejaVuSerif-20" x="645.849609"/>
      <use xlink:href="#DejaVuSerif-5b" x="677.636719"/>
      <use xlink:href="#DejaVuSerif-6d" x="716.650391"/>
      <use xlink:href="#DejaVuSerif-5d" x="811.474609"/>
     </g>
    </g>
   </g>
   <g id="line2d_32">
    <path d="M 235.717806 13.649554 
L 234.863273 15.483606 
L 233.878318 17.23032 
L 232.790045 18.977028 
L 230.34469 20.723746 
L 227.483776 22.470463 
L 224.622831 24.217173 
L 221.698586 25.96388 
L 218.722891 27.710599 
L 215.747195 29.457308 
L 213.096758 31.204026 
L 211.12234 32.950739 
L 209.16883 34.697453 
L 207.43192 36.444159 
L 206.668467 38.190876 
L 206.02204 39.937588 
L 205.471651 41.684306 
L 205.843779 43.431019 
L 206.446652 45.177738 
L 207.078203 46.924446 
L 208.364848 48.671147 
L 209.916753 50.417872 
L 211.482739 52.164586 
L 213.834969 53.911299 
L 216.626921 55.658018 
L 219.430701 57.404725 
L 223.325632 59.151439 
L 227.929552 60.898152 
L 232.543399 62.644865 
L 237.909733 64.391579 
L 243.737453 66.138292 
L 249.688406 67.885005 
L 259.394724 69.631707 
L 270.865238 71.378426 
L 282.320169 73.125145 
L 293.590688 74.871858 
L 304.808871 76.618572 
L 314.805818 78.365285 
L 319.21207 80.111998 
L 322.933039 81.858712 
L 326.046086 83.605425 
L 328.154328 85.352138 
L 330.256573 87.098851 
L 332.548568 88.845565 
L 334.920309 90.592278 
L 337.453742 92.33898 
L 340.452827 94.085705 
L 343.502015 95.832418 
L 347.01505 97.579131 
L 350.714045 99.325845 
L 354.469978 101.072558 
L 358.308452 102.819271 
L 361.928378 104.565996 
L 364.783473 106.31271 
L 367.359004 108.059411 
L 368.640739 109.806136 
L 369.540586 111.552826 
L 369.256691 113.299539 
L 368.644094 115.046264 
L 367.500872 116.792978 
L 366.217269 118.539691 
L 364.762825 120.286404 
L 362.221203 122.033117 
L 358.201818 123.779831 
L 350.523814 125.526556 
L 338.96128 127.273269 
L 323.553568 129.019971 
L 304.376554 130.766696 
L 280.441151 132.513385 
L 250.686977 134.260099 
L 219.760464 136.006824 
L 190.00471 137.753525 
L 163.097522 139.50025 
L 148.278871 141.246964 
L 141.919701 142.993677 
L 140.358642 144.74039 
L 141.508888 146.487104 
L 143.584399 148.233817 
L 146.241218 149.98053 
L 149.411 151.727255 
L 153.136683 153.473945 
L 157.681206 155.22067 
L 163.227594 156.967395 
L 169.778871 158.714085 
L 177.365873 160.46081 
L 185.928246 162.207523 
L 195.231728 163.954237 
L 204.922399 165.70095 
L 214.763346 167.447663 
L 224.594666 169.194377 
L 234.401778 170.94109 
L 244.202888 172.687815 
L 254.173031 174.434505 
L 264.735402 176.18123 
L 275.957969 177.927955 
L 287.233419 179.674644 
L 297.691516 181.42137 
L 306.501455 183.168083 
L 312.99647 184.914796 
L 317.089242 186.661509 
" clip-path="url(#p1ad46c57b7)" style="fill: none; stroke: #2a2eec; stroke-width: 0.4; stroke-linecap: round"/>
   </g>
   <g id="line2d_33">
    <path d="M 259.641632 13.649554 
L 259.641632 186.661509 
" clip-path="url(#p1ad46c57b7)" style="fill: none; stroke-dasharray: 1.48,0.64; stroke-dashoffset: 0; stroke: #2a2eec; stroke-width: 0.4"/>
   </g>
   <g id="line2d_34">
    <path d="M 238.16616 13.562218 
L 239.345611 15.308935 
L 240.714003 17.055648 
L 242.093166 18.802358 
L 243.746527 20.549069 
L 245.518078 22.295788 
L 247.289624 24.042498 
L 249.207726 25.789215 
L 251.303599 27.535932 
L 253.399474 29.282641 
L 255.475244 31.029349 
L 257.492296 32.776068 
L 259.505574 34.522778 
L 261.397869 36.269495 
L 262.487824 38.016211 
L 263.431312 39.762921 
L 264.329807 41.509639 
L 264.482695 43.256348 
L 264.371374 45.003061 
L 264.265561 46.662439 
L 263.770644 48.321804 
L 262.952563 50.06853 
L 262.134481 51.815243 
L 261.123272 53.561956 
L 259.88236 55.308669 
L 258.641448 57.055383 
L 257.360458 58.802084 
L 256.024166 60.548809 
L 254.687542 62.295523 
L 253.491738 64.042236 
L 252.479728 65.788961 
L 251.468336 67.535663 
L 251.173353 69.282364 
L 251.568908 71.029089 
L 251.990724 72.775802 
L 253.939566 74.522516 
L 256.74889 76.269241 
L 259.714894 78.015942 
L 264.357971 79.762644 
L 269.196567 81.422033 
L 274.266465 83.081411 
L 280.676491 84.828112 
L 287.222945 86.574837 
L 294.307325 88.426354 
L 304.834288 91.116292 
L 311.323699 92.863005 
L 317.469155 94.609719 
L 323.412227 96.356432 
L 328.360088 98.103145 
L 333.141482 99.849859 
L 336.759212 101.596572 
L 339.815469 103.343285 
L 342.28684 105.089993 
L 344.040484 106.836712 
L 345.530695 108.583425 
L 346.479181 110.330138 
L 346.767669 112.076864 
L 345.535391 113.823565 
L 342.531945 115.570278 
L 336.704142 117.229656 
L 327.474466 118.889034 
L 313.319836 120.635753 
L 294.382932 122.382472 
L 272.644088 124.129162 
L 248.333617 125.875881 
L 221.861582 127.6226 
L 193.116969 129.369313 
L 161.960364 131.116021 
L 129.521432 132.86274 
L 98.507758 134.609453 
L 73.683249 136.356166 
L 59.416402 138.10288 
L 53.531309 139.849593 
L 51.590424 141.596318 
L 51.068295 143.34302 
L 50.379907 145.089733 
L 49.246404 146.836458 
L 48.1899 148.583148 
L 47.971506 150.329873 
L 48.724513 151.989251 
L 50.430822 153.648616 
L 52.652555 155.395341 
L 55.027185 157.142055 
L 57.596801 158.888768 
L 60.524766 160.635481 
L 63.970912 162.382195 
L 68.090207 164.128908 
L 72.933773 165.875621 
L 78.467041 167.622346 
L 84.572144 169.369036 
L 91.071162 171.115761 
L 97.802626 172.862486 
L 104.584698 174.609176 
L 111.20114 176.355901 
L 117.419025 178.102614 
L 123.004927 179.849328 
L 127.785702 181.596041 
L 131.662155 183.342754 
L 134.574523 185.089468 
L 136.558705 186.748845 
" clip-path="url(#p1ad46c57b7)" style="fill: none; stroke: #fa7c17; stroke-width: 0.4; stroke-linecap: round"/>
   </g>
   <g id="line2d_35">
    <path d="M 213.170521 13.562218 
L 213.170521 186.748845 
" clip-path="url(#p1ad46c57b7)" style="fill: none; stroke-dasharray: 1.48,0.64; stroke-dashoffset: 0; stroke: #fa7c17; stroke-width: 0.4"/>
   </g>
   <g id="line2d_36">
    <defs>
     <path id="me36ba3dc12" d="M 0 0.75 
C 0.198902 0.75 0.389685 0.670975 0.53033 0.53033 
C 0.670975 0.389685 0.75 0.198902 0.75 0 
C 0.75 -0.198902 0.670975 -0.389685 0.53033 -0.53033 
C 0.389685 -0.670975 0.198902 -0.75 0 -0.75 
C -0.198902 -0.75 -0.389685 -0.670975 -0.53033 -0.53033 
C -0.670975 -0.389685 -0.75 -0.198902 -0.75 0 
C -0.75 0.198902 -0.670975 0.389685 -0.53033 0.53033 
C -0.389685 0.670975 -0.198902 0.75 0 0.75 
z
" style="stroke: #ff0000"/>
    </defs>
    <g clip-path="url(#p1ad46c57b7)">
     <use xlink:href="#me36ba3dc12" x="235.187366" y="122.583867" style="fill: #ff0000; stroke: #ff0000"/>
    </g>
   </g>
   <g id="patch_3">
    <path d="M 31.893052 195.408176 
L 31.893052 4.902887 
" style="fill: none; stroke: #000000; stroke-linejoin: miter; stroke-linecap: square"/>
   </g>
   <g id="patch_4">
    <path d="M 31.893053 195.408177 
L 385.61904 195.408177 
" style="fill: none; stroke: #000000; stroke-linejoin: miter; stroke-linecap: square"/>
   </g>
   <g id="text_21">
    <!--  Propeller -->
    <g style="fill: #262626" transform="translate(235.187366 122.583867) scale(0.1 -0.1)">
     <defs>
      <path id="DejaVuSerif-50" d="M 1581 2375 
L 2406 2375 
Q 2872 2375 3115 2626 
Q 3359 2878 3359 3353 
Q 3359 3831 3115 4081 
Q 2872 4331 2406 4331 
L 1581 4331 
L 1581 2375 
z
M 353 0 
L 353 331 
L 947 331 
L 947 4331 
L 353 4331 
L 353 4666 
L 2559 4666 
Q 3259 4666 3668 4311 
Q 4078 3956 4078 3353 
Q 4078 2753 3668 2397 
Q 3259 2041 2559 2041 
L 1581 2041 
L 1581 331 
L 2303 331 
L 2303 0 
L 353 0 
z
" transform="scale(0.015625)"/>
     </defs>
     <use xlink:href="#DejaVuSerif-20"/>
     <use xlink:href="#DejaVuSerif-50" x="31.787109"/>
     <use xlink:href="#DejaVuSerif-72" x="99.072266"/>
     <use xlink:href="#DejaVuSerif-6f" x="146.875"/>
     <use xlink:href="#DejaVuSerif-70" x="207.080078"/>
     <use xlink:href="#DejaVuSerif-65" x="271.09375"/>
     <use xlink:href="#DejaVuSerif-6c" x="330.273438"/>
     <use xlink:href="#DejaVuSerif-6c" x="362.255859"/>
     <use xlink:href="#DejaVuSerif-65" x="394.238281"/>
     <use xlink:href="#DejaVuSerif-72" x="453.417969"/>
    </g>
   </g>
   <g id="text_22">
    <!-- Rudder root -->
    <g style="fill: #262626" transform="translate(35.430312 10.618045) scale(0.1 -0.1)">
     <use xlink:href="#DejaVuSerif-52"/>
     <use xlink:href="#DejaVuSerif-75" x="75.292969"/>
     <use xlink:href="#DejaVuSerif-64" x="139.697266"/>
     <use xlink:href="#DejaVuSerif-64" x="203.710938"/>
     <use xlink:href="#DejaVuSerif-65" x="267.724609"/>
     <use xlink:href="#DejaVuSerif-72" x="326.904297"/>
     <use xlink:href="#DejaVuSerif-20" x="374.707031"/>
     <use xlink:href="#DejaVuSerif-72" x="406.494141"/>
     <use xlink:href="#DejaVuSerif-6f" x="454.296875"/>
     <use xlink:href="#DejaVuSerif-6f" x="514.501953"/>
     <use xlink:href="#DejaVuSerif-74" x="574.707031"/>
    </g>
   </g>
   <g id="text_23">
    <!-- Rudder tip -->
    <g style="fill: #262626" transform="translate(35.430312 189.693018) scale(0.1 -0.1)">
     <use xlink:href="#DejaVuSerif-52"/>
     <use xlink:href="#DejaVuSerif-75" x="75.292969"/>
     <use xlink:href="#DejaVuSerif-64" x="139.697266"/>
     <use xlink:href="#DejaVuSerif-64" x="203.710938"/>
     <use xlink:href="#DejaVuSerif-65" x="267.724609"/>
     <use xlink:href="#DejaVuSerif-72" x="326.904297"/>
     <use xlink:href="#DejaVuSerif-20" x="374.707031"/>
     <use xlink:href="#DejaVuSerif-74" x="406.494141"/>
     <use xlink:href="#DejaVuSerif-69" x="446.679688"/>
     <use xlink:href="#DejaVuSerif-70" x="478.662109"/>
    </g>
   </g>
   <g id="legend_1">
    <g id="line2d_37">
     <path d="M 317.29904 14.142887 
L 324.29904 14.142887 
L 331.29904 14.142887 
" style="fill: none; stroke: #2a2eec; stroke-width: 0.4; stroke-linecap: round"/>
    </g>
    <g id="text_24">
     <!-- $\beta$=10 [deg] -->
     <g style="fill: #262626" transform="translate(336.89904 16.592887) scale(0.07 -0.07)">
      <defs>
       <path id="DejaVuSans-Oblique-3b2" d="M 872 216 
L 572 -1331 
L -6 -1331 
L 928 3478 
Q 1206 4903 2538 4903 
Q 3888 4903 3659 3700 
Q 3503 2844 2894 2531 
Q 3713 2250 3553 1416 
Q 3272 -69 1759 -66 
Q 1097 -63 872 216 
z
M 1019 966 
Q 1259 422 1875 425 
Q 2775 425 2966 1406 
Q 3138 2288 1675 2219 
L 1778 2750 
Q 2909 2731 3106 3750 
Q 3241 4438 2509 4434 
Q 1691 4434 1503 3459 
L 1019 966 
z
" transform="scale(0.015625)"/>
       <path id="DejaVuSerif-3d" d="M 678 2894 
L 4684 2894 
L 4684 2394 
L 678 2394 
L 678 2894 
z
M 678 1619 
L 4684 1619 
L 4684 1119 
L 678 1119 
L 678 1619 
z
" transform="scale(0.015625)"/>
       <path id="DejaVuSerif-67" d="M 3359 2988 
L 3359 72 
Q 3359 -644 2965 -1033 
Q 2572 -1422 1844 -1422 
Q 1516 -1422 1216 -1362 
Q 916 -1303 641 -1184 
L 641 -488 
L 941 -488 
Q 997 -813 1206 -963 
Q 1416 -1113 1806 -1113 
Q 2313 -1113 2548 -827 
Q 2784 -541 2784 72 
L 2784 519 
Q 2616 206 2355 57 
Q 2094 -91 1709 -91 
Q 1097 -91 708 395 
Q 319 881 319 1663 
Q 319 2444 706 2928 
Q 1094 3413 1709 3413 
Q 2094 3413 2355 3264 
Q 2616 3116 2784 2803 
L 2784 3322 
L 3909 3322 
L 3909 2988 
L 3359 2988 
z
M 2784 1825 
Q 2784 2422 2554 2737 
Q 2325 3053 1888 3053 
Q 1444 3053 1217 2703 
Q 991 2353 991 1663 
Q 991 975 1217 622 
Q 1444 269 1888 269 
Q 2325 269 2554 583 
Q 2784 897 2784 1497 
L 2784 1825 
z
" transform="scale(0.015625)"/>
      </defs>
      <use xlink:href="#DejaVuSans-Oblique-3b2" transform="translate(0 0.390625)"/>
      <use xlink:href="#DejaVuSerif-3d" transform="translate(63.818359 0.390625)"/>
      <use xlink:href="#DejaVuSerif-31" transform="translate(147.607422 0.390625)"/>
      <use xlink:href="#DejaVuSerif-30" transform="translate(211.230469 0.390625)"/>
      <use xlink:href="#DejaVuSerif-20" transform="translate(274.853516 0.390625)"/>
      <use xlink:href="#DejaVuSerif-5b" transform="translate(306.640625 0.390625)"/>
      <use xlink:href="#DejaVuSerif-64" transform="translate(345.654297 0.390625)"/>
      <use xlink:href="#DejaVuSerif-65" transform="translate(409.667969 0.390625)"/>
      <use xlink:href="#DejaVuSerif-67" transform="translate(468.847656 0.390625)"/>
      <use xlink:href="#DejaVuSerif-5d" transform="translate(532.861328 0.390625)"/>
     </g>
    </g>
    <g id="line2d_38">
     <path d="M 317.29904 24.642887 
L 324.29904 24.642887 
L 331.29904 24.642887 
" style="fill: none; stroke: #fa7c17; stroke-width: 0.4; stroke-linecap: round"/>
    </g>
    <g id="text_25">
     <!-- $\beta$=-10 [deg] -->
     <g style="fill: #262626" transform="translate(336.89904 27.092887) scale(0.07 -0.07)">
      <defs>
       <path id="DejaVuSerif-2d" d="M 281 1959 
L 1881 1959 
L 1881 1472 
L 281 1472 
L 281 1959 
z
" transform="scale(0.015625)"/>
      </defs>
      <use xlink:href="#DejaVuSans-Oblique-3b2" transform="translate(0 0.390625)"/>
      <use xlink:href="#DejaVuSerif-3d" transform="translate(63.818359 0.390625)"/>
      <use xlink:href="#DejaVuSerif-2d" transform="translate(147.607422 0.390625)"/>
      <use xlink:href="#DejaVuSerif-31" transform="translate(181.396484 0.390625)"/>
      <use xlink:href="#DejaVuSerif-30" transform="translate(245.019531 0.390625)"/>
      <use xlink:href="#DejaVuSerif-20" transform="translate(308.642578 0.390625)"/>
      <use xlink:href="#DejaVuSerif-5b" transform="translate(340.429688 0.390625)"/>
      <use xlink:href="#DejaVuSerif-64" transform="translate(379.443359 0.390625)"/>
      <use xlink:href="#DejaVuSerif-65" transform="translate(443.457031 0.390625)"/>
      <use xlink:href="#DejaVuSerif-67" transform="translate(502.636719 0.390625)"/>
      <use xlink:href="#DejaVuSerif-5d" transform="translate(566.650391 0.390625)"/>
     </g>
    </g>
   </g>
  </g>
 </g>
 <defs>
  <clipPath id="p1ad46c57b7">
   <rect x="31.893052" y="4.902887" width="353.725987" height="190.50529"/>
  </clipPath>
 </defs>
</svg>
