<?xml version="1.0" encoding="utf-8" standalone="no"?>
<!DOCTYPE svg PUBLIC "-//W3C//DTD SVG 1.1//EN"
  "http://www.w3.org/Graphics/SVG/1.1/DTD/svg11.dtd">
<svg xmlns:xlink="http://www.w3.org/1999/xlink" width="129.53976pt" height="72.874368pt" viewBox="0 0 129.53976 72.874368" xmlns="http://www.w3.org/2000/svg" version="1.1">
 <metadata>
  <rdf:RDF xmlns:dc="http://purl.org/dc/elements/1.1/" xmlns:cc="http://creativecommons.org/ns#" xmlns:rdf="http://www.w3.org/1999/02/22-rdf-syntax-ns#">
   <cc:Work>
    <dc:type rdf:resource="http://purl.org/dc/dcmitype/StillImage"/>
    <dc:date>2025-01-02T14:26:21.971760</dc:date>
    <dc:format>image/svg+xml</dc:format>
    <dc:creator>
     <cc:Agent>
      <dc:title>Matplotlib v3.8.2, https://matplotlib.org/</dc:title>
     </cc:Agent>
    </dc:creator>
   </cc:Work>
  </rdf:RDF>
 </metadata>
 <defs>
  <style type="text/css">*{stroke-linejoin: round; stroke-linecap: butt}</style>
 </defs>
 <g id="figure_1">
  <g id="patch_1">
   <path d="M 0 72.874368 
L 129.53976 72.874368 
L 129.53976 0 
L 0 0 
z
" style="fill: #ffffff"/>
  </g>
  <g id="patch_2">
   <path d="M 31.332936 69.874128 
L 98.206824 69.874128 
L 98.206824 3.00024 
L 31.332936 3.00024 
z
" style="fill: #ffffff"/>
  </g>
  <g id="pane3d_1">
   <g id="patch_3">
    <path d="M 65.673581 37.145691 
L 95.53931 49.888215 
L 96.687927 20.626677 
L 65.673581 9.540638 
" style="fill: #f2f2f2; opacity: 0.5; stroke: #f2f2f2; stroke-linejoin: miter"/>
   </g>
  </g>
  <g id="pane3d_2">
   <g id="patch_4">
    <path d="M 65.673581 37.145691 
L 35.807853 49.888215 
L 34.659235 20.626677 
L 65.673581 9.540638 
" style="fill: #e6e6e6; opacity: 0.5; stroke: #e6e6e6; stroke-linejoin: miter"/>
   </g>
  </g>
  <g id="pane3d_3">
   <g id="patch_5">
    <path d="M 65.673581 37.145691 
L 35.807853 49.888215 
L 65.673581 64.693511 
L 95.53931 49.888215 
" style="fill: #ececec; opacity: 0.5; stroke: #ececec; stroke-linejoin: miter"/>
   </g>
  </g>
  <g id="grid3d_1">
   <g id="Line3DCollection_1">
    <path d="M 93.772658 50.763995 
L 63.89756 37.903449 
L 63.833891 10.198233 
" style="fill: none; stroke: #b0b0b0; stroke-width: 0.1"/>
    <path d="M 81.187276 57.002929 
L 51.279624 43.287022 
L 50.746759 14.876212 
" style="fill: none; stroke: #b0b0b0; stroke-width: 0.1"/>
    <path d="M 67.717431 63.680316 
L 37.841023 49.020742 
L 36.775871 19.870088 
" style="fill: none; stroke: #b0b0b0; stroke-width: 0.1"/>
   </g>
  </g>
  <g id="grid3d_2">
   <g id="Line3DCollection_2">
    <path d="M 77.785976 13.870198 
L 77.356418 42.130295 
L 47.450721 55.659918 
" style="fill: none; stroke: #b0b0b0; stroke-width: 0.1"/>
    <path d="M 94.60307 19.881447 
L 93.53667 49.033768 
L 63.660411 63.695525 
" style="fill: none; stroke: #b0b0b0; stroke-width: 0.1"/>
   </g>
  </g>
  <g id="grid3d_3">
   <g id="Line3DCollection_3">
    <path d="M 35.723887 47.74916 
L 65.673581 35.122717 
L 95.623275 47.74916 
" style="fill: none; stroke: #b0b0b0; stroke-width: 0.1"/>
    <path d="M 35.18631 34.054133 
L 65.673581 22.189632 
L 96.160853 34.054133 
" style="fill: none; stroke: #b0b0b0; stroke-width: 0.1"/>
   </g>
  </g>
  <g id="axis3d_1">
   <g id="line2d_1">
    <path d="M 95.53931 49.888215 
L 65.673581 64.693511 
" style="fill: none; stroke: #000000; stroke-linecap: round"/>
   </g>
   <g id="xtick_1">
    <g id="line2d_2">
     <path d="M 93.515829 50.653436 
L 94.287243 50.985512 
" style="fill: none; stroke: #262626; stroke-width: 0.8; stroke-linecap: round"/>
    </g>
    <g id="text_1">
     <!-- −10 -->
     <g style="fill: #262626" transform="translate(96.777361 70.162732) scale(0.07 -0.07)">
      <defs>
       <path id="DejaVuSerif-2212" d="M 678 2259 
L 4684 2259 
L 4684 1753 
L 678 1753 
L 678 2259 
z
" transform="scale(0.015625)"/>
       <path id="DejaVuSerif-31" d="M 909 0 
L 909 331 
L 1722 331 
L 1722 4213 
L 781 3603 
L 781 4013 
L 1919 4750 
L 2350 4750 
L 2350 331 
L 3163 331 
L 3163 0 
L 909 0 
z
" transform="scale(0.015625)"/>
       <path id="DejaVuSerif-30" d="M 2034 219 
Q 2513 219 2750 744 
Q 2988 1269 2988 2328 
Q 2988 3391 2750 3916 
Q 2513 4441 2034 4441 
Q 1556 4441 1318 3916 
Q 1081 3391 1081 2328 
Q 1081 1269 1318 744 
Q 1556 219 2034 219 
z
M 2034 -91 
Q 1275 -91 848 546 
Q 422 1184 422 2328 
Q 422 3475 848 4112 
Q 1275 4750 2034 4750 
Q 2797 4750 3222 4112 
Q 3647 3475 3647 2328 
Q 3647 1184 3222 546 
Q 2797 -91 2034 -91 
z
" transform="scale(0.015625)"/>
      </defs>
      <use xlink:href="#DejaVuSerif-2212"/>
      <use xlink:href="#DejaVuSerif-31" x="83.789062"/>
      <use xlink:href="#DejaVuSerif-30" x="147.412109"/>
     </g>
    </g>
   </g>
   <g id="xtick_2">
    <g id="line2d_3">
     <path d="M 80.929562 56.884739 
L 81.703666 57.23975 
" style="fill: none; stroke: #262626; stroke-width: 0.8; stroke-linecap: round"/>
    </g>
    <g id="text_2">
     <!-- 0 -->
     <g style="fill: #262626" transform="translate(89.543601 76.967956) scale(0.07 -0.07)">
      <use xlink:href="#DejaVuSerif-30"/>
     </g>
    </g>
   </g>
   <g id="xtick_3">
    <g id="line2d_4">
     <path d="M 67.45934 63.553677 
L 68.234613 63.934084 
" style="fill: none; stroke: #262626; stroke-width: 0.8; stroke-linecap: round"/>
    </g>
    <g id="text_3">
     <!-- 10 -->
     <g style="fill: #262626" transform="translate(74.040359 84.257945) scale(0.07 -0.07)">
      <use xlink:href="#DejaVuSerif-31"/>
      <use xlink:href="#DejaVuSerif-30" x="63.623047"/>
     </g>
    </g>
   </g>
   <g id="text_4">
    <!-- $\beta$ [deg] -->
    <g style="fill: #262626" transform="translate(93.725017 90.961612) scale(0.06 -0.06)">
     <defs>
      <path id="DejaVuSans-Oblique-3b2" d="M 872 216 
L 572 -1331 
L -6 -1331 
L 928 3478 
Q 1206 4903 2538 4903 
Q 3888 4903 3659 3700 
Q 3503 2844 2894 2531 
Q 3713 2250 3553 1416 
Q 3272 -69 1759 -66 
Q 1097 -63 872 216 
z
M 1019 966 
Q 1259 422 1875 425 
Q 2775 425 2966 1406 
Q 3138 2288 1675 2219 
L 1778 2750 
Q 2909 2731 3106 3750 
Q 3241 4438 2509 4434 
Q 1691 4434 1503 3459 
L 1019 966 
z
" transform="scale(0.015625)"/>
      <path id="DejaVuSerif-20" transform="scale(0.015625)"/>
      <path id="DejaVuSerif-5b" d="M 550 4863 
L 2003 4863 
L 2003 4531 
L 1147 4531 
L 1147 -513 
L 2003 -513 
L 2003 -844 
L 550 -844 
L 550 4863 
z
" transform="scale(0.015625)"/>
      <path id="DejaVuSerif-64" d="M 3359 331 
L 3909 331 
L 3909 0 
L 2784 0 
L 2784 519 
Q 2616 206 2355 57 
Q 2094 -91 1709 -91 
Q 1097 -91 708 395 
Q 319 881 319 1663 
Q 319 2444 706 2928 
Q 1094 3413 1709 3413 
Q 2094 3413 2355 3264 
Q 2616 3116 2784 2803 
L 2784 4531 
L 2241 4531 
L 2241 4863 
L 3359 4863 
L 3359 331 
z
M 2784 1497 
L 2784 1825 
Q 2784 2422 2554 2737 
Q 2325 3053 1888 3053 
Q 1444 3053 1217 2703 
Q 991 2353 991 1663 
Q 991 975 1217 622 
Q 1444 269 1888 269 
Q 2325 269 2554 583 
Q 2784 897 2784 1497 
z
" transform="scale(0.015625)"/>
      <path id="DejaVuSerif-65" d="M 3469 1600 
L 991 1600 
L 991 1575 
Q 991 903 1244 561 
Q 1497 219 1991 219 
Q 2369 219 2611 417 
Q 2853 616 2950 1006 
L 3413 1006 
Q 3275 459 2904 184 
Q 2534 -91 1931 -91 
Q 1203 -91 761 389 
Q 319 869 319 1663 
Q 319 2450 753 2931 
Q 1188 3413 1894 3413 
Q 2647 3413 3050 2948 
Q 3453 2484 3469 1600 
z
M 2791 1931 
Q 2772 2513 2545 2808 
Q 2319 3103 1894 3103 
Q 1497 3103 1269 2806 
Q 1041 2509 991 1931 
L 2791 1931 
z
" transform="scale(0.015625)"/>
      <path id="DejaVuSerif-67" d="M 3359 2988 
L 3359 72 
Q 3359 -644 2965 -1033 
Q 2572 -1422 1844 -1422 
Q 1516 -1422 1216 -1362 
Q 916 -1303 641 -1184 
L 641 -488 
L 941 -488 
Q 997 -813 1206 -963 
Q 1416 -1113 1806 -1113 
Q 2313 -1113 2548 -827 
Q 2784 -541 2784 72 
L 2784 519 
Q 2616 206 2355 57 
Q 2094 -91 1709 -91 
Q 1097 -91 708 395 
Q 319 881 319 1663 
Q 319 2444 706 2928 
Q 1094 3413 1709 3413 
Q 2094 3413 2355 3264 
Q 2616 3116 2784 2803 
L 2784 3322 
L 3909 3322 
L 3909 2988 
L 3359 2988 
z
M 2784 1825 
Q 2784 2422 2554 2737 
Q 2325 3053 1888 3053 
Q 1444 3053 1217 2703 
Q 991 2353 991 1663 
Q 991 975 1217 622 
Q 1444 269 1888 269 
Q 2325 269 2554 583 
Q 2784 897 2784 1497 
L 2784 1825 
z
" transform="scale(0.015625)"/>
      <path id="DejaVuSerif-5d" d="M 1947 4863 
L 1947 -844 
L 494 -844 
L 494 -513 
L 1350 -513 
L 1350 4531 
L 494 4531 
L 494 4863 
L 1947 4863 
z
" transform="scale(0.015625)"/>
     </defs>
     <use xlink:href="#DejaVuSans-Oblique-3b2" transform="translate(0 0.390625)"/>
     <use xlink:href="#DejaVuSerif-20" transform="translate(63.818359 0.390625)"/>
     <use xlink:href="#DejaVuSerif-5b" transform="translate(95.605469 0.390625)"/>
     <use xlink:href="#DejaVuSerif-64" transform="translate(134.619141 0.390625)"/>
     <use xlink:href="#DejaVuSerif-65" transform="translate(198.632812 0.390625)"/>
     <use xlink:href="#DejaVuSerif-67" transform="translate(257.8125 0.390625)"/>
     <use xlink:href="#DejaVuSerif-5d" transform="translate(321.826172 0.390625)"/>
    </g>
   </g>
  </g>
  <g id="axis3d_2">
   <g id="line2d_5">
    <path d="M 35.807853 49.888215 
L 65.673581 64.693511 
" style="fill: none; stroke: #000000; stroke-linecap: round"/>
   </g>
   <g id="xtick_4">
    <g id="line2d_6">
     <path d="M 47.708287 55.543392 
L 46.934632 55.893401 
" style="fill: none; stroke: #262626; stroke-width: 0.8; stroke-linecap: round"/>
    </g>
    <g id="text_5">
     <!-- 0.0 -->
     <g style="fill: #262626" transform="translate(31.341822 75.502548) scale(0.07 -0.07)">
      <defs>
       <path id="DejaVuSerif-2e" d="M 603 325 
Q 603 500 722 622 
Q 841 744 1019 744 
Q 1191 744 1312 622 
Q 1434 500 1434 325 
Q 1434 153 1312 31 
Q 1191 -91 1019 -91 
Q 841 -91 722 29 
Q 603 150 603 325 
z
" transform="scale(0.015625)"/>
      </defs>
      <use xlink:href="#DejaVuSerif-30"/>
      <use xlink:href="#DejaVuSerif-2e" x="63.623047"/>
      <use xlink:href="#DejaVuSerif-30" x="95.410156"/>
     </g>
    </g>
   </g>
   <g id="xtick_5">
    <g id="line2d_7">
     <path d="M 63.918502 63.568866 
L 63.143228 63.949332 
" style="fill: none; stroke: #262626; stroke-width: 0.8; stroke-linecap: round"/>
    </g>
    <g id="text_6">
     <!-- 0.1 -->
     <g style="fill: #262626" transform="translate(47.317213 84.274557) scale(0.07 -0.07)">
      <use xlink:href="#DejaVuSerif-30"/>
      <use xlink:href="#DejaVuSerif-2e" x="63.623047"/>
      <use xlink:href="#DejaVuSerif-31" x="95.410156"/>
     </g>
    </g>
   </g>
   <g id="text_7">
    <!-- $r$ [rad/s] -->
    <g style="fill: #262626" transform="translate(14.552146 90.997237) scale(0.06 -0.06)">
     <defs>
      <path id="DejaVuSans-Oblique-72" d="M 2853 2969 
Q 2766 3016 2653 3041 
Q 2541 3066 2413 3066 
Q 1953 3066 1609 2717 
Q 1266 2369 1153 1784 
L 800 0 
L 225 0 
L 909 3500 
L 1484 3500 
L 1375 2956 
Q 1603 3259 1920 3421 
Q 2238 3584 2597 3584 
Q 2691 3584 2781 3573 
Q 2872 3563 2963 3538 
L 2853 2969 
z
" transform="scale(0.015625)"/>
      <path id="DejaVuSerif-72" d="M 3059 3328 
L 3059 2497 
L 2728 2497 
Q 2713 2744 2591 2866 
Q 2469 2988 2234 2988 
Q 1809 2988 1582 2694 
Q 1356 2400 1356 1850 
L 1356 331 
L 2022 331 
L 2022 0 
L 263 0 
L 263 331 
L 781 331 
L 781 2994 
L 231 2994 
L 231 3322 
L 1356 3322 
L 1356 2731 
Q 1525 3078 1790 3245 
Q 2056 3413 2438 3413 
Q 2578 3413 2733 3391 
Q 2888 3369 3059 3328 
z
" transform="scale(0.015625)"/>
      <path id="DejaVuSerif-61" d="M 2547 1044 
L 2547 1747 
L 1806 1747 
Q 1378 1747 1168 1562 
Q 959 1378 959 997 
Q 959 650 1171 447 
Q 1384 244 1747 244 
Q 2106 244 2326 466 
Q 2547 688 2547 1044 
z
M 3122 2075 
L 3122 331 
L 3634 331 
L 3634 0 
L 2547 0 
L 2547 359 
Q 2356 128 2106 18 
Q 1856 -91 1522 -91 
Q 969 -91 644 203 
Q 319 497 319 997 
Q 319 1513 691 1797 
Q 1063 2081 1741 2081 
L 2547 2081 
L 2547 2309 
Q 2547 2688 2317 2895 
Q 2088 3103 1672 3103 
Q 1328 3103 1125 2947 
Q 922 2791 872 2484 
L 575 2484 
L 575 3156 
Q 875 3284 1158 3348 
Q 1441 3413 1709 3413 
Q 2400 3413 2761 3070 
Q 3122 2728 3122 2075 
z
" transform="scale(0.015625)"/>
      <path id="DejaVuSerif-2f" d="M 1656 4666 
L 2156 4666 
L 500 -594 
L 0 -594 
L 1656 4666 
z
" transform="scale(0.015625)"/>
      <path id="DejaVuSerif-73" d="M 359 184 
L 359 959 
L 691 959 
Q 703 588 923 403 
Q 1144 219 1575 219 
Q 1963 219 2166 364 
Q 2369 509 2369 788 
Q 2369 1006 2220 1140 
Q 2072 1275 1594 1428 
L 1178 1569 
Q 750 1706 558 1912 
Q 366 2119 366 2438 
Q 366 2894 700 3153 
Q 1034 3413 1625 3413 
Q 1888 3413 2178 3344 
Q 2469 3275 2778 3144 
L 2778 2419 
L 2447 2419 
Q 2434 2741 2221 2922 
Q 2009 3103 1644 3103 
Q 1281 3103 1095 2975 
Q 909 2847 909 2591 
Q 909 2381 1050 2254 
Q 1191 2128 1613 1997 
L 2069 1856 
Q 2541 1709 2748 1489 
Q 2956 1269 2956 922 
Q 2956 450 2595 179 
Q 2234 -91 1600 -91 
Q 1278 -91 972 -22 
Q 666 47 359 184 
z
" transform="scale(0.015625)"/>
     </defs>
     <use xlink:href="#DejaVuSans-Oblique-72" transform="translate(0 0.015625)"/>
     <use xlink:href="#DejaVuSerif-20" transform="translate(41.113281 0.015625)"/>
     <use xlink:href="#DejaVuSerif-5b" transform="translate(72.900391 0.015625)"/>
     <use xlink:href="#DejaVuSerif-72" transform="translate(111.914062 0.015625)"/>
     <use xlink:href="#DejaVuSerif-61" transform="translate(159.716797 0.015625)"/>
     <use xlink:href="#DejaVuSerif-64" transform="translate(219.335938 0.015625)"/>
     <use xlink:href="#DejaVuSerif-2f" transform="translate(283.349609 0.015625)"/>
     <use xlink:href="#DejaVuSerif-73" transform="translate(317.041016 0.015625)"/>
     <use xlink:href="#DejaVuSerif-5d" transform="translate(368.359375 0.015625)"/>
    </g>
   </g>
  </g>
  <g id="axis3d_3">
   <g id="line2d_8">
    <path d="M 35.807853 49.888215 
L 34.659235 20.626677 
" style="fill: none; stroke: #000000; stroke-linecap: round"/>
   </g>
   <g id="xtick_6">
    <g id="line2d_9">
     <path d="M 35.981322 47.640629 
L 35.20809 47.966615 
" style="fill: none; stroke: #262626; stroke-width: 0.8; stroke-linecap: round"/>
    </g>
    <g id="text_8">
     <!-- −100 -->
     <g style="fill: #262626" transform="translate(6.333168 53.068067) scale(0.07 -0.07)">
      <use xlink:href="#DejaVuSerif-2212"/>
      <use xlink:href="#DejaVuSerif-31" x="83.789062"/>
      <use xlink:href="#DejaVuSerif-30" x="147.412109"/>
      <use xlink:href="#DejaVuSerif-30" x="211.035156"/>
     </g>
    </g>
   </g>
   <g id="xtick_7">
    <g id="line2d_10">
     <path d="M 35.44869 33.952024 
L 34.660584 34.258725 
" style="fill: none; stroke: #262626; stroke-width: 0.8; stroke-linecap: round"/>
    </g>
    <g id="text_9">
     <!-- 0 -->
     <g style="fill: #262626" transform="translate(12.827243 39.373039) scale(0.07 -0.07)">
      <use xlink:href="#DejaVuSerif-30"/>
     </g>
    </g>
   </g>
   <g id="text_10">
    <!-- $N_H$ -->
    <g style="fill: #262626" transform="translate(1.610434 37.189108) scale(0.06 -0.06)">
     <defs>
      <path id="DejaVuSans-Oblique-4e" d="M 1081 4666 
L 1931 4666 
L 3219 666 
L 4000 4666 
L 4616 4666 
L 3706 0 
L 2853 0 
L 1569 4025 
L 788 0 
L 172 0 
L 1081 4666 
z
" transform="scale(0.015625)"/>
      <path id="DejaVuSans-Oblique-48" d="M 1081 4666 
L 1716 4666 
L 1344 2753 
L 3634 2753 
L 4006 4666 
L 4641 4666 
L 3731 0 
L 3097 0 
L 3531 2222 
L 1241 2222 
L 806 0 
L 172 0 
L 1081 4666 
z
" transform="scale(0.015625)"/>
     </defs>
     <use xlink:href="#DejaVuSans-Oblique-4e" transform="translate(0 0.09375)"/>
     <use xlink:href="#DejaVuSans-Oblique-48" transform="translate(74.804688 -16.3125) scale(0.7)"/>
    </g>
   </g>
  </g>
  <g id="axes_1">
   <g id="Path3DCollection_1">
    <defs>
     <path id="C0_0_343681c91e" d="M 0 0.216506 
C 0.057418 0.216506 0.112492 0.193694 0.153093 0.153093 
C 0.193694 0.112492 0.216506 0.057418 0.216506 -0 
C 0.216506 -0.057418 0.193694 -0.112492 0.153093 -0.153093 
C 0.112492 -0.193694 0.057418 -0.216506 0 -0.216506 
C -0.057418 -0.216506 -0.112492 -0.193694 -0.153093 -0.153093 
C -0.193694 -0.112492 -0.216506 -0.057418 -0.216506 0 
C -0.216506 0.057418 -0.193694 0.112492 -0.153093 0.153093 
C -0.112492 0.193694 -0.057418 0.216506 0 0.216506 
z
"/>
    </defs>
    <g clip-path="url(#p600de5fa65)">
     <use xlink:href="#C0_0_343681c91e" x="65.673581" y="12.690936" style="fill-opacity: 0.3; stroke: #000000; stroke-opacity: 0.3"/>
    </g>
    <g clip-path="url(#p600de5fa65)">
     <use xlink:href="#C0_0_343681c91e" x="68.184653" y="14.555258" style="fill-opacity: 0.333893; stroke: #000000; stroke-opacity: 0.333893"/>
    </g>
    <g clip-path="url(#p600de5fa65)">
     <use xlink:href="#C0_0_343681c91e" x="71.998378" y="18.16393" style="fill-opacity: 0.378908; stroke: #000000; stroke-opacity: 0.378908"/>
    </g>
    <g clip-path="url(#p600de5fa65)">
     <use xlink:href="#C0_0_343681c91e" x="59.275337" y="18.237634" style="fill-opacity: 0.37974; stroke: #000000; stroke-opacity: 0.37974"/>
    </g>
    <g clip-path="url(#p600de5fa65)">
     <use xlink:href="#C0_0_343681c91e" x="61.786307" y="20.690249" style="fill-opacity: 0.409871; stroke: #000000; stroke-opacity: 0.409871"/>
    </g>
    <g clip-path="url(#p600de5fa65)">
     <use xlink:href="#C0_0_343681c91e" x="75.855882" y="21.685491" style="fill-opacity: 0.425508; stroke: #000000; stroke-opacity: 0.425508"/>
    </g>
    <g clip-path="url(#p600de5fa65)">
     <use xlink:href="#C0_0_343681c91e" x="57.875051" y="24.260064" style="fill-opacity: 0.457838; stroke: #000000; stroke-opacity: 0.457838"/>
    </g>
    <g clip-path="url(#p600de5fa65)">
     <use xlink:href="#C0_0_343681c91e" x="65.595281" y="24.133448" style="fill-opacity: 0.457971; stroke: #000000; stroke-opacity: 0.457971"/>
    </g>
    <g clip-path="url(#p600de5fa65)">
     <use xlink:href="#C0_0_343681c91e" x="72.038382" y="24.95231" style="fill-opacity: 0.476459; stroke: #000000; stroke-opacity: 0.476459"/>
    </g>
    <g clip-path="url(#p600de5fa65)">
     <use xlink:href="#C0_0_343681c91e" x="61.681142" y="27.346719" style="fill-opacity: 0.510182; stroke: #000000; stroke-opacity: 0.510182"/>
    </g>
    <g clip-path="url(#p600de5fa65)">
     <use xlink:href="#C0_0_343681c91e" x="68.16303" y="28.225756" style="fill-opacity: 0.52856; stroke: #000000; stroke-opacity: 0.52856"/>
    </g>
    <g clip-path="url(#p600de5fa65)">
     <use xlink:href="#C0_0_343681c91e" x="73.385925" y="30.428273" style="fill-opacity: 0.56281; stroke: #000000; stroke-opacity: 0.56281"/>
    </g>
    <g clip-path="url(#p600de5fa65)">
     <use xlink:href="#C0_0_343681c91e" x="65.546347" y="30.416027" style="fill-opacity: 0.563916; stroke: #000000; stroke-opacity: 0.563916"/>
    </g>
    <g clip-path="url(#p600de5fa65)">
     <use xlink:href="#C0_0_343681c91e" x="56.370912" y="31.976999" style="fill-opacity: 0.578676; stroke: #000000; stroke-opacity: 0.578676"/>
    </g>
    <g clip-path="url(#p600de5fa65)">
     <use xlink:href="#C0_0_343681c91e" x="64.22801" y="31.596169" style="fill-opacity: 0.581052; stroke: #000000; stroke-opacity: 0.581052"/>
    </g>
    <g clip-path="url(#p600de5fa65)">
     <use xlink:href="#C0_0_343681c91e" x="61.572261" y="34.101949" style="fill-opacity: 0.614437; stroke: #000000; stroke-opacity: 0.614437"/>
    </g>
    <g clip-path="url(#p600de5fa65)">
     <use xlink:href="#C0_0_343681c91e" x="60.234255" y="35.293788" style="fill-opacity: 0.631881; stroke: #000000; stroke-opacity: 0.631881"/>
    </g>
    <g clip-path="url(#p600de5fa65)">
     <use xlink:href="#C0_0_343681c91e" x="57.536923" y="37.594533" style="fill-opacity: 0.667947; stroke: #000000; stroke-opacity: 0.667947"/>
    </g>
    <g clip-path="url(#p600de5fa65)">
     <use xlink:href="#C0_0_343681c91e" x="53.440379" y="41.23135" style="fill-opacity: 0.721462; stroke: #000000; stroke-opacity: 0.721462"/>
    </g>
    <g clip-path="url(#p600de5fa65)">
     <use xlink:href="#C0_0_343681c91e" x="68.143033" y="41.807167" style="fill-opacity: 0.743324; stroke: #000000; stroke-opacity: 0.743324"/>
    </g>
    <g clip-path="url(#p600de5fa65)">
     <use xlink:href="#C0_0_343681c91e" x="49.277847" y="44.789538" style="fill-opacity: 0.777052; stroke: #000000; stroke-opacity: 0.777052"/>
    </g>
    <g clip-path="url(#p600de5fa65)">
     <use xlink:href="#C0_0_343681c91e" x="64.084508" y="45.764784" style="fill-opacity: 0.795683; stroke: #000000; stroke-opacity: 0.795683"/>
    </g>
    <g clip-path="url(#p600de5fa65)">
     <use xlink:href="#C0_0_343681c91e" x="53.198943" y="48.733479" style="fill-opacity: 0.829215; stroke: #000000; stroke-opacity: 0.829215"/>
    </g>
    <g clip-path="url(#p600de5fa65)">
     <use xlink:href="#C0_0_343681c91e" x="66.774767" y="48.468206" style="fill-opacity: 0.829984; stroke: #000000; stroke-opacity: 0.829984"/>
    </g>
    <g clip-path="url(#p600de5fa65)">
     <use xlink:href="#C0_0_343681c91e" x="57.18771" y="52.718754" style="fill-opacity: 0.882539; stroke: #000000; stroke-opacity: 0.882539"/>
    </g>
    <g clip-path="url(#p600de5fa65)">
     <use xlink:href="#C0_0_343681c91e" x="59.873939" y="55.049095" style="fill-opacity: 0.921907; stroke: #000000; stroke-opacity: 0.921907"/>
    </g>
    <g clip-path="url(#p600de5fa65)">
     <use xlink:href="#C0_0_343681c91e" x="65.673581" y="60.786424" style="stroke: #000000"/>
    </g>
   </g>
   <g id="Poly3DCollection_1">
    <path d="M 65.673581 13.188227 
L 64.340188 14.410549 
L 65.673581 15.491599 
L 67.007187 14.283686 
z
" clip-path="url(#p600de5fa65)" style="fill: #b40426; fill-opacity: 0.75"/>
    <path d="M 64.340188 14.410549 
L 63.000294 15.632356 
L 64.333405 16.702177 
L 65.673581 15.491599 
z
" clip-path="url(#p600de5fa65)" style="fill: #c0282f; fill-opacity: 0.75"/>
    <path d="M 67.007187 14.283686 
L 65.673581 15.491599 
L 67.013948 16.589399 
L 68.347659 15.397179 
z
" clip-path="url(#p600de5fa65)" style="fill: #bd1f2d; fill-opacity: 0.75"/>
    <path d="M 63.000294 15.632356 
L 61.653809 16.85151 
L 62.986586 17.913322 
L 64.333405 16.702177 
z
" clip-path="url(#p600de5fa65)" style="fill: #cb3e38; fill-opacity: 0.75"/>
    <path d="M 65.673581 15.491599 
L 64.333405 16.702177 
L 65.673581 17.787465 
L 67.013948 16.589399 
z
" clip-path="url(#p600de5fa65)" style="fill: #ca3b37; fill-opacity: 0.75"/>
    <path d="M 68.347659 15.397179 
L 67.013948 16.589399 
L 68.361286 17.704035 
L 69.694988 16.528795 
z
" clip-path="url(#p600de5fa65)" style="fill: #c83836; fill-opacity: 0.75"/>
    <path d="M 61.653809 16.85151 
L 60.300625 18.065852 
L 61.633036 19.122906 
L 62.986586 17.913322 
z
" clip-path="url(#p600de5fa65)" style="fill: #d55042; fill-opacity: 0.75"/>
    <path d="M 64.333405 16.702177 
L 62.986586 17.913322 
L 64.326506 18.989317 
L 65.673581 17.787465 
z
" clip-path="url(#p600de5fa65)" style="fill: #d44e41; fill-opacity: 0.75"/>
    <path d="M 67.013948 16.589399 
L 65.673581 17.787465 
L 67.020829 18.888301 
L 68.361286 17.704035 
z
" clip-path="url(#p600de5fa65)" style="fill: #d1493f; fill-opacity: 0.75"/>
    <path d="M 69.694988 16.528795 
L 68.361286 17.704035 
L 69.715593 18.835591 
L 71.049162 17.67862 
z
" clip-path="url(#p600de5fa65)" style="fill: #d1493f; fill-opacity: 0.75"/>
    <path d="M 60.300625 18.065852 
L 58.940618 19.273204 
L 60.272651 20.328781 
L 61.633036 19.122906 
z
" clip-path="url(#p600de5fa65)" style="fill: #de614d; fill-opacity: 0.75"/>
    <path d="M 62.986586 17.913322 
L 61.633036 19.122906 
L 62.972652 20.192864 
L 64.326506 18.989317 
z
" clip-path="url(#p600de5fa65)" style="fill: #dd5f4b; fill-opacity: 0.75"/>
    <path d="M 65.673581 17.787465 
L 64.326506 18.989317 
L 65.673581 20.079575 
L 67.020829 18.888301 
z
" clip-path="url(#p600de5fa65)" style="fill: #da5a49; fill-opacity: 0.75"/>
    <path d="M 68.361286 17.704035 
L 67.020829 18.888301 
L 68.375153 20.004768 
L 69.715593 18.835591 
z
" clip-path="url(#p600de5fa65)" style="fill: #d95847; fill-opacity: 0.75"/>
    <path d="M 71.049162 17.67862 
L 69.715593 18.835591 
L 71.076866 19.984152 
L 72.410172 18.846741 
z
" clip-path="url(#p600de5fa65)" style="fill: #d95847; fill-opacity: 0.75"/>
    <path d="M 58.940618 19.273204 
L 57.573648 20.471377 
L 58.90531 21.528786 
L 60.272651 20.328781 
z
" clip-path="url(#p600de5fa65)" style="fill: #e57058; fill-opacity: 0.75"/>
    <path d="M 61.633036 19.122906 
L 60.272651 20.328781 
L 61.611935 21.395988 
L 62.972652 20.192864 
z
" clip-path="url(#p600de5fa65)" style="fill: #e46e56; fill-opacity: 0.75"/>
    <path d="M 64.326506 18.989317 
L 62.972652 20.192864 
L 64.319493 21.275801 
L 65.673581 20.079575 
z
" clip-path="url(#p600de5fa65)" style="fill: #e36b54; fill-opacity: 0.75"/>
    <path d="M 67.020829 18.888301 
L 65.673581 20.079575 
L 67.027826 21.184175 
L 68.375153 20.004768 
z
" clip-path="url(#p600de5fa65)" style="fill: #e26952; fill-opacity: 0.75"/>
    <path d="M 72.410172 18.846741 
L 71.076866 19.984152 
L 72.445102 21.149801 
L 73.778005 20.033241 
z
" clip-path="url(#p600de5fa65)" style="fill: #e26952; fill-opacity: 0.75"/>
    <path d="M 69.715593 18.835591 
L 68.375153 20.004768 
L 69.73656 21.136948 
L 71.076866 19.984152 
z
" clip-path="url(#p600de5fa65)" style="fill: #e26952; fill-opacity: 0.75"/>
    <path d="M 57.573648 20.471377 
L 56.199556 21.658178 
L 57.530875 22.720748 
L 58.90531 21.528786 
z
" clip-path="url(#p600de5fa65)" style="fill: #ec7f63; fill-opacity: 0.75"/>
    <path d="M 60.272651 20.328781 
L 58.90531 21.528786 
L 60.244255 22.596554 
L 61.611935 21.395988 
z
" clip-path="url(#p600de5fa65)" style="fill: #eb7d62; fill-opacity: 0.75"/>
    <path d="M 62.972652 20.192864 
L 61.611935 21.395988 
L 62.958499 22.474894 
L 64.319493 21.275801 
z
" clip-path="url(#p600de5fa65)" style="fill: #e97a5f; fill-opacity: 0.75"/>
    <path d="M 65.673581 20.079575 
L 64.319493 21.275801 
L 65.673581 22.371793 
L 67.027826 21.184175 
z
" clip-path="url(#p600de5fa65)" style="fill: #e9785d; fill-opacity: 0.75"/>
    <path d="M 73.778005 20.033241 
L 72.445102 21.149801 
L 73.820298 22.332622 
L 75.152649 21.238206 
z
" clip-path="url(#p600de5fa65)" style="fill: #e8765c; fill-opacity: 0.75"/>
    <path d="M 68.375153 20.004768 
L 67.027826 21.184175 
L 68.389255 22.303194 
L 69.73656 21.136948 
z
" clip-path="url(#p600de5fa65)" style="fill: #e8765c; fill-opacity: 0.75"/>
    <path d="M 71.076866 19.984152 
L 69.73656 21.136948 
L 71.105054 22.284921 
L 72.445102 21.149801 
z
" clip-path="url(#p600de5fa65)" style="fill: #e8765c; fill-opacity: 0.75"/>
    <path d="M 56.199556 21.658178 
L 54.818165 22.831412 
L 56.149191 23.90249 
L 57.530875 22.720748 
z
" clip-path="url(#p600de5fa65)" style="fill: #f18d6f; fill-opacity: 0.75"/>
    <path d="M 58.90531 21.528786 
L 57.530875 22.720748 
L 58.869494 23.792411 
L 60.244255 22.596554 
z
" clip-path="url(#p600de5fa65)" style="fill: #f08a6c; fill-opacity: 0.75"/>
    <path d="M 61.611935 21.395988 
L 60.244255 22.596554 
L 61.590518 23.674746 
L 62.958499 22.474894 
z
" clip-path="url(#p600de5fa65)" style="fill: #ef886b; fill-opacity: 0.75"/>
    <path d="M 64.319493 21.275801 
L 62.958499 22.474894 
L 64.312371 23.565572 
L 65.673581 22.371793 
z
" clip-path="url(#p600de5fa65)" style="fill: #ee8669; fill-opacity: 0.75"/>
    <path d="M 75.152649 21.238206 
L 73.820298 22.332622 
L 75.202447 23.532696 
L 76.534091 22.46172 
z
" clip-path="url(#p600de5fa65)" style="fill: #ee8468; fill-opacity: 0.75"/>
    <path d="M 67.027826 21.184175 
L 65.673581 22.371793 
L 67.034937 23.480915 
L 68.389255 22.303194 
z
" clip-path="url(#p600de5fa65)" style="fill: #ee8468; fill-opacity: 0.75"/>
    <path d="M 72.445102 21.149801 
L 71.105054 22.284921 
L 72.48064 23.448769 
L 73.820298 22.332622 
z
" clip-path="url(#p600de5fa65)" style="fill: #ed8366; fill-opacity: 0.75"/>
    <path d="M 69.73656 21.136948 
L 68.389255 22.303194 
L 69.757879 23.436713 
L 71.105054 22.284921 
z
" clip-path="url(#p600de5fa65)" style="fill: #ed8366; fill-opacity: 0.75"/>
    <path d="M 54.818165 22.831412 
L 53.429282 23.988891 
L 54.760086 25.071841 
L 56.149191 23.90249 
z
" clip-path="url(#p600de5fa65)" style="fill: #f4987a; fill-opacity: 0.75"/>
    <path d="M 57.530875 22.720748 
L 56.149191 23.90249 
L 57.487517 24.981404 
L 58.869494 23.792411 
z
" clip-path="url(#p600de5fa65)" style="fill: #f39778; fill-opacity: 0.75"/>
    <path d="M 60.244255 22.596554 
L 58.869494 23.792411 
L 60.215454 24.87323 
L 61.590518 23.674746 
z
" clip-path="url(#p600de5fa65)" style="fill: #f39475; fill-opacity: 0.75"/>
    <path d="M 62.958499 22.474894 
L 61.590518 23.674746 
L 62.944136 24.76343 
L 64.312371 23.565572 
z
" clip-path="url(#p600de5fa65)" style="fill: #f29274; fill-opacity: 0.75"/>
    <path d="M 76.534091 22.46172 
L 75.202447 23.532696 
L 76.591546 24.750106 
L 77.922316 23.703863 
z
" clip-path="url(#p600de5fa65)" style="fill: #f29274; fill-opacity: 0.75"/>
    <path d="M 65.673581 22.371793 
L 64.312371 23.565572 
L 65.673581 24.66809 
L 67.034937 23.480915 
z
" clip-path="url(#p600de5fa65)" style="fill: #f29072; fill-opacity: 0.75"/>
    <path d="M 73.820298 22.332622 
L 72.48064 23.448769 
L 73.863321 24.628573 
L 75.202447 23.532696 
z
" clip-path="url(#p600de5fa65)" style="fill: #f29072; fill-opacity: 0.75"/>
    <path d="M 68.389255 22.303194 
L 67.034937 23.480915 
L 68.403582 24.603241 
L 69.757879 23.436713 
z
" clip-path="url(#p600de5fa65)" style="fill: #f18f71; fill-opacity: 0.75"/>
    <path d="M 71.105054 22.284921 
L 69.757879 23.436713 
L 71.133712 24.584809 
L 72.48064 23.448769 
z
" clip-path="url(#p600de5fa65)" style="fill: #f18f71; fill-opacity: 0.75"/>
    <path d="M 53.429282 23.988891 
L 52.032695 25.128439 
L 53.363368 26.226635 
L 54.760086 25.071841 
z
" clip-path="url(#p600de5fa65)" style="fill: #f6a385; fill-opacity: 0.75"/>
    <path d="M 56.149191 23.90249 
L 54.760086 25.071841 
L 56.098174 26.161373 
L 57.487517 24.981404 
z
" clip-path="url(#p600de5fa65)" style="fill: #f6a283; fill-opacity: 0.75"/>
    <path d="M 58.869494 23.792411 
L 57.487517 24.981404 
L 58.833193 26.068208 
L 60.215454 24.87323 
z
" clip-path="url(#p600de5fa65)" style="fill: #f5a081; fill-opacity: 0.75"/>
    <path d="M 77.922316 23.703863 
L 76.591546 24.750106 
L 77.987587 25.984933 
L 79.317311 24.964719 
z
" clip-path="url(#p600de5fa65)" style="fill: #f59f80; fill-opacity: 0.75"/>
    <path d="M 61.590518 23.674746 
L 60.215454 24.87323 
L 61.568799 25.963265 
L 62.944136 24.76343 
z
" clip-path="url(#p600de5fa65)" style="fill: #f59f80; fill-opacity: 0.75"/>
    <path d="M 64.312371 23.565572 
L 62.944136 24.76343 
L 64.305145 25.862671 
L 65.673581 24.66809 
z
" clip-path="url(#p600de5fa65)" style="fill: #f59d7e; fill-opacity: 0.75"/>
    <path d="M 75.202447 23.532696 
L 73.863321 24.628573 
L 75.253101 25.824413 
L 76.591546 24.750106 
z
" clip-path="url(#p600de5fa65)" style="fill: #f59c7d; fill-opacity: 0.75"/>
    <path d="M 67.034937 23.480915 
L 65.673581 24.66809 
L 67.042157 25.782522 
L 68.403582 24.603241 
z
" clip-path="url(#p600de5fa65)" style="fill: #f59c7d; fill-opacity: 0.75"/>
    <path d="M 72.48064 23.448769 
L 71.133712 24.584809 
L 72.516765 25.747561 
L 73.863321 24.628573 
z
" clip-path="url(#p600de5fa65)" style="fill: #f49a7b; fill-opacity: 0.75"/>
    <path d="M 69.757879 23.436713 
L 68.403582 24.603241 
L 69.779537 25.738847 
L 71.133712 24.584809 
z
" clip-path="url(#p600de5fa65)" style="fill: #f49a7b; fill-opacity: 0.75"/>
    <path d="M 52.032695 25.128439 
L 50.628172 26.247896 
L 51.958828 27.364719 
L 53.363368 26.226635 
z
" clip-path="url(#p600de5fa65)" style="fill: #f7ad90; fill-opacity: 0.75"/>
    <path d="M 54.760086 25.071841 
L 53.363368 26.226635 
L 54.701295 27.330164 
L 56.098174 26.161373 
z
" clip-path="url(#p600de5fa65)" style="fill: #f7ac8e; fill-opacity: 0.75"/>
    <path d="M 57.487517 24.981404 
L 56.098174 26.161373 
L 57.443604 27.257537 
L 58.833193 26.068208 
z
" clip-path="url(#p600de5fa65)" style="fill: #f7aa8c; fill-opacity: 0.75"/>
    <path d="M 79.317311 24.964719 
L 77.987587 25.984933 
L 79.390566 27.237258 
L 80.719058 26.244367 
z
" clip-path="url(#p600de5fa65)" style="fill: #f7aa8c; fill-opacity: 0.75"/>
    <path d="M 60.215454 24.87323 
L 58.833193 26.068208 
L 60.186267 27.16296 
L 61.568799 25.963265 
z
" clip-path="url(#p600de5fa65)" style="fill: #f7a98b; fill-opacity: 0.75"/>
    <path d="M 62.944136 24.76343 
L 61.568799 25.963265 
L 62.929573 27.062579 
L 64.305145 25.862671 
z
" clip-path="url(#p600de5fa65)" style="fill: #f7a889; fill-opacity: 0.75"/>
    <path d="M 76.591546 24.750106 
L 75.253101 25.824413 
L 76.649982 27.03637 
L 77.987587 25.984933 
z
" clip-path="url(#p600de5fa65)" style="fill: #f7a889; fill-opacity: 0.75"/>
    <path d="M 65.673581 24.66809 
L 64.305145 25.862671 
L 65.673581 26.972537 
L 67.042157 25.782522 
z
" clip-path="url(#p600de5fa65)" style="fill: #f7a688; fill-opacity: 0.75"/>
    <path d="M 73.863321 24.628573 
L 72.516765 25.747561 
L 73.907051 26.925046 
L 75.253101 25.824413 
z
" clip-path="url(#p600de5fa65)" style="fill: #f7a688; fill-opacity: 0.75"/>
    <path d="M 68.403582 24.603241 
L 67.042157 25.782522 
L 68.418128 26.908938 
L 69.779537 25.738847 
z
" clip-path="url(#p600de5fa65)" style="fill: #f6a586; fill-opacity: 0.75"/>
    <path d="M 71.133712 24.584809 
L 69.779537 25.738847 
L 71.162822 26.887809 
L 72.516765 25.747561 
z
" clip-path="url(#p600de5fa65)" style="fill: #f6a586; fill-opacity: 0.75"/>
    <path d="M 80.719058 26.244367 
L 79.390566 27.237258 
L 80.800473 28.50716 
L 82.127542 27.542886 
z
" clip-path="url(#p600de5fa65)" style="fill: #f7b79b; fill-opacity: 0.75"/>
    <path d="M 50.628172 26.247896 
L 49.215466 27.345125 
L 50.546241 28.483963 
L 51.958828 27.364719 
z
" clip-path="url(#p600de5fa65)" style="fill: #f7b599; fill-opacity: 0.75"/>
    <path d="M 53.363368 26.226635 
L 51.958828 27.364719 
L 53.296693 28.485635 
L 54.701295 27.330164 
z
" clip-path="url(#p600de5fa65)" style="fill: #f7b599; fill-opacity: 0.75"/>
    <path d="M 56.098174 26.161373 
L 54.701295 27.330164 
L 56.046539 28.439074 
L 57.443604 27.257537 
z
" clip-path="url(#p600de5fa65)" style="fill: #f7b599; fill-opacity: 0.75"/>
    <path d="M 58.833193 26.068208 
L 57.443604 27.257537 
L 58.796431 28.360386 
L 60.186267 27.16296 
z
" clip-path="url(#p600de5fa65)" style="fill: #f7b497; fill-opacity: 0.75"/>
    <path d="M 77.987587 25.984933 
L 76.649982 27.03637 
L 78.053968 28.264522 
L 79.390566 27.237258 
z
" clip-path="url(#p600de5fa65)" style="fill: #f7b396; fill-opacity: 0.75"/>
    <path d="M 61.568799 25.963265 
L 60.186267 27.16296 
L 61.546792 28.265716 
L 62.929573 27.062579 
z
" clip-path="url(#p600de5fa65)" style="fill: #f7b396; fill-opacity: 0.75"/>
    <path d="M 64.305145 25.862671 
L 62.929573 27.062579 
L 64.297819 28.171233 
L 65.673581 26.972537 
z
" clip-path="url(#p600de5fa65)" style="fill: #f7b093; fill-opacity: 0.75"/>
    <path d="M 75.253101 25.824413 
L 73.907051 26.925046 
L 75.304582 28.117344 
L 76.649982 27.03637 
z
" clip-path="url(#p600de5fa65)" style="fill: #f7b093; fill-opacity: 0.75"/>
    <path d="M 67.042157 25.782522 
L 65.673581 26.972537 
L 67.049481 28.093094 
L 68.418128 26.908938 
z
" clip-path="url(#p600de5fa65)" style="fill: #f7b093; fill-opacity: 0.75"/>
    <path d="M 72.516765 25.747561 
L 71.162822 26.887809 
L 72.553458 28.050201 
L 73.907051 26.925046 
z
" clip-path="url(#p600de5fa65)" style="fill: #f7af91; fill-opacity: 0.75"/>
    <path d="M 69.779537 25.738847 
L 68.418128 26.908938 
L 69.801522 28.04741 
L 71.162822 26.887809 
z
" clip-path="url(#p600de5fa65)" style="fill: #f7af91; fill-opacity: 0.75"/>
    <path d="M 82.127542 27.542886 
L 80.800473 28.50716 
L 82.217302 29.794718 
L 83.542745 28.860357 
z
" clip-path="url(#p600de5fa65)" style="fill: #f5c0a7; fill-opacity: 0.75"/>
    <path d="M 51.958828 27.364719 
L 50.546241 28.483963 
L 51.884163 29.625657 
L 53.296693 28.485635 
z
" clip-path="url(#p600de5fa65)" style="fill: #f6bea4; fill-opacity: 0.75"/>
    <path d="M 54.701295 27.330164 
L 53.296693 28.485635 
L 54.641835 29.610685 
L 56.046539 28.439074 
z
" clip-path="url(#p600de5fa65)" style="fill: #f6bea4; fill-opacity: 0.75"/>
    <path d="M 49.215466 27.345125 
L 47.794308 28.418016 
L 49.12536 29.582258 
L 50.546241 28.483963 
z
" clip-path="url(#p600de5fa65)" style="fill: #f6bea4; fill-opacity: 0.75"/>
    <path d="M 57.443604 27.257537 
L 56.046539 28.439074 
L 57.399165 29.553412 
L 58.796431 28.360386 
z
" clip-path="url(#p600de5fa65)" style="fill: #f6bda2; fill-opacity: 0.75"/>
    <path d="M 79.390566 27.237258 
L 78.053968 28.264522 
L 79.46506 29.50895 
L 80.800473 28.50716 
z
" clip-path="url(#p600de5fa65)" style="fill: #f6bda2; fill-opacity: 0.75"/>
    <path d="M 60.186267 27.16296 
L 58.796431 28.360386 
L 60.156715 29.469971 
L 61.546792 28.265716 
z
" clip-path="url(#p600de5fa65)" style="fill: #f7bca1; fill-opacity: 0.75"/>
    <path d="M 62.929573 27.062579 
L 61.546792 28.265716 
L 62.914818 29.376534 
L 64.297819 28.171233 
z
" clip-path="url(#p600de5fa65)" style="fill: #f7ba9f; fill-opacity: 0.75"/>
    <path d="M 76.649982 27.03637 
L 75.304582 28.117344 
L 76.709369 29.324531 
L 78.053968 28.264522 
z
" clip-path="url(#p600de5fa65)" style="fill: #f7b99e; fill-opacity: 0.75"/>
    <path d="M 65.673581 26.972537 
L 64.297819 28.171233 
L 65.673581 29.289291 
L 67.049481 28.093094 
z
" clip-path="url(#p600de5fa65)" style="fill: #f7b99e; fill-opacity: 0.75"/>
    <path d="M 73.907051 26.925046 
L 72.553458 28.050201 
L 73.951464 29.226099 
L 75.304582 28.117344 
z
" clip-path="url(#p600de5fa65)" style="fill: #f7b89c; fill-opacity: 0.75"/>
    <path d="M 68.418128 26.908938 
L 67.049481 28.093094 
L 68.432882 29.224412 
L 69.801522 28.04741 
z
" clip-path="url(#p600de5fa65)" style="fill: #f7b89c; fill-opacity: 0.75"/>
    <path d="M 71.162822 26.887809 
L 69.801522 28.04741 
L 71.192368 29.198011 
L 72.553458 28.050201 
z
" clip-path="url(#p600de5fa65)" style="fill: #f7b89c; fill-opacity: 0.75"/>
    <path d="M 83.542745 28.860357 
L 82.217302 29.794718 
L 83.641043 31.100012 
L 84.964649 30.196855 
z
" clip-path="url(#p600de5fa65)" style="fill: #f2cab5; fill-opacity: 0.75"/>
    <path d="M 80.800473 28.50716 
L 79.46506 29.50895 
L 80.883259 30.769731 
L 82.217302 29.794718 
z
" clip-path="url(#p600de5fa65)" style="fill: #f4c6af; fill-opacity: 0.75"/>
    <path d="M 53.296693 28.485635 
L 51.884163 29.625657 
L 53.229308 30.770245 
L 54.641835 29.610685 
z
" clip-path="url(#p600de5fa65)" style="fill: #f4c6af; fill-opacity: 0.75"/>
    <path d="M 50.546241 28.483963 
L 49.12536 29.582258 
L 50.463482 30.748124 
L 51.884163 29.625657 
z
" clip-path="url(#p600de5fa65)" style="fill: #f4c5ad; fill-opacity: 0.75"/>
    <path d="M 56.046539 28.439074 
L 54.641835 29.610685 
L 55.994325 30.739912 
L 57.399165 29.553412 
z
" clip-path="url(#p600de5fa65)" style="fill: #f4c5ad; fill-opacity: 0.75"/>
    <path d="M 47.794308 28.418016 
L 46.364412 29.464491 
L 47.695922 30.657526 
L 49.12536 29.582258 
z
" clip-path="url(#p600de5fa65)" style="fill: #f5c4ac; fill-opacity: 0.75"/>
    <path d="M 58.796431 28.360386 
L 57.399165 29.553412 
L 58.759236 30.673225 
L 60.156715 29.469971 
z
" clip-path="url(#p600de5fa65)" style="fill: #f5c4ac; fill-opacity: 0.75"/>
    <path d="M 61.546792 28.265716 
L 60.156715 29.469971 
L 61.524512 30.586346 
L 62.914818 29.376534 
z
" clip-path="url(#p600de5fa65)" style="fill: #f5c2aa; fill-opacity: 0.75"/>
    <path d="M 78.053968 28.264522 
L 76.709369 29.324531 
L 78.121421 30.546686 
L 79.46506 29.50895 
z
" clip-path="url(#p600de5fa65)" style="fill: #f5c2aa; fill-opacity: 0.75"/>
    <path d="M 64.297819 28.171233 
L 62.914818 29.376534 
L 64.290397 30.495474 
L 65.673581 29.289291 
z
" clip-path="url(#p600de5fa65)" style="fill: #f5c1a9; fill-opacity: 0.75"/>
    <path d="M 75.304582 28.117344 
L 73.951464 29.226099 
L 75.356862 30.415578 
L 76.709369 29.324531 
z
" clip-path="url(#p600de5fa65)" style="fill: #f5c1a9; fill-opacity: 0.75"/>
    <path d="M 67.049481 28.093094 
L 65.673581 29.289291 
L 67.056905 30.416816 
L 68.432882 29.224412 
z
" clip-path="url(#p600de5fa65)" style="fill: #f5c0a7; fill-opacity: 0.75"/>
    <path d="M 69.801522 28.04741 
L 68.432882 29.224412 
L 69.823819 30.366557 
L 71.192368 29.198011 
z
" clip-path="url(#p600de5fa65)" style="fill: #f5c0a7; fill-opacity: 0.75"/>
    <path d="M 72.553458 28.050201 
L 71.192368 29.198011 
L 72.590696 30.360811 
L 73.951464 29.226099 
z
" clip-path="url(#p600de5fa65)" style="fill: #f5c0a7; fill-opacity: 0.75"/>
    <path d="M 84.964649 30.196855 
L 83.641043 31.100012 
L 85.071687 32.423119 
L 86.393236 31.552458 
z
" clip-path="url(#p600de5fa65)" style="fill: #edd1c2; fill-opacity: 0.75"/>
    <path d="M 82.217302 29.794718 
L 80.883259 30.769731 
L 82.308566 32.046946 
L 83.641043 31.100012 
z
" clip-path="url(#p600de5fa65)" style="fill: #f0cdbb; fill-opacity: 0.75"/>
    <path d="M 51.884163 29.625657 
L 50.463482 30.748124 
L 51.808757 31.91565 
L 53.229308 30.770245 
z
" clip-path="url(#p600de5fa65)" style="fill: #f1ccb8; fill-opacity: 0.75"/>
    <path d="M 54.641835 29.610685 
L 53.229308 30.770245 
L 54.581752 31.917765 
L 55.994325 30.739912 
z
" clip-path="url(#p600de5fa65)" style="fill: #f1ccb8; fill-opacity: 0.75"/>
    <path d="M 57.399165 29.553412 
L 55.994325 30.739912 
L 57.354235 31.873359 
L 58.759236 30.673225 
z
" clip-path="url(#p600de5fa65)" style="fill: #f2cbb7; fill-opacity: 0.75"/>
    <path d="M 49.12536 29.582258 
L 47.695922 30.657526 
L 49.03441 31.850959 
L 50.463482 30.748124 
z
" clip-path="url(#p600de5fa65)" style="fill: #f2cbb7; fill-opacity: 0.75"/>
    <path d="M 79.46506 29.50895 
L 78.121421 30.546686 
L 79.540751 31.783887 
L 80.883259 30.769731 
z
" clip-path="url(#p600de5fa65)" style="fill: #f2cbb7; fill-opacity: 0.75"/>
    <path d="M 60.156715 29.469971 
L 58.759236 30.673225 
L 60.126818 31.798562 
L 61.524512 30.586346 
z
" clip-path="url(#p600de5fa65)" style="fill: #f2cbb7; fill-opacity: 0.75"/>
    <path d="M 46.364412 29.464491 
L 44.925474 30.482511 
L 46.257645 31.707726 
L 47.695922 30.657526 
z
" clip-path="url(#p600de5fa65)" style="fill: #f2cab5; fill-opacity: 0.75"/>
    <path d="M 62.914818 29.376534 
L 61.524512 30.586346 
L 62.899883 31.709565 
L 64.290397 30.495474 
z
" clip-path="url(#p600de5fa65)" style="fill: #f2cab5; fill-opacity: 0.75"/>
    <path d="M 76.709369 29.324531 
L 75.356862 30.415578 
L 76.76967 31.618715 
L 78.121421 30.546686 
z
" clip-path="url(#p600de5fa65)" style="fill: #f2c9b4; fill-opacity: 0.75"/>
    <path d="M 65.673581 29.289291 
L 64.290397 30.495474 
L 65.673581 31.622592 
L 67.056905 30.416816 
z
" clip-path="url(#p600de5fa65)" style="fill: #f2c9b4; fill-opacity: 0.75"/>
    <path d="M 68.432882 29.224412 
L 67.056905 30.416816 
L 68.447834 31.553872 
L 69.823819 30.366557 
z
" clip-path="url(#p600de5fa65)" style="fill: #f3c8b2; fill-opacity: 0.75"/>
    <path d="M 73.951464 29.226099 
L 72.590696 30.360811 
L 73.996532 31.535884 
L 75.356862 30.415578 
z
" clip-path="url(#p600de5fa65)" style="fill: #f3c8b2; fill-opacity: 0.75"/>
    <path d="M 71.192368 29.198011 
L 69.823819 30.366557 
L 71.222331 31.519597 
L 72.590696 30.360811 
z
" clip-path="url(#p600de5fa65)" style="fill: #f3c8b2; fill-opacity: 0.75"/>
    <path d="M 86.393236 31.552458 
L 85.071687 32.423119 
L 86.509225 33.764115 
L 87.828486 32.927241 
z
" clip-path="url(#p600de5fa65)" style="fill: #e6d7cf; fill-opacity: 0.75"/>
    <path d="M 83.641043 31.100012 
L 82.308566 32.046946 
L 83.740981 33.34067 
L 85.071687 32.423119 
z
" clip-path="url(#p600de5fa65)" style="fill: #ead4c8; fill-opacity: 0.75"/>
    <path d="M 53.229308 30.770245 
L 51.808757 31.91565 
L 53.161266 33.084868 
L 54.581752 31.917765 
z
" clip-path="url(#p600de5fa65)" style="fill: #edd2c3; fill-opacity: 0.75"/>
    <path d="M 80.883259 30.769731 
L 79.540751 31.783887 
L 80.967368 33.03621 
L 82.308566 32.046946 
z
" clip-path="url(#p600de5fa65)" style="fill: #edd2c3; fill-opacity: 0.75"/>
    <path d="M 55.994325 30.739912 
L 54.581752 31.917765 
L 55.941572 33.068257 
L 57.354235 31.873359 
z
" clip-path="url(#p600de5fa65)" style="fill: #edd2c3; fill-opacity: 0.75"/>
    <path d="M 50.463482 30.748124 
L 49.03441 31.850959 
L 50.379963 33.044819 
L 51.808757 31.91565 
z
" clip-path="url(#p600de5fa65)" style="fill: #edd1c2; fill-opacity: 0.75"/>
    <path d="M 58.759236 30.673225 
L 57.354235 31.873359 
L 58.721635 33.01107 
L 60.126818 31.798562 
z
" clip-path="url(#p600de5fa65)" style="fill: #edd1c2; fill-opacity: 0.75"/>
    <path d="M 47.695922 30.657526 
L 46.257645 31.707726 
L 47.596686 32.932113 
L 49.03441 31.850959 
z
" clip-path="url(#p600de5fa65)" style="fill: #eed0c0; fill-opacity: 0.75"/>
    <path d="M 61.524512 30.586346 
L 60.126818 31.798562 
L 61.501976 32.929471 
L 62.899883 31.709565 
z
" clip-path="url(#p600de5fa65)" style="fill: #eed0c0; fill-opacity: 0.75"/>
    <path d="M 78.121421 30.546686 
L 76.76967 31.618715 
L 78.189908 32.835584 
L 79.540751 31.783887 
z
" clip-path="url(#p600de5fa65)" style="fill: #efcfbf; fill-opacity: 0.75"/>
    <path d="M 64.290397 30.495474 
L 62.899883 31.709565 
L 64.282886 32.839681 
L 65.673581 31.622592 
z
" clip-path="url(#p600de5fa65)" style="fill: #efcfbf; fill-opacity: 0.75"/>
    <path d="M 44.925474 30.482511 
L 43.47717 31.470077 
L 44.810228 32.730853 
L 46.257645 31.707726 
z
" clip-path="url(#p600de5fa65)" style="fill: #efcebd; fill-opacity: 0.75"/>
    <path d="M 67.056905 30.416816 
L 65.673581 31.622592 
L 67.064423 32.757949 
L 68.447834 31.553872 
z
" clip-path="url(#p600de5fa65)" style="fill: #efcebd; fill-opacity: 0.75"/>
    <path d="M 75.356862 30.415578 
L 73.996532 31.535884 
L 75.409907 32.723302 
L 76.76967 31.618715 
z
" clip-path="url(#p600de5fa65)" style="fill: #efcebd; fill-opacity: 0.75"/>
    <path d="M 69.823819 30.366557 
L 68.447834 31.553872 
L 69.846414 32.700523 
L 71.222331 31.519597 
z
" clip-path="url(#p600de5fa65)" style="fill: #f0cdbb; fill-opacity: 0.75"/>
    <path d="M 72.590696 30.360811 
L 71.222331 31.519597 
L 72.628455 32.683603 
L 73.996532 31.535884 
z
" clip-path="url(#p600de5fa65)" style="fill: #f0cdbb; fill-opacity: 0.75"/>
    <path d="M 87.828486 32.927241 
L 86.509225 33.764115 
L 87.953646 35.123077 
L 89.270378 34.321278 
z
" clip-path="url(#p600de5fa65)" style="fill: #dddcdc; fill-opacity: 0.75"/>
    <path d="M 85.071687 32.423119 
L 83.740981 33.34067 
L 85.180504 34.650983 
L 86.509225 33.764115 
z
" clip-path="url(#p600de5fa65)" style="fill: #e2dad5; fill-opacity: 0.75"/>
    <path d="M 82.308566 32.046946 
L 80.967368 33.03621 
L 82.401282 34.303732 
L 83.740981 33.34067 
z
" clip-path="url(#p600de5fa65)" style="fill: #e6d7cf; fill-opacity: 0.75"/>
    <path d="M 54.581752 31.917765 
L 53.161266 33.084868 
L 54.521092 34.255815 
L 55.941572 33.068257 
z
" clip-path="url(#p600de5fa65)" style="fill: #e8d6cc; fill-opacity: 0.75"/>
    <path d="M 51.808757 31.91565 
L 50.379963 33.044819 
L 51.732671 34.239138 
L 53.161266 33.084868 
z
" clip-path="url(#p600de5fa65)" style="fill: #e8d6cc; fill-opacity: 0.75"/>
    <path d="M 57.354235 31.873359 
L 55.941572 33.068257 
L 57.308848 34.221759 
L 58.721635 33.01107 
z
" clip-path="url(#p600de5fa65)" style="fill: #e8d6cc; fill-opacity: 0.75"/>
    <path d="M 49.03441 31.850959 
L 47.596686 32.932113 
L 48.942691 34.155701 
L 50.379963 33.044819 
z
" clip-path="url(#p600de5fa65)" style="fill: #e9d5cb; fill-opacity: 0.75"/>
    <path d="M 60.126818 31.798562 
L 58.721635 33.01107 
L 60.096599 34.153089 
L 61.501976 32.929471 
z
" clip-path="url(#p600de5fa65)" style="fill: #e9d5cb; fill-opacity: 0.75"/>
    <path d="M 79.540751 31.783887 
L 78.189908 32.835584 
L 79.617596 34.066261 
L 80.967368 33.03621 
z
" clip-path="url(#p600de5fa65)" style="fill: #e9d5cb; fill-opacity: 0.75"/>
    <path d="M 62.899883 31.709565 
L 61.501976 32.929471 
L 62.884777 34.066002 
L 64.282886 32.839681 
z
" clip-path="url(#p600de5fa65)" style="fill: #ead5c9; fill-opacity: 0.75"/>
    <path d="M 46.257645 31.707726 
L 44.810228 32.730853 
L 46.150034 33.989579 
L 47.596686 32.932113 
z
" clip-path="url(#p600de5fa65)" style="fill: #ead5c9; fill-opacity: 0.75"/>
    <path d="M 65.673581 31.622592 
L 64.282886 32.839681 
L 65.673581 33.976749 
L 67.064423 32.757949 
z
" clip-path="url(#p600de5fa65)" style="fill: #ead4c8; fill-opacity: 0.75"/>
    <path d="M 76.76967 31.618715 
L 75.409907 32.723302 
L 76.830848 33.923137 
L 78.189908 32.835584 
z
" clip-path="url(#p600de5fa65)" style="fill: #ead4c8; fill-opacity: 0.75"/>
    <path d="M 68.447834 31.553872 
L 67.064423 32.757949 
L 68.462975 33.901605 
L 69.846414 32.700523 
z
" clip-path="url(#p600de5fa65)" style="fill: #ebd3c6; fill-opacity: 0.75"/>
    <path d="M 73.996532 31.535884 
L 72.628455 32.683603 
L 74.042226 33.858643 
L 75.409907 32.723302 
z
" clip-path="url(#p600de5fa65)" style="fill: #ebd3c6; fill-opacity: 0.75"/>
    <path d="M 71.222331 31.519597 
L 69.846414 32.700523 
L 71.252691 33.856833 
L 72.628455 32.683603 
z
" clip-path="url(#p600de5fa65)" style="fill: #ebd3c6; fill-opacity: 0.75"/>
    <path d="M 43.47717 31.470077 
L 42.01916 32.425239 
L 43.353354 33.724951 
L 44.810228 32.730853 
z
" clip-path="url(#p600de5fa65)" style="fill: #ecd3c5; fill-opacity: 0.75"/>
    <path d="M 89.270378 34.321278 
L 87.953646 35.123077 
L 89.404938 36.500081 
L 90.71889 35.734642 
z
" clip-path="url(#p600de5fa65)" style="fill: #d4dbe6; fill-opacity: 0.75"/>
    <path d="M 86.509225 33.764115 
L 85.180504 34.650983 
L 86.627135 35.97796 
L 87.953646 35.123077 
z
" clip-path="url(#p600de5fa65)" style="fill: #dadce0; fill-opacity: 0.75"/>
    <path d="M 83.740981 33.34067 
L 82.401282 34.303732 
L 83.842502 35.586532 
L 85.180504 34.650983 
z
" clip-path="url(#p600de5fa65)" style="fill: #dedcdb; fill-opacity: 0.75"/>
    <path d="M 53.161266 33.084868 
L 51.732671 34.239138 
L 53.092621 35.433947 
L 54.521092 34.255815 
z
" clip-path="url(#p600de5fa65)" style="fill: #e1dad6; fill-opacity: 0.75"/>
    <path d="M 55.941572 33.068257 
L 54.521092 34.255815 
L 55.888322 35.428525 
L 57.308848 34.221759 
z
" clip-path="url(#p600de5fa65)" style="fill: #e1dad6; fill-opacity: 0.75"/>
    <path d="M 50.379963 33.044819 
L 48.942691 34.155701 
L 50.295753 35.378517 
L 51.732671 34.239138 
z
" clip-path="url(#p600de5fa65)" style="fill: #e1dad6; fill-opacity: 0.75"/>
    <path d="M 58.721635 33.01107 
L 57.308848 34.221759 
L 58.683657 35.378311 
L 60.096599 34.153089 
z
" clip-path="url(#p600de5fa65)" style="fill: #e2dad5; fill-opacity: 0.75"/>
    <path d="M 80.967368 33.03621 
L 79.617596 34.066261 
L 81.052752 35.310821 
L 82.401282 34.303732 
z
" clip-path="url(#p600de5fa65)" style="fill: #e2dad5; fill-opacity: 0.75"/>
    <path d="M 61.501976 32.929471 
L 60.096599 34.153089 
L 61.4792 35.299461 
L 62.884777 34.066002 
z
" clip-path="url(#p600de5fa65)" style="fill: #e2dad5; fill-opacity: 0.75"/>
    <path d="M 47.596686 32.932113 
L 46.150034 33.989579 
L 47.496685 35.246279 
L 48.942691 34.155701 
z
" clip-path="url(#p600de5fa65)" style="fill: #e3d9d3; fill-opacity: 0.75"/>
    <path d="M 64.282886 32.839681 
L 62.884777 34.066002 
L 64.27529 35.208205 
L 65.673581 33.976749 
z
" clip-path="url(#p600de5fa65)" style="fill: #e3d9d3; fill-opacity: 0.75"/>
    <path d="M 78.189908 32.835584 
L 76.830848 33.923137 
L 78.259385 35.135464 
L 79.617596 34.066261 
z
" clip-path="url(#p600de5fa65)" style="fill: #e4d9d2; fill-opacity: 0.75"/>
    <path d="M 67.064423 32.757949 
L 65.673581 33.976749 
L 67.07203 35.120825 
L 68.462975 33.901605 
z
" clip-path="url(#p600de5fa65)" style="fill: #e4d9d2; fill-opacity: 0.75"/>
    <path d="M 75.409907 32.723302 
L 74.042226 33.858643 
L 75.463684 35.044786 
L 76.830848 33.923137 
z
" clip-path="url(#p600de5fa65)" style="fill: #e5d8d1; fill-opacity: 0.75"/>
    <path d="M 69.846414 32.700523 
L 68.462975 33.901605 
L 69.869292 35.05362 
L 71.252691 33.856833 
z
" clip-path="url(#p600de5fa65)" style="fill: #e5d8d1; fill-opacity: 0.75"/>
    <path d="M 44.810228 32.730853 
L 43.353354 33.724951 
L 44.694157 35.021389 
L 46.150034 33.989579 
z
" clip-path="url(#p600de5fa65)" style="fill: #e5d8d1; fill-opacity: 0.75"/>
    <path d="M 72.628455 32.683603 
L 71.252691 33.856833 
L 72.666709 35.022869 
L 74.042226 33.858643 
z
" clip-path="url(#p600de5fa65)" style="fill: #e5d8d1; fill-opacity: 0.75"/>
    <path d="M 42.01916 32.425239 
L 40.551082 33.346098 
L 41.886685 34.688111 
L 43.353354 33.724951 
z
" clip-path="url(#p600de5fa65)" style="fill: #e9d5cb; fill-opacity: 0.75"/>
    <path d="M 90.71889 35.734642 
L 89.404938 36.500081 
L 90.863089 37.8952 
L 92.174001 37.167405 
z
" clip-path="url(#p600de5fa65)" style="fill: #c9d7f0; fill-opacity: 0.75"/>
    <path d="M 87.953646 35.123077 
L 86.627135 35.97796 
L 88.080871 37.321679 
L 89.404938 36.500081 
z
" clip-path="url(#p600de5fa65)" style="fill: #d1dae9; fill-opacity: 0.75"/>
    <path d="M 85.180504 34.650983 
L 83.842502 35.586532 
L 85.291038 36.884686 
L 86.627135 35.97796 
z
" clip-path="url(#p600de5fa65)" style="fill: #d6dce4; fill-opacity: 0.75"/>
    <path d="M 82.401282 34.303732 
L 81.052752 35.310821 
L 82.495396 36.569341 
L 83.842502 35.586532 
z
" clip-path="url(#p600de5fa65)" style="fill: #dadce0; fill-opacity: 0.75"/>
    <path d="M 54.521092 34.255815 
L 53.092621 35.433947 
L 54.459906 36.629278 
L 55.888322 35.428525 
z
" clip-path="url(#p600de5fa65)" style="fill: #dadce0; fill-opacity: 0.75"/>
    <path d="M 51.732671 34.239138 
L 50.295753 35.378517 
L 51.655968 36.60059 
L 53.092621 35.433947 
z
" clip-path="url(#p600de5fa65)" style="fill: #dadce0; fill-opacity: 0.75"/>
    <path d="M 57.308848 34.221759 
L 55.888322 35.428525 
L 57.26304 36.603034 
L 58.683657 35.378311 
z
" clip-path="url(#p600de5fa65)" style="fill: #dadce0; fill-opacity: 0.75"/>
    <path d="M 60.096599 34.153089 
L 58.683657 35.378311 
L 60.066082 36.537954 
L 61.4792 35.299461 
z
" clip-path="url(#p600de5fa65)" style="fill: #dbdcde; fill-opacity: 0.75"/>
    <path d="M 48.942691 34.155701 
L 47.496685 35.246279 
L 48.850281 36.50098 
L 50.295753 35.378517 
z
" clip-path="url(#p600de5fa65)" style="fill: #dbdcde; fill-opacity: 0.75"/>
    <path d="M 62.884777 34.066002 
L 61.4792 35.299461 
L 62.869514 36.450231 
L 64.27529 35.208205 
z
" clip-path="url(#p600de5fa65)" style="fill: #dcdddd; fill-opacity: 0.75"/>
    <path d="M 79.617596 34.066261 
L 78.259385 35.135464 
L 79.695545 36.360355 
L 81.052752 35.310821 
z
" clip-path="url(#p600de5fa65)" style="fill: #dddcdc; fill-opacity: 0.75"/>
    <path d="M 65.673581 33.976749 
L 64.27529 35.208205 
L 65.673581 36.35613 
L 67.07203 35.120825 
z
" clip-path="url(#p600de5fa65)" style="fill: #dddcdc; fill-opacity: 0.75"/>
    <path d="M 46.150034 33.989579 
L 44.694157 35.021389 
L 46.041672 36.314577 
L 47.496685 35.246279 
z
" clip-path="url(#p600de5fa65)" style="fill: #dddcdc; fill-opacity: 0.75"/>
    <path d="M 68.462975 33.901605 
L 67.07203 35.120825 
L 68.478294 36.271963 
L 69.869292 35.05362 
z
" clip-path="url(#p600de5fa65)" style="fill: #dedcdb; fill-opacity: 0.75"/>
    <path d="M 76.830848 33.923137 
L 75.463684 35.044786 
L 76.892865 36.242101 
L 78.259385 35.135464 
z
" clip-path="url(#p600de5fa65)" style="fill: #dedcdb; fill-opacity: 0.75"/>
    <path d="M 71.252691 33.856833 
L 69.869292 35.05362 
L 71.283426 36.214054 
L 72.666709 35.022869 
z
" clip-path="url(#p600de5fa65)" style="fill: #dfdbd9; fill-opacity: 0.75"/>
    <path d="M 74.042226 33.858643 
L 72.666709 35.022869 
L 74.088516 36.198695 
L 75.463684 35.044786 
z
" clip-path="url(#p600de5fa65)" style="fill: #dfdbd9; fill-opacity: 0.75"/>
    <path d="M 43.353354 33.724951 
L 41.886685 34.688111 
L 43.228742 36.025625 
L 44.694157 35.021389 
z
" clip-path="url(#p600de5fa65)" style="fill: #e1dad6; fill-opacity: 0.75"/>
    <path d="M 40.551082 33.346098 
L 39.07256 34.230811 
L 40.409867 35.61848 
L 41.886685 34.688111 
z
" clip-path="url(#p600de5fa65)" style="fill: #e5d8d1; fill-opacity: 0.75"/>
    <path d="M 89.404938 36.500081 
L 88.080871 37.321679 
L 89.541711 38.682215 
L 90.863089 37.8952 
z
" clip-path="url(#p600de5fa65)" style="fill: #c6d6f1; fill-opacity: 0.75"/>
    <path d="M 86.627135 35.97796 
L 85.291038 36.884686 
L 86.746897 38.198269 
L 88.080871 37.321679 
z
" clip-path="url(#p600de5fa65)" style="fill: #cdd9ec; fill-opacity: 0.75"/>
    <path d="M 83.842502 35.586532 
L 82.495396 36.569341 
L 83.945547 37.841896 
L 85.291038 36.884686 
z
" clip-path="url(#p600de5fa65)" style="fill: #d2dbe8; fill-opacity: 0.75"/>
    <path d="M 55.888322 35.428525 
L 54.459906 36.629278 
L 55.834618 37.825163 
L 57.26304 36.603034 
z
" clip-path="url(#p600de5fa65)" style="fill: #d3dbe7; fill-opacity: 0.75"/>
    <path d="M 53.092621 35.433947 
L 51.655968 36.60059 
L 53.023432 37.821948 
L 54.459906 36.629278 
z
" clip-path="url(#p600de5fa65)" style="fill: #d3dbe7; fill-opacity: 0.75"/>
    <path d="M 58.683657 35.378311 
L 57.26304 36.603034 
L 58.645334 37.779379 
L 60.066082 36.537954 
z
" clip-path="url(#p600de5fa65)" style="fill: #d4dbe6; fill-opacity: 0.75"/>
    <path d="M 50.295753 35.378517 
L 48.850281 36.50098 
L 50.210923 37.753709 
L 51.655968 36.60059 
z
" clip-path="url(#p600de5fa65)" style="fill: #d4dbe6; fill-opacity: 0.75"/>
    <path d="M 61.4792 35.299461 
L 60.066082 36.537954 
L 61.456204 37.700729 
L 62.869514 36.450231 
z
" clip-path="url(#p600de5fa65)" style="fill: #d5dbe5; fill-opacity: 0.75"/>
    <path d="M 81.052752 35.310821 
L 79.695545 36.360355 
L 81.139356 37.597883 
L 82.495396 36.569341 
z
" clip-path="url(#p600de5fa65)" style="fill: #d5dbe5; fill-opacity: 0.75"/>
    <path d="M 47.496685 35.246279 
L 46.041672 36.314577 
L 47.396004 37.604541 
L 48.850281 36.50098 
z
" clip-path="url(#p600de5fa65)" style="fill: #d6dce4; fill-opacity: 0.75"/>
    <path d="M 64.27529 35.208205 
L 62.869514 36.450231 
L 64.267615 37.605446 
L 65.673581 36.35613 
z
" clip-path="url(#p600de5fa65)" style="fill: #d6dce4; fill-opacity: 0.75"/>
    <path d="M 67.07203 35.120825 
L 65.673581 36.35613 
L 67.079721 37.509829 
L 68.478294 36.271963 
z
" clip-path="url(#p600de5fa65)" style="fill: #d7dce3; fill-opacity: 0.75"/>
    <path d="M 78.259385 35.135464 
L 76.892865 36.242101 
L 78.329807 37.450661 
L 79.695545 36.360355 
z
" clip-path="url(#p600de5fa65)" style="fill: #d7dce3; fill-opacity: 0.75"/>
    <path d="M 69.869292 35.05362 
L 68.478294 36.271963 
L 69.892435 37.430221 
L 71.283426 36.214054 
z
" clip-path="url(#p600de5fa65)" style="fill: #d8dce2; fill-opacity: 0.75"/>
    <path d="M 75.463684 35.044786 
L 74.088516 36.198695 
L 75.518156 37.384378 
L 76.892865 36.242101 
z
" clip-path="url(#p600de5fa65)" style="fill: #d8dce2; fill-opacity: 0.75"/>
    <path d="M 72.666709 35.022869 
L 71.283426 36.214054 
L 72.705433 37.382969 
L 74.088516 36.198695 
z
" clip-path="url(#p600de5fa65)" style="fill: #d8dce2; fill-opacity: 0.75"/>
    <path d="M 44.694157 35.021389 
L 43.228742 36.025625 
L 44.577362 37.358664 
L 46.041672 36.314577 
z
" clip-path="url(#p600de5fa65)" style="fill: #d8dce2; fill-opacity: 0.75"/>
    <path d="M 41.886685 34.688111 
L 40.409867 35.61848 
L 41.753458 37.000421 
L 43.228742 36.025625 
z
" clip-path="url(#p600de5fa65)" style="fill: #dcdddd; fill-opacity: 0.75"/>
    <path d="M 88.080871 37.321679 
L 86.746897 38.198269 
L 88.210088 39.52736 
L 89.541711 38.682215 
z
" clip-path="url(#p600de5fa65)" style="fill: #c4d5f3; fill-opacity: 0.75"/>
    <path d="M 85.291038 36.884686 
L 83.945547 37.841896 
L 85.403222 39.128562 
L 86.746897 38.198269 
z
" clip-path="url(#p600de5fa65)" style="fill: #c9d7f0; fill-opacity: 0.75"/>
    <path d="M 54.459906 36.629278 
L 53.023432 37.821948 
L 54.398245 39.042622 
L 55.834618 37.825163 
z
" clip-path="url(#p600de5fa65)" style="fill: #cbd8ee; fill-opacity: 0.75"/>
    <path d="M 57.26304 36.603034 
L 55.834618 37.825163 
L 57.216849 39.021636 
L 58.645334 37.779379 
z
" clip-path="url(#p600de5fa65)" style="fill: #ccd9ed; fill-opacity: 0.75"/>
    <path d="M 51.655968 36.60059 
L 50.210923 37.753709 
L 51.578715 39.004491 
L 53.023432 37.821948 
z
" clip-path="url(#p600de5fa65)" style="fill: #ccd9ed; fill-opacity: 0.75"/>
    <path d="M 60.066082 36.537954 
L 58.645334 37.779379 
L 60.035292 38.957596 
L 61.456204 37.700729 
z
" clip-path="url(#p600de5fa65)" style="fill: #ccd9ed; fill-opacity: 0.75"/>
    <path d="M 82.495396 36.569341 
L 81.139356 37.597883 
L 82.590848 38.848122 
L 83.945547 37.841896 
z
" clip-path="url(#p600de5fa65)" style="fill: #cdd9ec; fill-opacity: 0.75"/>
    <path d="M 48.850281 36.50098 
L 47.396004 37.604541 
L 48.757261 38.891304 
L 50.210923 37.753709 
z
" clip-path="url(#p600de5fa65)" style="fill: #cdd9ec; fill-opacity: 0.75"/>
    <path d="M 62.869514 36.450231 
L 61.456204 37.700729 
L 62.854104 38.866677 
L 64.267615 37.605446 
z
" clip-path="url(#p600de5fa65)" style="fill: #cdd9ec; fill-opacity: 0.75"/>
    <path d="M 65.673581 36.35613 
L 64.267615 37.605446 
L 65.673581 38.765151 
L 67.079721 37.509829 
z
" clip-path="url(#p600de5fa65)" style="fill: #cedaeb; fill-opacity: 0.75"/>
    <path d="M 79.695545 36.360355 
L 78.329807 37.450661 
L 79.774547 38.670534 
L 81.139356 37.597883 
z
" clip-path="url(#p600de5fa65)" style="fill: #cfdaea; fill-opacity: 0.75"/>
    <path d="M 46.041672 36.314577 
L 44.577362 37.358664 
L 45.932656 38.687253 
L 47.396004 37.604541 
z
" clip-path="url(#p600de5fa65)" style="fill: #cfdaea; fill-opacity: 0.75"/>
    <path d="M 68.478294 36.271963 
L 67.079721 37.509829 
L 68.493779 38.669353 
L 69.892435 37.430221 
z
" clip-path="url(#p600de5fa65)" style="fill: #d1dae9; fill-opacity: 0.75"/>
    <path d="M 76.892865 36.242101 
L 75.518156 37.384378 
L 76.955677 38.579984 
L 78.329807 37.450661 
z
" clip-path="url(#p600de5fa65)" style="fill: #d1dae9; fill-opacity: 0.75"/>
    <path d="M 71.283426 36.214054 
L 69.892435 37.430221 
L 71.314515 38.595656 
L 72.705433 37.382969 
z
" clip-path="url(#p600de5fa65)" style="fill: #d1dae9; fill-opacity: 0.75"/>
    <path d="M 74.088516 36.198695 
L 72.705433 37.382969 
L 74.135367 38.560428 
L 75.518156 37.384378 
z
" clip-path="url(#p600de5fa65)" style="fill: #d2dbe8; fill-opacity: 0.75"/>
    <path d="M 43.228742 36.025625 
L 41.753458 37.000421 
L 43.103448 38.376659 
L 44.577362 37.358664 
z
" clip-path="url(#p600de5fa65)" style="fill: #d4dbe6; fill-opacity: 0.75"/>
    <path d="M 86.746897 38.198269 
L 85.403222 39.128562 
L 86.86844 40.429413 
L 88.210088 39.52736 
z
" clip-path="url(#p600de5fa65)" style="fill: #bfd3f6; fill-opacity: 0.75"/>
    <path d="M 55.834618 37.825163 
L 54.398245 39.042622 
L 55.780505 40.262639 
L 57.216849 39.021636 
z
" clip-path="url(#p600de5fa65)" style="fill: #c4d5f3; fill-opacity: 0.75"/>
    <path d="M 53.023432 37.821948 
L 51.578715 39.004491 
L 52.953759 40.253353 
L 54.398245 39.042622 
z
" clip-path="url(#p600de5fa65)" style="fill: #c4d5f3; fill-opacity: 0.75"/>
    <path d="M 58.645334 37.779379 
L 57.216849 39.021636 
L 58.606696 40.218728 
L 60.035292 38.957596 
z
" clip-path="url(#p600de5fa65)" style="fill: #c4d5f3; fill-opacity: 0.75"/>
    <path d="M 83.945547 37.841896 
L 82.590848 38.848122 
L 84.050049 40.111147 
L 85.403222 39.128562 
z
" clip-path="url(#p600de5fa65)" style="fill: #c4d5f3; fill-opacity: 0.75"/>
    <path d="M 50.210923 37.753709 
L 48.757261 38.891304 
L 50.125549 40.174891 
L 51.578715 39.004491 
z
" clip-path="url(#p600de5fa65)" style="fill: #c5d6f2; fill-opacity: 0.75"/>
    <path d="M 61.456204 37.700729 
L 60.035292 38.957596 
L 61.433004 40.137722 
L 62.854104 38.866677 
z
" clip-path="url(#p600de5fa65)" style="fill: #c5d6f2; fill-opacity: 0.75"/>
    <path d="M 64.267615 37.605446 
L 62.854104 38.866677 
L 64.259869 40.03584 
L 65.673581 38.765151 
z
" clip-path="url(#p600de5fa65)" style="fill: #c6d6f1; fill-opacity: 0.75"/>
    <path d="M 47.396004 37.604541 
L 45.932656 38.687253 
L 47.294735 40.011415 
L 48.757261 38.891304 
z
" clip-path="url(#p600de5fa65)" style="fill: #c6d6f1; fill-opacity: 0.75"/>
    <path d="M 81.139356 37.597883 
L 79.774547 38.670534 
L 81.227124 39.901792 
L 82.590848 38.848122 
z
" clip-path="url(#p600de5fa65)" style="fill: #c7d7f0; fill-opacity: 0.75"/>
    <path d="M 67.079721 37.509829 
L 65.673581 38.765151 
L 67.087489 39.929393 
L 68.493779 38.669353 
z
" clip-path="url(#p600de5fa65)" style="fill: #c7d7f0; fill-opacity: 0.75"/>
    <path d="M 69.892435 37.430221 
L 68.493779 38.669353 
L 69.915825 39.834754 
L 71.314515 38.595656 
z
" clip-path="url(#p600de5fa65)" style="fill: #c9d7f0; fill-opacity: 0.75"/>
    <path d="M 78.329807 37.450661 
L 76.955677 38.579984 
L 78.401126 39.78558 
L 79.774547 38.670534 
z
" clip-path="url(#p600de5fa65)" style="fill: #c9d7f0; fill-opacity: 0.75"/>
    <path d="M 72.705433 37.382969 
L 71.314515 38.595656 
L 72.744598 39.768324 
L 74.135367 38.560428 
z
" clip-path="url(#p600de5fa65)" style="fill: #cad8ef; fill-opacity: 0.75"/>
    <path d="M 75.518156 37.384378 
L 74.135367 38.560428 
L 75.573284 39.746492 
L 76.955677 38.579984 
z
" clip-path="url(#p600de5fa65)" style="fill: #cad8ef; fill-opacity: 0.75"/>
    <path d="M 44.577362 37.358664 
L 43.103448 38.376659 
L 44.459951 39.74722 
L 45.932656 38.687253 
z
" clip-path="url(#p600de5fa65)" style="fill: #cad8ef; fill-opacity: 0.75"/>
    <path d="M 54.398245 39.042622 
L 52.953759 40.253353 
L 54.336162 41.500321 
L 55.780505 40.262639 
z
" clip-path="url(#p600de5fa65)" style="fill: #bbd1f8; fill-opacity: 0.75"/>
    <path d="M 85.403222 39.128562 
L 84.050049 40.111147 
L 85.516986 41.38703 
L 86.86844 40.429413 
z
" clip-path="url(#p600de5fa65)" style="fill: #bbd1f8; fill-opacity: 0.75"/>
    <path d="M 57.216849 39.021636 
L 55.780505 40.262639 
L 57.170315 41.48203 
L 58.606696 40.218728 
z
" clip-path="url(#p600de5fa65)" style="fill: #bbd1f8; fill-opacity: 0.75"/>
    <path d="M 51.578715 39.004491 
L 50.125549 40.174891 
L 51.500979 41.455328 
L 52.953759 40.253353 
z
" clip-path="url(#p600de5fa65)" style="fill: #bbd1f8; fill-opacity: 0.75"/>
    <path d="M 60.035292 38.957596 
L 58.606696 40.218728 
L 60.004254 41.416472 
L 61.433004 40.137722 
z
" clip-path="url(#p600de5fa65)" style="fill: #bcd2f7; fill-opacity: 0.75"/>
    <path d="M 48.757261 38.891304 
L 47.294735 40.011415 
L 48.663714 41.331174 
L 50.125549 40.174891 
z
" clip-path="url(#p600de5fa65)" style="fill: #bcd2f7; fill-opacity: 0.75"/>
    <path d="M 62.854104 38.866677 
L 61.433004 40.137722 
L 62.838561 41.319796 
L 64.259869 40.03584 
z
" clip-path="url(#p600de5fa65)" style="fill: #bed2f6; fill-opacity: 0.75"/>
    <path d="M 82.590848 38.848122 
L 81.227124 39.901792 
L 82.687576 41.144506 
L 84.050049 40.111147 
z
" clip-path="url(#p600de5fa65)" style="fill: #bfd3f6; fill-opacity: 0.75"/>
    <path d="M 65.673581 38.765151 
L 64.259869 40.03584 
L 65.673581 41.208261 
L 67.087489 39.929393 
z
" clip-path="url(#p600de5fa65)" style="fill: #bfd3f6; fill-opacity: 0.75"/>
    <path d="M 45.932656 38.687253 
L 44.459951 39.74722 
L 45.823086 41.112127 
L 47.294735 40.011415 
z
" clip-path="url(#p600de5fa65)" style="fill: #c0d4f5; fill-opacity: 0.75"/>
    <path d="M 68.493779 38.669353 
L 67.087489 39.929393 
L 68.509417 41.098221 
L 69.915825 39.834754 
z
" clip-path="url(#p600de5fa65)" style="fill: #c0d4f5; fill-opacity: 0.75"/>
    <path d="M 79.774547 38.670534 
L 78.401126 39.78558 
L 79.854549 41.001234 
L 81.227124 39.901792 
z
" clip-path="url(#p600de5fa65)" style="fill: #c0d4f5; fill-opacity: 0.75"/>
    <path d="M 71.314515 38.595656 
L 69.915825 39.834754 
L 71.345933 41.006086 
L 72.744598 39.768324 
z
" clip-path="url(#p600de5fa65)" style="fill: #c1d4f4; fill-opacity: 0.75"/>
    <path d="M 76.955677 38.579984 
L 75.573284 39.746492 
L 77.01924 40.941225 
L 78.401126 39.78558 
z
" clip-path="url(#p600de5fa65)" style="fill: #c1d4f4; fill-opacity: 0.75"/>
    <path d="M 74.135367 38.560428 
L 72.744598 39.768324 
L 74.182747 40.948285 
L 75.573284 39.746492 
z
" clip-path="url(#p600de5fa65)" style="fill: #c1d4f4; fill-opacity: 0.75"/>
    <path d="M 55.780505 40.262639 
L 54.336162 41.500321 
L 55.726032 42.745424 
L 57.170315 41.48203 
z
" clip-path="url(#p600de5fa65)" style="fill: #b2ccfb; fill-opacity: 0.75"/>
    <path d="M 52.953759 40.253353 
L 51.500979 41.455328 
L 52.883663 42.732639 
L 54.336162 41.500321 
z
" clip-path="url(#p600de5fa65)" style="fill: #b2ccfb; fill-opacity: 0.75"/>
    <path d="M 58.606696 40.218728 
L 57.170315 41.48203 
L 58.567777 42.700825 
L 60.004254 41.416472 
z
" clip-path="url(#p600de5fa65)" style="fill: #b2ccfb; fill-opacity: 0.75"/>
    <path d="M 50.125549 40.174891 
L 48.663714 41.331174 
L 50.039706 42.646554 
L 51.500979 41.455328 
z
" clip-path="url(#p600de5fa65)" style="fill: #b3cdfb; fill-opacity: 0.75"/>
    <path d="M 61.433004 40.137722 
L 60.004254 41.416472 
L 61.409621 42.614904 
L 62.838561 41.319796 
z
" clip-path="url(#p600de5fa65)" style="fill: #b3cdfb; fill-opacity: 0.75"/>
    <path d="M 64.259869 40.03584 
L 62.838561 41.319796 
L 64.252056 42.503854 
L 65.673581 41.208261 
z
" clip-path="url(#p600de5fa65)" style="fill: #b5cdfa; fill-opacity: 0.75"/>
    <path d="M 84.050049 40.111147 
L 82.687576 41.144506 
L 84.15594 42.398747 
L 85.516986 41.38703 
z
" clip-path="url(#p600de5fa65)" style="fill: #b5cdfa; fill-opacity: 0.75"/>
    <path d="M 47.294735 40.011415 
L 45.823086 41.112127 
L 47.19297 42.471404 
L 48.663714 41.331174 
z
" clip-path="url(#p600de5fa65)" style="fill: #b6cefa; fill-opacity: 0.75"/>
    <path d="M 67.087489 39.929393 
L 65.673581 41.208261 
L 67.095328 42.383983 
L 68.509417 41.098221 
z
" clip-path="url(#p600de5fa65)" style="fill: #b7cff9; fill-opacity: 0.75"/>
    <path d="M 81.227124 39.901792 
L 79.854549 41.001234 
L 81.315995 42.227014 
L 82.687576 41.144506 
z
" clip-path="url(#p600de5fa65)" style="fill: #b9d0f9; fill-opacity: 0.75"/>
    <path d="M 69.915825 39.834754 
L 68.509417 41.098221 
L 69.939446 42.271683 
L 71.345933 41.006086 
z
" clip-path="url(#p600de5fa65)" style="fill: #b9d0f9; fill-opacity: 0.75"/>
    <path d="M 72.744598 39.768324 
L 71.345933 41.006086 
L 72.784173 42.183402 
L 74.182747 40.948285 
z
" clip-path="url(#p600de5fa65)" style="fill: #bad0f8; fill-opacity: 0.75"/>
    <path d="M 78.401126 39.78558 
L 77.01924 40.941225 
L 78.473291 42.14469 
L 79.854549 41.001234 
z
" clip-path="url(#p600de5fa65)" style="fill: #bad0f8; fill-opacity: 0.75"/>
    <path d="M 75.573284 39.746492 
L 74.182747 40.948285 
L 75.629029 42.135597 
L 77.01924 40.941225 
z
" clip-path="url(#p600de5fa65)" style="fill: #bad0f8; fill-opacity: 0.75"/>
    <path d="M 54.336162 41.500321 
L 52.883663 42.732639 
L 54.273714 44.006847 
L 55.726032 42.745424 
z
" clip-path="url(#p600de5fa65)" style="fill: #a9c6fd; fill-opacity: 0.75"/>
    <path d="M 57.170315 41.48203 
L 55.726032 42.745424 
L 57.123478 43.988686 
L 58.567777 42.700825 
z
" clip-path="url(#p600de5fa65)" style="fill: #a9c6fd; fill-opacity: 0.75"/>
    <path d="M 51.500979 41.455328 
L 50.039706 42.646554 
L 51.422831 43.957578 
L 52.883663 42.732639 
z
" clip-path="url(#p600de5fa65)" style="fill: #a9c6fd; fill-opacity: 0.75"/>
    <path d="M 60.004254 41.416472 
L 58.567777 42.700825 
L 59.972995 43.919053 
L 61.409621 42.614904 
z
" clip-path="url(#p600de5fa65)" style="fill: #aac7fd; fill-opacity: 0.75"/>
    <path d="M 48.663714 41.331174 
L 47.19297 42.471404 
L 48.569726 43.825074 
L 50.039706 42.646554 
z
" clip-path="url(#p600de5fa65)" style="fill: #abc8fd; fill-opacity: 0.75"/>
    <path d="M 62.838561 41.319796 
L 61.409621 42.614904 
L 62.822898 43.814057 
L 64.252056 42.503854 
z
" clip-path="url(#p600de5fa65)" style="fill: #abc8fd; fill-opacity: 0.75"/>
    <path d="M 65.673581 41.208261 
L 64.252056 42.503854 
L 65.673581 43.689937 
L 67.095328 42.383983 
z
" clip-path="url(#p600de5fa65)" style="fill: #adc9fd; fill-opacity: 0.75"/>
    <path d="M 68.509417 41.098221 
L 67.095328 42.383983 
L 68.525198 43.563049 
L 69.939446 42.271683 
z
" clip-path="url(#p600de5fa65)" style="fill: #aec9fc; fill-opacity: 0.75"/>
    <path d="M 82.687576 41.144506 
L 81.315995 42.227014 
L 82.785512 43.462989 
L 84.15594 42.398747 
z
" clip-path="url(#p600de5fa65)" style="fill: #afcafc; fill-opacity: 0.75"/>
    <path d="M 71.345933 41.006086 
L 69.939446 42.271683 
L 71.377656 43.449828 
L 72.784173 42.183402 
z
" clip-path="url(#p600de5fa65)" style="fill: #afcafc; fill-opacity: 0.75"/>
    <path d="M 79.854549 41.001234 
L 78.473291 42.14469 
L 79.935494 43.356953 
L 81.315995 42.227014 
z
" clip-path="url(#p600de5fa65)" style="fill: #b1cbfc; fill-opacity: 0.75"/>
    <path d="M 74.182747 40.948285 
L 72.784173 42.183402 
L 74.23062 43.366756 
L 75.629029 42.135597 
z
" clip-path="url(#p600de5fa65)" style="fill: #b1cbfc; fill-opacity: 0.75"/>
    <path d="M 77.01924 40.941225 
L 75.629029 42.135597 
L 77.083507 43.330319 
L 78.473291 42.14469 
z
" clip-path="url(#p600de5fa65)" style="fill: #b1cbfc; fill-opacity: 0.75"/>
    <path d="M 55.726032 42.745424 
L 54.273714 44.006847 
L 55.671247 45.27798 
L 57.123478 43.988686 
z
" clip-path="url(#p600de5fa65)" style="fill: #9fbfff; fill-opacity: 0.75"/>
    <path d="M 52.883663 42.732639 
L 51.422831 43.957578 
L 52.813207 45.264269 
L 54.273714 44.006847 
z
" clip-path="url(#p600de5fa65)" style="fill: #9fbfff; fill-opacity: 0.75"/>
    <path d="M 58.567777 42.700825 
L 57.123478 43.988686 
L 58.52861 45.230137 
L 59.972995 43.919053 
z
" clip-path="url(#p600de5fa65)" style="fill: #9fbfff; fill-opacity: 0.75"/>
    <path d="M 50.039706 42.646554 
L 48.569726 43.825074 
L 49.953476 45.173161 
L 51.422831 43.957578 
z
" clip-path="url(#p600de5fa65)" style="fill: #a1c0ff; fill-opacity: 0.75"/>
    <path d="M 61.409621 42.614904 
L 59.972995 43.919053 
L 61.386076 45.136746 
L 62.822898 43.814057 
z
" clip-path="url(#p600de5fa65)" style="fill: #a1c0ff; fill-opacity: 0.75"/>
    <path d="M 64.252056 42.503854 
L 62.822898 43.814057 
L 64.244184 45.013964 
L 65.673581 43.689937 
z
" clip-path="url(#p600de5fa65)" style="fill: #a2c1ff; fill-opacity: 0.75"/>
    <path d="M 67.095328 42.383983 
L 65.673581 43.689937 
L 67.103233 44.878083 
L 68.525198 43.563049 
z
" clip-path="url(#p600de5fa65)" style="fill: #a5c3fe; fill-opacity: 0.75"/>
    <path d="M 69.939446 42.271683 
L 68.525198 43.563049 
L 69.963278 44.745504 
L 71.377656 43.449828 
z
" clip-path="url(#p600de5fa65)" style="fill: #a6c4fe; fill-opacity: 0.75"/>
    <path d="M 72.784173 42.183402 
L 71.377656 43.449828 
L 72.824128 44.632705 
L 74.23062 43.366756 
z
" clip-path="url(#p600de5fa65)" style="fill: #a7c5fe; fill-opacity: 0.75"/>
    <path d="M 81.315995 42.227014 
L 79.935494 43.356953 
L 81.405906 44.578077 
L 82.785512 43.462989 
z
" clip-path="url(#p600de5fa65)" style="fill: #a7c5fe; fill-opacity: 0.75"/>
    <path d="M 75.629029 42.135597 
L 74.23062 43.366756 
L 75.685347 44.556204 
L 77.083507 43.330319 
z
" clip-path="url(#p600de5fa65)" style="fill: #a9c6fd; fill-opacity: 0.75"/>
    <path d="M 78.473291 42.14469 
L 77.083507 43.330319 
L 78.546249 44.532511 
L 79.935494 43.356953 
z
" clip-path="url(#p600de5fa65)" style="fill: #a9c6fd; fill-opacity: 0.75"/>
    <path d="M 54.273714 44.006847 
L 52.813207 45.264269 
L 54.210956 46.566651 
L 55.671247 45.27798 
z
" clip-path="url(#p600de5fa65)" style="fill: #94b6ff; fill-opacity: 0.75"/>
    <path d="M 57.123478 43.988686 
L 55.671247 45.27798 
L 57.076381 46.54606 
L 58.52861 45.230137 
z
" clip-path="url(#p600de5fa65)" style="fill: #96b7ff; fill-opacity: 0.75"/>
    <path d="M 51.422831 43.957578 
L 49.953476 45.173161 
L 51.344344 46.515687 
L 52.813207 45.264269 
z
" clip-path="url(#p600de5fa65)" style="fill: #96b7ff; fill-opacity: 0.75"/>
    <path d="M 59.972995 43.919053 
L 58.52861 45.230137 
L 59.941542 46.469802 
L 61.386076 45.136746 
z
" clip-path="url(#p600de5fa65)" style="fill: #96b7ff; fill-opacity: 0.75"/>
    <path d="M 62.822898 43.814057 
L 61.386076 45.136746 
L 62.807127 46.353934 
L 64.244184 45.013964 
z
" clip-path="url(#p600de5fa65)" style="fill: #98b9ff; fill-opacity: 0.75"/>
    <path d="M 65.673581 43.689937 
L 64.244184 45.013964 
L 65.673581 46.214663 
L 67.103233 44.878083 
z
" clip-path="url(#p600de5fa65)" style="fill: #9abbff; fill-opacity: 0.75"/>
    <path d="M 68.525198 43.563049 
L 67.103233 44.878083 
L 68.541106 46.068333 
L 69.963278 44.745504 
z
" clip-path="url(#p600de5fa65)" style="fill: #9dbdff; fill-opacity: 0.75"/>
    <path d="M 71.377656 43.449828 
L 69.963278 44.745504 
L 71.409658 45.931392 
L 72.824128 44.632705 
z
" clip-path="url(#p600de5fa65)" style="fill: #9ebeff; fill-opacity: 0.75"/>
    <path d="M 74.23062 43.366756 
L 72.824128 44.632705 
L 74.278946 45.820364 
L 75.685347 44.556204 
z
" clip-path="url(#p600de5fa65)" style="fill: #9fbfff; fill-opacity: 0.75"/>
    <path d="M 79.935494 43.356953 
L 78.546249 44.532511 
L 80.017321 45.742236 
L 81.405906 44.578077 
z
" clip-path="url(#p600de5fa65)" style="fill: #a1c0ff; fill-opacity: 0.75"/>
    <path d="M 77.083507 43.330319 
L 75.685347 44.556204 
L 77.148429 45.751801 
L 78.546249 44.532511 
z
" clip-path="url(#p600de5fa65)" style="fill: #a1c0ff; fill-opacity: 0.75"/>
    <path d="M 55.671247 45.27798 
L 54.210956 46.566651 
L 55.6162 47.864747 
L 57.076381 46.54606 
z
" clip-path="url(#p600de5fa65)" style="fill: #8badfd; fill-opacity: 0.75"/>
    <path d="M 52.813207 45.264269 
L 51.344344 46.515687 
L 52.742458 47.852675 
L 54.210956 46.566651 
z
" clip-path="url(#p600de5fa65)" style="fill: #8badfd; fill-opacity: 0.75"/>
    <path d="M 58.52861 45.230137 
L 57.076381 46.54606 
L 58.489233 47.811113 
L 59.941542 46.469802 
z
" clip-path="url(#p600de5fa65)" style="fill: #8caffe; fill-opacity: 0.75"/>
    <path d="M 61.386076 45.136746 
L 59.941542 46.469802 
L 61.362388 47.70771 
L 62.807127 46.353934 
z
" clip-path="url(#p600de5fa65)" style="fill: #8db0fe; fill-opacity: 0.75"/>
    <path d="M 64.244184 45.013964 
L 62.807127 46.353934 
L 64.236259 47.570647 
L 65.673581 46.214663 
z
" clip-path="url(#p600de5fa65)" style="fill: #8fb1fe; fill-opacity: 0.75"/>
    <path d="M 67.103233 44.878083 
L 65.673581 46.214663 
L 67.111195 47.416187 
L 68.541106 46.068333 
z
" clip-path="url(#p600de5fa65)" style="fill: #92b4fe; fill-opacity: 0.75"/>
    <path d="M 69.963278 44.745504 
L 68.541106 46.068333 
L 69.9873 47.260725 
L 71.409658 45.931392 
z
" clip-path="url(#p600de5fa65)" style="fill: #93b5fe; fill-opacity: 0.75"/>
    <path d="M 72.824128 44.632705 
L 71.409658 45.931392 
L 72.864431 47.12076 
L 74.278946 45.820364 
z
" clip-path="url(#p600de5fa65)" style="fill: #96b7ff; fill-opacity: 0.75"/>
    <path d="M 75.685347 44.556204 
L 74.278946 45.820364 
L 75.742193 47.012857 
L 77.148429 45.751801 
z
" clip-path="url(#p600de5fa65)" style="fill: #97b8ff; fill-opacity: 0.75"/>
    <path d="M 78.546249 44.532511 
L 77.148429 45.751801 
L 78.619944 46.953603 
L 80.017321 45.742236 
z
" clip-path="url(#p600de5fa65)" style="fill: #97b8ff; fill-opacity: 0.75"/>
    <path d="M 54.210956 46.566651 
L 52.742458 47.852675 
L 54.147948 49.184147 
L 55.6162 47.864747 
z
" clip-path="url(#p600de5fa65)" style="fill: #81a4fb; fill-opacity: 0.75"/>
    <path d="M 57.076381 46.54606 
L 55.6162 47.864747 
L 57.029066 49.158579 
L 58.489233 47.811113 
z
" clip-path="url(#p600de5fa65)" style="fill: #81a4fb; fill-opacity: 0.75"/>
    <path d="M 59.941542 46.469802 
L 58.489233 47.811113 
L 59.909925 49.073163 
L 61.362388 47.70771 
z
" clip-path="url(#p600de5fa65)" style="fill: #82a6fb; fill-opacity: 0.75"/>
    <path d="M 62.807127 46.353934 
L 61.362388 47.70771 
L 62.791264 48.943889 
L 64.236259 47.570647 
z
" clip-path="url(#p600de5fa65)" style="fill: #84a7fc; fill-opacity: 0.75"/>
    <path d="M 65.673581 46.214663 
L 64.236259 47.570647 
L 65.673581 48.786919 
L 67.111195 47.416187 
z
" clip-path="url(#p600de5fa65)" style="fill: #86a9fc; fill-opacity: 0.75"/>
    <path d="M 68.541106 46.068333 
L 67.111195 47.416187 
L 68.557129 48.618573 
L 69.9873 47.260725 
z
" clip-path="url(#p600de5fa65)" style="fill: #89acfd; fill-opacity: 0.75"/>
    <path d="M 71.409658 45.931392 
L 69.9873 47.260725 
L 71.441913 48.455302 
L 72.864431 47.12076 
z
" clip-path="url(#p600de5fa65)" style="fill: #8badfd; fill-opacity: 0.75"/>
    <path d="M 74.278946 45.820364 
L 72.864431 47.12076 
L 74.327687 48.313653 
L 75.742193 47.012857 
z
" clip-path="url(#p600de5fa65)" style="fill: #8db0fe; fill-opacity: 0.75"/>
    <path d="M 77.148429 45.751801 
L 75.742193 47.012857 
L 77.213954 48.210235 
L 78.619944 46.953603 
z
" clip-path="url(#p600de5fa65)" style="fill: #8fb1fe; fill-opacity: 0.75"/>
    <path d="M 55.6162 47.864747 
L 54.147948 49.184147 
L 55.560943 50.510126 
L 57.029066 49.158579 
z
" clip-path="url(#p600de5fa65)" style="fill: #7699f6; fill-opacity: 0.75"/>
    <path d="M 58.489233 47.811113 
L 57.029066 49.158579 
L 58.44968 50.448171 
L 59.909925 49.073163 
z
" clip-path="url(#p600de5fa65)" style="fill: #779af7; fill-opacity: 0.75"/>
    <path d="M 61.362388 47.70771 
L 59.909925 49.073163 
L 61.338579 50.332236 
L 62.791264 48.943889 
z
" clip-path="url(#p600de5fa65)" style="fill: #799cf8; fill-opacity: 0.75"/>
    <path d="M 64.236259 47.570647 
L 62.791264 48.943889 
L 64.228288 50.178365 
L 65.673581 48.786919 
z
" clip-path="url(#p600de5fa65)" style="fill: #7b9ff9; fill-opacity: 0.75"/>
    <path d="M 67.111195 47.416187 
L 65.673581 48.786919 
L 67.119208 50.002779 
L 68.557129 48.618573 
z
" clip-path="url(#p600de5fa65)" style="fill: #7ea1fa; fill-opacity: 0.75"/>
    <path d="M 69.9873 47.260725 
L 68.557129 48.618573 
L 70.011493 49.821857 
L 71.441913 48.455302 
z
" clip-path="url(#p600de5fa65)" style="fill: #81a4fb; fill-opacity: 0.75"/>
    <path d="M 72.864431 47.12076 
L 71.441913 48.455302 
L 72.905047 49.652104 
L 74.327687 48.313653 
z
" clip-path="url(#p600de5fa65)" style="fill: #82a6fb; fill-opacity: 0.75"/>
    <path d="M 75.742193 47.012857 
L 74.327687 48.313653 
L 75.799522 49.510118 
L 77.213954 48.210235 
z
" clip-path="url(#p600de5fa65)" style="fill: #85a8fc; fill-opacity: 0.75"/>
    <path d="M 57.029066 49.158579 
L 55.560943 50.510126 
L 56.981578 51.830631 
L 58.44968 50.448171 
z
" clip-path="url(#p600de5fa65)" style="fill: #6c8ff1; fill-opacity: 0.75"/>
    <path d="M 59.909925 49.073163 
L 58.44968 50.448171 
L 59.878171 51.733545 
L 61.338579 50.332236 
z
" clip-path="url(#p600de5fa65)" style="fill: #6e90f2; fill-opacity: 0.75"/>
    <path d="M 62.791264 48.943889 
L 61.338579 50.332236 
L 62.775322 51.588356 
L 64.228288 50.178365 
z
" clip-path="url(#p600de5fa65)" style="fill: #7093f3; fill-opacity: 0.75"/>
    <path d="M 65.673581 48.786919 
L 64.228288 50.178365 
L 65.673581 51.411168 
L 67.119208 50.002779 
z
" clip-path="url(#p600de5fa65)" style="fill: #7396f5; fill-opacity: 0.75"/>
    <path d="M 68.557129 48.618573 
L 67.119208 50.002779 
L 68.573253 51.218262 
L 70.011493 49.821857 
z
" clip-path="url(#p600de5fa65)" style="fill: #7699f6; fill-opacity: 0.75"/>
    <path d="M 71.441913 48.455302 
L 70.011493 49.821857 
L 71.474393 51.026076 
L 72.905047 49.652104 
z
" clip-path="url(#p600de5fa65)" style="fill: #779af7; fill-opacity: 0.75"/>
    <path d="M 74.327687 48.313653 
L 72.905047 49.652104 
L 74.376803 50.851173 
L 75.799522 49.510118 
z
" clip-path="url(#p600de5fa65)" style="fill: #7a9df8; fill-opacity: 0.75"/>
    <path d="M 58.44968 50.448171 
L 56.981578 51.830631 
L 58.409988 53.145685 
L 59.878171 51.733545 
z
" clip-path="url(#p600de5fa65)" style="fill: #6384eb; fill-opacity: 0.75"/>
    <path d="M 61.338579 50.332236 
L 59.878171 51.733545 
L 61.314672 53.014725 
L 62.775322 51.588356 
z
" clip-path="url(#p600de5fa65)" style="fill: #6485ec; fill-opacity: 0.75"/>
    <path d="M 64.228288 50.178365 
L 62.775322 51.588356 
L 64.220279 52.841549 
L 65.673581 51.411168 
z
" clip-path="url(#p600de5fa65)" style="fill: #6788ee; fill-opacity: 0.75"/>
    <path d="M 67.119208 50.002779 
L 65.673581 51.411168 
L 67.127265 52.642325 
L 68.573253 51.218262 
z
" clip-path="url(#p600de5fa65)" style="fill: #6a8bef; fill-opacity: 0.75"/>
    <path d="M 70.011493 49.821857 
L 68.573253 51.218262 
L 70.035835 52.433398 
L 71.474393 51.026076 
z
" clip-path="url(#p600de5fa65)" style="fill: #6c8ff1; fill-opacity: 0.75"/>
    <path d="M 72.905047 49.652104 
L 71.474393 51.026076 
L 72.945941 52.231267 
L 74.376803 50.851173 
z
" clip-path="url(#p600de5fa65)" style="fill: #7093f3; fill-opacity: 0.75"/>
    <path d="M 59.878171 51.733545 
L 58.409988 53.145685 
L 59.846312 54.45531 
L 61.314672 53.014725 
z
" clip-path="url(#p600de5fa65)" style="fill: #5a78e4; fill-opacity: 0.75"/>
    <path d="M 62.775322 51.588356 
L 61.314672 53.014725 
L 62.759316 54.291731 
L 64.220279 52.841549 
z
" clip-path="url(#p600de5fa65)" style="fill: #5d7ce6; fill-opacity: 0.75"/>
    <path d="M 65.673581 51.411168 
L 64.220279 52.841549 
L 65.673581 54.091839 
L 67.127265 52.642325 
z
" clip-path="url(#p600de5fa65)" style="fill: #5f7fe8; fill-opacity: 0.75"/>
    <path d="M 68.573253 51.218262 
L 67.127265 52.642325 
L 68.589464 53.871866 
L 70.035835 52.433398 
z
" clip-path="url(#p600de5fa65)" style="fill: #6282ea; fill-opacity: 0.75"/>
    <path d="M 71.474393 51.026076 
L 70.035835 52.433398 
L 71.50707 53.648221 
L 72.945941 52.231267 
z
" clip-path="url(#p600de5fa65)" style="fill: #6485ec; fill-opacity: 0.75"/>
    <path d="M 61.314672 53.014725 
L 59.846312 54.45531 
L 61.290689 55.759524 
L 62.759316 54.291731 
z
" clip-path="url(#p600de5fa65)" style="fill: #516ddb; fill-opacity: 0.75"/>
    <path d="M 64.220279 52.841549 
L 62.759316 54.291731 
L 64.21224 55.564587 
L 65.673581 54.091839 
z
" clip-path="url(#p600de5fa65)" style="fill: #5470de; fill-opacity: 0.75"/>
    <path d="M 67.127265 52.642325 
L 65.673581 54.091839 
L 67.135359 55.339252 
L 68.589464 53.871866 
z
" clip-path="url(#p600de5fa65)" style="fill: #5875e1; fill-opacity: 0.75"/>
    <path d="M 70.035835 52.433398 
L 68.589464 53.871866 
L 70.060304 55.099818 
L 71.50707 53.648221 
z
" clip-path="url(#p600de5fa65)" style="fill: #5a78e4; fill-opacity: 0.75"/>
    <path d="M 62.759316 54.291731 
L 61.290689 55.759524 
L 62.743262 57.058349 
L 64.21224 55.564587 
z
" clip-path="url(#p600de5fa65)" style="fill: #4961d2; fill-opacity: 0.75"/>
    <path d="M 65.673581 54.091839 
L 64.21224 55.564587 
L 65.673581 56.833315 
L 67.135359 55.339252 
z
" clip-path="url(#p600de5fa65)" style="fill: #4c66d6; fill-opacity: 0.75"/>
    <path d="M 68.589464 53.871866 
L 67.135359 55.339252 
L 68.605745 56.583812 
L 70.060304 55.099818 
z
" clip-path="url(#p600de5fa65)" style="fill: #4f69d9; fill-opacity: 0.75"/>
    <path d="M 64.21224 55.564587 
L 62.743262 57.058349 
L 64.204177 58.351805 
L 65.673581 56.833315 
z
" clip-path="url(#p600de5fa65)" style="fill: #4257c9; fill-opacity: 0.75"/>
    <path d="M 67.135359 55.339252 
L 65.673581 56.833315 
L 67.143481 58.097936 
L 68.605745 56.583812 
z
" clip-path="url(#p600de5fa65)" style="fill: #455cce; fill-opacity: 0.75"/>
    <path d="M 65.673581 56.833315 
L 64.204177 58.351805 
L 65.673581 59.639911 
L 67.143481 58.097936 
z
" clip-path="url(#p600de5fa65)" style="fill: #3b4cc0; fill-opacity: 0.75"/>
   </g>
  </g>
 </g>
 <defs>
  <clipPath id="p600de5fa65">
   <rect x="31.332936" y="3.00024" width="66.873888" height="66.873888"/>
  </clipPath>
 </defs>
</svg>
