<?xml version="1.0" encoding="utf-8" standalone="no"?>
<!DOCTYPE svg PUBLIC "-//W3C//DTD SVG 1.1//EN"
  "http://www.w3.org/Graphics/SVG/1.1/DTD/svg11.dtd">
<svg xmlns:xlink="http://www.w3.org/1999/xlink" width="194.30964pt" height="145.748736pt" viewBox="0 0 194.30964 145.748736" xmlns="http://www.w3.org/2000/svg" version="1.1">
 <metadata>
  <rdf:RDF xmlns:dc="http://purl.org/dc/elements/1.1/" xmlns:cc="http://creativecommons.org/ns#" xmlns:rdf="http://www.w3.org/1999/02/22-rdf-syntax-ns#">
   <cc:Work>
    <dc:type rdf:resource="http://purl.org/dc/dcmitype/StillImage"/>
    <dc:date>2024-12-09T17:34:48.817669</dc:date>
    <dc:format>image/svg+xml</dc:format>
    <dc:creator>
     <cc:Agent>
      <dc:title>Matplotlib v3.8.2, https://matplotlib.org/</dc:title>
     </cc:Agent>
    </dc:creator>
   </cc:Work>
  </rdf:RDF>
 </metadata>
 <defs>
  <style type="text/css">*{stroke-linejoin: round; stroke-linecap: butt}</style>
 </defs>
 <g id="figure_1">
  <g id="patch_1">
   <path d="M 0 145.748736 
L 194.30964 145.748736 
L 194.30964 0 
L 0 0 
z
" style="fill: #ffffff"/>
  </g>
  <g id="axes_1">
   <g id="patch_2">
    <path d="M 20.61 62.454368 
L 188.90964 62.454368 
L 188.90964 7.2 
L 20.61 7.2 
z
" style="fill: #ffffff"/>
   </g>
   <g id="matplotlib.axis_1">
    <g id="xtick_1">
     <g id="line2d_1"/>
    </g>
    <g id="xtick_2">
     <g id="line2d_2"/>
    </g>
    <g id="xtick_3">
     <g id="line2d_3"/>
    </g>
    <g id="xtick_4">
     <g id="line2d_4"/>
    </g>
    <g id="xtick_5">
     <g id="line2d_5"/>
    </g>
    <g id="xtick_6">
     <g id="line2d_6"/>
    </g>
    <g id="xtick_7">
     <g id="line2d_7"/>
    </g>
   </g>
   <g id="matplotlib.axis_2">
    <g id="ytick_1">
     <g id="line2d_8"/>
     <g id="text_1">
      <!-- −10 -->
      <g style="fill: #262626" transform="translate(2.336719 60.736681) scale(0.07 -0.07)">
       <defs>
        <path id="DejaVuSerif-2212" d="M 678 2259 
L 4684 2259 
L 4684 1753 
L 678 1753 
L 678 2259 
z
" transform="scale(0.015625)"/>
        <path id="DejaVuSerif-31" d="M 909 0 
L 909 331 
L 1722 331 
L 1722 4213 
L 781 3603 
L 781 4013 
L 1919 4750 
L 2350 4750 
L 2350 331 
L 3163 331 
L 3163 0 
L 909 0 
z
" transform="scale(0.015625)"/>
        <path id="DejaVuSerif-30" d="M 2034 219 
Q 2513 219 2750 744 
Q 2988 1269 2988 2328 
Q 2988 3391 2750 3916 
Q 2513 4441 2034 4441 
Q 1556 4441 1318 3916 
Q 1081 3391 1081 2328 
Q 1081 1269 1318 744 
Q 1556 219 2034 219 
z
M 2034 -91 
Q 1275 -91 848 546 
Q 422 1184 422 2328 
Q 422 3475 848 4112 
Q 1275 4750 2034 4750 
Q 2797 4750 3222 4112 
Q 3647 3475 3647 2328 
Q 3647 1184 3222 546 
Q 2797 -91 2034 -91 
z
" transform="scale(0.015625)"/>
       </defs>
       <use xlink:href="#DejaVuSerif-2212"/>
       <use xlink:href="#DejaVuSerif-31" x="83.789062"/>
       <use xlink:href="#DejaVuSerif-30" x="147.412109"/>
      </g>
     </g>
    </g>
    <g id="ytick_2">
     <g id="line2d_9"/>
     <g id="text_2">
      <!-- 0 -->
      <g style="fill: #262626" transform="translate(12.65625 36.748076) scale(0.07 -0.07)">
       <use xlink:href="#DejaVuSerif-30"/>
      </g>
     </g>
    </g>
    <g id="ytick_3">
     <g id="line2d_10"/>
     <g id="text_3">
      <!-- 10 -->
      <g style="fill: #262626" transform="translate(8.2025 12.759472) scale(0.07 -0.07)">
       <use xlink:href="#DejaVuSerif-31"/>
       <use xlink:href="#DejaVuSerif-30" x="63.623047"/>
      </g>
     </g>
    </g>
    <g id="text_4">
     <!-- $\beta$ [deg] -->
     <g style="fill: #262626" transform="translate(-3.043281 45.657184) rotate(-90) scale(0.06 -0.06)">
      <defs>
       <path id="DejaVuSans-Oblique-3b2" d="M 872 216 
L 572 -1331 
L -6 -1331 
L 928 3478 
Q 1206 4903 2538 4903 
Q 3888 4903 3659 3700 
Q 3503 2844 2894 2531 
Q 3713 2250 3553 1416 
Q 3272 -69 1759 -66 
Q 1097 -63 872 216 
z
M 1019 966 
Q 1259 422 1875 425 
Q 2775 425 2966 1406 
Q 3138 2288 1675 2219 
L 1778 2750 
Q 2909 2731 3106 3750 
Q 3241 4438 2509 4434 
Q 1691 4434 1503 3459 
L 1019 966 
z
" transform="scale(0.015625)"/>
       <path id="DejaVuSerif-20" transform="scale(0.015625)"/>
       <path id="DejaVuSerif-5b" d="M 550 4863 
L 2003 4863 
L 2003 4531 
L 1147 4531 
L 1147 -513 
L 2003 -513 
L 2003 -844 
L 550 -844 
L 550 4863 
z
" transform="scale(0.015625)"/>
       <path id="DejaVuSerif-64" d="M 3359 331 
L 3909 331 
L 3909 0 
L 2784 0 
L 2784 519 
Q 2616 206 2355 57 
Q 2094 -91 1709 -91 
Q 1097 -91 708 395 
Q 319 881 319 1663 
Q 319 2444 706 2928 
Q 1094 3413 1709 3413 
Q 2094 3413 2355 3264 
Q 2616 3116 2784 2803 
L 2784 4531 
L 2241 4531 
L 2241 4863 
L 3359 4863 
L 3359 331 
z
M 2784 1497 
L 2784 1825 
Q 2784 2422 2554 2737 
Q 2325 3053 1888 3053 
Q 1444 3053 1217 2703 
Q 991 2353 991 1663 
Q 991 975 1217 622 
Q 1444 269 1888 269 
Q 2325 269 2554 583 
Q 2784 897 2784 1497 
z
" transform="scale(0.015625)"/>
       <path id="DejaVuSerif-65" d="M 3469 1600 
L 991 1600 
L 991 1575 
Q 991 903 1244 561 
Q 1497 219 1991 219 
Q 2369 219 2611 417 
Q 2853 616 2950 1006 
L 3413 1006 
Q 3275 459 2904 184 
Q 2534 -91 1931 -91 
Q 1203 -91 761 389 
Q 319 869 319 1663 
Q 319 2450 753 2931 
Q 1188 3413 1894 3413 
Q 2647 3413 3050 2948 
Q 3453 2484 3469 1600 
z
M 2791 1931 
Q 2772 2513 2545 2808 
Q 2319 3103 1894 3103 
Q 1497 3103 1269 2806 
Q 1041 2509 991 1931 
L 2791 1931 
z
" transform="scale(0.015625)"/>
       <path id="DejaVuSerif-67" d="M 3359 2988 
L 3359 72 
Q 3359 -644 2965 -1033 
Q 2572 -1422 1844 -1422 
Q 1516 -1422 1216 -1362 
Q 916 -1303 641 -1184 
L 641 -488 
L 941 -488 
Q 997 -813 1206 -963 
Q 1416 -1113 1806 -1113 
Q 2313 -1113 2548 -827 
Q 2784 -541 2784 72 
L 2784 519 
Q 2616 206 2355 57 
Q 2094 -91 1709 -91 
Q 1097 -91 708 395 
Q 319 881 319 1663 
Q 319 2444 706 2928 
Q 1094 3413 1709 3413 
Q 2094 3413 2355 3264 
Q 2616 3116 2784 2803 
L 2784 3322 
L 3909 3322 
L 3909 2988 
L 3359 2988 
z
M 2784 1825 
Q 2784 2422 2554 2737 
Q 2325 3053 1888 3053 
Q 1444 3053 1217 2703 
Q 991 2353 991 1663 
Q 991 975 1217 622 
Q 1444 269 1888 269 
Q 2325 269 2554 583 
Q 2784 897 2784 1497 
L 2784 1825 
z
" transform="scale(0.015625)"/>
       <path id="DejaVuSerif-5d" d="M 1947 4863 
L 1947 -844 
L 494 -844 
L 494 -513 
L 1350 -513 
L 1350 4531 
L 494 4531 
L 494 4863 
L 1947 4863 
z
" transform="scale(0.015625)"/>
      </defs>
      <use xlink:href="#DejaVuSans-Oblique-3b2" transform="translate(0 0.390625)"/>
      <use xlink:href="#DejaVuSerif-20" transform="translate(63.818359 0.390625)"/>
      <use xlink:href="#DejaVuSerif-5b" transform="translate(95.605469 0.390625)"/>
      <use xlink:href="#DejaVuSerif-64" transform="translate(134.619141 0.390625)"/>
      <use xlink:href="#DejaVuSerif-65" transform="translate(198.632812 0.390625)"/>
      <use xlink:href="#DejaVuSerif-67" transform="translate(257.8125 0.390625)"/>
      <use xlink:href="#DejaVuSerif-5d" transform="translate(321.826172 0.390625)"/>
     </g>
    </g>
   </g>
   <g id="line2d_11">
    <path d="M 28.259984 34.088623 
L 29.158924 33.980605 
L 30.083549 33.638419 
L 31.033857 33.038399 
L 33.448155 31.09918 
L 36.787076 28.095044 
L 43.875864 21.64157 
L 47.009314 19.142364 
L 49.783188 17.197339 
L 51.375596 16.288967 
L 52.300221 16.035843 
L 53.224845 16.009004 
L 54.200838 16.201912 
L 55.253883 16.646317 
L 56.615135 17.493197 
L 59.799953 19.737333 
L 63.318663 22.550014 
L 67.428105 26.131439 
L 71.794388 30.262906 
L 78.164023 36.650689 
L 85.715123 44.177088 
L 89.46499 47.607978 
L 92.495703 50.086769 
L 95.064105 51.920809 
L 97.632506 53.475521 
L 100.252276 54.785813 
L 102.717941 55.782361 
L 105.389078 56.638455 
L 108.265688 57.325314 
L 111.424822 57.864682 
L 112.349446 57.822604 
L 113.325439 57.549697 
L 114.558271 56.94202 
L 115.89384 56.027926 
L 126.809546 47.397103 
L 130.636464 43.895283 
L 135.362323 39.265067 
L 150.721363 23.896704 
L 153.983233 21.117768 
L 156.782791 19.010426 
L 159.53098 17.209098 
L 162.330538 15.63593 
L 165.078727 14.350446 
L 167.981021 13.237547 
L 170.934683 12.337387 
L 174.273604 11.557592 
L 177.946419 10.930721 
L 181.259656 10.530696 
L 181.259656 10.530696 
" clip-path="url(#p43077c67b4)" style="fill: none; stroke: #00bfbf; stroke-width: 0.4; stroke-linecap: round"/>
   </g>
   <g id="line2d_12">
    <path d="M 28.259984 34.088623 
L 29.158924 33.940638 
L 30.057865 33.565512 
L 30.982489 32.933105 
L 33.139946 31.055605 
L 36.04224 28.220795 
L 42.643032 21.702627 
L 45.314169 19.435744 
L 47.882571 17.549286 
L 50.040028 16.214149 
L 50.964652 15.903498 
L 51.914961 15.822188 
L 52.916637 15.967155 
L 53.995366 16.357327 
L 55.330935 17.112247 
L 58.901013 19.448867 
L 62.599511 22.152978 
L 66.863057 25.530588 
L 70.587239 28.746742 
L 74.362789 32.284838 
L 78.703388 36.668863 
L 86.84522 44.897284 
L 90.055722 47.796662 
L 92.726859 49.916273 
L 95.218209 51.603853 
L 97.683874 53.005939 
L 100.149539 54.147935 
L 102.794993 55.128325 
L 105.620234 55.942574 
L 108.753684 56.609765 
L 112.477866 57.167903 
L 113.993223 57.243388 
L 114.969216 57.018578 
L 116.124996 56.509774 
L 117.460565 55.662717 
L 119.618022 53.972903 
L 128.427639 46.941814 
L 131.972033 43.664886 
L 135.567795 40.050569 
L 140.13955 35.065396 
L 148.307066 26.060034 
L 151.4662 22.960749 
L 154.214389 20.568769 
L 156.731423 18.67158 
L 159.197088 17.086958 
L 161.842542 15.64976 
L 164.462311 14.486581 
L 167.287553 13.486807 
L 170.446686 12.614784 
L 173.914028 11.902803 
L 177.920735 11.315896 
L 180.052508 11.087104 
L 180.052508 11.087104 
" clip-path="url(#p43077c67b4)" style="fill: none; stroke: #bf00bf; stroke-width: 0.4; stroke-linecap: round"/>
   </g>
   <g id="patch_3">
    <path d="M 20.61 62.454368 
L 20.61 7.2 
" style="fill: none; stroke: #000000; stroke-linejoin: miter; stroke-linecap: square"/>
   </g>
   <g id="patch_4">
    <path d="M 20.61 62.454368 
L 188.90964 62.454368 
" style="fill: none; stroke: #000000; stroke-linejoin: miter; stroke-linecap: square"/>
   </g>
   <g id="legend_1"/>
   <g id="line2d_13">
    <path d="M 28.259984 34.073829 
L 29.338651 33.961201 
L 30.417397 33.627469 
L 31.778681 32.932515 
L 34.680936 31.271617 
L 36.812699 29.778898 
L 38.739064 28.157928 
L 41.84676 25.211378 
L 47.445927 19.906364 
L 49.834545 17.944759 
L 51.170117 17.094676 
L 52.30017 16.646586 
L 53.481632 16.415305 
L 54.586062 16.417883 
L 55.433612 16.642459 
L 56.949025 17.130249 
L 59.337587 17.940822 
L 60.82728 18.672135 
L 62.291249 19.66534 
L 64.243234 21.27923 
L 67.710596 24.450005 
L 82.65869 39.00212 
L 91.160075 47.261294 
L 96.348249 51.688204 
L 99.276252 53.837566 
L 102.204202 55.697857 
L 104.721245 56.997431 
L 107.520867 58.261906 
L 109.575568 58.981255 
L 112.991495 59.936475 
L 114.018853 59.879806 
L 115.226002 59.576273 
L 116.407497 59.029387 
L 123.804496 54.449005 
L 125.833507 52.594442 
L 129.840206 48.468509 
L 132.896606 45.392505 
L 136.312642 42.379227 
L 139.702896 39.274897 
L 156.192028 23.57918 
L 159.864811 20.41653 
L 163.178082 17.927505 
L 165.566667 16.296376 
L 169.624749 13.870077 
L 172.706818 12.343928 
L 176.045742 11.01381 
L 180.026775 9.711562 
L 180.026775 9.711562 
" clip-path="url(#p43077c67b4)" style="fill: none; stroke: #000000; stroke-width: 0.7; stroke-linecap: round"/>
   </g>
  </g>
  <g id="axes_2">
   <g id="patch_5">
    <path d="M 20.61 124.908736 
L 188.90964 124.908736 
L 188.90964 69.654368 
L 20.61 69.654368 
z
" style="fill: #ffffff"/>
   </g>
   <g id="matplotlib.axis_3">
    <g id="xtick_8">
     <g id="line2d_14"/>
     <g id="text_5">
      <!-- 0 -->
      <g style="fill: #262626" transform="translate(26.033109 133.727642) scale(0.07 -0.07)">
       <use xlink:href="#DejaVuSerif-30"/>
      </g>
     </g>
    </g>
    <g id="xtick_9">
     <g id="line2d_15"/>
     <g id="text_6">
      <!-- 10 -->
      <g style="fill: #262626" transform="translate(49.490248 133.727642) scale(0.07 -0.07)">
       <use xlink:href="#DejaVuSerif-31"/>
       <use xlink:href="#DejaVuSerif-30" x="63.623047"/>
      </g>
     </g>
    </g>
    <g id="xtick_10">
     <g id="line2d_16"/>
     <g id="text_7">
      <!-- 20 -->
      <g style="fill: #262626" transform="translate(75.174262 133.727642) scale(0.07 -0.07)">
       <defs>
        <path id="DejaVuSerif-32" d="M 819 3553 
L 469 3553 
L 469 4384 
Q 803 4563 1142 4656 
Q 1481 4750 1806 4750 
Q 2534 4750 2956 4397 
Q 3378 4044 3378 3438 
Q 3378 2753 2422 1800 
Q 2347 1728 2309 1691 
L 1131 513 
L 3078 513 
L 3078 1088 
L 3444 1088 
L 3444 0 
L 434 0 
L 434 341 
L 1850 1753 
Q 2319 2222 2519 2614 
Q 2719 3006 2719 3438 
Q 2719 3909 2473 4175 
Q 2228 4441 1797 4441 
Q 1350 4441 1106 4219 
Q 863 3997 819 3553 
z
" transform="scale(0.015625)"/>
       </defs>
       <use xlink:href="#DejaVuSerif-32"/>
       <use xlink:href="#DejaVuSerif-30" x="63.623047"/>
      </g>
     </g>
    </g>
    <g id="xtick_11">
     <g id="line2d_17"/>
     <g id="text_8">
      <!-- 30 -->
      <g style="fill: #262626" transform="translate(100.858276 133.727642) scale(0.07 -0.07)">
       <defs>
        <path id="DejaVuSerif-33" d="M 622 4469 
Q 988 4606 1323 4678 
Q 1659 4750 1953 4750 
Q 2638 4750 3022 4454 
Q 3406 4159 3406 3634 
Q 3406 3213 3140 2930 
Q 2875 2647 2388 2547 
Q 2963 2466 3280 2130 
Q 3597 1794 3597 1259 
Q 3597 606 3158 257 
Q 2719 -91 1894 -91 
Q 1528 -91 1179 -12 
Q 831 66 488 225 
L 488 1131 
L 838 1131 
Q 869 681 1141 450 
Q 1413 219 1906 219 
Q 2384 219 2661 495 
Q 2938 772 2938 1253 
Q 2938 1803 2653 2086 
Q 2369 2369 1819 2369 
L 1522 2369 
L 1522 2688 
L 1678 2688 
Q 2225 2688 2498 2914 
Q 2772 3141 2772 3597 
Q 2772 4006 2547 4223 
Q 2322 4441 1900 4441 
Q 1478 4441 1245 4241 
Q 1013 4041 972 3647 
L 622 3647 
L 622 4469 
z
" transform="scale(0.015625)"/>
       </defs>
       <use xlink:href="#DejaVuSerif-33"/>
       <use xlink:href="#DejaVuSerif-30" x="63.623047"/>
      </g>
     </g>
    </g>
    <g id="xtick_12">
     <g id="line2d_18"/>
     <g id="text_9">
      <!-- 40 -->
      <g style="fill: #262626" transform="translate(126.542291 133.727642) scale(0.07 -0.07)">
       <defs>
        <path id="DejaVuSerif-34" d="M 2234 1581 
L 2234 4063 
L 641 1581 
L 2234 1581 
z
M 3609 0 
L 1484 0 
L 1484 331 
L 2234 331 
L 2234 1247 
L 197 1247 
L 197 1588 
L 2241 4750 
L 2859 4750 
L 2859 1581 
L 3750 1581 
L 3750 1247 
L 2859 1247 
L 2859 331 
L 3609 331 
L 3609 0 
z
" transform="scale(0.015625)"/>
       </defs>
       <use xlink:href="#DejaVuSerif-34"/>
       <use xlink:href="#DejaVuSerif-30" x="63.623047"/>
      </g>
     </g>
    </g>
    <g id="xtick_13">
     <g id="line2d_19"/>
     <g id="text_10">
      <!-- 50 -->
      <g style="fill: #262626" transform="translate(152.226305 133.727642) scale(0.07 -0.07)">
       <defs>
        <path id="DejaVuSerif-35" d="M 3219 4666 
L 3219 4153 
L 1081 4153 
L 1081 2816 
Q 1244 2928 1461 2984 
Q 1678 3041 1947 3041 
Q 2703 3041 3140 2622 
Q 3578 2203 3578 1478 
Q 3578 738 3136 323 
Q 2694 -91 1894 -91 
Q 1572 -91 1234 -12 
Q 897 66 544 225 
L 544 1131 
L 897 1131 
Q 925 688 1179 453 
Q 1434 219 1894 219 
Q 2388 219 2653 544 
Q 2919 869 2919 1478 
Q 2919 2084 2655 2407 
Q 2391 2731 1894 2731 
Q 1613 2731 1398 2631 
Q 1184 2531 1019 2322 
L 750 2322 
L 750 4666 
L 3219 4666 
z
" transform="scale(0.015625)"/>
       </defs>
       <use xlink:href="#DejaVuSerif-35"/>
       <use xlink:href="#DejaVuSerif-30" x="63.623047"/>
      </g>
     </g>
    </g>
    <g id="xtick_14">
     <g id="line2d_20"/>
     <g id="text_11">
      <!-- 60 -->
      <g style="fill: #262626" transform="translate(177.910319 133.727642) scale(0.07 -0.07)">
       <defs>
        <path id="DejaVuSerif-36" d="M 2094 219 
Q 2534 219 2771 542 
Q 3009 866 3009 1472 
Q 3009 2078 2771 2401 
Q 2534 2725 2094 2725 
Q 1647 2725 1412 2412 
Q 1178 2100 1178 1509 
Q 1178 888 1415 553 
Q 1653 219 2094 219 
z
M 1075 2569 
Q 1288 2803 1556 2918 
Q 1825 3034 2163 3034 
Q 2859 3034 3264 2615 
Q 3669 2197 3669 1472 
Q 3669 763 3233 336 
Q 2797 -91 2069 -91 
Q 1278 -91 853 498 
Q 428 1088 428 2181 
Q 428 3406 931 4078 
Q 1434 4750 2350 4750 
Q 2597 4750 2869 4703 
Q 3141 4656 3425 4563 
L 3425 3794 
L 3072 3794 
Q 3034 4109 2831 4275 
Q 2628 4441 2284 4441 
Q 1678 4441 1381 3981 
Q 1084 3522 1075 2569 
z
" transform="scale(0.015625)"/>
       </defs>
       <use xlink:href="#DejaVuSerif-36"/>
       <use xlink:href="#DejaVuSerif-30" x="63.623047"/>
      </g>
     </g>
    </g>
    <g id="text_12">
     <!-- Time [s] -->
     <g style="fill: #262626" transform="translate(92.344976 143.742486) scale(0.06 -0.06)">
      <defs>
       <path id="DejaVuSerif-54" d="M 1222 0 
L 1222 331 
L 1819 331 
L 1819 4294 
L 447 4294 
L 447 3566 
L 63 3566 
L 63 4666 
L 4206 4666 
L 4206 3566 
L 3822 3566 
L 3822 4294 
L 2450 4294 
L 2450 331 
L 3047 331 
L 3047 0 
L 1222 0 
z
" transform="scale(0.015625)"/>
       <path id="DejaVuSerif-69" d="M 622 4353 
Q 622 4497 726 4603 
Q 831 4709 978 4709 
Q 1122 4709 1226 4603 
Q 1331 4497 1331 4353 
Q 1331 4206 1228 4103 
Q 1125 4000 978 4000 
Q 831 4000 726 4103 
Q 622 4206 622 4353 
z
M 1356 331 
L 1900 331 
L 1900 0 
L 231 0 
L 231 331 
L 781 331 
L 781 2988 
L 231 2988 
L 231 3322 
L 1356 3322 
L 1356 331 
z
" transform="scale(0.015625)"/>
       <path id="DejaVuSerif-6d" d="M 3316 2675 
Q 3481 3041 3739 3227 
Q 3997 3413 4341 3413 
Q 4863 3413 5119 3089 
Q 5375 2766 5375 2113 
L 5375 331 
L 5894 331 
L 5894 0 
L 4300 0 
L 4300 331 
L 4800 331 
L 4800 2047 
Q 4800 2556 4650 2772 
Q 4500 2988 4153 2988 
Q 3769 2988 3567 2697 
Q 3366 2406 3366 1850 
L 3366 331 
L 3866 331 
L 3866 0 
L 2291 0 
L 2291 331 
L 2791 331 
L 2791 2069 
Q 2791 2566 2641 2777 
Q 2491 2988 2144 2988 
Q 1759 2988 1557 2697 
Q 1356 2406 1356 1850 
L 1356 331 
L 1856 331 
L 1856 0 
L 263 0 
L 263 331 
L 781 331 
L 781 2994 
L 231 2994 
L 231 3322 
L 1356 3322 
L 1356 2731 
Q 1516 3063 1762 3238 
Q 2009 3413 2322 3413 
Q 2709 3413 2968 3220 
Q 3228 3028 3316 2675 
z
" transform="scale(0.015625)"/>
       <path id="DejaVuSerif-73" d="M 359 184 
L 359 959 
L 691 959 
Q 703 588 923 403 
Q 1144 219 1575 219 
Q 1963 219 2166 364 
Q 2369 509 2369 788 
Q 2369 1006 2220 1140 
Q 2072 1275 1594 1428 
L 1178 1569 
Q 750 1706 558 1912 
Q 366 2119 366 2438 
Q 366 2894 700 3153 
Q 1034 3413 1625 3413 
Q 1888 3413 2178 3344 
Q 2469 3275 2778 3144 
L 2778 2419 
L 2447 2419 
Q 2434 2741 2221 2922 
Q 2009 3103 1644 3103 
Q 1281 3103 1095 2975 
Q 909 2847 909 2591 
Q 909 2381 1050 2254 
Q 1191 2128 1613 1997 
L 2069 1856 
Q 2541 1709 2748 1489 
Q 2956 1269 2956 922 
Q 2956 450 2595 179 
Q 2234 -91 1600 -91 
Q 1278 -91 972 -22 
Q 666 47 359 184 
z
" transform="scale(0.015625)"/>
      </defs>
      <use xlink:href="#DejaVuSerif-54"/>
      <use xlink:href="#DejaVuSerif-69" x="66.699219"/>
      <use xlink:href="#DejaVuSerif-6d" x="98.681641"/>
      <use xlink:href="#DejaVuSerif-65" x="193.505859"/>
      <use xlink:href="#DejaVuSerif-20" x="252.685547"/>
      <use xlink:href="#DejaVuSerif-5b" x="284.472656"/>
      <use xlink:href="#DejaVuSerif-73" x="323.486328"/>
      <use xlink:href="#DejaVuSerif-5d" x="374.804688"/>
     </g>
    </g>
   </g>
   <g id="matplotlib.axis_4">
    <g id="ytick_4">
     <g id="line2d_21"/>
     <g id="text_13">
      <!-- −25 -->
      <g style="fill: #262626" transform="translate(2.336719 116.62173) scale(0.07 -0.07)">
       <use xlink:href="#DejaVuSerif-2212"/>
       <use xlink:href="#DejaVuSerif-32" x="83.789062"/>
       <use xlink:href="#DejaVuSerif-35" x="147.412109"/>
      </g>
     </g>
    </g>
    <g id="ytick_5">
     <g id="line2d_22"/>
     <g id="text_14">
      <!-- 0 -->
      <g style="fill: #262626" transform="translate(12.65625 98.740528) scale(0.07 -0.07)">
       <use xlink:href="#DejaVuSerif-30"/>
      </g>
     </g>
    </g>
    <g id="ytick_6">
     <g id="line2d_23"/>
     <g id="text_15">
      <!-- 25 -->
      <g style="fill: #262626" transform="translate(8.2025 80.859326) scale(0.07 -0.07)">
       <use xlink:href="#DejaVuSerif-32"/>
       <use xlink:href="#DejaVuSerif-35" x="63.623047"/>
      </g>
     </g>
    </g>
    <g id="text_16">
     <!-- $\psi$ [deg] -->
     <g style="fill: #262626" transform="translate(-3.043281 108.171552) rotate(-90) scale(0.06 -0.06)">
      <defs>
       <path id="DejaVuSans-Oblique-3c8" d="M 1591 -78 
Q 891 38 616 341 
Q 278 713 425 1472 
L 819 3500 
L 1400 3500 
L 1009 1494 
Q 900 922 1119 684 
Q 1313 478 1691 434 
L 2284 3500 
L 2856 3500 
L 2263 438 
Q 2681 481 2928 688 
Q 3247 950 3353 1497 
L 3741 3500 
L 4322 3500 
L 3928 1475 
Q 3775 688 3300 344 
Q 2872 34 2163 -75 
L 1919 -1331 
L 1347 -1331 
L 1591 -78 
z
" transform="scale(0.015625)"/>
      </defs>
      <use xlink:href="#DejaVuSans-Oblique-3c8" transform="translate(0 0.015625)"/>
      <use xlink:href="#DejaVuSerif-20" transform="translate(65.966797 0.015625)"/>
      <use xlink:href="#DejaVuSerif-5b" transform="translate(97.753906 0.015625)"/>
      <use xlink:href="#DejaVuSerif-64" transform="translate(136.767578 0.015625)"/>
      <use xlink:href="#DejaVuSerif-65" transform="translate(200.78125 0.015625)"/>
      <use xlink:href="#DejaVuSerif-67" transform="translate(259.960938 0.015625)"/>
      <use xlink:href="#DejaVuSerif-5d" transform="translate(323.974609 0.015625)"/>
     </g>
    </g>
   </g>
   <g id="line2d_24">
    <path d="M 28.259984 96.081075 
L 30.854069 95.97058 
L 32.472162 95.657253 
L 34.218675 95.085705 
L 36.119292 94.222126 
L 38.174013 93.037568 
L 40.408522 91.484447 
L 42.874188 89.49257 
L 45.622377 86.978109 
L 48.678775 83.872959 
L 55.767563 76.491157 
L 57.359972 75.3439 
L 59.029433 74.416078 
L 60.775946 73.699858 
L 62.625195 73.183498 
L 64.602864 72.865382 
L 66.683269 72.757199 
L 68.840726 72.868658 
L 71.075235 73.209385 
L 73.361113 73.784699 
L 75.698358 74.604502 
L 78.086971 75.680265 
L 80.526953 77.02524 
L 83.043986 78.669154 
L 85.663755 80.648753 
L 88.360577 82.968954 
L 91.211502 85.718499 
L 94.319268 89.032168 
L 97.889346 93.176588 
L 102.229945 98.571561 
L 108.034532 106.167945 
L 114.917848 115.145722 
L 116.664361 116.970658 
L 118.333822 118.391426 
L 120.080334 119.582348 
L 121.903899 120.556198 
L 123.830201 121.331665 
L 125.833554 121.897989 
L 127.913959 122.25352 
L 130.071416 122.394842 
L 132.305925 122.316102 
L 134.617487 122.009958 
L 136.980416 121.473251 
L 139.420397 120.690387 
L 141.911747 119.656231 
L 144.480148 118.346586 
L 147.125601 116.745582 
L 149.925159 114.787326 
L 152.904505 112.426994 
L 156.14069 109.572008 
L 159.78782 106.050575 
L 163.974315 101.688994 
L 169.111118 96.002382 
L 176.22559 87.760215 
L 181.259656 81.804779 
L 181.259656 81.804779 
" clip-path="url(#p6d78528880)" style="fill: none; stroke: #00bfbf; stroke-width: 0.4; stroke-linecap: round"/>
   </g>
   <g id="line2d_25">
    <path d="M 28.259984 96.081075 
L 30.674281 95.972597 
L 32.215322 95.670265 
L 33.859099 95.116832 
L 35.631296 94.281819 
L 37.557597 93.124309 
L 39.663686 91.594099 
L 42.026615 89.59537 
L 44.723437 87.014137 
L 47.933939 83.62098 
L 54.27789 76.793819 
L 55.921667 75.498624 
L 57.616812 74.450535 
L 59.414693 73.601992 
L 61.31531 72.951365 
L 63.370031 72.485728 
L 65.527488 72.22429 
L 67.787682 72.173855 
L 70.073559 72.343418 
L 72.38512 72.737965 
L 74.670997 73.352767 
L 76.956875 74.198344 
L 79.268436 75.29205 
L 81.657049 76.671081 
L 84.122715 78.354445 
L 86.7168 80.397988 
L 89.46499 82.850465 
L 92.495703 85.860341 
L 96.065781 89.733636 
L 100.586168 94.985891 
L 107.366747 103.237677 
L 116.484572 114.309755 
L 118.282453 116.062028 
L 119.951914 117.378974 
L 121.698427 118.473984 
L 123.57336 119.386912 
L 125.525345 120.092662 
L 127.580067 120.598925 
L 129.686156 120.890385 
L 131.843613 120.965644 
L 134.052438 120.820116 
L 136.286947 120.448372 
L 138.521457 119.848518 
L 140.807334 119.002336 
L 143.144579 117.896389 
L 145.584561 116.491909 
L 148.152962 114.751408 
L 150.926836 112.599081 
L 153.983233 109.940021 
L 157.527627 106.550692 
L 161.89391 102.052961 
L 167.698497 95.723637 
L 178.434415 83.625076 
L 180.052508 81.795665 
L 180.052508 81.795665 
" clip-path="url(#p6d78528880)" style="fill: none; stroke: #bf00bf; stroke-width: 0.4; stroke-linecap: round"/>
   </g>
   <g id="patch_6">
    <path d="M 20.61 124.908736 
L 20.61 69.654368 
" style="fill: none; stroke: #000000; stroke-linejoin: miter; stroke-linecap: square"/>
   </g>
   <g id="patch_7">
    <path d="M 20.61 124.908736 
L 188.90964 124.908736 
" style="fill: none; stroke: #000000; stroke-linejoin: miter; stroke-linecap: square"/>
   </g>
   <g id="line2d_26">
    <path d="M 28.259984 96.177098 
L 30.622859 96.090658 
L 32.163926 95.799793 
L 33.833368 95.253169 
L 35.682612 94.410474 
L 37.685963 93.24881 
L 39.792067 91.766771 
L 42.052266 89.898802 
L 44.620644 87.476558 
L 47.651391 84.297858 
L 54.714534 76.721891 
L 56.178481 75.616791 
L 57.770875 74.70417 
L 59.51737 73.958897 
L 61.392303 73.401728 
L 63.318607 73.059889 
L 65.321993 72.931631 
L 67.453748 73.022031 
L 69.688288 73.342597 
L 72.076855 73.914835 
L 74.568225 74.742549 
L 77.059567 75.806003 
L 79.627948 77.146084 
L 82.196444 78.737685 
L 84.790442 80.610251 
L 87.435904 82.799016 
L 90.286824 85.457256 
L 93.497359 88.76924 
L 97.914989 93.664983 
L 103.334314 100.01416 
L 111.912764 110.464369 
L 115.046221 114.110715 
L 116.792732 115.800456 
L 118.256741 116.919556 
L 119.926179 117.907135 
L 121.801102 118.756712 
L 123.881545 119.454119 
L 126.167384 119.983135 
L 128.658775 120.329951 
L 131.150119 120.456065 
L 133.692806 120.361004 
L 136.235528 120.045053 
L 138.778233 119.501016 
L 141.372318 118.718085 
L 144.043476 117.673808 
L 146.817344 116.347905 
L 149.693959 114.719286 
L 152.596261 112.818953 
L 155.575593 110.599865 
L 158.94023 107.807723 
L 162.818514 104.295432 
L 168.058019 99.224643 
L 174.992716 92.197885 
L 180.026775 86.940739 
L 180.026775 86.940739 
" clip-path="url(#p6d78528880)" style="fill: none; stroke: #000000; stroke-width: 0.7; stroke-linecap: round"/>
   </g>
  </g>
 </g>
 <defs>
  <clipPath id="p43077c67b4">
   <rect x="20.61" y="7.2" width="168.29964" height="55.254368"/>
  </clipPath>
  <clipPath id="p6d78528880">
   <rect x="20.61" y="69.654368" width="168.29964" height="55.254368"/>
  </clipPath>
 </defs>
</svg>
