<?xml version="1.0" encoding="utf-8" standalone="no"?>
<!DOCTYPE svg PUBLIC "-//W3C//DTD SVG 1.1//EN"
  "http://www.w3.org/Graphics/SVG/1.1/DTD/svg11.dtd">
<svg xmlns:xlink="http://www.w3.org/1999/xlink" width="129.53976pt" height="109.311552pt" viewBox="0 0 129.53976 109.311552" xmlns="http://www.w3.org/2000/svg" version="1.1">
 <metadata>
  <rdf:RDF xmlns:dc="http://purl.org/dc/elements/1.1/" xmlns:cc="http://creativecommons.org/ns#" xmlns:rdf="http://www.w3.org/1999/02/22-rdf-syntax-ns#">
   <cc:Work>
    <dc:type rdf:resource="http://purl.org/dc/dcmitype/StillImage"/>
    <dc:date>2025-01-02T13:56:56.385287</dc:date>
    <dc:format>image/svg+xml</dc:format>
    <dc:creator>
     <cc:Agent>
      <dc:title>Matplotlib v3.8.2, https://matplotlib.org/</dc:title>
     </cc:Agent>
    </dc:creator>
   </cc:Work>
  </rdf:RDF>
 </metadata>
 <defs>
  <style type="text/css">*{stroke-linejoin: round; stroke-linecap: butt}</style>
 </defs>
 <g id="figure_1">
  <g id="patch_1">
   <path d="M 0 109.311552 
L 129.53976 109.311552 
L 129.53976 0 
L 0 0 
z
" style="fill: #ffffff"/>
  </g>
  <g id="patch_2">
   <path d="M 13.114344 106.311312 
L 116.425416 106.311312 
L 116.425416 3.00024 
L 13.114344 3.00024 
z
" style="fill: #ffffff"/>
  </g>
  <g id="pane3d_1">
   <g id="patch_3">
    <path d="M 66.165976 55.750323 
L 112.304469 75.435791 
L 114.078927 30.23069 
L 66.165976 13.104267 
" style="fill: #f2f2f2; opacity: 0.5; stroke: #f2f2f2; stroke-linejoin: miter"/>
   </g>
  </g>
  <g id="pane3d_2">
   <g id="patch_4">
    <path d="M 66.165976 55.750323 
L 20.027482 75.435791 
L 18.253024 30.23069 
L 66.165976 13.104267 
" style="fill: #e6e6e6; opacity: 0.5; stroke: #e6e6e6; stroke-linejoin: miter"/>
   </g>
  </g>
  <g id="pane3d_3">
   <g id="patch_5">
    <path d="M 66.165976 55.750323 
L 20.027482 75.435791 
L 66.165976 98.307962 
L 112.304469 75.435791 
" style="fill: #ececec; opacity: 0.5; stroke: #ececec; stroke-linejoin: miter"/>
   </g>
  </g>
  <g id="grid3d_1">
   <g id="Line3DCollection_1">
    <path d="M 106.423925 78.350945 
L 60.25652 58.271654 
L 60.043549 15.292721 
" style="fill: none; stroke: #b0b0b0; stroke-width: 0.1"/>
    <path d="M 90.132526 86.427058 
L 43.929268 65.237846 
L 43.106064 21.347003 
" style="fill: none; stroke: #b0b0b0; stroke-width: 0.1"/>
    <path d="M 72.892591 94.973387 
L 26.721854 72.579568 
L 25.220774 27.740077 
" style="fill: none; stroke: #b0b0b0; stroke-width: 0.1"/>
   </g>
  </g>
  <g id="grid3d_2">
   <g id="Line3DCollection_2">
    <path d="M 74.652534 16.137776 
L 74.356242 59.244785 
L 28.17994 79.477198 
" style="fill: none; stroke: #b0b0b0; stroke-width: 0.1"/>
    <path d="M 89.225888 21.347003 
L 88.402683 65.237846 
L 42.199425 86.427058 
" style="fill: none; stroke: #b0b0b0; stroke-width: 0.1"/>
    <path d="M 104.495485 26.805101 
L 103.095687 71.506769 
L 56.91568 93.722326 
" style="fill: none; stroke: #b0b0b0; stroke-width: 0.1"/>
   </g>
  </g>
  <g id="grid3d_3">
   <g id="Line3DCollection_3">
    <path d="M 19.664679 66.193224 
L 66.165976 47.0124 
L 112.667272 66.193224 
" style="fill: none; stroke: #b0b0b0; stroke-width: 0.1"/>
    <path d="M 19.156992 53.25968 
L 66.165976 34.801077 
L 113.174959 53.25968 
" style="fill: none; stroke: #b0b0b0; stroke-width: 0.1"/>
    <path d="M 18.638098 40.040611 
L 66.165976 22.339478 
L 113.693853 40.040611 
" style="fill: none; stroke: #b0b0b0; stroke-width: 0.1"/>
   </g>
  </g>
  <g id="axis3d_1">
   <g id="line2d_1">
    <path d="M 112.304469 75.435791 
L 66.165976 98.307962 
" style="fill: none; stroke: #000000; stroke-linecap: round"/>
   </g>
   <g id="xtick_1">
    <g id="line2d_2">
     <path d="M 106.026884 78.178263 
L 107.219449 78.696937 
" style="fill: none; stroke: #262626; stroke-width: 0.8; stroke-linecap: round"/>
    </g>
    <g id="text_1">
     <!-- −10 -->
     <g style="fill: #262626" transform="translate(109.413659 97.777452) scale(0.07 -0.07)">
      <defs>
       <path id="DejaVuSerif-2212" d="M 678 2259 
L 4684 2259 
L 4684 1753 
L 678 1753 
L 678 2259 
z
" transform="scale(0.015625)"/>
       <path id="DejaVuSerif-31" d="M 909 0 
L 909 331 
L 1722 331 
L 1722 4213 
L 781 3603 
L 781 4013 
L 1919 4750 
L 2350 4750 
L 2350 331 
L 3163 331 
L 3163 0 
L 909 0 
z
" transform="scale(0.015625)"/>
       <path id="DejaVuSerif-30" d="M 2034 219 
Q 2513 219 2750 744 
Q 2988 1269 2988 2328 
Q 2988 3391 2750 3916 
Q 2513 4441 2034 4441 
Q 1556 4441 1318 3916 
Q 1081 3391 1081 2328 
Q 1081 1269 1318 744 
Q 1556 219 2034 219 
z
M 2034 -91 
Q 1275 -91 848 546 
Q 422 1184 422 2328 
Q 422 3475 848 4112 
Q 1275 4750 2034 4750 
Q 2797 4750 3222 4112 
Q 3647 3475 3647 2328 
Q 3647 1184 3222 546 
Q 2797 -91 2034 -91 
z
" transform="scale(0.015625)"/>
      </defs>
      <use xlink:href="#DejaVuSerif-2212"/>
      <use xlink:href="#DejaVuSerif-31" x="83.789062"/>
      <use xlink:href="#DejaVuSerif-30" x="147.412109"/>
     </g>
    </g>
   </g>
   <g id="xtick_2">
    <g id="line2d_3">
     <path d="M 89.734394 86.244471 
L 90.930279 86.792914 
" style="fill: none; stroke: #262626; stroke-width: 0.8; stroke-linecap: round"/>
    </g>
    <g id="text_2">
     <!-- 0 -->
     <g style="fill: #262626" transform="translate(98.439987 106.324461) scale(0.07 -0.07)">
      <use xlink:href="#DejaVuSerif-30"/>
     </g>
    </g>
   </g>
   <g id="xtick_3">
    <g id="line2d_4">
     <path d="M 72.49391 94.780018 
L 73.691486 95.360869 
" style="fill: none; stroke: #262626; stroke-width: 0.8; stroke-linecap: round"/>
    </g>
    <g id="text_3">
     <!-- 10 -->
     <g style="fill: #262626" transform="translate(79.132139 115.373444) scale(0.07 -0.07)">
      <use xlink:href="#DejaVuSerif-31"/>
      <use xlink:href="#DejaVuSerif-30" x="63.623047"/>
     </g>
    </g>
   </g>
   <g id="text_4">
    <!-- $\beta$ [deg] -->
    <g style="fill: #262626" transform="translate(102.433358 120.057881) scale(0.06 -0.06)">
     <defs>
      <path id="DejaVuSans-Oblique-3b2" d="M 872 216 
L 572 -1331 
L -6 -1331 
L 928 3478 
Q 1206 4903 2538 4903 
Q 3888 4903 3659 3700 
Q 3503 2844 2894 2531 
Q 3713 2250 3553 1416 
Q 3272 -69 1759 -66 
Q 1097 -63 872 216 
z
M 1019 966 
Q 1259 422 1875 425 
Q 2775 425 2966 1406 
Q 3138 2288 1675 2219 
L 1778 2750 
Q 2909 2731 3106 3750 
Q 3241 4438 2509 4434 
Q 1691 4434 1503 3459 
L 1019 966 
z
" transform="scale(0.015625)"/>
      <path id="DejaVuSerif-20" transform="scale(0.015625)"/>
      <path id="DejaVuSerif-5b" d="M 550 4863 
L 2003 4863 
L 2003 4531 
L 1147 4531 
L 1147 -513 
L 2003 -513 
L 2003 -844 
L 550 -844 
L 550 4863 
z
" transform="scale(0.015625)"/>
      <path id="DejaVuSerif-64" d="M 3359 331 
L 3909 331 
L 3909 0 
L 2784 0 
L 2784 519 
Q 2616 206 2355 57 
Q 2094 -91 1709 -91 
Q 1097 -91 708 395 
Q 319 881 319 1663 
Q 319 2444 706 2928 
Q 1094 3413 1709 3413 
Q 2094 3413 2355 3264 
Q 2616 3116 2784 2803 
L 2784 4531 
L 2241 4531 
L 2241 4863 
L 3359 4863 
L 3359 331 
z
M 2784 1497 
L 2784 1825 
Q 2784 2422 2554 2737 
Q 2325 3053 1888 3053 
Q 1444 3053 1217 2703 
Q 991 2353 991 1663 
Q 991 975 1217 622 
Q 1444 269 1888 269 
Q 2325 269 2554 583 
Q 2784 897 2784 1497 
z
" transform="scale(0.015625)"/>
      <path id="DejaVuSerif-65" d="M 3469 1600 
L 991 1600 
L 991 1575 
Q 991 903 1244 561 
Q 1497 219 1991 219 
Q 2369 219 2611 417 
Q 2853 616 2950 1006 
L 3413 1006 
Q 3275 459 2904 184 
Q 2534 -91 1931 -91 
Q 1203 -91 761 389 
Q 319 869 319 1663 
Q 319 2450 753 2931 
Q 1188 3413 1894 3413 
Q 2647 3413 3050 2948 
Q 3453 2484 3469 1600 
z
M 2791 1931 
Q 2772 2513 2545 2808 
Q 2319 3103 1894 3103 
Q 1497 3103 1269 2806 
Q 1041 2509 991 1931 
L 2791 1931 
z
" transform="scale(0.015625)"/>
      <path id="DejaVuSerif-67" d="M 3359 2988 
L 3359 72 
Q 3359 -644 2965 -1033 
Q 2572 -1422 1844 -1422 
Q 1516 -1422 1216 -1362 
Q 916 -1303 641 -1184 
L 641 -488 
L 941 -488 
Q 997 -813 1206 -963 
Q 1416 -1113 1806 -1113 
Q 2313 -1113 2548 -827 
Q 2784 -541 2784 72 
L 2784 519 
Q 2616 206 2355 57 
Q 2094 -91 1709 -91 
Q 1097 -91 708 395 
Q 319 881 319 1663 
Q 319 2444 706 2928 
Q 1094 3413 1709 3413 
Q 2094 3413 2355 3264 
Q 2616 3116 2784 2803 
L 2784 3322 
L 3909 3322 
L 3909 2988 
L 3359 2988 
z
M 2784 1825 
Q 2784 2422 2554 2737 
Q 2325 3053 1888 3053 
Q 1444 3053 1217 2703 
Q 991 2353 991 1663 
Q 991 975 1217 622 
Q 1444 269 1888 269 
Q 2325 269 2554 583 
Q 2784 897 2784 1497 
L 2784 1825 
z
" transform="scale(0.015625)"/>
      <path id="DejaVuSerif-5d" d="M 1947 4863 
L 1947 -844 
L 494 -844 
L 494 -513 
L 1350 -513 
L 1350 4531 
L 494 4531 
L 494 4863 
L 1947 4863 
z
" transform="scale(0.015625)"/>
     </defs>
     <use xlink:href="#DejaVuSans-Oblique-3b2" transform="translate(0 0.390625)"/>
     <use xlink:href="#DejaVuSerif-20" transform="translate(63.818359 0.390625)"/>
     <use xlink:href="#DejaVuSerif-5b" transform="translate(95.605469 0.390625)"/>
     <use xlink:href="#DejaVuSerif-64" transform="translate(134.619141 0.390625)"/>
     <use xlink:href="#DejaVuSerif-65" transform="translate(198.632812 0.390625)"/>
     <use xlink:href="#DejaVuSerif-67" transform="translate(257.8125 0.390625)"/>
     <use xlink:href="#DejaVuSerif-5d" transform="translate(321.826172 0.390625)"/>
    </g>
   </g>
  </g>
  <g id="axis3d_2">
   <g id="line2d_5">
    <path d="M 20.027482 75.435791 
L 66.165976 98.307962 
" style="fill: none; stroke: #000000; stroke-linecap: round"/>
   </g>
   <g id="xtick_4">
    <g id="line2d_6">
     <path d="M 28.577166 79.303151 
L 27.384039 79.825927 
" style="fill: none; stroke: #262626; stroke-width: 0.8; stroke-linecap: round"/>
    </g>
    <g id="text_5">
     <!-- −0.05 -->
     <g style="fill: #262626" transform="translate(7.055226 98.969134) scale(0.07 -0.07)">
      <defs>
       <path id="DejaVuSerif-2e" d="M 603 325 
Q 603 500 722 622 
Q 841 744 1019 744 
Q 1191 744 1312 622 
Q 1434 500 1434 325 
Q 1434 153 1312 31 
Q 1191 -91 1019 -91 
Q 841 -91 722 29 
Q 603 150 603 325 
z
" transform="scale(0.015625)"/>
       <path id="DejaVuSerif-35" d="M 3219 4666 
L 3219 4153 
L 1081 4153 
L 1081 2816 
Q 1244 2928 1461 2984 
Q 1678 3041 1947 3041 
Q 2703 3041 3140 2622 
Q 3578 2203 3578 1478 
Q 3578 738 3136 323 
Q 2694 -91 1894 -91 
Q 1572 -91 1234 -12 
Q 897 66 544 225 
L 544 1131 
L 897 1131 
Q 925 688 1179 453 
Q 1434 219 1894 219 
Q 2388 219 2653 544 
Q 2919 869 2919 1478 
Q 2919 2084 2655 2407 
Q 2391 2731 1894 2731 
Q 1613 2731 1398 2631 
Q 1184 2531 1019 2322 
L 750 2322 
L 750 4666 
L 3219 4666 
z
" transform="scale(0.015625)"/>
      </defs>
      <use xlink:href="#DejaVuSerif-2212"/>
      <use xlink:href="#DejaVuSerif-30" x="83.789062"/>
      <use xlink:href="#DejaVuSerif-2e" x="147.412109"/>
      <use xlink:href="#DejaVuSerif-30" x="179.199219"/>
      <use xlink:href="#DejaVuSerif-35" x="242.822266"/>
     </g>
    </g>
   </g>
   <g id="xtick_5">
    <g id="line2d_7">
     <path d="M 42.597557 86.244471 
L 41.401672 86.792914 
" style="fill: none; stroke: #262626; stroke-width: 0.8; stroke-linecap: round"/>
    </g>
    <g id="text_6">
     <!-- 0.00 -->
     <g style="fill: #262626" transform="translate(23.872121 106.324461) scale(0.07 -0.07)">
      <use xlink:href="#DejaVuSerif-30"/>
      <use xlink:href="#DejaVuSerif-2e" x="63.623047"/>
      <use xlink:href="#DejaVuSerif-30" x="95.410156"/>
      <use xlink:href="#DejaVuSerif-30" x="159.033203"/>
     </g>
    </g>
   </g>
   <g id="xtick_6">
    <g id="line2d_8">
     <path d="M 57.314319 93.530555 
L 56.116873 94.106603 
" style="fill: none; stroke: #262626; stroke-width: 0.8; stroke-linecap: round"/>
    </g>
    <g id="text_7">
     <!-- 0.05 -->
     <g style="fill: #262626" transform="translate(38.452156 114.048523) scale(0.07 -0.07)">
      <use xlink:href="#DejaVuSerif-30"/>
      <use xlink:href="#DejaVuSerif-2e" x="63.623047"/>
      <use xlink:href="#DejaVuSerif-30" x="95.410156"/>
      <use xlink:href="#DejaVuSerif-35" x="159.033203"/>
     </g>
    </g>
   </g>
   <g id="text_8">
    <!-- $r$ [rad/s] -->
    <g style="fill: #262626" transform="translate(6.828594 120.093506) scale(0.06 -0.06)">
     <defs>
      <path id="DejaVuSans-Oblique-72" d="M 2853 2969 
Q 2766 3016 2653 3041 
Q 2541 3066 2413 3066 
Q 1953 3066 1609 2717 
Q 1266 2369 1153 1784 
L 800 0 
L 225 0 
L 909 3500 
L 1484 3500 
L 1375 2956 
Q 1603 3259 1920 3421 
Q 2238 3584 2597 3584 
Q 2691 3584 2781 3573 
Q 2872 3563 2963 3538 
L 2853 2969 
z
" transform="scale(0.015625)"/>
      <path id="DejaVuSerif-72" d="M 3059 3328 
L 3059 2497 
L 2728 2497 
Q 2713 2744 2591 2866 
Q 2469 2988 2234 2988 
Q 1809 2988 1582 2694 
Q 1356 2400 1356 1850 
L 1356 331 
L 2022 331 
L 2022 0 
L 263 0 
L 263 331 
L 781 331 
L 781 2994 
L 231 2994 
L 231 3322 
L 1356 3322 
L 1356 2731 
Q 1525 3078 1790 3245 
Q 2056 3413 2438 3413 
Q 2578 3413 2733 3391 
Q 2888 3369 3059 3328 
z
" transform="scale(0.015625)"/>
      <path id="DejaVuSerif-61" d="M 2547 1044 
L 2547 1747 
L 1806 1747 
Q 1378 1747 1168 1562 
Q 959 1378 959 997 
Q 959 650 1171 447 
Q 1384 244 1747 244 
Q 2106 244 2326 466 
Q 2547 688 2547 1044 
z
M 3122 2075 
L 3122 331 
L 3634 331 
L 3634 0 
L 2547 0 
L 2547 359 
Q 2356 128 2106 18 
Q 1856 -91 1522 -91 
Q 969 -91 644 203 
Q 319 497 319 997 
Q 319 1513 691 1797 
Q 1063 2081 1741 2081 
L 2547 2081 
L 2547 2309 
Q 2547 2688 2317 2895 
Q 2088 3103 1672 3103 
Q 1328 3103 1125 2947 
Q 922 2791 872 2484 
L 575 2484 
L 575 3156 
Q 875 3284 1158 3348 
Q 1441 3413 1709 3413 
Q 2400 3413 2761 3070 
Q 3122 2728 3122 2075 
z
" transform="scale(0.015625)"/>
      <path id="DejaVuSerif-2f" d="M 1656 4666 
L 2156 4666 
L 500 -594 
L 0 -594 
L 1656 4666 
z
" transform="scale(0.015625)"/>
      <path id="DejaVuSerif-73" d="M 359 184 
L 359 959 
L 691 959 
Q 703 588 923 403 
Q 1144 219 1575 219 
Q 1963 219 2166 364 
Q 2369 509 2369 788 
Q 2369 1006 2220 1140 
Q 2072 1275 1594 1428 
L 1178 1569 
Q 750 1706 558 1912 
Q 366 2119 366 2438 
Q 366 2894 700 3153 
Q 1034 3413 1625 3413 
Q 1888 3413 2178 3344 
Q 2469 3275 2778 3144 
L 2778 2419 
L 2447 2419 
Q 2434 2741 2221 2922 
Q 2009 3103 1644 3103 
Q 1281 3103 1095 2975 
Q 909 2847 909 2591 
Q 909 2381 1050 2254 
Q 1191 2128 1613 1997 
L 2069 1856 
Q 2541 1709 2748 1489 
Q 2956 1269 2956 922 
Q 2956 450 2595 179 
Q 2234 -91 1600 -91 
Q 1278 -91 972 -22 
Q 666 47 359 184 
z
" transform="scale(0.015625)"/>
     </defs>
     <use xlink:href="#DejaVuSans-Oblique-72" transform="translate(0 0.015625)"/>
     <use xlink:href="#DejaVuSerif-20" transform="translate(41.113281 0.015625)"/>
     <use xlink:href="#DejaVuSerif-5b" transform="translate(72.900391 0.015625)"/>
     <use xlink:href="#DejaVuSerif-72" transform="translate(111.914062 0.015625)"/>
     <use xlink:href="#DejaVuSerif-61" transform="translate(159.716797 0.015625)"/>
     <use xlink:href="#DejaVuSerif-64" transform="translate(219.335938 0.015625)"/>
     <use xlink:href="#DejaVuSerif-2f" transform="translate(283.349609 0.015625)"/>
     <use xlink:href="#DejaVuSerif-73" transform="translate(317.041016 0.015625)"/>
     <use xlink:href="#DejaVuSerif-5d" transform="translate(368.359375 0.015625)"/>
    </g>
   </g>
  </g>
  <g id="axis3d_3">
   <g id="line2d_9">
    <path d="M 20.027482 75.435791 
L 18.253024 30.23069 
" style="fill: none; stroke: #000000; stroke-linecap: round"/>
   </g>
   <g id="xtick_7">
    <g id="line2d_10">
     <path d="M 20.064523 66.028296 
L 18.863541 66.523677 
" style="fill: none; stroke: #262626; stroke-width: 0.8; stroke-linecap: round"/>
    </g>
    <g id="text_9">
     <!-- −20 -->
     <g style="fill: #262626" transform="translate(-7.598798 71.51213) scale(0.07 -0.07)">
      <defs>
       <path id="DejaVuSerif-32" d="M 819 3553 
L 469 3553 
L 469 4384 
Q 803 4563 1142 4656 
Q 1481 4750 1806 4750 
Q 2534 4750 2956 4397 
Q 3378 4044 3378 3438 
Q 3378 2753 2422 1800 
Q 2347 1728 2309 1691 
L 1131 513 
L 3078 513 
L 3078 1088 
L 3444 1088 
L 3444 0 
L 434 0 
L 434 341 
L 1850 1753 
Q 2319 2222 2519 2614 
Q 2719 3006 2719 3438 
Q 2719 3909 2473 4175 
Q 2228 4441 1797 4441 
Q 1350 4441 1106 4219 
Q 863 3997 819 3553 
z
" transform="scale(0.015625)"/>
      </defs>
      <use xlink:href="#DejaVuSerif-2212"/>
      <use xlink:href="#DejaVuSerif-32" x="83.789062"/>
      <use xlink:href="#DejaVuSerif-30" x="147.412109"/>
     </g>
    </g>
   </g>
   <g id="xtick_8">
    <g id="line2d_11">
     <path d="M 19.561509 53.100843 
L 18.346476 53.577939 
" style="fill: none; stroke: #262626; stroke-width: 0.8; stroke-linecap: round"/>
    </g>
    <g id="text_10">
     <!-- 0 -->
     <g style="fill: #262626" transform="translate(-3.163728 58.578587) scale(0.07 -0.07)">
      <use xlink:href="#DejaVuSerif-30"/>
     </g>
    </g>
   </g>
   <g id="xtick_9">
    <g id="line2d_12">
     <path d="M 19.047397 39.888173 
L 17.817983 40.346052 
" style="fill: none; stroke: #262626; stroke-width: 0.8; stroke-linecap: round"/>
    </g>
    <g id="text_11">
     <!-- 20 -->
     <g style="fill: #262626" transform="translate(-6.131297 45.359517) scale(0.07 -0.07)">
      <use xlink:href="#DejaVuSerif-32"/>
      <use xlink:href="#DejaVuSerif-30" x="63.623047"/>
     </g>
    </g>
   </g>
   <g id="text_12">
    <!-- $N_H$ -->
    <g style="fill: #262626" transform="translate(-14.476953 54.915305) scale(0.06 -0.06)">
     <defs>
      <path id="DejaVuSans-Oblique-4e" d="M 1081 4666 
L 1931 4666 
L 3219 666 
L 4000 4666 
L 4616 4666 
L 3706 0 
L 2853 0 
L 1569 4025 
L 788 0 
L 172 0 
L 1081 4666 
z
" transform="scale(0.015625)"/>
      <path id="DejaVuSans-Oblique-48" d="M 1081 4666 
L 1716 4666 
L 1344 2753 
L 3634 2753 
L 4006 4666 
L 4641 4666 
L 3731 0 
L 3097 0 
L 3531 2222 
L 1241 2222 
L 806 0 
L 172 0 
L 1081 4666 
z
" transform="scale(0.015625)"/>
     </defs>
     <use xlink:href="#DejaVuSans-Oblique-4e" transform="translate(0 0.09375)"/>
     <use xlink:href="#DejaVuSans-Oblique-48" transform="translate(74.804688 -16.3125) scale(0.7)"/>
    </g>
   </g>
  </g>
  <g id="axes_1">
   <g id="Path3DCollection_1">
    <defs>
     <path id="C0_0_31bfd2e5a9" d="M 0 0.176777 
C 0.046882 0.176777 0.09185 0.15815 0.125 0.125 
C 0.15815 0.09185 0.176777 0.046882 0.176777 -0 
C 0.176777 -0.046882 0.15815 -0.09185 0.125 -0.125 
C 0.09185 -0.15815 0.046882 -0.176777 0 -0.176777 
C -0.046882 -0.176777 -0.09185 -0.15815 -0.125 -0.125 
C -0.15815 -0.09185 -0.176777 -0.046882 -0.176777 0 
C -0.176777 0.046882 -0.15815 0.09185 -0.125 0.125 
C -0.09185 0.15815 -0.046882 0.176777 0 0.176777 
z
"/>
    </defs>
    <g clip-path="url(#p75940abef0)">
     <use xlink:href="#C0_0_31bfd2e5a9" x="66.165976" y="17.971048" style="fill-opacity: 0.3; stroke: #000000; stroke-opacity: 0.3"/>
    </g>
    <g clip-path="url(#p75940abef0)">
     <use xlink:href="#C0_0_31bfd2e5a9" x="72.351879" y="26.059477" style="fill-opacity: 0.335236; stroke: #000000; stroke-opacity: 0.335236"/>
    </g>
    <g clip-path="url(#p75940abef0)">
     <use xlink:href="#C0_0_31bfd2e5a9" x="57.950927" y="25.917167" style="fill-opacity: 0.361837; stroke: #000000; stroke-opacity: 0.361837"/>
    </g>
    <g clip-path="url(#p75940abef0)">
     <use xlink:href="#C0_0_31bfd2e5a9" x="69.094125" y="27.44897" style="fill-opacity: 0.37006; stroke: #000000; stroke-opacity: 0.37006"/>
    </g>
    <g clip-path="url(#p75940abef0)">
     <use xlink:href="#C0_0_31bfd2e5a9" x="64.145485" y="30.941268" style="fill-opacity: 0.415344; stroke: #000000; stroke-opacity: 0.415344"/>
    </g>
    <g clip-path="url(#p75940abef0)">
     <use xlink:href="#C0_0_31bfd2e5a9" x="75.931601" y="33.925065" style="fill-opacity: 0.422928; stroke: #000000; stroke-opacity: 0.422928"/>
    </g>
    <g clip-path="url(#p75940abef0)">
     <use xlink:href="#C0_0_31bfd2e5a9" x="70.977034" y="40.80632" style="fill-opacity: 0.450334; stroke: #000000; stroke-opacity: 0.450334"/>
    </g>
    <g clip-path="url(#p75940abef0)">
     <use xlink:href="#C0_0_31bfd2e5a9" x="59.133714" y="35.203537" style="fill-opacity: 0.457207; stroke: #000000; stroke-opacity: 0.457207"/>
    </g>
    <g clip-path="url(#p75940abef0)">
     <use xlink:href="#C0_0_31bfd2e5a9" x="55.754661" y="37.703166" style="fill-opacity: 0.487495; stroke: #000000; stroke-opacity: 0.487495"/>
    </g>
    <g clip-path="url(#p75940abef0)">
     <use xlink:href="#C0_0_31bfd2e5a9" x="65.981154" y="41.486799" style="fill-opacity: 0.513388; stroke: #000000; stroke-opacity: 0.513388"/>
    </g>
    <g clip-path="url(#p75940abef0)">
     <use xlink:href="#C0_0_31bfd2e5a9" x="62.605888" y="44.399575" style="fill-opacity: 0.542104; stroke: #000000; stroke-opacity: 0.542104"/>
    </g>
    <g clip-path="url(#p75940abef0)">
     <use xlink:href="#C0_0_31bfd2e5a9" x="84.929408" y="56.100225" style="fill-opacity: 0.548756; stroke: #000000; stroke-opacity: 0.548756"/>
    </g>
    <g clip-path="url(#p75940abef0)">
     <use xlink:href="#C0_0_31bfd2e5a9" x="48.867464" y="40.120561" style="fill-opacity: 0.563981; stroke: #000000; stroke-opacity: 0.563981"/>
    </g>
    <g clip-path="url(#p75940abef0)">
     <use xlink:href="#C0_0_31bfd2e5a9" x="55.757186" y="48.853663" style="fill-opacity: 0.608614; stroke: #000000; stroke-opacity: 0.608614"/>
    </g>
    <g clip-path="url(#p75940abef0)">
     <use xlink:href="#C0_0_31bfd2e5a9" x="79.984277" y="57.596969" style="fill-opacity: 0.609809; stroke: #000000; stroke-opacity: 0.609809"/>
    </g>
    <g clip-path="url(#p75940abef0)">
     <use xlink:href="#C0_0_31bfd2e5a9" x="52.257229" y="48.894002" style="fill-opacity: 0.655257; stroke: #000000; stroke-opacity: 0.655257"/>
    </g>
    <g clip-path="url(#p75940abef0)">
     <use xlink:href="#C0_0_31bfd2e5a9" x="76.646515" y="57.69607" style="fill-opacity: 0.656469; stroke: #000000; stroke-opacity: 0.656469"/>
    </g>
    <g clip-path="url(#p75940abef0)">
     <use xlink:href="#C0_0_31bfd2e5a9" x="83.811403" y="66.6623" style="fill-opacity: 0.702311; stroke: #000000; stroke-opacity: 0.702311"/>
    </g>
    <g clip-path="url(#p75940abef0)">
     <use xlink:href="#C0_0_31bfd2e5a9" x="46.940531" y="50.349193" style="fill-opacity: 0.718223; stroke: #000000; stroke-opacity: 0.718223"/>
    </g>
    <g clip-path="url(#p75940abef0)">
     <use xlink:href="#C0_0_31bfd2e5a9" x="69.820876" y="62.355749" style="fill-opacity: 0.72522; stroke: #000000; stroke-opacity: 0.72522"/>
    </g>
    <g clip-path="url(#p75940abef0)">
     <use xlink:href="#C0_0_31bfd2e5a9" x="66.357339" y="65.449272" style="fill-opacity: 0.755745; stroke: #000000; stroke-opacity: 0.755745"/>
    </g>
    <g clip-path="url(#p75940abef0)">
     <use xlink:href="#C0_0_31bfd2e5a9" x="77.029424" y="69.491771" style="fill-opacity: 0.783719; stroke: #000000; stroke-opacity: 0.783719"/>
    </g>
    <g clip-path="url(#p75940abef0)">
     <use xlink:href="#C0_0_31bfd2e5a9" x="73.570813" y="72.272457" style="fill-opacity: 0.816996; stroke: #000000; stroke-opacity: 0.816996"/>
    </g>
    <g clip-path="url(#p75940abef0)">
     <use xlink:href="#C0_0_31bfd2e5a9" x="61.089474" y="66.400138" style="fill-opacity: 0.824633; stroke: #000000; stroke-opacity: 0.824633"/>
    </g>
    <g clip-path="url(#p75940abef0)">
     <use xlink:href="#C0_0_31bfd2e5a9" x="55.775277" y="73.831856" style="fill-opacity: 0.855402; stroke: #000000; stroke-opacity: 0.855402"/>
    </g>
    <g clip-path="url(#p75940abef0)">
     <use xlink:href="#C0_0_31bfd2e5a9" x="68.320785" y="77.061786" style="fill-opacity: 0.864008; stroke: #000000; stroke-opacity: 0.864008"/>
    </g>
    <g clip-path="url(#p75940abef0)">
     <use xlink:href="#C0_0_31bfd2e5a9" x="62.99926" y="81.17328" style="fill-opacity: 0.916237; stroke: #000000; stroke-opacity: 0.916237"/>
    </g>
    <g clip-path="url(#p75940abef0)">
     <use xlink:href="#C0_0_31bfd2e5a9" x="75.073074" y="82.905574" style="fill-opacity: 0.925879; stroke: #000000; stroke-opacity: 0.925879"/>
    </g>
    <g clip-path="url(#p75940abef0)">
     <use xlink:href="#C0_0_31bfd2e5a9" x="59.402961" y="82.997518" style="fill-opacity: 0.957411; stroke: #000000; stroke-opacity: 0.957411"/>
    </g>
    <g clip-path="url(#p75940abef0)">
     <use xlink:href="#C0_0_31bfd2e5a9" x="66.165976" y="92.272043" style="stroke: #000000"/>
    </g>
   </g>
   <g id="Poly3DCollection_1">
    <path d="M 66.165976 26.757917 
L 64.115471 26.245805 
L 66.165976 29.007061 
L 68.211018 29.50798 
z
" clip-path="url(#p75940abef0)" style="fill: #d65244; fill-opacity: 0.75"/>
    <path d="M 68.211018 29.50798 
L 66.165976 29.007061 
L 68.22393 31.535904 
L 70.263861 32.026705 
z
" clip-path="url(#p75940abef0)" style="fill: #e9785d; fill-opacity: 0.75"/>
    <path d="M 70.263861 32.026705 
L 68.22393 31.535904 
L 70.290508 33.860973 
L 72.325627 34.342596 
z
" clip-path="url(#p75940abef0)" style="fill: #f39577; fill-opacity: 0.75"/>
    <path d="M 64.115471 26.245805 
L 62.048164 26.100231 
L 64.103526 28.87257 
L 66.165976 29.007061 
z
" clip-path="url(#p75940abef0)" style="fill: #c83836; fill-opacity: 0.75"/>
    <path d="M 72.325627 34.342596 
L 70.290508 33.860973 
L 72.366708 36.010696 
L 74.39726 36.483944 
z
" clip-path="url(#p75940abef0)" style="fill: #f7aa8c; fill-opacity: 0.75"/>
    <path d="M 66.165976 29.007061 
L 64.103526 28.87257 
L 66.165976 31.411553 
L 68.22393 31.535904 
z
" clip-path="url(#p75940abef0)" style="fill: #df634e; fill-opacity: 0.75"/>
    <path d="M 68.22393 31.535904 
L 66.165976 31.411553 
L 68.23674 33.745942 
L 70.290508 33.860973 
z
" clip-path="url(#p75940abef0)" style="fill: #ec8165; fill-opacity: 0.75"/>
    <path d="M 62.048164 26.100231 
L 59.965532 26.28642 
L 62.025205 29.069748 
L 64.103526 28.87257 
z
" clip-path="url(#p75940abef0)" style="fill: #bd1f2d; fill-opacity: 0.75"/>
    <path d="M 74.39726 36.483944 
L 72.366708 36.010696 
L 74.453354 38.013373 
L 76.479533 38.478917 
z
" clip-path="url(#p75940abef0)" style="fill: #f7bca1; fill-opacity: 0.75"/>
    <path d="M 64.103526 28.87257 
L 62.025205 29.069748 
L 64.091592 31.6189 
L 66.165976 31.411553 
z
" clip-path="url(#p75940abef0)" style="fill: #d65244; fill-opacity: 0.75"/>
    <path d="M 70.290508 33.860973 
L 68.23674 33.745942 
L 70.31687 35.904282 
L 72.366708 36.010696 
z
" clip-path="url(#p75940abef0)" style="fill: #f49a7b; fill-opacity: 0.75"/>
    <path d="M 76.479533 38.478917 
L 74.453354 38.013373 
L 76.551085 39.897259 
L 78.573035 40.355637 
z
" clip-path="url(#p75940abef0)" style="fill: #f2c9b4; fill-opacity: 0.75"/>
    <path d="M 59.965532 26.28642 
L 57.868825 26.766878 
L 59.932323 29.56112 
L 62.025205 29.069748 
z
" clip-path="url(#p75940abef0)" style="fill: #b50927; fill-opacity: 0.75"/>
    <path d="M 66.165976 31.411553 
L 64.091592 31.6189 
L 66.165976 33.962745 
L 68.23674 33.745942 
z
" clip-path="url(#p75940abef0)" style="fill: #e7745b; fill-opacity: 0.75"/>
    <path d="M 72.366708 36.010696 
L 70.31687 35.904282 
L 72.407241 37.914995 
L 74.453354 38.013373 
z
" clip-path="url(#p75940abef0)" style="fill: #f7ad90; fill-opacity: 0.75"/>
    <path d="M 78.573035 40.355637 
L 76.551085 39.897259 
L 78.66036 41.690625 
L 80.678174 42.142238 
z
" clip-path="url(#p75940abef0)" style="fill: #edd2c3; fill-opacity: 0.75"/>
    <path d="M 62.025205 29.069748 
L 59.932323 29.56112 
L 62.002153 32.120475 
L 64.091592 31.6189 
z
" clip-path="url(#p75940abef0)" style="fill: #d0473d; fill-opacity: 0.75"/>
    <path d="M 68.23674 33.745942 
L 66.165976 33.962745 
L 68.249459 36.129935 
L 70.31687 35.904282 
z
" clip-path="url(#p75940abef0)" style="fill: #f18d6f; fill-opacity: 0.75"/>
    <path d="M 74.453354 38.013373 
L 72.407241 37.914995 
L 74.508545 39.806453 
L 76.551085 39.897259 
z
" clip-path="url(#p75940abef0)" style="fill: #f7bca1; fill-opacity: 0.75"/>
    <path d="M 57.868825 26.766878 
L 55.759035 27.501742 
L 57.825938 30.306844 
L 59.932323 29.56112 
z
" clip-path="url(#p75940abef0)" style="fill: #b40426; fill-opacity: 0.75"/>
    <path d="M 64.091592 31.6189 
L 62.002153 32.120475 
L 64.079651 34.473907 
L 66.165976 33.962745 
z
" clip-path="url(#p75940abef0)" style="fill: #e36b54; fill-opacity: 0.75"/>
    <path d="M 80.678174 42.142238 
L 78.66036 41.690625 
L 80.781447 43.421809 
L 82.79517 43.866926 
z
" clip-path="url(#p75940abef0)" style="fill: #e5d8d1; fill-opacity: 0.75"/>
    <path d="M 70.31687 35.904282 
L 68.249459 36.129935 
L 70.342969 38.148995 
L 72.407241 37.914995 
z
" clip-path="url(#p75940abef0)" style="fill: #f6a283; fill-opacity: 0.75"/>
    <path d="M 59.932323 29.56112 
L 57.825938 30.306844 
L 59.898783 32.876443 
L 62.002153 32.120475 
z
" clip-path="url(#p75940abef0)" style="fill: #cd423b; fill-opacity: 0.75"/>
    <path d="M 76.551085 39.897259 
L 74.508545 39.806453 
L 76.621289 41.607046 
L 78.66036 41.690625 
z
" clip-path="url(#p75940abef0)" style="fill: #f3c7b1; fill-opacity: 0.75"/>
    <path d="M 66.165976 33.962745 
L 64.079651 34.473907 
L 66.165976 36.650162 
L 68.249459 36.129935 
z
" clip-path="url(#p75940abef0)" style="fill: #ee8669; fill-opacity: 0.75"/>
    <path d="M 82.79517 43.866926 
L 80.781447 43.421809 
L 82.914419 45.119259 
L 84.924049 45.55801 
z
" clip-path="url(#p75940abef0)" style="fill: #dcdddd; fill-opacity: 0.75"/>
    <path d="M 55.759035 27.501742 
L 53.636878 28.449137 
L 55.706836 31.265066 
L 57.825938 30.306844 
z
" clip-path="url(#p75940abef0)" style="fill: #b40426; fill-opacity: 0.75"/>
    <path d="M 72.407241 37.914995 
L 70.342969 38.148995 
L 72.447249 40.048403 
L 74.508545 39.806453 
z
" clip-path="url(#p75940abef0)" style="fill: #f7b194; fill-opacity: 0.75"/>
    <path d="M 62.002153 32.120475 
L 59.898783 32.876443 
L 61.978961 35.239586 
L 64.079651 34.473907 
z
" clip-path="url(#p75940abef0)" style="fill: #e16751; fill-opacity: 0.75"/>
    <path d="M 78.66036 41.690625 
L 76.621289 41.607046 
L 78.74579 43.345231 
L 80.781447 43.421809 
z
" clip-path="url(#p75940abef0)" style="fill: #eed0c0; fill-opacity: 0.75"/>
    <path d="M 68.249459 36.129935 
L 66.165976 36.650162 
L 68.262104 38.677856 
L 70.342969 38.148995 
z
" clip-path="url(#p75940abef0)" style="fill: #f49a7b; fill-opacity: 0.75"/>
    <path d="M 57.825938 30.306844 
L 55.706836 31.265066 
L 57.782338 33.844955 
L 59.898783 32.876443 
z
" clip-path="url(#p75940abef0)" style="fill: #cf453c; fill-opacity: 0.75"/>
    <path d="M 84.924049 45.55801 
L 82.914419 45.119259 
L 85.059153 46.811554 
L 87.064638 47.243933 
z
" clip-path="url(#p75940abef0)" style="fill: #d3dbe7; fill-opacity: 0.75"/>
    <path d="M 64.079651 34.473907 
L 61.978961 35.239586 
L 64.067681 37.425101 
L 66.165976 36.650162 
z
" clip-path="url(#p75940abef0)" style="fill: #ed8366; fill-opacity: 0.75"/>
    <path d="M 74.508545 39.806453 
L 72.447249 40.048403 
L 74.562858 41.856651 
L 76.621289 41.607046 
z
" clip-path="url(#p75940abef0)" style="fill: #f6bfa6; fill-opacity: 0.75"/>
    <path d="M 53.636878 28.449137 
L 51.502774 29.565519 
L 53.575509 32.392266 
L 55.706836 31.265066 
z
" clip-path="url(#p75940abef0)" style="fill: #b70d28; fill-opacity: 0.75"/>
    <path d="M 59.898783 32.876443 
L 57.782338 33.844955 
L 59.86483 36.217924 
L 61.978961 35.239586 
z
" clip-path="url(#p75940abef0)" style="fill: #e26952; fill-opacity: 0.75"/>
    <path d="M 70.342969 38.148995 
L 68.262104 38.677856 
L 70.368831 40.585558 
L 72.447249 40.048403 
z
" clip-path="url(#p75940abef0)" style="fill: #f7ac8e; fill-opacity: 0.75"/>
    <path d="M 80.781447 43.421809 
L 78.74579 43.345231 
L 80.882173 45.049574 
L 82.914419 45.119259 
z
" clip-path="url(#p75940abef0)" style="fill: #e7d7ce; fill-opacity: 0.75"/>
    <path d="M 55.706836 31.265066 
L 53.575509 32.392266 
L 55.653385 34.982495 
L 57.782338 33.844955 
z
" clip-path="url(#p75940abef0)" style="fill: #d1493f; fill-opacity: 0.75"/>
    <path d="M 66.165976 36.650162 
L 64.067681 37.425101 
L 66.165976 39.461688 
L 68.262104 38.677856 
z
" clip-path="url(#p75940abef0)" style="fill: #f4987a; fill-opacity: 0.75"/>
    <path d="M 87.064638 47.243933 
L 85.059153 46.811554 
L 87.215318 48.527421 
L 89.216561 48.953283 
z
" clip-path="url(#p75940abef0)" style="fill: #cad8ef; fill-opacity: 0.75"/>
    <path d="M 76.621289 41.607046 
L 74.562858 41.856651 
L 76.690162 43.602303 
L 78.74579 43.345231 
z
" clip-path="url(#p75940abef0)" style="fill: #f2c9b4; fill-opacity: 0.75"/>
    <path d="M 61.978961 35.239586 
L 59.86483 36.217924 
L 61.955575 38.412877 
L 64.067681 37.425101 
z
" clip-path="url(#p75940abef0)" style="fill: #ed8366; fill-opacity: 0.75"/>
    <path d="M 51.502774 29.565519 
L 49.356832 30.80601 
L 51.432141 33.643586 
L 53.575509 32.392266 
z
" clip-path="url(#p75940abef0)" style="fill: #bd1f2d; fill-opacity: 0.75"/>
    <path d="M 72.447249 40.048403 
L 70.368831 40.585558 
L 72.486767 42.401854 
L 74.562858 41.856651 
z
" clip-path="url(#p75940abef0)" style="fill: #f7b99e; fill-opacity: 0.75"/>
    <path d="M 82.914419 45.119259 
L 80.882173 45.049574 
L 83.030361 46.748778 
L 85.059153 46.811554 
z
" clip-path="url(#p75940abef0)" style="fill: #dfdbd9; fill-opacity: 0.75"/>
    <path d="M 57.782338 33.844955 
L 55.653385 34.982495 
L 57.7379 37.365398 
L 59.86483 36.217924 
z
" clip-path="url(#p75940abef0)" style="fill: #e36c55; fill-opacity: 0.75"/>
    <path d="M 68.262104 38.677856 
L 66.165976 39.461688 
L 68.274691 41.377995 
L 70.368831 40.585558 
z
" clip-path="url(#p75940abef0)" style="fill: #f7a98b; fill-opacity: 0.75"/>
    <path d="M 89.216561 48.953283 
L 87.215318 48.527421 
L 89.382374 50.295735 
L 91.379232 50.714794 
z
" clip-path="url(#p75940abef0)" style="fill: #bfd3f6; fill-opacity: 0.75"/>
    <path d="M 78.74579 43.345231 
L 76.690162 43.602303 
L 78.829336 45.314031 
L 80.882173 45.049574 
z
" clip-path="url(#p75940abef0)" style="fill: #edd1c2; fill-opacity: 0.75"/>
    <path d="M 53.575509 32.392266 
L 51.432141 33.643586 
L 53.512181 36.244215 
L 55.653385 34.982495 
z
" clip-path="url(#p75940abef0)" style="fill: #d65244; fill-opacity: 0.75"/>
    <path d="M 64.067681 37.425101 
L 61.955575 38.412877 
L 64.055657 40.458584 
L 66.165976 39.461688 
z
" clip-path="url(#p75940abef0)" style="fill: #f4987a; fill-opacity: 0.75"/>
    <path d="M 74.562858 41.856651 
L 72.486767 42.401854 
L 74.61633 44.155399 
L 76.690162 43.602303 
z
" clip-path="url(#p75940abef0)" style="fill: #f4c5ad; fill-opacity: 0.75"/>
    <path d="M 59.86483 36.217924 
L 57.7379 37.365398 
L 59.830372 39.569943 
L 61.955575 38.412877 
z
" clip-path="url(#p75940abef0)" style="fill: #ef886b; fill-opacity: 0.75"/>
    <path d="M 49.356832 30.80601 
L 47.198835 32.124706 
L 49.276594 34.973152 
L 51.432141 33.643586 
z
" clip-path="url(#p75940abef0)" style="fill: #c43032; fill-opacity: 0.75"/>
    <path d="M 85.059153 46.811554 
L 83.030361 46.748778 
L 85.190071 48.471692 
L 87.215318 48.527421 
z
" clip-path="url(#p75940abef0)" style="fill: #d6dce4; fill-opacity: 0.75"/>
    <path d="M 70.368831 40.585558 
L 68.274691 41.377995 
L 70.394489 43.202689 
L 72.486767 42.401854 
z
" clip-path="url(#p75940abef0)" style="fill: #f7b79b; fill-opacity: 0.75"/>
    <path d="M 55.653385 34.982495 
L 53.512181 36.244215 
L 55.598505 38.637151 
L 57.7379 37.365398 
z
" clip-path="url(#p75940abef0)" style="fill: #e7745b; fill-opacity: 0.75"/>
    <path d="M 91.379232 50.714794 
L 89.382374 50.295735 
L 91.559566 52.145502 
L 93.55185 52.55733 
z
" clip-path="url(#p75940abef0)" style="fill: #b3cdfb; fill-opacity: 0.75"/>
    <path d="M 80.882173 45.049574 
L 78.829336 45.314031 
L 80.980351 47.020642 
L 83.030361 46.748778 
z
" clip-path="url(#p75940abef0)" style="fill: #e7d7ce; fill-opacity: 0.75"/>
    <path d="M 66.165976 39.461688 
L 64.055657 40.458584 
L 66.165976 42.383767 
L 68.274691 41.377995 
z
" clip-path="url(#p75940abef0)" style="fill: #f7aa8c; fill-opacity: 0.75"/>
    <path d="M 51.432141 33.643586 
L 49.276594 34.973152 
L 51.358666 37.584247 
L 53.512181 36.244215 
z
" clip-path="url(#p75940abef0)" style="fill: #dc5d4a; fill-opacity: 0.75"/>
    <path d="M 61.955575 38.412877 
L 59.830372 39.569943 
L 61.931938 41.624967 
L 64.055657 40.458584 
z
" clip-path="url(#p75940abef0)" style="fill: #f59d7e; fill-opacity: 0.75"/>
    <path d="M 76.690162 43.602303 
L 74.61633 44.155399 
L 76.757743 45.874957 
L 78.829336 45.314031 
z
" clip-path="url(#p75940abef0)" style="fill: #f1cdba; fill-opacity: 0.75"/>
    <path d="M 87.215318 48.527421 
L 85.190071 48.471692 
L 87.360811 50.247314 
L 89.382374 50.295735 
z
" clip-path="url(#p75940abef0)" style="fill: #ccd9ed; fill-opacity: 0.75"/>
    <path d="M 47.198835 32.124706 
L 45.028234 33.474971 
L 47.108393 36.334352 
L 49.276594 34.973152 
z
" clip-path="url(#p75940abef0)" style="fill: #cb3e38; fill-opacity: 0.75"/>
    <path d="M 57.7379 37.365398 
L 55.598505 38.637151 
L 57.692484 40.851422 
L 59.830372 39.569943 
z
" clip-path="url(#p75940abef0)" style="fill: #f18d6f; fill-opacity: 0.75"/>
    <path d="M 72.486767 42.401854 
L 70.394489 43.202689 
L 72.525838 44.964505 
L 74.61633 44.155399 
z
" clip-path="url(#p75940abef0)" style="fill: #f5c2aa; fill-opacity: 0.75"/>
    <path d="M 93.55185 52.55733 
L 91.559566 52.145502 
L 93.745917 54.105833 
L 95.733396 54.50986 
z
" clip-path="url(#p75940abef0)" style="fill: #a6c4fe; fill-opacity: 0.75"/>
    <path d="M 53.512181 36.244215 
L 51.358666 37.584247 
L 53.446661 39.987305 
L 55.598505 38.637151 
z
" clip-path="url(#p75940abef0)" style="fill: #ea7b60; fill-opacity: 0.75"/>
    <path d="M 68.274691 41.377995 
L 66.165976 42.383767 
L 68.287244 44.217163 
L 70.394489 43.202689 
z
" clip-path="url(#p75940abef0)" style="fill: #f7b89c; fill-opacity: 0.75"/>
    <path d="M 83.030361 46.748778 
L 80.980351 47.020642 
L 83.142975 48.751094 
L 85.190071 48.471692 
z
" clip-path="url(#p75940abef0)" style="fill: #dedcdb; fill-opacity: 0.75"/>
    <path d="M 64.055657 40.458584 
L 61.931938 41.624967 
L 64.043551 43.559257 
L 66.165976 42.383767 
z
" clip-path="url(#p75940abef0)" style="fill: #f7ad90; fill-opacity: 0.75"/>
    <path d="M 49.276594 34.973152 
L 47.108393 36.334352 
L 49.192445 38.955988 
L 51.358666 37.584247 
z
" clip-path="url(#p75940abef0)" style="fill: #e16751; fill-opacity: 0.75"/>
    <path d="M 78.829336 45.314031 
L 76.757743 45.874957 
L 78.91103 47.589429 
L 80.980351 47.020642 
z
" clip-path="url(#p75940abef0)" style="fill: #ead4c8; fill-opacity: 0.75"/>
    <path d="M 59.830372 39.569943 
L 57.692484 40.851422 
L 59.795309 42.915927 
L 61.931938 41.624967 
z
" clip-path="url(#p75940abef0)" style="fill: #f6a283; fill-opacity: 0.75"/>
    <path d="M 89.382374 50.295735 
L 87.360811 50.247314 
L 89.541871 52.104775 
L 91.559566 52.145502 
z
" clip-path="url(#p75940abef0)" style="fill: #c1d4f4; fill-opacity: 0.75"/>
    <path d="M 45.028234 33.474971 
L 42.844134 34.809692 
L 44.926724 37.680102 
L 47.108393 36.334352 
z
" clip-path="url(#p75940abef0)" style="fill: #d1493f; fill-opacity: 0.75"/>
    <path d="M 55.598505 38.637151 
L 53.446661 39.987305 
L 55.542005 42.211415 
L 57.692484 40.851422 
z
" clip-path="url(#p75940abef0)" style="fill: #f39577; fill-opacity: 0.75"/>
    <path d="M 74.61633 44.155399 
L 72.525838 44.964505 
L 74.669014 46.692291 
L 76.757743 45.874957 
z
" clip-path="url(#p75940abef0)" style="fill: #f1ccb8; fill-opacity: 0.75"/>
    <path d="M 95.733396 54.50986 
L 93.745917 54.105833 
L 95.940225 56.205901 
L 97.922623 56.601413 
z
" clip-path="url(#p75940abef0)" style="fill: #96b7ff; fill-opacity: 0.75"/>
    <path d="M 70.394489 43.202689 
L 68.287244 44.217163 
L 70.419983 45.987582 
L 72.525838 44.964505 
z
" clip-path="url(#p75940abef0)" style="fill: #f5c2aa; fill-opacity: 0.75"/>
    <path d="M 51.358666 37.584247 
L 49.192445 38.955988 
L 51.282053 41.369252 
L 53.446661 39.987305 
z
" clip-path="url(#p75940abef0)" style="fill: #ee8669; fill-opacity: 0.75"/>
    <path d="M 85.190071 48.471692 
L 83.142975 48.751094 
L 85.316762 50.534493 
L 87.360811 50.247314 
z
" clip-path="url(#p75940abef0)" style="fill: #d5dbe5; fill-opacity: 0.75"/>
    <path d="M 66.165976 42.383767 
L 64.043551 43.559257 
L 66.165976 45.401614 
L 68.287244 44.217163 
z
" clip-path="url(#p75940abef0)" style="fill: #f7ba9f; fill-opacity: 0.75"/>
    <path d="M 47.108393 36.334352 
L 44.926724 37.680102 
L 47.012781 40.312363 
L 49.192445 38.955988 
z
" clip-path="url(#p75940abef0)" style="fill: #e57058; fill-opacity: 0.75"/>
    <path d="M 61.931938 41.624967 
L 59.795309 42.915927 
L 61.907986 44.859511 
L 64.043551 43.559257 
z
" clip-path="url(#p75940abef0)" style="fill: #f7b396; fill-opacity: 0.75"/>
    <path d="M 80.980351 47.020642 
L 78.91103 47.589429 
L 81.076005 49.327867 
L 83.142975 48.751094 
z
" clip-path="url(#p75940abef0)" style="fill: #e3d9d3; fill-opacity: 0.75"/>
    <path d="M 91.559566 52.145502 
L 89.541871 52.104775 
L 91.732319 54.073313 
L 93.745917 54.105833 
z
" clip-path="url(#p75940abef0)" style="fill: #b5cdfa; fill-opacity: 0.75"/>
    <path d="M 57.692484 40.851422 
L 55.542005 42.211415 
L 57.645942 44.28553 
L 59.795309 42.915927 
z
" clip-path="url(#p75940abef0)" style="fill: #f7a98b; fill-opacity: 0.75"/>
    <path d="M 97.922623 56.601413 
L 95.940225 56.205901 
L 98.14106 58.474884 
L 100.118061 58.861021 
z
" clip-path="url(#p75940abef0)" style="fill: #84a7fc; fill-opacity: 0.75"/>
    <path d="M 76.757743 45.874957 
L 74.669014 46.692291 
L 76.824088 48.415027 
L 78.91103 47.589429 
z
" clip-path="url(#p75940abef0)" style="fill: #ecd3c5; fill-opacity: 0.75"/>
    <path d="M 42.844134 34.809692 
L 40.645289 36.081502 
L 42.730422 38.963065 
L 44.926724 37.680102 
z
" clip-path="url(#p75940abef0)" style="fill: #d75445; fill-opacity: 0.75"/>
    <path d="M 53.446661 39.987305 
L 51.282053 41.369252 
L 53.378699 43.60329 
L 55.542005 42.211415 
z
" clip-path="url(#p75940abef0)" style="fill: #f59d7e; fill-opacity: 0.75"/>
    <path d="M 72.525838 44.964505 
L 70.419983 45.987582 
L 72.564518 47.723939 
L 74.669014 46.692291 
z
" clip-path="url(#p75940abef0)" style="fill: #f1ccb8; fill-opacity: 0.75"/>
    <path d="M 87.360811 50.247314 
L 85.316762 50.534493 
L 87.50105 52.400081 
L 89.541871 52.104775 
z
" clip-path="url(#p75940abef0)" style="fill: #cbd8ee; fill-opacity: 0.75"/>
    <path d="M 49.192445 38.955988 
L 47.012781 40.312363 
L 49.104024 42.735909 
L 51.282053 41.369252 
z
" clip-path="url(#p75940abef0)" style="fill: #f18f71; fill-opacity: 0.75"/>
    <path d="M 68.287244 44.217163 
L 66.165976 45.401614 
L 68.299786 47.18091 
L 70.419983 45.987582 
z
" clip-path="url(#p75940abef0)" style="fill: #f4c6af; fill-opacity: 0.75"/>
    <path d="M 64.043551 43.559257 
L 61.907986 44.859511 
L 64.031332 46.711036 
L 66.165976 45.401614 
z
" clip-path="url(#p75940abef0)" style="fill: #f6bfa6; fill-opacity: 0.75"/>
    <path d="M 93.745917 54.105833 
L 91.732319 54.073313 
L 93.930999 56.182228 
L 95.940225 56.205901 
z
" clip-path="url(#p75940abef0)" style="fill: #a5c3fe; fill-opacity: 0.75"/>
    <path d="M 83.142975 48.751094 
L 81.076005 49.327867 
L 83.252273 51.119472 
L 85.316762 50.534493 
z
" clip-path="url(#p75940abef0)" style="fill: #dadce0; fill-opacity: 0.75"/>
    <path d="M 100.118061 58.861021 
L 98.14106 58.474884 
L 100.346757 60.94189 
L 102.318006 61.317648 
z
" clip-path="url(#p75940abef0)" style="fill: #7093f3; fill-opacity: 0.75"/>
    <path d="M 44.926724 37.680102 
L 42.730422 38.963065 
L 44.818589 41.606047 
L 47.012781 40.312363 
z
" clip-path="url(#p75940abef0)" style="fill: #e97a5f; fill-opacity: 0.75"/>
    <path d="M 59.795309 42.915927 
L 57.645942 44.28553 
L 59.759533 46.238554 
L 61.907986 44.859511 
z
" clip-path="url(#p75940abef0)" style="fill: #f7b89c; fill-opacity: 0.75"/>
    <path d="M 55.542005 42.211415 
L 53.378699 43.60329 
L 55.483683 45.687112 
L 57.645942 44.28553 
z
" clip-path="url(#p75940abef0)" style="fill: #f7b093; fill-opacity: 0.75"/>
    <path d="M 78.91103 47.589429 
L 76.824088 48.415027 
L 78.990928 50.16185 
L 81.076005 49.327867 
z
" clip-path="url(#p75940abef0)" style="fill: #e4d9d2; fill-opacity: 0.75"/>
    <path d="M 51.282053 41.369252 
L 49.104024 42.735909 
L 51.201991 44.979942 
L 53.378699 43.60329 
z
" clip-path="url(#p75940abef0)" style="fill: #f6a586; fill-opacity: 0.75"/>
    <path d="M 40.645289 36.081502 
L 38.430101 37.242976 
L 40.517967 40.135848 
L 42.730422 38.963065 
z
" clip-path="url(#p75940abef0)" style="fill: #dc5d4a; fill-opacity: 0.75"/>
    <path d="M 89.541871 52.104775 
L 87.50105 52.400081 
L 89.694954 54.377205 
L 91.732319 54.073313 
z
" clip-path="url(#p75940abef0)" style="fill: #bfd3f6; fill-opacity: 0.75"/>
    <path d="M 74.669014 46.692291 
L 72.564518 47.723939 
L 74.720975 49.455291 
L 76.824088 48.415027 
z
" clip-path="url(#p75940abef0)" style="fill: #ebd3c6; fill-opacity: 0.75"/>
    <path d="M 70.419983 45.987582 
L 68.299786 47.18091 
L 70.445359 48.926129 
L 72.564518 47.723939 
z
" clip-path="url(#p75940abef0)" style="fill: #f0cdbb; fill-opacity: 0.75"/>
    <path d="M 102.318006 61.317648 
L 100.346757 60.94189 
L 102.555423 63.635868 
L 104.520524 64.000105 
z
" clip-path="url(#p75940abef0)" style="fill: #5a78e4; fill-opacity: 0.75"/>
    <path d="M 95.940225 56.205901 
L 93.930999 56.182228 
L 96.136522 58.460821 
L 98.14106 58.474884 
z
" clip-path="url(#p75940abef0)" style="fill: #94b6ff; fill-opacity: 0.75"/>
    <path d="M 47.012781 40.312363 
L 44.818589 41.606047 
L 46.911569 44.039943 
L 49.104024 42.735909 
z
" clip-path="url(#p75940abef0)" style="fill: #f39577; fill-opacity: 0.75"/>
    <path d="M 66.165976 45.401614 
L 64.031332 46.711036 
L 66.165976 48.499434 
L 68.299786 47.18091 
z
" clip-path="url(#p75940abef0)" style="fill: #f2c9b4; fill-opacity: 0.75"/>
    <path d="M 85.316762 50.534493 
L 83.252273 51.119472 
L 85.43922 52.99358 
L 87.50105 52.400081 
z
" clip-path="url(#p75940abef0)" style="fill: #cfdaea; fill-opacity: 0.75"/>
    <path d="M 61.907986 44.859511 
L 59.759533 46.238554 
L 61.883648 48.099405 
L 64.031332 46.711036 
z
" clip-path="url(#p75940abef0)" style="fill: #f4c5ad; fill-opacity: 0.75"/>
    <path d="M 57.645942 44.28553 
L 55.483683 45.687112 
L 57.598118 47.649677 
L 59.759533 46.238554 
z
" clip-path="url(#p75940abef0)" style="fill: #f6bfa6; fill-opacity: 0.75"/>
    <path d="M 42.730422 38.963065 
L 40.517967 40.135848 
L 42.60843 42.789656 
L 44.818589 41.606047 
z
" clip-path="url(#p75940abef0)" style="fill: #ec8165; fill-opacity: 0.75"/>
    <path d="M 81.076005 49.327867 
L 78.990928 50.16185 
L 81.169186 51.962042 
L 83.252273 51.119472 
z
" clip-path="url(#p75940abef0)" style="fill: #dcdddd; fill-opacity: 0.75"/>
    <path d="M 53.378699 43.60329 
L 51.201991 44.979942 
L 53.308036 47.073534 
L 55.483683 45.687112 
z
" clip-path="url(#p75940abef0)" style="fill: #f7b79b; fill-opacity: 0.75"/>
    <path d="M 91.732319 54.073313 
L 89.694954 54.377205 
L 91.897362 56.495274 
L 93.930999 56.182228 
z
" clip-path="url(#p75940abef0)" style="fill: #afcafc; fill-opacity: 0.75"/>
    <path d="M 104.520524 64.000105 
L 102.555423 63.635868 
L 104.764925 66.585513 
L 106.723447 66.936943 
z
" clip-path="url(#p75940abef0)" style="fill: #4358cb; fill-opacity: 0.75"/>
    <path d="M 76.824088 48.415027 
L 74.720975 49.455291 
L 76.889269 51.210844 
L 78.990928 50.16185 
z
" clip-path="url(#p75940abef0)" style="fill: #e4d9d2; fill-opacity: 0.75"/>
    <path d="M 98.14106 58.474884 
L 96.136522 58.460821 
L 98.347267 60.938328 
L 100.346757 60.94189 
z
" clip-path="url(#p75940abef0)" style="fill: #80a3fa; fill-opacity: 0.75"/>
    <path d="M 49.104024 42.735909 
L 46.911569 44.039943 
L 49.010954 46.294021 
L 51.201991 44.979942 
z
" clip-path="url(#p75940abef0)" style="fill: #f7ac8e; fill-opacity: 0.75"/>
    <path d="M 38.430101 37.242976 
L 36.19661 38.246784 
L 38.287479 41.151151 
L 40.517967 40.135848 
z
" clip-path="url(#p75940abef0)" style="fill: #de614d; fill-opacity: 0.75"/>
    <path d="M 72.564518 47.723939 
L 70.445359 48.926129 
L 72.602872 50.66639 
L 74.720975 49.455291 
z
" clip-path="url(#p75940abef0)" style="fill: #ead5c9; fill-opacity: 0.75"/>
    <path d="M 68.299786 47.18091 
L 66.165976 48.499434 
L 68.312345 50.253745 
L 70.445359 48.926129 
z
" clip-path="url(#p75940abef0)" style="fill: #edd1c2; fill-opacity: 0.75"/>
    <path d="M 87.50105 52.400081 
L 85.43922 52.99358 
L 87.636009 54.979636 
L 89.694954 54.377205 
z
" clip-path="url(#p75940abef0)" style="fill: #c4d5f3; fill-opacity: 0.75"/>
    <path d="M 44.818589 41.606047 
L 42.60843 42.789656 
L 44.703327 45.233968 
L 46.911569 44.039943 
z
" clip-path="url(#p75940abef0)" style="fill: #f59c7d; fill-opacity: 0.75"/>
    <path d="M 64.031332 46.711036 
L 61.883648 48.099405 
L 64.018968 49.897069 
L 66.165976 48.499434 
z
" clip-path="url(#p75940abef0)" style="fill: #f0cdbb; fill-opacity: 0.75"/>
    <path d="M 59.759533 46.238554 
L 57.598118 47.649677 
L 59.722931 49.519959 
L 61.883648 48.099405 
z
" clip-path="url(#p75940abef0)" style="fill: #f2cab5; fill-opacity: 0.75"/>
    <path d="M 83.252273 51.119472 
L 81.169186 51.962042 
L 83.358299 53.845025 
L 85.43922 52.99358 
z
" clip-path="url(#p75940abef0)" style="fill: #d2dbe8; fill-opacity: 0.75"/>
    <path d="M 55.483683 45.687112 
L 53.308036 47.073534 
L 55.423328 49.045699 
L 57.598118 47.649677 
z
" clip-path="url(#p75940abef0)" style="fill: #f4c5ad; fill-opacity: 0.75"/>
    <path d="M 93.930999 56.182228 
L 91.897362 56.495274 
L 94.106932 58.783702 
L 96.136522 58.460821 
z
" clip-path="url(#p75940abef0)" style="fill: #9ebeff; fill-opacity: 0.75"/>
    <path d="M 100.346757 60.94189 
L 98.347267 60.938328 
L 100.56138 63.643825 
L 102.555423 63.635868 
z
" clip-path="url(#p75940abef0)" style="fill: #688aef; fill-opacity: 0.75"/>
    <path d="M 40.517967 40.135848 
L 38.287479 41.151151 
L 40.380503 43.815905 
L 42.60843 42.789656 
z
" clip-path="url(#p75940abef0)" style="fill: #ee8468; fill-opacity: 0.75"/>
    <path d="M 51.201991 44.979942 
L 49.010954 46.294021 
L 51.118156 48.397412 
L 53.308036 47.073534 
z
" clip-path="url(#p75940abef0)" style="fill: #f6bda2; fill-opacity: 0.75"/>
    <path d="M 78.990928 50.16185 
L 76.889269 51.210844 
L 79.069106 53.019957 
L 81.169186 51.962042 
z
" clip-path="url(#p75940abef0)" style="fill: #dbdcde; fill-opacity: 0.75"/>
    <path d="M 74.720975 49.455291 
L 72.602872 50.66639 
L 74.772292 52.430965 
L 76.889269 51.210844 
z
" clip-path="url(#p75940abef0)" style="fill: #e2dad5; fill-opacity: 0.75"/>
    <path d="M 46.911569 44.039943 
L 44.703327 45.233968 
L 46.804309 47.498118 
L 49.010954 46.294021 
z
" clip-path="url(#p75940abef0)" style="fill: #f7b194; fill-opacity: 0.75"/>
    <path d="M 89.694954 54.377205 
L 87.636009 54.979636 
L 89.841575 57.107146 
L 91.897362 56.495274 
z
" clip-path="url(#p75940abef0)" style="fill: #b6cefa; fill-opacity: 0.75"/>
    <path d="M 70.445359 48.926129 
L 68.312345 50.253745 
L 70.47067 52.003149 
L 72.602872 50.66639 
z
" clip-path="url(#p75940abef0)" style="fill: #e6d7cf; fill-opacity: 0.75"/>
    <path d="M 36.19661 38.246784 
L 33.942495 39.045808 
L 36.036716 41.961889 
L 38.287479 41.151151 
z
" clip-path="url(#p75940abef0)" style="fill: #de614d; fill-opacity: 0.75"/>
    <path d="M 66.165976 48.499434 
L 64.018968 49.897069 
L 66.165976 51.660644 
L 68.312345 50.253745 
z
" clip-path="url(#p75940abef0)" style="fill: #ead5c9; fill-opacity: 0.75"/>
    <path d="M 102.555423 63.635868 
L 100.56138 63.643825 
L 102.776767 66.606125 
L 104.764925 66.585513 
z
" clip-path="url(#p75940abef0)" style="fill: #506bda; fill-opacity: 0.75"/>
    <path d="M 61.883648 48.099405 
L 59.722931 49.519959 
L 61.858853 51.327 
L 64.018968 49.897069 
z
" clip-path="url(#p75940abef0)" style="fill: #edd2c3; fill-opacity: 0.75"/>
    <path d="M 96.136522 58.460821 
L 94.106932 58.783702 
L 96.322086 61.271834 
L 98.347267 60.938328 
z
" clip-path="url(#p75940abef0)" style="fill: #8badfd; fill-opacity: 0.75"/>
    <path d="M 42.60843 42.789656 
L 40.380503 43.815905 
L 42.477579 46.270692 
L 44.703327 45.233968 
z
" clip-path="url(#p75940abef0)" style="fill: #f5a081; fill-opacity: 0.75"/>
    <path d="M 85.43922 52.99358 
L 83.358299 53.845025 
L 85.557477 55.840326 
L 87.636009 54.979636 
z
" clip-path="url(#p75940abef0)" style="fill: #c6d6f1; fill-opacity: 0.75"/>
    <path d="M 57.598118 47.649677 
L 55.423328 49.045699 
L 57.548847 50.925466 
L 59.722931 49.519959 
z
" clip-path="url(#p75940abef0)" style="fill: #efcebd; fill-opacity: 0.75"/>
    <path d="M 53.308036 47.073534 
L 51.118156 48.397412 
L 53.234399 50.37919 
L 55.423328 49.045699 
z
" clip-path="url(#p75940abef0)" style="fill: #f2c9b4; fill-opacity: 0.75"/>
    <path d="M 81.169186 51.962042 
L 79.069106 53.019957 
L 81.25997 54.912122 
L 83.358299 53.845025 
z
" clip-path="url(#p75940abef0)" style="fill: #d2dbe8; fill-opacity: 0.75"/>
    <path d="M 38.287479 41.151151 
L 36.036716 41.961889 
L 38.132645 44.637722 
L 40.380503 43.815905 
z
" clip-path="url(#p75940abef0)" style="fill: #ee8468; fill-opacity: 0.75"/>
    <path d="M 49.010954 46.294021 
L 46.804309 47.498118 
L 48.912844 49.611303 
L 51.118156 48.397412 
z
" clip-path="url(#p75940abef0)" style="fill: #f5c1a9; fill-opacity: 0.75"/>
    <path d="M 91.897362 56.495274 
L 89.841575 57.107146 
L 92.054621 59.405619 
L 94.106932 58.783702 
z
" clip-path="url(#p75940abef0)" style="fill: #a5c3fe; fill-opacity: 0.75"/>
    <path d="M 76.889269 51.210844 
L 74.772292 52.430965 
L 76.953376 54.249277 
L 79.069106 53.019957 
z
" clip-path="url(#p75940abef0)" style="fill: #d9dce1; fill-opacity: 0.75"/>
    <path d="M 98.347267 60.938328 
L 96.322086 61.271834 
L 98.54101 63.988852 
L 100.56138 63.643825 
z
" clip-path="url(#p75940abef0)" style="fill: #7396f5; fill-opacity: 0.75"/>
    <path d="M 72.602872 50.66639 
L 70.47067 52.003149 
L 72.64097 53.776979 
L 74.772292 52.430965 
z
" clip-path="url(#p75940abef0)" style="fill: #dedcdb; fill-opacity: 0.75"/>
    <path d="M 44.703327 45.233968 
L 42.477579 46.270692 
L 44.580415 48.544921 
L 46.804309 47.498118 
z
" clip-path="url(#p75940abef0)" style="fill: #f7b497; fill-opacity: 0.75"/>
    <path d="M 68.312345 50.253745 
L 66.165976 51.660644 
L 68.324952 53.419367 
L 70.47067 52.003149 
z
" clip-path="url(#p75940abef0)" style="fill: #e2dad5; fill-opacity: 0.75"/>
    <path d="M 64.018968 49.897069 
L 61.858853 51.327 
L 64.006423 53.099951 
L 66.165976 51.660644 
z
" clip-path="url(#p75940abef0)" style="fill: #e5d8d1; fill-opacity: 0.75"/>
    <path d="M 87.636009 54.979636 
L 85.557477 55.840326 
L 87.765706 57.977535 
L 89.841575 57.107146 
z
" clip-path="url(#p75940abef0)" style="fill: #b9d0f9; fill-opacity: 0.75"/>
    <path d="M 59.722931 49.519959 
L 57.548847 50.925466 
L 59.685382 52.741935 
L 61.858853 51.327 
z
" clip-path="url(#p75940abef0)" style="fill: #e9d5cb; fill-opacity: 0.75"/>
    <path d="M 33.942495 39.045808 
L 31.665067 39.593223 
L 33.763069 42.521272 
L 36.036716 41.961889 
z
" clip-path="url(#p75940abef0)" style="fill: #dd5f4b; fill-opacity: 0.75"/>
    <path d="M 55.423328 49.045699 
L 53.234399 50.37919 
L 55.360718 52.268446 
L 57.548847 50.925466 
z
" clip-path="url(#p75940abef0)" style="fill: #ecd3c5; fill-opacity: 0.75"/>
    <path d="M 40.380503 43.815905 
L 38.132645 44.637722 
L 40.232239 47.103037 
L 42.477579 46.270692 
z
" clip-path="url(#p75940abef0)" style="fill: #f5a081; fill-opacity: 0.75"/>
    <path d="M 83.358299 53.845025 
L 81.25997 54.912122 
L 83.461124 56.916943 
L 85.557477 55.840326 
z
" clip-path="url(#p75940abef0)" style="fill: #c5d6f2; fill-opacity: 0.75"/>
    <path d="M 94.106932 58.783702 
L 92.054621 59.405619 
L 94.273615 61.904494 
L 96.322086 61.271834 
z
" clip-path="url(#p75940abef0)" style="fill: #90b2fe; fill-opacity: 0.75"/>
    <path d="M 51.118156 48.397412 
L 48.912844 49.611303 
L 51.030212 51.602666 
L 53.234399 50.37919 
z
" clip-path="url(#p75940abef0)" style="fill: #f1cdba; fill-opacity: 0.75"/>
    <path d="M 100.56138 63.643825 
L 98.54101 63.988852 
L 100.761655 66.963679 
L 102.776767 66.606125 
z
" clip-path="url(#p75940abef0)" style="fill: #5a78e4; fill-opacity: 0.75"/>
    <path d="M 79.069106 53.019957 
L 76.953376 54.249277 
L 79.145659 56.150887 
L 81.25997 54.912122 
z
" clip-path="url(#p75940abef0)" style="fill: #cedaeb; fill-opacity: 0.75"/>
    <path d="M 46.804309 47.498118 
L 44.580415 48.544921 
L 46.690539 50.667865 
L 48.912844 49.611303 
z
" clip-path="url(#p75940abef0)" style="fill: #f5c4ac; fill-opacity: 0.75"/>
    <path d="M 74.772292 52.430965 
L 72.64097 53.776979 
L 74.823054 55.604716 
L 76.953376 54.249277 
z
" clip-path="url(#p75940abef0)" style="fill: #d5dbe5; fill-opacity: 0.75"/>
    <path d="M 36.036716 41.961889 
L 33.763069 42.521272 
L 35.862325 45.208327 
L 38.132645 44.637722 
z
" clip-path="url(#p75940abef0)" style="fill: #ed8366; fill-opacity: 0.75"/>
    <path d="M 70.47067 52.003149 
L 68.324952 53.419367 
L 70.495971 55.202625 
L 72.64097 53.776979 
z
" clip-path="url(#p75940abef0)" style="fill: #d9dce1; fill-opacity: 0.75"/>
    <path d="M 89.841575 57.107146 
L 87.765706 57.977535 
L 89.981735 60.286246 
L 92.054621 59.405619 
z
" clip-path="url(#p75940abef0)" style="fill: #a7c5fe; fill-opacity: 0.75"/>
    <path d="M 66.165976 51.660644 
L 64.006423 53.099951 
L 66.165976 54.868105 
L 68.324952 53.419367 
z
" clip-path="url(#p75940abef0)" style="fill: #dddcdc; fill-opacity: 0.75"/>
    <path d="M 42.477579 46.270692 
L 40.232239 47.103037 
L 42.337267 49.387333 
L 44.580415 48.544921 
z
" clip-path="url(#p75940abef0)" style="fill: #f7b599; fill-opacity: 0.75"/>
    <path d="M 61.858853 51.327 
L 59.685382 52.741935 
L 61.833524 54.524314 
L 64.006423 53.099951 
z
" clip-path="url(#p75940abef0)" style="fill: #e0dbd8; fill-opacity: 0.75"/>
    <path d="M 96.322086 61.271834 
L 94.273615 61.904494 
L 96.496788 64.633049 
L 98.54101 63.988852 
z
" clip-path="url(#p75940abef0)" style="fill: #7a9df8; fill-opacity: 0.75"/>
    <path d="M 57.548847 50.925466 
L 55.360718 52.268446 
L 57.497957 54.094338 
L 59.685382 52.741935 
z
" clip-path="url(#p75940abef0)" style="fill: #e4d9d2; fill-opacity: 0.75"/>
    <path d="M 85.557477 55.840326 
L 83.461124 56.916943 
L 85.6716 59.064081 
L 87.765706 57.977535 
z
" clip-path="url(#p75940abef0)" style="fill: #b7cff9; fill-opacity: 0.75"/>
    <path d="M 53.234399 50.37919 
L 51.030212 51.602666 
L 53.157506 53.501361 
L 55.360718 52.268446 
z
" clip-path="url(#p75940abef0)" style="fill: #ead5c9; fill-opacity: 0.75"/>
    <path d="M 31.665067 39.593223 
L 29.361269 39.842545 
L 31.463558 42.782847 
L 33.763069 42.521272 
z
" clip-path="url(#p75940abef0)" style="fill: #d75445; fill-opacity: 0.75"/>
    <path d="M 81.25997 54.912122 
L 79.145659 56.150887 
L 81.348456 58.165461 
L 83.461124 56.916943 
z
" clip-path="url(#p75940abef0)" style="fill: #c3d5f4; fill-opacity: 0.75"/>
    <path d="M 38.132645 44.637722 
L 35.862325 45.208327 
L 37.964854 47.684223 
L 40.232239 47.103037 
z
" clip-path="url(#p75940abef0)" style="fill: #f59d7e; fill-opacity: 0.75"/>
    <path d="M 48.912844 49.611303 
L 46.690539 50.667865 
L 48.809288 52.66874 
L 51.030212 51.602666 
z
" clip-path="url(#p75940abef0)" style="fill: #efcebd; fill-opacity: 0.75"/>
    <path d="M 92.054621 59.405619 
L 89.981735 60.286246 
L 92.204078 62.79598 
L 94.273615 61.904494 
z
" clip-path="url(#p75940abef0)" style="fill: #93b5fe; fill-opacity: 0.75"/>
    <path d="M 76.953376 54.249277 
L 74.823054 55.604716 
L 77.01651 57.515982 
L 79.145659 56.150887 
z
" clip-path="url(#p75940abef0)" style="fill: #cbd8ee; fill-opacity: 0.75"/>
    <path d="M 98.54101 63.988852 
L 96.496788 64.633049 
L 98.722132 67.620297 
L 100.761655 66.963679 
z
" clip-path="url(#p75940abef0)" style="fill: #6180e9; fill-opacity: 0.75"/>
    <path d="M 72.64097 53.776979 
L 70.495971 55.202625 
L 72.678893 57.039958 
L 74.823054 55.604716 
z
" clip-path="url(#p75940abef0)" style="fill: #cfdaea; fill-opacity: 0.75"/>
    <path d="M 44.580415 48.544921 
L 42.337267 49.387333 
L 44.449314 51.519967 
L 46.690539 50.667865 
z
" clip-path="url(#p75940abef0)" style="fill: #f4c5ad; fill-opacity: 0.75"/>
    <path d="M 68.324952 53.419367 
L 66.165976 54.868105 
L 68.337637 56.660905 
L 70.495971 55.202625 
z
" clip-path="url(#p75940abef0)" style="fill: #d4dbe6; fill-opacity: 0.75"/>
    <path d="M 64.006423 53.099951 
L 61.833524 54.524314 
L 63.993661 56.301951 
L 66.165976 54.868105 
z
" clip-path="url(#p75940abef0)" style="fill: #d7dce3; fill-opacity: 0.75"/>
    <path d="M 87.765706 57.977535 
L 85.6716 59.064081 
L 87.890197 61.383205 
L 89.981735 60.286246 
z
" clip-path="url(#p75940abef0)" style="fill: #a6c4fe; fill-opacity: 0.75"/>
    <path d="M 59.685382 52.741935 
L 57.497957 54.094338 
L 59.646763 55.886135 
L 61.833524 54.524314 
z
" clip-path="url(#p75940abef0)" style="fill: #dbdcde; fill-opacity: 0.75"/>
    <path d="M 33.763069 42.521272 
L 31.463558 42.782847 
L 33.566641 45.481285 
L 35.862325 45.208327 
z
" clip-path="url(#p75940abef0)" style="fill: #e97a5f; fill-opacity: 0.75"/>
    <path d="M 55.360718 52.268446 
L 53.157506 53.501361 
L 55.295625 55.336614 
L 57.497957 54.094338 
z
" clip-path="url(#p75940abef0)" style="fill: #e0dbd8; fill-opacity: 0.75"/>
    <path d="M 40.232239 47.103037 
L 37.964854 47.684223 
L 40.072489 49.978555 
L 42.337267 49.387333 
z
" clip-path="url(#p75940abef0)" style="fill: #f7b396; fill-opacity: 0.75"/>
    <path d="M 83.461124 56.916943 
L 81.348456 58.165461 
L 83.560848 60.322729 
L 85.6716 59.064081 
z
" clip-path="url(#p75940abef0)" style="fill: #b5cdfa; fill-opacity: 0.75"/>
    <path d="M 94.273615 61.904494 
L 92.204078 62.79598 
L 94.431012 65.536096 
L 96.496788 64.633049 
z
" clip-path="url(#p75940abef0)" style="fill: #7b9ff9; fill-opacity: 0.75"/>
    <path d="M 51.030212 51.602666 
L 48.809288 52.66874 
L 50.937812 54.576775 
L 53.157506 53.501361 
z
" clip-path="url(#p75940abef0)" style="fill: #e7d7ce; fill-opacity: 0.75"/>
    <path d="M 79.145659 56.150887 
L 77.01651 57.515982 
L 79.220702 59.540504 
L 81.348456 58.165461 
z
" clip-path="url(#p75940abef0)" style="fill: #bed2f6; fill-opacity: 0.75"/>
    <path d="M 74.823054 55.604716 
L 72.678893 57.039958 
L 74.87336 58.961042 
L 77.01651 57.515982 
z
" clip-path="url(#p75940abef0)" style="fill: #c5d6f2; fill-opacity: 0.75"/>
    <path d="M 46.690539 50.667865 
L 44.449314 51.519967 
L 46.569779 53.530239 
L 48.809288 52.66874 
z
" clip-path="url(#p75940abef0)" style="fill: #efcfbf; fill-opacity: 0.75"/>
    <path d="M 89.981735 60.286246 
L 87.890197 61.383205 
L 90.115479 63.903908 
L 92.204078 62.79598 
z
" clip-path="url(#p75940abef0)" style="fill: #93b5fe; fill-opacity: 0.75"/>
    <path d="M 35.862325 45.208327 
L 33.566641 45.481285 
L 35.672601 47.967807 
L 37.964854 47.684223 
z
" clip-path="url(#p75940abef0)" style="fill: #f39778; fill-opacity: 0.75"/>
    <path d="M 70.495971 55.202625 
L 68.337637 56.660905 
L 70.521323 58.507946 
L 72.678893 57.039958 
z
" clip-path="url(#p75940abef0)" style="fill: #cad8ef; fill-opacity: 0.75"/>
    <path d="M 29.361269 39.842545 
L 27.027668 39.74764 
L 29.134828 42.700516 
L 31.463558 42.782847 
z
" clip-path="url(#p75940abef0)" style="fill: #cd423b; fill-opacity: 0.75"/>
    <path d="M 66.165976 54.868105 
L 63.993661 56.301951 
L 66.165976 58.104346 
L 68.337637 56.660905 
z
" clip-path="url(#p75940abef0)" style="fill: #cedaeb; fill-opacity: 0.75"/>
    <path d="M 96.496788 64.633049 
L 94.431012 65.536096 
L 96.660573 68.535687 
L 98.722132 67.620297 
z
" clip-path="url(#p75940abef0)" style="fill: #6282ea; fill-opacity: 0.75"/>
    <path d="M 61.833524 54.524314 
L 59.646763 55.886135 
L 61.807579 57.673244 
L 63.993661 56.301951 
z
" clip-path="url(#p75940abef0)" style="fill: #d3dbe7; fill-opacity: 0.75"/>
    <path d="M 42.337267 49.387333 
L 40.072489 49.978555 
L 42.186874 52.120777 
L 44.449314 51.519967 
z
" clip-path="url(#p75940abef0)" style="fill: #f5c2aa; fill-opacity: 0.75"/>
    <path d="M 85.6716 59.064081 
L 83.560848 60.322729 
L 85.781684 62.652423 
L 87.890197 61.383205 
z
" clip-path="url(#p75940abef0)" style="fill: #a3c2fe; fill-opacity: 0.75"/>
    <path d="M 57.497957 54.094338 
L 55.295625 55.336614 
L 57.445271 57.137759 
L 59.646763 55.886135 
z
" clip-path="url(#p75940abef0)" style="fill: #d7dce3; fill-opacity: 0.75"/>
    <path d="M 53.157506 53.501361 
L 50.937812 54.576775 
L 53.077067 56.421269 
L 55.295625 55.336614 
z
" clip-path="url(#p75940abef0)" style="fill: #dedcdb; fill-opacity: 0.75"/>
    <path d="M 81.348456 58.165461 
L 79.220702 59.540504 
L 81.434764 61.708069 
L 83.560848 60.322729 
z
" clip-path="url(#p75940abef0)" style="fill: #afcafc; fill-opacity: 0.75"/>
    <path d="M 92.204078 62.79598 
L 90.115479 63.903908 
L 92.345766 66.65562 
L 94.431012 65.536096 
z
" clip-path="url(#p75940abef0)" style="fill: #7b9ff9; fill-opacity: 0.75"/>
    <path d="M 31.463558 42.782847 
L 29.134828 42.700516 
L 31.242314 45.410507 
L 33.566641 45.481285 
z
" clip-path="url(#p75940abef0)" style="fill: #e36b54; fill-opacity: 0.75"/>
    <path d="M 37.964854 47.684223 
L 35.672601 47.967807 
L 37.783333 50.272123 
L 40.072489 49.978555 
z
" clip-path="url(#p75940abef0)" style="fill: #f7ac8e; fill-opacity: 0.75"/>
    <path d="M 77.01651 57.515982 
L 74.87336 58.961042 
L 77.078787 60.995662 
L 79.220702 59.540504 
z
" clip-path="url(#p75940abef0)" style="fill: #b9d0f9; fill-opacity: 0.75"/>
    <path d="M 48.809288 52.66874 
L 46.569779 53.530239 
L 48.69987 55.447464 
L 50.937812 54.576775 
z
" clip-path="url(#p75940abef0)" style="fill: #e7d7ce; fill-opacity: 0.75"/>
    <path d="M 72.678893 57.039958 
L 70.521323 58.507946 
L 72.716726 60.43896 
L 74.87336 58.961042 
z
" clip-path="url(#p75940abef0)" style="fill: #bfd3f6; fill-opacity: 0.75"/>
    <path d="M 68.337637 56.660905 
L 66.165976 58.104346 
L 68.350435 59.961152 
L 70.521323 58.507946 
z
" clip-path="url(#p75940abef0)" style="fill: #c4d5f3; fill-opacity: 0.75"/>
    <path d="M 87.890197 61.383205 
L 85.781684 62.652423 
L 88.009576 65.1842 
L 90.115479 63.903908 
z
" clip-path="url(#p75940abef0)" style="fill: #8fb1fe; fill-opacity: 0.75"/>
    <path d="M 44.449314 51.519967 
L 42.186874 52.120777 
L 44.309469 54.140288 
L 46.569779 53.530239 
z
" clip-path="url(#p75940abef0)" style="fill: #f0cdbb; fill-opacity: 0.75"/>
    <path d="M 63.993661 56.301951 
L 61.807579 57.673244 
L 63.980643 59.485227 
L 66.165976 58.104346 
z
" clip-path="url(#p75940abef0)" style="fill: #c9d7f0; fill-opacity: 0.75"/>
    <path d="M 59.646763 55.886135 
L 57.445271 57.137759 
L 59.606945 58.934269 
L 61.807579 57.673244 
z
" clip-path="url(#p75940abef0)" style="fill: #cedaeb; fill-opacity: 0.75"/>
    <path d="M 94.431012 65.536096 
L 92.345766 66.65562 
L 94.579142 69.667502 
L 96.660573 68.535687 
z
" clip-path="url(#p75940abef0)" style="fill: #6282ea; fill-opacity: 0.75"/>
    <path d="M 83.560848 60.322729 
L 81.434764 61.708069 
L 83.657595 64.04847 
L 85.781684 62.652423 
z
" clip-path="url(#p75940abef0)" style="fill: #9ebeff; fill-opacity: 0.75"/>
    <path d="M 33.566641 45.481285 
L 31.242314 45.410507 
L 33.352276 47.907696 
L 35.672601 47.967807 
z
" clip-path="url(#p75940abef0)" style="fill: #f08a6c; fill-opacity: 0.75"/>
    <path d="M 55.295625 55.336614 
L 53.077067 56.421269 
L 55.227814 58.23163 
L 57.445271 57.137759 
z
" clip-path="url(#p75940abef0)" style="fill: #d5dbe5; fill-opacity: 0.75"/>
    <path d="M 27.027668 39.74764 
L 24.660451 39.262704 
L 26.773143 42.228505 
L 29.134828 42.700516 
z
" clip-path="url(#p75940abef0)" style="fill: #be242e; fill-opacity: 0.75"/>
    <path d="M 40.072489 49.978555 
L 37.783333 50.272123 
L 39.900547 52.4238 
L 42.186874 52.120777 
z
" clip-path="url(#p75940abef0)" style="fill: #f6bda2; fill-opacity: 0.75"/>
    <path d="M 79.220702 59.540504 
L 77.078787 60.995662 
L 79.29436 63.173661 
L 81.434764 61.708069 
z
" clip-path="url(#p75940abef0)" style="fill: #a9c6fd; fill-opacity: 0.75"/>
    <path d="M 50.937812 54.576775 
L 48.69987 55.447464 
L 50.840599 57.301022 
L 53.077067 56.421269 
z
" clip-path="url(#p75940abef0)" style="fill: #dddcdc; fill-opacity: 0.75"/>
    <path d="M 90.115479 63.903908 
L 88.009576 65.1842 
L 90.242894 67.947554 
L 92.345766 66.65562 
z
" clip-path="url(#p75940abef0)" style="fill: #799cf8; fill-opacity: 0.75"/>
    <path d="M 74.87336 58.961042 
L 72.716726 60.43896 
L 74.923316 62.483786 
L 77.078787 60.995662 
z
" clip-path="url(#p75940abef0)" style="fill: #b2ccfb; fill-opacity: 0.75"/>
    <path d="M 70.521323 58.507946 
L 68.350435 59.961152 
L 70.546789 61.902156 
L 72.716726 60.43896 
z
" clip-path="url(#p75940abef0)" style="fill: #b9d0f9; fill-opacity: 0.75"/>
    <path d="M 46.569779 53.530239 
L 44.309469 54.140288 
L 46.44154 56.066499 
L 48.69987 55.447464 
z
" clip-path="url(#p75940abef0)" style="fill: #e9d5cb; fill-opacity: 0.75"/>
    <path d="M 66.165976 58.104346 
L 63.980643 59.485227 
L 66.165976 61.351796 
L 68.350435 59.961152 
z
" clip-path="url(#p75940abef0)" style="fill: #bed2f6; fill-opacity: 0.75"/>
    <path d="M 85.781684 62.652423 
L 83.657595 64.04847 
L 85.887857 66.591423 
L 88.009576 65.1842 
z
" clip-path="url(#p75940abef0)" style="fill: #89acfd; fill-opacity: 0.75"/>
    <path d="M 35.672601 47.967807 
L 33.352276 47.907696 
L 35.466675 50.221924 
L 37.783333 50.272123 
z
" clip-path="url(#p75940abef0)" style="fill: #f6a283; fill-opacity: 0.75"/>
    <path d="M 29.134828 42.700516 
L 26.773143 42.228505 
L 28.885685 44.950233 
L 31.242314 45.410507 
z
" clip-path="url(#p75940abef0)" style="fill: #d75445; fill-opacity: 0.75"/>
    <path d="M 61.807579 57.673244 
L 59.606945 58.934269 
L 61.780938 60.755772 
L 63.980643 59.485227 
z
" clip-path="url(#p75940abef0)" style="fill: #c4d5f3; fill-opacity: 0.75"/>
    <path d="M 57.445271 57.137759 
L 55.227814 58.23163 
L 57.390607 60.037407 
L 59.606945 58.934269 
z
" clip-path="url(#p75940abef0)" style="fill: #ccd9ed; fill-opacity: 0.75"/>
    <path d="M 92.345766 66.65562 
L 90.242894 67.947554 
L 92.479767 70.971705 
L 94.579142 69.667502 
z
" clip-path="url(#p75940abef0)" style="fill: #5f7fe8; fill-opacity: 0.75"/>
    <path d="M 42.186874 52.120777 
L 39.900547 52.4238 
L 42.025762 54.452347 
L 44.309469 54.140288 
z
" clip-path="url(#p75940abef0)" style="fill: #f2cab5; fill-opacity: 0.75"/>
    <path d="M 81.434764 61.708069 
L 79.29436 63.173661 
L 81.519031 65.524888 
L 83.657595 64.04847 
z
" clip-path="url(#p75940abef0)" style="fill: #97b8ff; fill-opacity: 0.75"/>
    <path d="M 53.077067 56.421269 
L 50.840599 57.301022 
L 52.992786 59.120409 
L 55.227814 58.23163 
z
" clip-path="url(#p75940abef0)" style="fill: #d5dbe5; fill-opacity: 0.75"/>
    <path d="M 77.078787 60.995662 
L 74.923316 62.483786 
L 77.140332 64.672325 
L 79.29436 63.173661 
z
" clip-path="url(#p75940abef0)" style="fill: #a2c1ff; fill-opacity: 0.75"/>
    <path d="M 72.716726 60.43896 
L 70.546789 61.902156 
L 72.754559 63.957255 
L 74.923316 62.483786 
z
" clip-path="url(#p75940abef0)" style="fill: #aac7fd; fill-opacity: 0.75"/>
    <path d="M 88.009576 65.1842 
L 85.887857 66.591423 
L 88.123969 69.366476 
L 90.242894 67.947554 
z
" clip-path="url(#p75940abef0)" style="fill: #7396f5; fill-opacity: 0.75"/>
    <path d="M 31.242314 45.410507 
L 28.885685 44.950233 
L 31.000295 47.458124 
L 33.352276 47.907696 
z
" clip-path="url(#p75940abef0)" style="fill: #e8765c; fill-opacity: 0.75"/>
    <path d="M 48.69987 55.447464 
L 46.44154 56.066499 
L 48.584161 57.928887 
L 50.840599 57.301022 
z
" clip-path="url(#p75940abef0)" style="fill: #dfdbd9; fill-opacity: 0.75"/>
    <path d="M 37.783333 50.272123 
L 35.466675 50.221924 
L 37.587283 52.382886 
L 39.900547 52.4238 
z
" clip-path="url(#p75940abef0)" style="fill: #f7b396; fill-opacity: 0.75"/>
    <path d="M 68.350435 59.961152 
L 66.165976 61.351796 
L 68.363381 63.3028 
L 70.546789 61.902156 
z
" clip-path="url(#p75940abef0)" style="fill: #b2ccfb; fill-opacity: 0.75"/>
    <path d="M 63.980643 59.485227 
L 61.780938 60.755772 
L 63.967329 62.632046 
L 66.165976 61.351796 
z
" clip-path="url(#p75940abef0)" style="fill: #bad0f8; fill-opacity: 0.75"/>
    <path d="M 83.657595 64.04847 
L 81.519031 65.524888 
L 83.751511 68.079113 
L 85.887857 66.591423 
z
" clip-path="url(#p75940abef0)" style="fill: #84a7fc; fill-opacity: 0.75"/>
    <path d="M 44.309469 54.140288 
L 42.025762 54.452347 
L 44.160307 56.387289 
L 46.44154 56.066499 
z
" clip-path="url(#p75940abef0)" style="fill: #ecd3c5; fill-opacity: 0.75"/>
    <path d="M 59.606945 58.934269 
L 57.390607 60.037407 
L 59.565796 61.868301 
L 61.780938 60.755772 
z
" clip-path="url(#p75940abef0)" style="fill: #c1d4f4; fill-opacity: 0.75"/>
    <path d="M 79.29436 63.173661 
L 77.140332 64.672325 
L 79.366776 67.034477 
L 81.519031 65.524888 
z
" clip-path="url(#p75940abef0)" style="fill: #90b2fe; fill-opacity: 0.75"/>
    <path d="M 90.242894 67.947554 
L 88.123969 69.366476 
L 90.364107 72.402905 
L 92.479767 70.971705 
z
" clip-path="url(#p75940abef0)" style="fill: #5a78e4; fill-opacity: 0.75"/>
    <path d="M 55.227814 58.23163 
L 52.992786 59.120409 
L 55.157044 60.935256 
L 57.390607 60.037407 
z
" clip-path="url(#p75940abef0)" style="fill: #cbd8ee; fill-opacity: 0.75"/>
    <path d="M 33.352276 47.907696 
L 31.000295 47.458124 
L 33.119002 49.782168 
L 35.466675 50.221924 
z
" clip-path="url(#p75940abef0)" style="fill: #f18f71; fill-opacity: 0.75"/>
    <path d="M 74.923316 62.483786 
L 72.754559 63.957255 
L 74.973037 66.156405 
L 77.140332 64.672325 
z
" clip-path="url(#p75940abef0)" style="fill: #9bbcff; fill-opacity: 0.75"/>
    <path d="M 39.900547 52.4238 
L 37.587283 52.382886 
L 39.715685 54.420224 
L 42.025762 54.452347 
z
" clip-path="url(#p75940abef0)" style="fill: #f5c1a9; fill-opacity: 0.75"/>
    <path d="M 50.840599 57.301022 
L 48.584161 57.928887 
L 50.73821 59.757046 
L 52.992786 59.120409 
z
" clip-path="url(#p75940abef0)" style="fill: #d6dce4; fill-opacity: 0.75"/>
    <path d="M 70.546789 61.902156 
L 68.363381 63.3028 
L 70.572436 65.368195 
L 72.754559 63.957255 
z
" clip-path="url(#p75940abef0)" style="fill: #a5c3fe; fill-opacity: 0.75"/>
    <path d="M 85.887857 66.591423 
L 83.751511 68.079113 
L 85.990269 70.865936 
L 88.123969 69.366476 
z
" clip-path="url(#p75940abef0)" style="fill: #6c8ff1; fill-opacity: 0.75"/>
    <path d="M 66.165976 61.351796 
L 63.967329 62.632046 
L 66.165976 64.593009 
L 68.363381 63.3028 
z
" clip-path="url(#p75940abef0)" style="fill: #adc9fd; fill-opacity: 0.75"/>
    <path d="M 46.44154 56.066499 
L 44.160307 56.387289 
L 46.305316 58.258215 
L 48.584161 57.928887 
z
" clip-path="url(#p75940abef0)" style="fill: #e4d9d2; fill-opacity: 0.75"/>
    <path d="M 81.519031 65.524888 
L 79.366776 67.034477 
L 81.601412 69.600067 
L 83.751511 68.079113 
z
" clip-path="url(#p75940abef0)" style="fill: #7da0f9; fill-opacity: 0.75"/>
    <path d="M 61.780938 60.755772 
L 59.565796 61.868301 
L 61.753516 63.754167 
L 63.967329 62.632046 
z
" clip-path="url(#p75940abef0)" style="fill: #b6cefa; fill-opacity: 0.75"/>
    <path d="M 35.466675 50.221924 
L 33.119002 49.782168 
L 35.243647 51.952212 
L 37.587283 52.382886 
z
" clip-path="url(#p75940abef0)" style="fill: #f6a385; fill-opacity: 0.75"/>
    <path d="M 57.390607 60.037407 
L 55.157044 60.935256 
L 57.333779 62.775353 
L 59.565796 61.868301 
z
" clip-path="url(#p75940abef0)" style="fill: #c1d4f4; fill-opacity: 0.75"/>
    <path d="M 77.140332 64.672325 
L 74.973037 66.156405 
L 77.201279 68.529564 
L 79.366776 67.034477 
z
" clip-path="url(#p75940abef0)" style="fill: #89acfd; fill-opacity: 0.75"/>
    <path d="M 88.123969 69.366476 
L 85.990269 70.865936 
L 88.233531 73.914686 
L 90.364107 72.402905 
z
" clip-path="url(#p75940abef0)" style="fill: #5470de; fill-opacity: 0.75"/>
    <path d="M 42.025762 54.452347 
L 39.715685 54.420224 
L 41.853272 56.363587 
L 44.160307 56.387289 
z
" clip-path="url(#p75940abef0)" style="fill: #f1ccb8; fill-opacity: 0.75"/>
    <path d="M 72.754559 63.957255 
L 70.572436 65.368195 
L 72.792487 67.578 
L 74.973037 66.156405 
z
" clip-path="url(#p75940abef0)" style="fill: #94b6ff; fill-opacity: 0.75"/>
    <path d="M 52.992786 59.120409 
L 50.73821 59.757046 
L 52.904359 61.580707 
L 55.157044 60.935256 
z
" clip-path="url(#p75940abef0)" style="fill: #cdd9ec; fill-opacity: 0.75"/>
    <path d="M 83.751511 68.079113 
L 81.601412 69.600067 
L 83.842759 72.398747 
L 85.990269 70.865936 
z
" clip-path="url(#p75940abef0)" style="fill: #6687ed; fill-opacity: 0.75"/>
    <path d="M 68.363381 63.3028 
L 66.165976 64.593009 
L 68.37651 66.668683 
L 70.572436 65.368195 
z
" clip-path="url(#p75940abef0)" style="fill: #9fbfff; fill-opacity: 0.75"/>
    <path d="M 48.584161 57.928887 
L 46.305316 58.258215 
L 48.461727 60.094832 
L 50.73821 59.757046 
z
" clip-path="url(#p75940abef0)" style="fill: #dbdcde; fill-opacity: 0.75"/>
    <path d="M 63.967329 62.632046 
L 61.753516 63.754167 
L 63.953679 65.724998 
L 66.165976 64.593009 
z
" clip-path="url(#p75940abef0)" style="fill: #aac7fd; fill-opacity: 0.75"/>
    <path d="M 79.366776 67.034477 
L 77.201279 68.529564 
L 79.4381 71.106609 
L 81.601412 69.600067 
z
" clip-path="url(#p75940abef0)" style="fill: #7597f6; fill-opacity: 0.75"/>
    <path d="M 37.587283 52.382886 
L 35.243647 51.952212 
L 37.375877 53.998044 
L 39.715685 54.420224 
z
" clip-path="url(#p75940abef0)" style="fill: #f7b497; fill-opacity: 0.75"/>
    <path d="M 59.565796 61.868301 
L 57.333779 62.775353 
L 59.523183 64.67064 
L 61.753516 63.754167 
z
" clip-path="url(#p75940abef0)" style="fill: #b6cefa; fill-opacity: 0.75"/>
    <path d="M 74.973037 66.156405 
L 72.792487 67.578 
L 75.022641 69.962229 
L 77.201279 68.529564 
z
" clip-path="url(#p75940abef0)" style="fill: #82a6fb; fill-opacity: 0.75"/>
    <path d="M 85.990269 70.865936 
L 83.842759 72.398747 
L 86.089092 75.459894 
L 88.233531 73.914686 
z
" clip-path="url(#p75940abef0)" style="fill: #4e68d8; fill-opacity: 0.75"/>
    <path d="M 44.160307 56.387289 
L 41.853272 56.363587 
L 44.001243 58.242699 
L 46.305316 58.258215 
z
" clip-path="url(#p75940abef0)" style="fill: #ebd3c6; fill-opacity: 0.75"/>
    <path d="M 55.157044 60.935256 
L 52.904359 61.580707 
L 55.083072 63.429757 
L 57.333779 62.775353 
z
" clip-path="url(#p75940abef0)" style="fill: #c3d5f4; fill-opacity: 0.75"/>
    <path d="M 70.572436 65.368195 
L 68.37651 66.668683 
L 70.598333 68.889153 
L 72.792487 67.578 
z
" clip-path="url(#p75940abef0)" style="fill: #90b2fe; fill-opacity: 0.75"/>
    <path d="M 81.601412 69.600067 
L 79.4381 71.106609 
L 81.682071 73.917248 
L 83.842759 72.398747 
z
" clip-path="url(#p75940abef0)" style="fill: #5f7fe8; fill-opacity: 0.75"/>
    <path d="M 66.165976 64.593009 
L 63.953679 65.724998 
L 66.165976 67.810891 
L 68.37651 66.668683 
z
" clip-path="url(#p75940abef0)" style="fill: #9dbdff; fill-opacity: 0.75"/>
    <path d="M 50.73821 59.757046 
L 48.461727 60.094832 
L 50.630273 61.926985 
L 52.904359 61.580707 
z
" clip-path="url(#p75940abef0)" style="fill: #d2dbe8; fill-opacity: 0.75"/>
    <path d="M 39.715685 54.420224 
L 37.375877 53.998044 
L 39.517152 55.949465 
L 41.853272 56.363587 
z
" clip-path="url(#p75940abef0)" style="fill: #f5c0a7; fill-opacity: 0.75"/>
    <path d="M 77.201279 68.529564 
L 75.022641 69.962229 
L 77.261768 72.55082 
L 79.4381 71.106609 
z
" clip-path="url(#p75940abef0)" style="fill: #6f92f3; fill-opacity: 0.75"/>
    <path d="M 61.753516 63.754167 
L 59.523183 64.67064 
L 61.725226 66.651196 
L 63.953679 65.724998 
z
" clip-path="url(#p75940abef0)" style="fill: #a9c6fd; fill-opacity: 0.75"/>
    <path d="M 46.305316 58.258215 
L 44.001243 58.242699 
L 46.160595 60.087395 
L 48.461727 60.094832 
z
" clip-path="url(#p75940abef0)" style="fill: #e3d9d3; fill-opacity: 0.75"/>
    <path d="M 83.842759 72.398747 
L 81.682071 73.917248 
L 83.931516 76.990907 
L 86.089092 75.459894 
z
" clip-path="url(#p75940abef0)" style="fill: #485fd1; fill-opacity: 0.75"/>
    <path d="M 72.792487 67.578 
L 70.598333 68.889153 
L 72.830606 71.2845 
L 75.022641 69.962229 
z
" clip-path="url(#p75940abef0)" style="fill: #7ea1fa; fill-opacity: 0.75"/>
    <path d="M 57.333779 62.775353 
L 55.083072 63.429757 
L 57.274599 65.334237 
L 59.523183 64.67064 
z
" clip-path="url(#p75940abef0)" style="fill: #b9d0f9; fill-opacity: 0.75"/>
    <path d="M 68.37651 66.668683 
L 66.165976 67.810891 
L 68.389859 70.042007 
L 70.598333 68.889153 
z
" clip-path="url(#p75940abef0)" style="fill: #8caffe; fill-opacity: 0.75"/>
    <path d="M 79.4381 71.106609 
L 77.261768 72.55082 
L 79.508489 75.373537 
L 81.682071 73.917248 
z
" clip-path="url(#p75940abef0)" style="fill: #5977e3; fill-opacity: 0.75"/>
    <path d="M 52.904359 61.580707 
L 50.630273 61.926985 
L 52.811478 63.784676 
L 55.083072 63.429757 
z
" clip-path="url(#p75940abef0)" style="fill: #c9d7f0; fill-opacity: 0.75"/>
    <path d="M 41.853272 56.363587 
L 39.517152 55.949465 
L 41.668731 57.836348 
L 44.001243 58.242699 
z
" clip-path="url(#p75940abef0)" style="fill: #f2cab5; fill-opacity: 0.75"/>
    <path d="M 63.953679 65.724998 
L 61.725226 66.651196 
L 63.939653 68.747208 
L 66.165976 67.810891 
z
" clip-path="url(#p75940abef0)" style="fill: #9bbcff; fill-opacity: 0.75"/>
    <path d="M 75.022641 69.962229 
L 72.830606 71.2845 
L 75.072251 73.884726 
L 77.261768 72.55082 
z
" clip-path="url(#p75940abef0)" style="fill: #6a8bef; fill-opacity: 0.75"/>
    <path d="M 48.461727 60.094832 
L 46.160595 60.087395 
L 48.332124 61.927654 
L 50.630273 61.926985 
z
" clip-path="url(#p75940abef0)" style="fill: #dadce0; fill-opacity: 0.75"/>
    <path d="M 59.523183 64.67064 
L 57.274599 65.334237 
L 59.47897 67.324327 
L 61.725226 66.651196 
z
" clip-path="url(#p75940abef0)" style="fill: #abc8fd; fill-opacity: 0.75"/>
    <path d="M 81.682071 73.917248 
L 79.508489 75.373537 
L 81.761181 78.45986 
L 83.931516 76.990907 
z
" clip-path="url(#p75940abef0)" style="fill: #4257c9; fill-opacity: 0.75"/>
    <path d="M 70.598333 68.889153 
L 68.389859 70.042007 
L 70.624547 72.448503 
L 72.830606 71.2845 
z
" clip-path="url(#p75940abef0)" style="fill: #7a9df8; fill-opacity: 0.75"/>
    <path d="M 55.083072 63.429757 
L 52.811478 63.784676 
L 55.005651 65.698063 
L 57.274599 65.334237 
z
" clip-path="url(#p75940abef0)" style="fill: #bed2f6; fill-opacity: 0.75"/>
    <path d="M 44.001243 58.242699 
L 41.668731 57.836348 
L 43.831679 59.68868 
L 46.160595 60.087395 
z
" clip-path="url(#p75940abef0)" style="fill: #edd2c3; fill-opacity: 0.75"/>
    <path d="M 66.165976 67.810891 
L 63.939653 68.747208 
L 66.165976 70.988922 
L 68.389859 70.042007 
z
" clip-path="url(#p75940abef0)" style="fill: #8caffe; fill-opacity: 0.75"/>
    <path d="M 77.261768 72.55082 
L 75.072251 73.884726 
L 77.321943 76.719658 
L 79.508489 75.373537 
z
" clip-path="url(#p75940abef0)" style="fill: #5470de; fill-opacity: 0.75"/>
    <path d="M 50.630273 61.926985 
L 48.332124 61.927654 
L 50.516414 63.793612 
L 52.811478 63.784676 
z
" clip-path="url(#p75940abef0)" style="fill: #d2dbe8; fill-opacity: 0.75"/>
    <path d="M 61.725226 66.651196 
L 59.47897 67.324327 
L 61.695984 69.430314 
L 63.939653 68.747208 
z
" clip-path="url(#p75940abef0)" style="fill: #9ebeff; fill-opacity: 0.75"/>
    <path d="M 72.830606 71.2845 
L 70.624547 72.448503 
L 72.869015 75.060454 
L 75.072251 73.884726 
z
" clip-path="url(#p75940abef0)" style="fill: #6788ee; fill-opacity: 0.75"/>
    <path d="M 79.508489 75.373537 
L 77.321943 76.719658 
L 79.578108 79.818839 
L 81.761181 78.45986 
z
" clip-path="url(#p75940abef0)" style="fill: #3d50c3; fill-opacity: 0.75"/>
    <path d="M 57.274599 65.334237 
L 55.005651 65.698063 
L 57.212879 67.697443 
L 59.47897 67.324327 
z
" clip-path="url(#p75940abef0)" style="fill: #b2ccfb; fill-opacity: 0.75"/>
    <path d="M 68.389859 70.042007 
L 66.165976 70.988922 
L 68.403465 73.406582 
L 70.624547 72.448503 
z
" clip-path="url(#p75940abef0)" style="fill: #7a9df8; fill-opacity: 0.75"/>
    <path d="M 46.160595 60.087395 
L 43.831679 59.68868 
L 46.006853 61.536592 
L 48.332124 61.927654 
z
" clip-path="url(#p75940abef0)" style="fill: #e6d7cf; fill-opacity: 0.75"/>
    <path d="M 75.072251 73.884726 
L 72.869015 75.060454 
L 75.121989 77.907761 
L 77.321943 76.719658 
z
" clip-path="url(#p75940abef0)" style="fill: #516ddb; fill-opacity: 0.75"/>
    <path d="M 63.939653 68.747208 
L 61.695984 69.430314 
L 63.92521 71.682548 
L 66.165976 70.988922 
z
" clip-path="url(#p75940abef0)" style="fill: #8db0fe; fill-opacity: 0.75"/>
    <path d="M 52.811478 63.784676 
L 50.516414 63.793612 
L 52.713835 65.715561 
L 55.005651 65.698063 
z
" clip-path="url(#p75940abef0)" style="fill: #c7d7f0; fill-opacity: 0.75"/>
    <path d="M 70.624547 72.448503 
L 68.403465 73.406582 
L 70.65115 76.03035 
L 72.869015 75.060454 
z
" clip-path="url(#p75940abef0)" style="fill: #6687ed; fill-opacity: 0.75"/>
    <path d="M 59.47897 67.324327 
L 57.212879 67.697443 
L 59.433022 69.813222 
L 61.695984 69.430314 
z
" clip-path="url(#p75940abef0)" style="fill: #a3c2fe; fill-opacity: 0.75"/>
    <path d="M 77.321943 76.719658 
L 75.121989 77.907761 
L 77.381949 81.020034 
L 79.578108 79.818839 
z
" clip-path="url(#p75940abef0)" style="fill: #3b4cc0; fill-opacity: 0.75"/>
    <path d="M 48.332124 61.927654 
L 46.006853 61.536592 
L 48.1949 63.410376 
L 50.516414 63.793612 
z
" clip-path="url(#p75940abef0)" style="fill: #dddcdc; fill-opacity: 0.75"/>
    <path d="M 66.165976 70.988922 
L 63.92521 71.682548 
L 66.165976 74.111372 
L 68.403465 73.406582 
z
" clip-path="url(#p75940abef0)" style="fill: #7da0f9; fill-opacity: 0.75"/>
    <path d="M 55.005651 65.698063 
L 52.713835 65.715561 
L 54.924535 67.723936 
L 57.212879 67.697443 
z
" clip-path="url(#p75940abef0)" style="fill: #bbd1f8; fill-opacity: 0.75"/>
    <path d="M 72.869015 75.060454 
L 70.65115 76.03035 
L 72.907812 78.890209 
L 75.121989 77.907761 
z
" clip-path="url(#p75940abef0)" style="fill: #506bda; fill-opacity: 0.75"/>
    <path d="M 61.695984 69.430314 
L 59.433022 69.813222 
L 61.665704 72.075867 
L 63.92521 71.682548 
z
" clip-path="url(#p75940abef0)" style="fill: #94b6ff; fill-opacity: 0.75"/>
    <path d="M 50.516414 63.793612 
L 48.1949 63.410376 
L 50.396253 65.340481 
L 52.713835 65.715561 
z
" clip-path="url(#p75940abef0)" style="fill: #d4dbe6; fill-opacity: 0.75"/>
    <path d="M 68.403465 73.406582 
L 66.165976 74.111372 
L 68.417364 76.747049 
L 70.65115 76.03035 
z
" clip-path="url(#p75940abef0)" style="fill: #688aef; fill-opacity: 0.75"/>
    <path d="M 75.121989 77.907761 
L 72.907812 78.890209 
L 75.171979 82.015852 
L 77.381949 81.020034 
z
" clip-path="url(#p75940abef0)" style="fill: #3b4cc0; fill-opacity: 0.75"/>
    <path d="M 57.212879 67.697443 
L 54.924535 67.723936 
L 57.14843 69.849279 
L 59.433022 69.813222 
z
" clip-path="url(#p75940abef0)" style="fill: #aec9fc; fill-opacity: 0.75"/>
    <path d="M 63.92521 71.682548 
L 61.665704 72.075867 
L 63.910309 74.51584 
L 66.165976 74.111372 
z
" clip-path="url(#p75940abef0)" style="fill: #82a6fb; fill-opacity: 0.75"/>
    <path d="M 70.65115 76.03035 
L 68.417364 76.747049 
L 70.678209 79.61966 
L 72.907812 78.890209 
z
" clip-path="url(#p75940abef0)" style="fill: #536edd; fill-opacity: 0.75"/>
    <path d="M 52.713835 65.715561 
L 50.396253 65.340481 
L 52.611118 67.357499 
L 54.924535 67.723936 
z
" clip-path="url(#p75940abef0)" style="fill: #cad8ef; fill-opacity: 0.75"/>
    <path d="M 59.433022 69.813222 
L 57.14843 69.849279 
L 59.385205 72.122194 
L 61.665704 72.075867 
z
" clip-path="url(#p75940abef0)" style="fill: #9fbfff; fill-opacity: 0.75"/>
    <path d="M 66.165976 74.111372 
L 63.910309 74.51584 
L 66.165976 77.16352 
L 68.417364 76.747049 
z
" clip-path="url(#p75940abef0)" style="fill: #6f92f3; fill-opacity: 0.75"/>
    <path d="M 72.907812 78.890209 
L 70.678209 79.61966 
L 72.947092 82.758995 
L 75.171979 82.015852 
z
" clip-path="url(#p75940abef0)" style="fill: #3c4ec2; fill-opacity: 0.75"/>
    <path d="M 54.924535 67.723936 
L 52.611118 67.357499 
L 54.839475 69.492132 
L 57.14843 69.849279 
z
" clip-path="url(#p75940abef0)" style="fill: #bed2f6; fill-opacity: 0.75"/>
    <path d="M 61.665704 72.075867 
L 59.385205 72.122194 
L 61.6343 74.573283 
L 63.910309 74.51584 
z
" clip-path="url(#p75940abef0)" style="fill: #8db0fe; fill-opacity: 0.75"/>
    <path d="M 68.417364 76.747049 
L 66.165976 77.16352 
L 68.431592 80.049105 
L 70.678209 79.61966 
z
" clip-path="url(#p75940abef0)" style="fill: #5977e3; fill-opacity: 0.75"/>
    <path d="M 57.14843 69.849279 
L 54.839475 69.492132 
L 57.081065 71.775146 
L 59.385205 72.122194 
z
" clip-path="url(#p75940abef0)" style="fill: #aec9fc; fill-opacity: 0.75"/>
    <path d="M 70.678209 79.61966 
L 68.431592 80.049105 
L 70.705791 83.202497 
L 72.947092 82.758995 
z
" clip-path="url(#p75940abef0)" style="fill: #4257c9; fill-opacity: 0.75"/>
    <path d="M 63.910309 74.51584 
L 61.6343 74.573283 
L 63.89491 77.233062 
L 66.165976 77.16352 
z
" clip-path="url(#p75940abef0)" style="fill: #799cf8; fill-opacity: 0.75"/>
    <path d="M 66.165976 77.16352 
L 63.89491 77.233062 
L 66.165976 80.131863 
L 68.431592 80.049105 
z
" clip-path="url(#p75940abef0)" style="fill: #6384eb; fill-opacity: 0.75"/>
    <path d="M 59.385205 72.122194 
L 57.081065 71.775146 
L 59.335387 74.2373 
L 61.6343 74.573283 
z
" clip-path="url(#p75940abef0)" style="fill: #9dbdff; fill-opacity: 0.75"/>
    <path d="M 68.431592 80.049105 
L 66.165976 80.131863 
L 68.446183 83.299721 
L 70.705791 83.202497 
z
" clip-path="url(#p75940abef0)" style="fill: #4b64d5; fill-opacity: 0.75"/>
    <path d="M 61.6343 74.573283 
L 59.335387 74.2373 
L 61.601692 76.909272 
L 63.89491 77.233062 
z
" clip-path="url(#p75940abef0)" style="fill: #89acfd; fill-opacity: 0.75"/>
    <path d="M 63.89491 77.233062 
L 61.601692 76.909272 
L 63.878975 79.821551 
L 66.165976 80.131863 
z
" clip-path="url(#p75940abef0)" style="fill: #7295f4; fill-opacity: 0.75"/>
    <path d="M 66.165976 80.131863 
L 63.878975 79.821551 
L 66.165976 83.004328 
L 68.446183 83.299721 
z
" clip-path="url(#p75940abef0)" style="fill: #5977e3; fill-opacity: 0.75"/>
   </g>
  </g>
 </g>
 <defs>
  <clipPath id="p75940abef0">
   <rect x="13.114344" y="3.00024" width="103.311072" height="103.311072"/>
  </clipPath>
 </defs>
</svg>
