<?xml version="1.0" encoding="utf-8" standalone="no"?>
<!DOCTYPE svg PUBLIC "-//W3C//DTD SVG 1.1//EN"
  "http://www.w3.org/Graphics/SVG/1.1/DTD/svg11.dtd">
<svg xmlns:xlink="http://www.w3.org/1999/xlink" width="194.30964pt" height="109.311552pt" viewBox="0 0 194.30964 109.311552" xmlns="http://www.w3.org/2000/svg" version="1.1">
 <metadata>
  <rdf:RDF xmlns:dc="http://purl.org/dc/elements/1.1/" xmlns:cc="http://creativecommons.org/ns#" xmlns:rdf="http://www.w3.org/1999/02/22-rdf-syntax-ns#">
   <cc:Work>
    <dc:type rdf:resource="http://purl.org/dc/dcmitype/StillImage"/>
    <dc:date>2024-12-09T10:32:21.164932</dc:date>
    <dc:format>image/svg+xml</dc:format>
    <dc:creator>
     <cc:Agent>
      <dc:title>Matplotlib v3.8.2, https://matplotlib.org/</dc:title>
     </cc:Agent>
    </dc:creator>
   </cc:Work>
  </rdf:RDF>
 </metadata>
 <defs>
  <style type="text/css">*{stroke-linejoin: round; stroke-linecap: butt}</style>
 </defs>
 <g id="figure_1">
  <g id="patch_1">
   <path d="M 0 109.311552 
L 194.30964 109.311552 
L 194.30964 0 
L 0 0 
z
" style="fill: #ffffff"/>
  </g>
  <g id="patch_2">
   <path d="M 45.499284 106.311312 
L 148.810356 106.311312 
L 148.810356 3.00024 
L 45.499284 3.00024 
z
" style="fill: #ffffff"/>
  </g>
  <g id="pane3d_1">
   <g id="patch_3">
    <path d="M 98.550916 55.750323 
L 144.689409 75.435791 
L 146.463867 30.23069 
L 98.550916 13.104267 
" style="fill: #f2f2f2; opacity: 0.5; stroke: #f2f2f2; stroke-linejoin: miter"/>
   </g>
  </g>
  <g id="pane3d_2">
   <g id="patch_4">
    <path d="M 98.550916 55.750323 
L 52.412422 75.435791 
L 50.637964 30.23069 
L 98.550916 13.104267 
" style="fill: #e6e6e6; opacity: 0.5; stroke: #e6e6e6; stroke-linejoin: miter"/>
   </g>
  </g>
  <g id="pane3d_3">
   <g id="patch_5">
    <path d="M 98.550916 55.750323 
L 52.412422 75.435791 
L 98.550916 98.307962 
L 144.689409 75.435791 
" style="fill: #ececec; opacity: 0.5; stroke: #ececec; stroke-linejoin: miter"/>
   </g>
  </g>
  <g id="grid3d_1">
   <g id="Line3DCollection_1">
    <path d="M 141.960171 76.788753 
L 95.807204 56.920956 
L 95.708844 14.120162 
" style="fill: none; stroke: #b0b0b0; stroke-width: 0.1"/>
    <path d="M 122.517466 86.427058 
L 76.314208 65.237846 
L 75.491004 21.347003 
" style="fill: none; stroke: #b0b0b0; stroke-width: 0.1"/>
    <path d="M 101.708386 96.742714 
L 55.553394 74.095663 
L 53.907879 29.061863 
" style="fill: none; stroke: #b0b0b0; stroke-width: 0.1"/>
   </g>
  </g>
  <g id="grid3d_2">
   <g id="Line3DCollection_2">
    <path d="M 105.024099 15.418098 
L 104.798803 58.416049 
L 58.629999 78.518022 
" style="fill: none; stroke: #b0b0b0; stroke-width: 0.1"/>
    <path d="M 117.262919 19.792849 
L 116.599312 63.450859 
L 70.399072 84.352288 
" style="fill: none; stroke: #b0b0b0; stroke-width: 0.1"/>
    <path d="M 129.992527 24.34303 
L 128.855923 68.68027 
L 82.658903 90.429837 
" style="fill: none; stroke: #b0b0b0; stroke-width: 0.1"/>
    <path d="M 143.243046 29.079412 
L 141.595603 74.115787 
L 95.440841 96.766209 
" style="fill: none; stroke: #b0b0b0; stroke-width: 0.1"/>
   </g>
  </g>
  <g id="grid3d_3">
   <g id="Line3DCollection_3">
    <path d="M 52.282707 72.131243 
L 98.550916 52.625104 
L 144.819124 72.131243 
" style="fill: none; stroke: #b0b0b0; stroke-width: 0.1"/>
    <path d="M 51.452223 50.974285 
L 98.550916 32.645244 
L 145.649608 50.974285 
" style="fill: none; stroke: #b0b0b0; stroke-width: 0.1"/>
   </g>
  </g>
  <g id="axis3d_1">
   <g id="line2d_1">
    <path d="M 144.689409 75.435791 
L 98.550916 98.307962 
" style="fill: none; stroke: #000000; stroke-linecap: round"/>
   </g>
   <g id="xtick_1">
    <g id="line2d_2">
     <path d="M 141.563407 76.617955 
L 142.755135 77.130966 
" style="fill: none; stroke: #262626; stroke-width: 0.8; stroke-linecap: round"/>
    </g>
    <g id="text_1">
     <!-- −10 -->
     <g style="fill: #262626" transform="translate(144.918483 96.124632) scale(0.07 -0.07)">
      <defs>
       <path id="DejaVuSerif-2212" d="M 678 2259 
L 4684 2259 
L 4684 1753 
L 678 1753 
L 678 2259 
z
" transform="scale(0.015625)"/>
       <path id="DejaVuSerif-31" d="M 909 0 
L 909 331 
L 1722 331 
L 1722 4213 
L 781 3603 
L 781 4013 
L 1919 4750 
L 2350 4750 
L 2350 331 
L 3163 331 
L 3163 0 
L 909 0 
z
" transform="scale(0.015625)"/>
       <path id="DejaVuSerif-30" d="M 2034 219 
Q 2513 219 2750 744 
Q 2988 1269 2988 2328 
Q 2988 3391 2750 3916 
Q 2513 4441 2034 4441 
Q 1556 4441 1318 3916 
Q 1081 3391 1081 2328 
Q 1081 1269 1318 744 
Q 1556 219 2034 219 
z
M 2034 -91 
Q 1275 -91 848 546 
Q 422 1184 422 2328 
Q 422 3475 848 4112 
Q 1275 4750 2034 4750 
Q 2797 4750 3222 4112 
Q 3647 3475 3647 2328 
Q 3647 1184 3222 546 
Q 2797 -91 2034 -91 
z
" transform="scale(0.015625)"/>
      </defs>
      <use xlink:href="#DejaVuSerif-2212"/>
      <use xlink:href="#DejaVuSerif-31" x="83.789062"/>
      <use xlink:href="#DejaVuSerif-30" x="147.412109"/>
     </g>
    </g>
   </g>
   <g id="xtick_2">
    <g id="line2d_3">
     <path d="M 122.119334 86.244471 
L 123.315219 86.792914 
" style="fill: none; stroke: #262626; stroke-width: 0.8; stroke-linecap: round"/>
    </g>
    <g id="text_2">
     <!-- 0 -->
     <g style="fill: #262626" transform="translate(130.824927 106.324461) scale(0.07 -0.07)">
      <use xlink:href="#DejaVuSerif-30"/>
     </g>
    </g>
   </g>
   <g id="xtick_3">
    <g id="line2d_4">
     <path d="M 101.30967 96.547074 
L 102.507362 97.13475 
" style="fill: none; stroke: #262626; stroke-width: 0.8; stroke-linecap: round"/>
    </g>
    <g id="text_3">
     <!-- 10 -->
     <g style="fill: #262626" transform="translate(107.979792 117.247392) scale(0.07 -0.07)">
      <use xlink:href="#DejaVuSerif-31"/>
      <use xlink:href="#DejaVuSerif-30" x="63.623047"/>
     </g>
    </g>
   </g>
   <g id="text_4">
    <!-- $\beta$ [deg] -->
    <g style="fill: #262626" transform="translate(134.818298 120.057881) scale(0.06 -0.06)">
     <defs>
      <path id="DejaVuSans-Oblique-3b2" d="M 872 216 
L 572 -1331 
L -6 -1331 
L 928 3478 
Q 1206 4903 2538 4903 
Q 3888 4903 3659 3700 
Q 3503 2844 2894 2531 
Q 3713 2250 3553 1416 
Q 3272 -69 1759 -66 
Q 1097 -63 872 216 
z
M 1019 966 
Q 1259 422 1875 425 
Q 2775 425 2966 1406 
Q 3138 2288 1675 2219 
L 1778 2750 
Q 2909 2731 3106 3750 
Q 3241 4438 2509 4434 
Q 1691 4434 1503 3459 
L 1019 966 
z
" transform="scale(0.015625)"/>
      <path id="DejaVuSerif-20" transform="scale(0.015625)"/>
      <path id="DejaVuSerif-5b" d="M 550 4863 
L 2003 4863 
L 2003 4531 
L 1147 4531 
L 1147 -513 
L 2003 -513 
L 2003 -844 
L 550 -844 
L 550 4863 
z
" transform="scale(0.015625)"/>
      <path id="DejaVuSerif-64" d="M 3359 331 
L 3909 331 
L 3909 0 
L 2784 0 
L 2784 519 
Q 2616 206 2355 57 
Q 2094 -91 1709 -91 
Q 1097 -91 708 395 
Q 319 881 319 1663 
Q 319 2444 706 2928 
Q 1094 3413 1709 3413 
Q 2094 3413 2355 3264 
Q 2616 3116 2784 2803 
L 2784 4531 
L 2241 4531 
L 2241 4863 
L 3359 4863 
L 3359 331 
z
M 2784 1497 
L 2784 1825 
Q 2784 2422 2554 2737 
Q 2325 3053 1888 3053 
Q 1444 3053 1217 2703 
Q 991 2353 991 1663 
Q 991 975 1217 622 
Q 1444 269 1888 269 
Q 2325 269 2554 583 
Q 2784 897 2784 1497 
z
" transform="scale(0.015625)"/>
      <path id="DejaVuSerif-65" d="M 3469 1600 
L 991 1600 
L 991 1575 
Q 991 903 1244 561 
Q 1497 219 1991 219 
Q 2369 219 2611 417 
Q 2853 616 2950 1006 
L 3413 1006 
Q 3275 459 2904 184 
Q 2534 -91 1931 -91 
Q 1203 -91 761 389 
Q 319 869 319 1663 
Q 319 2450 753 2931 
Q 1188 3413 1894 3413 
Q 2647 3413 3050 2948 
Q 3453 2484 3469 1600 
z
M 2791 1931 
Q 2772 2513 2545 2808 
Q 2319 3103 1894 3103 
Q 1497 3103 1269 2806 
Q 1041 2509 991 1931 
L 2791 1931 
z
" transform="scale(0.015625)"/>
      <path id="DejaVuSerif-67" d="M 3359 2988 
L 3359 72 
Q 3359 -644 2965 -1033 
Q 2572 -1422 1844 -1422 
Q 1516 -1422 1216 -1362 
Q 916 -1303 641 -1184 
L 641 -488 
L 941 -488 
Q 997 -813 1206 -963 
Q 1416 -1113 1806 -1113 
Q 2313 -1113 2548 -827 
Q 2784 -541 2784 72 
L 2784 519 
Q 2616 206 2355 57 
Q 2094 -91 1709 -91 
Q 1097 -91 708 395 
Q 319 881 319 1663 
Q 319 2444 706 2928 
Q 1094 3413 1709 3413 
Q 2094 3413 2355 3264 
Q 2616 3116 2784 2803 
L 2784 3322 
L 3909 3322 
L 3909 2988 
L 3359 2988 
z
M 2784 1825 
Q 2784 2422 2554 2737 
Q 2325 3053 1888 3053 
Q 1444 3053 1217 2703 
Q 991 2353 991 1663 
Q 991 975 1217 622 
Q 1444 269 1888 269 
Q 2325 269 2554 583 
Q 2784 897 2784 1497 
L 2784 1825 
z
" transform="scale(0.015625)"/>
      <path id="DejaVuSerif-5d" d="M 1947 4863 
L 1947 -844 
L 494 -844 
L 494 -513 
L 1350 -513 
L 1350 4531 
L 494 4531 
L 494 4863 
L 1947 4863 
z
" transform="scale(0.015625)"/>
     </defs>
     <use xlink:href="#DejaVuSans-Oblique-3b2" transform="translate(0 0.390625)"/>
     <use xlink:href="#DejaVuSerif-20" transform="translate(63.818359 0.390625)"/>
     <use xlink:href="#DejaVuSerif-5b" transform="translate(95.605469 0.390625)"/>
     <use xlink:href="#DejaVuSerif-64" transform="translate(134.619141 0.390625)"/>
     <use xlink:href="#DejaVuSerif-65" transform="translate(198.632812 0.390625)"/>
     <use xlink:href="#DejaVuSerif-67" transform="translate(257.8125 0.390625)"/>
     <use xlink:href="#DejaVuSerif-5d" transform="translate(321.826172 0.390625)"/>
    </g>
   </g>
  </g>
  <g id="axis3d_2">
   <g id="line2d_5">
    <path d="M 52.412422 75.435791 
L 98.550916 98.307962 
" style="fill: none; stroke: #000000; stroke-linecap: round"/>
   </g>
   <g id="xtick_4">
    <g id="line2d_6">
     <path d="M 59.027068 78.345138 
L 57.834418 78.86442 
" style="fill: none; stroke: #262626; stroke-width: 0.8; stroke-linecap: round"/>
    </g>
    <g id="text_5">
     <!-- −0.05 -->
     <g style="fill: #262626" transform="translate(37.52442 97.95423) scale(0.07 -0.07)">
      <defs>
       <path id="DejaVuSerif-2e" d="M 603 325 
Q 603 500 722 622 
Q 841 744 1019 744 
Q 1191 744 1312 622 
Q 1434 500 1434 325 
Q 1434 153 1312 31 
Q 1191 -91 1019 -91 
Q 841 -91 722 29 
Q 603 150 603 325 
z
" transform="scale(0.015625)"/>
       <path id="DejaVuSerif-35" d="M 3219 4666 
L 3219 4153 
L 1081 4153 
L 1081 2816 
Q 1244 2928 1461 2984 
Q 1678 3041 1947 3041 
Q 2703 3041 3140 2622 
Q 3578 2203 3578 1478 
Q 3578 738 3136 323 
Q 2694 -91 1894 -91 
Q 1572 -91 1234 -12 
Q 897 66 544 225 
L 544 1131 
L 897 1131 
Q 925 688 1179 453 
Q 1434 219 1894 219 
Q 2388 219 2653 544 
Q 2919 869 2919 1478 
Q 2919 2084 2655 2407 
Q 2391 2731 1894 2731 
Q 1613 2731 1398 2631 
Q 1184 2531 1019 2322 
L 750 2322 
L 750 4666 
L 3219 4666 
z
" transform="scale(0.015625)"/>
      </defs>
      <use xlink:href="#DejaVuSerif-2212"/>
      <use xlink:href="#DejaVuSerif-30" x="83.789062"/>
      <use xlink:href="#DejaVuSerif-2e" x="147.412109"/>
      <use xlink:href="#DejaVuSerif-30" x="179.199219"/>
      <use xlink:href="#DejaVuSerif-35" x="242.822266"/>
     </g>
    </g>
   </g>
   <g id="xtick_5">
    <g id="line2d_7">
     <path d="M 70.796977 84.172272 
L 69.601785 84.712988 
" style="fill: none; stroke: #262626; stroke-width: 0.8; stroke-linecap: round"/>
    </g>
    <g id="text_6">
     <!-- 0.00 -->
     <g style="fill: #262626" transform="translate(52.11163 104.128337) scale(0.07 -0.07)">
      <use xlink:href="#DejaVuSerif-30"/>
      <use xlink:href="#DejaVuSerif-2e" x="63.623047"/>
      <use xlink:href="#DejaVuSerif-30" x="95.410156"/>
      <use xlink:href="#DejaVuSerif-30" x="159.033203"/>
     </g>
    </g>
   </g>
   <g id="xtick_6">
    <g id="line2d_8">
     <path d="M 83.05737 90.242239 
L 81.860459 90.805744 
" style="fill: none; stroke: #262626; stroke-width: 0.8; stroke-linecap: round"/>
    </g>
    <g id="text_7">
     <!-- 0.05 -->
     <g style="fill: #262626" transform="translate(64.256097 110.562108) scale(0.07 -0.07)">
      <use xlink:href="#DejaVuSerif-30"/>
      <use xlink:href="#DejaVuSerif-2e" x="63.623047"/>
      <use xlink:href="#DejaVuSerif-30" x="95.410156"/>
      <use xlink:href="#DejaVuSerif-35" x="159.033203"/>
     </g>
    </g>
   </g>
   <g id="xtick_7">
    <g id="line2d_9">
     <path d="M 95.839557 96.570539 
L 94.641864 97.158306 
" style="fill: none; stroke: #262626; stroke-width: 0.8; stroke-linecap: round"/>
    </g>
    <g id="text_8">
     <!-- 0.10 -->
     <g style="fill: #262626" transform="translate(76.922296 117.272278) scale(0.07 -0.07)">
      <use xlink:href="#DejaVuSerif-30"/>
      <use xlink:href="#DejaVuSerif-2e" x="63.623047"/>
      <use xlink:href="#DejaVuSerif-31" x="95.410156"/>
      <use xlink:href="#DejaVuSerif-30" x="159.033203"/>
     </g>
    </g>
   </g>
   <g id="text_9">
    <!-- $r$ [rad/s] -->
    <g style="fill: #262626" transform="translate(39.213534 120.093506) scale(0.06 -0.06)">
     <defs>
      <path id="DejaVuSans-Oblique-72" d="M 2853 2969 
Q 2766 3016 2653 3041 
Q 2541 3066 2413 3066 
Q 1953 3066 1609 2717 
Q 1266 2369 1153 1784 
L 800 0 
L 225 0 
L 909 3500 
L 1484 3500 
L 1375 2956 
Q 1603 3259 1920 3421 
Q 2238 3584 2597 3584 
Q 2691 3584 2781 3573 
Q 2872 3563 2963 3538 
L 2853 2969 
z
" transform="scale(0.015625)"/>
      <path id="DejaVuSerif-72" d="M 3059 3328 
L 3059 2497 
L 2728 2497 
Q 2713 2744 2591 2866 
Q 2469 2988 2234 2988 
Q 1809 2988 1582 2694 
Q 1356 2400 1356 1850 
L 1356 331 
L 2022 331 
L 2022 0 
L 263 0 
L 263 331 
L 781 331 
L 781 2994 
L 231 2994 
L 231 3322 
L 1356 3322 
L 1356 2731 
Q 1525 3078 1790 3245 
Q 2056 3413 2438 3413 
Q 2578 3413 2733 3391 
Q 2888 3369 3059 3328 
z
" transform="scale(0.015625)"/>
      <path id="DejaVuSerif-61" d="M 2547 1044 
L 2547 1747 
L 1806 1747 
Q 1378 1747 1168 1562 
Q 959 1378 959 997 
Q 959 650 1171 447 
Q 1384 244 1747 244 
Q 2106 244 2326 466 
Q 2547 688 2547 1044 
z
M 3122 2075 
L 3122 331 
L 3634 331 
L 3634 0 
L 2547 0 
L 2547 359 
Q 2356 128 2106 18 
Q 1856 -91 1522 -91 
Q 969 -91 644 203 
Q 319 497 319 997 
Q 319 1513 691 1797 
Q 1063 2081 1741 2081 
L 2547 2081 
L 2547 2309 
Q 2547 2688 2317 2895 
Q 2088 3103 1672 3103 
Q 1328 3103 1125 2947 
Q 922 2791 872 2484 
L 575 2484 
L 575 3156 
Q 875 3284 1158 3348 
Q 1441 3413 1709 3413 
Q 2400 3413 2761 3070 
Q 3122 2728 3122 2075 
z
" transform="scale(0.015625)"/>
      <path id="DejaVuSerif-2f" d="M 1656 4666 
L 2156 4666 
L 500 -594 
L 0 -594 
L 1656 4666 
z
" transform="scale(0.015625)"/>
      <path id="DejaVuSerif-73" d="M 359 184 
L 359 959 
L 691 959 
Q 703 588 923 403 
Q 1144 219 1575 219 
Q 1963 219 2166 364 
Q 2369 509 2369 788 
Q 2369 1006 2220 1140 
Q 2072 1275 1594 1428 
L 1178 1569 
Q 750 1706 558 1912 
Q 366 2119 366 2438 
Q 366 2894 700 3153 
Q 1034 3413 1625 3413 
Q 1888 3413 2178 3344 
Q 2469 3275 2778 3144 
L 2778 2419 
L 2447 2419 
Q 2434 2741 2221 2922 
Q 2009 3103 1644 3103 
Q 1281 3103 1095 2975 
Q 909 2847 909 2591 
Q 909 2381 1050 2254 
Q 1191 2128 1613 1997 
L 2069 1856 
Q 2541 1709 2748 1489 
Q 2956 1269 2956 922 
Q 2956 450 2595 179 
Q 2234 -91 1600 -91 
Q 1278 -91 972 -22 
Q 666 47 359 184 
z
" transform="scale(0.015625)"/>
     </defs>
     <use xlink:href="#DejaVuSans-Oblique-72" transform="translate(0 0.015625)"/>
     <use xlink:href="#DejaVuSerif-20" transform="translate(41.113281 0.015625)"/>
     <use xlink:href="#DejaVuSerif-5b" transform="translate(72.900391 0.015625)"/>
     <use xlink:href="#DejaVuSerif-72" transform="translate(111.914062 0.015625)"/>
     <use xlink:href="#DejaVuSerif-61" transform="translate(159.716797 0.015625)"/>
     <use xlink:href="#DejaVuSerif-64" transform="translate(219.335938 0.015625)"/>
     <use xlink:href="#DejaVuSerif-2f" transform="translate(283.349609 0.015625)"/>
     <use xlink:href="#DejaVuSerif-73" transform="translate(317.041016 0.015625)"/>
     <use xlink:href="#DejaVuSerif-5d" transform="translate(368.359375 0.015625)"/>
    </g>
   </g>
  </g>
  <g id="axis3d_3">
   <g id="line2d_10">
    <path d="M 52.412422 75.435791 
L 50.637964 30.23069 
" style="fill: none; stroke: #000000; stroke-linecap: round"/>
   </g>
   <g id="xtick_8">
    <g id="line2d_11">
     <path d="M 52.680408 71.963577 
L 51.48587 72.46718 
" style="fill: none; stroke: #262626; stroke-width: 0.8; stroke-linecap: round"/>
    </g>
    <g id="text_10">
     <!-- −100 -->
     <g style="fill: #262626" transform="translate(22.891988 77.450149) scale(0.07 -0.07)">
      <use xlink:href="#DejaVuSerif-2212"/>
      <use xlink:href="#DejaVuSerif-31" x="83.789062"/>
      <use xlink:href="#DejaVuSerif-30" x="147.412109"/>
      <use xlink:href="#DejaVuSerif-30" x="211.035156"/>
     </g>
    </g>
   </g>
   <g id="xtick_9">
    <g id="line2d_12">
     <path d="M 51.857565 50.816541 
L 50.640048 51.290353 
" style="fill: none; stroke: #262626; stroke-width: 0.8; stroke-linecap: round"/>
    </g>
    <g id="text_11">
     <!-- 0 -->
     <g style="fill: #262626" transform="translate(29.093156 56.293192) scale(0.07 -0.07)">
      <use xlink:href="#DejaVuSerif-30"/>
     </g>
    </g>
   </g>
   <g id="text_12">
    <!-- $N_H$ -->
    <g style="fill: #262626" transform="translate(17.907987 54.915305) scale(0.06 -0.06)">
     <defs>
      <path id="DejaVuSans-Oblique-4e" d="M 1081 4666 
L 1931 4666 
L 3219 666 
L 4000 4666 
L 4616 4666 
L 3706 0 
L 2853 0 
L 1569 4025 
L 788 0 
L 172 0 
L 1081 4666 
z
" transform="scale(0.015625)"/>
      <path id="DejaVuSans-Oblique-48" d="M 1081 4666 
L 1716 4666 
L 1344 2753 
L 3634 2753 
L 4006 4666 
L 4641 4666 
L 3731 0 
L 3097 0 
L 3531 2222 
L 1241 2222 
L 806 0 
L 172 0 
L 1081 4666 
z
" transform="scale(0.015625)"/>
     </defs>
     <use xlink:href="#DejaVuSans-Oblique-4e" transform="translate(0 0.09375)"/>
     <use xlink:href="#DejaVuSans-Oblique-48" transform="translate(74.804688 -16.3125) scale(0.7)"/>
    </g>
   </g>
  </g>
  <g id="axes_1">
   <g id="Path3DCollection_1">
    <defs>
     <path id="C0_0_87494b1868" d="M 0 1.118034 
C 0.296506 1.118034 0.580908 1.000231 0.790569 0.790569 
C 1.000231 0.580908 1.118034 0.296506 1.118034 -0 
C 1.118034 -0.296506 1.000231 -0.580908 0.790569 -0.790569 
C 0.580908 -1.000231 0.296506 -1.118034 0 -1.118034 
C -0.296506 -1.118034 -0.580908 -1.000231 -0.790569 -0.790569 
C -1.000231 -0.580908 -1.118034 -0.296506 -1.118034 0 
C -1.118034 0.296506 -1.000231 0.580908 -0.790569 0.790569 
C -0.580908 1.000231 -0.296506 1.118034 0 1.118034 
z
"/>
    </defs>
    <g clip-path="url(#p0991bdf768)">
     <use xlink:href="#C0_0_87494b1868" x="98.550916" y="17.971048" style="fill-opacity: 0.3; stroke: #000000; stroke-opacity: 0.3"/>
    </g>
    <g clip-path="url(#p0991bdf768)">
     <use xlink:href="#C0_0_87494b1868" x="102.430181" y="20.851173" style="fill-opacity: 0.333893; stroke: #000000; stroke-opacity: 0.333893"/>
    </g>
    <g clip-path="url(#p0991bdf768)">
     <use xlink:href="#C0_0_87494b1868" x="108.321867" y="26.42608" style="fill-opacity: 0.378908; stroke: #000000; stroke-opacity: 0.378908"/>
    </g>
    <g clip-path="url(#p0991bdf768)">
     <use xlink:href="#C0_0_87494b1868" x="88.666498" y="26.539943" style="fill-opacity: 0.37974; stroke: #000000; stroke-opacity: 0.37974"/>
    </g>
    <g clip-path="url(#p0991bdf768)">
     <use xlink:href="#C0_0_87494b1868" x="92.545605" y="30.328901" style="fill-opacity: 0.409871; stroke: #000000; stroke-opacity: 0.409871"/>
    </g>
    <g clip-path="url(#p0991bdf768)">
     <use xlink:href="#C0_0_87494b1868" x="114.281187" y="31.866415" style="fill-opacity: 0.425508; stroke: #000000; stroke-opacity: 0.425508"/>
    </g>
    <g clip-path="url(#p0991bdf768)">
     <use xlink:href="#C0_0_87494b1868" x="86.503247" y="35.843779" style="fill-opacity: 0.457838; stroke: #000000; stroke-opacity: 0.457838"/>
    </g>
    <g clip-path="url(#p0991bdf768)">
     <use xlink:href="#C0_0_87494b1868" x="98.429953" y="35.648175" style="fill-opacity: 0.457971; stroke: #000000; stroke-opacity: 0.457971"/>
    </g>
    <g clip-path="url(#p0991bdf768)">
     <use xlink:href="#C0_0_87494b1868" x="108.383668" y="36.913205" style="fill-opacity: 0.476459; stroke: #000000; stroke-opacity: 0.476459"/>
    </g>
    <g clip-path="url(#p0991bdf768)">
     <use xlink:href="#C0_0_87494b1868" x="92.38314" y="40.612242" style="fill-opacity: 0.510182; stroke: #000000; stroke-opacity: 0.510182"/>
    </g>
    <g clip-path="url(#p0991bdf768)">
     <use xlink:href="#C0_0_87494b1868" x="102.396776" y="41.970235" style="fill-opacity: 0.52856; stroke: #000000; stroke-opacity: 0.52856"/>
    </g>
    <g clip-path="url(#p0991bdf768)">
     <use xlink:href="#C0_0_87494b1868" x="110.46544" y="45.372824" style="fill-opacity: 0.56281; stroke: #000000; stroke-opacity: 0.56281"/>
    </g>
    <g clip-path="url(#p0991bdf768)">
     <use xlink:href="#C0_0_87494b1868" x="98.354356" y="45.353906" style="fill-opacity: 0.563916; stroke: #000000; stroke-opacity: 0.563916"/>
    </g>
    <g clip-path="url(#p0991bdf768)">
     <use xlink:href="#C0_0_87494b1868" x="84.179556" y="47.765396" style="fill-opacity: 0.578676; stroke: #000000; stroke-opacity: 0.578676"/>
    </g>
    <g clip-path="url(#p0991bdf768)">
     <use xlink:href="#C0_0_87494b1868" x="96.317704" y="47.177065" style="fill-opacity: 0.581052; stroke: #000000; stroke-opacity: 0.581052"/>
    </g>
    <g clip-path="url(#p0991bdf768)">
     <use xlink:href="#C0_0_87494b1868" x="92.214934" y="51.048156" style="fill-opacity: 0.614437; stroke: #000000; stroke-opacity: 0.614437"/>
    </g>
    <g clip-path="url(#p0991bdf768)">
     <use xlink:href="#C0_0_87494b1868" x="90.147896" y="52.889384" style="fill-opacity: 0.631881; stroke: #000000; stroke-opacity: 0.631881"/>
    </g>
    <g clip-path="url(#p0991bdf768)">
     <use xlink:href="#C0_0_87494b1868" x="85.980884" y="56.443723" style="fill-opacity: 0.667947; stroke: #000000; stroke-opacity: 0.667947"/>
    </g>
    <g clip-path="url(#p0991bdf768)">
     <use xlink:href="#C0_0_87494b1868" x="79.652279" y="62.062111" style="fill-opacity: 0.721462; stroke: #000000; stroke-opacity: 0.721462"/>
    </g>
    <g clip-path="url(#p0991bdf768)">
     <use xlink:href="#C0_0_87494b1868" x="102.365883" y="62.951671" style="fill-opacity: 0.743324; stroke: #000000; stroke-opacity: 0.743324"/>
    </g>
    <g clip-path="url(#p0991bdf768)">
     <use xlink:href="#C0_0_87494b1868" x="73.221734" y="67.559028" style="fill-opacity: 0.777052; stroke: #000000; stroke-opacity: 0.777052"/>
    </g>
    <g clip-path="url(#p0991bdf768)">
     <use xlink:href="#C0_0_87494b1868" x="96.096013" y="69.065651" style="fill-opacity: 0.795683; stroke: #000000; stroke-opacity: 0.795683"/>
    </g>
    <g clip-path="url(#p0991bdf768)">
     <use xlink:href="#C0_0_87494b1868" x="79.279294" y="73.651881" style="fill-opacity: 0.829215; stroke: #000000; stroke-opacity: 0.829215"/>
    </g>
    <g clip-path="url(#p0991bdf768)">
     <use xlink:href="#C0_0_87494b1868" x="100.252098" y="73.242071" style="fill-opacity: 0.829984; stroke: #000000; stroke-opacity: 0.829984"/>
    </g>
    <g clip-path="url(#p0991bdf768)">
     <use xlink:href="#C0_0_87494b1868" x="85.441398" y="79.80859" style="fill-opacity: 0.882539; stroke: #000000; stroke-opacity: 0.882539"/>
    </g>
    <g clip-path="url(#p0991bdf768)">
     <use xlink:href="#C0_0_87494b1868" x="89.591256" y="83.408651" style="fill-opacity: 0.921907; stroke: #000000; stroke-opacity: 0.921907"/>
    </g>
    <g clip-path="url(#p0991bdf768)">
     <use xlink:href="#C0_0_87494b1868" x="98.550916" y="92.272043" style="stroke: #000000"/>
    </g>
   </g>
   <g id="Poly3DCollection_1">
    <path d="M 98.550916 19.913972 
L 96.492499 21.520776 
L 98.550916 23.128503 
L 100.609345 21.513165 
z
" clip-path="url(#p0991bdf768)" style="fill: #b40426; fill-opacity: 0.75"/>
    <path d="M 96.492499 21.520776 
L 94.423228 23.162838 
L 96.481557 24.779203 
L 98.550916 23.128503 
z
" clip-path="url(#p0991bdf768)" style="fill: #bd1f2d; fill-opacity: 0.75"/>
    <path d="M 100.609345 21.513165 
L 98.550916 23.128503 
L 100.620332 24.744821 
L 102.678745 23.120882 
z
" clip-path="url(#p0991bdf768)" style="fill: #bd1f2d; fill-opacity: 0.75"/>
    <path d="M 94.423228 23.162838 
L 92.343135 24.83738 
L 94.401309 26.462484 
L 96.481557 24.779203 
z
" clip-path="url(#p0991bdf768)" style="fill: #c83836; fill-opacity: 0.75"/>
    <path d="M 98.550916 23.128503 
L 96.481557 24.779203 
L 98.550916 26.404228 
L 100.620332 24.744821 
z
" clip-path="url(#p0991bdf768)" style="fill: #c73635; fill-opacity: 0.75"/>
    <path d="M 102.678745 23.120882 
L 100.620332 24.744821 
L 102.700836 26.3698 
L 104.759203 24.73719 
z
" clip-path="url(#p0991bdf768)" style="fill: #c73635; fill-opacity: 0.75"/>
    <path d="M 92.343135 24.83738 
L 90.252238 26.541534 
L 92.31019 28.175475 
L 94.401309 26.462484 
z
" clip-path="url(#p0991bdf768)" style="fill: #d1493f; fill-opacity: 0.75"/>
    <path d="M 96.481557 24.779203 
L 94.401309 26.462484 
L 96.470539 28.096318 
L 98.550916 26.404228 
z
" clip-path="url(#p0991bdf768)" style="fill: #d0473d; fill-opacity: 0.75"/>
    <path d="M 100.620332 24.744821 
L 98.550916 26.404228 
L 100.631391 28.037984 
L 102.700836 26.3698 
z
" clip-path="url(#p0991bdf768)" style="fill: #d0473d; fill-opacity: 0.75"/>
    <path d="M 104.759203 24.73719 
L 102.700836 26.3698 
L 104.792519 28.00351 
L 106.850809 26.362159 
z
" clip-path="url(#p0991bdf768)" style="fill: #d0473d; fill-opacity: 0.75"/>
    <path d="M 90.252238 26.541534 
L 88.150531 28.272351 
L 90.208202 29.915223 
L 92.31019 28.175475 
z
" clip-path="url(#p0991bdf768)" style="fill: #d95847; fill-opacity: 0.75"/>
    <path d="M 94.401309 26.462484 
L 92.31019 28.175475 
L 94.379227 29.818216 
L 96.470539 28.096318 
z
" clip-path="url(#p0991bdf768)" style="fill: #d95847; fill-opacity: 0.75"/>
    <path d="M 98.550916 26.404228 
L 96.470539 28.096318 
L 98.550916 29.738953 
L 100.631391 28.037984 
z
" clip-path="url(#p0991bdf768)" style="fill: #d85646; fill-opacity: 0.75"/>
    <path d="M 102.700836 26.3698 
L 100.631391 28.037984 
L 102.723074 29.68054 
L 104.792519 28.00351 
z
" clip-path="url(#p0991bdf768)" style="fill: #d85646; fill-opacity: 0.75"/>
    <path d="M 106.850809 26.362159 
L 104.792519 28.00351 
L 106.895469 29.64602 
L 108.953652 27.995858 
z
" clip-path="url(#p0991bdf768)" style="fill: #d75445; fill-opacity: 0.75"/>
    <path d="M 88.150531 28.272351 
L 86.037989 30.026812 
L 88.095323 31.678706 
L 90.208202 29.915223 
z
" clip-path="url(#p0991bdf768)" style="fill: #e26952; fill-opacity: 0.75"/>
    <path d="M 92.31019 28.175475 
L 90.208202 29.915223 
L 92.276985 31.566967 
L 94.379227 29.818216 
z
" clip-path="url(#p0991bdf768)" style="fill: #e16751; fill-opacity: 0.75"/>
    <path d="M 96.470539 28.096318 
L 94.379227 29.818216 
L 96.459439 31.46983 
L 98.550916 29.738953 
z
" clip-path="url(#p0991bdf768)" style="fill: #e0654f; fill-opacity: 0.75"/>
    <path d="M 100.631391 28.037984 
L 98.550916 29.738953 
L 100.642528 31.390461 
L 102.723074 29.68054 
z
" clip-path="url(#p0991bdf768)" style="fill: #e0654f; fill-opacity: 0.75"/>
    <path d="M 104.792519 28.00351 
L 102.723074 29.68054 
L 104.826055 31.331969 
L 106.895469 29.64602 
z
" clip-path="url(#p0991bdf768)" style="fill: #df634e; fill-opacity: 0.75"/>
    <path d="M 108.953652 27.995858 
L 106.895469 29.64602 
L 109.009778 31.297402 
L 111.067824 29.638358 
z
" clip-path="url(#p0991bdf768)" style="fill: #df634e; fill-opacity: 0.75"/>
    <path d="M 86.037989 30.026812 
L 83.914564 31.801838 
L 85.971511 33.462842 
L 88.095323 31.678706 
z
" clip-path="url(#p0991bdf768)" style="fill: #e8765c; fill-opacity: 0.75"/>
    <path d="M 90.208202 29.915223 
L 88.095323 31.678706 
L 90.163797 33.339544 
L 92.276985 31.566967 
z
" clip-path="url(#p0991bdf768)" style="fill: #e8765c; fill-opacity: 0.75"/>
    <path d="M 94.379227 29.818216 
L 92.276985 31.566967 
L 94.356971 33.227655 
L 96.459439 31.46983 
z
" clip-path="url(#p0991bdf768)" style="fill: #e7745b; fill-opacity: 0.75"/>
    <path d="M 98.550916 29.738953 
L 96.459439 31.46983 
L 98.550916 33.130388 
L 100.642528 31.390461 
z
" clip-path="url(#p0991bdf768)" style="fill: #e67259; fill-opacity: 0.75"/>
    <path d="M 102.723074 29.68054 
L 100.642528 31.390461 
L 102.745469 33.050912 
L 104.826055 31.331969 
z
" clip-path="url(#p0991bdf768)" style="fill: #e57058; fill-opacity: 0.75"/>
    <path d="M 106.895469 29.64602 
L 104.826055 31.331969 
L 106.940426 32.992342 
L 109.009778 31.297402 
z
" clip-path="url(#p0991bdf768)" style="fill: #e57058; fill-opacity: 0.75"/>
    <path d="M 111.067824 29.638358 
L 109.009778 31.297402 
L 111.135539 32.957729 
L 113.193415 31.28973 
z
" clip-path="url(#p0991bdf768)" style="fill: #e57058; fill-opacity: 0.75"/>
    <path d="M 83.914564 31.801838 
L 81.780188 33.594301 
L 83.836702 35.264497 
L 85.971511 33.462842 
z
" clip-path="url(#p0991bdf768)" style="fill: #ee8468; fill-opacity: 0.75"/>
    <path d="M 88.095323 31.678706 
L 85.971511 33.462842 
L 88.039625 35.132862 
L 90.163797 33.339544 
z
" clip-path="url(#p0991bdf768)" style="fill: #ed8366; fill-opacity: 0.75"/>
    <path d="M 92.276985 31.566967 
L 90.163797 33.339544 
L 92.243501 35.0094 
L 94.356971 33.227655 
z
" clip-path="url(#p0991bdf768)" style="fill: #ec8165; fill-opacity: 0.75"/>
    <path d="M 96.459439 31.46983 
L 94.356971 33.227655 
L 96.44825 34.897361 
L 98.550916 33.130388 
z
" clip-path="url(#p0991bdf768)" style="fill: #ec7f63; fill-opacity: 0.75"/>
    <path d="M 100.642528 31.390461 
L 98.550916 33.130388 
L 100.653749 34.799963 
L 102.745469 33.050912 
z
" clip-path="url(#p0991bdf768)" style="fill: #ec7f63; fill-opacity: 0.75"/>
    <path d="M 104.826055 31.331969 
L 102.745469 33.050912 
L 104.85983 34.720381 
L 106.940426 32.992342 
z
" clip-path="url(#p0991bdf768)" style="fill: #eb7d62; fill-opacity: 0.75"/>
    <path d="M 109.009778 31.297402 
L 106.940426 32.992342 
L 109.06628 34.661732 
L 111.135539 32.957729 
z
" clip-path="url(#p0991bdf768)" style="fill: #eb7d62; fill-opacity: 0.75"/>
    <path d="M 113.193415 31.28973 
L 111.135539 32.957729 
L 113.272845 34.627072 
L 115.33052 32.950046 
z
" clip-path="url(#p0991bdf768)" style="fill: #eb7d62; fill-opacity: 0.75"/>
    <path d="M 81.780188 33.594301 
L 79.634766 35.401032 
L 81.690807 37.080501 
L 83.836702 35.264497 
z
" clip-path="url(#p0991bdf768)" style="fill: #f29274; fill-opacity: 0.75"/>
    <path d="M 85.971511 33.462842 
L 83.836702 35.264497 
L 85.904409 36.943784 
L 88.039625 35.132862 
z
" clip-path="url(#p0991bdf768)" style="fill: #f29072; fill-opacity: 0.75"/>
    <path d="M 90.163797 33.339544 
L 88.039625 35.132862 
L 90.118996 36.811973 
L 92.243501 35.0094 
z
" clip-path="url(#p0991bdf768)" style="fill: #f18f71; fill-opacity: 0.75"/>
    <path d="M 94.356971 33.227655 
L 92.243501 35.0094 
L 94.334526 36.688346 
L 96.44825 34.897361 
z
" clip-path="url(#p0991bdf768)" style="fill: #f18d6f; fill-opacity: 0.75"/>
    <path d="M 98.550916 33.130388 
L 96.44825 34.897361 
L 98.550916 36.576157 
L 100.653749 34.799963 
z
" clip-path="url(#p0991bdf768)" style="fill: #f08b6e; fill-opacity: 0.75"/>
    <path d="M 102.745469 33.050912 
L 100.653749 34.799963 
L 102.768033 36.478629 
L 104.85983 34.720381 
z
" clip-path="url(#p0991bdf768)" style="fill: #f08a6c; fill-opacity: 0.75"/>
    <path d="M 106.940426 32.992342 
L 104.85983 34.720381 
L 106.985704 36.39894 
L 109.06628 34.661732 
z
" clip-path="url(#p0991bdf768)" style="fill: #f08a6c; fill-opacity: 0.75"/>
    <path d="M 111.135539 32.957729 
L 109.06628 34.661732 
L 111.20371 36.340213 
L 113.272845 34.627072 
z
" clip-path="url(#p0991bdf768)" style="fill: #f08a6c; fill-opacity: 0.75"/>
    <path d="M 115.33052 32.950046 
L 113.272845 34.627072 
L 115.42179 36.305507 
L 117.47923 34.61938 
z
" clip-path="url(#p0991bdf768)" style="fill: #ef886b; fill-opacity: 0.75"/>
    <path d="M 79.634766 35.401032 
L 77.478181 37.218833 
L 79.533713 38.907652 
L 81.690807 37.080501 
z
" clip-path="url(#p0991bdf768)" style="fill: #f59f80; fill-opacity: 0.75"/>
    <path d="M 83.836702 35.264497 
L 81.690807 37.080501 
L 83.758067 38.769136 
L 85.904409 36.943784 
z
" clip-path="url(#p0991bdf768)" style="fill: #f59d7e; fill-opacity: 0.75"/>
    <path d="M 88.039625 35.132862 
L 85.904409 36.943784 
L 87.983402 38.632237 
L 90.118996 36.811973 
z
" clip-path="url(#p0991bdf768)" style="fill: #f59c7d; fill-opacity: 0.75"/>
    <path d="M 92.243501 35.0094 
L 90.118996 36.811973 
L 92.209717 38.50025 
L 94.334526 36.688346 
z
" clip-path="url(#p0991bdf768)" style="fill: #f49a7b; fill-opacity: 0.75"/>
    <path d="M 96.44825 34.897361 
L 94.334526 36.688346 
L 96.436967 38.376457 
L 98.550916 36.576157 
z
" clip-path="url(#p0991bdf768)" style="fill: #f4987a; fill-opacity: 0.75"/>
    <path d="M 100.653749 34.799963 
L 98.550916 36.576157 
L 100.66506 38.264118 
L 102.768033 36.478629 
z
" clip-path="url(#p0991bdf768)" style="fill: #f39778; fill-opacity: 0.75"/>
    <path d="M 104.85983 34.720381 
L 102.768033 36.478629 
L 104.89386 38.16646 
L 106.985704 36.39894 
z
" clip-path="url(#p0991bdf768)" style="fill: #f39577; fill-opacity: 0.75"/>
    <path d="M 109.06628 34.661732 
L 106.985704 36.39894 
L 109.123185 38.086665 
L 111.20371 36.340213 
z
" clip-path="url(#p0991bdf768)" style="fill: #f39577; fill-opacity: 0.75"/>
    <path d="M 113.272845 34.627072 
L 111.20371 36.340213 
L 113.352811 38.027859 
L 115.42179 36.305507 
z
" clip-path="url(#p0991bdf768)" style="fill: #f39475; fill-opacity: 0.75"/>
    <path d="M 117.47923 34.61938 
L 115.42179 36.305507 
L 117.582469 37.993107 
L 119.639642 36.297804 
z
" clip-path="url(#p0991bdf768)" style="fill: #f39475; fill-opacity: 0.75"/>
    <path d="M 77.478181 37.218833 
L 75.310292 39.044489 
L 77.365283 40.74273 
L 79.533713 38.907652 
z
" clip-path="url(#p0991bdf768)" style="fill: #f7aa8c; fill-opacity: 0.75"/>
    <path d="M 81.690807 37.080501 
L 79.533713 38.907652 
L 81.600491 40.605711 
L 83.758067 38.769136 
z
" clip-path="url(#p0991bdf768)" style="fill: #f7a98b; fill-opacity: 0.75"/>
    <path d="M 85.904409 36.943784 
L 83.758067 38.769136 
L 85.83664 40.46701 
L 87.983402 38.632237 
z
" clip-path="url(#p0991bdf768)" style="fill: #f7a889; fill-opacity: 0.75"/>
    <path d="M 90.118996 36.811973 
L 87.983402 38.632237 
L 90.073772 40.329929 
L 92.209717 38.50025 
z
" clip-path="url(#p0991bdf768)" style="fill: #f6a586; fill-opacity: 0.75"/>
    <path d="M 94.334526 36.688346 
L 92.209717 38.50025 
L 94.311881 40.197766 
L 96.436967 38.376457 
z
" clip-path="url(#p0991bdf768)" style="fill: #f6a385; fill-opacity: 0.75"/>
    <path d="M 98.550916 36.576157 
L 96.436967 38.376457 
L 98.550916 40.073808 
L 100.66506 38.264118 
z
" clip-path="url(#p0991bdf768)" style="fill: #f6a283; fill-opacity: 0.75"/>
    <path d="M 102.768033 36.478629 
L 100.66506 38.264118 
L 102.790778 39.96132 
L 104.89386 38.16646 
z
" clip-path="url(#p0991bdf768)" style="fill: #f6a283; fill-opacity: 0.75"/>
    <path d="M 106.985704 36.39894 
L 104.89386 38.16646 
L 107.031326 39.863532 
L 109.123185 38.086665 
z
" clip-path="url(#p0991bdf768)" style="fill: #f5a081; fill-opacity: 0.75"/>
    <path d="M 111.20371 36.340213 
L 109.123185 38.086665 
L 111.27237 39.78363 
L 113.352811 38.027859 
z
" clip-path="url(#p0991bdf768)" style="fill: #f59f80; fill-opacity: 0.75"/>
    <path d="M 115.42179 36.305507 
L 113.352811 38.027859 
L 115.513679 39.724746 
L 117.582469 37.993107 
z
" clip-path="url(#p0991bdf768)" style="fill: #f59f80; fill-opacity: 0.75"/>
    <path d="M 119.639642 36.297804 
L 117.582469 37.993107 
L 119.75498 39.689947 
L 121.811851 37.985393 
z
" clip-path="url(#p0991bdf768)" style="fill: #f59f80; fill-opacity: 0.75"/>
    <path d="M 75.310292 39.044489 
L 73.130931 40.874774 
L 75.185356 42.582507 
L 77.365283 40.74273 
z
" clip-path="url(#p0991bdf768)" style="fill: #f7b497; fill-opacity: 0.75"/>
    <path d="M 79.533713 38.907652 
L 77.365283 40.74273 
L 79.431548 42.450287 
L 81.600491 40.605711 
z
" clip-path="url(#p0991bdf768)" style="fill: #f7b396; fill-opacity: 0.75"/>
    <path d="M 83.758067 38.769136 
L 81.600491 40.605711 
L 83.678608 42.313086 
L 85.83664 40.46701 
z
" clip-path="url(#p0991bdf768)" style="fill: #f7b194; fill-opacity: 0.75"/>
    <path d="M 87.983402 38.632237 
L 85.83664 40.46701 
L 87.926618 42.174201 
L 90.073772 40.329929 
z
" clip-path="url(#p0991bdf768)" style="fill: #f7b093; fill-opacity: 0.75"/>
    <path d="M 92.209717 38.50025 
L 90.073772 40.329929 
L 92.175613 42.036938 
L 94.311881 40.197766 
z
" clip-path="url(#p0991bdf768)" style="fill: #f7af91; fill-opacity: 0.75"/>
    <path d="M 96.436967 38.376457 
L 94.311881 40.197766 
L 96.425582 41.904599 
L 98.550916 40.073808 
z
" clip-path="url(#p0991bdf768)" style="fill: #f7ad90; fill-opacity: 0.75"/>
    <path d="M 100.66506 38.264118 
L 98.550916 40.073808 
L 100.676467 41.780476 
L 102.790778 39.96132 
z
" clip-path="url(#p0991bdf768)" style="fill: #f7ac8e; fill-opacity: 0.75"/>
    <path d="M 104.89386 38.16646 
L 102.790778 39.96132 
L 104.928165 41.667838 
L 107.031326 39.863532 
z
" clip-path="url(#p0991bdf768)" style="fill: #f7aa8c; fill-opacity: 0.75"/>
    <path d="M 109.123185 38.086665 
L 107.031326 39.863532 
L 109.180525 41.56992 
L 111.27237 39.78363 
z
" clip-path="url(#p0991bdf768)" style="fill: #f7aa8c; fill-opacity: 0.75"/>
    <path d="M 113.352811 38.027859 
L 111.27237 39.78363 
L 113.433354 41.489911 
L 115.513679 39.724746 
z
" clip-path="url(#p0991bdf768)" style="fill: #f7a98b; fill-opacity: 0.75"/>
    <path d="M 117.582469 37.993107 
L 115.513679 39.724746 
L 117.686412 41.430949 
L 119.75498 39.689947 
z
" clip-path="url(#p0991bdf768)" style="fill: #f7a98b; fill-opacity: 0.75"/>
    <path d="M 121.811851 37.985393 
L 119.75498 39.689947 
L 121.939418 41.396103 
L 123.995955 39.682223 
z
" clip-path="url(#p0991bdf768)" style="fill: #f7a98b; fill-opacity: 0.75"/>
    <path d="M 73.130931 40.874774 
L 70.939906 42.706465 
L 72.993744 44.423754 
L 75.185356 42.582507 
z
" clip-path="url(#p0991bdf768)" style="fill: #f6bea4; fill-opacity: 0.75"/>
    <path d="M 77.365283 40.74273 
L 75.185356 42.582507 
L 77.251081 44.299632 
L 79.431548 42.450287 
z
" clip-path="url(#p0991bdf768)" style="fill: #f6bda2; fill-opacity: 0.75"/>
    <path d="M 81.600491 40.605711 
L 79.431548 42.450287 
L 81.509178 44.167238 
L 83.678608 42.313086 
z
" clip-path="url(#p0991bdf768)" style="fill: #f7bca1; fill-opacity: 0.75"/>
    <path d="M 85.83664 40.46701 
L 83.678608 42.313086 
L 85.768157 44.029855 
L 87.926618 42.174201 
z
" clip-path="url(#p0991bdf768)" style="fill: #f7ba9f; fill-opacity: 0.75"/>
    <path d="M 90.073772 40.329929 
L 87.926618 42.174201 
L 90.028095 43.890785 
L 92.175613 42.036938 
z
" clip-path="url(#p0991bdf768)" style="fill: #f7b99e; fill-opacity: 0.75"/>
    <path d="M 94.311881 40.197766 
L 92.175613 42.036938 
L 94.28902 43.75334 
L 96.425582 41.904599 
z
" clip-path="url(#p0991bdf768)" style="fill: #f7b89c; fill-opacity: 0.75"/>
    <path d="M 98.550916 40.073808 
L 96.425582 41.904599 
L 98.550916 43.620825 
L 100.676467 41.780476 
z
" clip-path="url(#p0991bdf768)" style="fill: #f7b79b; fill-opacity: 0.75"/>
    <path d="M 102.790778 39.96132 
L 100.676467 41.780476 
L 102.813718 43.496538 
L 104.928165 41.667838 
z
" clip-path="url(#p0991bdf768)" style="fill: #f7b599; fill-opacity: 0.75"/>
    <path d="M 107.031326 39.863532 
L 104.928165 41.667838 
L 107.077317 43.38375 
L 109.180525 41.56992 
z
" clip-path="url(#p0991bdf768)" style="fill: #f7b497; fill-opacity: 0.75"/>
    <path d="M 111.27237 39.78363 
L 109.180525 41.56992 
L 111.341556 43.285701 
L 113.433354 41.489911 
z
" clip-path="url(#p0991bdf768)" style="fill: #f7b396; fill-opacity: 0.75"/>
    <path d="M 115.513679 39.724746 
L 113.433354 41.489911 
L 115.606234 43.205586 
L 117.686412 41.430949 
z
" clip-path="url(#p0991bdf768)" style="fill: #f7b396; fill-opacity: 0.75"/>
    <path d="M 119.75498 39.689947 
L 117.686412 41.430949 
L 119.871106 43.146545 
L 121.939418 41.396103 
z
" clip-path="url(#p0991bdf768)" style="fill: #f7b396; fill-opacity: 0.75"/>
    <path d="M 123.995955 39.682223 
L 121.939418 41.396103 
L 124.135883 43.111654 
L 126.19205 41.38837 
z
" clip-path="url(#p0991bdf768)" style="fill: #f7b194; fill-opacity: 0.75"/>
    <path d="M 70.939906 42.706465 
L 68.736998 44.536348 
L 70.790233 46.263257 
L 72.993744 44.423754 
z
" clip-path="url(#p0991bdf768)" style="fill: #f3c7b1; fill-opacity: 0.75"/>
    <path d="M 75.185356 42.582507 
L 72.993744 44.423754 
L 75.058909 46.150515 
L 77.251081 44.299632 
z
" clip-path="url(#p0991bdf768)" style="fill: #f4c6af; fill-opacity: 0.75"/>
    <path d="M 79.431548 42.450287 
L 77.251081 44.299632 
L 79.3282 46.026228 
L 81.509178 44.167238 
z
" clip-path="url(#p0991bdf768)" style="fill: #f4c5ad; fill-opacity: 0.75"/>
    <path d="M 83.678608 42.313086 
L 81.509178 44.167238 
L 83.598269 45.893659 
L 85.768157 44.029855 
z
" clip-path="url(#p0991bdf768)" style="fill: #f5c4ac; fill-opacity: 0.75"/>
    <path d="M 87.926618 42.174201 
L 85.768157 44.029855 
L 87.869235 45.756094 
L 90.028095 43.890785 
z
" clip-path="url(#p0991bdf768)" style="fill: #f5c2aa; fill-opacity: 0.75"/>
    <path d="M 92.175613 42.036938 
L 90.028095 43.890785 
L 92.141166 45.61684 
L 94.28902 43.75334 
z
" clip-path="url(#p0991bdf768)" style="fill: #f5c1a9; fill-opacity: 0.75"/>
    <path d="M 96.425582 41.904599 
L 94.28902 43.75334 
L 96.414089 45.479212 
L 98.550916 43.620825 
z
" clip-path="url(#p0991bdf768)" style="fill: #f5c0a7; fill-opacity: 0.75"/>
    <path d="M 100.676467 41.780476 
L 98.550916 43.620825 
L 100.687978 45.346522 
L 102.813718 43.496538 
z
" clip-path="url(#p0991bdf768)" style="fill: #f6bfa6; fill-opacity: 0.75"/>
    <path d="M 104.928165 41.667838 
L 102.813718 43.496538 
L 104.962764 45.22207 
L 107.077317 43.38375 
z
" clip-path="url(#p0991bdf768)" style="fill: #f6bea4; fill-opacity: 0.75"/>
    <path d="M 109.180525 41.56992 
L 107.077317 43.38375 
L 109.238331 45.109133 
L 111.341556 43.285701 
z
" clip-path="url(#p0991bdf768)" style="fill: #f6bda2; fill-opacity: 0.75"/>
    <path d="M 113.433354 41.489911 
L 111.341556 43.285701 
L 113.514516 45.010954 
L 115.606234 43.205586 
z
" clip-path="url(#p0991bdf768)" style="fill: #f7bca1; fill-opacity: 0.75"/>
    <path d="M 117.686412 41.430949 
L 115.606234 43.205586 
L 117.79111 44.930732 
L 119.871106 43.146545 
z
" clip-path="url(#p0991bdf768)" style="fill: #f7bca1; fill-opacity: 0.75"/>
    <path d="M 121.939418 41.396103 
L 119.871106 43.146545 
L 122.067862 44.871613 
L 124.135883 43.111654 
z
" clip-path="url(#p0991bdf768)" style="fill: #f7ba9f; fill-opacity: 0.75"/>
    <path d="M 126.19205 41.38837 
L 124.135883 43.111654 
L 126.344475 44.836675 
L 128.400236 43.10391 
z
" clip-path="url(#p0991bdf768)" style="fill: #f7ba9f; fill-opacity: 0.75"/>
    <path d="M 68.736998 44.536348 
L 66.521964 46.361232 
L 68.574585 48.09782 
L 70.790233 46.263257 
z
" clip-path="url(#p0991bdf768)" style="fill: #f0cdbb; fill-opacity: 0.75"/>
    <path d="M 72.993744 44.423754 
L 70.790233 46.263257 
L 72.854822 47.999715 
L 75.058909 46.150515 
z
" clip-path="url(#p0991bdf768)" style="fill: #f0cdbb; fill-opacity: 0.75"/>
    <path d="M 77.251081 44.299632 
L 75.058909 46.150515 
L 77.135494 47.886824 
L 79.3282 46.026228 
z
" clip-path="url(#p0991bdf768)" style="fill: #f1cdba; fill-opacity: 0.75"/>
    <path d="M 81.509178 44.167238 
L 79.3282 46.026228 
L 81.416806 47.762374 
L 83.598269 45.893659 
z
" clip-path="url(#p0991bdf768)" style="fill: #f1ccb8; fill-opacity: 0.75"/>
    <path d="M 85.768157 44.029855 
L 83.598269 45.893659 
L 85.698916 47.629629 
L 87.869235 45.756094 
z
" clip-path="url(#p0991bdf768)" style="fill: #f2cbb7; fill-opacity: 0.75"/>
    <path d="M 90.028095 43.890785 
L 87.869235 45.756094 
L 89.981935 47.491882 
L 92.141166 45.61684 
z
" clip-path="url(#p0991bdf768)" style="fill: #f2cab5; fill-opacity: 0.75"/>
    <path d="M 94.28902 43.75334 
L 92.141166 45.61684 
L 94.265929 47.352445 
L 96.414089 45.479212 
z
" clip-path="url(#p0991bdf768)" style="fill: #f3c8b2; fill-opacity: 0.75"/>
    <path d="M 98.550916 43.620825 
L 96.414089 45.479212 
L 98.550916 47.214635 
L 100.687978 45.346522 
z
" clip-path="url(#p0991bdf768)" style="fill: #f3c7b1; fill-opacity: 0.75"/>
    <path d="M 102.813718 43.496538 
L 100.687978 45.346522 
L 102.836866 47.081769 
L 104.962764 45.22207 
z
" clip-path="url(#p0991bdf768)" style="fill: #f4c6af; fill-opacity: 0.75"/>
    <path d="M 107.077317 43.38375 
L 104.962764 45.22207 
L 107.123704 46.957152 
L 109.238331 45.109133 
z
" clip-path="url(#p0991bdf768)" style="fill: #f4c5ad; fill-opacity: 0.75"/>
    <path d="M 111.341556 43.285701 
L 109.238331 45.109133 
L 111.411306 46.844065 
L 113.514516 45.010954 
z
" clip-path="url(#p0991bdf768)" style="fill: #f4c5ad; fill-opacity: 0.75"/>
    <path d="M 115.606234 43.205586 
L 113.514516 45.010954 
L 115.699504 46.745756 
L 117.79111 44.930732 
z
" clip-path="url(#p0991bdf768)" style="fill: #f5c4ac; fill-opacity: 0.75"/>
    <path d="M 119.871106 43.146545 
L 117.79111 44.930732 
L 119.988081 46.665429 
L 122.067862 44.871613 
z
" clip-path="url(#p0991bdf768)" style="fill: #f5c2aa; fill-opacity: 0.75"/>
    <path d="M 124.135883 43.111654 
L 122.067862 44.871613 
L 124.276778 46.606231 
L 126.344475 44.836675 
z
" clip-path="url(#p0991bdf768)" style="fill: #f5c2aa; fill-opacity: 0.75"/>
    <path d="M 128.400236 43.10391 
L 126.344475 44.836675 
L 128.565294 46.571247 
L 130.620614 44.828921 
z
" clip-path="url(#p0991bdf768)" style="fill: #f5c2aa; fill-opacity: 0.75"/>
    <path d="M 66.521964 46.361232 
L 64.294534 48.177956 
L 66.346533 49.924278 
L 68.574585 48.09782 
z
" clip-path="url(#p0991bdf768)" style="fill: #ead4c8; fill-opacity: 0.75"/>
    <path d="M 70.790233 46.263257 
L 68.574585 48.09782 
L 70.638586 49.844035 
L 72.854822 47.999715 
z
" clip-path="url(#p0991bdf768)" style="fill: #ebd3c6; fill-opacity: 0.75"/>
    <path d="M 75.058909 46.150515 
L 72.854822 47.999715 
L 74.930859 49.745802 
L 77.135494 47.886824 
z
" clip-path="url(#p0991bdf768)" style="fill: #ecd3c5; fill-opacity: 0.75"/>
    <path d="M 79.3282 46.026228 
L 77.135494 47.886824 
L 79.223596 49.632762 
L 81.416806 47.762374 
z
" clip-path="url(#p0991bdf768)" style="fill: #edd2c3; fill-opacity: 0.75"/>
    <path d="M 83.598269 45.893659 
L 81.416806 47.762374 
L 83.516996 49.508148 
L 85.698916 47.629629 
z
" clip-path="url(#p0991bdf768)" style="fill: #edd1c2; fill-opacity: 0.75"/>
    <path d="M 87.869235 45.756094 
L 85.698916 47.629629 
L 87.811213 49.375228 
L 89.981935 47.491882 
z
" clip-path="url(#p0991bdf768)" style="fill: #eed0c0; fill-opacity: 0.75"/>
    <path d="M 92.141166 45.61684 
L 89.981935 47.491882 
L 92.106355 49.2373 
L 94.265929 47.352445 
z
" clip-path="url(#p0991bdf768)" style="fill: #efcfbf; fill-opacity: 0.75"/>
    <path d="M 96.414089 45.479212 
L 94.265929 47.352445 
L 96.402479 49.097678 
L 98.550916 47.214635 
z
" clip-path="url(#p0991bdf768)" style="fill: #efcebd; fill-opacity: 0.75"/>
    <path d="M 100.687978 45.346522 
L 98.550916 47.214635 
L 100.699599 48.959686 
L 102.836866 47.081769 
z
" clip-path="url(#p0991bdf768)" style="fill: #f0cdbb; fill-opacity: 0.75"/>
    <path d="M 104.962764 45.22207 
L 102.836866 47.081769 
L 104.997679 48.826645 
L 107.123704 46.957152 
z
" clip-path="url(#p0991bdf768)" style="fill: #f1cdba; fill-opacity: 0.75"/>
    <path d="M 109.238331 45.109133 
L 107.123704 46.957152 
L 109.296637 48.701864 
L 111.411306 46.844065 
z
" clip-path="url(#p0991bdf768)" style="fill: #f1ccb8; fill-opacity: 0.75"/>
    <path d="M 113.514516 45.010954 
L 111.411306 46.844065 
L 113.596342 48.588627 
L 115.699504 46.745756 
z
" clip-path="url(#p0991bdf768)" style="fill: #f2cbb7; fill-opacity: 0.75"/>
    <path d="M 117.79111 44.930732 
L 115.699504 46.745756 
L 117.89662 48.490188 
L 119.988081 46.665429 
z
" clip-path="url(#p0991bdf768)" style="fill: #f2cbb7; fill-opacity: 0.75"/>
    <path d="M 122.067862 44.871613 
L 119.988081 46.665429 
L 122.197247 48.409754 
L 124.276778 46.606231 
z
" clip-path="url(#p0991bdf768)" style="fill: #f2cab5; fill-opacity: 0.75"/>
    <path d="M 126.344475 44.836675 
L 124.276778 46.606231 
L 126.497957 48.350478 
L 128.565294 46.571247 
z
" clip-path="url(#p0991bdf768)" style="fill: #f2cab5; fill-opacity: 0.75"/>
    <path d="M 130.620614 44.828921 
L 128.565294 46.571247 
L 130.798442 48.315448 
L 132.853283 46.563482 
z
" clip-path="url(#p0991bdf768)" style="fill: #f2cab5; fill-opacity: 0.75"/>
    <path d="M 64.294534 48.177956 
L 62.054412 49.983398 
L 64.105787 51.739506 
L 66.346533 49.924278 
z
" clip-path="url(#p0991bdf768)" style="fill: #e4d9d2; fill-opacity: 0.75"/>
    <path d="M 68.574585 48.09782 
L 66.346533 49.924278 
L 68.40994 51.680308 
L 70.638586 49.844035 
z
" clip-path="url(#p0991bdf768)" style="fill: #e4d9d2; fill-opacity: 0.75"/>
    <path d="M 72.854822 47.999715 
L 70.638586 49.844035 
L 72.714062 51.59996 
L 74.930859 49.745802 
z
" clip-path="url(#p0991bdf768)" style="fill: #e5d8d1; fill-opacity: 0.75"/>
    <path d="M 77.135494 47.886824 
L 74.930859 49.745802 
L 77.018439 51.501597 
L 79.223596 49.632762 
z
" clip-path="url(#p0991bdf768)" style="fill: #e6d7cf; fill-opacity: 0.75"/>
    <path d="M 81.416806 47.762374 
L 79.223596 49.632762 
L 81.323308 51.388409 
L 83.516996 49.508148 
z
" clip-path="url(#p0991bdf768)" style="fill: #e7d7ce; fill-opacity: 0.75"/>
    <path d="M 85.698916 47.629629 
L 83.516996 49.508148 
L 85.628866 51.263631 
L 87.811213 49.375228 
z
" clip-path="url(#p0991bdf768)" style="fill: #e8d6cc; fill-opacity: 0.75"/>
    <path d="M 89.981935 47.491882 
L 87.811213 49.375228 
L 89.93526 51.130536 
L 92.106355 49.2373 
z
" clip-path="url(#p0991bdf768)" style="fill: #e9d5cb; fill-opacity: 0.75"/>
    <path d="M 94.265929 47.352445 
L 92.106355 49.2373 
L 94.242592 50.992427 
L 96.402479 49.097678 
z
" clip-path="url(#p0991bdf768)" style="fill: #ead5c9; fill-opacity: 0.75"/>
    <path d="M 98.550916 47.214635 
L 96.402479 49.097678 
L 98.550916 50.852621 
L 100.699599 48.959686 
z
" clip-path="url(#p0991bdf768)" style="fill: #ead4c8; fill-opacity: 0.75"/>
    <path d="M 102.836866 47.081769 
L 100.699599 48.959686 
L 102.860237 50.714447 
L 104.997679 48.826645 
z
" clip-path="url(#p0991bdf768)" style="fill: #ebd3c6; fill-opacity: 0.75"/>
    <path d="M 107.123704 46.957152 
L 104.997679 48.826645 
L 107.170516 50.581231 
L 109.296637 48.701864 
z
" clip-path="url(#p0991bdf768)" style="fill: #ecd3c5; fill-opacity: 0.75"/>
    <path d="M 111.411306 46.844065 
L 109.296637 48.701864 
L 111.481662 50.456285 
L 113.596342 48.588627 
z
" clip-path="url(#p0991bdf768)" style="fill: #edd2c3; fill-opacity: 0.75"/>
    <path d="M 115.699504 46.745756 
L 113.596342 48.588627 
L 115.79354 50.342899 
L 117.89662 48.490188 
z
" clip-path="url(#p0991bdf768)" style="fill: #edd1c2; fill-opacity: 0.75"/>
    <path d="M 119.988081 46.665429 
L 117.89662 48.490188 
L 120.105965 50.24433 
L 122.197247 48.409754 
z
" clip-path="url(#p0991bdf768)" style="fill: #eed0c0; fill-opacity: 0.75"/>
    <path d="M 124.276778 46.606231 
L 122.197247 48.409754 
L 124.41871 50.16379 
L 126.497957 48.350478 
z
" clip-path="url(#p0991bdf768)" style="fill: #eed0c0; fill-opacity: 0.75"/>
    <path d="M 128.565294 46.571247 
L 126.497957 48.350478 
L 128.731501 50.104436 
L 130.798442 48.315448 
z
" clip-path="url(#p0991bdf768)" style="fill: #efcfbf; fill-opacity: 0.75"/>
    <path d="M 132.853283 46.563482 
L 130.798442 48.315448 
L 133.044021 50.069359 
L 135.098348 48.307673 
z
" clip-path="url(#p0991bdf768)" style="fill: #efcfbf; fill-opacity: 0.75"/>
    <path d="M 62.054412 49.983398 
L 59.801276 51.774486 
L 61.852028 53.540429 
L 64.105787 51.739506 
z
" clip-path="url(#p0991bdf768)" style="fill: #dddcdc; fill-opacity: 0.75"/>
    <path d="M 66.346533 49.924278 
L 64.105787 51.739506 
L 66.168597 53.505404 
L 68.40994 51.680308 
z
" clip-path="url(#p0991bdf768)" style="fill: #dddcdc; fill-opacity: 0.75"/>
    <path d="M 70.638586 49.844035 
L 68.40994 51.680308 
L 70.48485 53.446128 
L 72.714062 51.59996 
z
" clip-path="url(#p0991bdf768)" style="fill: #dedcdb; fill-opacity: 0.75"/>
    <path d="M 74.930859 49.745802 
L 72.714062 51.59996 
L 74.801111 53.365675 
L 77.018439 51.501597 
z
" clip-path="url(#p0991bdf768)" style="fill: #dedcdb; fill-opacity: 0.75"/>
    <path d="M 79.223596 49.632762 
L 77.018439 51.501597 
L 79.117659 53.267183 
L 81.323308 51.388409 
z
" clip-path="url(#p0991bdf768)" style="fill: #dfdbd9; fill-opacity: 0.75"/>
    <path d="M 83.516996 49.508148 
L 81.323308 51.388409 
L 83.43473 53.153846 
L 85.628866 51.263631 
z
" clip-path="url(#p0991bdf768)" style="fill: #e0dbd8; fill-opacity: 0.75"/>
    <path d="M 87.811213 49.375228 
L 85.628866 51.263631 
L 87.752514 53.028904 
L 89.93526 51.130536 
z
" clip-path="url(#p0991bdf768)" style="fill: #e1dad6; fill-opacity: 0.75"/>
    <path d="M 92.106355 49.2373 
L 89.93526 51.130536 
L 92.071154 52.895635 
L 94.242592 50.992427 
z
" clip-path="url(#p0991bdf768)" style="fill: #e2dad5; fill-opacity: 0.75"/>
    <path d="M 96.402479 49.097678 
L 94.242592 50.992427 
L 96.390746 52.757344 
L 98.550916 50.852621 
z
" clip-path="url(#p0991bdf768)" style="fill: #e3d9d3; fill-opacity: 0.75"/>
    <path d="M 100.699599 48.959686 
L 98.550916 50.852621 
L 100.711338 52.617354 
L 102.860237 50.714447 
z
" clip-path="url(#p0991bdf768)" style="fill: #e4d9d2; fill-opacity: 0.75"/>
    <path d="M 104.997679 48.826645 
L 102.860237 50.714447 
L 105.032931 52.478999 
L 107.170516 50.581231 
z
" clip-path="url(#p0991bdf768)" style="fill: #e5d8d1; fill-opacity: 0.75"/>
    <path d="M 109.296637 48.701864 
L 107.170516 50.581231 
L 109.355478 52.345607 
L 111.481662 50.456285 
z
" clip-path="url(#p0991bdf768)" style="fill: #e6d7cf; fill-opacity: 0.75"/>
    <path d="M 113.596342 48.588627 
L 111.481662 50.456285 
L 113.678881 52.220497 
L 115.79354 50.342899 
z
" clip-path="url(#p0991bdf768)" style="fill: #e7d7ce; fill-opacity: 0.75"/>
    <path d="M 117.89662 48.490188 
L 115.79354 50.342899 
L 118.003 52.106962 
L 120.105965 50.24433 
z
" clip-path="url(#p0991bdf768)" style="fill: #e8d6cc; fill-opacity: 0.75"/>
    <path d="M 122.197247 48.409754 
L 120.105965 50.24433 
L 122.327643 52.008263 
L 124.41871 50.16379 
z
" clip-path="url(#p0991bdf768)" style="fill: #e9d5cb; fill-opacity: 0.75"/>
    <path d="M 126.497957 48.350478 
L 124.41871 50.16379 
L 126.652574 51.927616 
L 128.731501 50.104436 
z
" clip-path="url(#p0991bdf768)" style="fill: #e9d5cb; fill-opacity: 0.75"/>
    <path d="M 130.798442 48.315448 
L 128.731501 50.104436 
L 130.977514 51.868184 
L 133.044021 50.069359 
z
" clip-path="url(#p0991bdf768)" style="fill: #ead5c9; fill-opacity: 0.75"/>
    <path d="M 135.098348 48.307673 
L 133.044021 50.069359 
L 135.302137 51.833061 
L 137.355911 50.061574 
z
" clip-path="url(#p0991bdf768)" style="fill: #ead5c9; fill-opacity: 0.75"/>
    <path d="M 59.801276 51.774486 
L 57.534778 53.548202 
L 59.584914 55.324027 
L 61.852028 53.540429 
z
" clip-path="url(#p0991bdf768)" style="fill: #d6dce4; fill-opacity: 0.75"/>
    <path d="M 64.105787 51.739506 
L 61.852028 53.540429 
L 63.914244 55.316244 
L 66.168597 53.505404 
z
" clip-path="url(#p0991bdf768)" style="fill: #d6dce4; fill-opacity: 0.75"/>
    <path d="M 68.40994 51.680308 
L 66.168597 53.505404 
L 68.242939 55.281173 
L 70.48485 53.446128 
z
" clip-path="url(#p0991bdf768)" style="fill: #d6dce4; fill-opacity: 0.75"/>
    <path d="M 72.714062 51.59996 
L 70.48485 53.446128 
L 72.57136 55.221819 
L 74.801111 53.365675 
z
" clip-path="url(#p0991bdf768)" style="fill: #d7dce3; fill-opacity: 0.75"/>
    <path d="M 77.018439 51.501597 
L 74.801111 53.365675 
L 76.899827 55.141261 
L 79.117659 53.267183 
z
" clip-path="url(#p0991bdf768)" style="fill: #d8dce2; fill-opacity: 0.75"/>
    <path d="M 81.323308 51.388409 
L 79.117659 53.267183 
L 81.228616 55.042641 
L 83.43473 53.153846 
z
" clip-path="url(#p0991bdf768)" style="fill: #d8dce2; fill-opacity: 0.75"/>
    <path d="M 85.628866 51.263631 
L 83.43473 53.153846 
L 85.557958 54.929155 
L 87.752514 53.028904 
z
" clip-path="url(#p0991bdf768)" style="fill: #d9dce1; fill-opacity: 0.75"/>
    <path d="M 89.93526 51.130536 
L 87.752514 53.028904 
L 89.888038 54.80405 
L 92.071154 52.895635 
z
" clip-path="url(#p0991bdf768)" style="fill: #dadce0; fill-opacity: 0.75"/>
    <path d="M 94.242592 50.992427 
L 92.071154 52.895635 
L 94.218993 54.670606 
L 96.390746 52.757344 
z
" clip-path="url(#p0991bdf768)" style="fill: #dbdcde; fill-opacity: 0.75"/>
    <path d="M 98.550916 50.852621 
L 96.390746 52.757344 
L 98.550916 54.532133 
L 100.711338 52.617354 
z
" clip-path="url(#p0991bdf768)" style="fill: #dddcdc; fill-opacity: 0.75"/>
    <path d="M 102.860237 50.714447 
L 100.711338 52.617354 
L 102.883847 54.391961 
L 105.032931 52.478999 
z
" clip-path="url(#p0991bdf768)" style="fill: #dedcdb; fill-opacity: 0.75"/>
    <path d="M 107.170516 50.581231 
L 105.032931 52.478999 
L 107.217782 54.253424 
L 109.355478 52.345607 
z
" clip-path="url(#p0991bdf768)" style="fill: #dfdbd9; fill-opacity: 0.75"/>
    <path d="M 111.481662 50.456285 
L 109.355478 52.345607 
L 111.552666 54.119857 
L 113.678881 52.220497 
z
" clip-path="url(#p0991bdf768)" style="fill: #e0dbd8; fill-opacity: 0.75"/>
    <path d="M 115.79354 50.342899 
L 113.678881 52.220497 
L 115.888397 53.994582 
L 118.003 52.106962 
z
" clip-path="url(#p0991bdf768)" style="fill: #e1dad6; fill-opacity: 0.75"/>
    <path d="M 120.105965 50.24433 
L 118.003 52.106962 
L 120.224826 53.880897 
L 122.327643 52.008263 
z
" clip-path="url(#p0991bdf768)" style="fill: #e1dad6; fill-opacity: 0.75"/>
    <path d="M 124.41871 50.16379 
L 122.327643 52.008263 
L 124.561755 53.782069 
L 126.652574 51.927616 
z
" clip-path="url(#p0991bdf768)" style="fill: #e2dad5; fill-opacity: 0.75"/>
    <path d="M 128.731501 50.104436 
L 126.652574 51.927616 
L 128.898943 53.701316 
L 130.977514 51.868184 
z
" clip-path="url(#p0991bdf768)" style="fill: #e3d9d3; fill-opacity: 0.75"/>
    <path d="M 133.044021 50.069359 
L 130.977514 51.868184 
L 133.236099 53.641806 
L 135.302137 51.833061 
z
" clip-path="url(#p0991bdf768)" style="fill: #e3d9d3; fill-opacity: 0.75"/>
    <path d="M 137.355911 50.061574 
L 135.302137 51.833061 
L 137.572893 53.606636 
L 139.626077 51.825265 
z
" clip-path="url(#p0991bdf768)" style="fill: #e3d9d3; fill-opacity: 0.75"/>
    <path d="M 61.852028 53.540429 
L 59.584914 55.324027 
L 61.646542 57.109808 
L 63.914244 55.316244 
z
" clip-path="url(#p0991bdf768)" style="fill: #cedaeb; fill-opacity: 0.75"/>
    <path d="M 66.168597 53.505404 
L 63.914244 55.316244 
L 65.98802 57.102014 
L 68.242939 55.281173 
z
" clip-path="url(#p0991bdf768)" style="fill: #cedaeb; fill-opacity: 0.75"/>
    <path d="M 70.48485 53.446128 
L 68.242939 55.281173 
L 70.32891 57.066897 
L 72.57136 55.221819 
z
" clip-path="url(#p0991bdf768)" style="fill: #cfdaea; fill-opacity: 0.75"/>
    <path d="M 74.801111 53.365675 
L 72.57136 55.221819 
L 74.669568 57.007466 
L 76.899827 55.141261 
z
" clip-path="url(#p0991bdf768)" style="fill: #cfdaea; fill-opacity: 0.75"/>
    <path d="M 79.117659 53.267183 
L 76.899827 55.141261 
L 79.010311 56.926803 
L 81.228616 55.042641 
z
" clip-path="url(#p0991bdf768)" style="fill: #d1dae9; fill-opacity: 0.75"/>
    <path d="M 83.43473 53.153846 
L 81.228616 55.042641 
L 83.35141 56.828054 
L 85.557958 54.929155 
z
" clip-path="url(#p0991bdf768)" style="fill: #d2dbe8; fill-opacity: 0.75"/>
    <path d="M 87.752514 53.028904 
L 85.557958 54.929155 
L 87.693093 56.71442 
L 89.888038 54.80405 
z
" clip-path="url(#p0991bdf768)" style="fill: #d3dbe7; fill-opacity: 0.75"/>
    <path d="M 92.071154 52.895635 
L 89.888038 54.80405 
L 92.035539 56.589151 
L 94.218993 54.670606 
z
" clip-path="url(#p0991bdf768)" style="fill: #d4dbe6; fill-opacity: 0.75"/>
    <path d="M 96.390746 52.757344 
L 94.218993 54.670606 
L 96.37888 56.455532 
L 98.550916 54.532133 
z
" clip-path="url(#p0991bdf768)" style="fill: #d5dbe5; fill-opacity: 0.75"/>
    <path d="M 100.711338 52.617354 
L 98.550916 54.532133 
L 100.723203 56.316879 
L 102.883847 54.391961 
z
" clip-path="url(#p0991bdf768)" style="fill: #d6dce4; fill-opacity: 0.75"/>
    <path d="M 105.032931 52.478999 
L 102.883847 54.391961 
L 105.068544 56.176522 
L 107.217782 54.253424 
z
" clip-path="url(#p0991bdf768)" style="fill: #d7dce3; fill-opacity: 0.75"/>
    <path d="M 109.355478 52.345607 
L 107.217782 54.253424 
L 109.414891 56.037804 
L 111.552666 54.119857 
z
" clip-path="url(#p0991bdf768)" style="fill: #d8dce2; fill-opacity: 0.75"/>
    <path d="M 113.678881 52.220497 
L 111.552666 54.119857 
L 113.762183 55.904062 
L 115.888397 53.994582 
z
" clip-path="url(#p0991bdf768)" style="fill: #d9dce1; fill-opacity: 0.75"/>
    <path d="M 118.003 52.106962 
L 115.888397 53.994582 
L 118.110313 55.778623 
L 120.224826 53.880897 
z
" clip-path="url(#p0991bdf768)" style="fill: #dadce0; fill-opacity: 0.75"/>
    <path d="M 122.327643 52.008263 
L 120.224826 53.880897 
L 122.459122 55.664789 
L 124.561755 53.782069 
z
" clip-path="url(#p0991bdf768)" style="fill: #dbdcde; fill-opacity: 0.75"/>
    <path d="M 126.652574 51.927616 
L 124.561755 53.782069 
L 126.808408 55.565831 
L 128.898943 53.701316 
z
" clip-path="url(#p0991bdf768)" style="fill: #dbdcde; fill-opacity: 0.75"/>
    <path d="M 130.977514 51.868184 
L 128.898943 53.701316 
L 131.157921 55.484973 
L 133.236099 53.641806 
z
" clip-path="url(#p0991bdf768)" style="fill: #dcdddd; fill-opacity: 0.75"/>
    <path d="M 135.302137 51.833061 
L 133.236099 53.641806 
L 135.507364 55.425384 
L 137.572893 53.606636 
z
" clip-path="url(#p0991bdf768)" style="fill: #dcdddd; fill-opacity: 0.75"/>
    <path d="M 63.914244 55.316244 
L 61.646542 57.109808 
L 63.71976 58.905627 
L 65.98802 57.102014 
z
" clip-path="url(#p0991bdf768)" style="fill: #c6d6f1; fill-opacity: 0.75"/>
    <path d="M 68.242939 55.281173 
L 65.98802 57.102014 
L 68.073455 58.897823 
L 70.32891 57.066897 
z
" clip-path="url(#p0991bdf768)" style="fill: #c6d6f1; fill-opacity: 0.75"/>
    <path d="M 72.57136 55.221819 
L 70.32891 57.066897 
L 72.426607 58.86266 
L 74.669568 57.007466 
z
" clip-path="url(#p0991bdf768)" style="fill: #c7d7f0; fill-opacity: 0.75"/>
    <path d="M 76.899827 55.141261 
L 74.669568 57.007466 
L 76.779572 58.803152 
L 79.010311 56.926803 
z
" clip-path="url(#p0991bdf768)" style="fill: #c7d7f0; fill-opacity: 0.75"/>
    <path d="M 81.228616 55.042641 
L 79.010311 56.926803 
L 81.13266 58.722384 
L 83.35141 56.828054 
z
" clip-path="url(#p0991bdf768)" style="fill: #c9d7f0; fill-opacity: 0.75"/>
    <path d="M 85.557958 54.929155 
L 83.35141 56.828054 
L 85.486141 58.623506 
L 87.693093 56.71442 
z
" clip-path="url(#p0991bdf768)" style="fill: #cad8ef; fill-opacity: 0.75"/>
    <path d="M 89.888038 54.80405 
L 87.693093 56.71442 
L 89.840234 58.509724 
L 92.035539 56.589151 
z
" clip-path="url(#p0991bdf768)" style="fill: #cbd8ee; fill-opacity: 0.75"/>
    <path d="M 94.218993 54.670606 
L 92.035539 56.589151 
L 94.195117 58.384291 
L 96.37888 56.455532 
z
" clip-path="url(#p0991bdf768)" style="fill: #ccd9ed; fill-opacity: 0.75"/>
    <path d="M 98.550916 54.532133 
L 96.37888 56.455532 
L 98.550916 58.250498 
L 100.723203 56.316879 
z
" clip-path="url(#p0991bdf768)" style="fill: #cdd9ec; fill-opacity: 0.75"/>
    <path d="M 102.883847 54.391961 
L 100.723203 56.316879 
L 102.90771 58.111664 
L 105.068544 56.176522 
z
" clip-path="url(#p0991bdf768)" style="fill: #cedaeb; fill-opacity: 0.75"/>
    <path d="M 107.217782 54.253424 
L 105.068544 56.176522 
L 107.265532 57.971124 
L 109.414891 56.037804 
z
" clip-path="url(#p0991bdf768)" style="fill: #cfdaea; fill-opacity: 0.75"/>
    <path d="M 111.552666 54.119857 
L 109.414891 56.037804 
L 111.624362 57.832224 
L 113.762183 55.904062 
z
" clip-path="url(#p0991bdf768)" style="fill: #d1dae9; fill-opacity: 0.75"/>
    <path d="M 115.888397 53.994582 
L 113.762183 55.904062 
L 115.984134 57.698308 
L 118.110313 55.778623 
z
" clip-path="url(#p0991bdf768)" style="fill: #d2dbe8; fill-opacity: 0.75"/>
    <path d="M 120.224826 53.880897 
L 118.110313 55.778623 
L 120.344733 57.572704 
L 122.459122 55.664789 
z
" clip-path="url(#p0991bdf768)" style="fill: #d3dbe7; fill-opacity: 0.75"/>
    <path d="M 124.561755 53.782069 
L 122.459122 55.664789 
L 124.705994 57.458722 
L 126.808408 55.565831 
z
" clip-path="url(#p0991bdf768)" style="fill: #d4dbe6; fill-opacity: 0.75"/>
    <path d="M 128.898943 53.701316 
L 126.808408 55.565831 
L 129.067707 57.359634 
L 131.157921 55.484973 
z
" clip-path="url(#p0991bdf768)" style="fill: #d5dbe5; fill-opacity: 0.75"/>
    <path d="M 133.236099 53.641806 
L 131.157921 55.484973 
L 133.429615 57.27867 
L 135.507364 55.425384 
z
" clip-path="url(#p0991bdf768)" style="fill: #d5dbe5; fill-opacity: 0.75"/>
    <path d="M 65.98802 57.102014 
L 63.71976 58.905627 
L 65.804665 60.711569 
L 68.073455 58.897823 
z
" clip-path="url(#p0991bdf768)" style="fill: #bfd3f6; fill-opacity: 0.75"/>
    <path d="M 70.32891 57.066897 
L 68.073455 58.897823 
L 70.170645 60.703756 
L 72.426607 58.86266 
z
" clip-path="url(#p0991bdf768)" style="fill: #bfd3f6; fill-opacity: 0.75"/>
    <path d="M 74.669568 57.007466 
L 72.426607 58.86266 
L 74.53613 60.668547 
L 76.779572 58.803152 
z
" clip-path="url(#p0991bdf768)" style="fill: #bfd3f6; fill-opacity: 0.75"/>
    <path d="M 79.010311 56.926803 
L 76.779572 58.803152 
L 78.901471 60.608962 
L 81.13266 58.722384 
z
" clip-path="url(#p0991bdf768)" style="fill: #c0d4f5; fill-opacity: 0.75"/>
    <path d="M 83.35141 56.828054 
L 81.13266 58.722384 
L 83.266976 60.528088 
L 85.486141 58.623506 
z
" clip-path="url(#p0991bdf768)" style="fill: #c0d4f5; fill-opacity: 0.75"/>
    <path d="M 87.693093 56.71442 
L 85.486141 58.623506 
L 87.632908 60.429082 
L 89.840234 58.509724 
z
" clip-path="url(#p0991bdf768)" style="fill: #c1d4f4; fill-opacity: 0.75"/>
    <path d="M 92.035539 56.589151 
L 89.840234 58.509724 
L 91.999484 60.315152 
L 94.195117 58.384291 
z
" clip-path="url(#p0991bdf768)" style="fill: #c3d5f4; fill-opacity: 0.75"/>
    <path d="M 96.37888 56.455532 
L 94.195117 58.384291 
L 96.366875 60.189556 
L 98.550916 58.250498 
z
" clip-path="url(#p0991bdf768)" style="fill: #c4d5f3; fill-opacity: 0.75"/>
    <path d="M 100.723203 56.316879 
L 98.550916 58.250498 
L 100.735202 60.055589 
L 102.90771 58.111664 
z
" clip-path="url(#p0991bdf768)" style="fill: #c5d6f2; fill-opacity: 0.75"/>
    <path d="M 105.068544 56.176522 
L 102.90771 58.111664 
L 105.104541 59.916573 
L 107.265532 57.971124 
z
" clip-path="url(#p0991bdf768)" style="fill: #c6d6f1; fill-opacity: 0.75"/>
    <path d="M 109.414891 56.037804 
L 107.265532 57.971124 
L 109.474915 59.775851 
L 111.624362 57.832224 
z
" clip-path="url(#p0991bdf768)" style="fill: #c7d7f0; fill-opacity: 0.75"/>
    <path d="M 113.762183 55.904062 
L 111.624362 57.832224 
L 113.8463 59.63677 
L 115.984134 57.698308 
z
" clip-path="url(#p0991bdf768)" style="fill: #c9d7f0; fill-opacity: 0.75"/>
    <path d="M 118.110313 55.778623 
L 115.984134 57.698308 
L 118.218623 59.502678 
L 120.344733 57.572704 
z
" clip-path="url(#p0991bdf768)" style="fill: #cad8ef; fill-opacity: 0.75"/>
    <path d="M 122.459122 55.664789 
L 120.344733 57.572704 
L 122.591763 59.376911 
L 124.705994 57.458722 
z
" clip-path="url(#p0991bdf768)" style="fill: #cbd8ee; fill-opacity: 0.75"/>
    <path d="M 126.808408 55.565831 
L 124.705994 57.458722 
L 126.965548 59.26278 
L 129.067707 57.359634 
z
" clip-path="url(#p0991bdf768)" style="fill: #ccd9ed; fill-opacity: 0.75"/>
    <path d="M 131.157921 55.484973 
L 129.067707 57.359634 
L 131.33976 59.163563 
L 133.429615 57.27867 
z
" clip-path="url(#p0991bdf768)" style="fill: #cdd9ec; fill-opacity: 0.75"/>
    <path d="M 68.073455 58.897823 
L 65.804665 60.711569 
L 67.901357 62.527722 
L 70.170645 60.703756 
z
" clip-path="url(#p0991bdf768)" style="fill: #b6cefa; fill-opacity: 0.75"/>
    <path d="M 72.426607 58.86266 
L 70.170645 60.703756 
L 72.279692 62.519898 
L 74.53613 60.668547 
z
" clip-path="url(#p0991bdf768)" style="fill: #b6cefa; fill-opacity: 0.75"/>
    <path d="M 76.779572 58.803152 
L 74.53613 60.668547 
L 76.65758 62.484644 
L 78.901471 60.608962 
z
" clip-path="url(#p0991bdf768)" style="fill: #b6cefa; fill-opacity: 0.75"/>
    <path d="M 81.13266 58.722384 
L 78.901471 60.608962 
L 81.035368 62.424981 
L 83.266976 60.528088 
z
" clip-path="url(#p0991bdf768)" style="fill: #b7cff9; fill-opacity: 0.75"/>
    <path d="M 85.486141 58.623506 
L 83.266976 60.528088 
L 85.41336 62.344003 
L 87.632908 60.429082 
z
" clip-path="url(#p0991bdf768)" style="fill: #b9d0f9; fill-opacity: 0.75"/>
    <path d="M 89.840234 58.509724 
L 87.632908 60.429082 
L 89.791814 62.244867 
L 91.999484 60.315152 
z
" clip-path="url(#p0991bdf768)" style="fill: #b9d0f9; fill-opacity: 0.75"/>
    <path d="M 94.195117 58.384291 
L 91.999484 60.315152 
L 94.170945 62.13079 
L 96.366875 60.189556 
z
" clip-path="url(#p0991bdf768)" style="fill: #bad0f8; fill-opacity: 0.75"/>
    <path d="M 98.550916 58.250498 
L 96.366875 60.189556 
L 98.550916 62.005031 
L 100.735202 60.055589 
z
" clip-path="url(#p0991bdf768)" style="fill: #bbd1f8; fill-opacity: 0.75"/>
    <path d="M 102.90771 58.111664 
L 100.735202 60.055589 
L 102.931844 61.87089 
L 105.104541 59.916573 
z
" clip-path="url(#p0991bdf768)" style="fill: #bcd2f7; fill-opacity: 0.75"/>
    <path d="M 107.265532 57.971124 
L 105.104541 59.916573 
L 107.313799 61.731694 
L 109.474915 59.775851 
z
" clip-path="url(#p0991bdf768)" style="fill: #bfd3f6; fill-opacity: 0.75"/>
    <path d="M 111.624362 57.832224 
L 109.474915 59.775851 
L 111.696798 61.590788 
L 113.8463 59.63677 
z
" clip-path="url(#p0991bdf768)" style="fill: #c0d4f5; fill-opacity: 0.75"/>
    <path d="M 115.984134 57.698308 
L 113.8463 59.63677 
L 116.080811 61.451526 
L 118.218623 59.502678 
z
" clip-path="url(#p0991bdf768)" style="fill: #c1d4f4; fill-opacity: 0.75"/>
    <path d="M 120.344733 57.572704 
L 118.218623 59.502678 
L 120.465758 61.31726 
L 122.591763 59.376911 
z
" clip-path="url(#p0991bdf768)" style="fill: #c3d5f4; fill-opacity: 0.75"/>
    <path d="M 124.705994 57.458722 
L 122.591763 59.376911 
L 124.851511 61.191329 
L 126.965548 59.26278 
z
" clip-path="url(#p0991bdf768)" style="fill: #c4d5f3; fill-opacity: 0.75"/>
    <path d="M 129.067707 57.359634 
L 126.965548 59.26278 
L 129.237891 61.077049 
L 131.33976 59.163563 
z
" clip-path="url(#p0991bdf768)" style="fill: #c4d5f3; fill-opacity: 0.75"/>
    <path d="M 70.170645 60.703756 
L 67.901357 62.527722 
L 70.009936 64.35417 
L 72.279692 62.519898 
z
" clip-path="url(#p0991bdf768)" style="fill: #adc9fd; fill-opacity: 0.75"/>
    <path d="M 74.53613 60.668547 
L 72.279692 62.519898 
L 74.400696 64.346336 
L 76.65758 62.484644 
z
" clip-path="url(#p0991bdf768)" style="fill: #adc9fd; fill-opacity: 0.75"/>
    <path d="M 78.901471 60.608962 
L 76.65758 62.484644 
L 78.791057 64.311037 
L 81.035368 62.424981 
z
" clip-path="url(#p0991bdf768)" style="fill: #aec9fc; fill-opacity: 0.75"/>
    <path d="M 83.266976 60.528088 
L 81.035368 62.424981 
L 83.181363 64.251297 
L 85.41336 62.344003 
z
" clip-path="url(#p0991bdf768)" style="fill: #aec9fc; fill-opacity: 0.75"/>
    <path d="M 87.632908 60.429082 
L 85.41336 62.344003 
L 87.571914 64.170214 
L 89.791814 62.244867 
z
" clip-path="url(#p0991bdf768)" style="fill: #afcafc; fill-opacity: 0.75"/>
    <path d="M 91.999484 60.315152 
L 89.791814 62.244867 
L 91.962963 64.07095 
L 94.170945 62.13079 
z
" clip-path="url(#p0991bdf768)" style="fill: #b1cbfc; fill-opacity: 0.75"/>
    <path d="M 96.366875 60.189556 
L 94.170945 62.13079 
L 96.35472 63.956725 
L 98.550916 62.005031 
z
" clip-path="url(#p0991bdf768)" style="fill: #b2ccfb; fill-opacity: 0.75"/>
    <path d="M 100.735202 60.055589 
L 98.550916 62.005031 
L 100.747344 63.830803 
L 102.931844 61.87089 
z
" clip-path="url(#p0991bdf768)" style="fill: #b3cdfb; fill-opacity: 0.75"/>
    <path d="M 105.104541 59.916573 
L 102.931844 61.87089 
L 105.140946 63.696488 
L 107.313799 61.731694 
z
" clip-path="url(#p0991bdf768)" style="fill: #b5cdfa; fill-opacity: 0.75"/>
    <path d="M 109.474915 59.775851 
L 107.313799 61.731694 
L 109.53559 63.557111 
L 111.696798 61.590788 
z
" clip-path="url(#p0991bdf768)" style="fill: #b6cefa; fill-opacity: 0.75"/>
    <path d="M 113.8463 59.63677 
L 111.696798 61.590788 
L 113.931287 63.416023 
L 116.080811 61.451526 
z
" clip-path="url(#p0991bdf768)" style="fill: #b7cff9; fill-opacity: 0.75"/>
    <path d="M 118.218623 59.502678 
L 116.080811 61.451526 
L 118.328001 63.27658 
L 120.465758 61.31726 
z
" clip-path="url(#p0991bdf768)" style="fill: #b9d0f9; fill-opacity: 0.75"/>
    <path d="M 122.591763 59.376911 
L 120.465758 61.31726 
L 122.725646 63.14214 
L 124.851511 61.191329 
z
" clip-path="url(#p0991bdf768)" style="fill: #bad0f8; fill-opacity: 0.75"/>
    <path d="M 126.965548 59.26278 
L 124.851511 61.191329 
L 127.124084 63.016045 
L 129.237891 61.077049 
z
" clip-path="url(#p0991bdf768)" style="fill: #bbd1f8; fill-opacity: 0.75"/>
    <path d="M 72.279692 62.519898 
L 70.009936 64.35417 
L 72.130503 66.191003 
L 74.400696 64.346336 
z
" clip-path="url(#p0991bdf768)" style="fill: #a3c2fe; fill-opacity: 0.75"/>
    <path d="M 76.65758 62.484644 
L 74.400696 64.346336 
L 76.533759 66.183159 
L 78.791057 64.311037 
z
" clip-path="url(#p0991bdf768)" style="fill: #a5c3fe; fill-opacity: 0.75"/>
    <path d="M 81.035368 62.424981 
L 78.791057 64.311037 
L 80.936665 66.147814 
L 83.181363 64.251297 
z
" clip-path="url(#p0991bdf768)" style="fill: #a5c3fe; fill-opacity: 0.75"/>
    <path d="M 85.41336 62.344003 
L 83.181363 64.251297 
L 85.33956 66.087997 
L 87.571914 64.170214 
z
" clip-path="url(#p0991bdf768)" style="fill: #a5c3fe; fill-opacity: 0.75"/>
    <path d="M 89.791814 62.244867 
L 87.571914 64.170214 
L 89.742742 66.006809 
L 91.962963 64.07095 
z
" clip-path="url(#p0991bdf768)" style="fill: #a6c4fe; fill-opacity: 0.75"/>
    <path d="M 94.170945 62.13079 
L 91.962963 64.07095 
L 94.146459 65.907417 
L 96.35472 63.956725 
z
" clip-path="url(#p0991bdf768)" style="fill: #a7c5fe; fill-opacity: 0.75"/>
    <path d="M 98.550916 62.005031 
L 96.35472 63.956725 
L 98.550916 65.793044 
L 100.747344 63.830803 
z
" clip-path="url(#p0991bdf768)" style="fill: #a9c6fd; fill-opacity: 0.75"/>
    <path d="M 102.931844 61.87089 
L 100.747344 63.830803 
L 102.956266 65.66696 
L 105.140946 63.696488 
z
" clip-path="url(#p0991bdf768)" style="fill: #aac7fd; fill-opacity: 0.75"/>
    <path d="M 107.313799 61.731694 
L 105.140946 63.696488 
L 107.362616 65.532471 
L 109.53559 63.557111 
z
" clip-path="url(#p0991bdf768)" style="fill: #abc8fd; fill-opacity: 0.75"/>
    <path d="M 111.696798 61.590788 
L 109.53559 63.557111 
L 111.770022 65.392914 
L 113.931287 63.416023 
z
" clip-path="url(#p0991bdf768)" style="fill: #adc9fd; fill-opacity: 0.75"/>
    <path d="M 116.080811 61.451526 
L 113.931287 63.416023 
L 116.178491 65.251643 
L 118.328001 63.27658 
z
" clip-path="url(#p0991bdf768)" style="fill: #aec9fc; fill-opacity: 0.75"/>
    <path d="M 120.465758 61.31726 
L 118.328001 63.27658 
L 120.58798 65.11202 
L 122.725646 63.14214 
z
" clip-path="url(#p0991bdf768)" style="fill: #afcafc; fill-opacity: 0.75"/>
    <path d="M 124.851511 61.191329 
L 122.725646 63.14214 
L 124.998395 64.977405 
L 127.124084 63.016045 
z
" clip-path="url(#p0991bdf768)" style="fill: #b1cbfc; fill-opacity: 0.75"/>
    <path d="M 74.400696 64.346336 
L 72.130503 66.191003 
L 74.26316 68.038309 
L 76.533759 66.183159 
z
" clip-path="url(#p0991bdf768)" style="fill: #9bbcff; fill-opacity: 0.75"/>
    <path d="M 78.791057 64.311037 
L 76.533759 66.183159 
L 78.678984 68.030455 
L 80.936665 66.147814 
z
" clip-path="url(#p0991bdf768)" style="fill: #9bbcff; fill-opacity: 0.75"/>
    <path d="M 83.181363 64.251297 
L 80.936665 66.147814 
L 83.094506 67.995064 
L 85.33956 66.087997 
z
" clip-path="url(#p0991bdf768)" style="fill: #9bbcff; fill-opacity: 0.75"/>
    <path d="M 87.571914 64.170214 
L 85.33956 66.087997 
L 87.510064 67.93517 
L 89.742742 66.006809 
z
" clip-path="url(#p0991bdf768)" style="fill: #9dbdff; fill-opacity: 0.75"/>
    <path d="M 91.962963 64.07095 
L 89.742742 66.006809 
L 91.925949 67.853878 
L 94.146459 65.907417 
z
" clip-path="url(#p0991bdf768)" style="fill: #9dbdff; fill-opacity: 0.75"/>
    <path d="M 96.35472 63.956725 
L 94.146459 65.907417 
L 96.342408 67.754358 
L 98.550916 65.793044 
z
" clip-path="url(#p0991bdf768)" style="fill: #9ebeff; fill-opacity: 0.75"/>
    <path d="M 100.747344 63.830803 
L 98.550916 65.793044 
L 100.759637 67.639838 
L 102.956266 65.66696 
z
" clip-path="url(#p0991bdf768)" style="fill: #9fbfff; fill-opacity: 0.75"/>
    <path d="M 105.140946 63.696488 
L 102.956266 65.66696 
L 105.177787 67.513591 
L 107.362616 65.532471 
z
" clip-path="url(#p0991bdf768)" style="fill: #a1c0ff; fill-opacity: 0.75"/>
    <path d="M 109.53559 63.557111 
L 107.362616 65.532471 
L 109.596959 67.378929 
L 111.770022 65.392914 
z
" clip-path="url(#p0991bdf768)" style="fill: #a2c1ff; fill-opacity: 0.75"/>
    <path d="M 113.931287 63.416023 
L 111.770022 65.392914 
L 114.017202 67.239191 
L 116.178491 65.251643 
z
" clip-path="url(#p0991bdf768)" style="fill: #a3c2fe; fill-opacity: 0.75"/>
    <path d="M 118.328001 63.27658 
L 116.178491 65.251643 
L 118.438518 67.097738 
L 120.58798 65.11202 
z
" clip-path="url(#p0991bdf768)" style="fill: #a5c3fe; fill-opacity: 0.75"/>
    <path d="M 122.725646 63.14214 
L 120.58798 65.11202 
L 122.860855 66.957934 
L 124.998395 64.977405 
z
" clip-path="url(#p0991bdf768)" style="fill: #a6c4fe; fill-opacity: 0.75"/>
    <path d="M 76.533759 66.183159 
L 74.26316 68.038309 
L 76.408012 69.896178 
L 78.678984 68.030455 
z
" clip-path="url(#p0991bdf768)" style="fill: #92b4fe; fill-opacity: 0.75"/>
    <path d="M 80.936665 66.147814 
L 78.678984 68.030455 
L 80.836475 69.888313 
L 83.094506 67.995064 
z
" clip-path="url(#p0991bdf768)" style="fill: #92b4fe; fill-opacity: 0.75"/>
    <path d="M 85.33956 66.087997 
L 83.094506 67.995064 
L 85.264687 69.852877 
L 87.510064 67.93517 
z
" clip-path="url(#p0991bdf768)" style="fill: #92b4fe; fill-opacity: 0.75"/>
    <path d="M 89.742742 66.006809 
L 87.510064 67.93517 
L 89.69298 69.792906 
L 91.925949 67.853878 
z
" clip-path="url(#p0991bdf768)" style="fill: #93b5fe; fill-opacity: 0.75"/>
    <path d="M 94.146459 65.907417 
L 91.925949 67.853878 
L 94.121642 69.711509 
L 96.342408 67.754358 
z
" clip-path="url(#p0991bdf768)" style="fill: #94b6ff; fill-opacity: 0.75"/>
    <path d="M 98.550916 65.793044 
L 96.342408 67.754358 
L 98.550916 69.611862 
L 100.759637 67.639838 
z
" clip-path="url(#p0991bdf768)" style="fill: #94b6ff; fill-opacity: 0.75"/>
    <path d="M 102.956266 65.66696 
L 100.759637 67.639838 
L 102.980992 69.497194 
L 105.177787 67.513591 
z
" clip-path="url(#p0991bdf768)" style="fill: #96b7ff; fill-opacity: 0.75"/>
    <path d="M 107.362616 65.532471 
L 105.177787 67.513591 
L 107.412017 69.370785 
L 109.596959 67.378929 
z
" clip-path="url(#p0991bdf768)" style="fill: #97b8ff; fill-opacity: 0.75"/>
    <path d="M 111.770022 65.392914 
L 109.596959 67.378929 
L 111.844085 69.23595 
L 114.017202 67.239191 
z
" clip-path="url(#p0991bdf768)" style="fill: #9abbff; fill-opacity: 0.75"/>
    <path d="M 116.178491 65.251643 
L 114.017202 67.239191 
L 116.27724 69.096033 
L 118.438518 67.097738 
z
" clip-path="url(#p0991bdf768)" style="fill: #9bbcff; fill-opacity: 0.75"/>
    <path d="M 120.58798 65.11202 
L 118.438518 67.097738 
L 120.711477 68.954397 
L 122.860855 66.957934 
z
" clip-path="url(#p0991bdf768)" style="fill: #9dbdff; fill-opacity: 0.75"/>
    <path d="M 78.678984 68.030455 
L 76.408012 69.896178 
L 78.565164 71.7647 
L 80.836475 69.888313 
z
" clip-path="url(#p0991bdf768)" style="fill: #88abfd; fill-opacity: 0.75"/>
    <path d="M 83.094506 67.995064 
L 80.836475 69.888313 
L 83.006338 71.756826 
L 85.264687 69.852877 
z
" clip-path="url(#p0991bdf768)" style="fill: #88abfd; fill-opacity: 0.75"/>
    <path d="M 87.510064 67.93517 
L 85.264687 69.852877 
L 87.447312 71.721344 
L 89.69298 69.792906 
z
" clip-path="url(#p0991bdf768)" style="fill: #89acfd; fill-opacity: 0.75"/>
    <path d="M 91.925949 67.853878 
L 89.69298 69.792906 
L 91.888414 71.661296 
L 94.121642 69.711509 
z
" clip-path="url(#p0991bdf768)" style="fill: #89acfd; fill-opacity: 0.75"/>
    <path d="M 96.342408 67.754358 
L 94.121642 69.711509 
L 96.329928 71.579795 
L 98.550916 69.611862 
z
" clip-path="url(#p0991bdf768)" style="fill: #8badfd; fill-opacity: 0.75"/>
    <path d="M 100.759637 67.639838 
L 98.550916 69.611862 
L 100.772091 71.48002 
L 102.980992 69.497194 
z
" clip-path="url(#p0991bdf768)" style="fill: #8caffe; fill-opacity: 0.75"/>
    <path d="M 105.177787 67.513591 
L 102.980992 69.497194 
L 105.21509 71.365206 
L 107.412017 69.370785 
z
" clip-path="url(#p0991bdf768)" style="fill: #8db0fe; fill-opacity: 0.75"/>
    <path d="M 109.596959 67.378929 
L 107.412017 69.370785 
L 109.659065 71.238634 
L 111.844085 69.23595 
z
" clip-path="url(#p0991bdf768)" style="fill: #8fb1fe; fill-opacity: 0.75"/>
    <path d="M 114.017202 67.239191 
L 111.844085 69.23595 
L 114.104104 71.103626 
L 116.27724 69.096033 
z
" clip-path="url(#p0991bdf768)" style="fill: #90b2fe; fill-opacity: 0.75"/>
    <path d="M 118.438518 67.097738 
L 116.27724 69.096033 
L 118.550247 70.963529 
L 120.711477 68.954397 
z
" clip-path="url(#p0991bdf768)" style="fill: #92b4fe; fill-opacity: 0.75"/>
    <path d="M 80.836475 69.888313 
L 78.565164 71.7647 
L 80.734721 73.643968 
L 83.006338 71.756826 
z
" clip-path="url(#p0991bdf768)" style="fill: #7ea1fa; fill-opacity: 0.75"/>
    <path d="M 85.264687 69.852877 
L 83.006338 71.756826 
L 85.18868 73.636084 
L 87.447312 71.721344 
z
" clip-path="url(#p0991bdf768)" style="fill: #80a3fa; fill-opacity: 0.75"/>
    <path d="M 89.69298 69.792906 
L 87.447312 71.721344 
L 89.64249 73.600557 
L 91.888414 71.661296 
z
" clip-path="url(#p0991bdf768)" style="fill: #80a3fa; fill-opacity: 0.75"/>
    <path d="M 94.121642 69.711509 
L 91.888414 71.661296 
L 94.096475 73.540432 
L 96.329928 71.579795 
z
" clip-path="url(#p0991bdf768)" style="fill: #80a3fa; fill-opacity: 0.75"/>
    <path d="M 98.550916 69.611862 
L 96.329928 71.579795 
L 98.550916 73.458827 
L 100.772091 71.48002 
z
" clip-path="url(#p0991bdf768)" style="fill: #81a4fb; fill-opacity: 0.75"/>
    <path d="M 102.980992 69.497194 
L 100.772091 71.48002 
L 103.006043 73.358924 
L 105.21509 71.365206 
z
" clip-path="url(#p0991bdf768)" style="fill: #82a6fb; fill-opacity: 0.75"/>
    <path d="M 107.412017 69.370785 
L 105.21509 71.365206 
L 107.46204 73.243963 
L 109.659065 71.238634 
z
" clip-path="url(#p0991bdf768)" style="fill: #84a7fc; fill-opacity: 0.75"/>
    <path d="M 111.844085 69.23595 
L 109.659065 71.238634 
L 111.919041 73.117229 
L 114.104104 71.103626 
z
" clip-path="url(#p0991bdf768)" style="fill: #85a8fc; fill-opacity: 0.75"/>
    <path d="M 116.27724 69.096033 
L 114.104104 71.103626 
L 116.377128 72.982048 
L 118.550247 70.963529 
z
" clip-path="url(#p0991bdf768)" style="fill: #86a9fc; fill-opacity: 0.75"/>
    <path d="M 83.006338 71.756826 
L 80.734721 73.643968 
L 82.91679 75.534074 
L 85.18868 73.636084 
z
" clip-path="url(#p0991bdf768)" style="fill: #7699f6; fill-opacity: 0.75"/>
    <path d="M 87.447312 71.721344 
L 85.18868 73.636084 
L 87.383608 75.52618 
L 89.64249 73.600557 
z
" clip-path="url(#p0991bdf768)" style="fill: #7699f6; fill-opacity: 0.75"/>
    <path d="M 91.888414 71.661296 
L 89.64249 73.600557 
L 91.850328 75.490608 
L 94.096475 73.540432 
z
" clip-path="url(#p0991bdf768)" style="fill: #7699f6; fill-opacity: 0.75"/>
    <path d="M 96.329928 71.579795 
L 94.096475 73.540432 
L 96.317272 75.430407 
L 98.550916 73.458827 
z
" clip-path="url(#p0991bdf768)" style="fill: #779af7; fill-opacity: 0.75"/>
    <path d="M 100.772091 71.48002 
L 98.550916 73.458827 
L 100.784714 75.348697 
L 103.006043 73.358924 
z
" clip-path="url(#p0991bdf768)" style="fill: #779af7; fill-opacity: 0.75"/>
    <path d="M 105.21509 71.365206 
L 103.006043 73.358924 
L 105.252882 75.248667 
L 107.46204 73.243963 
z
" clip-path="url(#p0991bdf768)" style="fill: #799cf8; fill-opacity: 0.75"/>
    <path d="M 109.659065 71.238634 
L 107.46204 73.243963 
L 109.721953 75.13356 
L 111.919041 73.117229 
z
" clip-path="url(#p0991bdf768)" style="fill: #7a9df8; fill-opacity: 0.75"/>
    <path d="M 114.104104 71.103626 
L 111.919041 73.117229 
L 114.192056 75.006664 
L 116.377128 72.982048 
z
" clip-path="url(#p0991bdf768)" style="fill: #7b9ff9; fill-opacity: 0.75"/>
    <path d="M 85.18868 73.636084 
L 82.91679 75.534074 
L 85.111481 77.435113 
L 87.383608 75.52618 
z
" clip-path="url(#p0991bdf768)" style="fill: #6c8ff1; fill-opacity: 0.75"/>
    <path d="M 89.64249 73.600557 
L 87.383608 75.52618 
L 89.591232 77.427209 
L 91.850328 75.490608 
z
" clip-path="url(#p0991bdf768)" style="fill: #6c8ff1; fill-opacity: 0.75"/>
    <path d="M 94.096475 73.540432 
L 91.850328 75.490608 
L 94.070938 77.391592 
L 96.317272 75.430407 
z
" clip-path="url(#p0991bdf768)" style="fill: #6c8ff1; fill-opacity: 0.75"/>
    <path d="M 98.550916 73.458827 
L 96.317272 75.430407 
L 98.550916 77.331314 
L 100.784714 75.348697 
z
" clip-path="url(#p0991bdf768)" style="fill: #6e90f2; fill-opacity: 0.75"/>
    <path d="M 103.006043 73.358924 
L 100.784714 75.348697 
L 103.031436 77.249501 
L 105.252882 75.248667 
z
" clip-path="url(#p0991bdf768)" style="fill: #6f92f3; fill-opacity: 0.75"/>
    <path d="M 107.46204 73.243963 
L 105.252882 75.248667 
L 107.51272 77.149344 
L 109.721953 75.13356 
z
" clip-path="url(#p0991bdf768)" style="fill: #7093f3; fill-opacity: 0.75"/>
    <path d="M 111.919041 73.117229 
L 109.721953 75.13356 
L 111.994943 77.03409 
L 114.192056 75.006664 
z
" clip-path="url(#p0991bdf768)" style="fill: #7093f3; fill-opacity: 0.75"/>
    <path d="M 87.383608 75.52618 
L 85.111481 77.435113 
L 87.318904 79.34718 
L 89.591232 77.427209 
z
" clip-path="url(#p0991bdf768)" style="fill: #6384eb; fill-opacity: 0.75"/>
    <path d="M 91.850328 75.490608 
L 89.591232 77.427209 
L 91.811663 79.339266 
L 94.070938 77.391592 
z
" clip-path="url(#p0991bdf768)" style="fill: #6384eb; fill-opacity: 0.75"/>
    <path d="M 96.317272 75.430407 
L 94.070938 77.391592 
L 96.30443 79.303603 
L 98.550916 77.331314 
z
" clip-path="url(#p0991bdf768)" style="fill: #6485ec; fill-opacity: 0.75"/>
    <path d="M 100.784714 75.348697 
L 98.550916 77.331314 
L 100.797517 79.243249 
L 103.031436 77.249501 
z
" clip-path="url(#p0991bdf768)" style="fill: #6485ec; fill-opacity: 0.75"/>
    <path d="M 105.252882 75.248667 
L 103.031436 77.249501 
L 105.291192 79.161333 
L 107.51272 77.149344 
z
" clip-path="url(#p0991bdf768)" style="fill: #6687ed; fill-opacity: 0.75"/>
    <path d="M 109.721953 75.13356 
L 107.51272 77.149344 
L 109.785671 79.061048 
L 111.994943 77.03409 
z
" clip-path="url(#p0991bdf768)" style="fill: #6788ee; fill-opacity: 0.75"/>
    <path d="M 89.591232 77.427209 
L 87.318904 79.34718 
L 89.539168 81.270371 
L 91.811663 79.339266 
z
" clip-path="url(#p0991bdf768)" style="fill: #5a78e4; fill-opacity: 0.75"/>
    <path d="M 94.070938 77.391592 
L 91.811663 79.339266 
L 94.045011 81.262446 
L 96.30443 79.303603 
z
" clip-path="url(#p0991bdf768)" style="fill: #5b7ae5; fill-opacity: 0.75"/>
    <path d="M 98.550916 77.331314 
L 96.30443 79.303603 
L 98.550916 81.226739 
L 100.797517 79.243249 
z
" clip-path="url(#p0991bdf768)" style="fill: #5b7ae5; fill-opacity: 0.75"/>
    <path d="M 103.031436 77.249501 
L 100.797517 79.243249 
L 103.05719 81.166309 
L 105.291192 79.161333 
z
" clip-path="url(#p0991bdf768)" style="fill: #5d7ce6; fill-opacity: 0.75"/>
    <path d="M 107.51272 77.149344 
L 105.291192 79.161333 
L 107.564097 81.084289 
L 109.785671 79.061048 
z
" clip-path="url(#p0991bdf768)" style="fill: #5d7ce6; fill-opacity: 0.75"/>
    <path d="M 91.811663 79.339266 
L 89.539168 81.270371 
L 91.772387 83.204783 
L 94.045011 81.262446 
z
" clip-path="url(#p0991bdf768)" style="fill: #536edd; fill-opacity: 0.75"/>
    <path d="M 96.30443 79.303603 
L 94.045011 81.262446 
L 96.291391 83.196848 
L 98.550916 81.226739 
z
" clip-path="url(#p0991bdf768)" style="fill: #536edd; fill-opacity: 0.75"/>
    <path d="M 100.797517 79.243249 
L 98.550916 81.226739 
L 100.81051 83.161096 
L 103.05719 81.166309 
z
" clip-path="url(#p0991bdf768)" style="fill: #536edd; fill-opacity: 0.75"/>
    <path d="M 105.291192 79.161333 
L 103.05719 81.166309 
L 105.330049 83.100589 
L 107.564097 81.084289 
z
" clip-path="url(#p0991bdf768)" style="fill: #5470de; fill-opacity: 0.75"/>
    <path d="M 94.045011 81.262446 
L 91.772387 83.204783 
L 94.018674 85.150514 
L 96.291391 83.196848 
z
" clip-path="url(#p0991bdf768)" style="fill: #4a63d3; fill-opacity: 0.75"/>
    <path d="M 98.550916 81.226739 
L 96.291391 83.196848 
L 98.550916 85.14257 
L 100.81051 83.161096 
z
" clip-path="url(#p0991bdf768)" style="fill: #4a63d3; fill-opacity: 0.75"/>
    <path d="M 103.05719 81.166309 
L 100.81051 83.161096 
L 103.083327 85.106773 
L 105.330049 83.100589 
z
" clip-path="url(#p0991bdf768)" style="fill: #4b64d5; fill-opacity: 0.75"/>
    <path d="M 96.291391 83.196848 
L 94.018674 85.150514 
L 96.278145 87.107666 
L 98.550916 85.14257 
z
" clip-path="url(#p0991bdf768)" style="fill: #4257c9; fill-opacity: 0.75"/>
    <path d="M 100.81051 83.161096 
L 98.550916 85.14257 
L 100.823702 87.099711 
L 103.083327 85.106773 
z
" clip-path="url(#p0991bdf768)" style="fill: #4257c9; fill-opacity: 0.75"/>
    <path d="M 98.550916 85.14257 
L 96.278145 87.107666 
L 98.550916 89.076337 
L 100.823702 87.099711 
z
" clip-path="url(#p0991bdf768)" style="fill: #3b4cc0; fill-opacity: 0.75"/>
   </g>
  </g>
 </g>
 <defs>
  <clipPath id="p0991bdf768">
   <rect x="45.499284" y="3.00024" width="103.311072" height="103.311072"/>
  </clipPath>
 </defs>
</svg>
