<?xml version="1.0" encoding="utf-8" standalone="no"?>
<!DOCTYPE svg PUBLIC "-//W3C//DTD SVG 1.1//EN"
  "http://www.w3.org/Graphics/SVG/1.1/DTD/svg11.dtd">
<svg xmlns:xlink="http://www.w3.org/1999/xlink" width="97.15482pt" height="54.655776pt" viewBox="0 0 97.15482 54.655776" xmlns="http://www.w3.org/2000/svg" version="1.1">
 <metadata>
  <rdf:RDF xmlns:dc="http://purl.org/dc/elements/1.1/" xmlns:cc="http://creativecommons.org/ns#" xmlns:rdf="http://www.w3.org/1999/02/22-rdf-syntax-ns#">
   <cc:Work>
    <dc:type rdf:resource="http://purl.org/dc/dcmitype/StillImage"/>
    <dc:date>2025-01-02T14:23:36.178236</dc:date>
    <dc:format>image/svg+xml</dc:format>
    <dc:creator>
     <cc:Agent>
      <dc:title>Matplotlib v3.8.2, https://matplotlib.org/</dc:title>
     </cc:Agent>
    </dc:creator>
   </cc:Work>
  </rdf:RDF>
 </metadata>
 <defs>
  <style type="text/css">*{stroke-linejoin: round; stroke-linecap: butt}</style>
 </defs>
 <g id="figure_1">
  <g id="patch_1">
   <path d="M 0 54.655776 
L 97.15482 54.655776 
L 97.15482 0 
L 0 0 
z
" style="fill: #ffffff"/>
  </g>
  <g id="axes_1">
   <g id="patch_2">
    <path d="M 31.080396 31.500849 
L 92.520963 31.500849 
L 92.520963 10.434604 
L 31.080396 10.434604 
z
" style="fill: #ffffff"/>
   </g>
   <g id="matplotlib.axis_1">
    <g id="xtick_1">
     <g id="line2d_1">
      <path d="M 33.873149 31.500849 
L 33.873149 10.434604 
" clip-path="url(#p21f19dc4e6)" style="fill: none; stroke: #b0b0b0; stroke-width: 0.1; stroke-linecap: round"/>
     </g>
     <g id="line2d_2"/>
     <g id="text_1">
      <!-- −10 -->
      <g style="fill: #262626" transform="translate(26.486509 40.319755) scale(0.07 -0.07)">
       <defs>
        <path id="DejaVuSerif-2212" d="M 678 2259 
L 4684 2259 
L 4684 1753 
L 678 1753 
L 678 2259 
z
" transform="scale(0.015625)"/>
        <path id="DejaVuSerif-31" d="M 909 0 
L 909 331 
L 1722 331 
L 1722 4213 
L 781 3603 
L 781 4013 
L 1919 4750 
L 2350 4750 
L 2350 331 
L 3163 331 
L 3163 0 
L 909 0 
z
" transform="scale(0.015625)"/>
        <path id="DejaVuSerif-30" d="M 2034 219 
Q 2513 219 2750 744 
Q 2988 1269 2988 2328 
Q 2988 3391 2750 3916 
Q 2513 4441 2034 4441 
Q 1556 4441 1318 3916 
Q 1081 3391 1081 2328 
Q 1081 1269 1318 744 
Q 1556 219 2034 219 
z
M 2034 -91 
Q 1275 -91 848 546 
Q 422 1184 422 2328 
Q 422 3475 848 4112 
Q 1275 4750 2034 4750 
Q 2797 4750 3222 4112 
Q 3647 3475 3647 2328 
Q 3647 1184 3222 546 
Q 2797 -91 2034 -91 
z
" transform="scale(0.015625)"/>
       </defs>
       <use xlink:href="#DejaVuSerif-2212"/>
       <use xlink:href="#DejaVuSerif-31" x="83.789062"/>
       <use xlink:href="#DejaVuSerif-30" x="147.412109"/>
      </g>
     </g>
    </g>
    <g id="xtick_2">
     <g id="line2d_3">
      <path d="M 61.80068 31.500849 
L 61.80068 10.434604 
" clip-path="url(#p21f19dc4e6)" style="fill: none; stroke: #b0b0b0; stroke-width: 0.1; stroke-linecap: round"/>
     </g>
     <g id="line2d_4"/>
     <g id="text_2">
      <!-- 0 -->
      <g style="fill: #262626" transform="translate(59.573805 40.319755) scale(0.07 -0.07)">
       <use xlink:href="#DejaVuSerif-30"/>
      </g>
     </g>
    </g>
    <g id="xtick_3">
     <g id="line2d_5">
      <path d="M 89.72821 31.500849 
L 89.72821 10.434604 
" clip-path="url(#p21f19dc4e6)" style="fill: none; stroke: #b0b0b0; stroke-width: 0.1; stroke-linecap: round"/>
     </g>
     <g id="line2d_6"/>
     <g id="text_3">
      <!-- 10 -->
      <g style="fill: #262626" transform="translate(85.27446 40.319755) scale(0.07 -0.07)">
       <use xlink:href="#DejaVuSerif-31"/>
       <use xlink:href="#DejaVuSerif-30" x="63.623047"/>
      </g>
     </g>
    </g>
    <g id="text_4">
     <!-- $\beta$ $[deg]$ -->
     <g style="fill: #262626" transform="translate(50.91068 50.395536) scale(0.06 -0.06)">
      <defs>
       <path id="DejaVuSans-Oblique-3b2" d="M 872 216 
L 572 -1331 
L -6 -1331 
L 928 3478 
Q 1206 4903 2538 4903 
Q 3888 4903 3659 3700 
Q 3503 2844 2894 2531 
Q 3713 2250 3553 1416 
Q 3272 -69 1759 -66 
Q 1097 -63 872 216 
z
M 1019 966 
Q 1259 422 1875 425 
Q 2775 425 2966 1406 
Q 3138 2288 1675 2219 
L 1778 2750 
Q 2909 2731 3106 3750 
Q 3241 4438 2509 4434 
Q 1691 4434 1503 3459 
L 1019 966 
z
" transform="scale(0.015625)"/>
       <path id="DejaVuSerif-20" transform="scale(0.015625)"/>
       <path id="DejaVuSans-5b" d="M 550 4863 
L 1875 4863 
L 1875 4416 
L 1125 4416 
L 1125 -397 
L 1875 -397 
L 1875 -844 
L 550 -844 
L 550 4863 
z
" transform="scale(0.015625)"/>
       <path id="DejaVuSans-Oblique-64" d="M 2675 525 
Q 2444 222 2128 65 
Q 1813 -91 1428 -91 
Q 903 -91 598 267 
Q 294 625 294 1247 
Q 294 1766 478 2236 
Q 663 2706 1013 3078 
Q 1244 3325 1534 3454 
Q 1825 3584 2144 3584 
Q 2481 3584 2739 3421 
Q 2997 3259 3138 2956 
L 3513 4863 
L 4091 4863 
L 3144 0 
L 2566 0 
L 2675 525 
z
M 891 1350 
Q 891 897 1095 644 
Q 1300 391 1663 391 
Q 1931 391 2161 520 
Q 2391 650 2566 903 
Q 2750 1166 2856 1509 
Q 2963 1853 2963 2188 
Q 2963 2622 2758 2865 
Q 2553 3109 2194 3109 
Q 1922 3109 1687 2981 
Q 1453 2853 1288 2613 
Q 1106 2353 998 2009 
Q 891 1666 891 1350 
z
" transform="scale(0.015625)"/>
       <path id="DejaVuSans-Oblique-65" d="M 3078 2063 
Q 3088 2113 3092 2166 
Q 3097 2219 3097 2272 
Q 3097 2653 2873 2875 
Q 2650 3097 2266 3097 
Q 1838 3097 1509 2826 
Q 1181 2556 1013 2059 
L 3078 2063 
z
M 3578 1613 
L 903 1613 
Q 884 1494 878 1425 
Q 872 1356 872 1306 
Q 872 872 1139 634 
Q 1406 397 1894 397 
Q 2269 397 2603 481 
Q 2938 566 3225 728 
L 3116 159 
Q 2806 34 2476 -28 
Q 2147 -91 1806 -91 
Q 1078 -91 686 257 
Q 294 606 294 1247 
Q 294 1794 489 2264 
Q 684 2734 1063 3103 
Q 1306 3334 1642 3459 
Q 1978 3584 2356 3584 
Q 2950 3584 3301 3228 
Q 3653 2872 3653 2272 
Q 3653 2128 3634 1964 
Q 3616 1800 3578 1613 
z
" transform="scale(0.015625)"/>
       <path id="DejaVuSans-Oblique-67" d="M 3816 3500 
L 3219 434 
Q 3047 -456 2561 -893 
Q 2075 -1331 1253 -1331 
Q 950 -1331 690 -1286 
Q 431 -1241 206 -1147 
L 313 -588 
Q 525 -725 762 -790 
Q 1000 -856 1269 -856 
Q 1816 -856 2167 -557 
Q 2519 -259 2631 300 
L 2681 563 
Q 2441 288 2122 144 
Q 1803 0 1434 0 
Q 903 0 598 351 
Q 294 703 294 1319 
Q 294 1803 478 2267 
Q 663 2731 997 3091 
Q 1219 3328 1514 3456 
Q 1809 3584 2131 3584 
Q 2484 3584 2746 3420 
Q 3009 3256 3138 2956 
L 3238 3500 
L 3816 3500 
z
M 2950 2216 
Q 2950 2641 2750 2872 
Q 2550 3103 2181 3103 
Q 1953 3103 1747 3012 
Q 1541 2922 1394 2759 
Q 1156 2491 1023 2127 
Q 891 1763 891 1375 
Q 891 944 1092 712 
Q 1294 481 1672 481 
Q 2219 481 2584 976 
Q 2950 1472 2950 2216 
z
" transform="scale(0.015625)"/>
       <path id="DejaVuSans-5d" d="M 1947 4863 
L 1947 -844 
L 622 -844 
L 622 -397 
L 1369 -397 
L 1369 4416 
L 622 4416 
L 622 4863 
L 1947 4863 
z
" transform="scale(0.015625)"/>
      </defs>
      <use xlink:href="#DejaVuSans-Oblique-3b2" transform="translate(0 0.390625)"/>
      <use xlink:href="#DejaVuSerif-20" transform="translate(63.818359 0.390625)"/>
      <use xlink:href="#DejaVuSans-5b" transform="translate(95.605469 0.390625)"/>
      <use xlink:href="#DejaVuSans-Oblique-64" transform="translate(134.619141 0.390625)"/>
      <use xlink:href="#DejaVuSans-Oblique-65" transform="translate(198.095703 0.390625)"/>
      <use xlink:href="#DejaVuSans-Oblique-67" transform="translate(259.619141 0.390625)"/>
      <use xlink:href="#DejaVuSans-5d" transform="translate(323.095703 0.390625)"/>
     </g>
    </g>
   </g>
   <g id="matplotlib.axis_2">
    <g id="ytick_1">
     <g id="line2d_7">
      <path d="M 31.080396 30.472334 
L 92.520963 30.472334 
" clip-path="url(#p21f19dc4e6)" style="fill: none; stroke: #b0b0b0; stroke-width: 0.1; stroke-linecap: round"/>
     </g>
     <g id="line2d_8"/>
     <g id="text_5">
      <!-- −50 -->
      <g style="fill: #262626" transform="translate(12.807115 33.131787) scale(0.07 -0.07)">
       <defs>
        <path id="DejaVuSerif-35" d="M 3219 4666 
L 3219 4153 
L 1081 4153 
L 1081 2816 
Q 1244 2928 1461 2984 
Q 1678 3041 1947 3041 
Q 2703 3041 3140 2622 
Q 3578 2203 3578 1478 
Q 3578 738 3136 323 
Q 2694 -91 1894 -91 
Q 1572 -91 1234 -12 
Q 897 66 544 225 
L 544 1131 
L 897 1131 
Q 925 688 1179 453 
Q 1434 219 1894 219 
Q 2388 219 2653 544 
Q 2919 869 2919 1478 
Q 2919 2084 2655 2407 
Q 2391 2731 1894 2731 
Q 1613 2731 1398 2631 
Q 1184 2531 1019 2322 
L 750 2322 
L 750 4666 
L 3219 4666 
z
" transform="scale(0.015625)"/>
       </defs>
       <use xlink:href="#DejaVuSerif-2212"/>
       <use xlink:href="#DejaVuSerif-35" x="83.789062"/>
       <use xlink:href="#DejaVuSerif-30" x="147.412109"/>
      </g>
     </g>
    </g>
    <g id="ytick_2">
     <g id="line2d_9">
      <path d="M 31.080396 21.035813 
L 92.520963 21.035813 
" clip-path="url(#p21f19dc4e6)" style="fill: none; stroke: #b0b0b0; stroke-width: 0.1; stroke-linecap: round"/>
     </g>
     <g id="line2d_10"/>
     <g id="text_6">
      <!-- 0 -->
      <g style="fill: #262626" transform="translate(23.126646 23.695266) scale(0.07 -0.07)">
       <use xlink:href="#DejaVuSerif-30"/>
      </g>
     </g>
    </g>
    <g id="ytick_3">
     <g id="line2d_11">
      <path d="M 31.080396 11.599292 
L 92.520963 11.599292 
" clip-path="url(#p21f19dc4e6)" style="fill: none; stroke: #b0b0b0; stroke-width: 0.1; stroke-linecap: round"/>
     </g>
     <g id="line2d_12"/>
     <g id="text_7">
      <!-- 50 -->
      <g style="fill: #262626" transform="translate(18.672896 14.258745) scale(0.07 -0.07)">
       <use xlink:href="#DejaVuSerif-35"/>
       <use xlink:href="#DejaVuSerif-30" x="63.623047"/>
      </g>
     </g>
    </g>
    <g id="text_8">
     <!-- $N$ $[Nm]$ -->
     <g style="fill: #262626" transform="translate(7.559302 31.677726) rotate(-90) scale(0.06 -0.06)">
      <defs>
       <path id="DejaVuSans-Oblique-4e" d="M 1081 4666 
L 1931 4666 
L 3219 666 
L 4000 4666 
L 4616 4666 
L 3706 0 
L 2853 0 
L 1569 4025 
L 788 0 
L 172 0 
L 1081 4666 
z
" transform="scale(0.015625)"/>
       <path id="DejaVuSans-Oblique-6d" d="M 5747 2113 
L 5338 0 
L 4763 0 
L 5166 2094 
Q 5191 2228 5203 2325 
Q 5216 2422 5216 2491 
Q 5216 2772 5059 2928 
Q 4903 3084 4622 3084 
Q 4203 3084 3875 2770 
Q 3547 2456 3450 1953 
L 3066 0 
L 2491 0 
L 2900 2094 
Q 2925 2209 2937 2307 
Q 2950 2406 2950 2484 
Q 2950 2769 2794 2926 
Q 2638 3084 2363 3084 
Q 1938 3084 1609 2770 
Q 1281 2456 1184 1953 
L 800 0 
L 225 0 
L 909 3500 
L 1484 3500 
L 1375 2956 
Q 1609 3263 1923 3423 
Q 2238 3584 2597 3584 
Q 2978 3584 3223 3384 
Q 3469 3184 3519 2828 
Q 3781 3197 4126 3390 
Q 4472 3584 4856 3584 
Q 5306 3584 5551 3325 
Q 5797 3066 5797 2591 
Q 5797 2488 5784 2364 
Q 5772 2241 5747 2113 
z
" transform="scale(0.015625)"/>
      </defs>
      <use xlink:href="#DejaVuSans-Oblique-4e" transform="translate(0 0.015625)"/>
      <use xlink:href="#DejaVuSerif-20" transform="translate(74.804688 0.015625)"/>
      <use xlink:href="#DejaVuSans-5b" transform="translate(106.591797 0.015625)"/>
      <use xlink:href="#DejaVuSans-Oblique-4e" transform="translate(145.605469 0.015625)"/>
      <use xlink:href="#DejaVuSans-Oblique-6d" transform="translate(220.410156 0.015625)"/>
      <use xlink:href="#DejaVuSans-5d" transform="translate(317.822266 0.015625)"/>
     </g>
    </g>
   </g>
   <g id="line2d_13">
    <defs>
     <path id="m46599477d9" d="M 0 0.75 
C 0.198902 0.75 0.389685 0.670975 0.53033 0.53033 
C 0.670975 0.389685 0.75 0.198902 0.75 0 
C 0.75 -0.198902 0.670975 -0.389685 0.53033 -0.53033 
C 0.389685 -0.670975 0.198902 -0.75 0 -0.75 
C -0.198902 -0.75 -0.389685 -0.670975 -0.53033 -0.53033 
C -0.670975 -0.389685 -0.75 -0.198902 -0.75 0 
C -0.75 0.198902 -0.670975 0.389685 -0.53033 0.53033 
C -0.389685 0.670975 -0.198902 0.75 0 0.75 
z
" style="stroke: #000000"/>
    </defs>
    <g clip-path="url(#p21f19dc4e6)">
     <use xlink:href="#m46599477d9" x="33.873149" y="11.816904" style="stroke: #000000"/>
     <use xlink:href="#m46599477d9" x="42.251408" y="14.570884" style="stroke: #000000"/>
     <use xlink:href="#m46599477d9" x="50.629668" y="16.938503" style="stroke: #000000"/>
     <use xlink:href="#m46599477d9" x="56.215174" y="18.567161" style="stroke: #000000"/>
     <use xlink:href="#m46599477d9" x="59.007927" y="19.485458" style="stroke: #000000"/>
     <use xlink:href="#m46599477d9" x="64.593433" y="21.694696" style="stroke: #000000"/>
     <use xlink:href="#m46599477d9" x="67.386186" y="22.696241" style="stroke: #000000"/>
     <use xlink:href="#m46599477d9" x="72.971692" y="24.637379" style="stroke: #000000"/>
     <use xlink:href="#m46599477d9" x="81.349951" y="27.944667" style="stroke: #000000"/>
     <use xlink:href="#m46599477d9" x="89.72821" y="30.390522" style="stroke: #000000"/>
    </g>
   </g>
   <g id="line2d_14">
    <defs>
     <path id="mea982d87d5" d="M 0 0.75 
C 0.198902 0.75 0.389685 0.670975 0.53033 0.53033 
C 0.670975 0.389685 0.75 0.198902 0.75 0 
C 0.75 -0.198902 0.670975 -0.389685 0.53033 -0.53033 
C 0.389685 -0.670975 0.198902 -0.75 0 -0.75 
C -0.198902 -0.75 -0.389685 -0.670975 -0.53033 -0.53033 
C -0.670975 -0.389685 -0.75 -0.198902 -0.75 0 
C -0.75 0.198902 -0.670975 0.389685 -0.53033 0.53033 
C -0.389685 0.670975 -0.198902 0.75 0 0.75 
z
" style="stroke: #00bfbf"/>
    </defs>
    <g clip-path="url(#p21f19dc4e6)">
     <use xlink:href="#mea982d87d5" x="33.873149" y="12.872207" style="fill: #00bfbf; stroke: #00bfbf"/>
     <use xlink:href="#mea982d87d5" x="42.251408" y="15.270709" style="fill: #00bfbf; stroke: #00bfbf"/>
     <use xlink:href="#mea982d87d5" x="50.629668" y="17.610446" style="fill: #00bfbf; stroke: #00bfbf"/>
     <use xlink:href="#mea982d87d5" x="56.215174" y="19.143006" style="fill: #00bfbf; stroke: #00bfbf"/>
     <use xlink:href="#mea982d87d5" x="59.007927" y="20.01351" style="fill: #00bfbf; stroke: #00bfbf"/>
     <use xlink:href="#mea982d87d5" x="64.593433" y="21.928318" style="fill: #00bfbf; stroke: #00bfbf"/>
     <use xlink:href="#mea982d87d5" x="67.386186" y="22.790407" style="fill: #00bfbf; stroke: #00bfbf"/>
     <use xlink:href="#mea982d87d5" x="72.971692" y="24.377676" style="fill: #00bfbf; stroke: #00bfbf"/>
     <use xlink:href="#mea982d87d5" x="81.349951" y="26.948704" style="fill: #00bfbf; stroke: #00bfbf"/>
     <use xlink:href="#mea982d87d5" x="89.72821" y="29.338269" style="fill: #00bfbf; stroke: #00bfbf"/>
    </g>
   </g>
   <g id="line2d_15">
    <defs>
     <path id="m93b81b25a7" d="M 0 0.75 
C 0.198902 0.75 0.389685 0.670975 0.53033 0.53033 
C 0.670975 0.389685 0.75 0.198902 0.75 0 
C 0.75 -0.198902 0.670975 -0.389685 0.53033 -0.53033 
C 0.389685 -0.670975 0.198902 -0.75 0 -0.75 
C -0.198902 -0.75 -0.389685 -0.670975 -0.53033 -0.53033 
C -0.670975 -0.389685 -0.75 -0.198902 -0.75 0 
C -0.75 0.198902 -0.670975 0.389685 -0.53033 0.53033 
C -0.389685 0.670975 -0.198902 0.75 0 0.75 
z
" style="stroke: #ff0000"/>
    </defs>
    <g clip-path="url(#p21f19dc4e6)">
     <use xlink:href="#m93b81b25a7" x="33.873149" y="19.980511" style="fill: #ff0000; stroke: #ff0000"/>
     <use xlink:href="#m93b81b25a7" x="42.251408" y="20.335989" style="fill: #ff0000; stroke: #ff0000"/>
     <use xlink:href="#m93b81b25a7" x="50.629668" y="20.363871" style="fill: #ff0000; stroke: #ff0000"/>
     <use xlink:href="#m93b81b25a7" x="56.215174" y="20.459968" style="fill: #ff0000; stroke: #ff0000"/>
     <use xlink:href="#m93b81b25a7" x="59.007927" y="20.50776" style="fill: #ff0000; stroke: #ff0000"/>
     <use xlink:href="#m93b81b25a7" x="64.593433" y="20.802191" style="fill: #ff0000; stroke: #ff0000"/>
     <use xlink:href="#m93b81b25a7" x="67.386186" y="20.941648" style="fill: #ff0000; stroke: #ff0000"/>
     <use xlink:href="#m93b81b25a7" x="72.971692" y="21.295516" style="fill: #ff0000; stroke: #ff0000"/>
     <use xlink:href="#m93b81b25a7" x="81.349951" y="22.031776" style="fill: #ff0000; stroke: #ff0000"/>
     <use xlink:href="#m93b81b25a7" x="89.72821" y="22.088065" style="fill: #ff0000; stroke: #ff0000"/>
    </g>
   </g>
   <g id="line2d_16">
    <path d="M 33.873149 11.39216 
L 42.251408 14.142741 
L 50.629668 16.933073 
L 56.215174 18.78063 
L 59.007927 19.692844 
L 64.593433 21.581567 
L 67.386186 22.577352 
L 72.971692 24.585518 
L 81.349951 27.590641 
L 89.72821 30.543292 
" clip-path="url(#p21f19dc4e6)" style="fill: none; stroke: #000000; stroke-width: 0.4; stroke-linecap: round"/>
   </g>
   <g id="line2d_17">
    <path d="M 33.873149 12.804777 
L 42.251408 15.128396 
L 50.629668 17.586061 
L 56.215174 19.266583 
L 59.007927 20.112006 
L 64.593433 21.818373 
L 67.386186 22.678602 
L 72.971692 24.38758 
L 81.349951 26.883301 
L 89.72821 29.242722 
" clip-path="url(#p21f19dc4e6)" style="fill: none; stroke: #00bfbf; stroke-width: 0.4; stroke-linecap: round"/>
   </g>
   <g id="line2d_18">
    <path d="M 33.873149 19.623196 
L 42.251408 20.050158 
L 50.629668 20.382824 
L 56.215174 20.54986 
L 59.007927 20.616651 
L 64.593433 20.799007 
L 67.386186 20.934563 
L 72.971692 21.233751 
L 81.349951 21.743153 
L 89.72821 22.336383 
" clip-path="url(#p21f19dc4e6)" style="fill: none; stroke: #ff0000; stroke-width: 0.4; stroke-linecap: round"/>
   </g>
   <g id="patch_3">
    <path d="M 31.080396 31.500849 
L 31.080396 10.434604 
" style="fill: none; stroke: #000000; stroke-linejoin: miter; stroke-linecap: square"/>
   </g>
   <g id="patch_4">
    <path d="M 31.080396 31.500849 
L 92.520963 31.500849 
" style="fill: none; stroke: #000000; stroke-linejoin: miter; stroke-linecap: square"/>
   </g>
  </g>
 </g>
 <defs>
  <clipPath id="p21f19dc4e6">
   <rect x="31.080396" y="10.434604" width="61.440567" height="21.066245"/>
  </clipPath>
 </defs>
</svg>
