<?xml version="1.0" encoding="utf-8" standalone="no"?>
<!DOCTYPE svg PUBLIC "-//W3C//DTD SVG 1.1//EN"
  "http://www.w3.org/Graphics/SVG/1.1/DTD/svg11.dtd">
<svg xmlns:xlink="http://www.w3.org/1999/xlink" width="129.53976pt" height="72.874368pt" viewBox="0 0 129.53976 72.874368" xmlns="http://www.w3.org/2000/svg" version="1.1">
 <metadata>
  <rdf:RDF xmlns:dc="http://purl.org/dc/elements/1.1/" xmlns:cc="http://creativecommons.org/ns#" xmlns:rdf="http://www.w3.org/1999/02/22-rdf-syntax-ns#">
   <cc:Work>
    <dc:type rdf:resource="http://purl.org/dc/dcmitype/StillImage"/>
    <dc:date>2025-01-02T14:26:21.822167</dc:date>
    <dc:format>image/svg+xml</dc:format>
    <dc:creator>
     <cc:Agent>
      <dc:title>Matplotlib v3.8.2, https://matplotlib.org/</dc:title>
     </cc:Agent>
    </dc:creator>
   </cc:Work>
  </rdf:RDF>
 </metadata>
 <defs>
  <style type="text/css">*{stroke-linejoin: round; stroke-linecap: butt}</style>
 </defs>
 <g id="figure_1">
  <g id="patch_1">
   <path d="M 0 72.874368 
L 129.53976 72.874368 
L 129.53976 0 
L 0 0 
z
" style="fill: #ffffff"/>
  </g>
  <g id="patch_2">
   <path d="M 31.332936 69.874128 
L 98.206824 69.874128 
L 98.206824 3.00024 
L 31.332936 3.00024 
z
" style="fill: #ffffff"/>
  </g>
  <g id="pane3d_1">
   <g id="patch_3">
    <path d="M 95.53931 49.888215 
L 65.673581 37.145691 
L 65.673581 9.540638 
L 96.687927 20.626677 
" style="fill: #f2f2f2; opacity: 0.5; stroke: #f2f2f2; stroke-linejoin: miter"/>
   </g>
  </g>
  <g id="pane3d_2">
   <g id="patch_4">
    <path d="M 35.807853 49.888215 
L 65.673581 37.145691 
L 65.673581 9.540638 
L 34.659235 20.626677 
" style="fill: #e6e6e6; opacity: 0.5; stroke: #e6e6e6; stroke-linejoin: miter"/>
   </g>
  </g>
  <g id="pane3d_3">
   <g id="patch_5">
    <path d="M 65.673581 64.693511 
L 95.53931 49.888215 
L 65.673581 37.145691 
L 35.807853 49.888215 
" style="fill: #ececec; opacity: 0.5; stroke: #ececec; stroke-linejoin: miter"/>
   </g>
  </g>
  <g id="grid3d_1">
   <g id="Line3DCollection_1">
    <path d="M 67.717431 63.680316 
L 37.841023 49.020742 
L 36.775871 19.870088 
" style="fill: none; stroke: #b0b0b0; stroke-width: 0.1"/>
    <path d="M 81.187276 57.002929 
L 51.279624 43.287022 
L 50.746759 14.876212 
" style="fill: none; stroke: #b0b0b0; stroke-width: 0.1"/>
    <path d="M 93.772658 50.763995 
L 63.89756 37.903449 
L 63.833891 10.198233 
" style="fill: none; stroke: #b0b0b0; stroke-width: 0.1"/>
   </g>
  </g>
  <g id="grid3d_2">
   <g id="Line3DCollection_2">
    <path d="M 83.453645 15.896099 
L 82.814704 44.459129 
L 52.907895 58.365195 
" style="fill: none; stroke: #b0b0b0; stroke-width: 0.1"/>
    <path d="M 67.48539 10.188267 
L 67.42269 37.891967 
L 37.547726 50.75072 
" style="fill: none; stroke: #b0b0b0; stroke-width: 0.1"/>
   </g>
  </g>
  <g id="grid3d_3">
   <g id="Line3DCollection_3">
    <path d="M 35.345656 38.113542 
L 65.673581 26.019812 
L 96.001507 38.113542 
" style="fill: none; stroke: #b0b0b0; stroke-width: 0.1"/>
    <path d="M 34.81028 24.474611 
L 65.673581 13.162316 
L 96.536882 24.474611 
" style="fill: none; stroke: #b0b0b0; stroke-width: 0.1"/>
   </g>
  </g>
  <g id="axis3d_1">
   <g id="line2d_1">
    <path d="M 95.53931 49.888215 
L 65.673581 64.693511 
" style="fill: none; stroke: #000000; stroke-linecap: round"/>
   </g>
   <g id="xtick_1">
    <g id="line2d_2">
     <path d="M 67.45934 63.553677 
L 68.234613 63.934084 
" style="fill: none; stroke: #262626; stroke-width: 0.8; stroke-linecap: round"/>
    </g>
    <g id="text_1">
     <!-- −10 -->
     <g style="fill: #262626" transform="translate(71.107468 84.257945) scale(0.07 -0.07)">
      <defs>
       <path id="DejaVuSerif-2212" d="M 678 2259 
L 4684 2259 
L 4684 1753 
L 678 1753 
L 678 2259 
z
" transform="scale(0.015625)"/>
       <path id="DejaVuSerif-31" d="M 909 0 
L 909 331 
L 1722 331 
L 1722 4213 
L 781 3603 
L 781 4013 
L 1919 4750 
L 2350 4750 
L 2350 331 
L 3163 331 
L 3163 0 
L 909 0 
z
" transform="scale(0.015625)"/>
       <path id="DejaVuSerif-30" d="M 2034 219 
Q 2513 219 2750 744 
Q 2988 1269 2988 2328 
Q 2988 3391 2750 3916 
Q 2513 4441 2034 4441 
Q 1556 4441 1318 3916 
Q 1081 3391 1081 2328 
Q 1081 1269 1318 744 
Q 1556 219 2034 219 
z
M 2034 -91 
Q 1275 -91 848 546 
Q 422 1184 422 2328 
Q 422 3475 848 4112 
Q 1275 4750 2034 4750 
Q 2797 4750 3222 4112 
Q 3647 3475 3647 2328 
Q 3647 1184 3222 546 
Q 2797 -91 2034 -91 
z
" transform="scale(0.015625)"/>
      </defs>
      <use xlink:href="#DejaVuSerif-2212"/>
      <use xlink:href="#DejaVuSerif-31" x="83.789062"/>
      <use xlink:href="#DejaVuSerif-30" x="147.412109"/>
     </g>
    </g>
   </g>
   <g id="xtick_2">
    <g id="line2d_3">
     <path d="M 80.929562 56.884739 
L 81.703666 57.23975 
" style="fill: none; stroke: #262626; stroke-width: 0.8; stroke-linecap: round"/>
    </g>
    <g id="text_2">
     <!-- 0 -->
     <g style="fill: #262626" transform="translate(89.543601 76.967956) scale(0.07 -0.07)">
      <use xlink:href="#DejaVuSerif-30"/>
     </g>
    </g>
   </g>
   <g id="xtick_3">
    <g id="line2d_4">
     <path d="M 93.515829 50.653436 
L 94.287243 50.985512 
" style="fill: none; stroke: #262626; stroke-width: 0.8; stroke-linecap: round"/>
    </g>
    <g id="text_3">
     <!-- 10 -->
     <g style="fill: #262626" transform="translate(99.710251 70.162732) scale(0.07 -0.07)">
      <use xlink:href="#DejaVuSerif-31"/>
      <use xlink:href="#DejaVuSerif-30" x="63.623047"/>
     </g>
    </g>
   </g>
   <g id="text_4">
    <!-- $\beta$ [deg] -->
    <g style="fill: #262626" transform="translate(93.725017 90.961612) scale(0.06 -0.06)">
     <defs>
      <path id="DejaVuSans-Oblique-3b2" d="M 872 216 
L 572 -1331 
L -6 -1331 
L 928 3478 
Q 1206 4903 2538 4903 
Q 3888 4903 3659 3700 
Q 3503 2844 2894 2531 
Q 3713 2250 3553 1416 
Q 3272 -69 1759 -66 
Q 1097 -63 872 216 
z
M 1019 966 
Q 1259 422 1875 425 
Q 2775 425 2966 1406 
Q 3138 2288 1675 2219 
L 1778 2750 
Q 2909 2731 3106 3750 
Q 3241 4438 2509 4434 
Q 1691 4434 1503 3459 
L 1019 966 
z
" transform="scale(0.015625)"/>
      <path id="DejaVuSerif-20" transform="scale(0.015625)"/>
      <path id="DejaVuSerif-5b" d="M 550 4863 
L 2003 4863 
L 2003 4531 
L 1147 4531 
L 1147 -513 
L 2003 -513 
L 2003 -844 
L 550 -844 
L 550 4863 
z
" transform="scale(0.015625)"/>
      <path id="DejaVuSerif-64" d="M 3359 331 
L 3909 331 
L 3909 0 
L 2784 0 
L 2784 519 
Q 2616 206 2355 57 
Q 2094 -91 1709 -91 
Q 1097 -91 708 395 
Q 319 881 319 1663 
Q 319 2444 706 2928 
Q 1094 3413 1709 3413 
Q 2094 3413 2355 3264 
Q 2616 3116 2784 2803 
L 2784 4531 
L 2241 4531 
L 2241 4863 
L 3359 4863 
L 3359 331 
z
M 2784 1497 
L 2784 1825 
Q 2784 2422 2554 2737 
Q 2325 3053 1888 3053 
Q 1444 3053 1217 2703 
Q 991 2353 991 1663 
Q 991 975 1217 622 
Q 1444 269 1888 269 
Q 2325 269 2554 583 
Q 2784 897 2784 1497 
z
" transform="scale(0.015625)"/>
      <path id="DejaVuSerif-65" d="M 3469 1600 
L 991 1600 
L 991 1575 
Q 991 903 1244 561 
Q 1497 219 1991 219 
Q 2369 219 2611 417 
Q 2853 616 2950 1006 
L 3413 1006 
Q 3275 459 2904 184 
Q 2534 -91 1931 -91 
Q 1203 -91 761 389 
Q 319 869 319 1663 
Q 319 2450 753 2931 
Q 1188 3413 1894 3413 
Q 2647 3413 3050 2948 
Q 3453 2484 3469 1600 
z
M 2791 1931 
Q 2772 2513 2545 2808 
Q 2319 3103 1894 3103 
Q 1497 3103 1269 2806 
Q 1041 2509 991 1931 
L 2791 1931 
z
" transform="scale(0.015625)"/>
      <path id="DejaVuSerif-67" d="M 3359 2988 
L 3359 72 
Q 3359 -644 2965 -1033 
Q 2572 -1422 1844 -1422 
Q 1516 -1422 1216 -1362 
Q 916 -1303 641 -1184 
L 641 -488 
L 941 -488 
Q 997 -813 1206 -963 
Q 1416 -1113 1806 -1113 
Q 2313 -1113 2548 -827 
Q 2784 -541 2784 72 
L 2784 519 
Q 2616 206 2355 57 
Q 2094 -91 1709 -91 
Q 1097 -91 708 395 
Q 319 881 319 1663 
Q 319 2444 706 2928 
Q 1094 3413 1709 3413 
Q 2094 3413 2355 3264 
Q 2616 3116 2784 2803 
L 2784 3322 
L 3909 3322 
L 3909 2988 
L 3359 2988 
z
M 2784 1825 
Q 2784 2422 2554 2737 
Q 2325 3053 1888 3053 
Q 1444 3053 1217 2703 
Q 991 2353 991 1663 
Q 991 975 1217 622 
Q 1444 269 1888 269 
Q 2325 269 2554 583 
Q 2784 897 2784 1497 
L 2784 1825 
z
" transform="scale(0.015625)"/>
      <path id="DejaVuSerif-5d" d="M 1947 4863 
L 1947 -844 
L 494 -844 
L 494 -513 
L 1350 -513 
L 1350 4531 
L 494 4531 
L 494 4863 
L 1947 4863 
z
" transform="scale(0.015625)"/>
     </defs>
     <use xlink:href="#DejaVuSans-Oblique-3b2" transform="translate(0 0.390625)"/>
     <use xlink:href="#DejaVuSerif-20" transform="translate(63.818359 0.390625)"/>
     <use xlink:href="#DejaVuSerif-5b" transform="translate(95.605469 0.390625)"/>
     <use xlink:href="#DejaVuSerif-64" transform="translate(134.619141 0.390625)"/>
     <use xlink:href="#DejaVuSerif-65" transform="translate(198.632812 0.390625)"/>
     <use xlink:href="#DejaVuSerif-67" transform="translate(257.8125 0.390625)"/>
     <use xlink:href="#DejaVuSerif-5d" transform="translate(321.826172 0.390625)"/>
    </g>
   </g>
  </g>
  <g id="axis3d_2">
   <g id="line2d_5">
    <path d="M 35.807853 49.888215 
L 65.673581 64.693511 
" style="fill: none; stroke: #000000; stroke-linecap: round"/>
   </g>
   <g id="xtick_4">
    <g id="line2d_6">
     <path d="M 53.165733 58.245305 
L 52.391247 58.605426 
" style="fill: none; stroke: #262626; stroke-width: 0.8; stroke-linecap: round"/>
    </g>
    <g id="text_5">
     <!-- 0.0 -->
     <g style="fill: #262626" transform="translate(36.718132 78.454653) scale(0.07 -0.07)">
      <defs>
       <path id="DejaVuSerif-2e" d="M 603 325 
Q 603 500 722 622 
Q 841 744 1019 744 
Q 1191 744 1312 622 
Q 1434 500 1434 325 
Q 1434 153 1312 31 
Q 1191 -91 1019 -91 
Q 841 -91 722 29 
Q 603 150 603 325 
z
" transform="scale(0.015625)"/>
      </defs>
      <use xlink:href="#DejaVuSerif-30"/>
      <use xlink:href="#DejaVuSerif-2e" x="63.623047"/>
      <use xlink:href="#DejaVuSerif-30" x="95.410156"/>
     </g>
    </g>
   </g>
   <g id="xtick_5">
    <g id="line2d_7">
     <path d="M 37.804552 50.640177 
L 37.033146 50.972205 
" style="fill: none; stroke: #262626; stroke-width: 0.8; stroke-linecap: round"/>
    </g>
    <g id="text_6">
     <!-- 0.1 -->
     <g style="fill: #262626" transform="translate(21.590708 70.148258) scale(0.07 -0.07)">
      <use xlink:href="#DejaVuSerif-30"/>
      <use xlink:href="#DejaVuSerif-2e" x="63.623047"/>
      <use xlink:href="#DejaVuSerif-31" x="95.410156"/>
     </g>
    </g>
   </g>
   <g id="text_7">
    <!-- $r$ [rad/s] -->
    <g style="fill: #262626" transform="translate(14.552146 90.997237) scale(0.06 -0.06)">
     <defs>
      <path id="DejaVuSans-Oblique-72" d="M 2853 2969 
Q 2766 3016 2653 3041 
Q 2541 3066 2413 3066 
Q 1953 3066 1609 2717 
Q 1266 2369 1153 1784 
L 800 0 
L 225 0 
L 909 3500 
L 1484 3500 
L 1375 2956 
Q 1603 3259 1920 3421 
Q 2238 3584 2597 3584 
Q 2691 3584 2781 3573 
Q 2872 3563 2963 3538 
L 2853 2969 
z
" transform="scale(0.015625)"/>
      <path id="DejaVuSerif-72" d="M 3059 3328 
L 3059 2497 
L 2728 2497 
Q 2713 2744 2591 2866 
Q 2469 2988 2234 2988 
Q 1809 2988 1582 2694 
Q 1356 2400 1356 1850 
L 1356 331 
L 2022 331 
L 2022 0 
L 263 0 
L 263 331 
L 781 331 
L 781 2994 
L 231 2994 
L 231 3322 
L 1356 3322 
L 1356 2731 
Q 1525 3078 1790 3245 
Q 2056 3413 2438 3413 
Q 2578 3413 2733 3391 
Q 2888 3369 3059 3328 
z
" transform="scale(0.015625)"/>
      <path id="DejaVuSerif-61" d="M 2547 1044 
L 2547 1747 
L 1806 1747 
Q 1378 1747 1168 1562 
Q 959 1378 959 997 
Q 959 650 1171 447 
Q 1384 244 1747 244 
Q 2106 244 2326 466 
Q 2547 688 2547 1044 
z
M 3122 2075 
L 3122 331 
L 3634 331 
L 3634 0 
L 2547 0 
L 2547 359 
Q 2356 128 2106 18 
Q 1856 -91 1522 -91 
Q 969 -91 644 203 
Q 319 497 319 997 
Q 319 1513 691 1797 
Q 1063 2081 1741 2081 
L 2547 2081 
L 2547 2309 
Q 2547 2688 2317 2895 
Q 2088 3103 1672 3103 
Q 1328 3103 1125 2947 
Q 922 2791 872 2484 
L 575 2484 
L 575 3156 
Q 875 3284 1158 3348 
Q 1441 3413 1709 3413 
Q 2400 3413 2761 3070 
Q 3122 2728 3122 2075 
z
" transform="scale(0.015625)"/>
      <path id="DejaVuSerif-2f" d="M 1656 4666 
L 2156 4666 
L 500 -594 
L 0 -594 
L 1656 4666 
z
" transform="scale(0.015625)"/>
      <path id="DejaVuSerif-73" d="M 359 184 
L 359 959 
L 691 959 
Q 703 588 923 403 
Q 1144 219 1575 219 
Q 1963 219 2166 364 
Q 2369 509 2369 788 
Q 2369 1006 2220 1140 
Q 2072 1275 1594 1428 
L 1178 1569 
Q 750 1706 558 1912 
Q 366 2119 366 2438 
Q 366 2894 700 3153 
Q 1034 3413 1625 3413 
Q 1888 3413 2178 3344 
Q 2469 3275 2778 3144 
L 2778 2419 
L 2447 2419 
Q 2434 2741 2221 2922 
Q 2009 3103 1644 3103 
Q 1281 3103 1095 2975 
Q 909 2847 909 2591 
Q 909 2381 1050 2254 
Q 1191 2128 1613 1997 
L 2069 1856 
Q 2541 1709 2748 1489 
Q 2956 1269 2956 922 
Q 2956 450 2595 179 
Q 2234 -91 1600 -91 
Q 1278 -91 972 -22 
Q 666 47 359 184 
z
" transform="scale(0.015625)"/>
     </defs>
     <use xlink:href="#DejaVuSans-Oblique-72" transform="translate(0 0.015625)"/>
     <use xlink:href="#DejaVuSerif-20" transform="translate(41.113281 0.015625)"/>
     <use xlink:href="#DejaVuSerif-5b" transform="translate(72.900391 0.015625)"/>
     <use xlink:href="#DejaVuSerif-72" transform="translate(111.914062 0.015625)"/>
     <use xlink:href="#DejaVuSerif-61" transform="translate(159.716797 0.015625)"/>
     <use xlink:href="#DejaVuSerif-64" transform="translate(219.335938 0.015625)"/>
     <use xlink:href="#DejaVuSerif-2f" transform="translate(283.349609 0.015625)"/>
     <use xlink:href="#DejaVuSerif-73" transform="translate(317.041016 0.015625)"/>
     <use xlink:href="#DejaVuSerif-5d" transform="translate(368.359375 0.015625)"/>
    </g>
   </g>
  </g>
  <g id="axis3d_3">
   <g id="line2d_8">
    <path d="M 35.807853 49.888215 
L 34.659235 20.626677 
" style="fill: none; stroke: #000000; stroke-linecap: round"/>
   </g>
   <g id="xtick_6">
    <g id="line2d_9">
     <path d="M 35.606569 38.009499 
L 34.822875 38.322009 
" style="fill: none; stroke: #262626; stroke-width: 0.8; stroke-linecap: round"/>
    </g>
    <g id="text_8">
     <!-- 0 -->
     <g style="fill: #262626" transform="translate(13.091813 43.432448) scale(0.07 -0.07)">
      <use xlink:href="#DejaVuSerif-30"/>
     </g>
    </g>
   </g>
   <g id="xtick_7">
    <g id="line2d_10">
     <path d="M 35.076128 24.37717 
L 34.277596 24.669855 
" style="fill: none; stroke: #262626; stroke-width: 0.8; stroke-linecap: round"/>
    </g>
    <g id="text_9">
     <!-- 100 -->
     <g style="fill: #262626" transform="translate(7.749153 29.793518) scale(0.07 -0.07)">
      <use xlink:href="#DejaVuSerif-31"/>
      <use xlink:href="#DejaVuSerif-30" x="63.623047"/>
      <use xlink:href="#DejaVuSerif-30" x="127.246094"/>
     </g>
    </g>
   </g>
   <g id="text_10">
    <!-- $Y_H$ -->
    <g style="fill: #262626" transform="translate(2.030434 37.189108) scale(0.06 -0.06)">
     <defs>
      <path id="DejaVuSans-Oblique-59" d="M 403 4666 
L 1081 4666 
L 1953 2747 
L 3616 4666 
L 4325 4666 
L 2209 2222 
L 1778 0 
L 1147 0 
L 1575 2222 
L 403 4666 
z
" transform="scale(0.015625)"/>
      <path id="DejaVuSans-Oblique-48" d="M 1081 4666 
L 1716 4666 
L 1344 2753 
L 3634 2753 
L 4006 4666 
L 4641 4666 
L 3731 0 
L 3097 0 
L 3531 2222 
L 1241 2222 
L 806 0 
L 172 0 
L 1081 4666 
z
" transform="scale(0.015625)"/>
     </defs>
     <use xlink:href="#DejaVuSans-Oblique-59" transform="translate(0 0.09375)"/>
     <use xlink:href="#DejaVuSans-Oblique-48" transform="translate(61.083984 -16.3125) scale(0.7)"/>
    </g>
   </g>
  </g>
  <g id="axes_1">
   <g id="Path3DCollection_1">
    <defs>
     <path id="C0_0_29f31c4cb9" d="M 0 0.216506 
C 0.057418 0.216506 0.112492 0.193694 0.153093 0.153093 
C 0.193694 0.112492 0.216506 0.057418 0.216506 -0 
C 0.216506 -0.057418 0.193694 -0.112492 0.153093 -0.153093 
C 0.112492 -0.193694 0.057418 -0.216506 0 -0.216506 
C -0.057418 -0.216506 -0.112492 -0.193694 -0.153093 -0.153093 
C -0.193694 -0.112492 -0.216506 -0.057418 -0.216506 0 
C -0.216506 0.057418 -0.193694 0.112492 -0.153093 0.153093 
C -0.112492 0.193694 -0.057418 0.216506 0 0.216506 
z
"/>
    </defs>
    <g clip-path="url(#pb1baf17a81)">
     <use xlink:href="#C0_0_29f31c4cb9" x="65.673581" y="12.690936" style="fill-opacity: 0.3; stroke: #000000; stroke-opacity: 0.3"/>
    </g>
    <g clip-path="url(#pb1baf17a81)">
     <use xlink:href="#C0_0_29f31c4cb9" x="71.013464" y="19.704527" style="fill-opacity: 0.34673; stroke: #000000; stroke-opacity: 0.34673"/>
    </g>
    <g clip-path="url(#pb1baf17a81)">
     <use xlink:href="#C0_0_29f31c4cb9" x="73.563315" y="22.265413" style="fill-opacity: 0.375595; stroke: #000000; stroke-opacity: 0.375595"/>
    </g>
    <g clip-path="url(#pb1baf17a81)">
     <use xlink:href="#C0_0_29f31c4cb9" x="77.431262" y="26.371769" style="fill-opacity: 0.41754; stroke: #000000; stroke-opacity: 0.41754"/>
    </g>
    <g clip-path="url(#pb1baf17a81)">
     <use xlink:href="#C0_0_29f31c4cb9" x="64.63509" y="26.011676" style="fill-opacity: 0.422129; stroke: #000000; stroke-opacity: 0.422129"/>
    </g>
    <g clip-path="url(#pb1baf17a81)">
     <use xlink:href="#C0_0_29f31c4cb9" x="67.1865" y="28.356729" style="fill-opacity: 0.454015; stroke: #000000; stroke-opacity: 0.454015"/>
    </g>
    <g clip-path="url(#pb1baf17a81)">
     <use xlink:href="#C0_0_29f31c4cb9" x="81.372681" y="28.794372" style="fill-opacity: 0.474926; stroke: #000000; stroke-opacity: 0.474926"/>
    </g>
    <g clip-path="url(#pb1baf17a81)">
     <use xlink:href="#C0_0_29f31c4cb9" x="63.287067" y="31.660269" style="fill-opacity: 0.50564; stroke: #000000; stroke-opacity: 0.50564"/>
    </g>
    <g clip-path="url(#pb1baf17a81)">
     <use xlink:href="#C0_0_29f31c4cb9" x="77.566976" y="32.268477" style="fill-opacity: 0.525488; stroke: #000000; stroke-opacity: 0.525488"/>
    </g>
    <g clip-path="url(#pb1baf17a81)">
     <use xlink:href="#C0_0_29f31c4cb9" x="73.707199" y="35.517164" style="fill-opacity: 0.57928; stroke: #000000; stroke-opacity: 0.57928"/>
    </g>
    <g clip-path="url(#pb1baf17a81)">
     <use xlink:href="#C0_0_29f31c4cb9" x="71.102017" y="37.453205" style="fill-opacity: 0.617935; stroke: #000000; stroke-opacity: 0.617935"/>
    </g>
    <g clip-path="url(#pb1baf17a81)">
     <use xlink:href="#C0_0_29f31c4cb9" x="69.788626" y="38.400102" style="fill-opacity: 0.637688; stroke: #000000; stroke-opacity: 0.637688"/>
    </g>
    <g clip-path="url(#pb1baf17a81)">
     <use xlink:href="#C0_0_29f31c4cb9" x="75.108916" y="40.226186" style="fill-opacity: 0.677254; stroke: #000000; stroke-opacity: 0.677254"/>
    </g>
    <g clip-path="url(#pb1baf17a81)">
     <use xlink:href="#C0_0_29f31c4cb9" x="67.139373" y="40.283827" style="fill-opacity: 0.677774; stroke: #000000; stroke-opacity: 0.677774"/>
    </g>
    <g clip-path="url(#pb1baf17a81)">
     <use xlink:href="#C0_0_29f31c4cb9" x="57.81345" y="41.680074" style="fill-opacity: 0.694964; stroke: #000000; stroke-opacity: 0.694964"/>
    </g>
    <g clip-path="url(#pb1baf17a81)">
     <use xlink:href="#C0_0_29f31c4cb9" x="65.803286" y="41.250474" style="fill-opacity: 0.697838; stroke: #000000; stroke-opacity: 0.697838"/>
    </g>
    <g clip-path="url(#pb1baf17a81)">
     <use xlink:href="#C0_0_29f31c4cb9" x="63.108126" y="43.226332" style="fill-opacity: 0.738074; stroke: #000000; stroke-opacity: 0.738074"/>
    </g>
    <g clip-path="url(#pb1baf17a81)">
     <use xlink:href="#C0_0_29f31c4cb9" x="69.810287" y="44.201941" style="fill-opacity: 0.757485; stroke: #000000; stroke-opacity: 0.757485"/>
    </g>
    <g clip-path="url(#pb1baf17a81)">
     <use xlink:href="#C0_0_29f31c4cb9" x="59.010035" y="46.575086" style="fill-opacity: 0.796107; stroke: #000000; stroke-opacity: 0.796107"/>
    </g>
    <g clip-path="url(#pb1baf17a81)">
     <use xlink:href="#C0_0_29f31c4cb9" x="73.884327" y="47.345523" style="fill-opacity: 0.816825; stroke: #000000; stroke-opacity: 0.816825"/>
    </g>
    <g clip-path="url(#pb1baf17a81)">
     <use xlink:href="#C0_0_29f31c4cb9" x="65.756042" y="47.245625" style="fill-opacity: 0.818858; stroke: #000000; stroke-opacity: 0.818858"/>
    </g>
    <g clip-path="url(#pb1baf17a81)">
     <use xlink:href="#C0_0_29f31c4cb9" x="54.849514" y="50.357652" style="fill-opacity: 0.851524; stroke: #000000; stroke-opacity: 0.851524"/>
    </g>
    <g clip-path="url(#pb1baf17a81)">
     <use xlink:href="#C0_0_29f31c4cb9" x="69.828652" y="50.94798" style="fill-opacity: 0.874437; stroke: #000000; stroke-opacity: 0.874437"/>
    </g>
    <g clip-path="url(#pb1baf17a81)">
     <use xlink:href="#C0_0_29f31c4cb9" x="72.577774" y="53.590517" style="fill-opacity: 0.910612; stroke: #000000; stroke-opacity: 0.910612"/>
    </g>
    <g clip-path="url(#pb1baf17a81)">
     <use xlink:href="#C0_0_29f31c4cb9" x="58.842034" y="53.136917" style="fill-opacity: 0.916729; stroke: #000000; stroke-opacity: 0.916729"/>
    </g>
    <g clip-path="url(#pb1baf17a81)">
     <use xlink:href="#C0_0_29f31c4cb9" x="62.92477" y="57.845455" style="fill-opacity: 0.965155; stroke: #000000; stroke-opacity: 0.965155"/>
    </g>
    <g clip-path="url(#pb1baf17a81)">
     <use xlink:href="#C0_0_29f31c4cb9" x="65.673581" y="60.786424" style="stroke: #000000"/>
    </g>
   </g>
   <g id="Poly3DCollection_1">
    <path d="M 65.673581 16.670848 
L 67.005704 15.169656 
L 65.673581 13.336013 
L 64.341034 14.915871 
z
" clip-path="url(#pb1baf17a81)" style="fill: #b40426; fill-opacity: 0.75"/>
    <path d="M 67.010985 18.344965 
L 68.342565 16.912205 
L 67.005704 15.169656 
L 65.673581 16.670848 
z
" clip-path="url(#pb1baf17a81)" style="fill: #c83836; fill-opacity: 0.75"/>
    <path d="M 64.335829 18.138603 
L 65.673581 16.670848 
L 64.341034 14.915871 
L 63.003095 16.465452 
z
" clip-path="url(#pb1baf17a81)" style="fill: #c43032; fill-opacity: 0.75"/>
    <path d="M 68.353713 19.938319 
L 69.684683 18.563812 
L 68.342565 16.912205 
L 67.010985 18.344965 
z
" clip-path="url(#pb1baf17a81)" style="fill: #d95847; fill-opacity: 0.75"/>
    <path d="M 65.673581 19.741127 
L 67.010985 18.344965 
L 65.673581 16.670848 
L 64.335829 18.138603 
z
" clip-path="url(#pb1baf17a81)" style="fill: #d65244; fill-opacity: 0.75"/>
    <path d="M 62.992238 19.580891 
L 64.335829 18.138603 
L 63.003095 16.465452 
L 61.659587 17.992744 
z
" clip-path="url(#pb1baf17a81)" style="fill: #d44e41; fill-opacity: 0.75"/>
    <path d="M 69.702243 21.450954 
L 71.032583 20.124568 
L 69.684683 18.563812 
L 68.353713 19.938319 
z
" clip-path="url(#pb1baf17a81)" style="fill: #e57058; fill-opacity: 0.75"/>
    <path d="M 67.016771 21.273071 
L 68.353713 19.938319 
L 67.010985 18.344965 
L 65.673581 19.741127 
z
" clip-path="url(#pb1baf17a81)" style="fill: #e36c55; fill-opacity: 0.75"/>
    <path d="M 64.330111 21.108637 
L 65.673581 19.741127 
L 64.335829 18.138603 
L 62.992238 19.580891 
z
" clip-path="url(#pb1baf17a81)" style="fill: #e26952; fill-opacity: 0.75"/>
    <path d="M 61.642647 21.005864 
L 62.992238 19.580891 
L 61.659587 17.992744 
L 60.310386 19.50591 
z
" clip-path="url(#pb1baf17a81)" style="fill: #e0654f; fill-opacity: 0.75"/>
    <path d="M 71.057059 22.88286 
L 72.386797 21.594492 
L 71.032583 20.124568 
L 69.702243 21.450954 
z
" clip-path="url(#pb1baf17a81)" style="fill: #ee8669; fill-opacity: 0.75"/>
    <path d="M 68.365827 22.734444 
L 69.702243 21.450954 
L 68.353713 19.938319 
L 67.016771 21.273071 
z
" clip-path="url(#pb1baf17a81)" style="fill: #ed8366; fill-opacity: 0.75"/>
    <path d="M 65.673581 22.575993 
L 67.016771 21.273071 
L 65.673581 19.741127 
L 64.330111 21.108637 
z
" clip-path="url(#pb1baf17a81)" style="fill: #ec7f63; fill-opacity: 0.75"/>
    <path d="M 62.980383 22.455636 
L 64.330111 21.108637 
L 62.992238 19.580891 
L 61.642647 21.005864 
z
" clip-path="url(#pb1baf17a81)" style="fill: #ea7b60; fill-opacity: 0.75"/>
    <path d="M 60.286954 22.421833 
L 61.642647 21.005864 
L 60.310386 19.50591 
L 58.955421 21.013256 
z
" clip-path="url(#pb1baf17a81)" style="fill: #e97a5f; fill-opacity: 0.75"/>
    <path d="M 72.418652 24.233975 
L 73.747868 22.973541 
L 72.386797 21.594492 
L 71.057059 22.88286 
z
" clip-path="url(#pb1baf17a81)" style="fill: #f39778; fill-opacity: 0.75"/>
    <path d="M 69.721183 24.125211 
L 71.057059 22.88286 
L 69.702243 21.450954 
L 68.365827 22.734444 
z
" clip-path="url(#pb1baf17a81)" style="fill: #f39577; fill-opacity: 0.75"/>
    <path d="M 67.023026 23.982938 
L 68.365827 22.734444 
L 67.016771 21.273071 
L 65.673581 22.575993 
z
" clip-path="url(#pb1baf17a81)" style="fill: #f29274; fill-opacity: 0.75"/>
    <path d="M 64.323917 23.855207 
L 65.673581 22.575993 
L 64.330111 21.108637 
L 62.980383 22.455636 
z
" clip-path="url(#pb1baf17a81)" style="fill: #f18f71; fill-opacity: 0.75"/>
    <path d="M 58.925108 23.83724 
L 60.286954 22.421833 
L 58.955421 21.013256 
L 57.594679 22.523214 
z
" clip-path="url(#pb1baf17a81)" style="fill: #f18d6f; fill-opacity: 0.75"/>
    <path d="M 61.624256 23.79043 
L 62.980383 22.455636 
L 61.642647 21.005864 
L 60.286954 22.421833 
z
" clip-path="url(#pb1baf17a81)" style="fill: #f18d6f; fill-opacity: 0.75"/>
    <path d="M 73.787525 25.504181 
L 75.116349 24.261601 
L 73.747868 22.973541 
L 72.418652 24.233975 
z
" clip-path="url(#pb1baf17a81)" style="fill: #f6a586; fill-opacity: 0.75"/>
    <path d="M 71.083283 25.445297 
L 72.418652 24.233975 
L 71.057059 22.88286 
L 69.721183 24.125211 
z
" clip-path="url(#pb1baf17a81)" style="fill: #f6a385; fill-opacity: 0.75"/>
    <path d="M 68.378831 25.329418 
L 69.721183 24.125211 
L 68.365827 22.734444 
L 67.023026 23.982938 
z
" clip-path="url(#pb1baf17a81)" style="fill: #f6a283; fill-opacity: 0.75"/>
    <path d="M 57.557121 25.260635 
L 58.925108 23.83724 
L 57.594679 22.523214 
L 56.228205 24.044307 
z
" clip-path="url(#pb1baf17a81)" style="fill: #f59f80; fill-opacity: 0.75"/>
    <path d="M 65.673581 25.204536 
L 67.023026 23.982938 
L 65.673581 22.575993 
L 64.323917 23.855207 
z
" clip-path="url(#pb1baf17a81)" style="fill: #f59f80; fill-opacity: 0.75"/>
    <path d="M 62.967607 25.119011 
L 64.323917 23.855207 
L 62.980383 22.455636 
L 61.624256 23.79043 
z
" clip-path="url(#pb1baf17a81)" style="fill: #f59d7e; fill-opacity: 0.75"/>
    <path d="M 60.261649 25.121467 
L 61.624256 23.79043 
L 60.286954 22.421833 
L 58.925108 23.83724 
z
" clip-path="url(#pb1baf17a81)" style="fill: #f59d7e; fill-opacity: 0.75"/>
    <path d="M 75.164189 26.693306 
L 76.492802 25.45849 
L 75.116349 24.261601 
L 73.787525 25.504181 
z
" clip-path="url(#pb1baf17a81)" style="fill: #f7b093; fill-opacity: 0.75"/>
    <path d="M 72.452575 26.694581 
L 73.787525 25.504181 
L 72.418652 24.233975 
L 71.083283 25.445297 
z
" clip-path="url(#pb1baf17a81)" style="fill: #f7b093; fill-opacity: 0.75"/>
    <path d="M 56.183063 26.700645 
L 57.557121 25.260635 
L 56.228205 24.044307 
L 54.856105 25.585123 
z
" clip-path="url(#pb1baf17a81)" style="fill: #f7af91; fill-opacity: 0.75"/>
    <path d="M 69.741389 26.61535 
L 71.083283 25.445297 
L 69.721183 24.125211 
L 68.378831 25.329418 
z
" clip-path="url(#pb1baf17a81)" style="fill: #f7af91; fill-opacity: 0.75"/>
    <path d="M 67.02971 26.503561 
L 68.378831 25.329418 
L 67.023026 23.982938 
L 65.673581 25.204536 
z
" clip-path="url(#pb1baf17a81)" style="fill: #f7ad90; fill-opacity: 0.75"/>
    <path d="M 58.892535 26.457317 
L 60.261649 25.121467 
L 58.925108 23.83724 
L 57.557121 25.260635 
z
" clip-path="url(#pb1baf17a81)" style="fill: #f7ac8e; fill-opacity: 0.75"/>
    <path d="M 64.317286 26.407526 
L 65.673581 25.204536 
L 64.323917 23.855207 
L 62.967607 25.119011 
z
" clip-path="url(#pb1baf17a81)" style="fill: #f7aa8c; fill-opacity: 0.75"/>
    <path d="M 61.604531 26.375856 
L 62.967607 25.119011 
L 61.624256 23.79043 
L 60.261649 25.121467 
z
" clip-path="url(#pb1baf17a81)" style="fill: #f7aa8c; fill-opacity: 0.75"/>
    <path d="M 54.803066 28.165944 
L 56.183063 26.700645 
L 54.856105 25.585123 
L 53.478546 27.154284 
z
" clip-path="url(#pb1baf17a81)" style="fill: #f6bea4; fill-opacity: 0.75"/>
    <path d="M 73.829521 27.872904 
L 75.164189 26.693306 
L 73.787525 25.504181 
L 72.452575 26.694581 
z
" clip-path="url(#pb1baf17a81)" style="fill: #f7ba9f; fill-opacity: 0.75"/>
    <path d="M 71.111099 27.840619 
L 72.452575 26.694581 
L 71.083283 25.445297 
L 69.741389 26.61535 
z
" clip-path="url(#pb1baf17a81)" style="fill: #f7ba9f; fill-opacity: 0.75"/>
    <path d="M 76.549165 27.801121 
L 77.877804 26.563956 
L 76.492802 25.45849 
L 75.164189 26.693306 
z
" clip-path="url(#pb1baf17a81)" style="fill: #f7b99e; fill-opacity: 0.75"/>
    <path d="M 57.516951 27.806637 
L 58.892535 26.457317 
L 57.557121 25.260635 
L 56.183063 26.700645 
z
" clip-path="url(#pb1baf17a81)" style="fill: #f7b99e; fill-opacity: 0.75"/>
    <path d="M 68.392647 27.752194 
L 69.741389 26.61535 
L 68.378831 25.329418 
L 67.02971 26.503561 
z
" clip-path="url(#pb1baf17a81)" style="fill: #f7b99e; fill-opacity: 0.75"/>
    <path d="M 65.673581 27.65591 
L 67.02971 26.503561 
L 65.673581 25.204536 
L 64.317286 26.407526 
z
" clip-path="url(#pb1baf17a81)" style="fill: #f7b79b; fill-opacity: 0.75"/>
    <path d="M 60.234631 27.634321 
L 61.604531 26.375856 
L 60.261649 25.121467 
L 58.892535 26.457317 
z
" clip-path="url(#pb1baf17a81)" style="fill: #f7b79b; fill-opacity: 0.75"/>
    <path d="M 62.953988 27.600355 
L 64.317286 26.407526 
L 62.967607 25.119011 
L 61.604531 26.375856 
z
" clip-path="url(#pb1baf17a81)" style="fill: #f7b79b; fill-opacity: 0.75"/>
    <path d="M 53.417325 29.665214 
L 54.803066 28.165944 
L 53.478546 27.154284 
L 52.095759 28.760405 
z
" clip-path="url(#pb1baf17a81)" style="fill: #f2cab5; fill-opacity: 0.75"/>
    <path d="M 56.134993 29.178141 
L 57.516951 27.806637 
L 56.183063 26.700645 
L 54.803066 28.165944 
z
" clip-path="url(#pb1baf17a81)" style="fill: #f4c5ad; fill-opacity: 0.75"/>
    <path d="M 72.488367 29.005076 
L 73.829521 27.872904 
L 72.452575 26.694581 
L 71.111099 27.840619 
z
" clip-path="url(#pb1baf17a81)" style="fill: #f5c2aa; fill-opacity: 0.75"/>
    <path d="M 75.214587 28.98006 
L 76.549165 27.801121 
L 75.164189 26.693306 
L 73.829521 27.872904 
z
" clip-path="url(#pb1baf17a81)" style="fill: #f5c2aa; fill-opacity: 0.75"/>
    <path d="M 69.762739 28.950329 
L 71.111099 27.840619 
L 69.741389 26.61535 
L 68.392647 27.752194 
z
" clip-path="url(#pb1baf17a81)" style="fill: #f5c2aa; fill-opacity: 0.75"/>
    <path d="M 58.857906 28.903086 
L 60.234631 27.634321 
L 58.892535 26.457317 
L 57.516951 27.806637 
z
" clip-path="url(#pb1baf17a81)" style="fill: #f5c1a9; fill-opacity: 0.75"/>
    <path d="M 67.036784 28.864082 
L 68.392647 27.752194 
L 67.02971 26.503561 
L 65.673581 27.65591 
z
" clip-path="url(#pb1baf17a81)" style="fill: #f5c1a9; fill-opacity: 0.75"/>
    <path d="M 77.942985 28.827341 
L 79.27194 27.577677 
L 77.877804 26.563956 
L 76.549165 27.801121 
z
" clip-path="url(#pb1baf17a81)" style="fill: #f5c1a9; fill-opacity: 0.75"/>
    <path d="M 64.310258 28.794907 
L 65.673581 27.65591 
L 64.317286 26.407526 
L 62.953988 27.600355 
z
" clip-path="url(#pb1baf17a81)" style="fill: #f5c0a7; fill-opacity: 0.75"/>
    <path d="M 61.583593 28.791608 
L 62.953988 27.600355 
L 61.604531 26.375856 
L 60.234631 27.634321 
z
" clip-path="url(#pb1baf17a81)" style="fill: #f6bfa6; fill-opacity: 0.75"/>
    <path d="M 52.026099 31.207119 
L 53.417325 29.665214 
L 52.095759 28.760405 
L 50.708036 30.412067 
z
" clip-path="url(#pb1baf17a81)" style="fill: #ead4c8; fill-opacity: 0.75"/>
    <path d="M 54.74682 30.580573 
L 56.134993 29.178141 
L 54.803066 28.165944 
L 53.417325 29.665214 
z
" clip-path="url(#pb1baf17a81)" style="fill: #efcebd; fill-opacity: 0.75"/>
    <path d="M 57.474417 30.190902 
L 58.857906 28.903086 
L 57.516951 27.806637 
L 56.134993 29.178141 
z
" clip-path="url(#pb1baf17a81)" style="fill: #f2cbb7; fill-opacity: 0.75"/>
    <path d="M 73.873611 30.10854 
L 75.214587 28.98006 
L 73.829521 27.872904 
L 72.488367 29.005076 
z
" clip-path="url(#pb1baf17a81)" style="fill: #f2cab5; fill-opacity: 0.75"/>
    <path d="M 71.140342 30.097834 
L 72.488367 29.005076 
L 71.111099 27.840619 
L 69.762739 28.950329 
z
" clip-path="url(#pb1baf17a81)" style="fill: #f2cab5; fill-opacity: 0.75"/>
    <path d="M 76.608253 30.015799 
L 77.942985 28.827341 
L 76.549165 27.801121 
L 75.214587 28.98006 
z
" clip-path="url(#pb1baf17a81)" style="fill: #f2c9b4; fill-opacity: 0.75"/>
    <path d="M 68.407192 30.031947 
L 69.762739 28.950329 
L 68.392647 27.752194 
L 67.036784 28.864082 
z
" clip-path="url(#pb1baf17a81)" style="fill: #f2c9b4; fill-opacity: 0.75"/>
    <path d="M 60.206065 29.98998 
L 61.583593 28.791608 
L 60.234631 27.634321 
L 58.857906 28.903086 
z
" clip-path="url(#pb1baf17a81)" style="fill: #f3c8b2; fill-opacity: 0.75"/>
    <path d="M 65.673581 29.959444 
L 67.036784 28.864082 
L 65.673581 27.65591 
L 64.310258 28.794907 
z
" clip-path="url(#pb1baf17a81)" style="fill: #f3c8b2; fill-opacity: 0.75"/>
    <path d="M 62.93961 29.929137 
L 64.310258 28.794907 
L 62.953988 27.600355 
L 61.583593 28.791608 
z
" clip-path="url(#pb1baf17a81)" style="fill: #f3c8b2; fill-opacity: 0.75"/>
    <path d="M 79.346195 29.771621 
L 80.675812 28.499256 
L 79.27194 27.577677 
L 77.942985 28.827341 
z
" clip-path="url(#pb1baf17a81)" style="fill: #f4c6af; fill-opacity: 0.75"/>
    <path d="M 50.629711 32.800259 
L 52.026099 31.207119 
L 50.708036 30.412067 
L 49.315734 32.11777 
z
" clip-path="url(#pb1baf17a81)" style="fill: #dfdbd9; fill-opacity: 0.75"/>
    <path d="M 53.352657 32.022666 
L 54.74682 30.580573 
L 53.417325 29.665214 
L 52.026099 31.207119 
z
" clip-path="url(#pb1baf17a81)" style="fill: #e7d7ce; fill-opacity: 0.75"/>
    <path d="M 56.084289 31.506558 
L 57.474417 30.190902 
L 56.134993 29.178141 
L 54.74682 30.580573 
z
" clip-path="url(#pb1baf17a81)" style="fill: #ecd3c5; fill-opacity: 0.75"/>
    <path d="M 72.525819 31.194553 
L 73.873611 30.10854 
L 72.488367 29.005076 
L 71.140342 30.097834 
z
" clip-path="url(#pb1baf17a81)" style="fill: #eed0c0; fill-opacity: 0.75"/>
    <path d="M 49.228547 34.453131 
L 50.629711 32.800259 
L 49.315734 32.11777 
L 47.919273 33.885899 
z
" clip-path="url(#pb1baf17a81)" style="fill: #d2dbe8; fill-opacity: 0.75"/>
    <path d="M 58.821429 31.20425 
L 60.206065 29.98998 
L 58.857906 28.903086 
L 57.474417 30.190902 
z
" clip-path="url(#pb1baf17a81)" style="fill: #efcfbf; fill-opacity: 0.75"/>
    <path d="M 75.267252 31.150797 
L 76.608253 30.015799 
L 75.214587 28.98006 
L 73.873611 30.10854 
z
" clip-path="url(#pb1baf17a81)" style="fill: #efcfbf; fill-opacity: 0.75"/>
    <path d="M 69.785109 31.159394 
L 71.140342 30.097834 
L 69.762739 28.950329 
L 68.407192 30.031947 
z
" clip-path="url(#pb1baf17a81)" style="fill: #efcfbf; fill-opacity: 0.75"/>
    <path d="M 67.044206 31.09389 
L 68.407192 30.031947 
L 67.036784 28.864082 
L 65.673581 29.959444 
z
" clip-path="url(#pb1baf17a81)" style="fill: #efcebd; fill-opacity: 0.75"/>
    <path d="M 61.561568 31.067306 
L 62.93961 29.929137 
L 61.583593 28.791608 
L 60.206065 29.98998 
z
" clip-path="url(#pb1baf17a81)" style="fill: #efcebd; fill-opacity: 0.75"/>
    <path d="M 64.302874 31.046862 
L 65.673581 29.959444 
L 64.310258 28.794907 
L 62.93961 29.929137 
z
" clip-path="url(#pb1baf17a81)" style="fill: #efcebd; fill-opacity: 0.75"/>
    <path d="M 78.011006 30.979825 
L 79.346195 29.771621 
L 77.942985 28.827341 
L 76.608253 30.015799 
z
" clip-path="url(#pb1baf17a81)" style="fill: #f0cdbb; fill-opacity: 0.75"/>
    <path d="M 80.759352 30.633558 
L 82.090033 29.328225 
L 80.675812 28.499256 
L 79.346195 29.771621 
z
" clip-path="url(#pb1baf17a81)" style="fill: #f2cab5; fill-opacity: 0.75"/>
    <path d="M 51.952791 33.513105 
L 53.352657 32.022666 
L 52.026099 31.207119 
L 50.629711 32.800259 
z
" clip-path="url(#pb1baf17a81)" style="fill: #dcdddd; fill-opacity: 0.75"/>
    <path d="M 47.823057 36.174095 
L 49.228547 34.453131 
L 47.919273 33.885899 
L 46.519134 35.724678 
z
" clip-path="url(#pb1baf17a81)" style="fill: #c1d4f4; fill-opacity: 0.75"/>
    <path d="M 54.687709 32.858849 
L 56.084289 31.506558 
L 54.74682 30.580573 
L 53.352657 32.022666 
z
" clip-path="url(#pb1baf17a81)" style="fill: #e4d9d2; fill-opacity: 0.75"/>
    <path d="M 57.429775 32.443245 
L 58.821429 31.20425 
L 57.474417 30.190902 
L 56.084289 31.506558 
z
" clip-path="url(#pb1baf17a81)" style="fill: #e9d5cb; fill-opacity: 0.75"/>
    <path d="M 71.170843 32.246296 
L 72.525819 31.194553 
L 71.140342 30.097834 
L 69.785109 31.159394 
z
" clip-path="url(#pb1baf17a81)" style="fill: #ead5c9; fill-opacity: 0.75"/>
    <path d="M 73.919537 32.240308 
L 75.267252 31.150797 
L 73.873611 30.10854 
L 72.525819 31.194553 
z
" clip-path="url(#pb1baf17a81)" style="fill: #ead5c9; fill-opacity: 0.75"/>
    <path d="M 68.422382 32.198159 
L 69.785109 31.159394 
L 68.407192 30.031947 
L 67.044206 31.09389 
z
" clip-path="url(#pb1baf17a81)" style="fill: #ead4c8; fill-opacity: 0.75"/>
    <path d="M 60.176121 32.218211 
L 61.561568 31.067306 
L 60.206065 29.98998 
L 58.821429 31.20425 
z
" clip-path="url(#pb1baf17a81)" style="fill: #ead4c8; fill-opacity: 0.75"/>
    <path d="M 76.669724 32.131598 
L 78.011006 30.979825 
L 76.608253 30.015799 
L 75.267252 31.150797 
z
" clip-path="url(#pb1baf17a81)" style="fill: #ebd3c6; fill-opacity: 0.75"/>
    <path d="M 65.673581 32.144734 
L 67.044206 31.09389 
L 65.673581 29.959444 
L 64.302874 31.046862 
z
" clip-path="url(#pb1baf17a81)" style="fill: #ebd3c6; fill-opacity: 0.75"/>
    <path d="M 62.924558 32.135047 
L 64.302874 31.046862 
L 62.93961 29.929137 
L 61.561568 31.067306 
z
" clip-path="url(#pb1baf17a81)" style="fill: #ebd3c6; fill-opacity: 0.75"/>
    <path d="M 79.423347 31.871798 
L 80.759352 30.633558 
L 79.346195 29.771621 
L 78.011006 30.979825 
z
" clip-path="url(#pb1baf17a81)" style="fill: #edd1c2; fill-opacity: 0.75"/>
    <path d="M 50.547576 35.060494 
L 51.952791 33.513105 
L 50.629711 32.800259 
L 49.228547 34.453131 
z
" clip-path="url(#pb1baf17a81)" style="fill: #d1dae9; fill-opacity: 0.75"/>
    <path d="M 46.413755 37.971323 
L 47.823057 36.174095 
L 46.519134 35.724678 
L 45.115861 37.642132 
z
" clip-path="url(#pb1baf17a81)" style="fill: #aec9fc; fill-opacity: 0.75"/>
    <path d="M 82.183026 31.412689 
L 83.515235 30.064038 
L 82.090033 29.328225 
L 80.759352 30.633558 
z
" clip-path="url(#pb1baf17a81)" style="fill: #f1cdba; fill-opacity: 0.75"/>
    <path d="M 53.284932 34.256536 
L 54.687709 32.858849 
L 53.352657 32.022666 
L 51.952791 33.513105 
z
" clip-path="url(#pb1baf17a81)" style="fill: #dadce0; fill-opacity: 0.75"/>
    <path d="M 56.031255 33.715811 
L 57.429775 32.443245 
L 56.084289 31.506558 
L 54.687709 32.858849 
z
" clip-path="url(#pb1baf17a81)" style="fill: #e0dbd8; fill-opacity: 0.75"/>
    <path d="M 49.13743 36.673307 
L 50.547576 35.060494 
L 49.228547 34.453131 
L 47.823057 36.174095 
z
" clip-path="url(#pb1baf17a81)" style="fill: #c1d4f4; fill-opacity: 0.75"/>
    <path d="M 58.783324 33.390711 
L 60.176121 32.218211 
L 58.821429 31.20425 
L 57.429775 32.443245 
z
" clip-path="url(#pb1baf17a81)" style="fill: #e4d9d2; fill-opacity: 0.75"/>
    <path d="M 45.001214 39.852758 
L 46.413755 37.971323 
L 45.115861 37.642132 
L 43.710054 39.646039 
z
" clip-path="url(#pb1baf17a81)" style="fill: #9abbff; fill-opacity: 0.75"/>
    <path d="M 72.564709 33.29251 
L 73.919537 32.240308 
L 72.525819 31.194553 
L 71.170843 32.246296 
z
" clip-path="url(#pb1baf17a81)" style="fill: #e5d8d1; fill-opacity: 0.75"/>
    <path d="M 69.808366 33.272156 
L 71.170843 32.246296 
L 69.785109 31.159394 
L 68.422382 32.198159 
z
" clip-path="url(#pb1baf17a81)" style="fill: #e5d8d1; fill-opacity: 0.75"/>
    <path d="M 75.321876 33.234894 
L 76.669724 32.131598 
L 75.267252 31.150797 
L 73.919537 32.240308 
z
" clip-path="url(#pb1baf17a81)" style="fill: #e5d8d1; fill-opacity: 0.75"/>
    <path d="M 67.051931 33.222696 
L 68.422382 32.198159 
L 67.044206 31.09389 
L 65.673581 32.144734 
z
" clip-path="url(#pb1baf17a81)" style="fill: #e6d7cf; fill-opacity: 0.75"/>
    <path d="M 61.538587 33.23281 
L 62.924558 32.135047 
L 61.561568 31.067306 
L 60.176121 32.218211 
z
" clip-path="url(#pb1baf17a81)" style="fill: #e6d7cf; fill-opacity: 0.75"/>
    <path d="M 64.295179 33.193189 
L 65.673581 32.144734 
L 64.302874 31.046862 
L 62.924558 32.135047 
z
" clip-path="url(#pb1baf17a81)" style="fill: #e6d7cf; fill-opacity: 0.75"/>
    <path d="M 78.081471 33.05066 
L 79.423347 31.871798 
L 78.011006 30.979825 
L 76.669724 32.131598 
z
" clip-path="url(#pb1baf17a81)" style="fill: #e7d7ce; fill-opacity: 0.75"/>
    <path d="M 80.845786 32.691328 
L 82.183026 31.412689 
L 80.759352 30.633558 
L 79.423347 31.871798 
z
" clip-path="url(#pb1baf17a81)" style="fill: #ead4c8; fill-opacity: 0.75"/>
    <path d="M 51.876276 35.708313 
L 53.284932 34.256536 
L 51.952791 33.513105 
L 50.547576 35.060494 
z
" clip-path="url(#pb1baf17a81)" style="fill: #cfdaea; fill-opacity: 0.75"/>
    <path d="M 83.617801 32.108487 
L 84.952064 30.706074 
L 83.515235 30.064038 
L 82.183026 31.412689 
z
" clip-path="url(#pb1baf17a81)" style="fill: #efcebd; fill-opacity: 0.75"/>
    <path d="M 43.586066 41.826072 
L 45.001214 39.852758 
L 43.710054 39.646039 
L 42.302374 41.743887 
z
" clip-path="url(#pb1baf17a81)" style="fill: #84a7fc; fill-opacity: 0.75"/>
    <path d="M 47.722833 38.359853 
L 49.13743 36.673307 
L 47.823057 36.174095 
L 46.413755 37.971323 
z
" clip-path="url(#pb1baf17a81)" style="fill: #b1cbfc; fill-opacity: 0.75"/>
    <path d="M 54.626087 35.030775 
L 56.031255 33.715811 
L 54.687709 32.858849 
L 53.284932 34.256536 
z
" clip-path="url(#pb1baf17a81)" style="fill: #d7dce3; fill-opacity: 0.75"/>
    <path d="M 57.383292 34.593694 
L 58.783324 33.390711 
L 57.429775 32.443245 
L 56.031255 33.715811 
z
" clip-path="url(#pb1baf17a81)" style="fill: #dcdddd; fill-opacity: 0.75"/>
    <path d="M 60.14498 34.349034 
L 61.538587 33.23281 
L 60.176121 32.218211 
L 58.783324 33.390711 
z
" clip-path="url(#pb1baf17a81)" style="fill: #dfdbd9; fill-opacity: 0.75"/>
    <path d="M 71.20242 34.315776 
L 72.564709 33.29251 
L 71.170843 32.246296 
L 69.808366 33.272156 
z
" clip-path="url(#pb1baf17a81)" style="fill: #dfdbd9; fill-opacity: 0.75"/>
    <path d="M 73.96703 34.297878 
L 75.321876 33.234894 
L 73.919537 32.240308 
L 72.564709 33.29251 
z
" clip-path="url(#pb1baf17a81)" style="fill: #dfdbd9; fill-opacity: 0.75"/>
    <path d="M 68.438125 34.28069 
L 69.808366 33.272156 
L 68.422382 32.198159 
L 67.051931 33.222696 
z
" clip-path="url(#pb1baf17a81)" style="fill: #e0dbd8; fill-opacity: 0.75"/>
    <path d="M 62.908921 34.248075 
L 64.295179 33.193189 
L 62.924558 32.135047 
L 61.538587 33.23281 
z
" clip-path="url(#pb1baf17a81)" style="fill: #e0dbd8; fill-opacity: 0.75"/>
    <path d="M 65.673581 34.241712 
L 67.051931 33.222696 
L 65.673581 32.144734 
L 64.295179 33.193189 
z
" clip-path="url(#pb1baf17a81)" style="fill: #e0dbd8; fill-opacity: 0.75"/>
    <path d="M 76.733219 34.178085 
L 78.081471 33.05066 
L 76.669724 32.131598 
L 75.321876 33.234894 
z
" clip-path="url(#pb1baf17a81)" style="fill: #e1dad6; fill-opacity: 0.75"/>
    <path d="M 42.169001 43.89862 
L 43.586066 41.826072 
L 42.302374 41.743887 
L 40.893533 43.94283 
z
" clip-path="url(#pb1baf17a81)" style="fill: #6c8ff1; fill-opacity: 0.75"/>
    <path d="M 50.462125 37.222759 
L 51.876276 35.708313 
L 50.547576 35.060494 
L 49.13743 36.673307 
z
" clip-path="url(#pb1baf17a81)" style="fill: #c3d5f4; fill-opacity: 0.75"/>
    <path d="M 79.502943 33.907663 
L 80.845786 32.691328 
L 79.423347 31.871798 
L 78.081471 33.05066 
z
" clip-path="url(#pb1baf17a81)" style="fill: #e4d9d2; fill-opacity: 0.75"/>
    <path d="M 46.30433 40.128227 
L 47.722833 38.359853 
L 46.413755 37.971323 
L 45.001214 39.852758 
z
" clip-path="url(#pb1baf17a81)" style="fill: #9fbfff; fill-opacity: 0.75"/>
    <path d="M 82.278849 33.437978 
L 83.617801 32.108487 
L 82.183026 31.412689 
L 80.845786 32.691328 
z
" clip-path="url(#pb1baf17a81)" style="fill: #e9d5cb; fill-opacity: 0.75"/>
    <path d="M 53.214556 36.396908 
L 54.626087 35.030775 
L 53.284932 34.256536 
L 51.876276 35.708313 
z
" clip-path="url(#pb1baf17a81)" style="fill: #cdd9ec; fill-opacity: 0.75"/>
    <path d="M 40.750761 46.077392 
L 42.169001 43.89862 
L 40.893533 43.94283 
L 39.484297 46.249646 
z
" clip-path="url(#pb1baf17a81)" style="fill: #5470de; fill-opacity: 0.75"/>
    <path d="M 85.064279 32.720362 
L 86.401183 31.25363 
L 84.952064 30.706074 
L 83.617801 32.108487 
z
" clip-path="url(#pb1baf17a81)" style="fill: #efcfbf; fill-opacity: 0.75"/>
    <path d="M 55.97621 35.836042 
L 57.383292 34.593694 
L 56.031255 33.715811 
L 54.626087 35.030775 
z
" clip-path="url(#pb1baf17a81)" style="fill: #d4dbe6; fill-opacity: 0.75"/>
    <path d="M 49.042929 38.808303 
L 50.462125 37.222759 
L 49.13743 36.673307 
L 47.722833 38.359853 
z
" clip-path="url(#pb1baf17a81)" style="fill: #b3cdfb; fill-opacity: 0.75"/>
    <path d="M 58.743818 35.492639 
L 60.14498 34.349034 
L 58.783324 33.390711 
L 57.383292 34.593694 
z
" clip-path="url(#pb1baf17a81)" style="fill: #d8dce2; fill-opacity: 0.75"/>
    <path d="M 44.882525 41.986267 
L 46.30433 40.128227 
L 45.001214 39.852758 
L 43.586066 41.826072 
z
" clip-path="url(#pb1baf17a81)" style="fill: #8badfd; fill-opacity: 0.75"/>
    <path d="M 72.604808 35.328905 
L 73.96703 34.297878 
L 72.564709 33.29251 
L 71.20242 34.315776 
z
" clip-path="url(#pb1baf17a81)" style="fill: #dadce0; fill-opacity: 0.75"/>
    <path d="M 69.832373 35.31865 
L 71.20242 34.315776 
L 69.808366 33.272156 
L 68.438125 34.28069 
z
" clip-path="url(#pb1baf17a81)" style="fill: #dadce0; fill-opacity: 0.75"/>
    <path d="M 61.514788 35.318291 
L 62.908921 34.248075 
L 61.538587 33.23281 
L 60.14498 34.349034 
z
" clip-path="url(#pb1baf17a81)" style="fill: #dadce0; fill-opacity: 0.75"/>
    <path d="M 67.059913 35.280597 
L 68.438125 34.28069 
L 67.051931 33.222696 
L 65.673581 34.241712 
z
" clip-path="url(#pb1baf17a81)" style="fill: #dbdcde; fill-opacity: 0.75"/>
    <path d="M 75.378134 35.262223 
L 76.733219 34.178085 
L 75.321876 33.234894 
L 73.96703 34.297878 
z
" clip-path="url(#pb1baf17a81)" style="fill: #dbdcde; fill-opacity: 0.75"/>
    <path d="M 64.28722 35.26403 
L 65.673581 34.241712 
L 64.295179 33.193189 
L 62.908921 34.248075 
z
" clip-path="url(#pb1baf17a81)" style="fill: #dbdcde; fill-opacity: 0.75"/>
    <path d="M 78.153962 35.069625 
L 79.502943 33.907663 
L 78.081471 33.05066 
L 76.733219 34.178085 
z
" clip-path="url(#pb1baf17a81)" style="fill: #dddcdc; fill-opacity: 0.75"/>
    <path d="M 80.934605 34.702252 
L 82.278849 33.437978 
L 80.845786 32.691328 
L 79.502943 33.907663 
z
" clip-path="url(#pb1baf17a81)" style="fill: #e1dad6; fill-opacity: 0.75"/>
    <path d="M 51.797012 37.822882 
L 53.214556 36.396908 
L 51.876276 35.708313 
L 50.462125 37.222759 
z
" clip-path="url(#pb1baf17a81)" style="fill: #c1d4f4; fill-opacity: 0.75"/>
    <path d="M 83.723071 34.111261 
L 85.064279 32.720362 
L 83.617801 32.108487 
L 82.278849 33.437978 
z
" clip-path="url(#pb1baf17a81)" style="fill: #e8d6cc; fill-opacity: 0.75"/>
    <path d="M 43.458082 43.941512 
L 44.882525 41.986267 
L 43.586066 41.826072 
L 42.169001 43.89862 
z
" clip-path="url(#pb1baf17a81)" style="fill: #7597f6; fill-opacity: 0.75"/>
    <path d="M 47.6192 40.473178 
L 49.042929 38.808303 
L 47.722833 38.359853 
L 46.30433 40.128227 
z
" clip-path="url(#pb1baf17a81)" style="fill: #a2c1ff; fill-opacity: 0.75"/>
    <path d="M 54.562325 37.126591 
L 55.97621 35.836042 
L 54.626087 35.030775 
L 53.214556 36.396908 
z
" clip-path="url(#pb1baf17a81)" style="fill: #cbd8ee; fill-opacity: 0.75"/>
    <path d="M 57.335248 36.672552 
L 58.743818 35.492639 
L 57.383292 34.593694 
L 55.97621 35.836042 
z
" clip-path="url(#pb1baf17a81)" style="fill: #d1dae9; fill-opacity: 0.75"/>
    <path d="M 86.523075 33.24766 
L 87.863274 31.705923 
L 86.401183 31.25363 
L 85.064279 32.720362 
z
" clip-path="url(#pb1baf17a81)" style="fill: #efcebd; fill-opacity: 0.75"/>
    <path d="M 60.112827 36.412784 
L 61.514788 35.318291 
L 60.14498 34.349034 
L 58.743818 35.492639 
z
" clip-path="url(#pb1baf17a81)" style="fill: #d4dbe6; fill-opacity: 0.75"/>
    <path d="M 71.234883 36.336509 
L 72.604808 35.328905 
L 71.20242 34.315776 
L 69.832373 35.31865 
z
" clip-path="url(#pb1baf17a81)" style="fill: #d5dbe5; fill-opacity: 0.75"/>
    <path d="M 74.015804 36.311419 
L 75.378134 35.262223 
L 73.96703 34.297878 
L 72.604808 35.328905 
z
" clip-path="url(#pb1baf17a81)" style="fill: #d5dbe5; fill-opacity: 0.75"/>
    <path d="M 68.454328 36.309825 
L 69.832373 35.31865 
L 68.438125 34.28069 
L 67.059913 35.280597 
z
" clip-path="url(#pb1baf17a81)" style="fill: #d5dbe5; fill-opacity: 0.75"/>
    <path d="M 62.892794 36.29856 
L 64.28722 35.26403 
L 62.908921 34.248075 
L 61.514788 35.318291 
z
" clip-path="url(#pb1baf17a81)" style="fill: #d6dce4; fill-opacity: 0.75"/>
    <path d="M 65.673581 36.280702 
L 67.059913 35.280597 
L 65.673581 34.241712 
L 64.28722 35.26403 
z
" clip-path="url(#pb1baf17a81)" style="fill: #d6dce4; fill-opacity: 0.75"/>
    <path d="M 76.798356 36.185353 
L 78.153962 35.069625 
L 76.733219 34.178085 
L 75.378134 35.262223 
z
" clip-path="url(#pb1baf17a81)" style="fill: #d7dce3; fill-opacity: 0.75"/>
    <path d="M 42.031719 46.001152 
L 43.458082 43.941512 
L 42.169001 43.89862 
L 40.750761 46.077392 
z
" clip-path="url(#pb1baf17a81)" style="fill: #5e7de7; fill-opacity: 0.75"/>
    <path d="M 50.373871 39.317234 
L 51.797012 37.822882 
L 50.462125 37.222759 
L 49.042929 38.808303 
z
" clip-path="url(#pb1baf17a81)" style="fill: #b5cdfa; fill-opacity: 0.75"/>
    <path d="M 79.584507 35.909234 
L 80.934605 34.702252 
L 79.502943 33.907663 
L 78.153962 35.069625 
z
" clip-path="url(#pb1baf17a81)" style="fill: #dadce0; fill-opacity: 0.75"/>
    <path d="M 46.191514 42.225375 
L 47.6192 40.473178 
L 46.30433 40.128227 
L 44.882525 41.986267 
z
" clip-path="url(#pb1baf17a81)" style="fill: #90b2fe; fill-opacity: 0.75"/>
    <path d="M 82.37693 35.434034 
L 83.723071 34.111261 
L 82.278849 33.437978 
L 80.934605 34.702252 
z
" clip-path="url(#pb1baf17a81)" style="fill: #dfdbd9; fill-opacity: 0.75"/>
    <path d="M 53.141955 38.474096 
L 54.562325 37.126591 
L 53.214556 36.396908 
L 51.797012 37.822882 
z
" clip-path="url(#pb1baf17a81)" style="fill: #c0d4f5; fill-opacity: 0.75"/>
    <path d="M 85.179005 34.710639 
L 86.523075 33.24766 
L 85.064279 32.720362 
L 83.723071 34.111261 
z
" clip-path="url(#pb1baf17a81)" style="fill: #e8d6cc; fill-opacity: 0.75"/>
    <path d="M 55.919485 37.897667 
L 57.335248 36.672552 
L 55.97621 35.836042 
L 54.562325 37.126591 
z
" clip-path="url(#pb1baf17a81)" style="fill: #c9d7f0; fill-opacity: 0.75"/>
    <path d="M 48.945614 40.88832 
L 50.373871 39.317234 
L 49.042929 38.808303 
L 47.6192 40.473178 
z
" clip-path="url(#pb1baf17a81)" style="fill: #a5c3fe; fill-opacity: 0.75"/>
    <path d="M 58.70315 37.540518 
L 60.112827 36.412784 
L 58.743818 35.492639 
L 57.335248 36.672552 
z
" clip-path="url(#pb1baf17a81)" style="fill: #cdd9ec; fill-opacity: 0.75"/>
    <path d="M 44.760507 44.0726 
L 46.191514 42.225375 
L 44.882525 41.986267 
L 43.458082 43.941512 
z
" clip-path="url(#pb1baf17a81)" style="fill: #7b9ff9; fill-opacity: 0.75"/>
    <path d="M 61.490315 37.354269 
L 62.892794 36.29856 
L 61.514788 35.318291 
L 60.112827 36.412784 
z
" clip-path="url(#pb1baf17a81)" style="fill: #cfdaea; fill-opacity: 0.75"/>
    <path d="M 72.645872 37.334192 
L 74.015804 36.311419 
L 72.604808 35.328905 
L 71.234883 36.336509 
z
" clip-path="url(#pb1baf17a81)" style="fill: #cfdaea; fill-opacity: 0.75"/>
    <path d="M 69.856982 37.329372 
L 71.234883 36.336509 
L 69.832373 35.31865 
L 68.454328 36.309825 
z
" clip-path="url(#pb1baf17a81)" style="fill: #cfdaea; fill-opacity: 0.75"/>
    <path d="M 67.068104 37.29812 
L 68.454328 36.309825 
L 67.059913 35.280597 
L 65.673581 36.280702 
z
" clip-path="url(#pb1baf17a81)" style="fill: #d1dae9; fill-opacity: 0.75"/>
    <path d="M 64.279043 37.289921 
L 65.673581 36.280702 
L 64.28722 35.26403 
L 62.892794 36.29856 
z
" clip-path="url(#pb1baf17a81)" style="fill: #d1dae9; fill-opacity: 0.75"/>
    <path d="M 75.435685 37.263182 
L 76.798356 36.185353 
L 75.378134 35.262223 
L 74.015804 36.311419 
z
" clip-path="url(#pb1baf17a81)" style="fill: #d1dae9; fill-opacity: 0.75"/>
    <path d="M 78.22804 37.067059 
L 79.584507 35.909234 
L 78.153962 35.069625 
L 76.798356 36.185353 
z
" clip-path="url(#pb1baf17a81)" style="fill: #d3dbe7; fill-opacity: 0.75"/>
    <path d="M 87.994822 33.689657 
L 89.33904 32.062083 
L 87.863274 31.705923 
L 86.523075 33.24766 
z
" clip-path="url(#pb1baf17a81)" style="fill: #f0cdbb; fill-opacity: 0.75"/>
    <path d="M 81.025267 36.696607 
L 82.37693 35.434034 
L 80.934605 34.702252 
L 79.584507 35.909234 
z
" clip-path="url(#pb1baf17a81)" style="fill: #d8dce2; fill-opacity: 0.75"/>
    <path d="M 51.71548 39.887189 
L 53.141955 38.474096 
L 51.797012 37.822882 
L 50.373871 39.317234 
z
" clip-path="url(#pb1baf17a81)" style="fill: #b5cdfa; fill-opacity: 0.75"/>
    <path d="M 43.326871 46.022228 
L 44.760507 44.0726 
L 43.458082 43.941512 
L 42.031719 46.001152 
z
" clip-path="url(#pb1baf17a81)" style="fill: #6788ee; fill-opacity: 0.75"/>
    <path d="M 83.830407 36.102577 
L 85.179005 34.710639 
L 83.723071 34.111261 
L 82.37693 35.434034 
z
" clip-path="url(#pb1baf17a81)" style="fill: #dedcdb; fill-opacity: 0.75"/>
    <path d="M 47.512785 42.544267 
L 48.945614 40.88832 
L 47.6192 40.473178 
L 46.191514 42.225375 
z
" clip-path="url(#pb1baf17a81)" style="fill: #94b6ff; fill-opacity: 0.75"/>
    <path d="M 54.49681 39.176809 
L 55.919485 37.897667 
L 54.562325 37.126591 
L 53.141955 38.474096 
z
" clip-path="url(#pb1baf17a81)" style="fill: #bfd3f6; fill-opacity: 0.75"/>
    <path d="M 57.285936 38.710434 
L 58.70315 37.540518 
L 57.335248 36.672552 
L 55.919485 37.897667 
z
" clip-path="url(#pb1baf17a81)" style="fill: #c5d6f2; fill-opacity: 0.75"/>
    <path d="M 86.647214 35.235522 
L 87.994822 33.689657 
L 86.523075 33.24766 
L 85.179005 34.710639 
z
" clip-path="url(#pb1baf17a81)" style="fill: #e8d6cc; fill-opacity: 0.75"/>
    <path d="M 60.07986 38.440149 
L 61.490315 37.354269 
L 60.112827 36.412784 
L 58.70315 37.540518 
z
" clip-path="url(#pb1baf17a81)" style="fill: #c9d7f0; fill-opacity: 0.75"/>
    <path d="M 71.268034 38.339216 
L 72.645872 37.334192 
L 71.234883 36.336509 
L 69.856982 37.329372 
z
" clip-path="url(#pb1baf17a81)" style="fill: #cbd8ee; fill-opacity: 0.75"/>
    <path d="M 62.876275 38.317233 
L 64.279043 37.289921 
L 62.892794 36.29856 
L 61.490315 37.354269 
z
" clip-path="url(#pb1baf17a81)" style="fill: #cbd8ee; fill-opacity: 0.75"/>
    <path d="M 68.47089 38.316308 
L 69.856982 37.329372 
L 68.454328 36.309825 
L 67.068104 37.29812 
z
" clip-path="url(#pb1baf17a81)" style="fill: #cbd8ee; fill-opacity: 0.75"/>
    <path d="M 74.06556 38.31162 
L 75.435685 37.263182 
L 74.015804 36.311419 
L 72.645872 37.334192 
z
" clip-path="url(#pb1baf17a81)" style="fill: #cbd8ee; fill-opacity: 0.75"/>
    <path d="M 65.673581 38.292452 
L 67.068104 37.29812 
L 65.673581 36.280702 
L 64.279043 37.289921 
z
" clip-path="url(#pb1baf17a81)" style="fill: #cbd8ee; fill-opacity: 0.75"/>
    <path d="M 76.864734 38.18405 
L 78.22804 37.067059 
L 76.798356 36.185353 
L 75.435685 37.263182 
z
" clip-path="url(#pb1baf17a81)" style="fill: #ccd9ed; fill-opacity: 0.75"/>
    <path d="M 50.28335 41.374333 
L 51.71548 39.887189 
L 50.373871 39.317234 
L 48.945614 40.88832 
z
" clip-path="url(#pb1baf17a81)" style="fill: #a7c5fe; fill-opacity: 0.75"/>
    <path d="M 79.667537 37.907111 
L 81.025267 36.696607 
L 79.584507 35.909234 
L 78.22804 37.067059 
z
" clip-path="url(#pb1baf17a81)" style="fill: #d1dae9; fill-opacity: 0.75"/>
    <path d="M 46.075992 44.292937 
L 47.512785 42.544267 
L 46.191514 42.225375 
L 44.760507 44.0726 
z
" clip-path="url(#pb1baf17a81)" style="fill: #82a6fb; fill-opacity: 0.75"/>
    <path d="M 82.476664 37.431408 
L 83.830407 36.102577 
L 82.37693 35.434034 
L 81.025267 36.696607 
z
" clip-path="url(#pb1baf17a81)" style="fill: #d6dce4; fill-opacity: 0.75"/>
    <path d="M 89.480173 34.045562 
L 90.829203 32.321158 
L 89.33904 32.062083 
L 87.994822 33.689657 
z
" clip-path="url(#pb1baf17a81)" style="fill: #f2cbb7; fill-opacity: 0.75"/>
    <path d="M 53.06757 40.518691 
L 54.49681 39.176809 
L 53.141955 38.474096 
L 51.71548 39.887189 
z
" clip-path="url(#pb1baf17a81)" style="fill: #b3cdfb; fill-opacity: 0.75"/>
    <path d="M 85.295532 36.707412 
L 86.647214 35.235522 
L 85.179005 34.710639 
L 83.830407 36.102577 
z
" clip-path="url(#pb1baf17a81)" style="fill: #dedcdb; fill-opacity: 0.75"/>
    <path d="M 55.86143 39.931414 
L 57.285936 38.710434 
L 55.919485 37.897667 
L 54.49681 39.176809 
z
" clip-path="url(#pb1baf17a81)" style="fill: #bcd2f7; fill-opacity: 0.75"/>
    <path d="M 48.846078 42.943781 
L 50.28335 41.374333 
L 48.945614 40.88832 
L 47.512785 42.544267 
z
" clip-path="url(#pb1baf17a81)" style="fill: #97b8ff; fill-opacity: 0.75"/>
    <path d="M 58.661572 39.565179 
L 60.07986 38.440149 
L 58.70315 37.540518 
L 57.285936 38.710434 
z
" clip-path="url(#pb1baf17a81)" style="fill: #c1d4f4; fill-opacity: 0.75"/>
    <path d="M 44.6359 46.141871 
L 46.075992 44.292937 
L 44.760507 44.0726 
L 43.326871 46.022228 
z
" clip-path="url(#pb1baf17a81)" style="fill: #6f92f3; fill-opacity: 0.75"/>
    <path d="M 61.46532 39.371651 
L 62.876275 38.317233 
L 61.490315 37.354269 
L 60.07986 38.440149 
z
" clip-path="url(#pb1baf17a81)" style="fill: #c4d5f3; fill-opacity: 0.75"/>
    <path d="M 72.687644 39.339331 
L 74.06556 38.31162 
L 72.645872 37.334192 
L 71.268034 38.339216 
z
" clip-path="url(#pb1baf17a81)" style="fill: #c5d6f2; fill-opacity: 0.75"/>
    <path d="M 69.882041 39.335297 
L 71.268034 38.339216 
L 69.856982 37.329372 
L 68.47089 38.316308 
z
" clip-path="url(#pb1baf17a81)" style="fill: #c5d6f2; fill-opacity: 0.75"/>
    <path d="M 67.076454 39.306234 
L 68.47089 38.316308 
L 67.068104 37.29812 
L 65.673581 38.292452 
z
" clip-path="url(#pb1baf17a81)" style="fill: #c5d6f2; fill-opacity: 0.75"/>
    <path d="M 64.2707 39.301811 
L 65.673581 38.292452 
L 64.279043 37.289921 
L 62.876275 38.317233 
z
" clip-path="url(#pb1baf17a81)" style="fill: #c5d6f2; fill-opacity: 0.75"/>
    <path d="M 75.494169 39.268709 
L 76.864734 38.18405 
L 75.435685 37.263182 
L 74.06556 38.31162 
z
" clip-path="url(#pb1baf17a81)" style="fill: #c6d6f1; fill-opacity: 0.75"/>
    <path d="M 78.30324 39.073867 
L 79.667537 37.907111 
L 78.22804 37.067059 
L 76.864734 38.18405 
z
" clip-path="url(#pb1baf17a81)" style="fill: #c9d7f0; fill-opacity: 0.75"/>
    <path d="M 88.128281 35.685265 
L 89.480173 34.045562 
L 87.994822 33.689657 
L 86.647214 35.235522 
z
" clip-path="url(#pb1baf17a81)" style="fill: #ead5c9; fill-opacity: 0.75"/>
    <path d="M 81.117204 38.705264 
L 82.476664 37.431408 
L 81.025267 36.696607 
L 79.667537 37.907111 
z
" clip-path="url(#pb1baf17a81)" style="fill: #cdd9ec; fill-opacity: 0.75"/>
    <path d="M 51.63218 41.931872 
L 53.06757 40.518691 
L 51.71548 39.887189 
L 50.28335 41.374333 
z
" clip-path="url(#pb1baf17a81)" style="fill: #a7c5fe; fill-opacity: 0.75"/>
    <path d="M 83.939131 38.113275 
L 85.295532 36.707412 
L 83.830407 36.102577 
L 82.476664 37.431408 
z
" clip-path="url(#pb1baf17a81)" style="fill: #d5dbe5; fill-opacity: 0.75"/>
    <path d="M 47.404241 44.603531 
L 48.846078 42.943781 
L 47.512785 42.544267 
L 46.075992 44.292937 
z
" clip-path="url(#pb1baf17a81)" style="fill: #86a9fc; fill-opacity: 0.75"/>
    <path d="M 54.429946 41.212243 
L 55.86143 39.931414 
L 54.49681 39.176809 
L 53.06757 40.518691 
z
" clip-path="url(#pb1baf17a81)" style="fill: #b2ccfb; fill-opacity: 0.75"/>
    <path d="M 90.979797 34.314511 
L 92.334509 32.482102 
L 90.829203 32.321158 
L 89.480173 34.045562 
z
" clip-path="url(#pb1baf17a81)" style="fill: #f3c7b1; fill-opacity: 0.75"/>
    <path d="M 57.235661 40.73829 
L 58.661572 39.565179 
L 57.285936 38.710434 
L 55.86143 39.931414 
z
" clip-path="url(#pb1baf17a81)" style="fill: #bad0f8; fill-opacity: 0.75"/>
    <path d="M 86.772818 37.248028 
L 88.128281 35.685265 
L 86.647214 35.235522 
L 85.295532 36.707412 
z
" clip-path="url(#pb1baf17a81)" style="fill: #dfdbd9; fill-opacity: 0.75"/>
    <path d="M 60.046284 40.462184 
L 61.46532 39.371651 
L 60.07986 38.440149 
L 58.661572 39.565179 
z
" clip-path="url(#pb1baf17a81)" style="fill: #bed2f6; fill-opacity: 0.75"/>
    <path d="M 71.301661 40.355113 
L 72.687644 39.339331 
L 71.268034 38.339216 
L 69.882041 39.335297 
z
" clip-path="url(#pb1baf17a81)" style="fill: #bfd3f6; fill-opacity: 0.75"/>
    <path d="M 62.859469 40.335224 
L 64.2707 39.301811 
L 62.876275 38.317233 
L 61.46532 39.371651 
z
" clip-path="url(#pb1baf17a81)" style="fill: #bfd3f6; fill-opacity: 0.75"/>
    <path d="M 68.487708 40.331347 
L 69.882041 39.335297 
L 68.47089 38.316308 
L 67.076454 39.306234 
z
" clip-path="url(#pb1baf17a81)" style="fill: #bfd3f6; fill-opacity: 0.75"/>
    <path d="M 74.115979 40.329691 
L 75.494169 39.268709 
L 74.06556 38.31162 
L 72.687644 39.339331 
z
" clip-path="url(#pb1baf17a81)" style="fill: #c0d4f5; fill-opacity: 0.75"/>
    <path d="M 65.673581 40.308141 
L 67.076454 39.306234 
L 65.673581 38.292452 
L 64.2707 39.301811 
z
" clip-path="url(#pb1baf17a81)" style="fill: #c0d4f5; fill-opacity: 0.75"/>
    <path d="M 76.931928 40.20537 
L 78.30324 39.073867 
L 76.864734 38.18405 
L 75.494169 39.268709 
z
" clip-path="url(#pb1baf17a81)" style="fill: #c1d4f4; fill-opacity: 0.75"/>
    <path d="M 50.191123 43.424716 
L 51.63218 41.931872 
L 50.28335 41.374333 
L 48.846078 42.943781 
z
" clip-path="url(#pb1baf17a81)" style="fill: #9abbff; fill-opacity: 0.75"/>
    <path d="M 79.751499 39.932467 
L 81.117204 38.705264 
L 79.667537 37.907111 
L 78.30324 39.073867 
z
" clip-path="url(#pb1baf17a81)" style="fill: #c5d6f2; fill-opacity: 0.75"/>
    <path d="M 45.958475 46.361278 
L 47.404241 44.603531 
L 46.075992 44.292937 
L 44.6359 46.141871 
z
" clip-path="url(#pb1baf17a81)" style="fill: #7597f6; fill-opacity: 0.75"/>
    <path d="M 82.57741 39.461253 
L 83.939131 38.113275 
L 82.476664 37.431408 
L 81.117204 38.705264 
z
" clip-path="url(#pb1baf17a81)" style="fill: #ccd9ed; fill-opacity: 0.75"/>
    <path d="M 89.622803 36.059168 
L 90.979797 34.314511 
L 89.480173 34.045562 
L 88.128281 35.685265 
z
" clip-path="url(#pb1baf17a81)" style="fill: #ecd3c5; fill-opacity: 0.75"/>
    <path d="M 52.991865 42.561563 
L 54.429946 41.212243 
L 53.06757 40.518691 
L 51.63218 41.931872 
z
" clip-path="url(#pb1baf17a81)" style="fill: #a7c5fe; fill-opacity: 0.75"/>
    <path d="M 85.413111 38.741818 
L 86.772818 37.248028 
L 85.295532 36.707412 
L 83.939131 38.113275 
z
" clip-path="url(#pb1baf17a81)" style="fill: #d5dbe5; fill-opacity: 0.75"/>
    <path d="M 55.802407 41.968326 
L 57.235661 40.73829 
L 55.86143 39.931414 
L 54.429946 41.212243 
z
" clip-path="url(#pb1baf17a81)" style="fill: #b1cbfc; fill-opacity: 0.75"/>
    <path d="M 48.744942 45.005343 
L 50.191123 43.424716 
L 48.846078 42.943781 
L 47.404241 44.603531 
z
" clip-path="url(#pb1baf17a81)" style="fill: #8badfd; fill-opacity: 0.75"/>
    <path d="M 58.619344 41.597804 
L 60.046284 40.462184 
L 58.661572 39.565179 
L 57.235661 40.73829 
z
" clip-path="url(#pb1baf17a81)" style="fill: #b6cefa; fill-opacity: 0.75"/>
    <path d="M 61.43996 41.401721 
L 62.859469 40.335224 
L 61.46532 39.371651 
L 60.046284 40.462184 
z
" clip-path="url(#pb1baf17a81)" style="fill: #b9d0f9; fill-opacity: 0.75"/>
    <path d="M 72.729854 41.375785 
L 74.115979 40.329691 
L 72.687644 39.339331 
L 71.301661 40.355113 
z
" clip-path="url(#pb1baf17a81)" style="fill: #bad0f8; fill-opacity: 0.75"/>
    <path d="M 69.907389 41.367871 
L 71.301661 40.355113 
L 69.882041 39.335297 
L 68.487708 40.331347 
z
" clip-path="url(#pb1baf17a81)" style="fill: #bad0f8; fill-opacity: 0.75"/>
    <path d="M 67.084908 41.336357 
L 68.487708 40.331347 
L 67.076454 39.306234 
L 65.673581 40.308141 
z
" clip-path="url(#pb1baf17a81)" style="fill: #bad0f8; fill-opacity: 0.75"/>
    <path d="M 64.262245 41.331065 
L 65.673581 40.308141 
L 64.2707 39.301811 
L 62.859469 40.335224 
z
" clip-path="url(#pb1baf17a81)" style="fill: #bad0f8; fill-opacity: 0.75"/>
    <path d="M 75.553205 41.310268 
L 76.931928 40.20537 
L 75.494169 39.268709 
L 74.115979 40.329691 
z
" clip-path="url(#pb1baf17a81)" style="fill: #bbd1f8; fill-opacity: 0.75"/>
    <path d="M 78.379071 41.121509 
L 79.751499 39.932467 
L 78.30324 39.073867 
L 76.931928 40.20537 
z
" clip-path="url(#pb1baf17a81)" style="fill: #bed2f6; fill-opacity: 0.75"/>
    <path d="M 88.262791 37.723872 
L 89.622803 36.059168 
L 88.128281 35.685265 
L 86.772818 37.248028 
z
" clip-path="url(#pb1baf17a81)" style="fill: #e1dad6; fill-opacity: 0.75"/>
    <path d="M 81.209814 40.759672 
L 82.57741 39.461253 
L 81.117204 38.705264 
L 79.751499 39.932467 
z
" clip-path="url(#pb1baf17a81)" style="fill: #c3d5f4; fill-opacity: 0.75"/>
    <path d="M 51.547636 43.987834 
L 52.991865 42.561563 
L 51.63218 41.931872 
L 50.191123 43.424716 
z
" clip-path="url(#pb1baf17a81)" style="fill: #9bbcff; fill-opacity: 0.75"/>
    <path d="M 84.048531 40.174795 
L 85.413111 38.741818 
L 83.939131 38.113275 
L 82.57741 39.461253 
z
" clip-path="url(#pb1baf17a81)" style="fill: #cbd8ee; fill-opacity: 0.75"/>
    <path d="M 47.294247 46.681585 
L 48.744942 45.005343 
L 47.404241 44.603531 
L 45.958475 46.361278 
z
" clip-path="url(#pb1baf17a81)" style="fill: #7a9df8; fill-opacity: 0.75"/>
    <path d="M 54.362157 43.264001 
L 55.802407 41.968326 
L 54.429946 41.212243 
L 52.991865 42.561563 
z
" clip-path="url(#pb1baf17a81)" style="fill: #a6c4fe; fill-opacity: 0.75"/>
    <path d="M 57.184745 42.787402 
L 58.619344 41.597804 
L 57.235661 40.73829 
L 55.802407 41.968326 
z
" clip-path="url(#pb1baf17a81)" style="fill: #adc9fd; fill-opacity: 0.75"/>
    <path d="M 86.899059 39.316617 
L 88.262791 37.723872 
L 86.772818 37.248028 
L 85.413111 38.741818 
z
" clip-path="url(#pb1baf17a81)" style="fill: #d6dce4; fill-opacity: 0.75"/>
    <path d="M 60.012315 42.510305 
L 61.43996 41.401721 
L 60.046284 40.462184 
L 58.619344 41.597804 
z
" clip-path="url(#pb1baf17a81)" style="fill: #b2ccfb; fill-opacity: 0.75"/>
    <path d="M 71.335543 42.415888 
L 72.729854 41.375785 
L 71.301661 40.355113 
L 69.907389 41.367871 
z
" clip-path="url(#pb1baf17a81)" style="fill: #b3cdfb; fill-opacity: 0.75"/>
    <path d="M 62.842483 42.384054 
L 64.262245 41.331065 
L 62.859469 40.335224 
L 61.43996 41.401721 
z
" clip-path="url(#pb1baf17a81)" style="fill: #b3cdfb; fill-opacity: 0.75"/>
    <path d="M 68.50467 42.386594 
L 69.907389 41.367871 
L 68.487708 40.331347 
L 67.084908 41.336357 
z
" clip-path="url(#pb1baf17a81)" style="fill: #b3cdfb; fill-opacity: 0.75"/>
    <path d="M 74.16673 42.397341 
L 75.553205 41.310268 
L 74.115979 40.329691 
L 72.729854 41.375785 
z
" clip-path="url(#pb1baf17a81)" style="fill: #b3cdfb; fill-opacity: 0.75"/>
    <path d="M 65.673581 42.359368 
L 67.084908 41.336357 
L 65.673581 40.308141 
L 64.262245 41.331065 
z
" clip-path="url(#pb1baf17a81)" style="fill: #b3cdfb; fill-opacity: 0.75"/>
    <path d="M 76.999493 42.281033 
L 78.379071 41.121509 
L 76.931928 40.20537 
L 75.553205 41.310268 
z
" clip-path="url(#pb1baf17a81)" style="fill: #b6cefa; fill-opacity: 0.75"/>
    <path d="M 50.097772 45.499284 
L 51.547636 43.987834 
L 50.191123 43.424716 
L 48.744942 45.005343 
z
" clip-path="url(#pb1baf17a81)" style="fill: #8db0fe; fill-opacity: 0.75"/>
    <path d="M 79.835835 42.017026 
L 81.209814 40.759672 
L 79.751499 39.932467 
L 78.379071 41.121509 
z
" clip-path="url(#pb1baf17a81)" style="fill: #bad0f8; fill-opacity: 0.75"/>
    <path d="M 82.678494 41.555294 
L 84.048531 40.174795 
L 82.57741 39.461253 
L 81.209814 40.759672 
z
" clip-path="url(#pb1baf17a81)" style="fill: #c0d4f5; fill-opacity: 0.75"/>
    <path d="M 52.915325 44.633857 
L 54.362157 43.264001 
L 52.991865 42.561563 
L 51.547636 43.987834 
z
" clip-path="url(#pb1baf17a81)" style="fill: #9bbcff; fill-opacity: 0.75"/>
    <path d="M 85.530951 40.845585 
L 86.899059 39.316617 
L 85.413111 38.741818 
L 84.048531 40.174795 
z
" clip-path="url(#pb1baf17a81)" style="fill: #cad8ef; fill-opacity: 0.75"/>
    <path d="M 55.742798 44.039752 
L 57.184745 42.787402 
L 55.802407 41.968326 
L 54.362157 43.264001 
z
" clip-path="url(#pb1baf17a81)" style="fill: #a3c2fe; fill-opacity: 0.75"/>
    <path d="M 48.642851 47.103871 
L 50.097772 45.499284 
L 48.744942 45.005343 
L 47.294247 46.681585 
z
" clip-path="url(#pb1baf17a81)" style="fill: #7ea1fa; fill-opacity: 0.75"/>
    <path d="M 58.576743 43.669907 
L 60.012315 42.510305 
L 58.619344 41.597804 
L 57.184745 42.787402 
z
" clip-path="url(#pb1baf17a81)" style="fill: #aac7fd; fill-opacity: 0.75"/>
    <path d="M 61.414402 43.47613 
L 62.842483 42.384054 
L 61.43996 41.401721 
L 60.012315 42.510305 
z
" clip-path="url(#pb1baf17a81)" style="fill: #adc9fd; fill-opacity: 0.75"/>
    <path d="M 72.772219 43.47548 
L 74.16673 42.397341 
L 72.729854 41.375785 
L 71.335543 42.415888 
z
" clip-path="url(#pb1baf17a81)" style="fill: #adc9fd; fill-opacity: 0.75"/>
    <path d="M 69.932855 43.458983 
L 71.335543 42.415888 
L 69.907389 41.367871 
L 68.50467 42.386594 
z
" clip-path="url(#pb1baf17a81)" style="fill: #adc9fd; fill-opacity: 0.75"/>
    <path d="M 67.093411 43.42032 
L 68.50467 42.386594 
L 67.084908 41.336357 
L 65.673581 42.359368 
z
" clip-path="url(#pb1baf17a81)" style="fill: #aec9fc; fill-opacity: 0.75"/>
    <path d="M 64.253731 43.409436 
L 65.673581 42.359368 
L 64.262245 41.331065 
L 62.842483 42.384054 
z
" clip-path="url(#pb1baf17a81)" style="fill: #aec9fc; fill-opacity: 0.75"/>
    <path d="M 75.612395 43.419811 
L 76.999493 42.281033 
L 75.553205 41.310268 
L 74.16673 42.397341 
z
" clip-path="url(#pb1baf17a81)" style="fill: #aec9fc; fill-opacity: 0.75"/>
    <path d="M 78.455018 43.241953 
L 79.835835 42.017026 
L 78.379071 41.121509 
L 76.999493 42.281033 
z
" clip-path="url(#pb1baf17a81)" style="fill: #b1cbfc; fill-opacity: 0.75"/>
    <path d="M 81.302464 42.891814 
L 82.678494 41.555294 
L 81.209814 40.759672 
L 79.835835 42.017026 
z
" clip-path="url(#pb1baf17a81)" style="fill: #b6cefa; fill-opacity: 0.75"/>
    <path d="M 51.462393 46.086218 
L 52.915325 44.633857 
L 51.547636 43.987834 
L 50.097772 45.499284 
z
" clip-path="url(#pb1baf17a81)" style="fill: #8db0fe; fill-opacity: 0.75"/>
    <path d="M 84.157855 42.319131 
L 85.530951 40.845585 
L 84.048531 40.174795 
L 82.678494 41.555294 
z
" clip-path="url(#pb1baf17a81)" style="fill: #bfd3f6; fill-opacity: 0.75"/>
    <path d="M 54.293884 45.363467 
L 55.742798 44.039752 
L 54.362157 43.264001 
L 52.915325 44.633857 
z
" clip-path="url(#pb1baf17a81)" style="fill: #9abbff; fill-opacity: 0.75"/>
    <path d="M 57.133522 44.88935 
L 58.576743 43.669907 
L 57.184745 42.787402 
L 55.742798 44.039752 
z
" clip-path="url(#pb1baf17a81)" style="fill: #a1c0ff; fill-opacity: 0.75"/>
    <path d="M 59.978178 44.616257 
L 61.414402 43.47613 
L 60.012315 42.510305 
L 58.576743 43.669907 
z
" clip-path="url(#pb1baf17a81)" style="fill: #a5c3fe; fill-opacity: 0.75"/>
    <path d="M 71.36945 44.553658 
L 72.772219 43.47548 
L 71.335543 42.415888 
L 69.932855 43.458983 
z
" clip-path="url(#pb1baf17a81)" style="fill: #a6c4fe; fill-opacity: 0.75"/>
    <path d="M 74.217461 44.546728 
L 75.612395 43.419811 
L 74.16673 42.397341 
L 72.772219 43.47548 
z
" clip-path="url(#pb1baf17a81)" style="fill: #a6c4fe; fill-opacity: 0.75"/>
    <path d="M 68.521663 44.514106 
L 69.932855 43.458983 
L 68.50467 42.386594 
L 67.093411 43.42032 
z
" clip-path="url(#pb1baf17a81)" style="fill: #a7c5fe; fill-opacity: 0.75"/>
    <path d="M 62.825431 44.495599 
L 64.253731 43.409436 
L 62.842483 42.384054 
L 61.414402 43.47613 
z
" clip-path="url(#pb1baf17a81)" style="fill: #a7c5fe; fill-opacity: 0.75"/>
    <path d="M 65.673581 44.478111 
L 67.093411 43.42032 
L 65.673581 42.359368 
L 64.253731 43.409436 
z
" clip-path="url(#pb1baf17a81)" style="fill: #a7c5fe; fill-opacity: 0.75"/>
    <path d="M 77.06696 44.443225 
L 78.455018 43.241953 
L 76.999493 42.281033 
L 75.612395 43.419811 
z
" clip-path="url(#pb1baf17a81)" style="fill: #a9c6fd; fill-opacity: 0.75"/>
    <path d="M 50.003907 47.629149 
L 51.462393 46.086218 
L 50.097772 45.499284 
L 48.642851 47.103871 
z
" clip-path="url(#pb1baf17a81)" style="fill: #80a3fa; fill-opacity: 0.75"/>
    <path d="M 79.919956 44.192998 
L 81.302464 42.891814 
L 79.835835 42.017026 
L 78.455018 43.241953 
z
" clip-path="url(#pb1baf17a81)" style="fill: #adc9fd; fill-opacity: 0.75"/>
    <path d="M 82.779205 43.745764 
L 84.157855 42.319131 
L 82.678494 41.555294 
L 81.302464 42.891814 
z
" clip-path="url(#pb1baf17a81)" style="fill: #b3cdfb; fill-opacity: 0.75"/>
    <path d="M 52.838454 46.766953 
L 54.293884 45.363467 
L 52.915325 44.633857 
L 51.462393 46.086218 
z
" clip-path="url(#pb1baf17a81)" style="fill: #8db0fe; fill-opacity: 0.75"/>
    <path d="M 55.682999 46.177303 
L 57.133522 44.88935 
L 55.742798 44.039752 
L 54.293884 45.363467 
z
" clip-path="url(#pb1baf17a81)" style="fill: #97b8ff; fill-opacity: 0.75"/>
    <path d="M 58.534054 45.813294 
L 59.978178 44.616257 
L 58.576743 43.669907 
L 57.133522 44.88935 
z
" clip-path="url(#pb1baf17a81)" style="fill: #9dbdff; fill-opacity: 0.75"/>
    <path d="M 72.814439 45.670748 
L 74.217461 44.546728 
L 72.772219 43.47548 
L 71.36945 44.553658 
z
" clip-path="url(#pb1baf17a81)" style="fill: #9fbfff; fill-opacity: 0.75"/>
    <path d="M 61.38882 45.626841 
L 62.825431 44.495599 
L 61.414402 43.47613 
L 59.978178 44.616257 
z
" clip-path="url(#pb1baf17a81)" style="fill: #9fbfff; fill-opacity: 0.75"/>
    <path d="M 69.958263 45.640905 
L 71.36945 44.553658 
L 69.932855 43.458983 
L 68.521663 44.514106 
z
" clip-path="url(#pb1baf17a81)" style="fill: #9fbfff; fill-opacity: 0.75"/>
    <path d="M 75.671319 45.629716 
L 77.06696 44.443225 
L 75.612395 43.419811 
L 74.217461 44.546728 
z
" clip-path="url(#pb1baf17a81)" style="fill: #a1c0ff; fill-opacity: 0.75"/>
    <path d="M 67.101903 45.590317 
L 68.521663 44.514106 
L 67.093411 43.42032 
L 65.673581 44.478111 
z
" clip-path="url(#pb1baf17a81)" style="fill: #a1c0ff; fill-opacity: 0.75"/>
    <path d="M 64.24522 45.569014 
L 65.673581 44.478111 
L 64.253731 43.409436 
L 62.825431 44.495599 
z
" clip-path="url(#pb1baf17a81)" style="fill: #a1c0ff; fill-opacity: 0.75"/>
    <path d="M 78.530539 45.467612 
L 79.919956 44.192998 
L 78.455018 43.241953 
L 77.06696 44.443225 
z
" clip-path="url(#pb1baf17a81)" style="fill: #a3c2fe; fill-opacity: 0.75"/>
    <path d="M 81.394488 45.134132 
L 82.779205 43.745764 
L 81.302464 42.891814 
L 79.919956 44.192998 
z
" clip-path="url(#pb1baf17a81)" style="fill: #a9c6fd; fill-opacity: 0.75"/>
    <path d="M 51.37702 48.258369 
L 52.838454 46.766953 
L 51.462393 46.086218 
L 50.003907 47.629149 
z
" clip-path="url(#pb1baf17a81)" style="fill: #81a4fb; fill-opacity: 0.75"/>
    <path d="M 54.22559 47.542244 
L 55.682999 46.177303 
L 54.293884 45.363467 
L 52.838454 46.766953 
z
" clip-path="url(#pb1baf17a81)" style="fill: #8caffe; fill-opacity: 0.75"/>
    <path d="M 57.082342 47.075961 
L 58.534054 45.813294 
L 57.133522 44.88935 
L 55.682999 46.177303 
z
" clip-path="url(#pb1baf17a81)" style="fill: #93b5fe; fill-opacity: 0.75"/>
    <path d="M 59.944109 46.812053 
L 61.38882 45.626841 
L 59.978178 44.616257 
L 58.534054 45.813294 
z
" clip-path="url(#pb1baf17a81)" style="fill: #97b8ff; fill-opacity: 0.75"/>
    <path d="M 71.403137 46.800892 
L 72.814439 45.670748 
L 71.36945 44.553658 
L 69.958263 45.640905 
z
" clip-path="url(#pb1baf17a81)" style="fill: #98b9ff; fill-opacity: 0.75"/>
    <path d="M 74.267808 46.810383 
L 75.671319 45.629716 
L 74.217461 44.546728 
L 72.814439 45.670748 
z
" clip-path="url(#pb1baf17a81)" style="fill: #98b9ff; fill-opacity: 0.75"/>
    <path d="M 68.538564 46.746277 
L 69.958263 45.640905 
L 68.521663 44.514106 
L 67.101903 45.590317 
z
" clip-path="url(#pb1baf17a81)" style="fill: #98b9ff; fill-opacity: 0.75"/>
    <path d="M 62.808433 46.702027 
L 64.24522 45.569014 
L 62.825431 44.495599 
L 61.38882 45.626841 
z
" clip-path="url(#pb1baf17a81)" style="fill: #9abbff; fill-opacity: 0.75"/>
    <path d="M 65.673581 46.696665 
L 67.101903 45.590317 
L 65.673581 44.478111 
L 64.24522 45.569014 
z
" clip-path="url(#pb1baf17a81)" style="fill: #9abbff; fill-opacity: 0.75"/>
    <path d="M 77.133838 46.724527 
L 78.530539 45.467612 
L 77.06696 44.443225 
L 75.671319 45.629716 
z
" clip-path="url(#pb1baf17a81)" style="fill: #9abbff; fill-opacity: 0.75"/>
    <path d="M 80.003244 46.493003 
L 81.394488 45.134132 
L 79.919956 44.192998 
L 78.530539 45.467612 
z
" clip-path="url(#pb1baf17a81)" style="fill: #9ebeff; fill-opacity: 0.75"/>
    <path d="M 52.761777 48.99241 
L 54.22559 47.542244 
L 52.838454 46.766953 
L 51.37702 48.258369 
z
" clip-path="url(#pb1baf17a81)" style="fill: #80a3fa; fill-opacity: 0.75"/>
    <path d="M 55.623426 48.41279 
L 57.082342 47.075961 
L 55.682999 46.177303 
L 54.22559 47.542244 
z
" clip-path="url(#pb1baf17a81)" style="fill: #89acfd; fill-opacity: 0.75"/>
    <path d="M 58.491576 48.05999 
L 59.944109 46.812053 
L 58.534054 45.813294 
L 57.082342 47.075961 
z
" clip-path="url(#pb1baf17a81)" style="fill: #8fb1fe; fill-opacity: 0.75"/>
    <path d="M 72.856205 47.994235 
L 74.267808 46.810383 
L 72.814439 45.670748 
L 71.403137 46.800892 
z
" clip-path="url(#pb1baf17a81)" style="fill: #90b2fe; fill-opacity: 0.75"/>
    <path d="M 75.729539 47.97269 
L 77.133838 46.724527 
L 75.671319 45.629716 
L 74.267808 46.810383 
z
" clip-path="url(#pb1baf17a81)" style="fill: #90b2fe; fill-opacity: 0.75"/>
    <path d="M 69.983427 47.946207 
L 71.403137 46.800892 
L 69.958263 45.640905 
L 68.538564 46.746277 
z
" clip-path="url(#pb1baf17a81)" style="fill: #90b2fe; fill-opacity: 0.75"/>
    <path d="M 61.363396 47.88606 
L 62.808433 46.702027 
L 61.38882 45.626841 
L 59.944109 46.812053 
z
" clip-path="url(#pb1baf17a81)" style="fill: #92b4fe; fill-opacity: 0.75"/>
    <path d="M 67.110323 47.87882 
L 68.538564 46.746277 
L 67.101903 45.590317 
L 65.673581 46.696665 
z
" clip-path="url(#pb1baf17a81)" style="fill: #92b4fe; fill-opacity: 0.75"/>
    <path d="M 64.23677 47.842155 
L 65.673581 46.696665 
L 64.24522 45.569014 
L 62.808433 46.702027 
z
" clip-path="url(#pb1baf17a81)" style="fill: #92b4fe; fill-opacity: 0.75"/>
    <path d="M 78.605067 47.831245 
L 80.003244 46.493003 
L 78.530539 45.467612 
L 77.133838 46.724527 
z
" clip-path="url(#pb1baf17a81)" style="fill: #93b5fe; fill-opacity: 0.75"/>
    <path d="M 54.157754 49.832085 
L 55.623426 48.41279 
L 54.22559 47.542244 
L 52.761777 48.99241 
z
" clip-path="url(#pb1baf17a81)" style="fill: #7da0f9; fill-opacity: 0.75"/>
    <path d="M 57.03157 49.379229 
L 58.491576 48.05999 
L 57.082342 47.075961 
L 55.623426 48.41279 
z
" clip-path="url(#pb1baf17a81)" style="fill: #84a7fc; fill-opacity: 0.75"/>
    <path d="M 74.317387 49.221101 
L 75.729539 47.97269 
L 74.267808 46.810383 
L 72.856205 47.994235 
z
" clip-path="url(#pb1baf17a81)" style="fill: #88abfd; fill-opacity: 0.75"/>
    <path d="M 71.436351 49.190311 
L 72.856205 47.994235 
L 71.403137 46.800892 
L 69.983427 47.946207 
z
" clip-path="url(#pb1baf17a81)" style="fill: #88abfd; fill-opacity: 0.75"/>
    <path d="M 59.910354 49.129894 
L 61.363396 47.88606 
L 59.944109 46.812053 
L 58.491576 48.05999 
z
" clip-path="url(#pb1baf17a81)" style="fill: #88abfd; fill-opacity: 0.75"/>
    <path d="M 68.555248 49.115733 
L 69.983427 47.946207 
L 68.538564 46.746277 
L 67.110323 47.87882 
z
" clip-path="url(#pb1baf17a81)" style="fill: #89acfd; fill-opacity: 0.75"/>
    <path d="M 77.199614 49.157797 
L 78.605067 47.831245 
L 77.133838 46.724527 
L 75.729539 47.97269 
z
" clip-path="url(#pb1baf17a81)" style="fill: #89acfd; fill-opacity: 0.75"/>
    <path d="M 62.791611 49.03571 
L 64.23677 47.842155 
L 62.808433 46.702027 
L 61.363396 47.88606 
z
" clip-path="url(#pb1baf17a81)" style="fill: #8badfd; fill-opacity: 0.75"/>
    <path d="M 65.673581 49.047541 
L 67.110323 47.87882 
L 65.673581 46.696665 
L 64.23677 47.842155 
z
" clip-path="url(#pb1baf17a81)" style="fill: #8badfd; fill-opacity: 0.75"/>
    <path d="M 55.564508 50.778128 
L 57.03157 49.379229 
L 55.623426 48.41279 
L 54.157754 49.832085 
z
" clip-path="url(#pb1baf17a81)" style="fill: #799cf8; fill-opacity: 0.75"/>
    <path d="M 58.449622 50.442142 
L 59.910354 49.129894 
L 58.491576 48.05999 
L 57.03157 49.379229 
z
" clip-path="url(#pb1baf17a81)" style="fill: #7ea1fa; fill-opacity: 0.75"/>
    <path d="M 72.897192 50.478784 
L 74.317387 49.221101 
L 72.856205 47.994235 
L 71.436351 49.190311 
z
" clip-path="url(#pb1baf17a81)" style="fill: #80a3fa; fill-opacity: 0.75"/>
    <path d="M 75.786598 50.481648 
L 77.199614 49.157797 
L 75.729539 47.97269 
L 74.317387 49.221101 
z
" clip-path="url(#pb1baf17a81)" style="fill: #80a3fa; fill-opacity: 0.75"/>
    <path d="M 70.008153 50.40764 
L 71.436351 49.190311 
L 69.983427 47.946207 
L 68.555248 49.115733 
z
" clip-path="url(#pb1baf17a81)" style="fill: #80a3fa; fill-opacity: 0.75"/>
    <path d="M 67.118608 50.318473 
L 68.555248 49.115733 
L 67.110323 47.87882 
L 65.673581 49.047541 
z
" clip-path="url(#pb1baf17a81)" style="fill: #81a4fb; fill-opacity: 0.75"/>
    <path d="M 61.338316 50.286129 
L 62.791611 49.03571 
L 61.363396 47.88606 
L 59.910354 49.129894 
z
" clip-path="url(#pb1baf17a81)" style="fill: #81a4fb; fill-opacity: 0.75"/>
    <path d="M 64.228446 50.261366 
L 65.673581 49.047541 
L 64.23677 47.842155 
L 62.791611 49.03571 
z
" clip-path="url(#pb1baf17a81)" style="fill: #82a6fb; fill-opacity: 0.75"/>
    <path d="M 56.981585 51.831205 
L 58.449622 50.442142 
L 57.03157 49.379229 
L 55.564508 50.778128 
z
" clip-path="url(#pb1baf17a81)" style="fill: #7396f5; fill-opacity: 0.75"/>
    <path d="M 74.3658 51.81181 
L 75.786598 50.481648 
L 74.317387 49.221101 
L 72.897192 50.478784 
z
" clip-path="url(#pb1baf17a81)" style="fill: #7699f6; fill-opacity: 0.75"/>
    <path d="M 71.468829 51.754757 
L 72.897192 50.478784 
L 71.436351 49.190311 
L 70.008153 50.40764 
z
" clip-path="url(#pb1baf17a81)" style="fill: #7699f6; fill-opacity: 0.75"/>
    <path d="M 68.571585 51.655213 
L 70.008153 50.40764 
L 68.555248 49.115733 
L 67.118608 50.318473 
z
" clip-path="url(#pb1baf17a81)" style="fill: #779af7; fill-opacity: 0.75"/>
    <path d="M 59.877167 51.602049 
L 61.338316 50.286129 
L 59.910354 49.129894 
L 58.449622 50.442142 
z
" clip-path="url(#pb1baf17a81)" style="fill: #779af7; fill-opacity: 0.75"/>
    <path d="M 65.673581 51.563349 
L 67.118608 50.318473 
L 65.673581 49.047541 
L 64.228446 50.261366 
z
" clip-path="url(#pb1baf17a81)" style="fill: #799cf8; fill-opacity: 0.75"/>
    <path d="M 62.775096 51.529103 
L 64.228446 50.261366 
L 62.791611 49.03571 
L 61.338316 50.286129 
z
" clip-path="url(#pb1baf17a81)" style="fill: #799cf8; fill-opacity: 0.75"/>
    <path d="M 72.937063 53.157282 
L 74.3658 51.81181 
L 72.897192 50.478784 
L 71.468829 51.754757 
z
" clip-path="url(#pb1baf17a81)" style="fill: #6c8ff1; fill-opacity: 0.75"/>
    <path d="M 70.032241 53.057995 
L 71.468829 51.754757 
L 70.008153 50.40764 
L 68.571585 51.655213 
z
" clip-path="url(#pb1baf17a81)" style="fill: #6c8ff1; fill-opacity: 0.75"/>
    <path d="M 58.408514 52.991898 
L 59.877167 51.602049 
L 58.449622 50.442142 
L 56.981585 51.831205 
z
" clip-path="url(#pb1baf17a81)" style="fill: #6c8ff1; fill-opacity: 0.75"/>
    <path d="M 67.12669 52.941946 
L 68.571585 51.655213 
L 67.118608 50.318473 
L 65.673581 51.563349 
z
" clip-path="url(#pb1baf17a81)" style="fill: #6f92f3; fill-opacity: 0.75"/>
    <path d="M 61.313778 52.859403 
L 62.775096 51.529103 
L 61.338316 50.286129 
L 59.877167 51.602049 
z
" clip-path="url(#pb1baf17a81)" style="fill: #6f92f3; fill-opacity: 0.75"/>
    <path d="M 64.220313 52.859172 
L 65.673581 51.563349 
L 64.228446 50.261366 
L 62.775096 51.529103 
z
" clip-path="url(#pb1baf17a81)" style="fill: #6f92f3; fill-opacity: 0.75"/>
    <path d="M 71.500298 54.527025 
L 72.937063 53.157282 
L 71.468829 51.754757 
L 70.032241 53.057995 
z
" clip-path="url(#pb1baf17a81)" style="fill: #6282ea; fill-opacity: 0.75"/>
    <path d="M 68.587439 54.397401 
L 70.032241 53.057995 
L 68.571585 51.655213 
L 67.12669 52.941946 
z
" clip-path="url(#pb1baf17a81)" style="fill: #6384eb; fill-opacity: 0.75"/>
    <path d="M 59.844812 54.260716 
L 61.313778 52.859403 
L 59.877167 51.602049 
L 58.408514 52.991898 
z
" clip-path="url(#pb1baf17a81)" style="fill: #6485ec; fill-opacity: 0.75"/>
    <path d="M 65.673581 54.276642 
L 67.12669 52.941946 
L 65.673581 51.563349 
L 64.220313 52.859172 
z
" clip-path="url(#pb1baf17a81)" style="fill: #6687ed; fill-opacity: 0.75"/>
    <path d="M 62.759019 54.214596 
L 64.220313 52.859172 
L 62.775096 51.529103 
L 61.313778 52.859403 
z
" clip-path="url(#pb1baf17a81)" style="fill: #6687ed; fill-opacity: 0.75"/>
    <path d="M 70.055485 55.929922 
L 71.500298 54.527025 
L 70.032241 53.057995 
L 68.587439 54.397401 
z
" clip-path="url(#pb1baf17a81)" style="fill: #5977e3; fill-opacity: 0.75"/>
    <path d="M 67.134502 55.781766 
L 68.587439 54.397401 
L 67.12669 52.941946 
L 65.673581 54.276642 
z
" clip-path="url(#pb1baf17a81)" style="fill: #5a78e4; fill-opacity: 0.75"/>
    <path d="M 64.21244 55.667953 
L 65.673581 54.276642 
L 64.220313 52.859172 
L 62.759019 54.214596 
z
" clip-path="url(#pb1baf17a81)" style="fill: #5b7ae5; fill-opacity: 0.75"/>
    <path d="M 61.289984 55.638082 
L 62.759019 54.214596 
L 61.313778 52.859403 
L 59.844812 54.260716 
z
" clip-path="url(#pb1baf17a81)" style="fill: #5b7ae5; fill-opacity: 0.75"/>
    <path d="M 68.60267 57.374745 
L 70.055485 55.929922 
L 68.587439 54.397401 
L 67.134502 55.781766 
z
" clip-path="url(#pb1baf17a81)" style="fill: #4f69d9; fill-opacity: 0.75"/>
    <path d="M 65.673581 57.219731 
L 67.134502 55.781766 
L 65.673581 54.276642 
L 64.21244 55.667953 
z
" clip-path="url(#pb1baf17a81)" style="fill: #506bda; fill-opacity: 0.75"/>
    <path d="M 62.743519 57.124339 
L 64.21244 55.667953 
L 62.759019 54.214596 
L 61.289984 55.638082 
z
" clip-path="url(#pb1baf17a81)" style="fill: #516ddb; fill-opacity: 0.75"/>
    <path d="M 67.141973 58.870119 
L 68.60267 57.374745 
L 67.134502 55.781766 
L 65.673581 57.219731 
z
" clip-path="url(#pb1baf17a81)" style="fill: #445acc; fill-opacity: 0.75"/>
    <path d="M 64.204895 58.719747 
L 65.673581 57.219731 
L 64.21244 55.667953 
L 62.743519 57.124339 
z
" clip-path="url(#pb1baf17a81)" style="fill: #465ecf; fill-opacity: 0.75"/>
    <path d="M 65.673581 60.424475 
L 67.141973 58.870119 
L 65.673581 57.219731 
L 64.204895 58.719747 
z
" clip-path="url(#pb1baf17a81)" style="fill: #3b4cc0; fill-opacity: 0.75"/>
   </g>
  </g>
 </g>
 <defs>
  <clipPath id="pb1baf17a81">
   <rect x="31.332936" y="3.00024" width="66.873888" height="66.873888"/>
  </clipPath>
 </defs>
</svg>
