<?xml version="1.0" encoding="utf-8" standalone="no"?>
<!DOCTYPE svg PUBLIC "-//W3C//DTD SVG 1.1//EN"
  "http://www.w3.org/Graphics/SVG/1.1/DTD/svg11.dtd">
<svg xmlns:xlink="http://www.w3.org/1999/xlink" width="388.61928pt" height="218.623104pt" viewBox="0 0 388.61928 218.623104" xmlns="http://www.w3.org/2000/svg" version="1.1">
 <metadata>
  <rdf:RDF xmlns:dc="http://purl.org/dc/elements/1.1/" xmlns:cc="http://creativecommons.org/ns#" xmlns:rdf="http://www.w3.org/1999/02/22-rdf-syntax-ns#">
   <cc:Work>
    <dc:type rdf:resource="http://purl.org/dc/dcmitype/StillImage"/>
    <dc:date>2024-12-09T17:34:01.518260</dc:date>
    <dc:format>image/svg+xml</dc:format>
    <dc:creator>
     <cc:Agent>
      <dc:title>Matplotlib v3.8.2, https://matplotlib.org/</dc:title>
     </cc:Agent>
    </dc:creator>
   </cc:Work>
  </rdf:RDF>
 </metadata>
 <defs>
  <style type="text/css">*{stroke-linejoin: round; stroke-linecap: butt}</style>
 </defs>
 <g id="figure_1">
  <g id="patch_1">
   <path d="M 0 218.623104 
L 388.61928 218.623104 
L 388.61928 0 
L 0 0 
z
" style="fill: #ffffff"/>
  </g>
  <g id="axes_1">
   <g id="patch_2">
    <path d="M 41.22 91.641552 
L 188.90964 91.641552 
L 188.90964 10.8 
L 41.22 10.8 
z
" style="fill: #ffffff"/>
   </g>
   <g id="matplotlib.axis_1">
    <g id="xtick_1">
     <g id="line2d_1"/>
    </g>
    <g id="xtick_2">
     <g id="line2d_2"/>
    </g>
    <g id="xtick_3">
     <g id="line2d_3"/>
    </g>
    <g id="xtick_4">
     <g id="line2d_4"/>
    </g>
    <g id="xtick_5">
     <g id="line2d_5"/>
    </g>
    <g id="xtick_6">
     <g id="line2d_6"/>
    </g>
    <g id="xtick_7">
     <g id="line2d_7"/>
    </g>
   </g>
   <g id="matplotlib.axis_2">
    <g id="ytick_1">
     <g id="line2d_8"/>
     <g id="text_1">
      <!-- 0.0 -->
      <g style="fill: #262626" transform="translate(26.587812 94.301005) scale(0.07 -0.07)">
       <defs>
        <path id="DejaVuSerif-30" d="M 2034 219 
Q 2513 219 2750 744 
Q 2988 1269 2988 2328 
Q 2988 3391 2750 3916 
Q 2513 4441 2034 4441 
Q 1556 4441 1318 3916 
Q 1081 3391 1081 2328 
Q 1081 1269 1318 744 
Q 1556 219 2034 219 
z
M 2034 -91 
Q 1275 -91 848 546 
Q 422 1184 422 2328 
Q 422 3475 848 4112 
Q 1275 4750 2034 4750 
Q 2797 4750 3222 4112 
Q 3647 3475 3647 2328 
Q 3647 1184 3222 546 
Q 2797 -91 2034 -91 
z
" transform="scale(0.015625)"/>
        <path id="DejaVuSerif-2e" d="M 603 325 
Q 603 500 722 622 
Q 841 744 1019 744 
Q 1191 744 1312 622 
Q 1434 500 1434 325 
Q 1434 153 1312 31 
Q 1191 -91 1019 -91 
Q 841 -91 722 29 
Q 603 150 603 325 
z
" transform="scale(0.015625)"/>
       </defs>
       <use xlink:href="#DejaVuSerif-30"/>
       <use xlink:href="#DejaVuSerif-2e" x="63.623047"/>
       <use xlink:href="#DejaVuSerif-30" x="95.410156"/>
      </g>
     </g>
    </g>
    <g id="ytick_2">
     <g id="line2d_9"/>
     <g id="text_2">
      <!-- 0.2 -->
      <g style="fill: #262626" transform="translate(26.587812 77.36313) scale(0.07 -0.07)">
       <defs>
        <path id="DejaVuSerif-32" d="M 819 3553 
L 469 3553 
L 469 4384 
Q 803 4563 1142 4656 
Q 1481 4750 1806 4750 
Q 2534 4750 2956 4397 
Q 3378 4044 3378 3438 
Q 3378 2753 2422 1800 
Q 2347 1728 2309 1691 
L 1131 513 
L 3078 513 
L 3078 1088 
L 3444 1088 
L 3444 0 
L 434 0 
L 434 341 
L 1850 1753 
Q 2319 2222 2519 2614 
Q 2719 3006 2719 3438 
Q 2719 3909 2473 4175 
Q 2228 4441 1797 4441 
Q 1350 4441 1106 4219 
Q 863 3997 819 3553 
z
" transform="scale(0.015625)"/>
       </defs>
       <use xlink:href="#DejaVuSerif-30"/>
       <use xlink:href="#DejaVuSerif-2e" x="63.623047"/>
       <use xlink:href="#DejaVuSerif-32" x="95.410156"/>
      </g>
     </g>
    </g>
    <g id="ytick_3">
     <g id="line2d_10"/>
     <g id="text_3">
      <!-- 0.4 -->
      <g style="fill: #262626" transform="translate(26.587812 60.425254) scale(0.07 -0.07)">
       <defs>
        <path id="DejaVuSerif-34" d="M 2234 1581 
L 2234 4063 
L 641 1581 
L 2234 1581 
z
M 3609 0 
L 1484 0 
L 1484 331 
L 2234 331 
L 2234 1247 
L 197 1247 
L 197 1588 
L 2241 4750 
L 2859 4750 
L 2859 1581 
L 3750 1581 
L 3750 1247 
L 2859 1247 
L 2859 331 
L 3609 331 
L 3609 0 
z
" transform="scale(0.015625)"/>
       </defs>
       <use xlink:href="#DejaVuSerif-30"/>
       <use xlink:href="#DejaVuSerif-2e" x="63.623047"/>
       <use xlink:href="#DejaVuSerif-34" x="95.410156"/>
      </g>
     </g>
    </g>
    <g id="ytick_4">
     <g id="line2d_11"/>
     <g id="text_4">
      <!-- 0.6 -->
      <g style="fill: #262626" transform="translate(26.587812 43.487378) scale(0.07 -0.07)">
       <defs>
        <path id="DejaVuSerif-36" d="M 2094 219 
Q 2534 219 2771 542 
Q 3009 866 3009 1472 
Q 3009 2078 2771 2401 
Q 2534 2725 2094 2725 
Q 1647 2725 1412 2412 
Q 1178 2100 1178 1509 
Q 1178 888 1415 553 
Q 1653 219 2094 219 
z
M 1075 2569 
Q 1288 2803 1556 2918 
Q 1825 3034 2163 3034 
Q 2859 3034 3264 2615 
Q 3669 2197 3669 1472 
Q 3669 763 3233 336 
Q 2797 -91 2069 -91 
Q 1278 -91 853 498 
Q 428 1088 428 2181 
Q 428 3406 931 4078 
Q 1434 4750 2350 4750 
Q 2597 4750 2869 4703 
Q 3141 4656 3425 4563 
L 3425 3794 
L 3072 3794 
Q 3034 4109 2831 4275 
Q 2628 4441 2284 4441 
Q 1678 4441 1381 3981 
Q 1084 3522 1075 2569 
z
" transform="scale(0.015625)"/>
       </defs>
       <use xlink:href="#DejaVuSerif-30"/>
       <use xlink:href="#DejaVuSerif-2e" x="63.623047"/>
       <use xlink:href="#DejaVuSerif-36" x="95.410156"/>
      </g>
     </g>
    </g>
    <g id="ytick_5">
     <g id="line2d_12"/>
     <g id="text_5">
      <!-- 0.8 -->
      <g style="fill: #262626" transform="translate(26.587812 26.549503) scale(0.07 -0.07)">
       <defs>
        <path id="DejaVuSerif-38" d="M 2981 1275 
Q 2981 1775 2732 2051 
Q 2484 2328 2034 2328 
Q 1584 2328 1336 2051 
Q 1088 1775 1088 1275 
Q 1088 772 1336 495 
Q 1584 219 2034 219 
Q 2484 219 2732 495 
Q 2981 772 2981 1275 
z
M 2853 3541 
Q 2853 3966 2637 4203 
Q 2422 4441 2034 4441 
Q 1650 4441 1433 4203 
Q 1216 3966 1216 3541 
Q 1216 3113 1433 2875 
Q 1650 2638 2034 2638 
Q 2422 2638 2637 2875 
Q 2853 3113 2853 3541 
z
M 2516 2484 
Q 3047 2413 3344 2092 
Q 3641 1772 3641 1275 
Q 3641 619 3225 264 
Q 2809 -91 2034 -91 
Q 1263 -91 845 264 
Q 428 619 428 1275 
Q 428 1772 725 2092 
Q 1022 2413 1556 2484 
Q 1084 2569 832 2842 
Q 581 3116 581 3541 
Q 581 4103 968 4426 
Q 1356 4750 2034 4750 
Q 2713 4750 3100 4426 
Q 3488 4103 3488 3541 
Q 3488 3116 3236 2842 
Q 2984 2569 2516 2484 
z
" transform="scale(0.015625)"/>
       </defs>
       <use xlink:href="#DejaVuSerif-30"/>
       <use xlink:href="#DejaVuSerif-2e" x="63.623047"/>
       <use xlink:href="#DejaVuSerif-38" x="95.410156"/>
      </g>
     </g>
    </g>
    <g id="text_6">
     <!-- $V$ [m/s] -->
     <g style="fill: #262626" transform="translate(21.34 61.990776) rotate(-90) scale(0.06 -0.06)">
      <defs>
       <path id="DejaVuSans-Oblique-56" d="M 1319 0 
L 500 4666 
L 1119 4666 
L 1797 653 
L 4063 4666 
L 4750 4666 
L 2053 0 
L 1319 0 
z
" transform="scale(0.015625)"/>
       <path id="DejaVuSerif-20" transform="scale(0.015625)"/>
       <path id="DejaVuSerif-5b" d="M 550 4863 
L 2003 4863 
L 2003 4531 
L 1147 4531 
L 1147 -513 
L 2003 -513 
L 2003 -844 
L 550 -844 
L 550 4863 
z
" transform="scale(0.015625)"/>
       <path id="DejaVuSerif-6d" d="M 3316 2675 
Q 3481 3041 3739 3227 
Q 3997 3413 4341 3413 
Q 4863 3413 5119 3089 
Q 5375 2766 5375 2113 
L 5375 331 
L 5894 331 
L 5894 0 
L 4300 0 
L 4300 331 
L 4800 331 
L 4800 2047 
Q 4800 2556 4650 2772 
Q 4500 2988 4153 2988 
Q 3769 2988 3567 2697 
Q 3366 2406 3366 1850 
L 3366 331 
L 3866 331 
L 3866 0 
L 2291 0 
L 2291 331 
L 2791 331 
L 2791 2069 
Q 2791 2566 2641 2777 
Q 2491 2988 2144 2988 
Q 1759 2988 1557 2697 
Q 1356 2406 1356 1850 
L 1356 331 
L 1856 331 
L 1856 0 
L 263 0 
L 263 331 
L 781 331 
L 781 2994 
L 231 2994 
L 231 3322 
L 1356 3322 
L 1356 2731 
Q 1516 3063 1762 3238 
Q 2009 3413 2322 3413 
Q 2709 3413 2968 3220 
Q 3228 3028 3316 2675 
z
" transform="scale(0.015625)"/>
       <path id="DejaVuSerif-2f" d="M 1656 4666 
L 2156 4666 
L 500 -594 
L 0 -594 
L 1656 4666 
z
" transform="scale(0.015625)"/>
       <path id="DejaVuSerif-73" d="M 359 184 
L 359 959 
L 691 959 
Q 703 588 923 403 
Q 1144 219 1575 219 
Q 1963 219 2166 364 
Q 2369 509 2369 788 
Q 2369 1006 2220 1140 
Q 2072 1275 1594 1428 
L 1178 1569 
Q 750 1706 558 1912 
Q 366 2119 366 2438 
Q 366 2894 700 3153 
Q 1034 3413 1625 3413 
Q 1888 3413 2178 3344 
Q 2469 3275 2778 3144 
L 2778 2419 
L 2447 2419 
Q 2434 2741 2221 2922 
Q 2009 3103 1644 3103 
Q 1281 3103 1095 2975 
Q 909 2847 909 2591 
Q 909 2381 1050 2254 
Q 1191 2128 1613 1997 
L 2069 1856 
Q 2541 1709 2748 1489 
Q 2956 1269 2956 922 
Q 2956 450 2595 179 
Q 2234 -91 1600 -91 
Q 1278 -91 972 -22 
Q 666 47 359 184 
z
" transform="scale(0.015625)"/>
       <path id="DejaVuSerif-5d" d="M 1947 4863 
L 1947 -844 
L 494 -844 
L 494 -513 
L 1350 -513 
L 1350 4531 
L 494 4531 
L 494 4863 
L 1947 4863 
z
" transform="scale(0.015625)"/>
      </defs>
      <use xlink:href="#DejaVuSans-Oblique-56" transform="translate(0 0.015625)"/>
      <use xlink:href="#DejaVuSerif-20" transform="translate(68.408203 0.015625)"/>
      <use xlink:href="#DejaVuSerif-5b" transform="translate(100.195312 0.015625)"/>
      <use xlink:href="#DejaVuSerif-6d" transform="translate(139.208984 0.015625)"/>
      <use xlink:href="#DejaVuSerif-2f" transform="translate(234.033203 0.015625)"/>
      <use xlink:href="#DejaVuSerif-73" transform="translate(267.724609 0.015625)"/>
      <use xlink:href="#DejaVuSerif-5d" transform="translate(319.042969 0.015625)"/>
     </g>
    </g>
   </g>
   <g id="line2d_13">
    <path d="M 47.933165 11.093682 
L 51.935941 11.19244 
L 63.177778 11.795485 
L 70.203927 12.313348 
L 78.763053 13.171231 
L 81.573512 13.43759 
L 86.087281 13.599597 
L 105.845662 14.083855 
L 112.786645 14.44356 
L 126.96669 15.517844 
L 132.374695 16.083757 
L 135.483233 16.39601 
L 139.315678 16.530387 
L 144.936597 16.492303 
L 159.414721 16.12585 
L 164.822726 16.208132 
L 177.767872 16.723034 
L 182.196475 16.964913 
L 182.196475 16.964913 
" clip-path="url(#pfc6acd1170)" style="fill: none; stroke: #0000ff; stroke-width: 0.4; stroke-linecap: round"/>
   </g>
   <g id="patch_3">
    <path d="M 41.22 91.641552 
L 41.22 10.8 
" style="fill: none; stroke: #000000; stroke-linejoin: miter; stroke-linecap: square"/>
   </g>
   <g id="patch_4">
    <path d="M 41.22 91.641552 
L 188.90964 91.641552 
" style="fill: none; stroke: #000000; stroke-linejoin: miter; stroke-linecap: square"/>
   </g>
   <g id="legend_1">
    <g id="line2d_14">
     <path d="M 47.52 71.161083 
L 54.52 71.161083 
L 61.52 71.161083 
" style="fill: none; stroke: #000000; stroke-width: 0.7; stroke-linecap: round"/>
    </g>
    <g id="text_7">
     <!-- experiment -->
     <g style="fill: #262626" transform="translate(67.12 73.611083) scale(0.07 -0.07)">
      <defs>
       <path id="DejaVuSerif-65" d="M 3469 1600 
L 991 1600 
L 991 1575 
Q 991 903 1244 561 
Q 1497 219 1991 219 
Q 2369 219 2611 417 
Q 2853 616 2950 1006 
L 3413 1006 
Q 3275 459 2904 184 
Q 2534 -91 1931 -91 
Q 1203 -91 761 389 
Q 319 869 319 1663 
Q 319 2450 753 2931 
Q 1188 3413 1894 3413 
Q 2647 3413 3050 2948 
Q 3453 2484 3469 1600 
z
M 2791 1931 
Q 2772 2513 2545 2808 
Q 2319 3103 1894 3103 
Q 1497 3103 1269 2806 
Q 1041 2509 991 1931 
L 2791 1931 
z
" transform="scale(0.015625)"/>
       <path id="DejaVuSerif-78" d="M 1863 2028 
L 2559 2988 
L 2113 2988 
L 2113 3322 
L 3391 3322 
L 3391 2988 
L 2950 2988 
L 2059 1759 
L 3097 331 
L 3531 331 
L 3531 0 
L 1997 0 
L 1997 331 
L 2419 331 
L 1697 1325 
L 972 331 
L 1403 331 
L 1403 0 
L 141 0 
L 141 331 
L 581 331 
L 1497 1594 
L 488 2988 
L 78 2988 
L 78 3322 
L 1563 3322 
L 1563 2988 
L 1166 2988 
L 1863 2028 
z
" transform="scale(0.015625)"/>
       <path id="DejaVuSerif-70" d="M 1313 1825 
L 1313 1497 
Q 1313 897 1542 583 
Q 1772 269 2209 269 
Q 2650 269 2876 622 
Q 3103 975 3103 1663 
Q 3103 2353 2876 2703 
Q 2650 3053 2209 3053 
Q 1772 3053 1542 2737 
Q 1313 2422 1313 1825 
z
M 738 2988 
L 184 2988 
L 184 3322 
L 1313 3322 
L 1313 2803 
Q 1481 3116 1742 3264 
Q 2003 3413 2388 3413 
Q 3000 3413 3387 2928 
Q 3775 2444 3775 1663 
Q 3775 881 3387 395 
Q 3000 -91 2388 -91 
Q 2003 -91 1742 57 
Q 1481 206 1313 519 
L 1313 -997 
L 1856 -997 
L 1856 -1331 
L 184 -1331 
L 184 -997 
L 738 -997 
L 738 2988 
z
" transform="scale(0.015625)"/>
       <path id="DejaVuSerif-72" d="M 3059 3328 
L 3059 2497 
L 2728 2497 
Q 2713 2744 2591 2866 
Q 2469 2988 2234 2988 
Q 1809 2988 1582 2694 
Q 1356 2400 1356 1850 
L 1356 331 
L 2022 331 
L 2022 0 
L 263 0 
L 263 331 
L 781 331 
L 781 2994 
L 231 2994 
L 231 3322 
L 1356 3322 
L 1356 2731 
Q 1525 3078 1790 3245 
Q 2056 3413 2438 3413 
Q 2578 3413 2733 3391 
Q 2888 3369 3059 3328 
z
" transform="scale(0.015625)"/>
       <path id="DejaVuSerif-69" d="M 622 4353 
Q 622 4497 726 4603 
Q 831 4709 978 4709 
Q 1122 4709 1226 4603 
Q 1331 4497 1331 4353 
Q 1331 4206 1228 4103 
Q 1125 4000 978 4000 
Q 831 4000 726 4103 
Q 622 4206 622 4353 
z
M 1356 331 
L 1900 331 
L 1900 0 
L 231 0 
L 231 331 
L 781 331 
L 781 2988 
L 231 2988 
L 231 3322 
L 1356 3322 
L 1356 331 
z
" transform="scale(0.015625)"/>
       <path id="DejaVuSerif-6e" d="M 263 0 
L 263 331 
L 781 331 
L 781 2988 
L 231 2988 
L 231 3322 
L 1356 3322 
L 1356 2731 
Q 1516 3069 1770 3241 
Q 2025 3413 2363 3413 
Q 2913 3413 3172 3097 
Q 3431 2781 3431 2113 
L 3431 331 
L 3944 331 
L 3944 0 
L 2356 0 
L 2356 331 
L 2853 331 
L 2853 1931 
Q 2853 2541 2703 2767 
Q 2553 2994 2175 2994 
Q 1775 2994 1565 2701 
Q 1356 2409 1356 1850 
L 1356 331 
L 1856 331 
L 1856 0 
L 263 0 
z
" transform="scale(0.015625)"/>
       <path id="DejaVuSerif-74" d="M 691 2988 
L 184 2988 
L 184 3322 
L 691 3322 
L 691 4353 
L 1269 4353 
L 1269 3322 
L 2350 3322 
L 2350 2988 
L 1269 2988 
L 1269 878 
Q 1269 456 1350 337 
Q 1431 219 1650 219 
Q 1875 219 1978 351 
Q 2081 484 2088 781 
L 2522 781 
Q 2497 328 2275 118 
Q 2053 -91 1600 -91 
Q 1103 -91 897 129 
Q 691 350 691 878 
L 691 2988 
z
" transform="scale(0.015625)"/>
      </defs>
      <use xlink:href="#DejaVuSerif-65"/>
      <use xlink:href="#DejaVuSerif-78" x="59.179688"/>
      <use xlink:href="#DejaVuSerif-70" x="115.576172"/>
      <use xlink:href="#DejaVuSerif-65" x="179.589844"/>
      <use xlink:href="#DejaVuSerif-72" x="238.769531"/>
      <use xlink:href="#DejaVuSerif-69" x="286.572266"/>
      <use xlink:href="#DejaVuSerif-6d" x="318.554688"/>
      <use xlink:href="#DejaVuSerif-65" x="413.378906"/>
      <use xlink:href="#DejaVuSerif-6e" x="472.558594"/>
      <use xlink:href="#DejaVuSerif-74" x="536.962891"/>
     </g>
    </g>
    <g id="line2d_15">
     <path d="M 47.52 81.435771 
L 54.52 81.435771 
L 61.52 81.435771 
" style="fill: none; stroke: #0000ff; stroke-width: 0.4; stroke-linecap: round"/>
    </g>
    <g id="text_8">
     <!-- semi-empirical rudder -->
     <g style="fill: #262626" transform="translate(67.12 83.885771) scale(0.07 -0.07)">
      <defs>
       <path id="DejaVuSerif-2d" d="M 281 1959 
L 1881 1959 
L 1881 1472 
L 281 1472 
L 281 1959 
z
" transform="scale(0.015625)"/>
       <path id="DejaVuSerif-63" d="M 3291 997 
Q 3169 466 2822 187 
Q 2475 -91 1925 -91 
Q 1200 -91 759 389 
Q 319 869 319 1663 
Q 319 2459 759 2936 
Q 1200 3413 1925 3413 
Q 2241 3413 2553 3339 
Q 2866 3266 3181 3116 
L 3181 2266 
L 2847 2266 
Q 2781 2703 2561 2903 
Q 2341 3103 1931 3103 
Q 1466 3103 1228 2742 
Q 991 2381 991 1663 
Q 991 944 1227 581 
Q 1463 219 1931 219 
Q 2303 219 2525 412 
Q 2747 606 2828 997 
L 3291 997 
z
" transform="scale(0.015625)"/>
       <path id="DejaVuSerif-61" d="M 2547 1044 
L 2547 1747 
L 1806 1747 
Q 1378 1747 1168 1562 
Q 959 1378 959 997 
Q 959 650 1171 447 
Q 1384 244 1747 244 
Q 2106 244 2326 466 
Q 2547 688 2547 1044 
z
M 3122 2075 
L 3122 331 
L 3634 331 
L 3634 0 
L 2547 0 
L 2547 359 
Q 2356 128 2106 18 
Q 1856 -91 1522 -91 
Q 969 -91 644 203 
Q 319 497 319 997 
Q 319 1513 691 1797 
Q 1063 2081 1741 2081 
L 2547 2081 
L 2547 2309 
Q 2547 2688 2317 2895 
Q 2088 3103 1672 3103 
Q 1328 3103 1125 2947 
Q 922 2791 872 2484 
L 575 2484 
L 575 3156 
Q 875 3284 1158 3348 
Q 1441 3413 1709 3413 
Q 2400 3413 2761 3070 
Q 3122 2728 3122 2075 
z
" transform="scale(0.015625)"/>
       <path id="DejaVuSerif-6c" d="M 1313 331 
L 1856 331 
L 1856 0 
L 184 0 
L 184 331 
L 738 331 
L 738 4531 
L 184 4531 
L 184 4863 
L 1313 4863 
L 1313 331 
z
" transform="scale(0.015625)"/>
       <path id="DejaVuSerif-75" d="M 2266 3322 
L 3341 3322 
L 3341 331 
L 3884 331 
L 3884 0 
L 2766 0 
L 2766 588 
Q 2606 256 2353 82 
Q 2100 -91 1766 -91 
Q 1213 -91 952 223 
Q 691 538 691 1209 
L 691 2988 
L 172 2988 
L 172 3322 
L 1269 3322 
L 1269 1388 
Q 1269 781 1417 556 
Q 1566 331 1947 331 
Q 2347 331 2556 625 
Q 2766 919 2766 1478 
L 2766 2988 
L 2266 2988 
L 2266 3322 
z
" transform="scale(0.015625)"/>
       <path id="DejaVuSerif-64" d="M 3359 331 
L 3909 331 
L 3909 0 
L 2784 0 
L 2784 519 
Q 2616 206 2355 57 
Q 2094 -91 1709 -91 
Q 1097 -91 708 395 
Q 319 881 319 1663 
Q 319 2444 706 2928 
Q 1094 3413 1709 3413 
Q 2094 3413 2355 3264 
Q 2616 3116 2784 2803 
L 2784 4531 
L 2241 4531 
L 2241 4863 
L 3359 4863 
L 3359 331 
z
M 2784 1497 
L 2784 1825 
Q 2784 2422 2554 2737 
Q 2325 3053 1888 3053 
Q 1444 3053 1217 2703 
Q 991 2353 991 1663 
Q 991 975 1217 622 
Q 1444 269 1888 269 
Q 2325 269 2554 583 
Q 2784 897 2784 1497 
z
" transform="scale(0.015625)"/>
      </defs>
      <use xlink:href="#DejaVuSerif-73"/>
      <use xlink:href="#DejaVuSerif-65" x="51.318359"/>
      <use xlink:href="#DejaVuSerif-6d" x="110.498047"/>
      <use xlink:href="#DejaVuSerif-69" x="205.322266"/>
      <use xlink:href="#DejaVuSerif-2d" x="237.304688"/>
      <use xlink:href="#DejaVuSerif-65" x="271.09375"/>
      <use xlink:href="#DejaVuSerif-6d" x="330.273438"/>
      <use xlink:href="#DejaVuSerif-70" x="425.097656"/>
      <use xlink:href="#DejaVuSerif-69" x="489.111328"/>
      <use xlink:href="#DejaVuSerif-72" x="521.09375"/>
      <use xlink:href="#DejaVuSerif-69" x="568.896484"/>
      <use xlink:href="#DejaVuSerif-63" x="600.878906"/>
      <use xlink:href="#DejaVuSerif-61" x="656.884766"/>
      <use xlink:href="#DejaVuSerif-6c" x="716.503906"/>
      <use xlink:href="#DejaVuSerif-20" x="748.486328"/>
      <use xlink:href="#DejaVuSerif-72" x="780.273438"/>
      <use xlink:href="#DejaVuSerif-75" x="828.076172"/>
      <use xlink:href="#DejaVuSerif-64" x="892.480469"/>
      <use xlink:href="#DejaVuSerif-64" x="956.494141"/>
      <use xlink:href="#DejaVuSerif-65" x="1020.507812"/>
      <use xlink:href="#DejaVuSerif-72" x="1079.6875"/>
     </g>
    </g>
   </g>
   <g id="line2d_16">
    <path d="M 47.933165 11.093644 
L 55.342584 11.240621 
L 60.409902 11.402476 
L 63.561023 11.527017 
L 67.691559 11.751971 
L 69.394953 11.869889 
L 71.73693 12.00525 
L 74.632521 12.321859 
L 76.719164 12.329391 
L 80.338673 12.533036 
L 84.469142 12.862439 
L 86.59829 12.80006 
L 88.216421 12.8365 
L 90.728839 12.914245 
L 93.965139 12.886971 
L 96.945878 12.946998 
L 98.73439 13.009101 
L 101.246762 13.132477 
L 105.632748 13.043923 
L 110.104082 13.287717 
L 113.255063 13.196191 
L 114.362226 13.244718 
L 118.279832 13.733347 
L 123.006493 13.960109 
L 130.03265 14.316693 
L 132.45986 14.23569 
L 136.334909 14.81104 
L 137.910461 14.812836 
L 140.593202 14.776676 
L 147.19351 15.304455 
L 150.983376 15.326417 
L 154.177072 15.347042 
L 158.946328 15.021991 
L 164.354409 15.066015 
L 167.633262 14.865301 
L 172.828277 14.944585 
L 180.961669 14.870941 
L 182.15393 14.986978 
L 182.15393 14.986978 
" clip-path="url(#pfc6acd1170)" style="fill: none; stroke: #000000; stroke-width: 0.7; stroke-linecap: round"/>
   </g>
  </g>
  <g id="axes_2">
   <g id="patch_5">
    <path d="M 230.12964 91.641552 
L 377.81928 91.641552 
L 377.81928 10.8 
L 230.12964 10.8 
z
" style="fill: #ffffff"/>
   </g>
   <g id="matplotlib.axis_3">
    <g id="xtick_8">
     <g id="line2d_17"/>
    </g>
    <g id="xtick_9">
     <g id="line2d_18"/>
    </g>
    <g id="xtick_10">
     <g id="line2d_19"/>
    </g>
    <g id="xtick_11">
     <g id="line2d_20"/>
    </g>
    <g id="xtick_12">
     <g id="line2d_21"/>
    </g>
    <g id="xtick_13">
     <g id="line2d_22"/>
    </g>
    <g id="xtick_14">
     <g id="line2d_23"/>
    </g>
   </g>
   <g id="matplotlib.axis_4">
    <g id="ytick_6">
     <g id="line2d_24"/>
     <g id="text_9">
      <!-- −5 -->
      <g style="fill: #262626" transform="translate(216.310109 79.372002) scale(0.07 -0.07)">
       <defs>
        <path id="DejaVuSerif-2212" d="M 678 2259 
L 4684 2259 
L 4684 1753 
L 678 1753 
L 678 2259 
z
" transform="scale(0.015625)"/>
        <path id="DejaVuSerif-35" d="M 3219 4666 
L 3219 4153 
L 1081 4153 
L 1081 2816 
Q 1244 2928 1461 2984 
Q 1678 3041 1947 3041 
Q 2703 3041 3140 2622 
Q 3578 2203 3578 1478 
Q 3578 738 3136 323 
Q 2694 -91 1894 -91 
Q 1572 -91 1234 -12 
Q 897 66 544 225 
L 544 1131 
L 897 1131 
Q 925 688 1179 453 
Q 1434 219 1894 219 
Q 2388 219 2653 544 
Q 2919 869 2919 1478 
Q 2919 2084 2655 2407 
Q 2391 2731 1894 2731 
Q 1613 2731 1398 2631 
Q 1184 2531 1019 2322 
L 750 2322 
L 750 4666 
L 3219 4666 
z
" transform="scale(0.015625)"/>
       </defs>
       <use xlink:href="#DejaVuSerif-2212"/>
       <use xlink:href="#DejaVuSerif-35" x="83.789062"/>
      </g>
     </g>
    </g>
    <g id="ytick_7">
     <g id="line2d_25"/>
     <g id="text_10">
      <!-- 0 -->
      <g style="fill: #262626" transform="translate(222.17589 53.947475) scale(0.07 -0.07)">
       <use xlink:href="#DejaVuSerif-30"/>
      </g>
     </g>
    </g>
    <g id="ytick_8">
     <g id="line2d_26"/>
     <g id="text_11">
      <!-- 5 -->
      <g style="fill: #262626" transform="translate(222.17589 28.522949) scale(0.07 -0.07)">
       <use xlink:href="#DejaVuSerif-35"/>
      </g>
     </g>
    </g>
    <g id="text_12">
     <!-- $\beta$ [deg] -->
     <g style="fill: #262626" transform="translate(210.930109 62.050776) rotate(-90) scale(0.06 -0.06)">
      <defs>
       <path id="DejaVuSans-Oblique-3b2" d="M 872 216 
L 572 -1331 
L -6 -1331 
L 928 3478 
Q 1206 4903 2538 4903 
Q 3888 4903 3659 3700 
Q 3503 2844 2894 2531 
Q 3713 2250 3553 1416 
Q 3272 -69 1759 -66 
Q 1097 -63 872 216 
z
M 1019 966 
Q 1259 422 1875 425 
Q 2775 425 2966 1406 
Q 3138 2288 1675 2219 
L 1778 2750 
Q 2909 2731 3106 3750 
Q 3241 4438 2509 4434 
Q 1691 4434 1503 3459 
L 1019 966 
z
" transform="scale(0.015625)"/>
       <path id="DejaVuSerif-67" d="M 3359 2988 
L 3359 72 
Q 3359 -644 2965 -1033 
Q 2572 -1422 1844 -1422 
Q 1516 -1422 1216 -1362 
Q 916 -1303 641 -1184 
L 641 -488 
L 941 -488 
Q 997 -813 1206 -963 
Q 1416 -1113 1806 -1113 
Q 2313 -1113 2548 -827 
Q 2784 -541 2784 72 
L 2784 519 
Q 2616 206 2355 57 
Q 2094 -91 1709 -91 
Q 1097 -91 708 395 
Q 319 881 319 1663 
Q 319 2444 706 2928 
Q 1094 3413 1709 3413 
Q 2094 3413 2355 3264 
Q 2616 3116 2784 2803 
L 2784 3322 
L 3909 3322 
L 3909 2988 
L 3359 2988 
z
M 2784 1825 
Q 2784 2422 2554 2737 
Q 2325 3053 1888 3053 
Q 1444 3053 1217 2703 
Q 991 2353 991 1663 
Q 991 975 1217 622 
Q 1444 269 1888 269 
Q 2325 269 2554 583 
Q 2784 897 2784 1497 
L 2784 1825 
z
" transform="scale(0.015625)"/>
      </defs>
      <use xlink:href="#DejaVuSans-Oblique-3b2" transform="translate(0 0.390625)"/>
      <use xlink:href="#DejaVuSerif-20" transform="translate(63.818359 0.390625)"/>
      <use xlink:href="#DejaVuSerif-5b" transform="translate(95.605469 0.390625)"/>
      <use xlink:href="#DejaVuSerif-64" transform="translate(134.619141 0.390625)"/>
      <use xlink:href="#DejaVuSerif-65" transform="translate(198.632812 0.390625)"/>
      <use xlink:href="#DejaVuSerif-67" transform="translate(257.8125 0.390625)"/>
      <use xlink:href="#DejaVuSerif-5d" transform="translate(321.826172 0.390625)"/>
     </g>
    </g>
   </g>
   <g id="line2d_27">
    <path d="M 236.842805 51.288022 
L 237.609294 51.400588 
L 238.375783 51.747768 
L 239.142272 52.345713 
L 240.036509 53.34989 
L 243.059882 57.194128 
L 250.554441 66.779687 
L 254.046223 70.805597 
L 257.197345 74.081072 
L 260.050387 76.743468 
L 261.924026 78.264981 
L 262.690515 78.573927 
L 263.414421 78.622693 
L 264.095745 78.445285 
L 264.819651 78.023424 
L 265.58614 77.309191 
L 266.437794 76.184667 
L 267.502362 74.356149 
L 270.696066 68.326954 
L 279.936516 50.587751 
L 282.917306 45.48639 
L 285.812931 40.956335 
L 288.538225 37.082127 
L 291.348684 33.479938 
L 294.244309 30.128874 
L 297.182517 27.075099 
L 300.120724 24.355643 
L 302.973766 22.040002 
L 306.124887 19.794504 
L 309.446339 17.722954 
L 312.810374 15.902441 
L 315.705999 14.569562 
L 316.429905 14.475426 
L 317.153811 14.611559 
L 317.877717 14.984181 
L 318.644206 15.638855 
L 319.495861 16.684151 
L 320.43268 18.21007 
L 321.582414 20.565344 
L 328.09757 34.760088 
L 332.355841 43.746964 
L 335.975372 50.854289 
L 338.998745 56.277573 
L 341.681457 60.676708 
L 344.364168 64.693826 
L 347.089462 68.368689 
L 349.814756 71.691525 
L 352.412301 74.523905 
L 355.265344 77.296139 
L 358.118386 79.755945 
L 361.312089 82.213739 
L 364.335462 84.271989 
L 367.316253 86.029136 
L 370.808036 87.826985 
L 371.106115 87.966936 
L 371.106115 87.966936 
" clip-path="url(#p56c198e4ee)" style="fill: none; stroke: #0000ff; stroke-width: 0.4; stroke-linecap: round"/>
   </g>
   <g id="patch_6">
    <path d="M 230.12964 91.641552 
L 230.12964 10.8 
" style="fill: none; stroke: #000000; stroke-linejoin: miter; stroke-linecap: square"/>
   </g>
   <g id="patch_7">
    <path d="M 230.12964 91.641552 
L 377.81928 91.641552 
" style="fill: none; stroke: #000000; stroke-linejoin: miter; stroke-linecap: square"/>
   </g>
   <g id="line2d_28">
    <path d="M 236.842805 51.004614 
L 237.609311 51.13324 
L 238.41837 51.497287 
L 239.270033 52.134946 
L 240.675293 53.558083 
L 250.298957 63.142279 
L 253.833352 66.233005 
L 258.304593 69.777124 
L 262.179552 72.41921 
L 264.266114 73.619707 
L 265.841649 74.350225 
L 266.608142 74.421822 
L 267.332095 74.276279 
L 268.098533 73.898886 
L 268.907635 73.251718 
L 269.80182 72.238017 
L 270.781236 70.762868 
L 275.593147 62.756327 
L 280.319752 55.242862 
L 284.578041 48.907133 
L 287.516355 44.908781 
L 289.900868 42.008405 
L 292.455894 39.269432 
L 295.479242 36.349854 
L 297.906418 34.263177 
L 300.759533 32.111337 
L 307.530198 27.455539 
L 310.936798 25.504083 
L 314.513776 23.697588 
L 318.090639 22.136093 
L 320.219809 21.464771 
L 322.093423 20.805684 
L 324.776122 19.966922 
L 326.820101 19.565787 
L 329.502842 19.306921 
L 330.269292 19.468685 
L 331.035798 19.855663 
L 331.844853 20.534121 
L 332.781681 21.626524 
L 333.761088 23.127035 
L 334.86826 25.264033 
L 338.019347 31.539376 
L 341.809222 38.553366 
L 344.875169 43.77497 
L 348.154111 48.963708 
L 351.220011 53.460536 
L 353.56206 56.535767 
L 356.41509 59.876087 
L 359.055222 62.659787 
L 361.439906 64.869634 
L 364.079962 67.013468 
L 368.33834 70.208542 
L 371.06357 72.124726 
L 371.06357 72.124726 
" clip-path="url(#p56c198e4ee)" style="fill: none; stroke: #000000; stroke-width: 0.7; stroke-linecap: round"/>
   </g>
  </g>
  <g id="axes_3">
   <g id="patch_8">
    <path d="M 41.22 187.363104 
L 188.90964 187.363104 
L 188.90964 106.521552 
L 41.22 106.521552 
z
" style="fill: #ffffff"/>
   </g>
   <g id="matplotlib.axis_5">
    <g id="xtick_15">
     <g id="line2d_29"/>
     <g id="text_13">
      <!-- 0 -->
      <g style="fill: #262626" transform="translate(45.70629 196.18201) scale(0.07 -0.07)">
       <use xlink:href="#DejaVuSerif-30"/>
      </g>
     </g>
    </g>
    <g id="xtick_16">
     <g id="line2d_30"/>
     <g id="text_14">
      <!-- 5 -->
      <g style="fill: #262626" transform="translate(66.997649 196.18201) scale(0.07 -0.07)">
       <use xlink:href="#DejaVuSerif-35"/>
      </g>
     </g>
    </g>
    <g id="xtick_17">
     <g id="line2d_31"/>
     <g id="text_15">
      <!-- 10 -->
      <g style="fill: #262626" transform="translate(86.062133 196.18201) scale(0.07 -0.07)">
       <defs>
        <path id="DejaVuSerif-31" d="M 909 0 
L 909 331 
L 1722 331 
L 1722 4213 
L 781 3603 
L 781 4013 
L 1919 4750 
L 2350 4750 
L 2350 331 
L 3163 331 
L 3163 0 
L 909 0 
z
" transform="scale(0.015625)"/>
       </defs>
       <use xlink:href="#DejaVuSerif-31"/>
       <use xlink:href="#DejaVuSerif-30" x="63.623047"/>
      </g>
     </g>
    </g>
    <g id="xtick_18">
     <g id="line2d_32"/>
     <g id="text_16">
      <!-- 15 -->
      <g style="fill: #262626" transform="translate(107.353492 196.18201) scale(0.07 -0.07)">
       <use xlink:href="#DejaVuSerif-31"/>
       <use xlink:href="#DejaVuSerif-35" x="63.623047"/>
      </g>
     </g>
    </g>
    <g id="xtick_19">
     <g id="line2d_33"/>
     <g id="text_17">
      <!-- 20 -->
      <g style="fill: #262626" transform="translate(128.644851 196.18201) scale(0.07 -0.07)">
       <use xlink:href="#DejaVuSerif-32"/>
       <use xlink:href="#DejaVuSerif-30" x="63.623047"/>
      </g>
     </g>
    </g>
    <g id="xtick_20">
     <g id="line2d_34"/>
     <g id="text_18">
      <!-- 25 -->
      <g style="fill: #262626" transform="translate(149.93621 196.18201) scale(0.07 -0.07)">
       <use xlink:href="#DejaVuSerif-32"/>
       <use xlink:href="#DejaVuSerif-35" x="63.623047"/>
      </g>
     </g>
    </g>
    <g id="xtick_21">
     <g id="line2d_35"/>
     <g id="text_19">
      <!-- 30 -->
      <g style="fill: #262626" transform="translate(171.227569 196.18201) scale(0.07 -0.07)">
       <defs>
        <path id="DejaVuSerif-33" d="M 622 4469 
Q 988 4606 1323 4678 
Q 1659 4750 1953 4750 
Q 2638 4750 3022 4454 
Q 3406 4159 3406 3634 
Q 3406 3213 3140 2930 
Q 2875 2647 2388 2547 
Q 2963 2466 3280 2130 
Q 3597 1794 3597 1259 
Q 3597 606 3158 257 
Q 2719 -91 1894 -91 
Q 1528 -91 1179 -12 
Q 831 66 488 225 
L 488 1131 
L 838 1131 
Q 869 681 1141 450 
Q 1413 219 1906 219 
Q 2384 219 2661 495 
Q 2938 772 2938 1253 
Q 2938 1803 2653 2086 
Q 2369 2369 1819 2369 
L 1522 2369 
L 1522 2688 
L 1678 2688 
Q 2225 2688 2498 2914 
Q 2772 3141 2772 3597 
Q 2772 4006 2547 4223 
Q 2322 4441 1900 4441 
Q 1478 4441 1245 4241 
Q 1013 4041 972 3647 
L 622 3647 
L 622 4469 
z
" transform="scale(0.015625)"/>
       </defs>
       <use xlink:href="#DejaVuSerif-33"/>
       <use xlink:href="#DejaVuSerif-30" x="63.623047"/>
      </g>
     </g>
    </g>
    <g id="text_20">
     <!-- Time [s] -->
     <g style="fill: #262626" transform="translate(102.649976 206.196854) scale(0.06 -0.06)">
      <defs>
       <path id="DejaVuSerif-54" d="M 1222 0 
L 1222 331 
L 1819 331 
L 1819 4294 
L 447 4294 
L 447 3566 
L 63 3566 
L 63 4666 
L 4206 4666 
L 4206 3566 
L 3822 3566 
L 3822 4294 
L 2450 4294 
L 2450 331 
L 3047 331 
L 3047 0 
L 1222 0 
z
" transform="scale(0.015625)"/>
      </defs>
      <use xlink:href="#DejaVuSerif-54"/>
      <use xlink:href="#DejaVuSerif-69" x="66.699219"/>
      <use xlink:href="#DejaVuSerif-6d" x="98.681641"/>
      <use xlink:href="#DejaVuSerif-65" x="193.505859"/>
      <use xlink:href="#DejaVuSerif-20" x="252.685547"/>
      <use xlink:href="#DejaVuSerif-5b" x="284.472656"/>
      <use xlink:href="#DejaVuSerif-73" x="323.486328"/>
      <use xlink:href="#DejaVuSerif-5d" x="374.804688"/>
     </g>
    </g>
   </g>
   <g id="matplotlib.axis_6">
    <g id="ytick_9">
     <g id="line2d_36"/>
     <g id="text_21">
      <!-- −10 -->
      <g style="fill: #262626" transform="translate(22.946719 186.195657) scale(0.07 -0.07)">
       <use xlink:href="#DejaVuSerif-2212"/>
       <use xlink:href="#DejaVuSerif-31" x="83.789062"/>
       <use xlink:href="#DejaVuSerif-30" x="147.412109"/>
      </g>
     </g>
    </g>
    <g id="ytick_10">
     <g id="line2d_37"/>
     <g id="text_22">
      <!-- −5 -->
      <g style="fill: #262626" transform="translate(27.400469 167.91124) scale(0.07 -0.07)">
       <use xlink:href="#DejaVuSerif-2212"/>
       <use xlink:href="#DejaVuSerif-35" x="83.789062"/>
      </g>
     </g>
    </g>
    <g id="ytick_11">
     <g id="line2d_38"/>
     <g id="text_23">
      <!-- 0 -->
      <g style="fill: #262626" transform="translate(33.26625 149.626823) scale(0.07 -0.07)">
       <use xlink:href="#DejaVuSerif-30"/>
      </g>
     </g>
    </g>
    <g id="ytick_12">
     <g id="line2d_39"/>
     <g id="text_24">
      <!-- 5 -->
      <g style="fill: #262626" transform="translate(33.26625 131.342406) scale(0.07 -0.07)">
       <use xlink:href="#DejaVuSerif-35"/>
      </g>
     </g>
    </g>
    <g id="ytick_13">
     <g id="line2d_40"/>
     <g id="text_25">
      <!-- 10 -->
      <g style="fill: #262626" transform="translate(28.8125 113.057989) scale(0.07 -0.07)">
       <use xlink:href="#DejaVuSerif-31"/>
       <use xlink:href="#DejaVuSerif-30" x="63.623047"/>
      </g>
     </g>
    </g>
    <g id="text_26">
     <!-- $\delta$ [deg] -->
     <g style="fill: #262626" transform="translate(17.566719 157.712328) rotate(-90) scale(0.06 -0.06)">
      <defs>
       <path id="DejaVuSans-Oblique-3b4" d="M 3472 4053 
Q 3197 4272 2450 4272 
Q 1659 4272 1588 3906 
Q 1531 3619 2328 3469 
Q 2953 3353 3253 3003 
Q 3616 2581 3447 1716 
Q 3284 888 2763 400 
Q 2238 -91 1488 -91 
Q 741 -91 406 400 
Q 72 888 241 1747 
Q 363 2384 891 2900 
Q 1097 3100 1353 3213 
Q 913 3459 1000 3900 
Q 1166 4750 2544 4750 
Q 3234 4750 3566 4531 
L 3472 4053 
z
M 1753 3056 
Q 1525 2966 1306 2738 
Q 969 2384 847 1747 
Q 722 1113 919 756 
Q 1119 397 1584 397 
Q 2044 397 2381 759 
Q 2722 1122 2838 1716 
Q 2956 2338 2731 2638 
Q 2491 2959 2103 2994 
Q 1906 3013 1753 3056 
z
" transform="scale(0.015625)"/>
      </defs>
      <use xlink:href="#DejaVuSans-Oblique-3b4" transform="translate(0 0.015625)"/>
      <use xlink:href="#DejaVuSerif-20" transform="translate(61.181641 0.015625)"/>
      <use xlink:href="#DejaVuSerif-5b" transform="translate(92.96875 0.015625)"/>
      <use xlink:href="#DejaVuSerif-64" transform="translate(131.982422 0.015625)"/>
      <use xlink:href="#DejaVuSerif-65" transform="translate(195.996094 0.015625)"/>
      <use xlink:href="#DejaVuSerif-67" transform="translate(255.175781 0.015625)"/>
      <use xlink:href="#DejaVuSerif-5d" transform="translate(319.189453 0.015625)"/>
     </g>
    </g>
   </g>
   <g id="line2d_41">
    <path d="M 47.933165 146.96737 
L 50.871373 110.398536 
L 72.375645 110.398536 
L 78.166895 183.536203 
L 126.413114 183.536203 
L 132.204364 110.398536 
L 182.196475 110.398536 
L 182.196475 110.398536 
" clip-path="url(#p782ba79277)" style="fill: none; stroke: #0000ff; stroke-width: 0.4; stroke-linecap: round"/>
   </g>
   <g id="patch_9">
    <path d="M 41.22 187.363104 
L 41.22 106.521552 
" style="fill: none; stroke: #000000; stroke-linejoin: miter; stroke-linecap: square"/>
   </g>
   <g id="patch_10">
    <path d="M 41.22 187.363104 
L 188.90964 187.363104 
" style="fill: none; stroke: #000000; stroke-linejoin: miter; stroke-linecap: square"/>
   </g>
   <g id="line2d_42">
    <path d="M 47.933165 146.100212 
L 48.529349 138.261451 
L 50.786216 110.196168 
L 51.041742 110.39507 
L 54.363198 110.396501 
L 76.16555 110.396501 
L 76.335953 112.625926 
L 77.911458 132.717939 
L 81.914178 183.672748 
L 81.999357 183.629819 
L 82.254853 183.548255 
L 84.085914 183.535376 
L 140.039639 183.538238 
L 140.252523 180.783653 
L 140.806086 173.747657 
L 145.745685 110.608282 
L 145.83094 110.196168 
L 145.873446 110.241958 
L 146.128959 110.37933 
L 147.108413 110.400794 
L 182.15393 110.397932 
L 182.15393 110.397932 
" clip-path="url(#p782ba79277)" style="fill: none; stroke: #000000; stroke-width: 0.7; stroke-linecap: round"/>
   </g>
  </g>
  <g id="axes_4">
   <g id="patch_11">
    <path d="M 230.12964 187.363104 
L 377.81928 187.363104 
L 377.81928 106.521552 
L 230.12964 106.521552 
z
" style="fill: #ffffff"/>
   </g>
   <g id="matplotlib.axis_7">
    <g id="xtick_22">
     <g id="line2d_43"/>
     <g id="text_27">
      <!-- 0 -->
      <g style="fill: #262626" transform="translate(234.61593 196.18201) scale(0.07 -0.07)">
       <use xlink:href="#DejaVuSerif-30"/>
      </g>
     </g>
    </g>
    <g id="xtick_23">
     <g id="line2d_44"/>
     <g id="text_28">
      <!-- 5 -->
      <g style="fill: #262626" transform="translate(255.907289 196.18201) scale(0.07 -0.07)">
       <use xlink:href="#DejaVuSerif-35"/>
      </g>
     </g>
    </g>
    <g id="xtick_24">
     <g id="line2d_45"/>
     <g id="text_29">
      <!-- 10 -->
      <g style="fill: #262626" transform="translate(274.971773 196.18201) scale(0.07 -0.07)">
       <use xlink:href="#DejaVuSerif-31"/>
       <use xlink:href="#DejaVuSerif-30" x="63.623047"/>
      </g>
     </g>
    </g>
    <g id="xtick_25">
     <g id="line2d_46"/>
     <g id="text_30">
      <!-- 15 -->
      <g style="fill: #262626" transform="translate(296.263132 196.18201) scale(0.07 -0.07)">
       <use xlink:href="#DejaVuSerif-31"/>
       <use xlink:href="#DejaVuSerif-35" x="63.623047"/>
      </g>
     </g>
    </g>
    <g id="xtick_26">
     <g id="line2d_47"/>
     <g id="text_31">
      <!-- 20 -->
      <g style="fill: #262626" transform="translate(317.554491 196.18201) scale(0.07 -0.07)">
       <use xlink:href="#DejaVuSerif-32"/>
       <use xlink:href="#DejaVuSerif-30" x="63.623047"/>
      </g>
     </g>
    </g>
    <g id="xtick_27">
     <g id="line2d_48"/>
     <g id="text_32">
      <!-- 25 -->
      <g style="fill: #262626" transform="translate(338.84585 196.18201) scale(0.07 -0.07)">
       <use xlink:href="#DejaVuSerif-32"/>
       <use xlink:href="#DejaVuSerif-35" x="63.623047"/>
      </g>
     </g>
    </g>
    <g id="xtick_28">
     <g id="line2d_49"/>
     <g id="text_33">
      <!-- 30 -->
      <g style="fill: #262626" transform="translate(360.137209 196.18201) scale(0.07 -0.07)">
       <use xlink:href="#DejaVuSerif-33"/>
       <use xlink:href="#DejaVuSerif-30" x="63.623047"/>
      </g>
     </g>
    </g>
    <g id="text_34">
     <!-- Time [s] -->
     <g style="fill: #262626" transform="translate(291.559616 206.196854) scale(0.06 -0.06)">
      <use xlink:href="#DejaVuSerif-54"/>
      <use xlink:href="#DejaVuSerif-69" x="66.699219"/>
      <use xlink:href="#DejaVuSerif-6d" x="98.681641"/>
      <use xlink:href="#DejaVuSerif-65" x="193.505859"/>
      <use xlink:href="#DejaVuSerif-20" x="252.685547"/>
      <use xlink:href="#DejaVuSerif-5b" x="284.472656"/>
      <use xlink:href="#DejaVuSerif-73" x="323.486328"/>
      <use xlink:href="#DejaVuSerif-5d" x="374.804688"/>
     </g>
    </g>
   </g>
   <g id="matplotlib.axis_8">
    <g id="ytick_14">
     <g id="line2d_50"/>
     <g id="text_35">
      <!-- −10 -->
      <g style="fill: #262626" transform="translate(211.856359 177.171719) scale(0.07 -0.07)">
       <use xlink:href="#DejaVuSerif-2212"/>
       <use xlink:href="#DejaVuSerif-31" x="83.789062"/>
       <use xlink:href="#DejaVuSerif-30" x="147.412109"/>
      </g>
     </g>
    </g>
    <g id="ytick_15">
     <g id="line2d_51"/>
     <g id="text_36">
      <!-- 0 -->
      <g style="fill: #262626" transform="translate(222.17589 149.972479) scale(0.07 -0.07)">
       <use xlink:href="#DejaVuSerif-30"/>
      </g>
     </g>
    </g>
    <g id="ytick_16">
     <g id="line2d_52"/>
     <g id="text_37">
      <!-- 10 -->
      <g style="fill: #262626" transform="translate(217.72214 122.773238) scale(0.07 -0.07)">
       <use xlink:href="#DejaVuSerif-31"/>
       <use xlink:href="#DejaVuSerif-30" x="63.623047"/>
      </g>
     </g>
    </g>
    <g id="text_38">
     <!-- $\psi$ [deg] -->
     <g style="fill: #262626" transform="translate(206.476359 157.832328) rotate(-90) scale(0.06 -0.06)">
      <defs>
       <path id="DejaVuSans-Oblique-3c8" d="M 1591 -78 
Q 891 38 616 341 
Q 278 713 425 1472 
L 819 3500 
L 1400 3500 
L 1009 1494 
Q 900 922 1119 684 
Q 1313 478 1691 434 
L 2284 3500 
L 2856 3500 
L 2263 438 
Q 2681 481 2928 688 
Q 3247 950 3353 1497 
L 3741 3500 
L 4322 3500 
L 3928 1475 
Q 3775 688 3300 344 
Q 2872 34 2163 -75 
L 1919 -1331 
L 1347 -1331 
L 1591 -78 
z
" transform="scale(0.015625)"/>
      </defs>
      <use xlink:href="#DejaVuSans-Oblique-3c8" transform="translate(0 0.015625)"/>
      <use xlink:href="#DejaVuSerif-20" transform="translate(65.966797 0.015625)"/>
      <use xlink:href="#DejaVuSerif-5b" transform="translate(97.753906 0.015625)"/>
      <use xlink:href="#DejaVuSerif-64" transform="translate(136.767578 0.015625)"/>
      <use xlink:href="#DejaVuSerif-65" transform="translate(200.78125 0.015625)"/>
      <use xlink:href="#DejaVuSerif-67" transform="translate(259.960938 0.015625)"/>
      <use xlink:href="#DejaVuSerif-5d" transform="translate(323.974609 0.015625)"/>
     </g>
    </g>
   </g>
   <g id="line2d_53">
    <path d="M 236.842805 147.313025 
L 238.971941 147.422159 
L 240.164257 147.715654 
L 241.356574 148.24552 
L 242.719221 149.106717 
L 244.252198 150.352657 
L 245.99809 152.068858 
L 247.999478 154.35822 
L 250.38411 157.442759 
L 253.151986 161.393183 
L 256.558604 166.661558 
L 260.816876 173.680811 
L 264.308658 179.364642 
L 265.713888 181.192363 
L 266.863621 182.335412 
L 267.885607 183.040393 
L 268.907592 183.472445 
L 269.929577 183.66875 
L 271.036728 183.649991 
L 272.186461 183.407081 
L 273.463943 182.905118 
L 274.869172 182.107892 
L 276.444733 180.951388 
L 278.233207 179.351448 
L 280.234595 177.254109 
L 282.576644 174.464652 
L 285.259356 170.911805 
L 288.410477 166.358338 
L 292.242921 160.413 
L 296.756689 152.984699 
L 302.462774 143.139961 
L 311.234813 127.51987 
L 318.260962 115.083635 
L 319.666191 113.127727 
L 320.815925 111.88151 
L 321.83791 111.086369 
L 322.859895 110.565027 
L 323.924463 110.271688 
L 325.031614 110.199047 
L 326.22393 110.349269 
L 327.501412 110.738093 
L 328.906641 111.400839 
L 330.482202 112.397045 
L 332.228093 113.770761 
L 334.186898 115.603411 
L 336.358617 117.94931 
L 338.828414 120.952644 
L 341.638874 124.732273 
L 344.87516 129.46653 
L 348.750188 135.538472 
L 353.562035 143.520258 
L 360.077191 154.776507 
L 368.338238 169.513178 
L 371.106115 174.507943 
L 371.106115 174.507943 
" clip-path="url(#p6ff7ee3eec)" style="fill: none; stroke: #0000ff; stroke-width: 0.4; stroke-linecap: round"/>
   </g>
   <g id="patch_12">
    <path d="M 230.12964 187.363104 
L 230.12964 106.521552 
" style="fill: none; stroke: #000000; stroke-linejoin: miter; stroke-linecap: square"/>
   </g>
   <g id="patch_13">
    <path d="M 230.12964 187.363104 
L 377.81928 187.363104 
" style="fill: none; stroke: #000000; stroke-linejoin: miter; stroke-linecap: square"/>
   </g>
   <g id="line2d_54">
    <path d="M 236.842805 147.594575 
L 238.972009 147.827638 
L 240.292023 148.200268 
L 241.697235 148.839789 
L 243.315557 149.829559 
L 245.189044 151.246615 
L 247.403366 153.215676 
L 250.043486 155.87797 
L 253.151991 159.337578 
L 256.686348 163.611076 
L 260.774344 168.913638 
L 268.311442 178.797878 
L 269.631558 180.043343 
L 270.781236 180.831815 
L 271.845846 181.289035 
L 272.952963 181.520632 
L 274.145275 181.541438 
L 275.465365 181.338665 
L 276.955738 180.878352 
L 278.616541 180.127432 
L 280.490176 179.028824 
L 282.576708 177.540075 
L 284.876188 175.618931 
L 287.516355 173.111145 
L 290.752539 169.716458 
L 295.010815 164.907299 
L 300.844643 157.967641 
L 305.656494 151.91813 
L 310.553541 145.381926 
L 320.475276 131.651476 
L 331.333912 116.708489 
L 332.82429 115.117207 
L 334.059176 114.111369 
L 335.123744 113.515723 
L 336.188346 113.168966 
L 337.338049 113.024606 
L 338.615501 113.090823 
L 340.063407 113.396028 
L 341.724056 113.982785 
L 343.597726 114.886501 
L 345.684215 116.146647 
L 347.898631 117.752798 
L 350.283251 119.766142 
L 353.008481 122.369476 
L 356.244801 125.780301 
L 360.801114 130.941799 
L 366.720171 137.969368 
L 371.06357 143.401365 
L 371.06357 143.401365 
" clip-path="url(#p6ff7ee3eec)" style="fill: none; stroke: #000000; stroke-width: 0.7; stroke-linecap: round"/>
   </g>
  </g>
 </g>
 <defs>
  <clipPath id="pfc6acd1170">
   <rect x="41.22" y="10.8" width="147.68964" height="80.841552"/>
  </clipPath>
  <clipPath id="p56c198e4ee">
   <rect x="230.12964" y="10.8" width="147.68964" height="80.841552"/>
  </clipPath>
  <clipPath id="p782ba79277">
   <rect x="41.22" y="106.521552" width="147.68964" height="80.841552"/>
  </clipPath>
  <clipPath id="p6ff7ee3eec">
   <rect x="230.12964" y="106.521552" width="147.68964" height="80.841552"/>
  </clipPath>
 </defs>
</svg>
