<?xml version="1.0" encoding="utf-8" standalone="no"?>
<!DOCTYPE svg PUBLIC "-//W3C//DTD SVG 1.1//EN"
  "http://www.w3.org/Graphics/SVG/1.1/DTD/svg11.dtd">
<svg xmlns:xlink="http://www.w3.org/1999/xlink" width="194.30964pt" height="109.311552pt" viewBox="0 0 194.30964 109.311552" xmlns="http://www.w3.org/2000/svg" version="1.1">
 <metadata>
  <rdf:RDF xmlns:dc="http://purl.org/dc/elements/1.1/" xmlns:cc="http://creativecommons.org/ns#" xmlns:rdf="http://www.w3.org/1999/02/22-rdf-syntax-ns#">
   <cc:Work>
    <dc:type rdf:resource="http://purl.org/dc/dcmitype/StillImage"/>
    <dc:date>2024-12-02T16:11:17.167403</dc:date>
    <dc:format>image/svg+xml</dc:format>
    <dc:creator>
     <cc:Agent>
      <dc:title>Matplotlib v3.8.2, https://matplotlib.org/</dc:title>
     </cc:Agent>
    </dc:creator>
   </cc:Work>
  </rdf:RDF>
 </metadata>
 <defs>
  <style type="text/css">*{stroke-linejoin: round; stroke-linecap: butt}</style>
 </defs>
 <g id="figure_1">
  <g id="patch_1">
   <path d="M 0 109.311552 
L 194.30964 109.311552 
L 194.30964 0 
L 0 0 
z
" style="fill: #ffffff"/>
  </g>
  <g id="axes_1">
   <g id="patch_2">
    <path d="M 38.251959 86.22975 
L 191.3094 86.22975 
L 191.3094 3.00024 
L 38.251959 3.00024 
z
" style="fill: #ffffff"/>
   </g>
   <g id="matplotlib.axis_1">
    <g id="xtick_1">
     <g id="line2d_1"/>
     <g id="text_1">
      <!-- 0 -->
      <g style="fill: #262626" transform="translate(42.98224 95.048656) scale(0.07 -0.07)">
       <defs>
        <path id="DejaVuSerif-30" d="M 2034 219 
Q 2513 219 2750 744 
Q 2988 1269 2988 2328 
Q 2988 3391 2750 3916 
Q 2513 4441 2034 4441 
Q 1556 4441 1318 3916 
Q 1081 3391 1081 2328 
Q 1081 1269 1318 744 
Q 1556 219 2034 219 
z
M 2034 -91 
Q 1275 -91 848 546 
Q 422 1184 422 2328 
Q 422 3475 848 4112 
Q 1275 4750 2034 4750 
Q 2797 4750 3222 4112 
Q 3647 3475 3647 2328 
Q 3647 1184 3222 546 
Q 2797 -91 2034 -91 
z
" transform="scale(0.015625)"/>
       </defs>
       <use xlink:href="#DejaVuSerif-30"/>
      </g>
     </g>
    </g>
    <g id="xtick_2">
     <g id="line2d_2"/>
     <g id="text_2">
      <!-- 5 -->
      <g style="fill: #262626" transform="translate(66.180499 95.048656) scale(0.07 -0.07)">
       <defs>
        <path id="DejaVuSerif-35" d="M 3219 4666 
L 3219 4153 
L 1081 4153 
L 1081 2816 
Q 1244 2928 1461 2984 
Q 1678 3041 1947 3041 
Q 2703 3041 3140 2622 
Q 3578 2203 3578 1478 
Q 3578 738 3136 323 
Q 2694 -91 1894 -91 
Q 1572 -91 1234 -12 
Q 897 66 544 225 
L 544 1131 
L 897 1131 
Q 925 688 1179 453 
Q 1434 219 1894 219 
Q 2388 219 2653 544 
Q 2919 869 2919 1478 
Q 2919 2084 2655 2407 
Q 2391 2731 1894 2731 
Q 1613 2731 1398 2631 
Q 1184 2531 1019 2322 
L 750 2322 
L 750 4666 
L 3219 4666 
z
" transform="scale(0.015625)"/>
       </defs>
       <use xlink:href="#DejaVuSerif-35"/>
      </g>
     </g>
    </g>
    <g id="xtick_3">
     <g id="line2d_3"/>
     <g id="text_3">
      <!-- 10 -->
      <g style="fill: #262626" transform="translate(87.151883 95.048656) scale(0.07 -0.07)">
       <defs>
        <path id="DejaVuSerif-31" d="M 909 0 
L 909 331 
L 1722 331 
L 1722 4213 
L 781 3603 
L 781 4013 
L 1919 4750 
L 2350 4750 
L 2350 331 
L 3163 331 
L 3163 0 
L 909 0 
z
" transform="scale(0.015625)"/>
       </defs>
       <use xlink:href="#DejaVuSerif-31"/>
       <use xlink:href="#DejaVuSerif-30" x="63.623047"/>
      </g>
     </g>
    </g>
    <g id="xtick_4">
     <g id="line2d_4"/>
     <g id="text_4">
      <!-- 15 -->
      <g style="fill: #262626" transform="translate(110.350142 95.048656) scale(0.07 -0.07)">
       <use xlink:href="#DejaVuSerif-31"/>
       <use xlink:href="#DejaVuSerif-35" x="63.623047"/>
      </g>
     </g>
    </g>
    <g id="xtick_5">
     <g id="line2d_5"/>
     <g id="text_5">
      <!-- 20 -->
      <g style="fill: #262626" transform="translate(133.5484 95.048656) scale(0.07 -0.07)">
       <defs>
        <path id="DejaVuSerif-32" d="M 819 3553 
L 469 3553 
L 469 4384 
Q 803 4563 1142 4656 
Q 1481 4750 1806 4750 
Q 2534 4750 2956 4397 
Q 3378 4044 3378 3438 
Q 3378 2753 2422 1800 
Q 2347 1728 2309 1691 
L 1131 513 
L 3078 513 
L 3078 1088 
L 3444 1088 
L 3444 0 
L 434 0 
L 434 341 
L 1850 1753 
Q 2319 2222 2519 2614 
Q 2719 3006 2719 3438 
Q 2719 3909 2473 4175 
Q 2228 4441 1797 4441 
Q 1350 4441 1106 4219 
Q 863 3997 819 3553 
z
" transform="scale(0.015625)"/>
       </defs>
       <use xlink:href="#DejaVuSerif-32"/>
       <use xlink:href="#DejaVuSerif-30" x="63.623047"/>
      </g>
     </g>
    </g>
    <g id="xtick_6">
     <g id="line2d_6"/>
     <g id="text_6">
      <!-- 25 -->
      <g style="fill: #262626" transform="translate(156.746659 95.048656) scale(0.07 -0.07)">
       <use xlink:href="#DejaVuSerif-32"/>
       <use xlink:href="#DejaVuSerif-35" x="63.623047"/>
      </g>
     </g>
    </g>
    <g id="xtick_7">
     <g id="line2d_7"/>
     <g id="text_7">
      <!-- 30 -->
      <g style="fill: #262626" transform="translate(179.944918 95.048656) scale(0.07 -0.07)">
       <defs>
        <path id="DejaVuSerif-33" d="M 622 4469 
Q 988 4606 1323 4678 
Q 1659 4750 1953 4750 
Q 2638 4750 3022 4454 
Q 3406 4159 3406 3634 
Q 3406 3213 3140 2930 
Q 2875 2647 2388 2547 
Q 2963 2466 3280 2130 
Q 3597 1794 3597 1259 
Q 3597 606 3158 257 
Q 2719 -91 1894 -91 
Q 1528 -91 1179 -12 
Q 831 66 488 225 
L 488 1131 
L 838 1131 
Q 869 681 1141 450 
Q 1413 219 1906 219 
Q 2384 219 2661 495 
Q 2938 772 2938 1253 
Q 2938 1803 2653 2086 
Q 2369 2369 1819 2369 
L 1522 2369 
L 1522 2688 
L 1678 2688 
Q 2225 2688 2498 2914 
Q 2772 3141 2772 3597 
Q 2772 4006 2547 4223 
Q 2322 4441 1900 4441 
Q 1478 4441 1245 4241 
Q 1013 4041 972 3647 
L 622 3647 
L 622 4469 
z
" transform="scale(0.015625)"/>
       </defs>
       <use xlink:href="#DejaVuSerif-33"/>
       <use xlink:href="#DejaVuSerif-30" x="63.623047"/>
      </g>
     </g>
    </g>
    <g id="text_8">
     <!-- time -->
     <g style="fill: #262626" transform="translate(107.995054 105.0635) scale(0.06 -0.06)">
      <defs>
       <path id="DejaVuSerif-74" d="M 691 2988 
L 184 2988 
L 184 3322 
L 691 3322 
L 691 4353 
L 1269 4353 
L 1269 3322 
L 2350 3322 
L 2350 2988 
L 1269 2988 
L 1269 878 
Q 1269 456 1350 337 
Q 1431 219 1650 219 
Q 1875 219 1978 351 
Q 2081 484 2088 781 
L 2522 781 
Q 2497 328 2275 118 
Q 2053 -91 1600 -91 
Q 1103 -91 897 129 
Q 691 350 691 878 
L 691 2988 
z
" transform="scale(0.015625)"/>
       <path id="DejaVuSerif-69" d="M 622 4353 
Q 622 4497 726 4603 
Q 831 4709 978 4709 
Q 1122 4709 1226 4603 
Q 1331 4497 1331 4353 
Q 1331 4206 1228 4103 
Q 1125 4000 978 4000 
Q 831 4000 726 4103 
Q 622 4206 622 4353 
z
M 1356 331 
L 1900 331 
L 1900 0 
L 231 0 
L 231 331 
L 781 331 
L 781 2988 
L 231 2988 
L 231 3322 
L 1356 3322 
L 1356 331 
z
" transform="scale(0.015625)"/>
       <path id="DejaVuSerif-6d" d="M 3316 2675 
Q 3481 3041 3739 3227 
Q 3997 3413 4341 3413 
Q 4863 3413 5119 3089 
Q 5375 2766 5375 2113 
L 5375 331 
L 5894 331 
L 5894 0 
L 4300 0 
L 4300 331 
L 4800 331 
L 4800 2047 
Q 4800 2556 4650 2772 
Q 4500 2988 4153 2988 
Q 3769 2988 3567 2697 
Q 3366 2406 3366 1850 
L 3366 331 
L 3866 331 
L 3866 0 
L 2291 0 
L 2291 331 
L 2791 331 
L 2791 2069 
Q 2791 2566 2641 2777 
Q 2491 2988 2144 2988 
Q 1759 2988 1557 2697 
Q 1356 2406 1356 1850 
L 1356 331 
L 1856 331 
L 1856 0 
L 263 0 
L 263 331 
L 781 331 
L 781 2994 
L 231 2994 
L 231 3322 
L 1356 3322 
L 1356 2731 
Q 1516 3063 1762 3238 
Q 2009 3413 2322 3413 
Q 2709 3413 2968 3220 
Q 3228 3028 3316 2675 
z
" transform="scale(0.015625)"/>
       <path id="DejaVuSerif-65" d="M 3469 1600 
L 991 1600 
L 991 1575 
Q 991 903 1244 561 
Q 1497 219 1991 219 
Q 2369 219 2611 417 
Q 2853 616 2950 1006 
L 3413 1006 
Q 3275 459 2904 184 
Q 2534 -91 1931 -91 
Q 1203 -91 761 389 
Q 319 869 319 1663 
Q 319 2450 753 2931 
Q 1188 3413 1894 3413 
Q 2647 3413 3050 2948 
Q 3453 2484 3469 1600 
z
M 2791 1931 
Q 2772 2513 2545 2808 
Q 2319 3103 1894 3103 
Q 1497 3103 1269 2806 
Q 1041 2509 991 1931 
L 2791 1931 
z
" transform="scale(0.015625)"/>
      </defs>
      <use xlink:href="#DejaVuSerif-74"/>
      <use xlink:href="#DejaVuSerif-69" x="40.185547"/>
      <use xlink:href="#DejaVuSerif-6d" x="72.167969"/>
      <use xlink:href="#DejaVuSerif-65" x="166.992188"/>
     </g>
    </g>
   </g>
   <g id="matplotlib.axis_2">
    <g id="ytick_1">
     <g id="line2d_8"/>
     <g id="text_9">
      <!-- −0.02 -->
      <g style="fill: #262626" transform="translate(13.30024 79.420325) scale(0.07 -0.07)">
       <defs>
        <path id="DejaVuSerif-2212" d="M 678 2259 
L 4684 2259 
L 4684 1753 
L 678 1753 
L 678 2259 
z
" transform="scale(0.015625)"/>
        <path id="DejaVuSerif-2e" d="M 603 325 
Q 603 500 722 622 
Q 841 744 1019 744 
Q 1191 744 1312 622 
Q 1434 500 1434 325 
Q 1434 153 1312 31 
Q 1191 -91 1019 -91 
Q 841 -91 722 29 
Q 603 150 603 325 
z
" transform="scale(0.015625)"/>
       </defs>
       <use xlink:href="#DejaVuSerif-2212"/>
       <use xlink:href="#DejaVuSerif-30" x="83.789062"/>
       <use xlink:href="#DejaVuSerif-2e" x="147.412109"/>
       <use xlink:href="#DejaVuSerif-30" x="179.199219"/>
       <use xlink:href="#DejaVuSerif-32" x="242.822266"/>
      </g>
     </g>
    </g>
    <g id="ytick_2">
     <g id="line2d_9"/>
     <g id="text_10">
      <!-- 0.00 -->
      <g style="fill: #262626" transform="translate(19.166021 48.993746) scale(0.07 -0.07)">
       <use xlink:href="#DejaVuSerif-30"/>
       <use xlink:href="#DejaVuSerif-2e" x="63.623047"/>
       <use xlink:href="#DejaVuSerif-30" x="95.410156"/>
       <use xlink:href="#DejaVuSerif-30" x="159.033203"/>
      </g>
     </g>
    </g>
    <g id="ytick_3">
     <g id="line2d_10"/>
     <g id="text_11">
      <!-- 0.02 -->
      <g style="fill: #262626" transform="translate(19.166021 18.567168) scale(0.07 -0.07)">
       <use xlink:href="#DejaVuSerif-30"/>
       <use xlink:href="#DejaVuSerif-2e" x="63.623047"/>
       <use xlink:href="#DejaVuSerif-30" x="95.410156"/>
       <use xlink:href="#DejaVuSerif-32" x="159.033203"/>
      </g>
     </g>
    </g>
    <g id="text_12">
     <!-- $\dot{v}$ $\left[m/s^2\right]$ -->
     <g style="fill: #262626" transform="translate(8.052427 56.764995) rotate(-90) scale(0.06 -0.06)">
      <defs>
       <path id="DejaVuSans-307" d="M -1894 4863 
L -1319 4863 
L -1319 4134 
L -1894 4134 
L -1894 4863 
z
M -1600 3584 
L -1600 3584 
z
" transform="scale(0.015625)"/>
       <path id="DejaVuSans-Oblique-76" d="M 459 3500 
L 1069 3500 
L 1581 525 
L 3256 3500 
L 3866 3500 
L 1875 0 
L 1100 0 
L 459 3500 
z
" transform="scale(0.015625)"/>
       <path id="DejaVuSerif-20" transform="scale(0.015625)"/>
       <path id="DejaVuSans-5b" d="M 550 4863 
L 1875 4863 
L 1875 4416 
L 1125 4416 
L 1125 -397 
L 1875 -397 
L 1875 -844 
L 550 -844 
L 550 4863 
z
" transform="scale(0.015625)"/>
       <path id="DejaVuSans-Oblique-6d" d="M 5747 2113 
L 5338 0 
L 4763 0 
L 5166 2094 
Q 5191 2228 5203 2325 
Q 5216 2422 5216 2491 
Q 5216 2772 5059 2928 
Q 4903 3084 4622 3084 
Q 4203 3084 3875 2770 
Q 3547 2456 3450 1953 
L 3066 0 
L 2491 0 
L 2900 2094 
Q 2925 2209 2937 2307 
Q 2950 2406 2950 2484 
Q 2950 2769 2794 2926 
Q 2638 3084 2363 3084 
Q 1938 3084 1609 2770 
Q 1281 2456 1184 1953 
L 800 0 
L 225 0 
L 909 3500 
L 1484 3500 
L 1375 2956 
Q 1609 3263 1923 3423 
Q 2238 3584 2597 3584 
Q 2978 3584 3223 3384 
Q 3469 3184 3519 2828 
Q 3781 3197 4126 3390 
Q 4472 3584 4856 3584 
Q 5306 3584 5551 3325 
Q 5797 3066 5797 2591 
Q 5797 2488 5784 2364 
Q 5772 2241 5747 2113 
z
" transform="scale(0.015625)"/>
       <path id="DejaVuSans-2f" d="M 1625 4666 
L 2156 4666 
L 531 -594 
L 0 -594 
L 1625 4666 
z
" transform="scale(0.015625)"/>
       <path id="DejaVuSans-Oblique-73" d="M 3200 3397 
L 3091 2853 
Q 2863 2978 2609 3040 
Q 2356 3103 2088 3103 
Q 1634 3103 1373 2948 
Q 1113 2794 1113 2528 
Q 1113 2219 1719 2053 
Q 1766 2041 1788 2034 
L 1972 1978 
Q 2547 1819 2739 1644 
Q 2931 1469 2931 1166 
Q 2931 609 2489 259 
Q 2047 -91 1331 -91 
Q 1053 -91 747 -37 
Q 441 16 72 128 
L 184 722 
Q 500 559 806 475 
Q 1113 391 1394 391 
Q 1816 391 2080 572 
Q 2344 753 2344 1031 
Q 2344 1331 1650 1516 
L 1591 1531 
L 1394 1581 
Q 956 1697 753 1886 
Q 550 2075 550 2369 
Q 550 2928 970 3256 
Q 1391 3584 2113 3584 
Q 2397 3584 2667 3537 
Q 2938 3491 3200 3397 
z
" transform="scale(0.015625)"/>
       <path id="DejaVuSans-32" d="M 1228 531 
L 3431 531 
L 3431 0 
L 469 0 
L 469 531 
Q 828 903 1448 1529 
Q 2069 2156 2228 2338 
Q 2531 2678 2651 2914 
Q 2772 3150 2772 3378 
Q 2772 3750 2511 3984 
Q 2250 4219 1831 4219 
Q 1534 4219 1204 4116 
Q 875 4013 500 3803 
L 500 4441 
Q 881 4594 1212 4672 
Q 1544 4750 1819 4750 
Q 2544 4750 2975 4387 
Q 3406 4025 3406 3419 
Q 3406 3131 3298 2873 
Q 3191 2616 2906 2266 
Q 2828 2175 2409 1742 
Q 1991 1309 1228 531 
z
" transform="scale(0.015625)"/>
       <path id="DejaVuSans-5d" d="M 1947 4863 
L 1947 -844 
L 622 -844 
L 622 -397 
L 1369 -397 
L 1369 4416 
L 622 4416 
L 622 4863 
L 1947 4863 
z
" transform="scale(0.015625)"/>
      </defs>
      <use xlink:href="#DejaVuSans-307" transform="translate(62.388672 11.953125)"/>
      <use xlink:href="#DejaVuSans-Oblique-76" transform="translate(0 0.765625)"/>
      <use xlink:href="#DejaVuSerif-20" transform="translate(59.179688 0.765625)"/>
      <use xlink:href="#DejaVuSans-5b" transform="translate(90.966797 0.765625)"/>
      <use xlink:href="#DejaVuSans-Oblique-6d" transform="translate(129.980469 0.765625)"/>
      <use xlink:href="#DejaVuSans-2f" transform="translate(227.392578 0.765625)"/>
      <use xlink:href="#DejaVuSans-Oblique-73" transform="translate(261.083984 0.765625)"/>
      <use xlink:href="#DejaVuSans-32" transform="translate(317.83349 39.046875) scale(0.7)"/>
      <use xlink:href="#DejaVuSans-5d" transform="translate(365.103997 0.765625)"/>
     </g>
    </g>
   </g>
   <g id="line2d_11">
    <path d="M 45.209115 45.408979 
L 45.719454 45.206215 
L 46.693818 44.662176 
L 47.528983 43.947271 
L 48.364051 42.856388 
L 49.477576 40.759632 
L 50.312792 38.683007 
L 51.194257 35.83116 
L 51.890191 33.485778 
L 52.446953 32.621285 
L 52.771794 32.4105 
L 53.189325 32.388987 
L 53.560498 32.54621 
L 53.653286 32.488927 
L 53.699683 32.574288 
L 53.931628 32.655715 
L 54.534806 32.872008 
L 55.045307 32.782589 
L 55.833973 32.001674 
L 56.483585 30.612197 
L 57.550584 27.744718 
L 58.524897 24.915885 
L 58.757 24.42347 
L 59.267269 23.489996 
L 60.009581 22.914571 
L 60.287969 22.791874 
L 60.566344 22.675954 
L 61.262366 22.863217 
L 61.494279 23.044305 
L 61.819068 23.533106 
L 62.051051 23.861198 
L 62.607819 25.031186 
L 62.978958 25.821314 
L 63.582141 27.312192 
L 64.324457 28.534025 
L 64.974138 29.519037 
L 65.577172 30.137991 
L 65.902036 30.446455 
L 66.458716 30.55931 
L 66.969054 30.366918 
L 67.20106 30.23772 
L 67.525808 29.95845 
L 67.61874 29.911905 
L 67.897008 29.769312 
L 68.268231 29.586016 
L 69.93851 28.581703 
L 70.263198 28.568712 
L 71.655102 29.391832 
L 72.86143 30.982255 
L 73.650208 32.077701 
L 73.882121 32.355763 
L 74.670895 33.427385 
L 75.552452 34.281276 
L 77.918632 36.159037 
L 79.310528 38.497778 
L 79.913701 40.091994 
L 80.609658 42.541348 
L 81.259362 45.565315 
L 83.161434 54.880222 
L 84.506979 60.384049 
L 86.873183 67.691825 
L 87.337125 68.559576 
L 87.615514 69.034814 
L 88.729012 71.604528 
L 89.378591 73.690438 
L 90.02816 76.005376 
L 91.466452 80.519934 
L 91.930385 81.362603 
L 91.976791 81.300588 
L 92.162363 81.699268 
L 92.347991 81.894253 
L 92.579927 82.149894 
L 93.368668 82.404133 
L 93.69349 82.205554 
L 93.786223 82.153692 
L 94.20381 81.770041 
L 94.48218 81.35144 
L 95.085348 80.060628 
L 95.317447 79.478672 
L 95.595761 78.746668 
L 96.894942 75.761043 
L 97.126786 75.39954 
L 97.451654 74.834318 
L 98.797116 73.754546 
L 99.214727 73.812221 
L 99.446621 74.057507 
L 99.63223 74.197907 
L 99.910586 74.594949 
L 100.003421 74.617892 
L 100.281782 75.026366 
L 100.467372 75.295383 
L 100.792148 75.846775 
L 101.163339 76.40226 
L 101.348897 76.547424 
L 101.720046 76.909655 
L 102.276878 77.270883 
L 102.508842 77.197933 
L 103.065535 76.764858 
L 103.715124 75.624718 
L 106.730879 68.52419 
L 107.612427 67.245959 
L 108.633127 66.497602 
L 109.050719 66.549816 
L 109.282678 66.580228 
L 109.51467 66.576899 
L 109.746639 66.584892 
L 110.257107 66.782766 
L 110.488969 66.853152 
L 110.721049 66.895862 
L 111.092142 67.010642 
L 112.437646 66.757328 
L 112.808953 66.508829 
L 113.040861 66.290739 
L 113.551148 65.824366 
L 113.829518 65.487756 
L 115.546278 63.456423 
L 116.102989 62.624915 
L 117.030966 61.63679 
L 118.283974 60.965444 
L 118.329994 60.979435 
L 118.515632 60.825842 
L 118.701227 60.753548 
L 119.258031 60.610439 
L 119.907504 60.662053 
L 120.417856 60.654215 
L 120.881826 60.726483 
L 121.160205 60.792902 
L 121.531433 60.726045 
L 121.717033 60.750205 
L 123.108836 60.858423 
L 125.475128 59.369863 
L 126.124605 59.146275 
L 126.495814 59.004869 
L 126.867046 58.905677 
L 127.516496 58.36068 
L 127.887682 58.038425 
L 128.351675 57.774737 
L 128.676432 57.583727 
L 129.929179 57.221614 
L 130.810699 57.041516 
L 131.042714 57.011938 
L 131.692201 56.898105 
L 132.202586 56.908699 
L 132.85209 56.548369 
L 133.176894 56.358601 
L 134.058405 56.185139 
L 134.383189 56.076199 
L 134.707988 55.974703 
L 135.032755 55.765348 
L 135.589634 55.435841 
L 138.326912 54.879515 
L 140.182745 53.616968 
L 141.621051 52.539263 
L 142.131482 52.388809 
L 142.734577 52.341346 
L 143.89449 52.433875 
L 145.008015 51.651246 
L 145.471957 51.110635 
L 145.982393 50.485134 
L 148.255809 48.116835 
L 148.673345 47.520011 
L 149.50845 45.606627 
L 150.018821 44.028776 
L 150.993157 40.265556 
L 152.338725 34.239342 
L 152.988216 31.632865 
L 154.751256 26.13349 
L 155.076124 25.198889 
L 156.003981 22.562717 
L 157.117492 19.837333 
L 157.535177 18.782005 
L 158.045488 17.485446 
L 161.014777 9.600385 
L 161.107663 9.422276 
L 162.08192 7.54606 
L 162.174815 7.413398 
L 162.406793 7.148685 
L 162.592258 6.939577 
L 162.638664 6.968104 
L 162.870693 6.7834 
L 163.056237 6.856472 
L 163.241851 6.857403 
L 163.798568 7.334917 
L 164.03062 7.745101 
L 164.169777 7.913987 
L 164.819296 9.163078 
L 165.190533 10.09002 
L 166.67517 13.64595 
L 166.814351 13.838208 
L 167.185537 14.298831 
L 167.463916 14.522204 
L 167.695884 14.606637 
L 167.9279 14.792915 
L 168.299048 14.987035 
L 168.623871 15.151751 
L 168.809387 15.216272 
L 168.995052 15.311018 
L 169.644687 15.259967 
L 170.015771 15.145918 
L 170.294312 15.033444 
L 170.479689 14.850716 
L 170.618888 14.781201 
L 171.036429 14.533217 
L 171.222066 14.493187 
L 171.407648 14.407019 
L 172.33555 14.5346 
L 172.660432 14.732719 
L 172.985111 14.884777 
L 173.356329 15.095429 
L 173.588275 15.306778 
L 173.820239 15.605363 
L 176.325646 19.894694 
L 177.021668 21.204045 
L 177.903169 22.286244 
L 178.599089 22.818514 
L 178.923842 23.143119 
L 179.295019 23.561387 
L 179.944588 23.953204 
L 180.64055 24.088424 
L 180.826182 24.021145 
L 181.10452 24.090183 
L 181.382853 24.250909 
L 181.754071 24.519989 
L 182.867694 25.424502 
L 183.424313 25.688261 
L 184.120289 26.326767 
L 184.213049 26.349499 
L 184.352244 26.488669 
L 184.352244 26.488669 
" clip-path="url(#p4f247f0919)" style="fill: none; stroke: #2a2eec; stroke-width: 0.4; stroke-linecap: round"/>
   </g>
   <g id="line2d_12">
    <path d="M 45.209115 45.458199 
L 45.719454 45.26485 
L 46.786546 44.699777 
L 47.296963 44.327916 
L 48.224898 43.353962 
L 49.431194 41.431683 
L 50.034334 40.165079 
L 50.776688 38.145231 
L 51.472659 35.467656 
L 52.029385 33.589612 
L 52.864527 31.954479 
L 53.6072 31.065186 
L 53.792457 30.867844 
L 53.978094 30.724413 
L 54.952351 29.854783 
L 55.045307 29.770788 
L 55.462699 29.341382 
L 55.787521 28.96588 
L 56.390662 28.070533 
L 57.225869 27.043877 
L 58.293026 25.604521 
L 58.664096 25.280179 
L 58.896097 25.266891 
L 59.128061 25.132911 
L 59.221021 25.097289 
L 59.452906 25.019655 
L 59.731327 25.05555 
L 60.14878 25.185294 
L 60.427159 25.188061 
L 60.751935 25.13474 
L 60.983927 25.134687 
L 61.355089 25.196406 
L 61.587137 25.275105 
L 61.911857 25.420329 
L 62.143867 25.616091 
L 62.32949 25.738949 
L 62.561417 25.937766 
L 63.118319 26.437138 
L 63.442914 26.819328 
L 63.90693 27.228399 
L 64.510029 27.591875 
L 64.834856 27.898913 
L 65.298779 28.183847 
L 65.902036 28.786755 
L 67.061903 29.336333 
L 68.917731 29.859166 
L 70.541586 30.096491 
L 71.052008 30.31611 
L 71.701522 30.520211 
L 73.510991 31.717967 
L 73.742946 31.843591 
L 74.067721 32.103251 
L 74.299695 32.287671 
L 74.810075 32.767432 
L 77.26909 34.955124 
L 78.057822 35.882184 
L 78.753816 37.09516 
L 79.403316 38.472039 
L 80.238463 40.826292 
L 80.841631 43.068964 
L 82.372712 50.601113 
L 86.270029 69.287142 
L 86.873183 71.219993 
L 87.290849 72.218252 
L 87.801086 73.282372 
L 88.172272 73.936037 
L 88.589836 74.707267 
L 88.868271 75.202878 
L 89.47136 76.400325 
L 91.14164 78.820135 
L 91.512793 79.083894 
L 91.605675 79.108032 
L 91.884003 79.212839 
L 92.023498 79.220586 
L 92.162363 79.277799 
L 92.347991 79.300213 
L 92.533572 79.374997 
L 93.507848 79.503131 
L 94.157511 79.414356 
L 94.34299 79.407565 
L 94.667794 79.251172 
L 94.899767 79.062037 
L 95.178248 78.79267 
L 95.224529 78.790878 
L 95.410156 78.561766 
L 95.549314 78.427982 
L 95.874117 78.006097 
L 96.477249 77.345676 
L 96.570014 77.345737 
L 97.080542 77.026811 
L 97.219616 76.909547 
L 99.400299 75.327834 
L 99.957011 75.304582 
L 100.049943 75.322207 
L 100.235413 75.329403 
L 100.652995 75.460765 
L 100.745724 75.577798 
L 100.792148 75.517788 
L 101.024093 75.607053 
L 101.209679 75.599218 
L 101.534455 75.58017 
L 101.766484 75.575968 
L 101.952075 75.598326 
L 102.183988 75.563998 
L 102.369634 75.454803 
L 102.462381 75.433824 
L 102.833604 75.074997 
L 103.158342 74.746302 
L 103.436884 74.325239 
L 103.622414 74.062648 
L 103.993484 73.421032 
L 104.31826 72.840859 
L 104.689455 72.28966 
L 104.875065 72.044309 
L 106.359716 69.774997 
L 106.777275 69.307829 
L 107.658791 68.446678 
L 108.772307 67.630453 
L 109.700238 67.147574 
L 110.025069 66.972645 
L 110.349789 66.844505 
L 110.674574 66.669088 
L 111.741707 66.073719 
L 112.066469 65.822746 
L 112.53049 65.509486 
L 113.040861 65.070231 
L 117.448512 62.048888 
L 117.634158 62.004855 
L 119.721908 61.005597 
L 120.000339 60.984168 
L 120.510649 60.738357 
L 120.742674 60.699548 
L 121.160205 60.617945 
L 121.531433 60.419107 
L 121.670558 60.385439 
L 121.902536 60.311937 
L 122.088173 60.241118 
L 122.598567 60.325856 
L 122.969655 60.33121 
L 123.155269 60.241872 
L 125.057638 59.226917 
L 125.335859 59.227828 
L 127.145412 58.943582 
L 127.609409 58.584773 
L 128.212471 58.18854 
L 128.583629 57.992401 
L 129.094056 57.657923 
L 131.924197 56.664267 
L 132.434531 56.523043 
L 133.176894 56.050046 
L 134.615186 55.89147 
L 135.728735 55.418807 
L 136.239041 55.3869 
L 136.517439 55.325875 
L 137.027921 55.359464 
L 137.352581 55.30342 
L 138.883754 54.654334 
L 139.718803 53.908867 
L 140.785974 52.971119 
L 141.296326 52.466496 
L 142.224215 52.154996 
L 142.734577 52.181599 
L 143.987422 52.422732 
L 144.404842 52.208592 
L 145.471957 51.357988 
L 145.982393 50.794572 
L 148.812525 47.799855 
L 149.972559 44.989169 
L 151.039609 41.073314 
L 152.013875 36.609869 
L 155.029649 23.436258 
L 156.050382 19.47843 
L 157.581448 15.101826 
L 157.767201 14.701418 
L 158.091824 14.043121 
L 158.370222 13.609213 
L 159.344535 12.183835 
L 159.669333 11.710702 
L 160.365225 11.046481 
L 160.504508 10.995661 
L 160.690043 10.815112 
L 162.731452 9.396416 
L 162.777881 9.472718 
L 162.824417 9.404712 
L 162.963519 9.362315 
L 163.149035 9.331575 
L 163.334663 9.382721 
L 163.47382 9.379349 
L 164.077044 9.686646 
L 164.308962 9.783622 
L 164.819296 10.242706 
L 165.051325 10.553191 
L 165.329676 10.806013 
L 165.561728 11.034315 
L 166.072043 11.654646 
L 166.67517 12.572293 
L 166.814351 12.659012 
L 167.092795 12.827506 
L 168.299048 13.475776 
L 168.716622 13.836569 
L 169.041388 14.158002 
L 169.273412 14.431182 
L 169.366182 14.344791 
L 169.459003 14.519787 
L 169.505516 14.484401 
L 169.551759 14.483702 
L 169.690953 14.583514 
L 170.015771 14.786885 
L 170.386943 15.012339 
L 170.479689 14.91415 
L 170.526142 14.968941 
L 170.711677 14.982564 
L 171.454016 15.259355 
L 171.732386 15.494631 
L 171.917982 15.573993 
L 172.799557 16.150141 
L 173.588275 16.54407 
L 173.68123 16.660192 
L 173.727543 16.614602 
L 174.191425 17.115644 
L 174.562588 17.401907 
L 174.794575 17.67897 
L 175.908082 18.915169 
L 177.624749 21.270647 
L 179.202281 22.95345 
L 180.0374 23.86092 
L 180.826182 24.271245 
L 181.150912 24.488022 
L 182.682015 26.093956 
L 183.470724 26.521308 
L 183.888362 26.846331 
L 184.352244 27.160063 
L 184.352244 27.160063 
" clip-path="url(#p4f247f0919)" style="fill: none; stroke: #fa7c17; stroke-width: 0.4; stroke-linecap: round"/>
   </g>
   <g id="patch_3">
    <path d="M 38.251959 86.229749 
L 38.251959 3.00024 
" style="fill: none; stroke: #000000; stroke-linejoin: miter; stroke-linecap: square"/>
   </g>
   <g id="patch_4">
    <path d="M 38.251959 86.22975 
L 191.3094 86.22975 
" style="fill: none; stroke: #000000; stroke-linejoin: miter; stroke-linecap: square"/>
   </g>
   <g id="legend_1">
    <g id="line2d_13">
     <path d="M 78.431539 12.169146 
L 85.431539 12.169146 
L 92.431539 12.169146 
" style="fill: none; stroke: #2a2eec; stroke-width: 0.4; stroke-linecap: round"/>
    </g>
    <g id="text_13">
     <!-- original data -->
     <g style="fill: #262626" transform="translate(98.031539 14.619146) scale(0.07 -0.07)">
      <defs>
       <path id="DejaVuSerif-6f" d="M 1925 219 
Q 2388 219 2623 584 
Q 2859 950 2859 1663 
Q 2859 2375 2623 2739 
Q 2388 3103 1925 3103 
Q 1463 3103 1227 2739 
Q 991 2375 991 1663 
Q 991 950 1228 584 
Q 1466 219 1925 219 
z
M 1925 -91 
Q 1200 -91 759 389 
Q 319 869 319 1663 
Q 319 2456 758 2934 
Q 1197 3413 1925 3413 
Q 2653 3413 3092 2934 
Q 3531 2456 3531 1663 
Q 3531 869 3092 389 
Q 2653 -91 1925 -91 
z
" transform="scale(0.015625)"/>
       <path id="DejaVuSerif-72" d="M 3059 3328 
L 3059 2497 
L 2728 2497 
Q 2713 2744 2591 2866 
Q 2469 2988 2234 2988 
Q 1809 2988 1582 2694 
Q 1356 2400 1356 1850 
L 1356 331 
L 2022 331 
L 2022 0 
L 263 0 
L 263 331 
L 781 331 
L 781 2994 
L 231 2994 
L 231 3322 
L 1356 3322 
L 1356 2731 
Q 1525 3078 1790 3245 
Q 2056 3413 2438 3413 
Q 2578 3413 2733 3391 
Q 2888 3369 3059 3328 
z
" transform="scale(0.015625)"/>
       <path id="DejaVuSerif-67" d="M 3359 2988 
L 3359 72 
Q 3359 -644 2965 -1033 
Q 2572 -1422 1844 -1422 
Q 1516 -1422 1216 -1362 
Q 916 -1303 641 -1184 
L 641 -488 
L 941 -488 
Q 997 -813 1206 -963 
Q 1416 -1113 1806 -1113 
Q 2313 -1113 2548 -827 
Q 2784 -541 2784 72 
L 2784 519 
Q 2616 206 2355 57 
Q 2094 -91 1709 -91 
Q 1097 -91 708 395 
Q 319 881 319 1663 
Q 319 2444 706 2928 
Q 1094 3413 1709 3413 
Q 2094 3413 2355 3264 
Q 2616 3116 2784 2803 
L 2784 3322 
L 3909 3322 
L 3909 2988 
L 3359 2988 
z
M 2784 1825 
Q 2784 2422 2554 2737 
Q 2325 3053 1888 3053 
Q 1444 3053 1217 2703 
Q 991 2353 991 1663 
Q 991 975 1217 622 
Q 1444 269 1888 269 
Q 2325 269 2554 583 
Q 2784 897 2784 1497 
L 2784 1825 
z
" transform="scale(0.015625)"/>
       <path id="DejaVuSerif-6e" d="M 263 0 
L 263 331 
L 781 331 
L 781 2988 
L 231 2988 
L 231 3322 
L 1356 3322 
L 1356 2731 
Q 1516 3069 1770 3241 
Q 2025 3413 2363 3413 
Q 2913 3413 3172 3097 
Q 3431 2781 3431 2113 
L 3431 331 
L 3944 331 
L 3944 0 
L 2356 0 
L 2356 331 
L 2853 331 
L 2853 1931 
Q 2853 2541 2703 2767 
Q 2553 2994 2175 2994 
Q 1775 2994 1565 2701 
Q 1356 2409 1356 1850 
L 1356 331 
L 1856 331 
L 1856 0 
L 263 0 
z
" transform="scale(0.015625)"/>
       <path id="DejaVuSerif-61" d="M 2547 1044 
L 2547 1747 
L 1806 1747 
Q 1378 1747 1168 1562 
Q 959 1378 959 997 
Q 959 650 1171 447 
Q 1384 244 1747 244 
Q 2106 244 2326 466 
Q 2547 688 2547 1044 
z
M 3122 2075 
L 3122 331 
L 3634 331 
L 3634 0 
L 2547 0 
L 2547 359 
Q 2356 128 2106 18 
Q 1856 -91 1522 -91 
Q 969 -91 644 203 
Q 319 497 319 997 
Q 319 1513 691 1797 
Q 1063 2081 1741 2081 
L 2547 2081 
L 2547 2309 
Q 2547 2688 2317 2895 
Q 2088 3103 1672 3103 
Q 1328 3103 1125 2947 
Q 922 2791 872 2484 
L 575 2484 
L 575 3156 
Q 875 3284 1158 3348 
Q 1441 3413 1709 3413 
Q 2400 3413 2761 3070 
Q 3122 2728 3122 2075 
z
" transform="scale(0.015625)"/>
       <path id="DejaVuSerif-6c" d="M 1313 331 
L 1856 331 
L 1856 0 
L 184 0 
L 184 331 
L 738 331 
L 738 4531 
L 184 4531 
L 184 4863 
L 1313 4863 
L 1313 331 
z
" transform="scale(0.015625)"/>
       <path id="DejaVuSerif-64" d="M 3359 331 
L 3909 331 
L 3909 0 
L 2784 0 
L 2784 519 
Q 2616 206 2355 57 
Q 2094 -91 1709 -91 
Q 1097 -91 708 395 
Q 319 881 319 1663 
Q 319 2444 706 2928 
Q 1094 3413 1709 3413 
Q 2094 3413 2355 3264 
Q 2616 3116 2784 2803 
L 2784 4531 
L 2241 4531 
L 2241 4863 
L 3359 4863 
L 3359 331 
z
M 2784 1497 
L 2784 1825 
Q 2784 2422 2554 2737 
Q 2325 3053 1888 3053 
Q 1444 3053 1217 2703 
Q 991 2353 991 1663 
Q 991 975 1217 622 
Q 1444 269 1888 269 
Q 2325 269 2554 583 
Q 2784 897 2784 1497 
z
" transform="scale(0.015625)"/>
      </defs>
      <use xlink:href="#DejaVuSerif-6f"/>
      <use xlink:href="#DejaVuSerif-72" x="60.205078"/>
      <use xlink:href="#DejaVuSerif-69" x="108.007812"/>
      <use xlink:href="#DejaVuSerif-67" x="139.990234"/>
      <use xlink:href="#DejaVuSerif-69" x="204.003906"/>
      <use xlink:href="#DejaVuSerif-6e" x="235.986328"/>
      <use xlink:href="#DejaVuSerif-61" x="300.390625"/>
      <use xlink:href="#DejaVuSerif-6c" x="360.009766"/>
      <use xlink:href="#DejaVuSerif-20" x="391.992188"/>
      <use xlink:href="#DejaVuSerif-64" x="423.779297"/>
      <use xlink:href="#DejaVuSerif-61" x="487.792969"/>
      <use xlink:href="#DejaVuSerif-74" x="547.412109"/>
      <use xlink:href="#DejaVuSerif-61" x="587.597656"/>
     </g>
    </g>
    <g id="line2d_14">
     <path d="M 78.431539 27.19049 
L 85.431539 27.19049 
L 92.431539 27.19049 
" style="fill: none; stroke: #fa7c17; stroke-width: 0.4; stroke-linecap: round"/>
    </g>
    <g id="text_14">
     <!-- transformed to -->
     <g style="fill: #262626" transform="translate(98.031539 24.993365) scale(0.07 -0.07)">
      <defs>
       <path id="DejaVuSerif-73" d="M 359 184 
L 359 959 
L 691 959 
Q 703 588 923 403 
Q 1144 219 1575 219 
Q 1963 219 2166 364 
Q 2369 509 2369 788 
Q 2369 1006 2220 1140 
Q 2072 1275 1594 1428 
L 1178 1569 
Q 750 1706 558 1912 
Q 366 2119 366 2438 
Q 366 2894 700 3153 
Q 1034 3413 1625 3413 
Q 1888 3413 2178 3344 
Q 2469 3275 2778 3144 
L 2778 2419 
L 2447 2419 
Q 2434 2741 2221 2922 
Q 2009 3103 1644 3103 
Q 1281 3103 1095 2975 
Q 909 2847 909 2591 
Q 909 2381 1050 2254 
Q 1191 2128 1613 1997 
L 2069 1856 
Q 2541 1709 2748 1489 
Q 2956 1269 2956 922 
Q 2956 450 2595 179 
Q 2234 -91 1600 -91 
Q 1278 -91 972 -22 
Q 666 47 359 184 
z
" transform="scale(0.015625)"/>
       <path id="DejaVuSerif-66" d="M 2753 4078 
L 2450 4078 
Q 2447 4313 2317 4434 
Q 2188 4556 1941 4556 
Q 1619 4556 1487 4379 
Q 1356 4203 1356 3750 
L 1356 3322 
L 2284 3322 
L 2284 2988 
L 1356 2988 
L 1356 331 
L 2094 331 
L 2094 0 
L 231 0 
L 231 331 
L 781 331 
L 781 2988 
L 231 2988 
L 231 3322 
L 781 3322 
L 781 3738 
Q 781 4294 1070 4578 
Q 1359 4863 1919 4863 
Q 2128 4863 2337 4825 
Q 2547 4788 2753 4709 
L 2753 4078 
z
" transform="scale(0.015625)"/>
      </defs>
      <use xlink:href="#DejaVuSerif-74"/>
      <use xlink:href="#DejaVuSerif-72" x="40.185547"/>
      <use xlink:href="#DejaVuSerif-61" x="87.988281"/>
      <use xlink:href="#DejaVuSerif-6e" x="147.607422"/>
      <use xlink:href="#DejaVuSerif-73" x="212.011719"/>
      <use xlink:href="#DejaVuSerif-66" x="263.330078"/>
      <use xlink:href="#DejaVuSerif-6f" x="300.341797"/>
      <use xlink:href="#DejaVuSerif-72" x="360.546875"/>
      <use xlink:href="#DejaVuSerif-6d" x="408.349609"/>
      <use xlink:href="#DejaVuSerif-65" x="503.173828"/>
      <use xlink:href="#DejaVuSerif-64" x="562.353516"/>
      <use xlink:href="#DejaVuSerif-20" x="626.367188"/>
      <use xlink:href="#DejaVuSerif-74" x="658.154297"/>
      <use xlink:href="#DejaVuSerif-6f" x="698.339844"/>
     </g>
     <!--  roll centre -->
     <g style="fill: #262626" transform="translate(98.031539 32.831834) scale(0.07 -0.07)">
      <defs>
       <path id="DejaVuSerif-63" d="M 3291 997 
Q 3169 466 2822 187 
Q 2475 -91 1925 -91 
Q 1200 -91 759 389 
Q 319 869 319 1663 
Q 319 2459 759 2936 
Q 1200 3413 1925 3413 
Q 2241 3413 2553 3339 
Q 2866 3266 3181 3116 
L 3181 2266 
L 2847 2266 
Q 2781 2703 2561 2903 
Q 2341 3103 1931 3103 
Q 1466 3103 1228 2742 
Q 991 2381 991 1663 
Q 991 944 1227 581 
Q 1463 219 1931 219 
Q 2303 219 2525 412 
Q 2747 606 2828 997 
L 3291 997 
z
" transform="scale(0.015625)"/>
      </defs>
      <use xlink:href="#DejaVuSerif-20"/>
      <use xlink:href="#DejaVuSerif-72" x="31.787109"/>
      <use xlink:href="#DejaVuSerif-6f" x="79.589844"/>
      <use xlink:href="#DejaVuSerif-6c" x="139.794922"/>
      <use xlink:href="#DejaVuSerif-6c" x="171.777344"/>
      <use xlink:href="#DejaVuSerif-20" x="203.759766"/>
      <use xlink:href="#DejaVuSerif-63" x="235.546875"/>
      <use xlink:href="#DejaVuSerif-65" x="291.552734"/>
      <use xlink:href="#DejaVuSerif-6e" x="350.732422"/>
      <use xlink:href="#DejaVuSerif-74" x="415.136719"/>
      <use xlink:href="#DejaVuSerif-72" x="455.322266"/>
      <use xlink:href="#DejaVuSerif-65" x="503.125"/>
     </g>
    </g>
   </g>
  </g>
 </g>
 <defs>
  <clipPath id="p4f247f0919">
   <rect x="38.251959" y="3.00024" width="153.057441" height="83.229509"/>
  </clipPath>
 </defs>
</svg>
