<?xml version="1.0" encoding="utf-8" standalone="no"?>
<!DOCTYPE svg PUBLIC "-//W3C//DTD SVG 1.1//EN"
  "http://www.w3.org/Graphics/SVG/1.1/DTD/svg11.dtd">
<svg xmlns:xlink="http://www.w3.org/1999/xlink" width="291.46446pt" height="163.967328pt" viewBox="0 0 291.46446 163.967328" xmlns="http://www.w3.org/2000/svg" version="1.1">
 <metadata>
  <rdf:RDF xmlns:dc="http://purl.org/dc/elements/1.1/" xmlns:cc="http://creativecommons.org/ns#" xmlns:rdf="http://www.w3.org/1999/02/22-rdf-syntax-ns#">
   <cc:Work>
    <dc:type rdf:resource="http://purl.org/dc/dcmitype/StillImage"/>
    <dc:date>2025-01-02T15:45:28.682876</dc:date>
    <dc:format>image/svg+xml</dc:format>
    <dc:creator>
     <cc:Agent>
      <dc:title>Matplotlib v3.8.2, https://matplotlib.org/</dc:title>
     </cc:Agent>
    </dc:creator>
   </cc:Work>
  </rdf:RDF>
 </metadata>
 <defs>
  <style type="text/css">*{stroke-linejoin: round; stroke-linecap: butt}</style>
 </defs>
 <g id="figure_1">
  <g id="patch_1">
   <path d="M 0 163.967328 
L 291.46446 163.967328 
L 291.46446 0 
L 0 0 
z
" style="fill: #ffffff"/>
  </g>
  <g id="axes_1">
   <g id="patch_2">
    <path d="M 31.080396 27.712051 
L 271.933855 27.712051 
L 271.933855 3.00024 
L 31.080396 3.00024 
z
" style="fill: #ffffff"/>
   </g>
   <g id="matplotlib.axis_1">
    <g id="xtick_1">
     <g id="line2d_1"/>
    </g>
    <g id="xtick_2">
     <g id="line2d_2"/>
    </g>
    <g id="xtick_3">
     <g id="line2d_3"/>
    </g>
    <g id="xtick_4">
     <g id="line2d_4"/>
    </g>
    <g id="xtick_5">
     <g id="line2d_5"/>
    </g>
    <g id="xtick_6">
     <g id="line2d_6"/>
    </g>
    <g id="xtick_7">
     <g id="line2d_7"/>
    </g>
    <g id="xtick_8">
     <g id="line2d_8"/>
    </g>
    <g id="xtick_9">
     <g id="line2d_9"/>
    </g>
    <g id="xtick_10">
     <g id="line2d_10"/>
    </g>
    <g id="xtick_11">
     <g id="line2d_11"/>
    </g>
    <g id="xtick_12">
     <g id="line2d_12"/>
    </g>
    <g id="xtick_13">
     <g id="line2d_13"/>
    </g>
    <g id="xtick_14">
     <g id="line2d_14"/>
    </g>
   </g>
   <g id="matplotlib.axis_2">
    <g id="ytick_1">
     <g id="line2d_15"/>
     <g id="text_1">
      <!-- −5 -->
      <g style="fill: #262626" transform="translate(17.260865 26.947258) scale(0.07 -0.07)">
       <defs>
        <path id="DejaVuSerif-2212" d="M 678 2259 
L 4684 2259 
L 4684 1753 
L 678 1753 
L 678 2259 
z
" transform="scale(0.015625)"/>
        <path id="DejaVuSerif-35" d="M 3219 4666 
L 3219 4153 
L 1081 4153 
L 1081 2816 
Q 1244 2928 1461 2984 
Q 1678 3041 1947 3041 
Q 2703 3041 3140 2622 
Q 3578 2203 3578 1478 
Q 3578 738 3136 323 
Q 2694 -91 1894 -91 
Q 1572 -91 1234 -12 
Q 897 66 544 225 
L 544 1131 
L 897 1131 
Q 925 688 1179 453 
Q 1434 219 1894 219 
Q 2388 219 2653 544 
Q 2919 869 2919 1478 
Q 2919 2084 2655 2407 
Q 2391 2731 1894 2731 
Q 1613 2731 1398 2631 
Q 1184 2531 1019 2322 
L 750 2322 
L 750 4666 
L 3219 4666 
z
" transform="scale(0.015625)"/>
       </defs>
       <use xlink:href="#DejaVuSerif-2212"/>
       <use xlink:href="#DejaVuSerif-35" x="83.789062"/>
      </g>
     </g>
    </g>
    <g id="ytick_2">
     <g id="line2d_16"/>
     <g id="text_2">
      <!-- 0 -->
      <g style="fill: #262626" transform="translate(23.126646 8.731774) scale(0.07 -0.07)">
       <defs>
        <path id="DejaVuSerif-30" d="M 2034 219 
Q 2513 219 2750 744 
Q 2988 1269 2988 2328 
Q 2988 3391 2750 3916 
Q 2513 4441 2034 4441 
Q 1556 4441 1318 3916 
Q 1081 3391 1081 2328 
Q 1081 1269 1318 744 
Q 1556 219 2034 219 
z
M 2034 -91 
Q 1275 -91 848 546 
Q 422 1184 422 2328 
Q 422 3475 848 4112 
Q 1275 4750 2034 4750 
Q 2797 4750 3222 4112 
Q 3647 3475 3647 2328 
Q 3647 1184 3222 546 
Q 2797 -91 2034 -91 
z
" transform="scale(0.015625)"/>
       </defs>
       <use xlink:href="#DejaVuSerif-30"/>
      </g>
     </g>
    </g>
    <g id="text_3">
     <!-- $y_0$ $[m]$ -->
     <g style="fill: #262626" transform="translate(12.000865 24.776145) rotate(-90) scale(0.06 -0.06)">
      <defs>
       <path id="DejaVuSans-Oblique-79" d="M 1588 -325 
Q 1188 -997 936 -1164 
Q 684 -1331 294 -1331 
L -159 -1331 
L -63 -850 
L 269 -850 
Q 509 -850 678 -719 
Q 847 -588 1056 -206 
L 1234 128 
L 459 3500 
L 1069 3500 
L 1650 819 
L 3256 3500 
L 3859 3500 
L 1588 -325 
z
" transform="scale(0.015625)"/>
       <path id="DejaVuSans-30" d="M 2034 4250 
Q 1547 4250 1301 3770 
Q 1056 3291 1056 2328 
Q 1056 1369 1301 889 
Q 1547 409 2034 409 
Q 2525 409 2770 889 
Q 3016 1369 3016 2328 
Q 3016 3291 2770 3770 
Q 2525 4250 2034 4250 
z
M 2034 4750 
Q 2819 4750 3233 4129 
Q 3647 3509 3647 2328 
Q 3647 1150 3233 529 
Q 2819 -91 2034 -91 
Q 1250 -91 836 529 
Q 422 1150 422 2328 
Q 422 3509 836 4129 
Q 1250 4750 2034 4750 
z
" transform="scale(0.015625)"/>
       <path id="DejaVuSerif-20" transform="scale(0.015625)"/>
       <path id="DejaVuSans-5b" d="M 550 4863 
L 1875 4863 
L 1875 4416 
L 1125 4416 
L 1125 -397 
L 1875 -397 
L 1875 -844 
L 550 -844 
L 550 4863 
z
" transform="scale(0.015625)"/>
       <path id="DejaVuSans-Oblique-6d" d="M 5747 2113 
L 5338 0 
L 4763 0 
L 5166 2094 
Q 5191 2228 5203 2325 
Q 5216 2422 5216 2491 
Q 5216 2772 5059 2928 
Q 4903 3084 4622 3084 
Q 4203 3084 3875 2770 
Q 3547 2456 3450 1953 
L 3066 0 
L 2491 0 
L 2900 2094 
Q 2925 2209 2937 2307 
Q 2950 2406 2950 2484 
Q 2950 2769 2794 2926 
Q 2638 3084 2363 3084 
Q 1938 3084 1609 2770 
Q 1281 2456 1184 1953 
L 800 0 
L 225 0 
L 909 3500 
L 1484 3500 
L 1375 2956 
Q 1609 3263 1923 3423 
Q 2238 3584 2597 3584 
Q 2978 3584 3223 3384 
Q 3469 3184 3519 2828 
Q 3781 3197 4126 3390 
Q 4472 3584 4856 3584 
Q 5306 3584 5551 3325 
Q 5797 3066 5797 2591 
Q 5797 2488 5784 2364 
Q 5772 2241 5747 2113 
z
" transform="scale(0.015625)"/>
       <path id="DejaVuSans-5d" d="M 1947 4863 
L 1947 -844 
L 622 -844 
L 622 -397 
L 1369 -397 
L 1369 4416 
L 622 4416 
L 622 4863 
L 1947 4863 
z
" transform="scale(0.015625)"/>
      </defs>
      <use xlink:href="#DejaVuSans-Oblique-79" transform="translate(0 0.015625)"/>
      <use xlink:href="#DejaVuSans-30" transform="translate(59.179688 -16.390625) scale(0.7)"/>
      <use xlink:href="#DejaVuSerif-20" transform="translate(106.450195 0.015625)"/>
      <use xlink:href="#DejaVuSans-5b" transform="translate(138.237305 0.015625)"/>
      <use xlink:href="#DejaVuSans-Oblique-6d" transform="translate(177.250977 0.015625)"/>
      <use xlink:href="#DejaVuSans-5d" transform="translate(274.663086 0.015625)"/>
     </g>
    </g>
   </g>
   <g id="line2d_17">
    <path d="M 31.080396 6.071915 
L 59.35201 6.146508 
L 70.477099 6.433182 
L 79.709796 6.888739 
L 88.025024 7.520646 
L 97.028325 8.446775 
L 108.497668 9.856933 
L 121.515109 11.68961 
L 140.15261 14.557934 
L 167.392 18.719965 
L 180.008121 20.410616 
L 190.27303 21.568084 
L 199.161794 22.351104 
L 207.190148 22.838436 
L 214.645128 23.071226 
L 221.756025 23.072462 
L 228.694919 22.851363 
L 235.404416 22.41572 
L 243.203553 21.677846 
L 251.690808 20.652243 
L 260.636837 19.345538 
L 270.500215 17.673134 
L 271.933855 17.412967 
L 271.933855 17.412967 
" clip-path="url(#p11e58011fd)" style="fill: none; stroke: #2a2eec; stroke-width: 0.4; stroke-linecap: round"/>
   </g>
   <g id="line2d_18">
    <path d="M 17.924559 6.089449 
L 12.444205 6.014852 
" clip-path="url(#p11e58011fd)" style="fill: none; stroke: #000000; stroke-linecap: round"/>
   </g>
   <g id="line2d_19">
    <path d="M 52.373042 5.615943 
L 47.090256 6.545334 
" clip-path="url(#p11e58011fd)" style="fill: none; stroke: #000000; stroke-linecap: round"/>
   </g>
   <g id="line2d_20">
    <path d="M 87.223875 6.532296 
L 82.76631 4.505538 
" clip-path="url(#p11e58011fd)" style="fill: none; stroke: #000000; stroke-linecap: round"/>
   </g>
   <g id="line2d_21">
    <path d="M 121.746569 11.149024 
L 117.389454 9.035946 
" clip-path="url(#p11e58011fd)" style="fill: none; stroke: #000000; stroke-linecap: round"/>
   </g>
   <g id="line2d_22">
    <path d="M 155.89017 17.03338 
L 151.290776 15.138828 
" clip-path="url(#p11e58011fd)" style="fill: none; stroke: #000000; stroke-linecap: round"/>
   </g>
   <g id="line2d_23">
    <path d="M 189.968559 22.370618 
L 184.875675 21.082608 
" clip-path="url(#p11e58011fd)" style="fill: none; stroke: #000000; stroke-linecap: round"/>
   </g>
   <g id="line2d_24">
    <path d="M 224.880641 24.541455 
L 220.446433 26.588787 
" clip-path="url(#p11e58011fd)" style="fill: none; stroke: #000000; stroke-linecap: round"/>
   </g>
   <g id="line2d_25">
    <path d="M 259.981206 20.904767 
L 256.084595 23.354067 
" clip-path="url(#p11e58011fd)" style="fill: none; stroke: #000000; stroke-linecap: round"/>
   </g>
   <g id="patch_3">
    <path d="M 31.080396 27.712051 
L 31.080396 3.00024 
" style="fill: none; stroke: #000000; stroke-linejoin: miter; stroke-linecap: square"/>
   </g>
   <g id="patch_4">
    <path d="M 31.080396 27.712051 
L 271.933855 27.712051 
" style="fill: none; stroke: #000000; stroke-linejoin: miter; stroke-linecap: square"/>
   </g>
   <g id="line2d_26">
    <path d="M 44.784394 6.05365 
L 43.41134 5.251854 
L 42.039613 4.851869 
L 39.297487 4.453711 
L 20.11189 4.479282 
L 18.741889 4.601651 
L 17.372418 4.884746 
L 17.38038 7.295613 
L 18.751708 7.575055 
L 20.122506 7.693772 
L 39.308103 7.668201 
L 42.047575 7.262737 
L 43.416648 6.859099 
L 44.784394 6.05365 
" clip-path="url(#p11e58011fd)" style="fill: none; stroke: #0000ff; stroke-opacity: 0.2; stroke-width: 0.4; stroke-linecap: round"/>
   </g>
   <g id="patch_5">
    <path d="M 44.784394 6.05365 
L 43.41134 5.251854 
L 42.039613 4.851869 
L 39.297487 4.453711 
L 20.11189 4.479282 
L 18.741889 4.601651 
L 17.372418 4.884746 
L 17.38038 7.295613 
L 18.751708 7.575055 
L 20.122506 7.693772 
L 39.308103 7.668201 
L 42.047575 7.262737 
L 43.416648 6.859099 
z
" clip-path="url(#p11e58011fd)" style="fill: #0000ff; opacity: 0.2"/>
   </g>
   <g id="line2d_27">
    <path d="M 79.149347 6.961088 
L 77.88293 6.091335 
L 76.566652 5.622143 
L 73.884236 5.084322 
L 54.758303 4.123504 
L 53.377207 4.175043 
L 51.976167 4.386806 
L 51.677006 6.790176 
L 53.008242 7.139199 
L 54.359422 7.327998 
L 73.485354 8.288816 
L 76.267491 8.025513 
L 77.683489 7.693582 
L 79.149347 6.961088 
" clip-path="url(#p11e58011fd)" style="fill: none; stroke: #0000ff; stroke-opacity: 0.2; stroke-width: 0.4; stroke-linecap: round"/>
   </g>
   <g id="patch_6">
    <path d="M 79.149347 6.961088 
L 77.88293 6.091335 
L 76.566652 5.622143 
L 73.884236 5.084322 
L 54.758303 4.123504 
L 53.377207 4.175043 
L 51.976167 4.386806 
L 51.677006 6.790176 
L 53.008242 7.139199 
L 54.359422 7.327998 
L 73.485354 8.288816 
L 76.267491 8.025513 
L 77.683489 7.693582 
z
" clip-path="url(#p11e58011fd)" style="fill: #0000ff; opacity: 0.2"/>
   </g>
   <g id="line2d_28">
    <path d="M 113.095409 11.118563 
L 112.115429 10.110516 
L 110.965451 9.489496 
L 108.495497 8.634483 
L 90.015829 5.358578 
L 88.644854 5.240693 
L 87.205879 5.277618 
L 86.18589 7.599779 
L 87.386867 8.104691 
L 88.655844 8.454792 
L 107.135511 11.730697 
L 109.945462 11.811657 
L 111.435436 11.658623 
L 113.095409 11.118563 
" clip-path="url(#p11e58011fd)" style="fill: none; stroke: #0000ff; stroke-opacity: 0.2; stroke-width: 0.4; stroke-linecap: round"/>
   </g>
   <g id="patch_7">
    <path d="M 113.095409 11.118563 
L 112.115429 10.110516 
L 110.965451 9.489496 
L 108.495497 8.634483 
L 90.015829 5.358578 
L 88.644854 5.240693 
L 87.205879 5.277618 
L 86.18589 7.599779 
L 87.386867 8.104691 
L 88.655844 8.454792 
L 107.135511 11.730697 
L 109.945462 11.811657 
L 111.435436 11.658623 
z
" clip-path="url(#p11e58011fd)" style="fill: #0000ff; opacity: 0.2"/>
   </g>
   <g id="line2d_29">
    <path d="M 147.383188 16.239919 
L 146.452604 15.213155 
L 145.333316 14.569903 
L 142.906037 13.666911 
L 124.594166 10.030557 
L 123.229565 9.885871 
L 121.789482 9.89459 
L 120.657263 12.195666 
L 121.833162 12.723864 
L 123.084542 13.098657 
L 141.396413 16.735011 
L 144.201097 16.870978 
L 145.697791 16.747205 
L 147.383188 16.239919 
" clip-path="url(#p11e58011fd)" style="fill: none; stroke: #0000ff; stroke-opacity: 0.2; stroke-width: 0.4; stroke-linecap: round"/>
   </g>
   <g id="patch_8">
    <path d="M 147.383188 16.239919 
L 146.452604 15.213155 
L 145.333316 14.569903 
L 142.906037 13.666911 
L 124.594166 10.030557 
L 123.229565 9.885871 
L 121.789482 9.89459 
L 120.657263 12.195666 
L 121.833162 12.723864 
L 123.084542 13.098657 
L 141.396413 16.735011 
L 144.201097 16.870978 
L 145.697791 16.747205 
z
" clip-path="url(#p11e58011fd)" style="fill: #0000ff; opacity: 0.2"/>
   </g>
   <g id="line2d_30">
    <path d="M 182.066149 20.859451 
L 181.01428 19.881081 
L 179.820591 19.294292 
L 177.291393 18.512296 
L 158.594265 15.779388 
L 157.21621 15.701655 
L 155.781427 15.780554 
L 154.930506 18.13004 
L 156.166741 18.599355 
L 157.459704 18.912037 
L 176.156832 21.644945 
L 178.96967 21.643779 
L 180.446999 21.447406 
L 182.066149 20.859451 
" clip-path="url(#p11e58011fd)" style="fill: none; stroke: #0000ff; stroke-opacity: 0.2; stroke-width: 0.4; stroke-linecap: round"/>
   </g>
   <g id="patch_9">
    <path d="M 182.066149 20.859451 
L 181.01428 19.881081 
L 179.820591 19.294292 
L 177.291393 18.512296 
L 158.594265 15.779388 
L 157.21621 15.701655 
L 155.781427 15.780554 
L 154.930506 18.13004 
L 156.166741 18.599355 
L 157.459704 18.912037 
L 176.156832 21.644945 
L 178.96967 21.643779 
L 180.446999 21.447406 
z
" clip-path="url(#p11e58011fd)" style="fill: #0000ff; opacity: 0.2"/>
   </g>
   <g id="line2d_31">
    <path d="M 216.816511 22.879381 
L 215.484434 22.050157 
L 214.133499 21.622566 
L 211.41277 21.169018 
L 192.235661 20.805616 
L 190.86021 20.900148 
L 189.477216 21.155334 
L 189.364067 23.565135 
L 190.720659 23.872236 
L 192.084795 24.018684 
L 211.261905 24.382086 
L 214.02035 24.032367 
L 215.409001 23.656691 
L 216.816511 22.879381 
" clip-path="url(#p11e58011fd)" style="fill: none; stroke: #0000ff; stroke-opacity: 0.2; stroke-width: 0.4; stroke-linecap: round"/>
   </g>
   <g id="patch_10">
    <path d="M 216.816511 22.879381 
L 215.484434 22.050157 
L 214.133499 21.622566 
L 211.41277 21.169018 
L 192.235661 20.805616 
L 190.86021 20.900148 
L 189.477216 21.155334 
L 189.364067 23.565135 
L 190.720659 23.872236 
L 192.084795 24.018684 
L 211.261905 24.382086 
L 214.02035 24.032367 
L 215.409001 23.656691 
z
" clip-path="url(#p11e58011fd)" style="fill: #0000ff; opacity: 0.2"/>
   </g>
   <g id="line2d_32">
    <path d="M 250.698701 19.835143 
L 249.032557 19.302808 
L 247.540862 19.156699 
L 244.731918 19.250708 
L 226.290447 22.61236 
L 225.025533 22.968346 
L 223.830399 23.478822 
L 224.877086 25.796183 
L 226.316447 25.826424 
L 227.686029 25.702174 
L 246.127501 22.340522 
L 248.587549 21.474059 
L 249.730349 20.847715 
L 250.698701 19.835143 
" clip-path="url(#p11e58011fd)" style="fill: none; stroke: #0000ff; stroke-opacity: 0.2; stroke-width: 0.4; stroke-linecap: round"/>
   </g>
   <g id="patch_11">
    <path d="M 250.698701 19.835143 
L 249.032557 19.302808 
L 247.540862 19.156699 
L 244.731918 19.250708 
L 226.290447 22.61236 
L 225.025533 22.968346 
L 223.830399 23.478822 
L 224.877086 25.796183 
L 226.316447 25.826424 
L 227.686029 25.702174 
L 246.127501 22.340522 
L 248.587549 21.474059 
L 249.730349 20.847715 
z
" clip-path="url(#p11e58011fd)" style="fill: #0000ff; opacity: 0.2"/>
   </g>
   <g id="line2d_33">
    <path d="M 284.384532 13.775674 
L 282.610959 13.409278 
L 281.101639 13.407944 
L 278.347251 13.770339 
L 260.916304 18.862549 
L 259.750512 19.335797 
L 258.690421 19.95507 
L 260.275936 22.145448 
L 261.705981 22.037263 
L 263.030324 21.783053 
L 280.461272 16.690843 
L 282.687154 15.598322 
L 283.667969 14.86953 
L 284.384532 13.775674 
" clip-path="url(#p11e58011fd)" style="fill: none; stroke: #ff0000; stroke-opacity: 0.2; stroke-width: 0.4; stroke-linecap: round"/>
   </g>
   <g id="patch_12">
    <path d="M 284.384532 13.775674 
L 282.610959 13.409278 
L 281.101639 13.407944 
L 278.347251 13.770339 
L 260.916304 18.862549 
L 259.750512 19.335797 
L 258.690421 19.95507 
L 260.275936 22.145448 
L 261.705981 22.037263 
L 263.030324 21.783053 
L 280.461272 16.690843 
L 282.687154 15.598322 
L 283.667969 14.86953 
z
" clip-path="url(#p11e58011fd)" style="fill: #ff0000; opacity: 0.2"/>
   </g>
  </g>
  <g id="axes_2">
   <g id="patch_13">
    <path d="M 31.080396 95.268299 
L 271.933855 95.268299 
L 271.933855 45.844678 
L 31.080396 45.844678 
z
" style="fill: #ffffff"/>
   </g>
   <g id="matplotlib.axis_3">
    <g id="xtick_15">
     <g id="line2d_34"/>
    </g>
    <g id="xtick_16">
     <g id="line2d_35"/>
    </g>
    <g id="xtick_17">
     <g id="line2d_36"/>
    </g>
    <g id="xtick_18">
     <g id="line2d_37"/>
    </g>
    <g id="xtick_19">
     <g id="line2d_38"/>
    </g>
    <g id="xtick_20">
     <g id="line2d_39"/>
    </g>
    <g id="xtick_21">
     <g id="line2d_40"/>
    </g>
    <g id="xtick_22">
     <g id="line2d_41"/>
    </g>
    <g id="xtick_23">
     <g id="line2d_42"/>
    </g>
    <g id="xtick_24">
     <g id="line2d_43"/>
    </g>
    <g id="xtick_25">
     <g id="line2d_44"/>
    </g>
    <g id="xtick_26">
     <g id="line2d_45"/>
    </g>
    <g id="xtick_27">
     <g id="line2d_46"/>
    </g>
    <g id="xtick_28">
     <g id="line2d_47"/>
    </g>
   </g>
   <g id="matplotlib.axis_4">
    <g id="ytick_3">
     <g id="line2d_48"/>
     <g id="text_4">
      <!-- −50 -->
      <g style="fill: #262626" transform="translate(12.807115 91.572845) scale(0.07 -0.07)">
       <use xlink:href="#DejaVuSerif-2212"/>
       <use xlink:href="#DejaVuSerif-35" x="83.789062"/>
       <use xlink:href="#DejaVuSerif-30" x="147.412109"/>
      </g>
     </g>
    </g>
    <g id="ytick_4">
     <g id="line2d_49"/>
     <g id="text_5">
      <!-- 0 -->
      <g style="fill: #262626" transform="translate(23.126646 76.331813) scale(0.07 -0.07)">
       <use xlink:href="#DejaVuSerif-30"/>
      </g>
     </g>
    </g>
    <g id="ytick_5">
     <g id="line2d_50"/>
     <g id="text_6">
      <!-- 50 -->
      <g style="fill: #262626" transform="translate(18.672896 61.090782) scale(0.07 -0.07)">
       <use xlink:href="#DejaVuSerif-35"/>
       <use xlink:href="#DejaVuSerif-30" x="63.623047"/>
      </g>
     </g>
    </g>
    <g id="text_7">
     <!-- $N_D$ [Nm] -->
     <g style="fill: #262626" transform="translate(7.559302 83.276489) rotate(-90) scale(0.06 -0.06)">
      <defs>
       <path id="DejaVuSans-Oblique-4e" d="M 1081 4666 
L 1931 4666 
L 3219 666 
L 4000 4666 
L 4616 4666 
L 3706 0 
L 2853 0 
L 1569 4025 
L 788 0 
L 172 0 
L 1081 4666 
z
" transform="scale(0.015625)"/>
       <path id="DejaVuSans-Oblique-44" d="M 1081 4666 
L 2438 4666 
Q 3519 4666 4070 4208 
Q 4622 3750 4622 2847 
Q 4622 2250 4412 1698 
Q 4203 1147 3834 769 
Q 3463 381 2891 190 
Q 2319 0 1538 0 
L 172 0 
L 1081 4666 
z
M 1613 4147 
L 909 519 
L 1734 519 
Q 2794 519 3375 1128 
Q 3956 1738 3956 2847 
Q 3956 3519 3581 3833 
Q 3206 4147 2406 4147 
L 1613 4147 
z
" transform="scale(0.015625)"/>
       <path id="DejaVuSerif-5b" d="M 550 4863 
L 2003 4863 
L 2003 4531 
L 1147 4531 
L 1147 -513 
L 2003 -513 
L 2003 -844 
L 550 -844 
L 550 4863 
z
" transform="scale(0.015625)"/>
       <path id="DejaVuSerif-4e" d="M 313 0 
L 313 331 
L 941 331 
L 941 4331 
L 313 4331 
L 313 4666 
L 1509 4666 
L 4306 984 
L 4306 4331 
L 3681 4331 
L 3681 4666 
L 5319 4666 
L 5319 4331 
L 4691 4331 
L 4691 -91 
L 4313 -91 
L 1325 3841 
L 1325 331 
L 1953 331 
L 1953 0 
L 313 0 
z
" transform="scale(0.015625)"/>
       <path id="DejaVuSerif-6d" d="M 3316 2675 
Q 3481 3041 3739 3227 
Q 3997 3413 4341 3413 
Q 4863 3413 5119 3089 
Q 5375 2766 5375 2113 
L 5375 331 
L 5894 331 
L 5894 0 
L 4300 0 
L 4300 331 
L 4800 331 
L 4800 2047 
Q 4800 2556 4650 2772 
Q 4500 2988 4153 2988 
Q 3769 2988 3567 2697 
Q 3366 2406 3366 1850 
L 3366 331 
L 3866 331 
L 3866 0 
L 2291 0 
L 2291 331 
L 2791 331 
L 2791 2069 
Q 2791 2566 2641 2777 
Q 2491 2988 2144 2988 
Q 1759 2988 1557 2697 
Q 1356 2406 1356 1850 
L 1356 331 
L 1856 331 
L 1856 0 
L 263 0 
L 263 331 
L 781 331 
L 781 2994 
L 231 2994 
L 231 3322 
L 1356 3322 
L 1356 2731 
Q 1516 3063 1762 3238 
Q 2009 3413 2322 3413 
Q 2709 3413 2968 3220 
Q 3228 3028 3316 2675 
z
" transform="scale(0.015625)"/>
       <path id="DejaVuSerif-5d" d="M 1947 4863 
L 1947 -844 
L 494 -844 
L 494 -513 
L 1350 -513 
L 1350 4531 
L 494 4531 
L 494 4863 
L 1947 4863 
z
" transform="scale(0.015625)"/>
      </defs>
      <use xlink:href="#DejaVuSans-Oblique-4e" transform="translate(0 0.015625)"/>
      <use xlink:href="#DejaVuSans-Oblique-44" transform="translate(74.804688 -16.390625) scale(0.7)"/>
      <use xlink:href="#DejaVuSerif-20" transform="translate(131.44043 0.015625)"/>
      <use xlink:href="#DejaVuSerif-5b" transform="translate(163.227539 0.015625)"/>
      <use xlink:href="#DejaVuSerif-4e" transform="translate(202.241211 0.015625)"/>
      <use xlink:href="#DejaVuSerif-6d" transform="translate(289.741211 0.015625)"/>
      <use xlink:href="#DejaVuSerif-5d" transform="translate(384.56543 0.015625)"/>
     </g>
    </g>
   </g>
   <g id="line2d_51">
    <path d="M 31.080396 74.078531 
L 33.603567 73.95949 
L 34.979844 73.92443 
L 35.495965 72.839894 
L 36.814913 70.467796 
L 38.133959 68.368204 
L 38.30606 68.434429 
L 38.99407 68.747652 
L 40.370508 69.236612 
L 40.714464 69.350466 
L 41.001171 69.501892 
L 41.402606 69.643509 
L 42.262866 69.961489 
L 42.893604 70.131164 
L 43.696455 70.371182 
L 46.105013 71.138936 
L 46.449204 71.302079 
L 47.079856 71.468901 
L 47.596126 71.630931 
L 49.029635 72.054385 
L 49.43104 72.146228 
L 51.610306 72.791525 
L 52.011631 72.908178 
L 52.355685 73.023893 
L 53.158593 73.29892 
L 54.305492 73.628967 
L 54.764266 73.807078 
L 55.509783 74.018873 
L 56.197907 74.258417 
L 56.714171 74.408434 
L 57.230148 74.602437 
L 59.122574 75.224679 
L 64.398374 76.978621 
L 64.742542 77.127208 
L 65.545307 77.39281 
L 66.290841 77.644427 
L 66.806933 77.816325 
L 68.18325 78.272328 
L 73.229688 80.013352 
L 73.631111 80.171474 
L 74.319304 80.47027 
L 74.663541 80.576156 
L 75.007417 80.720848 
L 76.727777 81.270604 
L 78.046782 81.70383 
L 78.906962 81.958759 
L 79.65249 82.161541 
L 81.02875 82.57228 
L 81.315481 82.685352 
L 81.659551 83.464978 
L 82.003634 84.225706 
L 85.616546 90.859651 
L 87.394166 92.967191 
L 91.179065 91.384802 
L 92.268829 90.96034 
L 92.84209 90.780338 
L 94.849157 90.224988 
L 95.480073 90.036091 
L 97.0857 89.610363 
L 97.716564 89.46552 
L 98.461966 89.350886 
L 99.207528 89.098987 
L 100.927882 88.722547 
L 101.329345 88.585535 
L 105.802276 87.519078 
L 106.089075 87.447557 
L 106.433094 87.379458 
L 107.580005 87.076528 
L 108.038779 86.984941 
L 108.268129 86.935453 
L 108.612211 86.846726 
L 109.185678 86.714323 
L 110.676688 86.31464 
L 111.422169 86.186589 
L 112.339747 85.988247 
L 112.626449 85.864259 
L 112.970611 85.814224 
L 113.716064 85.62008 
L 114.404183 85.423024 
L 115.034984 85.330096 
L 116.353944 85.006544 
L 117.214153 84.817362 
L 119.049182 84.401475 
L 119.393361 84.328903 
L 120.597537 84.060008 
L 121.515109 83.831556 
L 122.203239 83.710547 
L 122.604696 83.677385 
L 123.350241 83.495763 
L 124.153006 83.313793 
L 124.841159 83.222873 
L 125.758759 82.959999 
L 126.27484 82.869086 
L 127.479119 82.634826 
L 135.851619 80.81239 
L 136.253053 80.734079 
L 136.539772 80.650773 
L 136.826548 80.62778 
L 137.62933 80.459859 
L 138.374881 80.329656 
L 138.718929 80.255058 
L 139.062977 80.139679 
L 139.579143 80.041907 
L 141.012755 79.727122 
L 142.331703 79.389754 
L 143.765493 79.113397 
L 144.166847 79.010684 
L 145.313706 78.740791 
L 145.829815 78.614571 
L 147.034134 78.303541 
L 147.37817 78.225186 
L 147.722241 78.113606 
L 149.155916 77.777957 
L 149.614668 77.695242 
L 173.355993 71.846474 
L 173.986788 71.685452 
L 175.879203 71.27301 
L 176.567362 71.066119 
L 177.370213 70.822346 
L 178.173012 70.639429 
L 179.033238 70.389117 
L 180.409521 70.062483 
L 180.925613 69.927272 
L 181.671255 69.699973 
L 182.359299 69.519751 
L 183.965007 69.101397 
L 184.309049 68.989068 
L 189.642246 67.433457 
L 190.387746 67.259211 
L 191.133285 67.051274 
L 191.936107 66.819345 
L 192.45217 66.664524 
L 193.427105 66.372045 
L 194.115212 66.215884 
L 194.860734 65.987734 
L 195.204811 65.842543 
L 195.54891 65.776058 
L 197.326599 65.218898 
L 198.301517 64.965432 
L 202.315794 63.82229 
L 203.519999 63.478321 
L 204.208129 63.224742 
L 205.756502 62.788325 
L 207.075439 62.435259 
L 207.763598 62.256963 
L 208.566426 62.019186 
L 211.261726 61.308037 
L 214.587788 60.572745 
L 214.931858 60.482526 
L 215.620046 60.323345 
L 224.795379 58.6649 
L 225.48355 58.618898 
L 225.827603 58.52143 
L 226.229043 57.690131 
L 226.91719 56.34459 
L 229.899169 51.316526 
L 231.734279 49.098153 
L 231.906345 49.094773 
L 232.479789 49.348643 
L 232.709128 49.521799 
L 233.339998 49.969225 
L 236.666082 51.301814 
L 236.895409 51.407657 
L 237.182151 51.499299 
L 237.411679 51.5451 
L 237.985053 51.764678 
L 238.271726 51.778384 
L 238.501099 51.846076 
L 238.845268 51.983593 
L 239.131912 52.129667 
L 239.361302 52.16568 
L 239.590681 52.193433 
L 239.992258 52.330449 
L 240.278868 52.472516 
L 240.737608 52.603219 
L 241.31108 52.778255 
L 241.597926 52.832398 
L 242.285935 53.031791 
L 242.515394 53.128868 
L 242.802096 53.16843 
L 243.088815 53.249752 
L 243.375528 53.350345 
L 243.604907 53.392057 
L 243.89166 53.366714 
L 244.293042 53.459782 
L 245.038633 53.733006 
L 245.38263 53.777637 
L 246.070834 53.951254 
L 246.414848 53.996299 
L 248.135293 54.371857 
L 248.47933 54.498077 
L 248.766049 54.57035 
L 249.052767 54.587714 
L 249.282192 54.629984 
L 249.569026 54.707247 
L 249.798473 54.781939 
L 250.085049 54.940153 
L 250.429085 54.951749 
L 252.665565 55.563431 
L 253.066999 55.658937 
L 253.353764 55.697524 
L 253.583148 55.760622 
L 253.869873 55.837521 
L 254.099246 55.841247 
L 254.385953 55.906382 
L 254.615349 55.893602 
L 255.016778 56.048407 
L 255.360883 56.188371 
L 256.278391 56.43072 
L 261.496891 57.62871 
L 262.127704 57.749859 
L 262.930526 57.99439 
L 263.676065 58.118498 
L 264.650931 58.318853 
L 264.937656 58.438249 
L 265.224392 58.490584 
L 265.568457 58.572027 
L 269.812142 59.502498 
L 270.385654 59.587963 
L 271.245794 59.723264 
L 271.933855 59.904881 
L 271.933855 59.904881 
" clip-path="url(#pc7d070d7a6)" style="fill: none; stroke: #00bfbf; stroke-width: 0.4; stroke-linecap: round"/>
   </g>
   <g id="line2d_52">
    <path d="M 31.080396 73.355188 
L 33.718379 73.268475 
L 34.979844 73.23742 
L 35.495965 72.149061 
L 36.298844 70.636647 
L 37.101643 69.238561 
L 37.961944 67.878266 
L 38.191225 67.587036 
L 38.650062 67.784551 
L 40.141112 68.297314 
L 40.485068 68.433262 
L 41.804057 68.827278 
L 42.033464 68.942017 
L 42.320143 69.034529 
L 42.664277 69.146839 
L 49.88982 71.138903 
L 50.176539 71.219446 
L 52.011631 71.740701 
L 52.298436 71.822238 
L 53.101276 72.11368 
L 53.789429 72.27575 
L 54.706903 72.599409 
L 55.395102 72.728171 
L 55.911159 72.904663 
L 56.656681 73.157875 
L 58.090305 73.618653 
L 58.549085 73.783892 
L 59.237221 74.01607 
L 59.810756 74.215783 
L 61.129653 74.635362 
L 61.989867 74.939058 
L 62.276666 74.9817 
L 62.506022 75.050624 
L 62.964756 75.184111 
L 64.455726 75.687305 
L 65.08659 75.950477 
L 65.94673 76.213634 
L 66.405567 76.41344 
L 68.527332 77.12514 
L 70.132971 77.694921 
L 72.082824 78.302437 
L 72.885595 78.619035 
L 73.28704 78.779699 
L 73.631111 78.898415 
L 74.261912 79.169524 
L 74.605989 79.324131 
L 74.892759 79.412512 
L 75.580907 79.690081 
L 76.899809 80.071161 
L 81.315481 81.511947 
L 81.659551 82.280318 
L 81.946471 82.895912 
L 82.634486 84.344554 
L 84.526867 87.924979 
L 86.706024 91.231911 
L 87.336906 91.852674 
L 88.082307 91.468258 
L 88.369061 91.304263 
L 88.713171 91.193336 
L 89.974808 90.685935 
L 90.72025 90.350492 
L 91.12173 90.229442 
L 93.35825 89.497654 
L 94.160998 89.263535 
L 95.021247 88.996291 
L 95.824138 88.83306 
L 96.62688 88.602178 
L 96.913776 88.566296 
L 97.257807 88.420734 
L 97.601809 88.336651 
L 99.838266 87.805568 
L 100.354473 87.678964 
L 101.271918 87.471766 
L 101.902754 87.331739 
L 103.508467 86.922789 
L 104.712723 86.629423 
L 105.056765 86.555743 
L 105.515528 86.460973 
L 105.859668 86.410947 
L 106.146324 86.311492 
L 107.408127 86.0249 
L 112.683783 84.791205 
L 113.371931 84.67248 
L 113.716064 84.580748 
L 114.461512 84.395736 
L 114.977632 84.309169 
L 115.89517 84.102024 
L 117.558223 83.728328 
L 118.991904 83.453994 
L 119.393361 83.354639 
L 120.654883 83.083512 
L 122.375363 82.735512 
L 122.891432 82.644291 
L 123.407495 82.554132 
L 124.611763 82.313256 
L 125.013301 82.237541 
L 125.816209 82.076392 
L 126.561559 81.914634 
L 127.020333 81.87887 
L 128.396611 81.559962 
L 128.740693 81.47248 
L 129.084809 81.423751 
L 142.905187 78.78794 
L 143.765493 78.622735 
L 144.224182 78.529052 
L 149.270677 77.443729 
L 150.589557 77.232424 
L 150.933685 77.136255 
L 152.023347 76.920526 
L 152.482012 76.802425 
L 154.317081 76.384751 
L 155.349259 76.200207 
L 157.815175 75.646913 
L 158.216626 75.575389 
L 160.797154 75.043943 
L 161.141323 74.981882 
L 162.46034 74.65219 
L 163.14835 74.469733 
L 163.435154 74.403255 
L 163.779151 74.368342 
L 167.27725 73.567419 
L 167.564107 73.494129 
L 168.309497 73.335549 
L 168.59621 73.250997 
L 168.997725 73.170461 
L 171.119444 72.694362 
L 173.81475 72.01983 
L 175.019035 71.742047 
L 175.879203 71.58411 
L 176.624743 71.36291 
L 177.370213 71.154928 
L 178.173012 70.980765 
L 179.033238 70.741145 
L 180.409521 70.427807 
L 180.982976 70.272685 
L 183.448852 69.614696 
L 184.595825 69.33767 
L 191.01853 67.499467 
L 192.280166 67.149104 
L 192.96848 66.930919 
L 194.115212 66.625037 
L 194.860734 66.393275 
L 195.204811 66.247507 
L 195.54891 66.177637 
L 197.383991 65.59866 
L 198.186796 65.388589 
L 199.620454 64.957154 
L 211.892573 61.303928 
L 212.351313 61.17457 
L 213.498201 60.900904 
L 213.899709 60.774028 
L 221.641419 59.049104 
L 222.960379 58.810547 
L 224.279247 58.568164 
L 225.598242 58.39474 
L 225.827603 58.303423 
L 226.229043 57.465424 
L 226.91719 56.117617 
L 229.383106 51.953578 
L 231.447571 49.224209 
L 231.963714 49.131782 
L 232.365154 49.388911 
L 232.594481 49.442338 
L 233.282623 50.007867 
L 233.741403 50.181082 
L 234.429516 50.47988 
L 235.633778 51.02925 
L 237.698243 51.865542 
L 238.558445 52.107723 
L 238.902505 52.215878 
L 243.604907 53.677228 
L 243.89166 53.651933 
L 244.293042 53.748461 
L 245.038633 54.030278 
L 245.38263 54.076575 
L 246.013511 54.221301 
L 246.357565 54.302889 
L 246.644232 54.402626 
L 246.930968 54.409347 
L 247.160438 54.503113 
L 247.447089 54.536309 
L 247.676467 54.595075 
L 247.963226 54.649897 
L 248.192685 54.727589 
L 248.536676 54.814787 
L 248.823412 54.920119 
L 251.404054 55.555212 
L 251.748085 55.61659 
L 252.378921 55.824794 
L 253.239072 56.044493 
L 253.640494 56.138237 
L 253.869873 56.17713 
L 254.099246 56.18007 
L 254.385953 56.24554 
L 254.615349 56.231416 
L 255.016778 56.387813 
L 255.303531 56.50762 
L 256.335818 56.785585 
L 257.253395 57.010969 
L 257.654692 57.124133 
L 258.056126 57.213457 
L 259.547164 57.561581 
L 259.833895 57.592196 
L 260.407292 57.703486 
L 270.500215 59.856105 
L 270.844274 59.931446 
L 271.188356 59.973734 
L 271.933855 60.157374 
L 271.933855 60.157374 
" clip-path="url(#pc7d070d7a6)" style="fill: none; stroke: #bf00bf; stroke-width: 0.4; stroke-linecap: round"/>
   </g>
   <g id="patch_14">
    <path d="M 31.080396 95.268299 
L 31.080396 45.844678 
" style="fill: none; stroke: #000000; stroke-linejoin: miter; stroke-linecap: square"/>
   </g>
   <g id="patch_15">
    <path d="M 31.080396 95.268299 
L 271.933855 95.268299 
" style="fill: none; stroke: #000000; stroke-linejoin: miter; stroke-linecap: square"/>
   </g>
   <g id="legend_1">
    <g id="line2d_53">
     <path d="M 19.844782 40.186498 
L 26.844782 40.186498 
L 33.844782 40.186498 
" style="fill: none; stroke: #000000; stroke-width: 0.7; stroke-linecap: round"/>
    </g>
    <g id="text_8">
     <!-- FRMT -->
     <g style="fill: #262626" transform="translate(39.444782 42.636498) scale(0.07 -0.07)">
      <defs>
       <path id="DejaVuSerif-46" d="M 353 0 
L 353 331 
L 947 331 
L 947 4331 
L 353 4331 
L 353 4666 
L 4172 4666 
L 4172 3628 
L 3788 3628 
L 3788 4281 
L 1581 4281 
L 1581 2719 
L 3175 2719 
L 3175 3303 
L 3559 3303 
L 3559 1753 
L 3175 1753 
L 3175 2338 
L 1581 2338 
L 1581 331 
L 2328 331 
L 2328 0 
L 353 0 
z
" transform="scale(0.015625)"/>
       <path id="DejaVuSerif-52" d="M 3066 2316 
Q 3284 2256 3442 2114 
Q 3600 1972 3725 1716 
L 4403 331 
L 4972 331 
L 4972 0 
L 3872 0 
L 3144 1484 
Q 2934 1916 2759 2042 
Q 2584 2169 2278 2169 
L 1581 2169 
L 1581 331 
L 2241 331 
L 2241 0 
L 353 0 
L 353 331 
L 947 331 
L 947 4331 
L 353 4331 
L 353 4666 
L 2719 4666 
Q 3400 4666 3770 4341 
Q 4141 4016 4141 3419 
Q 4141 2938 3870 2661 
Q 3600 2384 3066 2316 
z
M 1581 2503 
L 2503 2503 
Q 2975 2503 3200 2726 
Q 3425 2950 3425 3419 
Q 3425 3888 3200 4109 
Q 2975 4331 2503 4331 
L 1581 4331 
L 1581 2503 
z
" transform="scale(0.015625)"/>
       <path id="DejaVuSerif-4d" d="M 353 0 
L 353 331 
L 947 331 
L 947 4331 
L 319 4331 
L 319 4666 
L 1678 4666 
L 3316 1344 
L 4953 4666 
L 6228 4666 
L 6228 4331 
L 5606 4331 
L 5606 331 
L 6203 331 
L 6203 0 
L 4378 0 
L 4378 331 
L 4972 331 
L 4972 3938 
L 3372 684 
L 2931 684 
L 1331 3938 
L 1331 331 
L 1925 331 
L 1925 0 
L 353 0 
z
" transform="scale(0.015625)"/>
       <path id="DejaVuSerif-54" d="M 1222 0 
L 1222 331 
L 1819 331 
L 1819 4294 
L 447 4294 
L 447 3566 
L 63 3566 
L 63 4666 
L 4206 4666 
L 4206 3566 
L 3822 3566 
L 3822 4294 
L 2450 4294 
L 2450 331 
L 3047 331 
L 3047 0 
L 1222 0 
z
" transform="scale(0.015625)"/>
      </defs>
      <use xlink:href="#DejaVuSerif-46"/>
      <use xlink:href="#DejaVuSerif-52" x="69.384766"/>
      <use xlink:href="#DejaVuSerif-4d" x="144.677734"/>
      <use xlink:href="#DejaVuSerif-54" x="247.070312"/>
     </g>
    </g>
    <g id="line2d_54">
     <path d="M 75.40947 40.186498 
L 82.40947 40.186498 
L 89.40947 40.186498 
" style="fill: none; stroke: #00bfbf; stroke-width: 0.4; stroke-linecap: round"/>
    </g>
    <g id="text_9">
     <!-- MMG original -->
     <g style="fill: #262626" transform="translate(95.00947 42.636498) scale(0.07 -0.07)">
      <defs>
       <path id="DejaVuSerif-47" d="M 4097 3272 
Q 3988 3856 3641 4136 
Q 3294 4416 2675 4416 
Q 1869 4416 1472 3897 
Q 1075 3378 1075 2328 
Q 1075 1300 1484 772 
Q 1894 244 2688 244 
Q 3041 244 3362 331 
Q 3684 419 3975 594 
L 3975 1797 
L 3097 1797 
L 3097 2131 
L 4609 2131 
L 4609 391 
Q 4194 150 3714 29 
Q 3234 -91 2688 -91 
Q 1631 -91 995 570 
Q 359 1231 359 2328 
Q 359 3434 996 4092 
Q 1634 4750 2713 4750 
Q 3113 4750 3539 4658 
Q 3966 4566 4447 4378 
L 4447 3272 
L 4097 3272 
z
" transform="scale(0.015625)"/>
       <path id="DejaVuSerif-6f" d="M 1925 219 
Q 2388 219 2623 584 
Q 2859 950 2859 1663 
Q 2859 2375 2623 2739 
Q 2388 3103 1925 3103 
Q 1463 3103 1227 2739 
Q 991 2375 991 1663 
Q 991 950 1228 584 
Q 1466 219 1925 219 
z
M 1925 -91 
Q 1200 -91 759 389 
Q 319 869 319 1663 
Q 319 2456 758 2934 
Q 1197 3413 1925 3413 
Q 2653 3413 3092 2934 
Q 3531 2456 3531 1663 
Q 3531 869 3092 389 
Q 2653 -91 1925 -91 
z
" transform="scale(0.015625)"/>
       <path id="DejaVuSerif-72" d="M 3059 3328 
L 3059 2497 
L 2728 2497 
Q 2713 2744 2591 2866 
Q 2469 2988 2234 2988 
Q 1809 2988 1582 2694 
Q 1356 2400 1356 1850 
L 1356 331 
L 2022 331 
L 2022 0 
L 263 0 
L 263 331 
L 781 331 
L 781 2994 
L 231 2994 
L 231 3322 
L 1356 3322 
L 1356 2731 
Q 1525 3078 1790 3245 
Q 2056 3413 2438 3413 
Q 2578 3413 2733 3391 
Q 2888 3369 3059 3328 
z
" transform="scale(0.015625)"/>
       <path id="DejaVuSerif-69" d="M 622 4353 
Q 622 4497 726 4603 
Q 831 4709 978 4709 
Q 1122 4709 1226 4603 
Q 1331 4497 1331 4353 
Q 1331 4206 1228 4103 
Q 1125 4000 978 4000 
Q 831 4000 726 4103 
Q 622 4206 622 4353 
z
M 1356 331 
L 1900 331 
L 1900 0 
L 231 0 
L 231 331 
L 781 331 
L 781 2988 
L 231 2988 
L 231 3322 
L 1356 3322 
L 1356 331 
z
" transform="scale(0.015625)"/>
       <path id="DejaVuSerif-67" d="M 3359 2988 
L 3359 72 
Q 3359 -644 2965 -1033 
Q 2572 -1422 1844 -1422 
Q 1516 -1422 1216 -1362 
Q 916 -1303 641 -1184 
L 641 -488 
L 941 -488 
Q 997 -813 1206 -963 
Q 1416 -1113 1806 -1113 
Q 2313 -1113 2548 -827 
Q 2784 -541 2784 72 
L 2784 519 
Q 2616 206 2355 57 
Q 2094 -91 1709 -91 
Q 1097 -91 708 395 
Q 319 881 319 1663 
Q 319 2444 706 2928 
Q 1094 3413 1709 3413 
Q 2094 3413 2355 3264 
Q 2616 3116 2784 2803 
L 2784 3322 
L 3909 3322 
L 3909 2988 
L 3359 2988 
z
M 2784 1825 
Q 2784 2422 2554 2737 
Q 2325 3053 1888 3053 
Q 1444 3053 1217 2703 
Q 991 2353 991 1663 
Q 991 975 1217 622 
Q 1444 269 1888 269 
Q 2325 269 2554 583 
Q 2784 897 2784 1497 
L 2784 1825 
z
" transform="scale(0.015625)"/>
       <path id="DejaVuSerif-6e" d="M 263 0 
L 263 331 
L 781 331 
L 781 2988 
L 231 2988 
L 231 3322 
L 1356 3322 
L 1356 2731 
Q 1516 3069 1770 3241 
Q 2025 3413 2363 3413 
Q 2913 3413 3172 3097 
Q 3431 2781 3431 2113 
L 3431 331 
L 3944 331 
L 3944 0 
L 2356 0 
L 2356 331 
L 2853 331 
L 2853 1931 
Q 2853 2541 2703 2767 
Q 2553 2994 2175 2994 
Q 1775 2994 1565 2701 
Q 1356 2409 1356 1850 
L 1356 331 
L 1856 331 
L 1856 0 
L 263 0 
z
" transform="scale(0.015625)"/>
       <path id="DejaVuSerif-61" d="M 2547 1044 
L 2547 1747 
L 1806 1747 
Q 1378 1747 1168 1562 
Q 959 1378 959 997 
Q 959 650 1171 447 
Q 1384 244 1747 244 
Q 2106 244 2326 466 
Q 2547 688 2547 1044 
z
M 3122 2075 
L 3122 331 
L 3634 331 
L 3634 0 
L 2547 0 
L 2547 359 
Q 2356 128 2106 18 
Q 1856 -91 1522 -91 
Q 969 -91 644 203 
Q 319 497 319 997 
Q 319 1513 691 1797 
Q 1063 2081 1741 2081 
L 2547 2081 
L 2547 2309 
Q 2547 2688 2317 2895 
Q 2088 3103 1672 3103 
Q 1328 3103 1125 2947 
Q 922 2791 872 2484 
L 575 2484 
L 575 3156 
Q 875 3284 1158 3348 
Q 1441 3413 1709 3413 
Q 2400 3413 2761 3070 
Q 3122 2728 3122 2075 
z
" transform="scale(0.015625)"/>
       <path id="DejaVuSerif-6c" d="M 1313 331 
L 1856 331 
L 1856 0 
L 184 0 
L 184 331 
L 738 331 
L 738 4531 
L 184 4531 
L 184 4863 
L 1313 4863 
L 1313 331 
z
" transform="scale(0.015625)"/>
      </defs>
      <use xlink:href="#DejaVuSerif-4d"/>
      <use xlink:href="#DejaVuSerif-4d" x="102.392578"/>
      <use xlink:href="#DejaVuSerif-47" x="204.785156"/>
      <use xlink:href="#DejaVuSerif-20" x="284.667969"/>
      <use xlink:href="#DejaVuSerif-6f" x="316.455078"/>
      <use xlink:href="#DejaVuSerif-72" x="376.660156"/>
      <use xlink:href="#DejaVuSerif-69" x="424.462891"/>
      <use xlink:href="#DejaVuSerif-67" x="456.445312"/>
      <use xlink:href="#DejaVuSerif-69" x="520.458984"/>
      <use xlink:href="#DejaVuSerif-6e" x="552.441406"/>
      <use xlink:href="#DejaVuSerif-61" x="616.845703"/>
      <use xlink:href="#DejaVuSerif-6c" x="676.464844"/>
     </g>
    </g>
    <g id="line2d_55">
     <path d="M 158.601188 40.186498 
L 165.601188 40.186498 
L 172.601188 40.186498 
" style="fill: none; stroke: #bf00bf; stroke-width: 0.4; stroke-linecap: round"/>
    </g>
    <g id="text_10">
     <!-- MMG quadratic -->
     <g style="fill: #262626" transform="translate(178.201188 42.636498) scale(0.07 -0.07)">
      <defs>
       <path id="DejaVuSerif-71" d="M 3359 2988 
L 3359 -997 
L 3909 -997 
L 3909 -1331 
L 2241 -1331 
L 2241 -997 
L 2784 -997 
L 2784 519 
Q 2616 206 2355 57 
Q 2094 -91 1709 -91 
Q 1097 -91 708 395 
Q 319 881 319 1663 
Q 319 2444 706 2928 
Q 1094 3413 1709 3413 
Q 2094 3413 2355 3264 
Q 2616 3116 2784 2803 
L 2784 3322 
L 3909 3322 
L 3909 2988 
L 3359 2988 
z
M 2784 1825 
Q 2784 2422 2554 2737 
Q 2325 3053 1888 3053 
Q 1444 3053 1217 2703 
Q 991 2353 991 1663 
Q 991 975 1217 622 
Q 1444 269 1888 269 
Q 2325 269 2554 583 
Q 2784 897 2784 1497 
L 2784 1825 
z
" transform="scale(0.015625)"/>
       <path id="DejaVuSerif-75" d="M 2266 3322 
L 3341 3322 
L 3341 331 
L 3884 331 
L 3884 0 
L 2766 0 
L 2766 588 
Q 2606 256 2353 82 
Q 2100 -91 1766 -91 
Q 1213 -91 952 223 
Q 691 538 691 1209 
L 691 2988 
L 172 2988 
L 172 3322 
L 1269 3322 
L 1269 1388 
Q 1269 781 1417 556 
Q 1566 331 1947 331 
Q 2347 331 2556 625 
Q 2766 919 2766 1478 
L 2766 2988 
L 2266 2988 
L 2266 3322 
z
" transform="scale(0.015625)"/>
       <path id="DejaVuSerif-64" d="M 3359 331 
L 3909 331 
L 3909 0 
L 2784 0 
L 2784 519 
Q 2616 206 2355 57 
Q 2094 -91 1709 -91 
Q 1097 -91 708 395 
Q 319 881 319 1663 
Q 319 2444 706 2928 
Q 1094 3413 1709 3413 
Q 2094 3413 2355 3264 
Q 2616 3116 2784 2803 
L 2784 4531 
L 2241 4531 
L 2241 4863 
L 3359 4863 
L 3359 331 
z
M 2784 1497 
L 2784 1825 
Q 2784 2422 2554 2737 
Q 2325 3053 1888 3053 
Q 1444 3053 1217 2703 
Q 991 2353 991 1663 
Q 991 975 1217 622 
Q 1444 269 1888 269 
Q 2325 269 2554 583 
Q 2784 897 2784 1497 
z
" transform="scale(0.015625)"/>
       <path id="DejaVuSerif-74" d="M 691 2988 
L 184 2988 
L 184 3322 
L 691 3322 
L 691 4353 
L 1269 4353 
L 1269 3322 
L 2350 3322 
L 2350 2988 
L 1269 2988 
L 1269 878 
Q 1269 456 1350 337 
Q 1431 219 1650 219 
Q 1875 219 1978 351 
Q 2081 484 2088 781 
L 2522 781 
Q 2497 328 2275 118 
Q 2053 -91 1600 -91 
Q 1103 -91 897 129 
Q 691 350 691 878 
L 691 2988 
z
" transform="scale(0.015625)"/>
       <path id="DejaVuSerif-63" d="M 3291 997 
Q 3169 466 2822 187 
Q 2475 -91 1925 -91 
Q 1200 -91 759 389 
Q 319 869 319 1663 
Q 319 2459 759 2936 
Q 1200 3413 1925 3413 
Q 2241 3413 2553 3339 
Q 2866 3266 3181 3116 
L 3181 2266 
L 2847 2266 
Q 2781 2703 2561 2903 
Q 2341 3103 1931 3103 
Q 1466 3103 1228 2742 
Q 991 2381 991 1663 
Q 991 944 1227 581 
Q 1463 219 1931 219 
Q 2303 219 2525 412 
Q 2747 606 2828 997 
L 3291 997 
z
" transform="scale(0.015625)"/>
      </defs>
      <use xlink:href="#DejaVuSerif-4d"/>
      <use xlink:href="#DejaVuSerif-4d" x="102.392578"/>
      <use xlink:href="#DejaVuSerif-47" x="204.785156"/>
      <use xlink:href="#DejaVuSerif-20" x="284.667969"/>
      <use xlink:href="#DejaVuSerif-71" x="316.455078"/>
      <use xlink:href="#DejaVuSerif-75" x="380.46875"/>
      <use xlink:href="#DejaVuSerif-61" x="444.873047"/>
      <use xlink:href="#DejaVuSerif-64" x="504.492188"/>
      <use xlink:href="#DejaVuSerif-72" x="568.505859"/>
      <use xlink:href="#DejaVuSerif-61" x="616.308594"/>
      <use xlink:href="#DejaVuSerif-74" x="675.927734"/>
      <use xlink:href="#DejaVuSerif-69" x="716.113281"/>
      <use xlink:href="#DejaVuSerif-63" x="748.095703"/>
     </g>
    </g>
    <g id="line2d_56">
     <defs>
      <path id="mb5f8a996df" d="M 0 0.75 
C 0.198902 0.75 0.389685 0.670975 0.53033 0.53033 
C 0.670975 0.389685 0.75 0.198902 0.75 0 
C 0.75 -0.198902 0.670975 -0.389685 0.53033 -0.53033 
C 0.389685 -0.670975 0.198902 -0.75 0 -0.75 
C -0.198902 -0.75 -0.389685 -0.670975 -0.53033 -0.53033 
C -0.670975 -0.389685 -0.75 -0.198902 -0.75 0 
C -0.75 0.198902 -0.670975 0.389685 -0.53033 0.53033 
C -0.389685 0.670975 -0.198902 0.75 0 0.75 
z
" style="stroke: #008000"/>
     </defs>
     <g>
      <use xlink:href="#mb5f8a996df" x="255.488845" y="40.186498" style="fill: #008000; stroke: #008000"/>
     </g>
    </g>
    <g id="text_11">
     <!-- VCT -->
     <g style="fill: #262626" transform="translate(268.088845 42.636498) scale(0.07 -0.07)">
      <defs>
       <path id="DejaVuSerif-56" d="M 1119 4331 
L 2497 750 
L 3872 4331 
L 3347 4331 
L 3347 4666 
L 4716 4666 
L 4716 4331 
L 4263 4331 
L 2597 0 
L 2059 0 
L 403 4331 
L -63 4331 
L -63 4666 
L 1638 4666 
L 1638 4331 
L 1119 4331 
z
" transform="scale(0.015625)"/>
       <path id="DejaVuSerif-43" d="M 4513 1234 
Q 4306 581 3820 245 
Q 3334 -91 2591 -91 
Q 2134 -91 1743 65 
Q 1353 222 1050 525 
Q 700 875 529 1320 
Q 359 1766 359 2328 
Q 359 3416 987 4083 
Q 1616 4750 2644 4750 
Q 3025 4750 3456 4650 
Q 3888 4550 4384 4347 
L 4384 3272 
L 4031 3272 
Q 3916 3859 3567 4137 
Q 3219 4416 2591 4416 
Q 1844 4416 1459 3886 
Q 1075 3356 1075 2328 
Q 1075 1303 1459 773 
Q 1844 244 2591 244 
Q 3113 244 3450 492 
Q 3788 741 3938 1234 
L 4513 1234 
z
" transform="scale(0.015625)"/>
      </defs>
      <use xlink:href="#DejaVuSerif-56"/>
      <use xlink:href="#DejaVuSerif-43" x="72.216797"/>
      <use xlink:href="#DejaVuSerif-54" x="148.730469"/>
     </g>
    </g>
   </g>
   <g id="line2d_57">
    <path d="M 31.080396 76.441824 
L 31.309695 76.229598 
L 32.97272 74.589255 
L 34.291754 73.650934 
L 35.037196 73.161909 
L 35.610651 71.862658 
L 36.700227 69.73837 
L 38.248582 67.377946 
L 38.592653 67.551707 
L 38.879389 67.702703 
L 39.567525 67.976393 
L 40.313024 68.182857 
L 40.771867 68.341726 
L 40.943906 68.437123 
L 41.230579 68.647591 
L 41.574638 68.76368 
L 41.804057 68.754767 
L 41.976095 68.798916 
L 42.262866 68.998569 
L 42.606862 69.063812 
L 42.893604 69.11948 
L 43.123103 69.177567 
L 43.409701 69.252692 
L 43.753881 69.312841 
L 46.449204 70.239702 
L 46.678434 70.306472 
L 46.907824 70.357683 
L 47.194572 70.399433 
L 47.481313 70.517953 
L 48.169558 70.730017 
L 48.456168 70.783667 
L 48.742985 70.919277 
L 48.972294 70.939425 
L 49.316371 71.108208 
L 49.603078 71.159179 
L 49.832537 71.237819 
L 50.119365 71.241126 
L 50.405992 71.318989 
L 50.635388 71.399838 
L 50.922056 71.516834 
L 51.20878 71.585194 
L 51.83969 71.844626 
L 52.757234 72.013636 
L 53.158593 72.216105 
L 53.560084 72.320314 
L 54.362884 72.504909 
L 54.649631 72.682806 
L 55.452471 72.726874 
L 55.796461 72.862911 
L 56.025846 72.929386 
L 56.255259 73.009149 
L 56.541972 73.03493 
L 56.886112 73.113578 
L 58.26236 73.606998 
L 58.549085 73.648691 
L 58.835815 73.72487 
L 59.523991 73.94614 
L 59.810756 74.016909 
L 60.097441 74.074101 
L 60.326808 74.106543 
L 60.67093 74.2845 
L 61.015133 74.368731 
L 65.315929 75.661008 
L 65.717346 75.687698 
L 70.362367 76.766466 
L 70.649086 76.863802 
L 70.878516 76.837995 
L 71.107929 76.85886 
L 71.451954 76.967558 
L 72.082824 77.062994 
L 72.942941 77.336438 
L 73.172423 77.331587 
L 73.573885 77.590284 
L 73.860478 77.658341 
L 74.720669 78.029069 
L 74.892759 78.108801 
L 75.236784 78.286361 
L 75.8677 78.522093 
L 76.269037 78.639564 
L 76.498404 78.706312 
L 76.899809 78.874758 
L 77.53065 79.171724 
L 78.906962 79.903016 
L 79.193687 80.041063 
L 79.480412 80.241222 
L 79.709796 80.2899 
L 80.225899 80.607231 
L 80.512699 80.678865 
L 81.372832 81.356308 
L 81.659551 81.938764 
L 81.888941 82.378417 
L 83.265299 85.260917 
L 84.469613 87.600218 
L 86.706024 91.703451 
L 87.336906 92.681972 
L 89.63068 91.619713 
L 94.103778 90.337968 
L 96.684277 89.72322 
L 96.970968 89.663327 
L 97.315056 89.545549 
L 97.888545 89.437063 
L 104.884813 87.969171 
L 107.637385 87.345042 
L 108.038779 87.252894 
L 108.325504 87.182135 
L 108.841687 87.034165 
L 110.217999 86.612133 
L 111.422169 86.252076 
L 113.429282 85.55531 
L 113.716064 85.444943 
L 114.404183 85.178275 
L 115.264426 84.960992 
L 116.009914 84.752922 
L 116.870076 84.535638 
L 117.558223 84.373674 
L 120.253495 83.812452 
L 120.769587 83.689741 
L 122.203239 83.356235 
L 123.178209 83.110467 
L 123.80901 82.951216 
L 125.242593 82.550167 
L 125.529398 82.464695 
L 125.988213 82.338924 
L 126.790926 82.117349 
L 127.307138 82.016033 
L 131.722878 81.228543 
L 132.066806 81.205936 
L 133.844494 81.027905 
L 134.475301 80.993985 
L 141.070118 79.699005 
L 141.930292 79.52135 
L 143.306696 79.280051 
L 144.109444 79.133185 
L 144.855006 79.074843 
L 145.256434 78.98363 
L 150.818981 77.774367 
L 151.564423 77.488236 
L 152.482012 77.201793 
L 153.342198 76.898192 
L 154.833173 76.417391 
L 155.406617 76.239365 
L 157.815175 75.579036 
L 158.159217 75.481063 
L 158.732707 75.352199 
L 161.2559 74.774033 
L 162.746915 74.315622 
L 164.40994 73.873624 
L 165.040765 73.669976 
L 167.908069 73.068901 
L 170.718021 72.538594 
L 175.248402 71.418274 
L 176.051322 71.278096 
L 176.509987 71.139839 
L 178.918569 70.659182 
L 179.606664 70.557131 
L 180.008121 70.529192 
L 184.022353 69.888298 
L 184.366464 69.790533 
L 185.283944 69.592076 
L 185.628015 69.549068 
L 186.258925 69.404388 
L 186.717762 69.305884 
L 188.552659 68.804586 
L 188.89673 68.726138 
L 193.427105 67.919015 
L 193.77117 67.894754 
L 194.516635 67.748091 
L 194.975484 67.59602 
L 195.204811 67.530356 
L 195.54891 67.531896 
L 196.409073 67.341924 
L 197.039868 67.185218 
L 197.785373 66.978079 
L 199.219014 66.692726 
L 199.677989 66.574092 
L 200.652695 66.332432 
L 200.939488 66.256366 
L 201.51292 66.085307 
L 202.258397 65.941472 
L 202.602456 65.875499 
L 204.036114 65.496577 
L 204.437513 65.376097 
L 204.72433 65.257293 
L 210.114839 63.329805 
L 210.401506 63.237045 
L 210.688248 63.113822 
L 211.491076 62.879236 
L 212.179241 62.751386 
L 212.810128 62.477958 
L 213.09683 62.454655 
L 213.326162 62.391856 
L 214.071759 62.191135 
L 214.358398 62.12367 
L 214.645128 62.095168 
L 214.874535 62.042708 
L 215.218698 61.909806 
L 215.849608 61.759513 
L 216.824382 61.467659 
L 217.225731 61.333976 
L 219.748941 60.618373 
L 220.20771 60.494883 
L 220.551815 60.445217 
L 220.781251 60.375394 
L 221.12523 60.206393 
L 221.52671 60.083143 
L 224.795379 59.159471 
L 225.196813 59.141089 
L 225.884955 58.951628 
L 226.515808 57.65952 
L 227.37597 55.988536 
L 229.440475 52.144955 
L 231.562275 48.380075 
L 231.906345 48.13853 
L 233.569365 49.940759 
L 234.601589 50.700543 
L 235.06038 51.073492 
L 235.347053 51.207216 
L 236.493975 51.954373 
L 239.131912 52.967572 
L 239.361302 53.034182 
L 239.590681 53.024885 
L 239.992258 53.200755 
L 240.221488 53.291052 
L 240.508218 53.422087 
L 241.196365 53.51275 
L 241.48309 53.744515 
L 241.827184 53.815891 
L 242.056557 53.808436 
L 242.228692 53.834191 
L 242.515394 54.044532 
L 242.802096 54.043837 
L 243.088815 54.152218 
L 243.318182 54.185047 
L 243.604907 54.301861 
L 243.949069 54.244229 
L 244.235788 54.318932 
L 244.465144 54.372464 
L 244.751891 54.455485 
L 244.981241 54.544451 
L 245.267989 54.662999 
L 245.784041 54.697835 
L 246.070834 54.797694 
L 246.357565 54.860122 
L 246.587046 54.903928 
L 246.873622 54.974069 
L 247.103018 54.980986 
L 247.389794 55.097125 
L 247.676467 55.113288 
L 247.963226 55.191416 
L 248.192685 55.246869 
L 248.47933 55.37208 
L 248.766049 55.426253 
L 248.995444 55.481108 
L 249.282192 55.465026 
L 249.569026 55.58284 
L 249.798473 55.630793 
L 250.085049 55.866272 
L 250.486488 55.866054 
L 253.41111 56.658882 
L 253.583148 56.708931 
L 253.869873 56.829573 
L 254.099246 56.782896 
L 254.385953 56.87958 
L 254.615349 56.805699 
L 255.016778 57.005954 
L 255.246145 57.080637 
L 255.532875 57.142464 
L 255.762265 57.162269 
L 256.22104 57.355232 
L 256.622456 57.384787 
L 256.851858 57.477203 
L 257.482774 57.73051 
L 259.489807 58.089657 
L 259.776583 58.201597 
L 260.063267 58.237429 
L 260.350044 58.307065 
L 260.579399 58.381316 
L 260.866262 58.469805 
L 261.095474 58.501674 
L 261.439533 58.632635 
L 261.668923 58.643471 
L 262.013126 58.724725 
L 262.24239 58.77897 
L 262.930526 59.015242 
L 263.733411 59.119948 
L 264.134834 59.241303 
L 264.421507 59.245664 
L 266.141907 59.643438 
L 266.543415 59.689984 
L 266.887429 59.770122 
L 267.632922 59.949047 
L 267.919629 59.968623 
L 268.149054 60.022504 
L 268.435767 60.090453 
L 268.722492 60.152802 
L 269.066545 60.178901 
L 271.819238 60.90987 
L 271.933855 60.974648 
L 271.933855 60.974648 
" clip-path="url(#pc7d070d7a6)" style="fill: none; stroke: #000000; stroke-width: 0.7; stroke-linecap: round"/>
   </g>
   <g id="line2d_58">
    <g clip-path="url(#pc7d070d7a6)">
     <use xlink:href="#mb5f8a996df" x="59.753393" y="74.780408" style="fill: #008000; stroke: #008000"/>
     <use xlink:href="#mb5f8a996df" x="86.706024" y="91.939021" style="fill: #008000; stroke: #008000"/>
     <use xlink:href="#mb5f8a996df" x="93.931636" y="90.135666" style="fill: #008000; stroke: #008000"/>
     <use xlink:href="#mb5f8a996df" x="231.791648" y="49.766526" style="fill: #008000; stroke: #008000"/>
     <use xlink:href="#mb5f8a996df" x="243.260824" y="53.478204" style="fill: #008000; stroke: #008000"/>
    </g>
   </g>
  </g>
  <g id="axes_3">
   <g id="patch_16">
    <path d="M 31.080396 150.692401 
L 271.933855 150.692401 
L 271.933855 101.268779 
L 31.080396 101.268779 
z
" style="fill: #ffffff"/>
   </g>
   <g id="matplotlib.axis_5">
    <g id="xtick_29">
     <g id="line2d_59"/>
     <g id="text_12">
      <!-- 0 -->
      <g style="fill: #262626" transform="translate(28.853521 159.511307) scale(0.07 -0.07)">
       <use xlink:href="#DejaVuSerif-30"/>
      </g>
     </g>
    </g>
    <g id="xtick_30">
     <g id="line2d_60"/>
     <g id="text_13">
      <!-- 3 -->
      <g style="fill: #262626" transform="translate(46.057347 159.511307) scale(0.07 -0.07)">
       <defs>
        <path id="DejaVuSerif-33" d="M 622 4469 
Q 988 4606 1323 4678 
Q 1659 4750 1953 4750 
Q 2638 4750 3022 4454 
Q 3406 4159 3406 3634 
Q 3406 3213 3140 2930 
Q 2875 2647 2388 2547 
Q 2963 2466 3280 2130 
Q 3597 1794 3597 1259 
Q 3597 606 3158 257 
Q 2719 -91 1894 -91 
Q 1528 -91 1179 -12 
Q 831 66 488 225 
L 488 1131 
L 838 1131 
Q 869 681 1141 450 
Q 1413 219 1906 219 
Q 2384 219 2661 495 
Q 2938 772 2938 1253 
Q 2938 1803 2653 2086 
Q 2369 2369 1819 2369 
L 1522 2369 
L 1522 2688 
L 1678 2688 
Q 2225 2688 2498 2914 
Q 2772 3141 2772 3597 
Q 2772 4006 2547 4223 
Q 2322 4441 1900 4441 
Q 1478 4441 1245 4241 
Q 1013 4041 972 3647 
L 622 3647 
L 622 4469 
z
" transform="scale(0.015625)"/>
       </defs>
       <use xlink:href="#DejaVuSerif-33"/>
      </g>
     </g>
    </g>
    <g id="xtick_31">
     <g id="line2d_61"/>
     <g id="text_14">
      <!-- 6 -->
      <g style="fill: #262626" transform="translate(63.261172 159.511307) scale(0.07 -0.07)">
       <defs>
        <path id="DejaVuSerif-36" d="M 2094 219 
Q 2534 219 2771 542 
Q 3009 866 3009 1472 
Q 3009 2078 2771 2401 
Q 2534 2725 2094 2725 
Q 1647 2725 1412 2412 
Q 1178 2100 1178 1509 
Q 1178 888 1415 553 
Q 1653 219 2094 219 
z
M 1075 2569 
Q 1288 2803 1556 2918 
Q 1825 3034 2163 3034 
Q 2859 3034 3264 2615 
Q 3669 2197 3669 1472 
Q 3669 763 3233 336 
Q 2797 -91 2069 -91 
Q 1278 -91 853 498 
Q 428 1088 428 2181 
Q 428 3406 931 4078 
Q 1434 4750 2350 4750 
Q 2597 4750 2869 4703 
Q 3141 4656 3425 4563 
L 3425 3794 
L 3072 3794 
Q 3034 4109 2831 4275 
Q 2628 4441 2284 4441 
Q 1678 4441 1381 3981 
Q 1084 3522 1075 2569 
z
" transform="scale(0.015625)"/>
       </defs>
       <use xlink:href="#DejaVuSerif-36"/>
      </g>
     </g>
    </g>
    <g id="xtick_32">
     <g id="line2d_62"/>
     <g id="text_15">
      <!-- 9 -->
      <g style="fill: #262626" transform="translate(80.464998 159.511307) scale(0.07 -0.07)">
       <defs>
        <path id="DejaVuSerif-39" d="M 2994 2091 
Q 2784 1856 2512 1740 
Q 2241 1625 1900 1625 
Q 1206 1625 804 2044 
Q 403 2463 403 3188 
Q 403 3897 839 4323 
Q 1275 4750 2003 4750 
Q 2794 4750 3217 4161 
Q 3641 3572 3641 2478 
Q 3641 1253 3137 581 
Q 2634 -91 1722 -91 
Q 1475 -91 1203 -44 
Q 931 3 647 97 
L 647 872 
L 997 872 
Q 1038 556 1241 387 
Q 1444 219 1784 219 
Q 2391 219 2687 676 
Q 2984 1134 2994 2091 
z
M 1978 4441 
Q 1534 4441 1298 4117 
Q 1063 3794 1063 3188 
Q 1063 2581 1298 2256 
Q 1534 1931 1978 1931 
Q 2422 1931 2658 2245 
Q 2894 2559 2894 3150 
Q 2894 3772 2656 4106 
Q 2419 4441 1978 4441 
z
" transform="scale(0.015625)"/>
       </defs>
       <use xlink:href="#DejaVuSerif-39"/>
      </g>
     </g>
    </g>
    <g id="xtick_33">
     <g id="line2d_63"/>
     <g id="text_16">
      <!-- 12 -->
      <g style="fill: #262626" transform="translate(95.441948 159.511307) scale(0.07 -0.07)">
       <defs>
        <path id="DejaVuSerif-31" d="M 909 0 
L 909 331 
L 1722 331 
L 1722 4213 
L 781 3603 
L 781 4013 
L 1919 4750 
L 2350 4750 
L 2350 331 
L 3163 331 
L 3163 0 
L 909 0 
z
" transform="scale(0.015625)"/>
        <path id="DejaVuSerif-32" d="M 819 3553 
L 469 3553 
L 469 4384 
Q 803 4563 1142 4656 
Q 1481 4750 1806 4750 
Q 2534 4750 2956 4397 
Q 3378 4044 3378 3438 
Q 3378 2753 2422 1800 
Q 2347 1728 2309 1691 
L 1131 513 
L 3078 513 
L 3078 1088 
L 3444 1088 
L 3444 0 
L 434 0 
L 434 341 
L 1850 1753 
Q 2319 2222 2519 2614 
Q 2719 3006 2719 3438 
Q 2719 3909 2473 4175 
Q 2228 4441 1797 4441 
Q 1350 4441 1106 4219 
Q 863 3997 819 3553 
z
" transform="scale(0.015625)"/>
       </defs>
       <use xlink:href="#DejaVuSerif-31"/>
       <use xlink:href="#DejaVuSerif-32" x="63.623047"/>
      </g>
     </g>
    </g>
    <g id="xtick_34">
     <g id="line2d_64"/>
     <g id="text_17">
      <!-- 15 -->
      <g style="fill: #262626" transform="translate(112.645774 159.511307) scale(0.07 -0.07)">
       <use xlink:href="#DejaVuSerif-31"/>
       <use xlink:href="#DejaVuSerif-35" x="63.623047"/>
      </g>
     </g>
    </g>
    <g id="xtick_35">
     <g id="line2d_65"/>
     <g id="text_18">
      <!-- 18 -->
      <g style="fill: #262626" transform="translate(129.849599 159.511307) scale(0.07 -0.07)">
       <defs>
        <path id="DejaVuSerif-38" d="M 2981 1275 
Q 2981 1775 2732 2051 
Q 2484 2328 2034 2328 
Q 1584 2328 1336 2051 
Q 1088 1775 1088 1275 
Q 1088 772 1336 495 
Q 1584 219 2034 219 
Q 2484 219 2732 495 
Q 2981 772 2981 1275 
z
M 2853 3541 
Q 2853 3966 2637 4203 
Q 2422 4441 2034 4441 
Q 1650 4441 1433 4203 
Q 1216 3966 1216 3541 
Q 1216 3113 1433 2875 
Q 1650 2638 2034 2638 
Q 2422 2638 2637 2875 
Q 2853 3113 2853 3541 
z
M 2516 2484 
Q 3047 2413 3344 2092 
Q 3641 1772 3641 1275 
Q 3641 619 3225 264 
Q 2809 -91 2034 -91 
Q 1263 -91 845 264 
Q 428 619 428 1275 
Q 428 1772 725 2092 
Q 1022 2413 1556 2484 
Q 1084 2569 832 2842 
Q 581 3116 581 3541 
Q 581 4103 968 4426 
Q 1356 4750 2034 4750 
Q 2713 4750 3100 4426 
Q 3488 4103 3488 3541 
Q 3488 3116 3236 2842 
Q 2984 2569 2516 2484 
z
" transform="scale(0.015625)"/>
       </defs>
       <use xlink:href="#DejaVuSerif-31"/>
       <use xlink:href="#DejaVuSerif-38" x="63.623047"/>
      </g>
     </g>
    </g>
    <g id="xtick_36">
     <g id="line2d_66"/>
     <g id="text_19">
      <!-- 21 -->
      <g style="fill: #262626" transform="translate(147.053425 159.511307) scale(0.07 -0.07)">
       <use xlink:href="#DejaVuSerif-32"/>
       <use xlink:href="#DejaVuSerif-31" x="63.623047"/>
      </g>
     </g>
    </g>
    <g id="xtick_37">
     <g id="line2d_67"/>
     <g id="text_20">
      <!-- 24 -->
      <g style="fill: #262626" transform="translate(164.25725 159.511307) scale(0.07 -0.07)">
       <defs>
        <path id="DejaVuSerif-34" d="M 2234 1581 
L 2234 4063 
L 641 1581 
L 2234 1581 
z
M 3609 0 
L 1484 0 
L 1484 331 
L 2234 331 
L 2234 1247 
L 197 1247 
L 197 1588 
L 2241 4750 
L 2859 4750 
L 2859 1581 
L 3750 1581 
L 3750 1247 
L 2859 1247 
L 2859 331 
L 3609 331 
L 3609 0 
z
" transform="scale(0.015625)"/>
       </defs>
       <use xlink:href="#DejaVuSerif-32"/>
       <use xlink:href="#DejaVuSerif-34" x="63.623047"/>
      </g>
     </g>
    </g>
    <g id="xtick_38">
     <g id="line2d_68"/>
     <g id="text_21">
      <!-- 27 -->
      <g style="fill: #262626" transform="translate(181.461076 159.511307) scale(0.07 -0.07)">
       <defs>
        <path id="DejaVuSerif-37" d="M 3609 4347 
L 1784 0 
L 1319 0 
L 3059 4153 
L 903 4153 
L 903 3578 
L 538 3578 
L 538 4666 
L 3609 4666 
L 3609 4347 
z
" transform="scale(0.015625)"/>
       </defs>
       <use xlink:href="#DejaVuSerif-32"/>
       <use xlink:href="#DejaVuSerif-37" x="63.623047"/>
      </g>
     </g>
    </g>
    <g id="xtick_39">
     <g id="line2d_69"/>
     <g id="text_22">
      <!-- 30 -->
      <g style="fill: #262626" transform="translate(198.664901 159.511307) scale(0.07 -0.07)">
       <use xlink:href="#DejaVuSerif-33"/>
       <use xlink:href="#DejaVuSerif-30" x="63.623047"/>
      </g>
     </g>
    </g>
    <g id="xtick_40">
     <g id="line2d_70"/>
     <g id="text_23">
      <!-- 33 -->
      <g style="fill: #262626" transform="translate(215.868726 159.511307) scale(0.07 -0.07)">
       <use xlink:href="#DejaVuSerif-33"/>
       <use xlink:href="#DejaVuSerif-33" x="63.623047"/>
      </g>
     </g>
    </g>
    <g id="xtick_41">
     <g id="line2d_71"/>
     <g id="text_24">
      <!-- 36 -->
      <g style="fill: #262626" transform="translate(233.072552 159.511307) scale(0.07 -0.07)">
       <use xlink:href="#DejaVuSerif-33"/>
       <use xlink:href="#DejaVuSerif-36" x="63.623047"/>
      </g>
     </g>
    </g>
    <g id="xtick_42">
     <g id="line2d_72"/>
     <g id="text_25">
      <!-- 39 -->
      <g style="fill: #262626" transform="translate(250.276377 159.511307) scale(0.07 -0.07)">
       <use xlink:href="#DejaVuSerif-33"/>
       <use xlink:href="#DejaVuSerif-39" x="63.623047"/>
      </g>
     </g>
    </g>
   </g>
   <g id="matplotlib.axis_6">
    <g id="ytick_6">
     <g id="line2d_73"/>
     <g id="text_26">
      <!-- −50 -->
      <g style="fill: #262626" transform="translate(12.807115 148.756586) scale(0.07 -0.07)">
       <use xlink:href="#DejaVuSerif-2212"/>
       <use xlink:href="#DejaVuSerif-35" x="83.789062"/>
       <use xlink:href="#DejaVuSerif-30" x="147.412109"/>
      </g>
     </g>
    </g>
    <g id="ytick_7">
     <g id="line2d_74"/>
     <g id="text_27">
      <!-- 0 -->
      <g style="fill: #262626" transform="translate(23.126646 124.642007) scale(0.07 -0.07)">
       <use xlink:href="#DejaVuSerif-30"/>
      </g>
     </g>
    </g>
    <g id="text_28">
     <!-- $Y_D$ [N] -->
     <g style="fill: #262626" transform="translate(7.559302 135.46059) rotate(-90) scale(0.06 -0.06)">
      <defs>
       <path id="DejaVuSans-Oblique-59" d="M 403 4666 
L 1081 4666 
L 1953 2747 
L 3616 4666 
L 4325 4666 
L 2209 2222 
L 1778 0 
L 1147 0 
L 1575 2222 
L 403 4666 
z
" transform="scale(0.015625)"/>
      </defs>
      <use xlink:href="#DejaVuSans-Oblique-59" transform="translate(0 0.015625)"/>
      <use xlink:href="#DejaVuSans-Oblique-44" transform="translate(61.083984 -16.390625) scale(0.7)"/>
      <use xlink:href="#DejaVuSerif-20" transform="translate(117.719727 0.015625)"/>
      <use xlink:href="#DejaVuSerif-5b" transform="translate(149.506836 0.015625)"/>
      <use xlink:href="#DejaVuSerif-4e" transform="translate(188.520508 0.015625)"/>
      <use xlink:href="#DejaVuSerif-5d" transform="translate(276.020508 0.015625)"/>
     </g>
    </g>
   </g>
   <g id="line2d_75">
    <path d="M 31.080396 121.69973 
L 33.489006 121.829133 
L 35.037196 121.962442 
L 35.553305 122.663979 
L 36.757567 124.1107 
L 38.133959 125.491183 
L 38.363269 125.388434 
L 39.166097 125.061635 
L 42.434835 123.84275 
L 44.556646 123.176918 
L 49.087027 121.708479 
L 49.832537 121.507907 
L 50.291249 121.382323 
L 51.151589 121.11934 
L 52.011631 120.846667 
L 52.47044 120.687142 
L 54.362884 120.07434 
L 54.764266 119.93517 
L 55.853807 119.603696 
L 66.23346 115.916499 
L 66.86429 115.671288 
L 79.480412 110.79253 
L 80.111247 110.576552 
L 81.1435 110.254784 
L 81.315481 110.164979 
L 81.659551 109.58293 
L 82.118354 108.863689 
L 82.978523 107.598218 
L 84.354829 105.866664 
L 85.501773 104.698406 
L 87.336906 103.543317 
L 88.48381 104.276866 
L 93.472851 106.45879 
L 96.110765 107.329111 
L 98.576669 108.045386 
L 99.092784 108.204214 
L 100.010316 108.434306 
L 105.802276 109.992436 
L 106.203676 110.113718 
L 122.031201 113.88034 
L 123.751612 114.216003 
L 135.851619 116.763177 
L 136.310439 116.869219 
L 136.769145 116.930834 
L 137.801386 117.132272 
L 149.213262 119.780512 
L 150.474956 120.064093 
L 151.163018 120.22112 
L 153.456867 120.803694 
L 154.145037 120.97575 
L 160.56777 122.496341 
L 169.91517 124.835195 
L 170.31665 124.931178 
L 171.520889 125.291261 
L 172.438421 125.519979 
L 186.889646 129.789123 
L 187.348443 129.916649 
L 188.782113 130.444326 
L 189.986352 130.825705 
L 194.860734 132.542864 
L 195.262157 132.70492 
L 195.7783 132.881976 
L 196.695889 133.265706 
L 200.882085 134.831281 
L 201.742259 135.169726 
L 202.659819 135.522626 
L 203.634697 135.926816 
L 204.838942 136.41805 
L 205.584458 136.719301 
L 209.828063 138.327664 
L 219.462343 141.57412 
L 225.884955 143.292304 
L 227.0319 144.8938 
L 228.350837 146.417701 
L 229.841915 147.661686 
L 231.791648 148.37212 
L 232.135707 148.012306 
L 232.938558 147.362293 
L 235.06038 145.836384 
L 235.519103 145.574363 
L 236.379288 145.053275 
L 237.182151 144.658342 
L 237.526222 144.496635 
L 239.303933 143.699534 
L 239.648038 143.590795 
L 240.393526 143.243392 
L 241.253729 142.941366 
L 241.540499 142.818327 
L 242.228692 142.600301 
L 242.5727 142.445301 
L 242.859419 142.337346 
L 243.547629 142.090597 
L 244.063658 141.980816 
L 246.644232 141.14148 
L 247.389794 140.93705 
L 247.73383 140.832871 
L 248.938093 140.455129 
L 249.454299 140.308742 
L 249.91297 140.125256 
L 250.199701 140.068208 
L 250.60114 139.949053 
L 256.22104 138.229141 
L 257.597357 137.793906 
L 258.285516 137.63367 
L 260.350044 137.076116 
L 261.210149 136.816127 
L 262.070346 136.633303 
L 268.951865 134.875645 
L 269.697398 134.707072 
L 270.098838 134.606914 
L 270.901643 134.430647 
L 271.933855 134.205727 
L 271.933855 134.205727 
" clip-path="url(#pd09612dbb5)" style="fill: none; stroke: #00bfbf; stroke-width: 0.4; stroke-linecap: round"/>
   </g>
   <g id="line2d_76">
    <path d="M 31.080396 122.203406 
L 33.489006 122.309268 
L 34.979844 122.332534 
L 35.495965 123.081324 
L 38.248582 125.99071 
L 39.051428 125.655518 
L 39.854255 125.372995 
L 40.771867 125.084438 
L 47.653306 122.902818 
L 49.029635 122.504077 
L 49.603078 122.34615 
L 50.233885 122.186424 
L 51.667549 121.747511 
L 52.068983 121.655911 
L 52.757234 121.428179 
L 53.330597 121.232345 
L 55.280352 120.658197 
L 57.574201 119.872117 
L 58.950496 119.384218 
L 60.441483 118.858417 
L 61.30172 118.585263 
L 67.839168 116.230231 
L 69.100833 115.730498 
L 70.018296 115.369768 
L 71.394608 114.859379 
L 72.254874 114.512632 
L 74.663541 113.488598 
L 75.122132 113.28061 
L 77.587991 112.33763 
L 78.964308 111.829386 
L 79.881828 111.479169 
L 81.02875 111.099809 
L 81.315481 110.982043 
L 81.659551 110.40783 
L 82.118354 109.68787 
L 83.03588 108.340394 
L 84.756257 106.260993 
L 85.788487 105.305931 
L 86.706024 104.603787 
L 87.336906 104.346091 
L 88.426418 105.049314 
L 89.229303 105.418475 
L 90.089483 105.88042 
L 91.12173 106.359278 
L 93.300847 107.227693 
L 94.90656 107.785467 
L 95.881375 108.063392 
L 96.798918 108.307962 
L 99.379509 109.085349 
L 101.271918 109.589518 
L 102.074752 109.7822 
L 103.967207 110.311655 
L 104.770047 110.512999 
L 105.114198 110.618175 
L 105.859668 110.769405 
L 106.490452 110.933108 
L 107.981393 111.33431 
L 108.382879 111.435803 
L 109.931166 111.83003 
L 124.611763 115.038741 
L 125.35732 115.160839 
L 126.790926 115.474792 
L 127.479119 115.596904 
L 135.794261 117.251111 
L 137.39994 117.537689 
L 138.661566 117.774807 
L 139.40711 117.938245 
L 144.855006 119.000056 
L 145.600442 119.205415 
L 146.919493 119.455213 
L 148.926549 119.918873 
L 149.729486 120.076061 
L 151.449926 120.460245 
L 157.757829 121.837237 
L 158.388665 121.990224 
L 160.739808 122.50207 
L 161.2559 122.606661 
L 163.549755 123.150781 
L 164.40994 123.360096 
L 165.614346 123.643249 
L 166.073 123.753964 
L 171.291476 125.046856 
L 172.151719 125.252647 
L 173.355993 125.583301 
L 174.216167 125.795091 
L 175.019035 126.004925 
L 177.427542 126.654228 
L 178.287722 126.892635 
L 180.06545 127.379162 
L 181.556448 127.826049 
L 183.391517 128.384234 
L 184.309049 128.660511 
L 189.584889 130.416056 
L 190.387746 130.670351 
L 191.64944 131.095295 
L 192.566908 131.425548 
L 193.943209 131.916882 
L 204.150944 135.946683 
L 205.584458 136.536618 
L 210.860269 138.637404 
L 211.835176 138.996969 
L 214.243711 139.855159 
L 215.448048 140.294024 
L 217.741834 141.089069 
L 218.77404 141.432497 
L 221.52671 142.224193 
L 225.827603 143.32245 
L 226.286504 144.048235 
L 227.834814 146.017654 
L 229.096347 147.211349 
L 230.300603 148.015993 
L 231.619621 148.388656 
L 231.906345 148.285104 
L 233.397355 146.880068 
L 237.239491 144.513388 
L 237.7556 144.255741 
L 239.131912 143.607332 
L 239.475989 143.522368 
L 243.776951 141.906821 
L 244.923867 141.494056 
L 245.325278 141.346499 
L 245.956085 141.177358 
L 246.414848 141.029768 
L 248.307354 140.417402 
L 251.690808 139.373607 
L 252.3215 139.155469 
L 253.869873 138.696036 
L 254.156615 138.631655 
L 254.443334 138.592345 
L 254.672718 138.524014 
L 255.131607 138.368081 
L 255.590284 138.234926 
L 256.163693 138.011922 
L 258.228244 137.409992 
L 259.489807 137.057248 
L 259.891235 136.968467 
L 262.701153 136.223166 
L 263.10257 136.129832 
L 263.733411 135.957289 
L 264.192191 135.844302 
L 264.822958 135.693791 
L 265.224392 135.564029 
L 265.740501 135.438582 
L 267.002104 135.129166 
L 267.747614 134.936698 
L 269.123909 134.65207 
L 269.869454 134.44391 
L 271.933855 134.029911 
L 271.933855 134.029911 
" clip-path="url(#pd09612dbb5)" style="fill: none; stroke: #bf00bf; stroke-width: 0.4; stroke-linecap: round"/>
   </g>
   <g id="patch_17">
    <path d="M 31.080396 150.692401 
L 31.080396 101.268779 
" style="fill: none; stroke: #000000; stroke-linejoin: miter; stroke-linecap: square"/>
   </g>
   <g id="patch_18">
    <path d="M 31.080396 150.692401 
L 271.933855 150.692401 
" style="fill: none; stroke: #000000; stroke-linejoin: miter; stroke-linecap: square"/>
   </g>
   <g id="line2d_77">
    <path d="M 31.080396 124.374633 
L 31.309695 124.242351 
L 35.151882 121.652785 
L 36.35623 122.361583 
L 37.159024 122.743223 
L 37.560452 122.91265 
L 38.248582 123.143389 
L 38.936741 122.518432 
L 40.599789 121.332146 
L 41.001171 121.057945 
L 41.34538 120.814249 
L 43.46707 119.727449 
L 44.155206 119.467719 
L 44.900728 119.200766 
L 46.105013 118.860265 
L 46.391795 118.750858 
L 46.73578 118.662636 
L 47.423939 118.499865 
L 47.997417 118.370219 
L 48.742985 118.344285 
L 49.087027 118.354219 
L 49.37386 118.398301 
L 49.660453 118.408105 
L 49.947172 118.479477 
L 50.233885 118.461275 
L 52.814459 118.346877 
L 53.158593 118.287625 
L 53.789429 118.269629 
L 55.165775 118.062616 
L 55.509783 117.997563 
L 55.853807 117.940263 
L 56.599393 117.78054 
L 57.918284 117.44346 
L 58.26236 117.296957 
L 58.663766 117.223717 
L 61.703131 116.328792 
L 61.93251 116.228059 
L 62.21924 116.100889 
L 62.506022 116.078109 
L 62.850053 115.953138 
L 63.251533 115.812806 
L 64.111695 115.500362 
L 65.029192 115.115092 
L 68.41264 113.786254 
L 69.100833 113.484928 
L 69.903621 113.168025 
L 70.878516 112.819434 
L 71.107929 112.748735 
L 71.566652 112.556931 
L 72.942941 112.026229 
L 73.229688 111.937996 
L 73.573885 111.736905 
L 73.917945 111.613368 
L 76.211725 110.641094 
L 76.498404 110.574946 
L 77.01453 110.386517 
L 78.84961 109.703605 
L 79.308402 109.569342 
L 79.595184 109.566909 
L 79.881828 109.469732 
L 80.168542 109.432105 
L 80.627333 109.429291 
L 81.2008 109.325457 
L 81.372832 109.212349 
L 81.659551 108.898785 
L 81.888941 108.676583 
L 83.03588 107.469295 
L 84.469613 106.442428 
L 85.616546 105.858511 
L 87.279473 105.409244 
L 87.508886 105.692978 
L 88.770466 107.333971 
L 90.72025 109.504265 
L 93.759638 111.829291 
L 94.619853 112.197996 
L 96.684277 112.697311 
L 97.028325 112.741367 
L 97.544474 112.791914 
L 98.289968 112.804496 
L 98.978167 112.804991 
L 101.55862 112.746644 
L 102.074752 112.733874 
L 103.27902 112.755281 
L 104.712723 112.89094 
L 105.400848 112.903224 
L 106.66249 112.957956 
L 107.236014 112.985848 
L 109.759167 113.30355 
L 111.709009 113.572256 
L 115.837967 113.81393 
L 122.088627 115.645571 
L 124.611763 115.935515 
L 125.47196 115.958147 
L 125.988213 115.979415 
L 128.511303 116.363267 
L 129.142196 116.59592 
L 131.321324 117.714124 
L 132.238838 118.243902 
L 134.934076 119.358507 
L 137.055944 119.625935 
L 137.973412 119.594692 
L 140.553986 119.585215 
L 141.414223 119.656894 
L 142.159711 119.692357 
L 143.019891 119.742582 
L 143.822713 119.906354 
L 144.510952 120.08967 
L 145.313706 120.329831 
L 146.173903 120.586441 
L 147.034134 120.872895 
L 147.492863 120.990883 
L 148.926549 121.390279 
L 149.729486 121.564442 
L 150.646909 121.750569 
L 152.367291 122.041117 
L 152.998133 122.165304 
L 154.317081 122.383936 
L 155.578661 122.614152 
L 156.381586 122.777234 
L 157.872567 123.009813 
L 158.560674 123.118561 
L 160.510412 123.433225 
L 161.370661 123.54607 
L 163.664459 123.921434 
L 165.385042 124.348123 
L 170.087226 125.880864 
L 171.234205 126.262435 
L 171.922323 126.504723 
L 174.216167 127.053011 
L 174.961643 127.208205 
L 181.499097 129.248313 
L 182.244607 129.545327 
L 194.860734 133.899951 
L 195.262157 134.096107 
L 195.606262 134.205219 
L 198.014821 135.05393 
L 198.817758 135.291681 
L 202.373077 136.36003 
L 203.692077 136.830102 
L 205.928535 137.65513 
L 206.846049 137.954578 
L 207.419521 138.162403 
L 209.197261 138.729376 
L 209.885414 138.910754 
L 213.612927 140.143534 
L 214.243711 140.371848 
L 215.505319 140.829894 
L 217.39778 141.439168 
L 218.200689 141.692429 
L 218.946067 141.932781 
L 219.634243 142.090687 
L 220.379754 142.295118 
L 220.953215 142.459662 
L 222.67362 142.828309 
L 223.476448 142.952489 
L 223.820536 142.986383 
L 224.45132 143.036559 
L 224.9101 143.029344 
L 225.712985 142.914733 
L 225.884955 142.982357 
L 226.458433 143.624745 
L 227.490622 144.608105 
L 229.440475 145.98147 
L 230.874082 146.736805 
L 231.791648 146.976518 
L 231.963714 146.756404 
L 232.823923 145.373967 
L 233.856055 143.921672 
L 235.519103 142.080195 
L 237.640942 140.423847 
L 239.934837 139.274641 
L 240.278868 139.131779 
L 240.680268 139.003775 
L 241.024367 138.987522 
L 241.196365 138.923982 
L 241.540499 138.745105 
L 242.228692 138.676779 
L 242.5727 138.551142 
L 242.859419 138.524837 
L 243.146178 138.50453 
L 243.432874 138.435249 
L 243.66227 138.46182 
L 243.949069 138.511326 
L 244.293042 138.505943 
L 244.981241 138.44114 
L 245.267989 138.405562 
L 245.956085 138.486896 
L 246.414848 138.482671 
L 247.103018 138.523052 
L 247.389794 138.502953 
L 247.73383 138.54092 
L 248.077896 138.598558 
L 249.110182 138.660227 
L 249.339636 138.662781 
L 249.569026 138.672526 
L 249.798473 138.697748 
L 250.085049 138.610595 
L 250.60114 138.708789 
L 252.3215 138.663954 
L 253.353764 138.623028 
L 253.640494 138.599917 
L 253.869873 138.580683 
L 254.156615 138.618314 
L 254.385953 138.605623 
L 254.672718 138.651864 
L 255.016778 138.564845 
L 255.303531 138.493516 
L 255.590284 138.488414 
L 255.876952 138.391103 
L 256.450418 138.233996 
L 256.90921 138.106784 
L 258.056126 137.760748 
L 265.511174 135.914193 
L 266.314031 135.629463 
L 266.887429 135.358997 
L 268.149054 134.779705 
L 268.550528 134.609368 
L 270.385654 133.837029 
L 271.819238 133.428884 
L 271.933855 133.373408 
L 271.933855 133.373408 
" clip-path="url(#pd09612dbb5)" style="fill: none; stroke: #000000; stroke-width: 0.7; stroke-linecap: round"/>
   </g>
   <g id="line2d_78">
    <g clip-path="url(#pd09612dbb5)">
     <use xlink:href="#mb5f8a996df" x="59.753393" y="118.927564" style="fill: #008000; stroke: #008000"/>
     <use xlink:href="#mb5f8a996df" x="86.706024" y="104.337584" style="fill: #008000; stroke: #008000"/>
     <use xlink:href="#mb5f8a996df" x="93.931636" y="107.084879" style="fill: #008000; stroke: #008000"/>
     <use xlink:href="#mb5f8a996df" x="231.791648" y="147.843186" style="fill: #008000; stroke: #008000"/>
     <use xlink:href="#mb5f8a996df" x="243.260824" y="142.33056" style="fill: #008000; stroke: #008000"/>
    </g>
   </g>
  </g>
  <g id="axes_4">
   <g id="line2d_79">
    <path d="M 31.080396 14.939859 
L 34.979844 14.974912 
L 35.495965 16.123446 
L 36.470882 18.125826 
L 38.191225 21.582307 
L 39.051428 21.541452 
L 53.101276 21.533958 
L 81.315481 21.48996 
L 81.659551 20.712264 
L 82.118354 19.778159 
L 83.207907 17.510342 
L 85.157708 13.499296 
L 87.336906 9.135302 
L 87.910286 9.168421 
L 90.26151 9.179299 
L 96.913776 9.177849 
L 103.508467 9.178332 
L 225.827603 9.231517 
L 226.229043 10.105669 
L 226.974548 11.659127 
L 229.727137 17.327824 
L 231.791648 21.553298 
L 232.250365 21.550155 
L 247.332391 21.533958 
L 271.933855 21.5342 
L 271.933855 21.5342 
" clip-path="url(#p11e58011fd)" style="fill: none; stroke: #808080; stroke-width: 0.4; stroke-linecap: round"/>
   </g>
   <g id="matplotlib.axis_7">
    <g id="text_29">
     <!-- $\delta$ [deg] -->
     <g style="fill: #808080" transform="translate(280.493855 26.126145) rotate(-90) scale(0.06 -0.06)">
      <defs>
       <path id="DejaVuSans-Oblique-3b4" d="M 3472 4053 
Q 3197 4272 2450 4272 
Q 1659 4272 1588 3906 
Q 1531 3619 2328 3469 
Q 2953 3353 3253 3003 
Q 3616 2581 3447 1716 
Q 3284 888 2763 400 
Q 2238 -91 1488 -91 
Q 741 -91 406 400 
Q 72 888 241 1747 
Q 363 2384 891 2900 
Q 1097 3100 1353 3213 
Q 913 3459 1000 3900 
Q 1166 4750 2544 4750 
Q 3234 4750 3566 4531 
L 3472 4053 
z
M 1753 3056 
Q 1525 2966 1306 2738 
Q 969 2384 847 1747 
Q 722 1113 919 756 
Q 1119 397 1584 397 
Q 2044 397 2381 759 
Q 2722 1122 2838 1716 
Q 2956 2338 2731 2638 
Q 2491 2959 2103 2994 
Q 1906 3013 1753 3056 
z
" transform="scale(0.015625)"/>
       <path id="DejaVuSerif-65" d="M 3469 1600 
L 991 1600 
L 991 1575 
Q 991 903 1244 561 
Q 1497 219 1991 219 
Q 2369 219 2611 417 
Q 2853 616 2950 1006 
L 3413 1006 
Q 3275 459 2904 184 
Q 2534 -91 1931 -91 
Q 1203 -91 761 389 
Q 319 869 319 1663 
Q 319 2450 753 2931 
Q 1188 3413 1894 3413 
Q 2647 3413 3050 2948 
Q 3453 2484 3469 1600 
z
M 2791 1931 
Q 2772 2513 2545 2808 
Q 2319 3103 1894 3103 
Q 1497 3103 1269 2806 
Q 1041 2509 991 1931 
L 2791 1931 
z
" transform="scale(0.015625)"/>
      </defs>
      <use xlink:href="#DejaVuSans-Oblique-3b4" transform="translate(0 0.015625)"/>
      <use xlink:href="#DejaVuSerif-20" transform="translate(61.181641 0.015625)"/>
      <use xlink:href="#DejaVuSerif-5b" transform="translate(92.96875 0.015625)"/>
      <use xlink:href="#DejaVuSerif-64" transform="translate(131.982422 0.015625)"/>
      <use xlink:href="#DejaVuSerif-65" transform="translate(195.996094 0.015625)"/>
      <use xlink:href="#DejaVuSerif-67" transform="translate(255.175781 0.015625)"/>
      <use xlink:href="#DejaVuSerif-5d" transform="translate(319.189453 0.015625)"/>
     </g>
    </g>
   </g>
   <g id="patch_19">
    <path d="M 31.080396 27.712051 
L 31.080396 3.00024 
" style="fill: none; stroke: #000000; stroke-linejoin: miter; stroke-linecap: square"/>
   </g>
   <g id="patch_20">
    <path d="M 31.080396 27.712051 
L 271.933855 27.712051 
" style="fill: none; stroke: #000000; stroke-linejoin: miter; stroke-linecap: square"/>
   </g>
  </g>
 </g>
 <defs>
  <clipPath id="p11e58011fd">
   <rect x="31.080396" y="3.00024" width="240.853459" height="24.711811"/>
  </clipPath>
  <clipPath id="pc7d070d7a6">
   <rect x="31.080396" y="45.844678" width="240.853459" height="49.423621"/>
  </clipPath>
  <clipPath id="pd09612dbb5">
   <rect x="31.080396" y="101.268779" width="240.853459" height="49.423621"/>
  </clipPath>
 </defs>
</svg>
