<?xml version="1.0" encoding="utf-8" standalone="no"?>
<!DOCTYPE svg PUBLIC "-//W3C//DTD SVG 1.1//EN"
  "http://www.w3.org/Graphics/SVG/1.1/DTD/svg11.dtd">
<svg xmlns:xlink="http://www.w3.org/1999/xlink" width="129.53976pt" height="72.874368pt" viewBox="0 0 129.53976 72.874368" xmlns="http://www.w3.org/2000/svg" version="1.1">
 <metadata>
  <rdf:RDF xmlns:dc="http://purl.org/dc/elements/1.1/" xmlns:cc="http://creativecommons.org/ns#" xmlns:rdf="http://www.w3.org/1999/02/22-rdf-syntax-ns#">
   <cc:Work>
    <dc:type rdf:resource="http://purl.org/dc/dcmitype/StillImage"/>
    <dc:date>2025-01-02T14:26:38.691160</dc:date>
    <dc:format>image/svg+xml</dc:format>
    <dc:creator>
     <cc:Agent>
      <dc:title>Matplotlib v3.8.2, https://matplotlib.org/</dc:title>
     </cc:Agent>
    </dc:creator>
   </cc:Work>
  </rdf:RDF>
 </metadata>
 <defs>
  <style type="text/css">*{stroke-linejoin: round; stroke-linecap: butt}</style>
 </defs>
 <g id="figure_1">
  <g id="patch_1">
   <path d="M 0 72.874368 
L 129.53976 72.874368 
L 129.53976 0 
L 0 0 
z
" style="fill: #ffffff"/>
  </g>
  <g id="patch_2">
   <path d="M 31.332936 69.874128 
L 98.206824 69.874128 
L 98.206824 3.00024 
L 31.332936 3.00024 
z
" style="fill: #ffffff"/>
  </g>
  <g id="pane3d_1">
   <g id="patch_3">
    <path d="M 65.673581 37.145691 
L 95.53931 49.888215 
L 96.687927 20.626677 
L 65.673581 9.540638 
" style="fill: #f2f2f2; opacity: 0.5; stroke: #f2f2f2; stroke-linejoin: miter"/>
   </g>
  </g>
  <g id="pane3d_2">
   <g id="patch_4">
    <path d="M 65.673581 37.145691 
L 35.807853 49.888215 
L 34.659235 20.626677 
L 65.673581 9.540638 
" style="fill: #e6e6e6; opacity: 0.5; stroke: #e6e6e6; stroke-linejoin: miter"/>
   </g>
  </g>
  <g id="pane3d_3">
   <g id="patch_5">
    <path d="M 65.673581 37.145691 
L 35.807853 49.888215 
L 65.673581 64.693511 
L 95.53931 49.888215 
" style="fill: #ececec; opacity: 0.5; stroke: #ececec; stroke-linejoin: miter"/>
   </g>
  </g>
  <g id="grid3d_1">
   <g id="Line3DCollection_1">
    <path d="M 93.772658 50.763995 
L 63.89756 37.903449 
L 63.833891 10.198233 
" style="fill: none; stroke: #b0b0b0; stroke-width: 0.1"/>
    <path d="M 81.187276 57.002929 
L 51.279624 43.287022 
L 50.746759 14.876212 
" style="fill: none; stroke: #b0b0b0; stroke-width: 0.1"/>
    <path d="M 67.717431 63.680316 
L 37.841023 49.020742 
L 36.775871 19.870088 
" style="fill: none; stroke: #b0b0b0; stroke-width: 0.1"/>
   </g>
  </g>
  <g id="grid3d_2">
   <g id="Line3DCollection_2">
    <path d="M 77.785976 13.870198 
L 77.356418 42.130295 
L 47.450721 55.659918 
" style="fill: none; stroke: #b0b0b0; stroke-width: 0.1"/>
    <path d="M 94.60307 19.881447 
L 93.53667 49.033768 
L 63.660411 63.695525 
" style="fill: none; stroke: #b0b0b0; stroke-width: 0.1"/>
   </g>
  </g>
  <g id="grid3d_3">
   <g id="Line3DCollection_3">
    <path d="M 35.723887 47.74916 
L 65.673581 35.122717 
L 95.623275 47.74916 
" style="fill: none; stroke: #b0b0b0; stroke-width: 0.1"/>
    <path d="M 35.18631 34.054133 
L 65.673581 22.189632 
L 96.160853 34.054133 
" style="fill: none; stroke: #b0b0b0; stroke-width: 0.1"/>
   </g>
  </g>
  <g id="axis3d_1">
   <g id="line2d_1">
    <path d="M 95.53931 49.888215 
L 65.673581 64.693511 
" style="fill: none; stroke: #000000; stroke-linecap: round"/>
   </g>
   <g id="xtick_1">
    <g id="line2d_2">
     <path d="M 93.515829 50.653436 
L 94.287243 50.985512 
" style="fill: none; stroke: #262626; stroke-width: 0.8; stroke-linecap: round"/>
    </g>
    <g id="text_1">
     <!-- −10 -->
     <g style="fill: #262626" transform="translate(96.777361 70.162732) scale(0.07 -0.07)">
      <defs>
       <path id="DejaVuSerif-2212" d="M 678 2259 
L 4684 2259 
L 4684 1753 
L 678 1753 
L 678 2259 
z
" transform="scale(0.015625)"/>
       <path id="DejaVuSerif-31" d="M 909 0 
L 909 331 
L 1722 331 
L 1722 4213 
L 781 3603 
L 781 4013 
L 1919 4750 
L 2350 4750 
L 2350 331 
L 3163 331 
L 3163 0 
L 909 0 
z
" transform="scale(0.015625)"/>
       <path id="DejaVuSerif-30" d="M 2034 219 
Q 2513 219 2750 744 
Q 2988 1269 2988 2328 
Q 2988 3391 2750 3916 
Q 2513 4441 2034 4441 
Q 1556 4441 1318 3916 
Q 1081 3391 1081 2328 
Q 1081 1269 1318 744 
Q 1556 219 2034 219 
z
M 2034 -91 
Q 1275 -91 848 546 
Q 422 1184 422 2328 
Q 422 3475 848 4112 
Q 1275 4750 2034 4750 
Q 2797 4750 3222 4112 
Q 3647 3475 3647 2328 
Q 3647 1184 3222 546 
Q 2797 -91 2034 -91 
z
" transform="scale(0.015625)"/>
      </defs>
      <use xlink:href="#DejaVuSerif-2212"/>
      <use xlink:href="#DejaVuSerif-31" x="83.789062"/>
      <use xlink:href="#DejaVuSerif-30" x="147.412109"/>
     </g>
    </g>
   </g>
   <g id="xtick_2">
    <g id="line2d_3">
     <path d="M 80.929562 56.884739 
L 81.703666 57.23975 
" style="fill: none; stroke: #262626; stroke-width: 0.8; stroke-linecap: round"/>
    </g>
    <g id="text_2">
     <!-- 0 -->
     <g style="fill: #262626" transform="translate(89.543601 76.967956) scale(0.07 -0.07)">
      <use xlink:href="#DejaVuSerif-30"/>
     </g>
    </g>
   </g>
   <g id="xtick_3">
    <g id="line2d_4">
     <path d="M 67.45934 63.553677 
L 68.234613 63.934084 
" style="fill: none; stroke: #262626; stroke-width: 0.8; stroke-linecap: round"/>
    </g>
    <g id="text_3">
     <!-- 10 -->
     <g style="fill: #262626" transform="translate(74.040359 84.257945) scale(0.07 -0.07)">
      <use xlink:href="#DejaVuSerif-31"/>
      <use xlink:href="#DejaVuSerif-30" x="63.623047"/>
     </g>
    </g>
   </g>
   <g id="text_4">
    <!-- $\beta$ [deg] -->
    <g style="fill: #262626" transform="translate(93.725017 90.961612) scale(0.06 -0.06)">
     <defs>
      <path id="DejaVuSans-Oblique-3b2" d="M 872 216 
L 572 -1331 
L -6 -1331 
L 928 3478 
Q 1206 4903 2538 4903 
Q 3888 4903 3659 3700 
Q 3503 2844 2894 2531 
Q 3713 2250 3553 1416 
Q 3272 -69 1759 -66 
Q 1097 -63 872 216 
z
M 1019 966 
Q 1259 422 1875 425 
Q 2775 425 2966 1406 
Q 3138 2288 1675 2219 
L 1778 2750 
Q 2909 2731 3106 3750 
Q 3241 4438 2509 4434 
Q 1691 4434 1503 3459 
L 1019 966 
z
" transform="scale(0.015625)"/>
      <path id="DejaVuSerif-20" transform="scale(0.015625)"/>
      <path id="DejaVuSerif-5b" d="M 550 4863 
L 2003 4863 
L 2003 4531 
L 1147 4531 
L 1147 -513 
L 2003 -513 
L 2003 -844 
L 550 -844 
L 550 4863 
z
" transform="scale(0.015625)"/>
      <path id="DejaVuSerif-64" d="M 3359 331 
L 3909 331 
L 3909 0 
L 2784 0 
L 2784 519 
Q 2616 206 2355 57 
Q 2094 -91 1709 -91 
Q 1097 -91 708 395 
Q 319 881 319 1663 
Q 319 2444 706 2928 
Q 1094 3413 1709 3413 
Q 2094 3413 2355 3264 
Q 2616 3116 2784 2803 
L 2784 4531 
L 2241 4531 
L 2241 4863 
L 3359 4863 
L 3359 331 
z
M 2784 1497 
L 2784 1825 
Q 2784 2422 2554 2737 
Q 2325 3053 1888 3053 
Q 1444 3053 1217 2703 
Q 991 2353 991 1663 
Q 991 975 1217 622 
Q 1444 269 1888 269 
Q 2325 269 2554 583 
Q 2784 897 2784 1497 
z
" transform="scale(0.015625)"/>
      <path id="DejaVuSerif-65" d="M 3469 1600 
L 991 1600 
L 991 1575 
Q 991 903 1244 561 
Q 1497 219 1991 219 
Q 2369 219 2611 417 
Q 2853 616 2950 1006 
L 3413 1006 
Q 3275 459 2904 184 
Q 2534 -91 1931 -91 
Q 1203 -91 761 389 
Q 319 869 319 1663 
Q 319 2450 753 2931 
Q 1188 3413 1894 3413 
Q 2647 3413 3050 2948 
Q 3453 2484 3469 1600 
z
M 2791 1931 
Q 2772 2513 2545 2808 
Q 2319 3103 1894 3103 
Q 1497 3103 1269 2806 
Q 1041 2509 991 1931 
L 2791 1931 
z
" transform="scale(0.015625)"/>
      <path id="DejaVuSerif-67" d="M 3359 2988 
L 3359 72 
Q 3359 -644 2965 -1033 
Q 2572 -1422 1844 -1422 
Q 1516 -1422 1216 -1362 
Q 916 -1303 641 -1184 
L 641 -488 
L 941 -488 
Q 997 -813 1206 -963 
Q 1416 -1113 1806 -1113 
Q 2313 -1113 2548 -827 
Q 2784 -541 2784 72 
L 2784 519 
Q 2616 206 2355 57 
Q 2094 -91 1709 -91 
Q 1097 -91 708 395 
Q 319 881 319 1663 
Q 319 2444 706 2928 
Q 1094 3413 1709 3413 
Q 2094 3413 2355 3264 
Q 2616 3116 2784 2803 
L 2784 3322 
L 3909 3322 
L 3909 2988 
L 3359 2988 
z
M 2784 1825 
Q 2784 2422 2554 2737 
Q 2325 3053 1888 3053 
Q 1444 3053 1217 2703 
Q 991 2353 991 1663 
Q 991 975 1217 622 
Q 1444 269 1888 269 
Q 2325 269 2554 583 
Q 2784 897 2784 1497 
L 2784 1825 
z
" transform="scale(0.015625)"/>
      <path id="DejaVuSerif-5d" d="M 1947 4863 
L 1947 -844 
L 494 -844 
L 494 -513 
L 1350 -513 
L 1350 4531 
L 494 4531 
L 494 4863 
L 1947 4863 
z
" transform="scale(0.015625)"/>
     </defs>
     <use xlink:href="#DejaVuSans-Oblique-3b2" transform="translate(0 0.390625)"/>
     <use xlink:href="#DejaVuSerif-20" transform="translate(63.818359 0.390625)"/>
     <use xlink:href="#DejaVuSerif-5b" transform="translate(95.605469 0.390625)"/>
     <use xlink:href="#DejaVuSerif-64" transform="translate(134.619141 0.390625)"/>
     <use xlink:href="#DejaVuSerif-65" transform="translate(198.632812 0.390625)"/>
     <use xlink:href="#DejaVuSerif-67" transform="translate(257.8125 0.390625)"/>
     <use xlink:href="#DejaVuSerif-5d" transform="translate(321.826172 0.390625)"/>
    </g>
   </g>
  </g>
  <g id="axis3d_2">
   <g id="line2d_5">
    <path d="M 35.807853 49.888215 
L 65.673581 64.693511 
" style="fill: none; stroke: #000000; stroke-linecap: round"/>
   </g>
   <g id="xtick_4">
    <g id="line2d_6">
     <path d="M 47.708287 55.543392 
L 46.934632 55.893401 
" style="fill: none; stroke: #262626; stroke-width: 0.8; stroke-linecap: round"/>
    </g>
    <g id="text_5">
     <!-- 0.0 -->
     <g style="fill: #262626" transform="translate(31.341822 75.502548) scale(0.07 -0.07)">
      <defs>
       <path id="DejaVuSerif-2e" d="M 603 325 
Q 603 500 722 622 
Q 841 744 1019 744 
Q 1191 744 1312 622 
Q 1434 500 1434 325 
Q 1434 153 1312 31 
Q 1191 -91 1019 -91 
Q 841 -91 722 29 
Q 603 150 603 325 
z
" transform="scale(0.015625)"/>
      </defs>
      <use xlink:href="#DejaVuSerif-30"/>
      <use xlink:href="#DejaVuSerif-2e" x="63.623047"/>
      <use xlink:href="#DejaVuSerif-30" x="95.410156"/>
     </g>
    </g>
   </g>
   <g id="xtick_5">
    <g id="line2d_7">
     <path d="M 63.918502 63.568866 
L 63.143228 63.949332 
" style="fill: none; stroke: #262626; stroke-width: 0.8; stroke-linecap: round"/>
    </g>
    <g id="text_6">
     <!-- 0.1 -->
     <g style="fill: #262626" transform="translate(47.317213 84.274557) scale(0.07 -0.07)">
      <use xlink:href="#DejaVuSerif-30"/>
      <use xlink:href="#DejaVuSerif-2e" x="63.623047"/>
      <use xlink:href="#DejaVuSerif-31" x="95.410156"/>
     </g>
    </g>
   </g>
   <g id="text_7">
    <!-- $r$ [rad/s] -->
    <g style="fill: #262626" transform="translate(14.552146 90.997237) scale(0.06 -0.06)">
     <defs>
      <path id="DejaVuSans-Oblique-72" d="M 2853 2969 
Q 2766 3016 2653 3041 
Q 2541 3066 2413 3066 
Q 1953 3066 1609 2717 
Q 1266 2369 1153 1784 
L 800 0 
L 225 0 
L 909 3500 
L 1484 3500 
L 1375 2956 
Q 1603 3259 1920 3421 
Q 2238 3584 2597 3584 
Q 2691 3584 2781 3573 
Q 2872 3563 2963 3538 
L 2853 2969 
z
" transform="scale(0.015625)"/>
      <path id="DejaVuSerif-72" d="M 3059 3328 
L 3059 2497 
L 2728 2497 
Q 2713 2744 2591 2866 
Q 2469 2988 2234 2988 
Q 1809 2988 1582 2694 
Q 1356 2400 1356 1850 
L 1356 331 
L 2022 331 
L 2022 0 
L 263 0 
L 263 331 
L 781 331 
L 781 2994 
L 231 2994 
L 231 3322 
L 1356 3322 
L 1356 2731 
Q 1525 3078 1790 3245 
Q 2056 3413 2438 3413 
Q 2578 3413 2733 3391 
Q 2888 3369 3059 3328 
z
" transform="scale(0.015625)"/>
      <path id="DejaVuSerif-61" d="M 2547 1044 
L 2547 1747 
L 1806 1747 
Q 1378 1747 1168 1562 
Q 959 1378 959 997 
Q 959 650 1171 447 
Q 1384 244 1747 244 
Q 2106 244 2326 466 
Q 2547 688 2547 1044 
z
M 3122 2075 
L 3122 331 
L 3634 331 
L 3634 0 
L 2547 0 
L 2547 359 
Q 2356 128 2106 18 
Q 1856 -91 1522 -91 
Q 969 -91 644 203 
Q 319 497 319 997 
Q 319 1513 691 1797 
Q 1063 2081 1741 2081 
L 2547 2081 
L 2547 2309 
Q 2547 2688 2317 2895 
Q 2088 3103 1672 3103 
Q 1328 3103 1125 2947 
Q 922 2791 872 2484 
L 575 2484 
L 575 3156 
Q 875 3284 1158 3348 
Q 1441 3413 1709 3413 
Q 2400 3413 2761 3070 
Q 3122 2728 3122 2075 
z
" transform="scale(0.015625)"/>
      <path id="DejaVuSerif-2f" d="M 1656 4666 
L 2156 4666 
L 500 -594 
L 0 -594 
L 1656 4666 
z
" transform="scale(0.015625)"/>
      <path id="DejaVuSerif-73" d="M 359 184 
L 359 959 
L 691 959 
Q 703 588 923 403 
Q 1144 219 1575 219 
Q 1963 219 2166 364 
Q 2369 509 2369 788 
Q 2369 1006 2220 1140 
Q 2072 1275 1594 1428 
L 1178 1569 
Q 750 1706 558 1912 
Q 366 2119 366 2438 
Q 366 2894 700 3153 
Q 1034 3413 1625 3413 
Q 1888 3413 2178 3344 
Q 2469 3275 2778 3144 
L 2778 2419 
L 2447 2419 
Q 2434 2741 2221 2922 
Q 2009 3103 1644 3103 
Q 1281 3103 1095 2975 
Q 909 2847 909 2591 
Q 909 2381 1050 2254 
Q 1191 2128 1613 1997 
L 2069 1856 
Q 2541 1709 2748 1489 
Q 2956 1269 2956 922 
Q 2956 450 2595 179 
Q 2234 -91 1600 -91 
Q 1278 -91 972 -22 
Q 666 47 359 184 
z
" transform="scale(0.015625)"/>
     </defs>
     <use xlink:href="#DejaVuSans-Oblique-72" transform="translate(0 0.015625)"/>
     <use xlink:href="#DejaVuSerif-20" transform="translate(41.113281 0.015625)"/>
     <use xlink:href="#DejaVuSerif-5b" transform="translate(72.900391 0.015625)"/>
     <use xlink:href="#DejaVuSerif-72" transform="translate(111.914062 0.015625)"/>
     <use xlink:href="#DejaVuSerif-61" transform="translate(159.716797 0.015625)"/>
     <use xlink:href="#DejaVuSerif-64" transform="translate(219.335938 0.015625)"/>
     <use xlink:href="#DejaVuSerif-2f" transform="translate(283.349609 0.015625)"/>
     <use xlink:href="#DejaVuSerif-73" transform="translate(317.041016 0.015625)"/>
     <use xlink:href="#DejaVuSerif-5d" transform="translate(368.359375 0.015625)"/>
    </g>
   </g>
  </g>
  <g id="axis3d_3">
   <g id="line2d_8">
    <path d="M 35.807853 49.888215 
L 34.659235 20.626677 
" style="fill: none; stroke: #000000; stroke-linecap: round"/>
   </g>
   <g id="xtick_6">
    <g id="line2d_9">
     <path d="M 35.981322 47.640629 
L 35.20809 47.966615 
" style="fill: none; stroke: #262626; stroke-width: 0.8; stroke-linecap: round"/>
    </g>
    <g id="text_8">
     <!-- −100 -->
     <g style="fill: #262626" transform="translate(6.333168 53.068067) scale(0.07 -0.07)">
      <use xlink:href="#DejaVuSerif-2212"/>
      <use xlink:href="#DejaVuSerif-31" x="83.789062"/>
      <use xlink:href="#DejaVuSerif-30" x="147.412109"/>
      <use xlink:href="#DejaVuSerif-30" x="211.035156"/>
     </g>
    </g>
   </g>
   <g id="xtick_7">
    <g id="line2d_10">
     <path d="M 35.44869 33.952024 
L 34.660584 34.258725 
" style="fill: none; stroke: #262626; stroke-width: 0.8; stroke-linecap: round"/>
    </g>
    <g id="text_9">
     <!-- 0 -->
     <g style="fill: #262626" transform="translate(12.827243 39.373039) scale(0.07 -0.07)">
      <use xlink:href="#DejaVuSerif-30"/>
     </g>
    </g>
   </g>
   <g id="text_10">
    <!-- $N_H$ -->
    <g style="fill: #262626" transform="translate(1.610434 37.189108) scale(0.06 -0.06)">
     <defs>
      <path id="DejaVuSans-Oblique-4e" d="M 1081 4666 
L 1931 4666 
L 3219 666 
L 4000 4666 
L 4616 4666 
L 3706 0 
L 2853 0 
L 1569 4025 
L 788 0 
L 172 0 
L 1081 4666 
z
" transform="scale(0.015625)"/>
      <path id="DejaVuSans-Oblique-48" d="M 1081 4666 
L 1716 4666 
L 1344 2753 
L 3634 2753 
L 4006 4666 
L 4641 4666 
L 3731 0 
L 3097 0 
L 3531 2222 
L 1241 2222 
L 806 0 
L 172 0 
L 1081 4666 
z
" transform="scale(0.015625)"/>
     </defs>
     <use xlink:href="#DejaVuSans-Oblique-4e" transform="translate(0 0.09375)"/>
     <use xlink:href="#DejaVuSans-Oblique-48" transform="translate(74.804688 -16.3125) scale(0.7)"/>
    </g>
   </g>
  </g>
  <g id="axes_1">
   <g id="Path3DCollection_1">
    <defs>
     <path id="C0_0_8be47a6e7b" d="M 0 0.216506 
C 0.057418 0.216506 0.112492 0.193694 0.153093 0.153093 
C 0.193694 0.112492 0.216506 0.057418 0.216506 -0 
C 0.216506 -0.057418 0.193694 -0.112492 0.153093 -0.153093 
C 0.112492 -0.193694 0.057418 -0.216506 0 -0.216506 
C -0.057418 -0.216506 -0.112492 -0.193694 -0.153093 -0.153093 
C -0.193694 -0.112492 -0.216506 -0.057418 -0.216506 0 
C -0.216506 0.057418 -0.193694 0.112492 -0.153093 0.153093 
C -0.112492 0.193694 -0.057418 0.216506 0 0.216506 
z
"/>
    </defs>
    <g clip-path="url(#pb5ea187056)">
     <use xlink:href="#C0_0_8be47a6e7b" x="65.673581" y="12.690936" style="fill-opacity: 0.3; stroke: #000000; stroke-opacity: 0.3"/>
    </g>
    <g clip-path="url(#pb5ea187056)">
     <use xlink:href="#C0_0_8be47a6e7b" x="68.184653" y="14.555258" style="fill-opacity: 0.333893; stroke: #000000; stroke-opacity: 0.333893"/>
    </g>
    <g clip-path="url(#pb5ea187056)">
     <use xlink:href="#C0_0_8be47a6e7b" x="71.998378" y="18.16393" style="fill-opacity: 0.378908; stroke: #000000; stroke-opacity: 0.378908"/>
    </g>
    <g clip-path="url(#pb5ea187056)">
     <use xlink:href="#C0_0_8be47a6e7b" x="59.275337" y="18.237634" style="fill-opacity: 0.37974; stroke: #000000; stroke-opacity: 0.37974"/>
    </g>
    <g clip-path="url(#pb5ea187056)">
     <use xlink:href="#C0_0_8be47a6e7b" x="61.786307" y="20.690249" style="fill-opacity: 0.409871; stroke: #000000; stroke-opacity: 0.409871"/>
    </g>
    <g clip-path="url(#pb5ea187056)">
     <use xlink:href="#C0_0_8be47a6e7b" x="75.855882" y="21.685491" style="fill-opacity: 0.425508; stroke: #000000; stroke-opacity: 0.425508"/>
    </g>
    <g clip-path="url(#pb5ea187056)">
     <use xlink:href="#C0_0_8be47a6e7b" x="57.875051" y="24.260064" style="fill-opacity: 0.457838; stroke: #000000; stroke-opacity: 0.457838"/>
    </g>
    <g clip-path="url(#pb5ea187056)">
     <use xlink:href="#C0_0_8be47a6e7b" x="65.595281" y="24.133448" style="fill-opacity: 0.457971; stroke: #000000; stroke-opacity: 0.457971"/>
    </g>
    <g clip-path="url(#pb5ea187056)">
     <use xlink:href="#C0_0_8be47a6e7b" x="72.038382" y="24.95231" style="fill-opacity: 0.476459; stroke: #000000; stroke-opacity: 0.476459"/>
    </g>
    <g clip-path="url(#pb5ea187056)">
     <use xlink:href="#C0_0_8be47a6e7b" x="61.681142" y="27.346719" style="fill-opacity: 0.510182; stroke: #000000; stroke-opacity: 0.510182"/>
    </g>
    <g clip-path="url(#pb5ea187056)">
     <use xlink:href="#C0_0_8be47a6e7b" x="68.16303" y="28.225756" style="fill-opacity: 0.52856; stroke: #000000; stroke-opacity: 0.52856"/>
    </g>
    <g clip-path="url(#pb5ea187056)">
     <use xlink:href="#C0_0_8be47a6e7b" x="73.385925" y="30.428273" style="fill-opacity: 0.56281; stroke: #000000; stroke-opacity: 0.56281"/>
    </g>
    <g clip-path="url(#pb5ea187056)">
     <use xlink:href="#C0_0_8be47a6e7b" x="65.546347" y="30.416027" style="fill-opacity: 0.563916; stroke: #000000; stroke-opacity: 0.563916"/>
    </g>
    <g clip-path="url(#pb5ea187056)">
     <use xlink:href="#C0_0_8be47a6e7b" x="56.370912" y="31.976999" style="fill-opacity: 0.578676; stroke: #000000; stroke-opacity: 0.578676"/>
    </g>
    <g clip-path="url(#pb5ea187056)">
     <use xlink:href="#C0_0_8be47a6e7b" x="64.22801" y="31.596169" style="fill-opacity: 0.581052; stroke: #000000; stroke-opacity: 0.581052"/>
    </g>
    <g clip-path="url(#pb5ea187056)">
     <use xlink:href="#C0_0_8be47a6e7b" x="61.572261" y="34.101949" style="fill-opacity: 0.614437; stroke: #000000; stroke-opacity: 0.614437"/>
    </g>
    <g clip-path="url(#pb5ea187056)">
     <use xlink:href="#C0_0_8be47a6e7b" x="60.234255" y="35.293788" style="fill-opacity: 0.631881; stroke: #000000; stroke-opacity: 0.631881"/>
    </g>
    <g clip-path="url(#pb5ea187056)">
     <use xlink:href="#C0_0_8be47a6e7b" x="57.536923" y="37.594533" style="fill-opacity: 0.667947; stroke: #000000; stroke-opacity: 0.667947"/>
    </g>
    <g clip-path="url(#pb5ea187056)">
     <use xlink:href="#C0_0_8be47a6e7b" x="53.440379" y="41.23135" style="fill-opacity: 0.721462; stroke: #000000; stroke-opacity: 0.721462"/>
    </g>
    <g clip-path="url(#pb5ea187056)">
     <use xlink:href="#C0_0_8be47a6e7b" x="68.143033" y="41.807167" style="fill-opacity: 0.743324; stroke: #000000; stroke-opacity: 0.743324"/>
    </g>
    <g clip-path="url(#pb5ea187056)">
     <use xlink:href="#C0_0_8be47a6e7b" x="49.277847" y="44.789538" style="fill-opacity: 0.777052; stroke: #000000; stroke-opacity: 0.777052"/>
    </g>
    <g clip-path="url(#pb5ea187056)">
     <use xlink:href="#C0_0_8be47a6e7b" x="64.084508" y="45.764784" style="fill-opacity: 0.795683; stroke: #000000; stroke-opacity: 0.795683"/>
    </g>
    <g clip-path="url(#pb5ea187056)">
     <use xlink:href="#C0_0_8be47a6e7b" x="53.198943" y="48.733479" style="fill-opacity: 0.829215; stroke: #000000; stroke-opacity: 0.829215"/>
    </g>
    <g clip-path="url(#pb5ea187056)">
     <use xlink:href="#C0_0_8be47a6e7b" x="66.774767" y="48.468206" style="fill-opacity: 0.829984; stroke: #000000; stroke-opacity: 0.829984"/>
    </g>
    <g clip-path="url(#pb5ea187056)">
     <use xlink:href="#C0_0_8be47a6e7b" x="57.18771" y="52.718754" style="fill-opacity: 0.882539; stroke: #000000; stroke-opacity: 0.882539"/>
    </g>
    <g clip-path="url(#pb5ea187056)">
     <use xlink:href="#C0_0_8be47a6e7b" x="59.873939" y="55.049095" style="fill-opacity: 0.921907; stroke: #000000; stroke-opacity: 0.921907"/>
    </g>
    <g clip-path="url(#pb5ea187056)">
     <use xlink:href="#C0_0_8be47a6e7b" x="65.673581" y="60.786424" style="stroke: #000000"/>
    </g>
   </g>
   <g id="Poly3DCollection_1">
    <path d="M 65.673581 13.948602 
L 64.341156 14.988696 
L 65.673581 16.029387 
L 67.006015 14.98377 
z
" clip-path="url(#pb5ea187056)" style="fill: #b40426; fill-opacity: 0.75"/>
    <path d="M 64.341156 14.988696 
L 63.001704 16.051613 
L 64.334073 17.097896 
L 65.673581 16.029387 
z
" clip-path="url(#pb5ea187056)" style="fill: #bd1f2d; fill-opacity: 0.75"/>
    <path d="M 67.006015 14.98377 
L 65.673581 16.029387 
L 67.013127 17.07564 
L 68.34555 16.024455 
z
" clip-path="url(#pb5ea187056)" style="fill: #bd1f2d; fill-opacity: 0.75"/>
    <path d="M 63.001704 16.051613 
L 61.655247 17.135554 
L 62.987515 18.187494 
L 64.334073 17.097896 
z
" clip-path="url(#pb5ea187056)" style="fill: #c83836; fill-opacity: 0.75"/>
    <path d="M 65.673581 16.029387 
L 64.334073 17.097896 
L 65.673581 18.149784 
L 67.013127 17.07564 
z
" clip-path="url(#pb5ea187056)" style="fill: #c73635; fill-opacity: 0.75"/>
    <path d="M 68.34555 16.024455 
L 67.013127 17.07564 
L 68.35985 18.127499 
L 69.692244 17.070701 
z
" clip-path="url(#pb5ea187056)" style="fill: #c73635; fill-opacity: 0.75"/>
    <path d="M 61.655247 17.135554 
L 60.301796 18.238663 
L 61.633922 19.296323 
L 62.987515 18.187494 
z
" clip-path="url(#pb5ea187056)" style="fill: #d1493f; fill-opacity: 0.75"/>
    <path d="M 64.334073 17.097896 
L 62.987515 18.187494 
L 64.326941 19.245085 
L 65.673581 18.149784 
z
" clip-path="url(#pb5ea187056)" style="fill: #d0473d; fill-opacity: 0.75"/>
    <path d="M 67.013127 17.07564 
L 65.673581 18.149784 
L 67.020286 19.207325 
L 68.35985 18.127499 
z
" clip-path="url(#pb5ea187056)" style="fill: #d0473d; fill-opacity: 0.75"/>
    <path d="M 69.692244 17.070701 
L 68.35985 18.127499 
L 69.713809 19.185009 
L 71.046153 18.122553 
z
" clip-path="url(#pb5ea187056)" style="fill: #d0473d; fill-opacity: 0.75"/>
    <path d="M 60.301796 18.238663 
L 58.941349 19.359032 
L 60.273292 20.422473 
L 61.633922 19.296323 
z
" clip-path="url(#pb5ea187056)" style="fill: #d95847; fill-opacity: 0.75"/>
    <path d="M 62.987515 18.187494 
L 61.633922 19.296323 
L 62.973222 20.35968 
L 64.326941 19.245085 
z
" clip-path="url(#pb5ea187056)" style="fill: #d95847; fill-opacity: 0.75"/>
    <path d="M 65.673581 18.149784 
L 64.326941 19.245085 
L 65.673581 20.308372 
L 67.020286 19.207325 
z
" clip-path="url(#pb5ea187056)" style="fill: #d85646; fill-opacity: 0.75"/>
    <path d="M 68.35985 18.127499 
L 67.020286 19.207325 
L 68.374245 20.270561 
L 69.713809 19.185009 
z
" clip-path="url(#pb5ea187056)" style="fill: #d85646; fill-opacity: 0.75"/>
    <path d="M 71.046153 18.122553 
L 69.713809 19.185009 
L 71.075061 20.248216 
L 72.407336 19.180056 
z
" clip-path="url(#pb5ea187056)" style="fill: #d75445; fill-opacity: 0.75"/>
    <path d="M 58.941349 19.359032 
L 57.573887 20.494705 
L 58.905612 21.563986 
L 60.273292 20.422473 
z
" clip-path="url(#pb5ea187056)" style="fill: #e26952; fill-opacity: 0.75"/>
    <path d="M 61.633922 19.296323 
L 60.273292 20.422473 
L 61.612428 21.491657 
L 62.973222 20.35968 
z
" clip-path="url(#pb5ea187056)" style="fill: #e16751; fill-opacity: 0.75"/>
    <path d="M 64.326941 19.245085 
L 62.973222 20.35968 
L 64.319755 21.42878 
L 65.673581 20.308372 
z
" clip-path="url(#pb5ea187056)" style="fill: #e0654f; fill-opacity: 0.75"/>
    <path d="M 67.020286 19.207325 
L 65.673581 20.308372 
L 67.027495 21.377403 
L 68.374245 20.270561 
z
" clip-path="url(#pb5ea187056)" style="fill: #e0654f; fill-opacity: 0.75"/>
    <path d="M 69.713809 19.185009 
L 68.374245 20.270561 
L 69.735517 21.339541 
L 71.075061 20.248216 
z
" clip-path="url(#pb5ea187056)" style="fill: #df634e; fill-opacity: 0.75"/>
    <path d="M 72.407336 19.180056 
L 71.075061 20.248216 
L 72.443667 21.317166 
L 73.775852 20.243257 
z
" clip-path="url(#pb5ea187056)" style="fill: #df634e; fill-opacity: 0.75"/>
    <path d="M 57.573887 20.494705 
L 56.199382 21.643691 
L 57.530856 22.718868 
L 58.905612 21.563986 
z
" clip-path="url(#pb5ea187056)" style="fill: #e8765c; fill-opacity: 0.75"/>
    <path d="M 60.273292 20.422473 
L 58.905612 21.563986 
L 60.244548 22.639057 
L 61.612428 21.491657 
z
" clip-path="url(#pb5ea187056)" style="fill: #e8765c; fill-opacity: 0.75"/>
    <path d="M 62.973222 20.35968 
L 61.612428 21.491657 
L 62.958815 22.566631 
L 64.319755 21.42878 
z
" clip-path="url(#pb5ea187056)" style="fill: #e7745b; fill-opacity: 0.75"/>
    <path d="M 65.673581 20.308372 
L 64.319755 21.42878 
L 65.673581 22.503669 
L 67.027495 21.377403 
z
" clip-path="url(#pb5ea187056)" style="fill: #e67259; fill-opacity: 0.75"/>
    <path d="M 68.374245 20.270561 
L 67.027495 21.377403 
L 68.388741 22.452224 
L 69.735517 21.339541 
z
" clip-path="url(#pb5ea187056)" style="fill: #e57058; fill-opacity: 0.75"/>
    <path d="M 71.075061 20.248216 
L 69.735517 21.339541 
L 71.104163 22.414311 
L 72.443667 21.317166 
z
" clip-path="url(#pb5ea187056)" style="fill: #e57058; fill-opacity: 0.75"/>
    <path d="M 73.775852 20.243257 
L 72.443667 21.317166 
L 73.819685 22.391905 
L 75.151761 21.3122 
z
" clip-path="url(#pb5ea187056)" style="fill: #e57058; fill-opacity: 0.75"/>
    <path d="M 56.199382 21.643691 
L 54.817787 22.803963 
L 56.148981 23.885091 
L 57.530856 22.718868 
z
" clip-path="url(#pb5ea187056)" style="fill: #ee8468; fill-opacity: 0.75"/>
    <path d="M 58.905612 21.563986 
L 57.530856 22.718868 
L 58.869559 23.799883 
L 60.244548 22.639057 
z
" clip-path="url(#pb5ea187056)" style="fill: #ed8366; fill-opacity: 0.75"/>
    <path d="M 61.612428 21.491657 
L 60.244548 22.639057 
L 61.590753 23.719965 
L 62.958815 22.566631 
z
" clip-path="url(#pb5ea187056)" style="fill: #ec8165; fill-opacity: 0.75"/>
    <path d="M 64.319755 21.42878 
L 62.958815 22.566631 
L 64.312513 23.647441 
L 65.673581 22.503669 
z
" clip-path="url(#pb5ea187056)" style="fill: #ec7f63; fill-opacity: 0.75"/>
    <path d="M 67.027495 21.377403 
L 65.673581 22.503669 
L 67.034758 23.584395 
L 68.388741 22.452224 
z
" clip-path="url(#pb5ea187056)" style="fill: #ec7f63; fill-opacity: 0.75"/>
    <path d="M 69.735517 21.339541 
L 68.388741 22.452224 
L 69.75738 23.532881 
L 71.104163 22.414311 
z
" clip-path="url(#pb5ea187056)" style="fill: #eb7d62; fill-opacity: 0.75"/>
    <path d="M 72.443667 21.317166 
L 71.104163 22.414311 
L 72.480241 23.494917 
L 73.819685 22.391905 
z
" clip-path="url(#pb5ea187056)" style="fill: #eb7d62; fill-opacity: 0.75"/>
    <path d="M 75.151761 21.3122 
L 73.819685 22.391905 
L 75.203176 23.472482 
L 76.535121 22.386933 
z
" clip-path="url(#pb5ea187056)" style="fill: #eb7d62; fill-opacity: 0.75"/>
    <path d="M 54.817787 22.803963 
L 53.429042 23.97347 
L 54.75993 25.060601 
L 56.148981 23.885091 
z
" clip-path="url(#pb5ea187056)" style="fill: #f29274; fill-opacity: 0.75"/>
    <path d="M 57.530856 22.718868 
L 56.148981 23.885091 
L 57.487421 24.972104 
L 58.869559 23.799883 
z
" clip-path="url(#pb5ea187056)" style="fill: #f29072; fill-opacity: 0.75"/>
    <path d="M 60.244548 22.639057 
L 58.869559 23.799883 
L 60.215548 24.886782 
L 61.590753 23.719965 
z
" clip-path="url(#pb5ea187056)" style="fill: #f18f71; fill-opacity: 0.75"/>
    <path d="M 62.958815 22.566631 
L 61.590753 23.719965 
L 62.944287 24.806757 
L 64.312513 23.647441 
z
" clip-path="url(#pb5ea187056)" style="fill: #f18d6f; fill-opacity: 0.75"/>
    <path d="M 65.673581 22.503669 
L 64.312513 23.647441 
L 65.673581 24.734136 
L 67.034758 23.584395 
z
" clip-path="url(#pb5ea187056)" style="fill: #f08b6e; fill-opacity: 0.75"/>
    <path d="M 68.388741 22.452224 
L 67.034758 23.584395 
L 68.403347 24.671006 
L 69.75738 23.532881 
z
" clip-path="url(#pb5ea187056)" style="fill: #f08a6c; fill-opacity: 0.75"/>
    <path d="M 71.104163 22.414311 
L 69.75738 23.532881 
L 71.133471 24.619423 
L 72.480241 23.494917 
z
" clip-path="url(#pb5ea187056)" style="fill: #f08a6c; fill-opacity: 0.75"/>
    <path d="M 73.819685 22.391905 
L 72.480241 23.494917 
L 73.863812 24.581408 
L 75.203176 23.472482 
z
" clip-path="url(#pb5ea187056)" style="fill: #f08a6c; fill-opacity: 0.75"/>
    <path d="M 76.535121 22.386933 
L 75.203176 23.472482 
L 76.594201 24.558943 
L 77.925995 23.467502 
z
" clip-path="url(#pb5ea187056)" style="fill: #ef886b; fill-opacity: 0.75"/>
    <path d="M 53.429042 23.97347 
L 52.033072 25.150144 
L 53.36363 26.243327 
L 54.75993 25.060601 
z
" clip-path="url(#pb5ea187056)" style="fill: #f59f80; fill-opacity: 0.75"/>
    <path d="M 56.148981 23.885091 
L 54.75993 25.060601 
L 56.09808 26.153665 
L 57.487421 24.972104 
z
" clip-path="url(#pb5ea187056)" style="fill: #f59d7e; fill-opacity: 0.75"/>
    <path d="M 58.869559 23.799883 
L 57.487421 24.972104 
L 58.833165 26.065049 
L 60.215548 24.886782 
z
" clip-path="url(#pb5ea187056)" style="fill: #f59c7d; fill-opacity: 0.75"/>
    <path d="M 61.590753 23.719965 
L 60.215548 24.886782 
L 61.568885 25.979613 
L 62.944287 24.806757 
z
" clip-path="url(#pb5ea187056)" style="fill: #f49a7b; fill-opacity: 0.75"/>
    <path d="M 64.312513 23.647441 
L 62.944287 24.806757 
L 64.305209 25.899481 
L 65.673581 24.734136 
z
" clip-path="url(#pb5ea187056)" style="fill: #f4987a; fill-opacity: 0.75"/>
    <path d="M 67.034758 23.584395 
L 65.673581 24.734136 
L 67.04208 25.826764 
L 68.403347 24.671006 
z
" clip-path="url(#pb5ea187056)" style="fill: #f39778; fill-opacity: 0.75"/>
    <path d="M 69.75738 23.532881 
L 68.403347 24.671006 
L 69.779408 25.763549 
L 71.133471 24.619423 
z
" clip-path="url(#pb5ea187056)" style="fill: #f39577; fill-opacity: 0.75"/>
    <path d="M 72.480241 23.494917 
L 71.133471 24.619423 
L 72.517076 25.711897 
L 73.863812 24.581408 
z
" clip-path="url(#pb5ea187056)" style="fill: #f39577; fill-opacity: 0.75"/>
    <path d="M 75.203176 23.472482 
L 73.863812 24.581408 
L 75.254939 25.673832 
L 76.594201 24.558943 
z
" clip-path="url(#pb5ea187056)" style="fill: #f39475; fill-opacity: 0.75"/>
    <path d="M 77.925995 23.467502 
L 76.594201 24.558943 
L 77.992822 25.651336 
L 79.324443 24.553957 
z
" clip-path="url(#pb5ea187056)" style="fill: #f39475; fill-opacity: 0.75"/>
    <path d="M 52.033072 25.150144 
L 50.629783 26.331903 
L 51.959992 27.431184 
L 53.36363 26.243327 
z
" clip-path="url(#pb5ea187056)" style="fill: #f7aa8c; fill-opacity: 0.75"/>
    <path d="M 54.75993 25.060601 
L 53.36363 26.243327 
L 54.701468 27.342491 
L 56.09808 26.153665 
z
" clip-path="url(#pb5ea187056)" style="fill: #f7a98b; fill-opacity: 0.75"/>
    <path d="M 57.487421 24.972104 
L 56.09808 26.153665 
L 57.443553 27.252709 
L 58.833165 26.065049 
z
" clip-path="url(#pb5ea187056)" style="fill: #f7a889; fill-opacity: 0.75"/>
    <path d="M 60.215548 24.886782 
L 58.833165 26.065049 
L 60.186274 27.163976 
L 61.568885 25.979613 
z
" clip-path="url(#pb5ea187056)" style="fill: #f6a586; fill-opacity: 0.75"/>
    <path d="M 62.944287 24.806757 
L 61.568885 25.979613 
L 62.929628 27.078426 
L 64.305209 25.899481 
z
" clip-path="url(#pb5ea187056)" style="fill: #f6a385; fill-opacity: 0.75"/>
    <path d="M 65.673581 24.734136 
L 64.305209 25.899481 
L 65.673581 26.998187 
L 67.04208 25.826764 
z
" clip-path="url(#pb5ea187056)" style="fill: #f6a283; fill-opacity: 0.75"/>
    <path d="M 68.403347 24.671006 
L 67.04208 25.826764 
L 68.41807 26.925373 
L 69.779408 25.763549 
z
" clip-path="url(#pb5ea187056)" style="fill: #f6a283; fill-opacity: 0.75"/>
    <path d="M 71.133471 24.619423 
L 69.779408 25.763549 
L 71.163002 26.862074 
L 72.517076 25.711897 
z
" clip-path="url(#pb5ea187056)" style="fill: #f5a081; fill-opacity: 0.75"/>
    <path d="M 73.863812 24.581408 
L 72.517076 25.711897 
L 73.908256 26.810353 
L 75.254939 25.673832 
z
" clip-path="url(#pb5ea187056)" style="fill: #f59f80; fill-opacity: 0.75"/>
    <path d="M 76.594201 24.558943 
L 75.254939 25.673832 
L 76.653682 26.772237 
L 77.992822 25.651336 
z
" clip-path="url(#pb5ea187056)" style="fill: #f59f80; fill-opacity: 0.75"/>
    <path d="M 79.324443 24.553957 
L 77.992822 25.651336 
L 79.399101 26.749711 
L 80.730527 25.646343 
z
" clip-path="url(#pb5ea187056)" style="fill: #f59f80; fill-opacity: 0.75"/>
    <path d="M 50.629783 26.331903 
L 49.21907 27.516657 
L 50.548912 28.622083 
L 51.959992 27.431184 
z
" clip-path="url(#pb5ea187056)" style="fill: #f7b497; fill-opacity: 0.75"/>
    <path d="M 53.36363 26.243327 
L 51.959992 27.431184 
L 53.297498 28.536497 
L 54.701468 27.342491 
z
" clip-path="url(#pb5ea187056)" style="fill: #f7b396; fill-opacity: 0.75"/>
    <path d="M 56.09808 26.153665 
L 54.701468 27.342491 
L 56.046645 28.447686 
L 57.443553 27.252709 
z
" clip-path="url(#pb5ea187056)" style="fill: #f7b194; fill-opacity: 0.75"/>
    <path d="M 58.833165 26.065049 
L 57.443553 27.252709 
L 58.796408 28.357784 
L 60.186274 27.163976 
z
" clip-path="url(#pb5ea187056)" style="fill: #f7b093; fill-opacity: 0.75"/>
    <path d="M 61.568885 25.979613 
L 60.186274 27.163976 
L 61.546809 28.268933 
L 62.929628 27.078426 
z
" clip-path="url(#pb5ea187056)" style="fill: #f7af91; fill-opacity: 0.75"/>
    <path d="M 64.305209 25.899481 
L 62.929628 27.078426 
L 64.29784 28.183269 
L 65.673581 26.998187 
z
" clip-path="url(#pb5ea187056)" style="fill: #f7ad90; fill-opacity: 0.75"/>
    <path d="M 67.04208 25.826764 
L 65.673581 26.998187 
L 67.049464 28.102924 
L 68.41807 26.925373 
z
" clip-path="url(#pb5ea187056)" style="fill: #f7ac8e; fill-opacity: 0.75"/>
    <path d="M 69.779408 25.763549 
L 68.41807 26.925373 
L 69.801614 28.030013 
L 71.163002 26.862074 
z
" clip-path="url(#pb5ea187056)" style="fill: #f7aa8c; fill-opacity: 0.75"/>
    <path d="M 72.517076 25.711897 
L 71.163002 26.862074 
L 72.554192 27.966629 
L 73.908256 26.810353 
z
" clip-path="url(#pb5ea187056)" style="fill: #f7aa8c; fill-opacity: 0.75"/>
    <path d="M 75.254939 25.673832 
L 73.908256 26.810353 
L 75.307074 27.914839 
L 76.653682 26.772237 
z
" clip-path="url(#pb5ea187056)" style="fill: #f7a98b; fill-opacity: 0.75"/>
    <path d="M 77.992822 25.651336 
L 76.653682 26.772237 
L 78.060105 27.876673 
L 79.399101 26.749711 
z
" clip-path="url(#pb5ea187056)" style="fill: #f7a98b; fill-opacity: 0.75"/>
    <path d="M 80.730527 25.646343 
L 79.399101 26.749711 
L 80.813102 27.854117 
L 82.14431 26.744712 
z
" clip-path="url(#pb5ea187056)" style="fill: #f7a98b; fill-opacity: 0.75"/>
    <path d="M 49.21907 27.516657 
L 47.800806 28.702322 
L 49.130268 29.813934 
L 50.548912 28.622083 
z
" clip-path="url(#pb5ea187056)" style="fill: #f6bea4; fill-opacity: 0.75"/>
    <path d="M 51.959992 27.431184 
L 50.548912 28.622083 
L 51.886068 29.733589 
L 53.297498 28.536497 
z
" clip-path="url(#pb5ea187056)" style="fill: #f6bda2; fill-opacity: 0.75"/>
    <path d="M 54.701468 27.342491 
L 53.297498 28.536497 
L 54.642361 29.647889 
L 56.046645 28.447686 
z
" clip-path="url(#pb5ea187056)" style="fill: #f7bca1; fill-opacity: 0.75"/>
    <path d="M 57.443553 27.252709 
L 56.046645 28.447686 
L 57.399224 29.55896 
L 58.796408 28.357784 
z
" clip-path="url(#pb5ea187056)" style="fill: #f7ba9f; fill-opacity: 0.75"/>
    <path d="M 60.186274 27.163976 
L 58.796408 28.357784 
L 60.156707 29.46894 
L 61.546809 28.268933 
z
" clip-path="url(#pb5ea187056)" style="fill: #f7b99e; fill-opacity: 0.75"/>
    <path d="M 62.929628 27.078426 
L 61.546809 28.268933 
L 62.91483 29.37997 
L 64.29784 28.183269 
z
" clip-path="url(#pb5ea187056)" style="fill: #f7b89c; fill-opacity: 0.75"/>
    <path d="M 65.673581 26.998187 
L 64.29784 28.183269 
L 65.673581 29.294193 
L 67.049464 28.102924 
z
" clip-path="url(#pb5ea187056)" style="fill: #f7b79b; fill-opacity: 0.75"/>
    <path d="M 68.41807 26.925373 
L 67.049464 28.102924 
L 68.432919 29.213741 
L 69.801614 28.030013 
z
" clip-path="url(#pb5ea187056)" style="fill: #f7b599; fill-opacity: 0.75"/>
    <path d="M 71.163002 26.862074 
L 69.801614 28.030013 
L 71.192773 29.140733 
L 72.554192 27.966629 
z
" clip-path="url(#pb5ea187056)" style="fill: #f7b497; fill-opacity: 0.75"/>
    <path d="M 73.908256 26.810353 
L 72.554192 27.966629 
L 73.953041 29.077265 
L 75.307074 27.914839 
z
" clip-path="url(#pb5ea187056)" style="fill: #f7b396; fill-opacity: 0.75"/>
    <path d="M 76.653682 26.772237 
L 75.307074 27.914839 
L 76.713593 29.025406 
L 78.060105 27.876673 
z
" clip-path="url(#pb5ea187056)" style="fill: #f7b396; fill-opacity: 0.75"/>
    <path d="M 79.399101 26.749711 
L 78.060105 27.876673 
L 79.474271 28.987189 
L 80.813102 27.854117 
z
" clip-path="url(#pb5ea187056)" style="fill: #f7b396; fill-opacity: 0.75"/>
    <path d="M 82.14431 26.744712 
L 80.813102 27.854117 
L 82.234887 28.964603 
L 83.565856 27.849111 
z
" clip-path="url(#pb5ea187056)" style="fill: #f7b194; fill-opacity: 0.75"/>
    <path d="M 47.800806 28.702322 
L 46.37485 29.886816 
L 47.703922 31.004655 
L 49.130268 29.813934 
z
" clip-path="url(#pb5ea187056)" style="fill: #f3c7b1; fill-opacity: 0.75"/>
    <path d="M 50.548912 28.622083 
L 49.130268 29.813934 
L 50.467062 30.931676 
L 51.886068 29.733589 
z
" clip-path="url(#pb5ea187056)" style="fill: #f4c6af; fill-opacity: 0.75"/>
    <path d="M 53.297498 28.536497 
L 51.886068 29.733589 
L 53.2306 30.851225 
L 54.642361 29.647889 
z
" clip-path="url(#pb5ea187056)" style="fill: #f4c5ad; fill-opacity: 0.75"/>
    <path d="M 56.046645 28.447686 
L 54.642361 29.647889 
L 55.994642 30.765412 
L 57.399224 29.55896 
z
" clip-path="url(#pb5ea187056)" style="fill: #f5c4ac; fill-opacity: 0.75"/>
    <path d="M 58.796408 28.357784 
L 57.399224 29.55896 
L 58.759264 30.676365 
L 60.156707 29.46894 
z
" clip-path="url(#pb5ea187056)" style="fill: #f5c2aa; fill-opacity: 0.75"/>
    <path d="M 61.546809 28.268933 
L 60.156707 29.46894 
L 61.524511 30.586226 
L 62.91483 29.37997 
z
" clip-path="url(#pb5ea187056)" style="fill: #f5c1a9; fill-opacity: 0.75"/>
    <path d="M 64.29784 28.183269 
L 62.91483 29.37997 
L 64.2904 30.497138 
L 65.673581 29.294193 
z
" clip-path="url(#pb5ea187056)" style="fill: #f5c0a7; fill-opacity: 0.75"/>
    <path d="M 67.049464 28.102924 
L 65.673581 29.294193 
L 67.056915 30.411247 
L 68.432919 29.213741 
z
" clip-path="url(#pb5ea187056)" style="fill: #f6bfa6; fill-opacity: 0.75"/>
    <path d="M 69.801614 28.030013 
L 68.432919 29.213741 
L 69.82401 30.330689 
L 71.192773 29.140733 
z
" clip-path="url(#pb5ea187056)" style="fill: #f6bea4; fill-opacity: 0.75"/>
    <path d="M 72.554192 27.966629 
L 71.192773 29.140733 
L 72.591611 30.257584 
L 73.953041 29.077265 
z
" clip-path="url(#pb5ea187056)" style="fill: #f6bda2; fill-opacity: 0.75"/>
    <path d="M 75.307074 27.914839 
L 73.953041 29.077265 
L 75.359611 30.194032 
L 76.713593 29.025406 
z
" clip-path="url(#pb5ea187056)" style="fill: #f7bca1; fill-opacity: 0.75"/>
    <path d="M 78.060105 27.876673 
L 76.713593 29.025406 
L 78.127877 30.142104 
L 79.474271 28.987189 
z
" clip-path="url(#pb5ea187056)" style="fill: #f7bca1; fill-opacity: 0.75"/>
    <path d="M 80.813102 27.854117 
L 79.474271 28.987189 
L 80.896244 30.103836 
L 82.234887 28.964603 
z
" clip-path="url(#pb5ea187056)" style="fill: #f7ba9f; fill-opacity: 0.75"/>
    <path d="M 83.565856 27.849111 
L 82.234887 28.964603 
L 83.664522 30.08122 
L 84.995229 28.95959 
z
" clip-path="url(#pb5ea187056)" style="fill: #f7ba9f; fill-opacity: 0.75"/>
    <path d="M 46.37485 29.886816 
L 44.941045 31.068075 
L 46.269719 32.192179 
L 47.703922 31.004655 
z
" clip-path="url(#pb5ea187056)" style="fill: #f0cdbb; fill-opacity: 0.75"/>
    <path d="M 49.130268 29.813934 
L 47.703922 31.004655 
L 49.040343 32.128675 
L 50.467062 30.931676 
z
" clip-path="url(#pb5ea187056)" style="fill: #f0cdbb; fill-opacity: 0.75"/>
    <path d="M 51.886068 29.733589 
L 50.467062 30.931676 
L 51.811248 32.0556 
L 53.2306 30.851225 
z
" clip-path="url(#pb5ea187056)" style="fill: #f1cdba; fill-opacity: 0.75"/>
    <path d="M 54.642361 29.647889 
L 53.2306 30.851225 
L 54.582568 31.975043 
L 55.994642 30.765412 
z
" clip-path="url(#pb5ea187056)" style="fill: #f1ccb8; fill-opacity: 0.75"/>
    <path d="M 57.399224 29.55896 
L 55.994642 30.765412 
L 57.354403 31.889116 
L 58.759264 30.676365 
z
" clip-path="url(#pb5ea187056)" style="fill: #f2cbb7; fill-opacity: 0.75"/>
    <path d="M 60.156707 29.46894 
L 58.759264 30.676365 
L 60.126828 31.799952 
L 61.524511 30.586226 
z
" clip-path="url(#pb5ea187056)" style="fill: #f2cab5; fill-opacity: 0.75"/>
    <path d="M 62.91483 29.37997 
L 61.524511 30.586226 
L 62.899883 31.709693 
L 64.2904 30.497138 
z
" clip-path="url(#pb5ea187056)" style="fill: #f3c8b2; fill-opacity: 0.75"/>
    <path d="M 65.673581 29.294193 
L 64.2904 30.497138 
L 65.673581 31.620488 
L 67.056915 30.411247 
z
" clip-path="url(#pb5ea187056)" style="fill: #f3c7b1; fill-opacity: 0.75"/>
    <path d="M 68.432919 29.213741 
L 67.056915 30.411247 
L 68.447903 31.534483 
L 69.82401 30.330689 
z
" clip-path="url(#pb5ea187056)" style="fill: #f4c6af; fill-opacity: 0.75"/>
    <path d="M 71.192773 29.140733 
L 69.82401 30.330689 
L 71.2228 31.453818 
L 72.591611 30.257584 
z
" clip-path="url(#pb5ea187056)" style="fill: #f4c5ad; fill-opacity: 0.75"/>
    <path d="M 73.953041 29.077265 
L 72.591611 30.257584 
L 73.998191 31.380616 
L 75.359611 30.194032 
z
" clip-path="url(#pb5ea187056)" style="fill: #f4c5ad; fill-opacity: 0.75"/>
    <path d="M 76.713593 29.025406 
L 75.359611 30.194032 
L 76.773967 31.31698 
L 78.127877 30.142104 
z
" clip-path="url(#pb5ea187056)" style="fill: #f5c4ac; fill-opacity: 0.75"/>
    <path d="M 79.474271 28.987189 
L 78.127877 30.142104 
L 79.549989 31.264983 
L 80.896244 30.103836 
z
" clip-path="url(#pb5ea187056)" style="fill: #f5c2aa; fill-opacity: 0.75"/>
    <path d="M 82.234887 28.964603 
L 80.896244 30.103836 
L 82.326089 31.226664 
L 83.664522 30.08122 
z
" clip-path="url(#pb5ea187056)" style="fill: #f5c2aa; fill-opacity: 0.75"/>
    <path d="M 84.995229 28.95959 
L 83.664522 30.08122 
L 85.102072 31.204019 
L 86.432493 30.076201 
z
" clip-path="url(#pb5ea187056)" style="fill: #f5c2aa; fill-opacity: 0.75"/>
    <path d="M 44.941045 31.068075 
L 43.499216 32.244052 
L 44.827488 33.374456 
L 46.269719 32.192179 
z
" clip-path="url(#pb5ea187056)" style="fill: #ead4c8; fill-opacity: 0.75"/>
    <path d="M 47.703922 31.004655 
L 46.269719 32.192179 
L 47.60576 33.322515 
L 49.040343 32.128675 
z
" clip-path="url(#pb5ea187056)" style="fill: #ebd3c6; fill-opacity: 0.75"/>
    <path d="M 50.467062 30.931676 
L 49.040343 32.128675 
L 50.384174 33.258928 
L 51.811248 32.0556 
z
" clip-path="url(#pb5ea187056)" style="fill: #ecd3c5; fill-opacity: 0.75"/>
    <path d="M 53.2306 30.851225 
L 51.811248 32.0556 
L 53.162889 33.185756 
L 54.582568 31.975043 
z
" clip-path="url(#pb5ea187056)" style="fill: #edd2c3; fill-opacity: 0.75"/>
    <path d="M 55.994642 30.765412 
L 54.582568 31.975043 
L 55.942033 33.105093 
L 57.354403 31.889116 
z
" clip-path="url(#pb5ea187056)" style="fill: #edd1c2; fill-opacity: 0.75"/>
    <path d="M 58.759264 30.676365 
L 57.354403 31.889116 
L 58.721706 33.019053 
L 60.126828 31.799952 
z
" clip-path="url(#pb5ea187056)" style="fill: #eed0c0; fill-opacity: 0.75"/>
    <path d="M 61.524511 30.586226 
L 60.126828 31.799952 
L 61.501977 32.929771 
L 62.899883 31.709693 
z
" clip-path="url(#pb5ea187056)" style="fill: #efcfbf; fill-opacity: 0.75"/>
    <path d="M 64.2904 30.497138 
L 62.899883 31.709693 
L 64.282885 32.839393 
L 65.673581 31.620488 
z
" clip-path="url(#pb5ea187056)" style="fill: #efcebd; fill-opacity: 0.75"/>
    <path d="M 67.056915 30.411247 
L 65.673581 31.620488 
L 67.064437 32.75007 
L 68.447903 31.534483 
z
" clip-path="url(#pb5ea187056)" style="fill: #f0cdbb; fill-opacity: 0.75"/>
    <path d="M 69.82401 30.330689 
L 68.447903 31.534483 
L 69.846611 32.663952 
L 71.2228 31.453818 
z
" clip-path="url(#pb5ea187056)" style="fill: #f1cdba; fill-opacity: 0.75"/>
    <path d="M 72.591611 30.257584 
L 71.2228 31.453818 
L 72.629352 32.58318 
L 73.998191 31.380616 
z
" clip-path="url(#pb5ea187056)" style="fill: #f1ccb8; fill-opacity: 0.75"/>
    <path d="M 75.359611 30.194032 
L 73.998191 31.380616 
L 75.412578 32.509882 
L 76.773967 31.31698 
z
" clip-path="url(#pb5ea187056)" style="fill: #f2cbb7; fill-opacity: 0.75"/>
    <path d="M 78.127877 30.142104 
L 76.773967 31.31698 
L 78.196174 32.446161 
L 79.549989 31.264983 
z
" clip-path="url(#pb5ea187056)" style="fill: #f2cbb7; fill-opacity: 0.75"/>
    <path d="M 80.896244 30.103836 
L 79.549989 31.264983 
L 80.979996 32.394096 
L 82.326089 31.226664 
z
" clip-path="url(#pb5ea187056)" style="fill: #f2cab5; fill-opacity: 0.75"/>
    <path d="M 83.664522 30.08122 
L 82.326089 31.226664 
L 83.763872 32.355726 
L 85.102072 31.204019 
z
" clip-path="url(#pb5ea187056)" style="fill: #f2cab5; fill-opacity: 0.75"/>
    <path d="M 86.432493 30.076201 
L 85.102072 31.204019 
L 86.547602 32.333051 
L 87.877713 31.198993 
z
" clip-path="url(#pb5ea187056)" style="fill: #f2cab5; fill-opacity: 0.75"/>
    <path d="M 43.499216 32.244052 
L 42.049172 33.412725 
L 43.377039 34.549465 
L 44.827488 33.374456 
z
" clip-path="url(#pb5ea187056)" style="fill: #e4d9d2; fill-opacity: 0.75"/>
    <path d="M 46.269719 32.192179 
L 44.827488 33.374456 
L 46.163143 34.511145 
L 47.60576 33.322515 
z
" clip-path="url(#pb5ea187056)" style="fill: #e4d9d2; fill-opacity: 0.75"/>
    <path d="M 49.040343 32.128675 
L 47.60576 33.322515 
L 48.949228 34.459136 
L 50.384174 33.258928 
z
" clip-path="url(#pb5ea187056)" style="fill: #e5d8d1; fill-opacity: 0.75"/>
    <path d="M 51.811248 32.0556 
L 50.384174 33.258928 
L 51.735477 34.395465 
L 53.162889 33.185756 
z
" clip-path="url(#pb5ea187056)" style="fill: #e6d7cf; fill-opacity: 0.75"/>
    <path d="M 54.582568 31.975043 
L 53.162889 33.185756 
L 54.522046 34.322197 
L 55.942033 33.105093 
z
" clip-path="url(#pb5ea187056)" style="fill: #e7d7ce; fill-opacity: 0.75"/>
    <path d="M 57.354403 31.889116 
L 55.942033 33.105093 
L 57.30906 34.241428 
L 58.721706 33.019053 
z
" clip-path="url(#pb5ea187056)" style="fill: #e8d6cc; fill-opacity: 0.75"/>
    <path d="M 60.126828 31.799952 
L 58.721706 33.019053 
L 60.096615 34.155275 
L 61.501977 32.929771 
z
" clip-path="url(#pb5ea187056)" style="fill: #e9d5cb; fill-opacity: 0.75"/>
    <path d="M 62.899883 31.709693 
L 61.501977 32.929771 
L 62.884777 34.065876 
L 64.282885 32.839393 
z
" clip-path="url(#pb5ea187056)" style="fill: #ead5c9; fill-opacity: 0.75"/>
    <path d="M 65.673581 31.620488 
L 64.282885 32.839393 
L 65.673581 33.975379 
L 67.064437 32.75007 
z
" clip-path="url(#pb5ea187056)" style="fill: #ead4c8; fill-opacity: 0.75"/>
    <path d="M 68.447903 31.534483 
L 67.064437 32.75007 
L 68.463032 33.885938 
L 69.846611 32.663952 
z
" clip-path="url(#pb5ea187056)" style="fill: #ebd3c6; fill-opacity: 0.75"/>
    <path d="M 71.2228 31.453818 
L 69.846611 32.663952 
L 71.253101 33.799706 
L 72.629352 32.58318 
z
" clip-path="url(#pb5ea187056)" style="fill: #ecd3c5; fill-opacity: 0.75"/>
    <path d="M 73.998191 31.380616 
L 72.629352 32.58318 
L 74.043732 33.718828 
L 75.412578 32.509882 
z
" clip-path="url(#pb5ea187056)" style="fill: #edd2c3; fill-opacity: 0.75"/>
    <path d="M 76.773967 31.31698 
L 75.412578 32.509882 
L 76.834837 33.645432 
L 78.196174 32.446161 
z
" clip-path="url(#pb5ea187056)" style="fill: #edd1c2; fill-opacity: 0.75"/>
    <path d="M 79.549989 31.264983 
L 78.196174 32.446161 
L 79.626296 33.581628 
L 80.979996 32.394096 
z
" clip-path="url(#pb5ea187056)" style="fill: #eed0c0; fill-opacity: 0.75"/>
    <path d="M 82.326089 31.226664 
L 80.979996 32.394096 
L 82.417963 33.529494 
L 83.763872 32.355726 
z
" clip-path="url(#pb5ea187056)" style="fill: #eed0c0; fill-opacity: 0.75"/>
    <path d="M 85.102072 31.204019 
L 83.763872 32.355726 
L 85.209659 33.491074 
L 86.547602 32.333051 
z
" clip-path="url(#pb5ea187056)" style="fill: #efcfbf; fill-opacity: 0.75"/>
    <path d="M 87.877713 31.198993 
L 86.547602 32.333051 
L 88.001179 33.468368 
L 89.330957 32.328018 
z
" clip-path="url(#pb5ea187056)" style="fill: #efcfbf; fill-opacity: 0.75"/>
    <path d="M 42.049172 33.412725 
L 40.590703 34.572107 
L 41.918167 35.715213 
L 43.377039 34.549465 
z
" clip-path="url(#pb5ea187056)" style="fill: #dddcdc; fill-opacity: 0.75"/>
    <path d="M 44.827488 33.374456 
L 43.377039 34.549465 
L 44.712308 35.692541 
L 46.163143 34.511145 
z
" clip-path="url(#pb5ea187056)" style="fill: #dddcdc; fill-opacity: 0.75"/>
    <path d="M 47.60576 33.322515 
L 46.163143 34.511145 
L 47.506245 35.654171 
L 48.949228 34.459136 
z
" clip-path="url(#pb5ea187056)" style="fill: #dedcdb; fill-opacity: 0.75"/>
    <path d="M 50.384174 33.258928 
L 48.949228 34.459136 
L 50.300187 35.602094 
L 51.735477 34.395465 
z
" clip-path="url(#pb5ea187056)" style="fill: #dedcdb; fill-opacity: 0.75"/>
    <path d="M 53.162889 33.185756 
L 51.735477 34.395465 
L 53.094315 35.538339 
L 54.522046 34.322197 
z
" clip-path="url(#pb5ea187056)" style="fill: #dfdbd9; fill-opacity: 0.75"/>
    <path d="M 55.942033 33.105093 
L 54.522046 34.322197 
L 55.888782 35.464976 
L 57.30906 34.241428 
z
" clip-path="url(#pb5ea187056)" style="fill: #e0dbd8; fill-opacity: 0.75"/>
    <path d="M 58.721706 33.019053 
L 57.30906 34.241428 
L 58.68371 35.3841 
L 60.096615 34.155275 
z
" clip-path="url(#pb5ea187056)" style="fill: #e1dad6; fill-opacity: 0.75"/>
    <path d="M 61.501977 32.929771 
L 60.096615 34.155275 
L 61.479192 35.297834 
L 62.884777 34.065876 
z
" clip-path="url(#pb5ea187056)" style="fill: #e2dad5; fill-opacity: 0.75"/>
    <path d="M 64.282885 32.839393 
L 62.884777 34.065876 
L 64.27529 35.208317 
L 65.673581 33.975379 
z
" clip-path="url(#pb5ea187056)" style="fill: #e3d9d3; fill-opacity: 0.75"/>
    <path d="M 67.064437 32.75007 
L 65.673581 33.975379 
L 67.072036 35.117701 
L 68.463032 33.885938 
z
" clip-path="url(#pb5ea187056)" style="fill: #e4d9d2; fill-opacity: 0.75"/>
    <path d="M 69.846611 32.663952 
L 68.463032 33.885938 
L 69.86943 35.028143 
L 71.253101 33.799706 
z
" clip-path="url(#pb5ea187056)" style="fill: #e5d8d1; fill-opacity: 0.75"/>
    <path d="M 72.629352 32.58318 
L 71.253101 33.799706 
L 72.66744 34.941798 
L 74.043732 33.718828 
z
" clip-path="url(#pb5ea187056)" style="fill: #e6d7cf; fill-opacity: 0.75"/>
    <path d="M 75.412578 32.509882 
L 74.043732 33.718828 
L 75.466006 34.860813 
L 76.834837 33.645432 
z
" clip-path="url(#pb5ea187056)" style="fill: #e7d7ce; fill-opacity: 0.75"/>
    <path d="M 78.196174 32.446161 
L 76.834837 33.645432 
L 78.265034 34.787321 
L 79.626296 33.581628 
z
" clip-path="url(#pb5ea187056)" style="fill: #e8d6cc; fill-opacity: 0.75"/>
    <path d="M 80.979996 32.394096 
L 79.626296 33.581628 
L 81.064402 34.723432 
L 82.417963 33.529494 
z
" clip-path="url(#pb5ea187056)" style="fill: #e9d5cb; fill-opacity: 0.75"/>
    <path d="M 83.763872 32.355726 
L 82.417963 33.529494 
L 83.863956 34.67123 
L 85.209659 33.491074 
z
" clip-path="url(#pb5ea187056)" style="fill: #e9d5cb; fill-opacity: 0.75"/>
    <path d="M 86.547602 32.333051 
L 85.209659 33.491074 
L 86.663516 34.632759 
L 88.001179 33.468368 
z
" clip-path="url(#pb5ea187056)" style="fill: #ead5c9; fill-opacity: 0.75"/>
    <path d="M 89.330957 32.328018 
L 88.001179 33.468368 
L 89.462871 34.610023 
L 90.792292 33.463329 
z
" clip-path="url(#pb5ea187056)" style="fill: #ead5c9; fill-opacity: 0.75"/>
    <path d="M 40.590703 34.572107 
L 39.123585 35.720245 
L 40.45065 36.869747 
L 41.918167 35.715213 
z
" clip-path="url(#pb5ea187056)" style="fill: #d6dce4; fill-opacity: 0.75"/>
    <path d="M 43.377039 34.549465 
L 41.918167 35.715213 
L 43.253052 36.864709 
L 44.712308 35.692541 
z
" clip-path="url(#pb5ea187056)" style="fill: #d6dce4; fill-opacity: 0.75"/>
    <path d="M 46.163143 34.511145 
L 44.712308 35.692541 
L 46.055043 36.842007 
L 47.506245 35.654171 
z
" clip-path="url(#pb5ea187056)" style="fill: #d6dce4; fill-opacity: 0.75"/>
    <path d="M 48.949228 34.459136 
L 47.506245 35.654171 
L 48.856856 36.803587 
L 50.300187 35.602094 
z
" clip-path="url(#pb5ea187056)" style="fill: #d7dce3; fill-opacity: 0.75"/>
    <path d="M 51.735477 34.395465 
L 50.300187 35.602094 
L 51.658699 36.751442 
L 53.094315 35.538339 
z
" clip-path="url(#pb5ea187056)" style="fill: #d8dce2; fill-opacity: 0.75"/>
    <path d="M 54.522046 34.322197 
L 53.094315 35.538339 
L 54.460751 36.687604 
L 55.888782 35.464976 
z
" clip-path="url(#pb5ea187056)" style="fill: #d8dce2; fill-opacity: 0.75"/>
    <path d="M 57.30906 34.241428 
L 55.888782 35.464976 
L 57.26316 36.614144 
L 58.68371 35.3841 
z
" clip-path="url(#pb5ea187056)" style="fill: #d9dce1; fill-opacity: 0.75"/>
    <path d="M 60.096615 34.155275 
L 58.68371 35.3841 
L 60.066048 36.533163 
L 61.479192 35.297834 
z
" clip-path="url(#pb5ea187056)" style="fill: #dadce0; fill-opacity: 0.75"/>
    <path d="M 62.884777 34.065876 
L 61.479192 35.297834 
L 62.869502 36.446783 
L 64.27529 35.208317 
z
" clip-path="url(#pb5ea187056)" style="fill: #dbdcde; fill-opacity: 0.75"/>
    <path d="M 65.673581 33.975379 
L 64.27529 35.208317 
L 65.673581 36.357149 
L 67.072036 35.117701 
z
" clip-path="url(#pb5ea187056)" style="fill: #dddcdc; fill-opacity: 0.75"/>
    <path d="M 68.463032 33.885938 
L 67.072036 35.117701 
L 68.478314 36.266415 
L 69.86943 35.028143 
z
" clip-path="url(#pb5ea187056)" style="fill: #dedcdb; fill-opacity: 0.75"/>
    <path d="M 71.253101 33.799706 
L 69.86943 35.028143 
L 71.283696 36.176739 
L 72.66744 34.941798 
z
" clip-path="url(#pb5ea187056)" style="fill: #dfdbd9; fill-opacity: 0.75"/>
    <path d="M 74.043732 33.718828 
L 72.66744 34.941798 
L 74.089693 36.09028 
L 75.466006 34.860813 
z
" clip-path="url(#pb5ea187056)" style="fill: #e0dbd8; fill-opacity: 0.75"/>
    <path d="M 76.834837 33.645432 
L 75.466006 34.860813 
L 76.896239 36.009189 
L 78.265034 34.787321 
z
" clip-path="url(#pb5ea187056)" style="fill: #e1dad6; fill-opacity: 0.75"/>
    <path d="M 79.626296 33.581628 
L 78.265034 34.787321 
L 79.703236 35.9356 
L 81.064402 34.723432 
z
" clip-path="url(#pb5ea187056)" style="fill: #e1dad6; fill-opacity: 0.75"/>
    <path d="M 82.417963 33.529494 
L 81.064402 34.723432 
L 82.510557 35.871628 
L 83.863956 34.67123 
z
" clip-path="url(#pb5ea187056)" style="fill: #e2dad5; fill-opacity: 0.75"/>
    <path d="M 85.209659 33.491074 
L 83.863956 34.67123 
L 85.318044 35.819357 
L 86.663516 34.632759 
z
" clip-path="url(#pb5ea187056)" style="fill: #e3d9d3; fill-opacity: 0.75"/>
    <path d="M 88.001179 33.468368 
L 86.663516 34.632759 
L 88.125512 35.780835 
L 89.462871 34.610023 
z
" clip-path="url(#pb5ea187056)" style="fill: #e3d9d3; fill-opacity: 0.75"/>
    <path d="M 90.792292 33.463329 
L 89.462871 34.610023 
L 90.932746 35.75807 
L 92.261784 34.604977 
z
" clip-path="url(#pb5ea187056)" style="fill: #e3d9d3; fill-opacity: 0.75"/>
    <path d="M 41.918167 35.715213 
L 40.45065 36.869747 
L 41.785155 38.025694 
L 43.253052 36.864709 
z
" clip-path="url(#pb5ea187056)" style="fill: #cedaeb; fill-opacity: 0.75"/>
    <path d="M 44.712308 35.692541 
L 43.253052 36.864709 
L 44.59542 38.020649 
L 46.055043 36.842007 
z
" clip-path="url(#pb5ea187056)" style="fill: #cedaeb; fill-opacity: 0.75"/>
    <path d="M 47.506245 35.654171 
L 46.055043 36.842007 
L 47.405304 37.997918 
L 48.856856 36.803587 
z
" clip-path="url(#pb5ea187056)" style="fill: #cfdaea; fill-opacity: 0.75"/>
    <path d="M 50.300187 35.602094 
L 48.856856 36.803587 
L 50.215039 37.959447 
L 51.658699 36.751442 
z
" clip-path="url(#pb5ea187056)" style="fill: #cfdaea; fill-opacity: 0.75"/>
    <path d="M 53.094315 35.538339 
L 51.658699 36.751442 
L 53.024828 37.907234 
L 54.460751 36.687604 
z
" clip-path="url(#pb5ea187056)" style="fill: #d1dae9; fill-opacity: 0.75"/>
    <path d="M 55.888782 35.464976 
L 54.460751 36.687604 
L 55.834849 37.843313 
L 57.26316 36.614144 
z
" clip-path="url(#pb5ea187056)" style="fill: #d2dbe8; fill-opacity: 0.75"/>
    <path d="M 58.68371 35.3841 
L 57.26316 36.614144 
L 58.645246 37.769757 
L 60.066048 36.533163 
z
" clip-path="url(#pb5ea187056)" style="fill: #d3dbe7; fill-opacity: 0.75"/>
    <path d="M 61.479192 35.297834 
L 60.066048 36.533163 
L 61.456138 37.688669 
L 62.869502 36.446783 
z
" clip-path="url(#pb5ea187056)" style="fill: #d4dbe6; fill-opacity: 0.75"/>
    <path d="M 64.27529 35.208317 
L 62.869502 36.446783 
L 64.267609 37.602177 
L 65.673581 36.357149 
z
" clip-path="url(#pb5ea187056)" style="fill: #d5dbe5; fill-opacity: 0.75"/>
    <path d="M 67.072036 35.117701 
L 65.673581 36.357149 
L 67.079716 37.512426 
L 68.478314 36.266415 
z
" clip-path="url(#pb5ea187056)" style="fill: #d6dce4; fill-opacity: 0.75"/>
    <path d="M 69.86943 35.028143 
L 68.478314 36.266415 
L 69.892482 37.421572 
L 71.283696 36.176739 
z
" clip-path="url(#pb5ea187056)" style="fill: #d7dce3; fill-opacity: 0.75"/>
    <path d="M 72.66744 34.941798 
L 71.283696 36.176739 
L 72.705899 37.331779 
L 74.089693 36.09028 
z
" clip-path="url(#pb5ea187056)" style="fill: #d8dce2; fill-opacity: 0.75"/>
    <path d="M 75.466006 34.860813 
L 74.089693 36.09028 
L 75.519928 37.245207 
L 76.896239 36.009189 
z
" clip-path="url(#pb5ea187056)" style="fill: #d9dce1; fill-opacity: 0.75"/>
    <path d="M 78.265034 34.787321 
L 76.896239 36.009189 
L 78.334498 37.16401 
L 79.703236 35.9356 
z
" clip-path="url(#pb5ea187056)" style="fill: #dadce0; fill-opacity: 0.75"/>
    <path d="M 81.064402 34.723432 
L 79.703236 35.9356 
L 81.149509 37.090325 
L 82.510557 35.871628 
z
" clip-path="url(#pb5ea187056)" style="fill: #dbdcde; fill-opacity: 0.75"/>
    <path d="M 83.863956 34.67123 
L 82.510557 35.871628 
L 83.964829 37.026268 
L 85.318044 35.819357 
z
" clip-path="url(#pb5ea187056)" style="fill: #dbdcde; fill-opacity: 0.75"/>
    <path d="M 86.663516 34.632759 
L 85.318044 35.819357 
L 86.780295 36.973928 
L 88.125512 35.780835 
z
" clip-path="url(#pb5ea187056)" style="fill: #dcdddd; fill-opacity: 0.75"/>
    <path d="M 89.462871 34.610023 
L 88.125512 35.780835 
L 89.595716 36.935356 
L 90.932746 35.75807 
z
" clip-path="url(#pb5ea187056)" style="fill: #dcdddd; fill-opacity: 0.75"/>
    <path d="M 43.253052 36.864709 
L 41.785155 38.025694 
L 43.127161 39.188138 
L 44.59542 38.020649 
z
" clip-path="url(#pb5ea187056)" style="fill: #c6d6f1; fill-opacity: 0.75"/>
    <path d="M 46.055043 36.842007 
L 44.59542 38.020649 
L 45.945335 39.183087 
L 47.405304 37.997918 
z
" clip-path="url(#pb5ea187056)" style="fill: #c6d6f1; fill-opacity: 0.75"/>
    <path d="M 48.856856 36.803587 
L 47.405304 37.997918 
L 48.763157 39.160326 
L 50.215039 37.959447 
z
" clip-path="url(#pb5ea187056)" style="fill: #c7d7f0; fill-opacity: 0.75"/>
    <path d="M 51.658699 36.751442 
L 50.215039 37.959447 
L 51.580857 39.121806 
L 53.024828 37.907234 
z
" clip-path="url(#pb5ea187056)" style="fill: #c7d7f0; fill-opacity: 0.75"/>
    <path d="M 54.460751 36.687604 
L 53.024828 37.907234 
L 54.398638 39.069524 
L 55.834849 37.843313 
z
" clip-path="url(#pb5ea187056)" style="fill: #c9d7f0; fill-opacity: 0.75"/>
    <path d="M 57.26316 36.614144 
L 55.834849 37.843313 
L 57.216672 39.00552 
L 58.645246 37.769757 
z
" clip-path="url(#pb5ea187056)" style="fill: #cad8ef; fill-opacity: 0.75"/>
    <path d="M 60.066048 36.533163 
L 58.645246 37.769757 
L 60.035104 38.931868 
L 61.456138 37.688669 
z
" clip-path="url(#pb5ea187056)" style="fill: #cbd8ee; fill-opacity: 0.75"/>
    <path d="M 62.869502 36.446783 
L 61.456138 37.688669 
L 62.854046 38.850675 
L 64.267609 37.602177 
z
" clip-path="url(#pb5ea187056)" style="fill: #ccd9ed; fill-opacity: 0.75"/>
    <path d="M 65.673581 36.357149 
L 64.267609 37.602177 
L 65.673581 38.76407 
L 67.079716 37.512426 
z
" clip-path="url(#pb5ea187056)" style="fill: #cdd9ec; fill-opacity: 0.75"/>
    <path d="M 68.478314 36.266415 
L 67.079716 37.512426 
L 68.493761 38.674201 
L 69.892482 37.421572 
z
" clip-path="url(#pb5ea187056)" style="fill: #cedaeb; fill-opacity: 0.75"/>
    <path d="M 71.283696 36.176739 
L 69.892482 37.421572 
L 71.314605 38.583229 
L 72.705899 37.331779 
z
" clip-path="url(#pb5ea187056)" style="fill: #cfdaea; fill-opacity: 0.75"/>
    <path d="M 74.089693 36.09028 
L 72.705899 37.331779 
L 74.136103 38.493318 
L 75.519928 37.245207 
z
" clip-path="url(#pb5ea187056)" style="fill: #d1dae9; fill-opacity: 0.75"/>
    <path d="M 76.896239 36.009189 
L 75.519928 37.245207 
L 76.95821 38.406633 
L 78.334498 37.16401 
z
" clip-path="url(#pb5ea187056)" style="fill: #d2dbe8; fill-opacity: 0.75"/>
    <path d="M 79.703236 35.9356 
L 78.334498 37.16401 
L 79.780852 38.32533 
L 81.149509 37.090325 
z
" clip-path="url(#pb5ea187056)" style="fill: #d3dbe7; fill-opacity: 0.75"/>
    <path d="M 82.510557 35.871628 
L 81.149509 37.090325 
L 82.603923 38.251548 
L 83.964829 37.026268 
z
" clip-path="url(#pb5ea187056)" style="fill: #d4dbe6; fill-opacity: 0.75"/>
    <path d="M 85.318044 35.819357 
L 83.964829 37.026268 
L 85.427287 38.187408 
L 86.780295 36.973928 
z
" clip-path="url(#pb5ea187056)" style="fill: #d5dbe5; fill-opacity: 0.75"/>
    <path d="M 88.125512 35.780835 
L 86.780295 36.973928 
L 88.250776 38.134999 
L 89.595716 36.935356 
z
" clip-path="url(#pb5ea187056)" style="fill: #d5dbe5; fill-opacity: 0.75"/>
    <path d="M 44.59542 38.020649 
L 43.127161 39.188138 
L 44.476733 40.357136 
L 45.945335 39.183087 
z
" clip-path="url(#pb5ea187056)" style="fill: #bfd3f6; fill-opacity: 0.75"/>
    <path d="M 47.405304 37.997918 
L 45.945335 39.183087 
L 47.302859 40.352078 
L 48.763157 39.160326 
z
" clip-path="url(#pb5ea187056)" style="fill: #bfd3f6; fill-opacity: 0.75"/>
    <path d="M 50.215039 37.959447 
L 48.763157 39.160326 
L 50.128664 40.329288 
L 51.580857 39.121806 
z
" clip-path="url(#pb5ea187056)" style="fill: #bfd3f6; fill-opacity: 0.75"/>
    <path d="M 53.024828 37.907234 
L 51.580857 39.121806 
L 52.954376 40.290717 
L 54.398638 39.069524 
z
" clip-path="url(#pb5ea187056)" style="fill: #c0d4f5; fill-opacity: 0.75"/>
    <path d="M 55.834849 37.843313 
L 54.398638 39.069524 
L 55.780194 40.238368 
L 57.216672 39.00552 
z
" clip-path="url(#pb5ea187056)" style="fill: #c0d4f5; fill-opacity: 0.75"/>
    <path d="M 58.645246 37.769757 
L 57.216672 39.00552 
L 58.606288 40.17428 
L 60.035104 38.931868 
z
" clip-path="url(#pb5ea187056)" style="fill: #c1d4f4; fill-opacity: 0.75"/>
    <path d="M 61.456138 37.688669 
L 60.035104 38.931868 
L 61.432799 40.100533 
L 62.854046 38.850675 
z
" clip-path="url(#pb5ea187056)" style="fill: #c3d5f4; fill-opacity: 0.75"/>
    <path d="M 64.267609 37.602177 
L 62.854046 38.850675 
L 64.259838 40.019234 
L 65.673581 38.76407 
z
" clip-path="url(#pb5ea187056)" style="fill: #c4d5f3; fill-opacity: 0.75"/>
    <path d="M 67.079716 37.512426 
L 65.673581 38.76407 
L 67.087483 39.932516 
L 68.493761 38.674201 
z
" clip-path="url(#pb5ea187056)" style="fill: #c5d6f2; fill-opacity: 0.75"/>
    <path d="M 69.892482 37.421572 
L 68.493761 38.674201 
L 69.915783 39.84253 
L 71.314605 38.583229 
z
" clip-path="url(#pb5ea187056)" style="fill: #c6d6f1; fill-opacity: 0.75"/>
    <path d="M 72.705899 37.331779 
L 71.314605 38.583229 
L 72.744752 39.75144 
L 74.136103 38.493318 
z
" clip-path="url(#pb5ea187056)" style="fill: #c7d7f0; fill-opacity: 0.75"/>
    <path d="M 75.519928 37.245207 
L 74.136103 38.493318 
L 75.574377 39.661412 
L 76.95821 38.406633 
z
" clip-path="url(#pb5ea187056)" style="fill: #c9d7f0; fill-opacity: 0.75"/>
    <path d="M 78.334498 37.16401 
L 76.95821 38.406633 
L 78.404609 39.574613 
L 79.780852 38.32533 
z
" clip-path="url(#pb5ea187056)" style="fill: #cad8ef; fill-opacity: 0.75"/>
    <path d="M 81.149509 37.090325 
L 79.780852 38.32533 
L 81.235369 39.493204 
L 82.603923 38.251548 
z
" clip-path="url(#pb5ea187056)" style="fill: #cbd8ee; fill-opacity: 0.75"/>
    <path d="M 83.964829 37.026268 
L 82.603923 38.251548 
L 84.066546 39.419326 
L 85.427287 38.187408 
z
" clip-path="url(#pb5ea187056)" style="fill: #ccd9ed; fill-opacity: 0.75"/>
    <path d="M 86.780295 36.973928 
L 85.427287 38.187408 
L 86.898 39.355102 
L 88.250776 38.134999 
z
" clip-path="url(#pb5ea187056)" style="fill: #cdd9ec; fill-opacity: 0.75"/>
    <path d="M 45.945335 39.183087 
L 44.476733 40.357136 
L 45.833935 41.532743 
L 47.302859 40.352078 
z
" clip-path="url(#pb5ea187056)" style="fill: #b6cefa; fill-opacity: 0.75"/>
    <path d="M 48.763157 39.160326 
L 47.302859 40.352078 
L 48.668058 41.527678 
L 50.128664 40.329288 
z
" clip-path="url(#pb5ea187056)" style="fill: #b6cefa; fill-opacity: 0.75"/>
    <path d="M 51.580857 39.121806 
L 50.128664 40.329288 
L 51.501891 41.504858 
L 52.954376 40.290717 
z
" clip-path="url(#pb5ea187056)" style="fill: #b6cefa; fill-opacity: 0.75"/>
    <path d="M 54.398638 39.069524 
L 52.954376 40.290717 
L 54.33566 41.466238 
L 55.780194 40.238368 
z
" clip-path="url(#pb5ea187056)" style="fill: #b7cff9; fill-opacity: 0.75"/>
    <path d="M 57.216672 39.00552 
L 55.780194 40.238368 
L 57.169561 41.41382 
L 58.606288 40.17428 
z
" clip-path="url(#pb5ea187056)" style="fill: #b9d0f9; fill-opacity: 0.75"/>
    <path d="M 60.035104 38.931868 
L 58.606288 40.17428 
L 60.003761 41.349649 
L 61.432799 40.100533 
z
" clip-path="url(#pb5ea187056)" style="fill: #b9d0f9; fill-opacity: 0.75"/>
    <path d="M 62.854046 38.850675 
L 61.432799 40.100533 
L 62.838399 41.275806 
L 64.259838 40.019234 
z
" clip-path="url(#pb5ea187056)" style="fill: #bad0f8; fill-opacity: 0.75"/>
    <path d="M 65.673581 38.76407 
L 64.259838 40.019234 
L 65.673581 41.194402 
L 67.087483 39.932516 
z
" clip-path="url(#pb5ea187056)" style="fill: #bbd1f8; fill-opacity: 0.75"/>
    <path d="M 68.493761 38.674201 
L 67.087483 39.932516 
L 68.509383 41.107571 
L 69.915783 39.84253 
z
" clip-path="url(#pb5ea187056)" style="fill: #bcd2f7; fill-opacity: 0.75"/>
    <path d="M 71.314605 38.583229 
L 69.915783 39.84253 
L 71.345849 41.017469 
L 72.744752 39.75144 
z
" clip-path="url(#pb5ea187056)" style="fill: #bfd3f6; fill-opacity: 0.75"/>
    <path d="M 74.136103 38.493318 
L 72.744752 39.75144 
L 74.182991 40.92626 
L 75.574377 39.661412 
z
" clip-path="url(#pb5ea187056)" style="fill: #c0d4f5; fill-opacity: 0.75"/>
    <path d="M 76.95821 38.406633 
L 75.574377 39.661412 
L 77.020789 40.836115 
L 78.404609 39.574613 
z
" clip-path="url(#pb5ea187056)" style="fill: #c1d4f4; fill-opacity: 0.75"/>
    <path d="M 79.780852 38.32533 
L 78.404609 39.574613 
L 79.859193 40.749203 
L 81.235369 39.493204 
z
" clip-path="url(#pb5ea187056)" style="fill: #c3d5f4; fill-opacity: 0.75"/>
    <path d="M 82.603923 38.251548 
L 81.235369 39.493204 
L 82.698117 40.667687 
L 84.066546 39.419326 
z
" clip-path="url(#pb5ea187056)" style="fill: #c4d5f3; fill-opacity: 0.75"/>
    <path d="M 85.427287 38.187408 
L 84.066546 39.419326 
L 85.537448 40.593713 
L 86.898 39.355102 
z
" clip-path="url(#pb5ea187056)" style="fill: #c4d5f3; fill-opacity: 0.75"/>
    <path d="M 47.302859 40.352078 
L 45.833935 41.532743 
L 47.198831 42.715014 
L 48.668058 41.527678 
z
" clip-path="url(#pb5ea187056)" style="fill: #adc9fd; fill-opacity: 0.75"/>
    <path d="M 50.128664 40.329288 
L 48.668058 41.527678 
L 50.040997 42.709943 
L 51.501891 41.504858 
z
" clip-path="url(#pb5ea187056)" style="fill: #adc9fd; fill-opacity: 0.75"/>
    <path d="M 52.954376 40.290717 
L 51.501891 41.504858 
L 52.882904 42.687093 
L 54.33566 41.466238 
z
" clip-path="url(#pb5ea187056)" style="fill: #aec9fc; fill-opacity: 0.75"/>
    <path d="M 55.780194 40.238368 
L 54.33566 41.466238 
L 55.724776 42.648423 
L 57.169561 41.41382 
z
" clip-path="url(#pb5ea187056)" style="fill: #aec9fc; fill-opacity: 0.75"/>
    <path d="M 58.606288 40.17428 
L 57.169561 41.41382 
L 58.566806 42.595938 
L 60.003761 41.349649 
z
" clip-path="url(#pb5ea187056)" style="fill: #afcafc; fill-opacity: 0.75"/>
    <path d="M 61.432799 40.100533 
L 60.003761 41.349649 
L 61.409159 42.531684 
L 62.838399 41.275806 
z
" clip-path="url(#pb5ea187056)" style="fill: #b1cbfc; fill-opacity: 0.75"/>
    <path d="M 64.259838 40.019234 
L 62.838399 41.275806 
L 64.25197 42.457745 
L 65.673581 41.194402 
z
" clip-path="url(#pb5ea187056)" style="fill: #b2ccfb; fill-opacity: 0.75"/>
    <path d="M 67.087483 39.932516 
L 65.673581 41.194402 
L 67.095343 42.376235 
L 68.509383 41.107571 
z
" clip-path="url(#pb5ea187056)" style="fill: #b3cdfb; fill-opacity: 0.75"/>
    <path d="M 69.915783 39.84253 
L 68.509383 41.107571 
L 69.939348 42.289292 
L 71.345849 41.017469 
z
" clip-path="url(#pb5ea187056)" style="fill: #b5cdfa; fill-opacity: 0.75"/>
    <path d="M 72.744752 39.75144 
L 71.345849 41.017469 
L 72.784028 42.199073 
L 74.182991 40.92626 
z
" clip-path="url(#pb5ea187056)" style="fill: #b6cefa; fill-opacity: 0.75"/>
    <path d="M 75.574377 39.661412 
L 74.182991 40.92626 
L 75.62939 42.107745 
L 77.020789 40.836115 
z
" clip-path="url(#pb5ea187056)" style="fill: #b7cff9; fill-opacity: 0.75"/>
    <path d="M 78.404609 39.574613 
L 77.020789 40.836115 
L 78.47541 42.017483 
L 79.859193 40.749203 
z
" clip-path="url(#pb5ea187056)" style="fill: #b9d0f9; fill-opacity: 0.75"/>
    <path d="M 81.235369 39.493204 
L 79.859193 40.749203 
L 81.322032 41.930459 
L 82.698117 40.667687 
z
" clip-path="url(#pb5ea187056)" style="fill: #bad0f8; fill-opacity: 0.75"/>
    <path d="M 84.066546 39.419326 
L 82.698117 40.667687 
L 84.169168 41.848837 
L 85.537448 40.593713 
z
" clip-path="url(#pb5ea187056)" style="fill: #bbd1f8; fill-opacity: 0.75"/>
    <path d="M 48.668058 41.527678 
L 47.198831 42.715014 
L 48.571486 43.904007 
L 50.040997 42.709943 
z
" clip-path="url(#pb5ea187056)" style="fill: #a3c2fe; fill-opacity: 0.75"/>
    <path d="M 51.501891 41.504858 
L 50.040997 42.709943 
L 51.421741 43.89893 
L 52.882904 42.687093 
z
" clip-path="url(#pb5ea187056)" style="fill: #a5c3fe; fill-opacity: 0.75"/>
    <path d="M 54.33566 41.466238 
L 52.882904 42.687093 
L 54.271769 43.87605 
L 55.724776 42.648423 
z
" clip-path="url(#pb5ea187056)" style="fill: #a5c3fe; fill-opacity: 0.75"/>
    <path d="M 57.169561 41.41382 
L 55.724776 42.648423 
L 57.12179 43.83733 
L 58.566806 42.595938 
z
" clip-path="url(#pb5ea187056)" style="fill: #a5c3fe; fill-opacity: 0.75"/>
    <path d="M 60.003761 41.349649 
L 58.566806 42.595938 
L 59.971997 43.784777 
L 61.409159 42.531684 
z
" clip-path="url(#pb5ea187056)" style="fill: #a6c4fe; fill-opacity: 0.75"/>
    <path d="M 62.838399 41.275806 
L 61.409159 42.531684 
L 62.82255 43.72044 
L 64.25197 42.457745 
z
" clip-path="url(#pb5ea187056)" style="fill: #a7c5fe; fill-opacity: 0.75"/>
    <path d="M 65.673581 41.194402 
L 64.25197 42.457745 
L 65.673581 43.646406 
L 67.095343 42.376235 
z
" clip-path="url(#pb5ea187056)" style="fill: #a9c6fd; fill-opacity: 0.75"/>
    <path d="M 68.509383 41.107571 
L 67.095343 42.376235 
L 68.525191 43.564791 
L 69.939348 42.289292 
z
" clip-path="url(#pb5ea187056)" style="fill: #aac7fd; fill-opacity: 0.75"/>
    <path d="M 71.345849 41.017469 
L 69.939348 42.289292 
L 71.377448 43.477735 
L 72.784028 42.199073 
z
" clip-path="url(#pb5ea187056)" style="fill: #abc8fd; fill-opacity: 0.75"/>
    <path d="M 74.182991 40.92626 
L 72.784028 42.199073 
L 74.230389 43.387399 
L 75.62939 42.107745 
z
" clip-path="url(#pb5ea187056)" style="fill: #adc9fd; fill-opacity: 0.75"/>
    <path d="M 77.020789 40.836115 
L 75.62939 42.107745 
L 77.084018 43.295953 
L 78.47541 42.017483 
z
" clip-path="url(#pb5ea187056)" style="fill: #aec9fc; fill-opacity: 0.75"/>
    <path d="M 79.859193 40.749203 
L 78.47541 42.017483 
L 79.938307 43.205575 
L 81.322032 41.930459 
z
" clip-path="url(#pb5ea187056)" style="fill: #afcafc; fill-opacity: 0.75"/>
    <path d="M 82.698117 40.667687 
L 81.322032 41.930459 
L 82.793196 43.118438 
L 84.169168 41.848837 
z
" clip-path="url(#pb5ea187056)" style="fill: #b1cbfc; fill-opacity: 0.75"/>
    <path d="M 50.040997 42.709943 
L 48.571486 43.904007 
L 49.951969 45.099779 
L 51.421741 43.89893 
z
" clip-path="url(#pb5ea187056)" style="fill: #9bbcff; fill-opacity: 0.75"/>
    <path d="M 52.882904 42.687093 
L 51.421741 43.89893 
L 52.810358 45.094695 
L 54.271769 43.87605 
z
" clip-path="url(#pb5ea187056)" style="fill: #9bbcff; fill-opacity: 0.75"/>
    <path d="M 55.724776 42.648423 
L 54.271769 43.87605 
L 55.668553 45.071787 
L 57.12179 43.83733 
z
" clip-path="url(#pb5ea187056)" style="fill: #9bbcff; fill-opacity: 0.75"/>
    <path d="M 58.566806 42.595938 
L 57.12179 43.83733 
L 58.526771 45.033017 
L 59.971997 43.784777 
z
" clip-path="url(#pb5ea187056)" style="fill: #9dbdff; fill-opacity: 0.75"/>
    <path d="M 61.409159 42.531684 
L 59.971997 43.784777 
L 61.3852 44.980396 
L 62.82255 43.72044 
z
" clip-path="url(#pb5ea187056)" style="fill: #9dbdff; fill-opacity: 0.75"/>
    <path d="M 64.25197 42.457745 
L 62.82255 43.72044 
L 64.244001 44.915976 
L 65.673581 43.646406 
z
" clip-path="url(#pb5ea187056)" style="fill: #9ebeff; fill-opacity: 0.75"/>
    <path d="M 67.095343 42.376235 
L 65.673581 43.646406 
L 67.1033 44.841846 
L 68.525191 43.564791 
z
" clip-path="url(#pb5ea187056)" style="fill: #9fbfff; fill-opacity: 0.75"/>
    <path d="M 69.939348 42.289292 
L 68.525191 43.564791 
L 69.963196 44.760126 
L 71.377448 43.477735 
z
" clip-path="url(#pb5ea187056)" style="fill: #a1c0ff; fill-opacity: 0.75"/>
    <path d="M 72.784028 42.199073 
L 71.377448 43.477735 
L 72.823752 44.672958 
L 74.230389 43.387399 
z
" clip-path="url(#pb5ea187056)" style="fill: #a2c1ff; fill-opacity: 0.75"/>
    <path d="M 75.62939 42.107745 
L 74.230389 43.387399 
L 75.685003 44.582506 
L 77.084018 43.295953 
z
" clip-path="url(#pb5ea187056)" style="fill: #a3c2fe; fill-opacity: 0.75"/>
    <path d="M 78.47541 42.017483 
L 77.084018 43.295953 
L 78.546947 44.490942 
L 79.938307 43.205575 
z
" clip-path="url(#pb5ea187056)" style="fill: #a5c3fe; fill-opacity: 0.75"/>
    <path d="M 81.322032 41.930459 
L 79.938307 43.205575 
L 81.409554 44.400446 
L 82.793196 43.118438 
z
" clip-path="url(#pb5ea187056)" style="fill: #a6c4fe; fill-opacity: 0.75"/>
    <path d="M 51.421741 43.89893 
L 49.951969 45.099779 
L 51.340345 46.302389 
L 52.810358 45.094695 
z
" clip-path="url(#pb5ea187056)" style="fill: #92b4fe; fill-opacity: 0.75"/>
    <path d="M 54.271769 43.87605 
L 52.810358 45.094695 
L 54.206916 46.297299 
L 55.668553 45.071787 
z
" clip-path="url(#pb5ea187056)" style="fill: #92b4fe; fill-opacity: 0.75"/>
    <path d="M 57.12179 43.83733 
L 55.668553 45.071787 
L 57.073324 46.274361 
L 58.526771 45.033017 
z
" clip-path="url(#pb5ea187056)" style="fill: #92b4fe; fill-opacity: 0.75"/>
    <path d="M 59.971997 43.784777 
L 58.526771 45.033017 
L 59.939785 46.235541 
L 61.3852 44.980396 
z
" clip-path="url(#pb5ea187056)" style="fill: #93b5fe; fill-opacity: 0.75"/>
    <path d="M 62.82255 43.72044 
L 61.3852 44.980396 
L 62.806486 46.182852 
L 64.244001 44.915976 
z
" clip-path="url(#pb5ea187056)" style="fill: #94b6ff; fill-opacity: 0.75"/>
    <path d="M 65.673581 43.646406 
L 64.244001 44.915976 
L 65.673581 46.11835 
L 67.1033 44.841846 
z
" clip-path="url(#pb5ea187056)" style="fill: #94b6ff; fill-opacity: 0.75"/>
    <path d="M 68.525191 43.564791 
L 67.1033 44.841846 
L 68.541197 46.044125 
L 69.963196 44.760126 
z
" clip-path="url(#pb5ea187056)" style="fill: #96b7ff; fill-opacity: 0.75"/>
    <path d="M 71.377448 43.477735 
L 69.963196 44.760126 
L 71.409426 45.962299 
L 72.823752 44.672958 
z
" clip-path="url(#pb5ea187056)" style="fill: #97b8ff; fill-opacity: 0.75"/>
    <path d="M 74.230389 43.387399 
L 72.823752 44.672958 
L 74.278331 45.87502 
L 75.685003 44.582506 
z
" clip-path="url(#pb5ea187056)" style="fill: #9abbff; fill-opacity: 0.75"/>
    <path d="M 77.084018 43.295953 
L 75.685003 44.582506 
L 77.14794 45.78445 
L 78.546947 44.490942 
z
" clip-path="url(#pb5ea187056)" style="fill: #9bbcff; fill-opacity: 0.75"/>
    <path d="M 79.938307 43.205575 
L 78.546947 44.490942 
L 80.018248 45.692769 
L 81.409554 44.400446 
z
" clip-path="url(#pb5ea187056)" style="fill: #9dbdff; fill-opacity: 0.75"/>
    <path d="M 52.810358 45.094695 
L 51.340345 46.302389 
L 52.736682 47.511895 
L 54.206916 46.297299 
z
" clip-path="url(#pb5ea187056)" style="fill: #88abfd; fill-opacity: 0.75"/>
    <path d="M 55.668553 45.071787 
L 54.206916 46.297299 
L 55.611481 47.506798 
L 57.073324 46.274361 
z
" clip-path="url(#pb5ea187056)" style="fill: #88abfd; fill-opacity: 0.75"/>
    <path d="M 58.526771 45.033017 
L 57.073324 46.274361 
L 58.486151 47.483831 
L 59.939785 46.235541 
z
" clip-path="url(#pb5ea187056)" style="fill: #89acfd; fill-opacity: 0.75"/>
    <path d="M 61.3852 44.980396 
L 59.939785 46.235541 
L 61.360903 47.444961 
L 62.806486 46.182852 
z
" clip-path="url(#pb5ea187056)" style="fill: #89acfd; fill-opacity: 0.75"/>
    <path d="M 64.244001 44.915976 
L 62.806486 46.182852 
L 64.235923 47.392205 
L 65.673581 46.11835 
z
" clip-path="url(#pb5ea187056)" style="fill: #8badfd; fill-opacity: 0.75"/>
    <path d="M 67.1033 44.841846 
L 65.673581 46.11835 
L 67.111361 47.32762 
L 68.541197 46.044125 
z
" clip-path="url(#pb5ea187056)" style="fill: #8caffe; fill-opacity: 0.75"/>
    <path d="M 69.963196 44.760126 
L 68.541197 46.044125 
L 69.987342 47.2533 
L 71.409426 45.962299 
z
" clip-path="url(#pb5ea187056)" style="fill: #8db0fe; fill-opacity: 0.75"/>
    <path d="M 72.823752 44.672958 
L 71.409426 45.962299 
L 72.863954 47.171369 
L 74.278331 45.87502 
z
" clip-path="url(#pb5ea187056)" style="fill: #8fb1fe; fill-opacity: 0.75"/>
    <path d="M 75.685003 44.582506 
L 74.278331 45.87502 
L 75.741255 47.083978 
L 77.14794 45.78445 
z
" clip-path="url(#pb5ea187056)" style="fill: #90b2fe; fill-opacity: 0.75"/>
    <path d="M 78.546947 44.490942 
L 77.14794 45.78445 
L 78.619271 46.993292 
L 80.018248 45.692769 
z
" clip-path="url(#pb5ea187056)" style="fill: #92b4fe; fill-opacity: 0.75"/>
    <path d="M 54.206916 46.297299 
L 52.736682 47.511895 
L 54.141049 48.728357 
L 55.611481 47.506798 
z
" clip-path="url(#pb5ea187056)" style="fill: #7ea1fa; fill-opacity: 0.75"/>
    <path d="M 57.073324 46.274361 
L 55.611481 47.506798 
L 57.024124 48.723253 
L 58.486151 47.483831 
z
" clip-path="url(#pb5ea187056)" style="fill: #80a3fa; fill-opacity: 0.75"/>
    <path d="M 59.939785 46.235541 
L 58.486151 47.483831 
L 59.907103 48.700256 
L 61.360903 47.444961 
z
" clip-path="url(#pb5ea187056)" style="fill: #80a3fa; fill-opacity: 0.75"/>
    <path d="M 62.806486 46.182852 
L 61.360903 47.444961 
L 62.790195 48.661337 
L 64.235923 47.392205 
z
" clip-path="url(#pb5ea187056)" style="fill: #80a3fa; fill-opacity: 0.75"/>
    <path d="M 65.673581 46.11835 
L 64.235923 47.392205 
L 65.673581 48.608514 
L 67.111361 47.32762 
z
" clip-path="url(#pb5ea187056)" style="fill: #81a4fb; fill-opacity: 0.75"/>
    <path d="M 68.541197 46.044125 
L 67.111361 47.32762 
L 68.557412 48.543846 
L 69.987342 47.2533 
z
" clip-path="url(#pb5ea187056)" style="fill: #82a6fb; fill-opacity: 0.75"/>
    <path d="M 71.409426 45.962299 
L 69.987342 47.2533 
L 71.441806 48.469431 
L 72.863954 47.171369 
z
" clip-path="url(#pb5ea187056)" style="fill: #84a7fc; fill-opacity: 0.75"/>
    <path d="M 74.278331 45.87502 
L 72.863954 47.171369 
L 74.32685 48.387396 
L 75.741255 47.083978 
z
" clip-path="url(#pb5ea187056)" style="fill: #85a8fc; fill-opacity: 0.75"/>
    <path d="M 77.14794 45.78445 
L 75.741255 47.083978 
L 77.212597 48.299892 
L 78.619271 46.993292 
z
" clip-path="url(#pb5ea187056)" style="fill: #86a9fc; fill-opacity: 0.75"/>
    <path d="M 55.611481 47.506798 
L 54.141049 48.728357 
L 55.553517 49.951834 
L 57.024124 48.723253 
z
" clip-path="url(#pb5ea187056)" style="fill: #7699f6; fill-opacity: 0.75"/>
    <path d="M 58.486151 47.483831 
L 57.024124 48.723253 
L 58.444915 49.946724 
L 59.907103 48.700256 
z
" clip-path="url(#pb5ea187056)" style="fill: #7699f6; fill-opacity: 0.75"/>
    <path d="M 61.360903 47.444961 
L 59.907103 48.700256 
L 61.33625 49.923698 
L 62.790195 48.661337 
z
" clip-path="url(#pb5ea187056)" style="fill: #7699f6; fill-opacity: 0.75"/>
    <path d="M 64.235923 47.392205 
L 62.790195 48.661337 
L 64.22773 49.884729 
L 65.673581 48.608514 
z
" clip-path="url(#pb5ea187056)" style="fill: #779af7; fill-opacity: 0.75"/>
    <path d="M 67.111361 47.32762 
L 65.673581 48.608514 
L 67.119533 49.831838 
L 68.557412 48.543846 
z
" clip-path="url(#pb5ea187056)" style="fill: #779af7; fill-opacity: 0.75"/>
    <path d="M 69.987342 47.2533 
L 68.557412 48.543846 
L 70.011805 49.767088 
L 71.441806 48.469431 
z
" clip-path="url(#pb5ea187056)" style="fill: #799cf8; fill-opacity: 0.75"/>
    <path d="M 72.863954 47.171369 
L 71.441806 48.469431 
L 72.904662 49.692578 
L 74.32685 48.387396 
z
" clip-path="url(#pb5ea187056)" style="fill: #7a9df8; fill-opacity: 0.75"/>
    <path d="M 75.741255 47.083978 
L 74.32685 48.387396 
L 75.798187 49.610438 
L 77.212597 48.299892 
z
" clip-path="url(#pb5ea187056)" style="fill: #7b9ff9; fill-opacity: 0.75"/>
    <path d="M 57.024124 48.723253 
L 55.553517 49.951834 
L 56.974153 51.182388 
L 58.444915 49.946724 
z
" clip-path="url(#pb5ea187056)" style="fill: #6c8ff1; fill-opacity: 0.75"/>
    <path d="M 59.907103 48.700256 
L 58.444915 49.946724 
L 59.873924 51.177272 
L 61.33625 49.923698 
z
" clip-path="url(#pb5ea187056)" style="fill: #6c8ff1; fill-opacity: 0.75"/>
    <path d="M 62.790195 48.661337 
L 61.33625 49.923698 
L 62.773664 51.154216 
L 64.22773 49.884729 
z
" clip-path="url(#pb5ea187056)" style="fill: #6c8ff1; fill-opacity: 0.75"/>
    <path d="M 65.673581 48.608514 
L 64.22773 49.884729 
L 65.673581 51.115198 
L 67.119533 49.831838 
z
" clip-path="url(#pb5ea187056)" style="fill: #6e90f2; fill-opacity: 0.75"/>
    <path d="M 68.557412 48.543846 
L 67.119533 49.831838 
L 68.573849 51.06224 
L 70.011805 49.767088 
z
" clip-path="url(#pb5ea187056)" style="fill: #6f92f3; fill-opacity: 0.75"/>
    <path d="M 71.441806 48.469431 
L 70.011805 49.767088 
L 71.474612 50.997408 
L 72.904662 49.692578 
z
" clip-path="url(#pb5ea187056)" style="fill: #7093f3; fill-opacity: 0.75"/>
    <path d="M 74.32685 48.387396 
L 72.904662 49.692578 
L 74.375982 50.922803 
L 75.798187 49.610438 
z
" clip-path="url(#pb5ea187056)" style="fill: #7093f3; fill-opacity: 0.75"/>
    <path d="M 58.444915 49.946724 
L 56.974153 51.182388 
L 58.403031 52.420081 
L 59.873924 51.177272 
z
" clip-path="url(#pb5ea187056)" style="fill: #6384eb; fill-opacity: 0.75"/>
    <path d="M 61.33625 49.923698 
L 59.873924 51.177272 
L 61.311222 52.414958 
L 62.773664 51.154216 
z
" clip-path="url(#pb5ea187056)" style="fill: #6384eb; fill-opacity: 0.75"/>
    <path d="M 64.22773 49.884729 
L 62.773664 51.154216 
L 64.219417 52.391873 
L 65.673581 51.115198 
z
" clip-path="url(#pb5ea187056)" style="fill: #6485ec; fill-opacity: 0.75"/>
    <path d="M 67.119533 49.831838 
L 65.673581 51.115198 
L 67.12782 52.352806 
L 68.573849 51.06224 
z
" clip-path="url(#pb5ea187056)" style="fill: #6485ec; fill-opacity: 0.75"/>
    <path d="M 70.011805 49.767088 
L 68.573849 51.06224 
L 70.036603 52.29978 
L 71.474612 50.997408 
z
" clip-path="url(#pb5ea187056)" style="fill: #6687ed; fill-opacity: 0.75"/>
    <path d="M 72.904662 49.692578 
L 71.474612 50.997408 
L 72.945907 52.234866 
L 74.375982 50.922803 
z
" clip-path="url(#pb5ea187056)" style="fill: #6788ee; fill-opacity: 0.75"/>
    <path d="M 59.873924 51.177272 
L 58.403031 52.420081 
L 59.840222 53.664974 
L 61.311222 52.414958 
z
" clip-path="url(#pb5ea187056)" style="fill: #5a78e4; fill-opacity: 0.75"/>
    <path d="M 62.773664 51.154216 
L 61.311222 52.414958 
L 62.756882 53.659844 
L 64.219417 52.391873 
z
" clip-path="url(#pb5ea187056)" style="fill: #5b7ae5; fill-opacity: 0.75"/>
    <path d="M 65.673581 51.115198 
L 64.219417 52.391873 
L 65.673581 53.636731 
L 67.12782 52.352806 
z
" clip-path="url(#pb5ea187056)" style="fill: #5b7ae5; fill-opacity: 0.75"/>
    <path d="M 68.573849 51.06224 
L 67.12782 52.352806 
L 68.59052 53.597614 
L 70.036603 52.29978 
z
" clip-path="url(#pb5ea187056)" style="fill: #5d7ce6; fill-opacity: 0.75"/>
    <path d="M 71.474612 50.997408 
L 70.036603 52.29978 
L 71.507869 53.544522 
L 72.945907 52.234866 
z
" clip-path="url(#pb5ea187056)" style="fill: #5d7ce6; fill-opacity: 0.75"/>
    <path d="M 61.311222 52.414958 
L 59.840222 53.664974 
L 61.285798 54.91713 
L 62.756882 53.659844 
z
" clip-path="url(#pb5ea187056)" style="fill: #536edd; fill-opacity: 0.75"/>
    <path d="M 64.219417 52.391873 
L 62.756882 53.659844 
L 64.210977 54.911994 
L 65.673581 53.636731 
z
" clip-path="url(#pb5ea187056)" style="fill: #536edd; fill-opacity: 0.75"/>
    <path d="M 67.12782 52.352806 
L 65.673581 53.636731 
L 67.13623 54.888852 
L 68.59052 53.597614 
z
" clip-path="url(#pb5ea187056)" style="fill: #536edd; fill-opacity: 0.75"/>
    <path d="M 70.036603 52.29978 
L 68.59052 53.597614 
L 70.061756 54.849686 
L 71.507869 53.544522 
z
" clip-path="url(#pb5ea187056)" style="fill: #5470de; fill-opacity: 0.75"/>
    <path d="M 62.756882 53.659844 
L 61.285798 54.91713 
L 62.739834 56.176614 
L 64.210977 54.911994 
z
" clip-path="url(#pb5ea187056)" style="fill: #4a63d3; fill-opacity: 0.75"/>
    <path d="M 65.673581 53.636731 
L 64.210977 54.911994 
L 65.673581 56.171472 
L 67.13623 54.888852 
z
" clip-path="url(#pb5ea187056)" style="fill: #4a63d3; fill-opacity: 0.75"/>
    <path d="M 68.59052 53.597614 
L 67.13623 54.888852 
L 68.607439 56.1483 
L 70.061756 54.849686 
z
" clip-path="url(#pb5ea187056)" style="fill: #4b64d5; fill-opacity: 0.75"/>
    <path d="M 64.210977 54.911994 
L 62.739834 56.176614 
L 64.202403 57.44349 
L 65.673581 56.171472 
z
" clip-path="url(#pb5ea187056)" style="fill: #4257c9; fill-opacity: 0.75"/>
    <path d="M 67.13623 54.888852 
L 65.673581 56.171472 
L 67.144769 57.438341 
L 68.607439 56.1483 
z
" clip-path="url(#pb5ea187056)" style="fill: #4257c9; fill-opacity: 0.75"/>
    <path d="M 65.673581 56.171472 
L 64.202403 57.44349 
L 65.673581 58.717823 
L 67.144769 57.438341 
z
" clip-path="url(#pb5ea187056)" style="fill: #3b4cc0; fill-opacity: 0.75"/>
   </g>
  </g>
 </g>
 <defs>
  <clipPath id="pb5ea187056">
   <rect x="31.332936" y="3.00024" width="66.873888" height="66.873888"/>
  </clipPath>
 </defs>
</svg>
