<?xml version="1.0" encoding="utf-8" standalone="no"?>
<!DOCTYPE svg PUBLIC "-//W3C//DTD SVG 1.1//EN"
  "http://www.w3.org/Graphics/SVG/1.1/DTD/svg11.dtd">
<svg xmlns:xlink="http://www.w3.org/1999/xlink" width="388.61928pt" height="218.623104pt" viewBox="0 0 388.61928 218.623104" xmlns="http://www.w3.org/2000/svg" version="1.1">
 <metadata>
  <rdf:RDF xmlns:dc="http://purl.org/dc/elements/1.1/" xmlns:cc="http://creativecommons.org/ns#" xmlns:rdf="http://www.w3.org/1999/02/22-rdf-syntax-ns#">
   <cc:Work>
    <dc:type rdf:resource="http://purl.org/dc/dcmitype/StillImage"/>
    <dc:date>2024-11-28T10:36:22.938042</dc:date>
    <dc:format>image/svg+xml</dc:format>
    <dc:creator>
     <cc:Agent>
      <dc:title>Matplotlib v3.8.2, https://matplotlib.org/</dc:title>
     </cc:Agent>
    </dc:creator>
   </cc:Work>
  </rdf:RDF>
 </metadata>
 <defs>
  <style type="text/css">*{stroke-linejoin: round; stroke-linecap: butt}</style>
 </defs>
 <g id="figure_1">
  <g id="patch_1">
   <path d="M 0 218.623104 
L 388.61928 218.623104 
L 388.61928 0 
L 0 0 
z
" style="fill: #ffffff"/>
  </g>
  <g id="axes_1">
   <g id="patch_2">
    <path d="M 31.893052 195.408177 
L 385.61904 195.408177 
L 385.61904 4.902887 
L 31.893052 4.902887 
z
" style="fill: #ffffff"/>
   </g>
   <g id="matplotlib.axis_1">
    <g id="xtick_1">
     <g id="line2d_1"/>
     <g id="text_1">
      <!-- −30 -->
      <g style="fill: #262626" transform="translate(25.283502 204.227083) scale(0.07 -0.07)">
       <defs>
        <path id="DejaVuSerif-2212" d="M 678 2259 
L 4684 2259 
L 4684 1753 
L 678 1753 
L 678 2259 
z
" transform="scale(0.015625)"/>
        <path id="DejaVuSerif-33" d="M 622 4469 
Q 988 4606 1323 4678 
Q 1659 4750 1953 4750 
Q 2638 4750 3022 4454 
Q 3406 4159 3406 3634 
Q 3406 3213 3140 2930 
Q 2875 2647 2388 2547 
Q 2963 2466 3280 2130 
Q 3597 1794 3597 1259 
Q 3597 606 3158 257 
Q 2719 -91 1894 -91 
Q 1528 -91 1179 -12 
Q 831 66 488 225 
L 488 1131 
L 838 1131 
Q 869 681 1141 450 
Q 1413 219 1906 219 
Q 2384 219 2661 495 
Q 2938 772 2938 1253 
Q 2938 1803 2653 2086 
Q 2369 2369 1819 2369 
L 1522 2369 
L 1522 2688 
L 1678 2688 
Q 2225 2688 2498 2914 
Q 2772 3141 2772 3597 
Q 2772 4006 2547 4223 
Q 2322 4441 1900 4441 
Q 1478 4441 1245 4241 
Q 1013 4041 972 3647 
L 622 3647 
L 622 4469 
z
" transform="scale(0.015625)"/>
        <path id="DejaVuSerif-30" d="M 2034 219 
Q 2513 219 2750 744 
Q 2988 1269 2988 2328 
Q 2988 3391 2750 3916 
Q 2513 4441 2034 4441 
Q 1556 4441 1318 3916 
Q 1081 3391 1081 2328 
Q 1081 1269 1318 744 
Q 1556 219 2034 219 
z
M 2034 -91 
Q 1275 -91 848 546 
Q 422 1184 422 2328 
Q 422 3475 848 4112 
Q 1275 4750 2034 4750 
Q 2797 4750 3222 4112 
Q 3647 3475 3647 2328 
Q 3647 1184 3222 546 
Q 2797 -91 2034 -91 
z
" transform="scale(0.015625)"/>
       </defs>
       <use xlink:href="#DejaVuSerif-2212"/>
       <use xlink:href="#DejaVuSerif-33" x="83.789062"/>
       <use xlink:href="#DejaVuSerif-30" x="147.412109"/>
      </g>
     </g>
    </g>
    <g id="xtick_2">
     <g id="line2d_2"/>
     <g id="text_2">
      <!-- −27 -->
      <g style="fill: #262626" transform="translate(43.619186 204.227083) scale(0.07 -0.07)">
       <defs>
        <path id="DejaVuSerif-32" d="M 819 3553 
L 469 3553 
L 469 4384 
Q 803 4563 1142 4656 
Q 1481 4750 1806 4750 
Q 2534 4750 2956 4397 
Q 3378 4044 3378 3438 
Q 3378 2753 2422 1800 
Q 2347 1728 2309 1691 
L 1131 513 
L 3078 513 
L 3078 1088 
L 3444 1088 
L 3444 0 
L 434 0 
L 434 341 
L 1850 1753 
Q 2319 2222 2519 2614 
Q 2719 3006 2719 3438 
Q 2719 3909 2473 4175 
Q 2228 4441 1797 4441 
Q 1350 4441 1106 4219 
Q 863 3997 819 3553 
z
" transform="scale(0.015625)"/>
        <path id="DejaVuSerif-37" d="M 3609 4347 
L 1784 0 
L 1319 0 
L 3059 4153 
L 903 4153 
L 903 3578 
L 538 3578 
L 538 4666 
L 3609 4666 
L 3609 4347 
z
" transform="scale(0.015625)"/>
       </defs>
       <use xlink:href="#DejaVuSerif-2212"/>
       <use xlink:href="#DejaVuSerif-32" x="83.789062"/>
       <use xlink:href="#DejaVuSerif-37" x="147.412109"/>
      </g>
     </g>
    </g>
    <g id="xtick_3">
     <g id="line2d_3"/>
     <g id="text_3">
      <!-- −24 -->
      <g style="fill: #262626" transform="translate(61.954871 204.227083) scale(0.07 -0.07)">
       <defs>
        <path id="DejaVuSerif-34" d="M 2234 1581 
L 2234 4063 
L 641 1581 
L 2234 1581 
z
M 3609 0 
L 1484 0 
L 1484 331 
L 2234 331 
L 2234 1247 
L 197 1247 
L 197 1588 
L 2241 4750 
L 2859 4750 
L 2859 1581 
L 3750 1581 
L 3750 1247 
L 2859 1247 
L 2859 331 
L 3609 331 
L 3609 0 
z
" transform="scale(0.015625)"/>
       </defs>
       <use xlink:href="#DejaVuSerif-2212"/>
       <use xlink:href="#DejaVuSerif-32" x="83.789062"/>
       <use xlink:href="#DejaVuSerif-34" x="147.412109"/>
      </g>
     </g>
    </g>
    <g id="xtick_4">
     <g id="line2d_4"/>
     <g id="text_4">
      <!-- −21 -->
      <g style="fill: #262626" transform="translate(80.290556 204.227083) scale(0.07 -0.07)">
       <defs>
        <path id="DejaVuSerif-31" d="M 909 0 
L 909 331 
L 1722 331 
L 1722 4213 
L 781 3603 
L 781 4013 
L 1919 4750 
L 2350 4750 
L 2350 331 
L 3163 331 
L 3163 0 
L 909 0 
z
" transform="scale(0.015625)"/>
       </defs>
       <use xlink:href="#DejaVuSerif-2212"/>
       <use xlink:href="#DejaVuSerif-32" x="83.789062"/>
       <use xlink:href="#DejaVuSerif-31" x="147.412109"/>
      </g>
     </g>
    </g>
    <g id="xtick_5">
     <g id="line2d_5"/>
     <g id="text_5">
      <!-- −18 -->
      <g style="fill: #262626" transform="translate(98.62624 204.227083) scale(0.07 -0.07)">
       <defs>
        <path id="DejaVuSerif-38" d="M 2981 1275 
Q 2981 1775 2732 2051 
Q 2484 2328 2034 2328 
Q 1584 2328 1336 2051 
Q 1088 1775 1088 1275 
Q 1088 772 1336 495 
Q 1584 219 2034 219 
Q 2484 219 2732 495 
Q 2981 772 2981 1275 
z
M 2853 3541 
Q 2853 3966 2637 4203 
Q 2422 4441 2034 4441 
Q 1650 4441 1433 4203 
Q 1216 3966 1216 3541 
Q 1216 3113 1433 2875 
Q 1650 2638 2034 2638 
Q 2422 2638 2637 2875 
Q 2853 3113 2853 3541 
z
M 2516 2484 
Q 3047 2413 3344 2092 
Q 3641 1772 3641 1275 
Q 3641 619 3225 264 
Q 2809 -91 2034 -91 
Q 1263 -91 845 264 
Q 428 619 428 1275 
Q 428 1772 725 2092 
Q 1022 2413 1556 2484 
Q 1084 2569 832 2842 
Q 581 3116 581 3541 
Q 581 4103 968 4426 
Q 1356 4750 2034 4750 
Q 2713 4750 3100 4426 
Q 3488 4103 3488 3541 
Q 3488 3116 3236 2842 
Q 2984 2569 2516 2484 
z
" transform="scale(0.015625)"/>
       </defs>
       <use xlink:href="#DejaVuSerif-2212"/>
       <use xlink:href="#DejaVuSerif-31" x="83.789062"/>
       <use xlink:href="#DejaVuSerif-38" x="147.412109"/>
      </g>
     </g>
    </g>
    <g id="xtick_6">
     <g id="line2d_6"/>
     <g id="text_6">
      <!-- −15 -->
      <g style="fill: #262626" transform="translate(116.961925 204.227083) scale(0.07 -0.07)">
       <defs>
        <path id="DejaVuSerif-35" d="M 3219 4666 
L 3219 4153 
L 1081 4153 
L 1081 2816 
Q 1244 2928 1461 2984 
Q 1678 3041 1947 3041 
Q 2703 3041 3140 2622 
Q 3578 2203 3578 1478 
Q 3578 738 3136 323 
Q 2694 -91 1894 -91 
Q 1572 -91 1234 -12 
Q 897 66 544 225 
L 544 1131 
L 897 1131 
Q 925 688 1179 453 
Q 1434 219 1894 219 
Q 2388 219 2653 544 
Q 2919 869 2919 1478 
Q 2919 2084 2655 2407 
Q 2391 2731 1894 2731 
Q 1613 2731 1398 2631 
Q 1184 2531 1019 2322 
L 750 2322 
L 750 4666 
L 3219 4666 
z
" transform="scale(0.015625)"/>
       </defs>
       <use xlink:href="#DejaVuSerif-2212"/>
       <use xlink:href="#DejaVuSerif-31" x="83.789062"/>
       <use xlink:href="#DejaVuSerif-35" x="147.412109"/>
      </g>
     </g>
    </g>
    <g id="xtick_7">
     <g id="line2d_7"/>
     <g id="text_7">
      <!-- −12 -->
      <g style="fill: #262626" transform="translate(135.29761 204.227083) scale(0.07 -0.07)">
       <use xlink:href="#DejaVuSerif-2212"/>
       <use xlink:href="#DejaVuSerif-31" x="83.789062"/>
       <use xlink:href="#DejaVuSerif-32" x="147.412109"/>
      </g>
     </g>
    </g>
    <g id="xtick_8">
     <g id="line2d_8"/>
     <g id="text_8">
      <!-- −9 -->
      <g style="fill: #262626" transform="translate(155.860169 204.227083) scale(0.07 -0.07)">
       <defs>
        <path id="DejaVuSerif-39" d="M 2994 2091 
Q 2784 1856 2512 1740 
Q 2241 1625 1900 1625 
Q 1206 1625 804 2044 
Q 403 2463 403 3188 
Q 403 3897 839 4323 
Q 1275 4750 2003 4750 
Q 2794 4750 3217 4161 
Q 3641 3572 3641 2478 
Q 3641 1253 3137 581 
Q 2634 -91 1722 -91 
Q 1475 -91 1203 -44 
Q 931 3 647 97 
L 647 872 
L 997 872 
Q 1038 556 1241 387 
Q 1444 219 1784 219 
Q 2391 219 2687 676 
Q 2984 1134 2994 2091 
z
M 1978 4441 
Q 1534 4441 1298 4117 
Q 1063 3794 1063 3188 
Q 1063 2581 1298 2256 
Q 1534 1931 1978 1931 
Q 2422 1931 2658 2245 
Q 2894 2559 2894 3150 
Q 2894 3772 2656 4106 
Q 2419 4441 1978 4441 
z
" transform="scale(0.015625)"/>
       </defs>
       <use xlink:href="#DejaVuSerif-2212"/>
       <use xlink:href="#DejaVuSerif-39" x="83.789062"/>
      </g>
     </g>
    </g>
    <g id="xtick_9">
     <g id="line2d_9"/>
     <g id="text_9">
      <!-- −6 -->
      <g style="fill: #262626" transform="translate(174.195854 204.227083) scale(0.07 -0.07)">
       <defs>
        <path id="DejaVuSerif-36" d="M 2094 219 
Q 2534 219 2771 542 
Q 3009 866 3009 1472 
Q 3009 2078 2771 2401 
Q 2534 2725 2094 2725 
Q 1647 2725 1412 2412 
Q 1178 2100 1178 1509 
Q 1178 888 1415 553 
Q 1653 219 2094 219 
z
M 1075 2569 
Q 1288 2803 1556 2918 
Q 1825 3034 2163 3034 
Q 2859 3034 3264 2615 
Q 3669 2197 3669 1472 
Q 3669 763 3233 336 
Q 2797 -91 2069 -91 
Q 1278 -91 853 498 
Q 428 1088 428 2181 
Q 428 3406 931 4078 
Q 1434 4750 2350 4750 
Q 2597 4750 2869 4703 
Q 3141 4656 3425 4563 
L 3425 3794 
L 3072 3794 
Q 3034 4109 2831 4275 
Q 2628 4441 2284 4441 
Q 1678 4441 1381 3981 
Q 1084 3522 1075 2569 
z
" transform="scale(0.015625)"/>
       </defs>
       <use xlink:href="#DejaVuSerif-2212"/>
       <use xlink:href="#DejaVuSerif-36" x="83.789062"/>
      </g>
     </g>
    </g>
    <g id="xtick_10">
     <g id="line2d_10"/>
     <g id="text_10">
      <!-- −3 -->
      <g style="fill: #262626" transform="translate(192.531539 204.227083) scale(0.07 -0.07)">
       <use xlink:href="#DejaVuSerif-2212"/>
       <use xlink:href="#DejaVuSerif-33" x="83.789062"/>
      </g>
     </g>
    </g>
    <g id="xtick_11">
     <g id="line2d_11"/>
     <g id="text_11">
      <!-- 0 -->
      <g style="fill: #262626" transform="translate(213.800114 204.227083) scale(0.07 -0.07)">
       <use xlink:href="#DejaVuSerif-30"/>
      </g>
     </g>
    </g>
    <g id="xtick_12">
     <g id="line2d_12"/>
     <g id="text_12">
      <!-- 3 -->
      <g style="fill: #262626" transform="translate(232.135799 204.227083) scale(0.07 -0.07)">
       <use xlink:href="#DejaVuSerif-33"/>
      </g>
     </g>
    </g>
    <g id="xtick_13">
     <g id="line2d_13"/>
     <g id="text_13">
      <!-- 6 -->
      <g style="fill: #262626" transform="translate(250.471483 204.227083) scale(0.07 -0.07)">
       <use xlink:href="#DejaVuSerif-36"/>
      </g>
     </g>
    </g>
    <g id="xtick_14">
     <g id="line2d_14"/>
     <g id="text_14">
      <!-- 9 -->
      <g style="fill: #262626" transform="translate(268.807168 204.227083) scale(0.07 -0.07)">
       <use xlink:href="#DejaVuSerif-39"/>
      </g>
     </g>
    </g>
    <g id="xtick_15">
     <g id="line2d_15"/>
     <g id="text_15">
      <!-- 12 -->
      <g style="fill: #262626" transform="translate(284.915978 204.227083) scale(0.07 -0.07)">
       <use xlink:href="#DejaVuSerif-31"/>
       <use xlink:href="#DejaVuSerif-32" x="63.623047"/>
      </g>
     </g>
    </g>
    <g id="xtick_16">
     <g id="line2d_16"/>
     <g id="text_16">
      <!-- 15 -->
      <g style="fill: #262626" transform="translate(303.251662 204.227083) scale(0.07 -0.07)">
       <use xlink:href="#DejaVuSerif-31"/>
       <use xlink:href="#DejaVuSerif-35" x="63.623047"/>
      </g>
     </g>
    </g>
    <g id="xtick_17">
     <g id="line2d_17"/>
     <g id="text_17">
      <!-- 18 -->
      <g style="fill: #262626" transform="translate(321.587347 204.227083) scale(0.07 -0.07)">
       <use xlink:href="#DejaVuSerif-31"/>
       <use xlink:href="#DejaVuSerif-38" x="63.623047"/>
      </g>
     </g>
    </g>
    <g id="xtick_18">
     <g id="line2d_18"/>
     <g id="text_18">
      <!-- 21 -->
      <g style="fill: #262626" transform="translate(339.923032 204.227083) scale(0.07 -0.07)">
       <use xlink:href="#DejaVuSerif-32"/>
       <use xlink:href="#DejaVuSerif-31" x="63.623047"/>
      </g>
     </g>
    </g>
    <g id="xtick_19">
     <g id="line2d_19"/>
     <g id="text_19">
      <!-- 24 -->
      <g style="fill: #262626" transform="translate(358.258716 204.227083) scale(0.07 -0.07)">
       <use xlink:href="#DejaVuSerif-32"/>
       <use xlink:href="#DejaVuSerif-34" x="63.623047"/>
      </g>
     </g>
    </g>
    <g id="xtick_20">
     <g id="line2d_20"/>
     <g id="text_20">
      <!-- 27 -->
      <g style="fill: #262626" transform="translate(376.594401 204.227083) scale(0.07 -0.07)">
       <use xlink:href="#DejaVuSerif-32"/>
       <use xlink:href="#DejaVuSerif-37" x="63.623047"/>
      </g>
     </g>
    </g>
    <g id="text_21">
     <!-- Inflow angle $\gamma$ [deg] -->
     <g style="fill: #262626" transform="translate(178.216046 214.242864) scale(0.06 -0.06)">
      <defs>
       <path id="DejaVuSerif-49" d="M 1581 331 
L 2175 331 
L 2175 0 
L 353 0 
L 353 331 
L 947 331 
L 947 4331 
L 353 4331 
L 353 4666 
L 2175 4666 
L 2175 4331 
L 1581 4331 
L 1581 331 
z
" transform="scale(0.015625)"/>
       <path id="DejaVuSerif-6e" d="M 263 0 
L 263 331 
L 781 331 
L 781 2988 
L 231 2988 
L 231 3322 
L 1356 3322 
L 1356 2731 
Q 1516 3069 1770 3241 
Q 2025 3413 2363 3413 
Q 2913 3413 3172 3097 
Q 3431 2781 3431 2113 
L 3431 331 
L 3944 331 
L 3944 0 
L 2356 0 
L 2356 331 
L 2853 331 
L 2853 1931 
Q 2853 2541 2703 2767 
Q 2553 2994 2175 2994 
Q 1775 2994 1565 2701 
Q 1356 2409 1356 1850 
L 1356 331 
L 1856 331 
L 1856 0 
L 263 0 
z
" transform="scale(0.015625)"/>
       <path id="DejaVuSerif-66" d="M 2753 4078 
L 2450 4078 
Q 2447 4313 2317 4434 
Q 2188 4556 1941 4556 
Q 1619 4556 1487 4379 
Q 1356 4203 1356 3750 
L 1356 3322 
L 2284 3322 
L 2284 2988 
L 1356 2988 
L 1356 331 
L 2094 331 
L 2094 0 
L 231 0 
L 231 331 
L 781 331 
L 781 2988 
L 231 2988 
L 231 3322 
L 781 3322 
L 781 3738 
Q 781 4294 1070 4578 
Q 1359 4863 1919 4863 
Q 2128 4863 2337 4825 
Q 2547 4788 2753 4709 
L 2753 4078 
z
" transform="scale(0.015625)"/>
       <path id="DejaVuSerif-6c" d="M 1313 331 
L 1856 331 
L 1856 0 
L 184 0 
L 184 331 
L 738 331 
L 738 4531 
L 184 4531 
L 184 4863 
L 1313 4863 
L 1313 331 
z
" transform="scale(0.015625)"/>
       <path id="DejaVuSerif-6f" d="M 1925 219 
Q 2388 219 2623 584 
Q 2859 950 2859 1663 
Q 2859 2375 2623 2739 
Q 2388 3103 1925 3103 
Q 1463 3103 1227 2739 
Q 991 2375 991 1663 
Q 991 950 1228 584 
Q 1466 219 1925 219 
z
M 1925 -91 
Q 1200 -91 759 389 
Q 319 869 319 1663 
Q 319 2456 758 2934 
Q 1197 3413 1925 3413 
Q 2653 3413 3092 2934 
Q 3531 2456 3531 1663 
Q 3531 869 3092 389 
Q 2653 -91 1925 -91 
z
" transform="scale(0.015625)"/>
       <path id="DejaVuSerif-77" d="M 3072 3322 
L 3922 728 
L 4672 2988 
L 4191 2988 
L 4191 3322 
L 5394 3322 
L 5394 2988 
L 5025 2988 
L 4038 0 
L 3559 0 
L 2741 2484 
L 1919 0 
L 1459 0 
L 475 2988 
L 103 2988 
L 103 3322 
L 1606 3322 
L 1606 2988 
L 1069 2988 
L 1813 728 
L 2669 3322 
L 3072 3322 
z
" transform="scale(0.015625)"/>
       <path id="DejaVuSerif-20" transform="scale(0.015625)"/>
       <path id="DejaVuSerif-61" d="M 2547 1044 
L 2547 1747 
L 1806 1747 
Q 1378 1747 1168 1562 
Q 959 1378 959 997 
Q 959 650 1171 447 
Q 1384 244 1747 244 
Q 2106 244 2326 466 
Q 2547 688 2547 1044 
z
M 3122 2075 
L 3122 331 
L 3634 331 
L 3634 0 
L 2547 0 
L 2547 359 
Q 2356 128 2106 18 
Q 1856 -91 1522 -91 
Q 969 -91 644 203 
Q 319 497 319 997 
Q 319 1513 691 1797 
Q 1063 2081 1741 2081 
L 2547 2081 
L 2547 2309 
Q 2547 2688 2317 2895 
Q 2088 3103 1672 3103 
Q 1328 3103 1125 2947 
Q 922 2791 872 2484 
L 575 2484 
L 575 3156 
Q 875 3284 1158 3348 
Q 1441 3413 1709 3413 
Q 2400 3413 2761 3070 
Q 3122 2728 3122 2075 
z
" transform="scale(0.015625)"/>
       <path id="DejaVuSerif-67" d="M 3359 2988 
L 3359 72 
Q 3359 -644 2965 -1033 
Q 2572 -1422 1844 -1422 
Q 1516 -1422 1216 -1362 
Q 916 -1303 641 -1184 
L 641 -488 
L 941 -488 
Q 997 -813 1206 -963 
Q 1416 -1113 1806 -1113 
Q 2313 -1113 2548 -827 
Q 2784 -541 2784 72 
L 2784 519 
Q 2616 206 2355 57 
Q 2094 -91 1709 -91 
Q 1097 -91 708 395 
Q 319 881 319 1663 
Q 319 2444 706 2928 
Q 1094 3413 1709 3413 
Q 2094 3413 2355 3264 
Q 2616 3116 2784 2803 
L 2784 3322 
L 3909 3322 
L 3909 2988 
L 3359 2988 
z
M 2784 1825 
Q 2784 2422 2554 2737 
Q 2325 3053 1888 3053 
Q 1444 3053 1217 2703 
Q 991 2353 991 1663 
Q 991 975 1217 622 
Q 1444 269 1888 269 
Q 2325 269 2554 583 
Q 2784 897 2784 1497 
L 2784 1825 
z
" transform="scale(0.015625)"/>
       <path id="DejaVuSerif-65" d="M 3469 1600 
L 991 1600 
L 991 1575 
Q 991 903 1244 561 
Q 1497 219 1991 219 
Q 2369 219 2611 417 
Q 2853 616 2950 1006 
L 3413 1006 
Q 3275 459 2904 184 
Q 2534 -91 1931 -91 
Q 1203 -91 761 389 
Q 319 869 319 1663 
Q 319 2450 753 2931 
Q 1188 3413 1894 3413 
Q 2647 3413 3050 2948 
Q 3453 2484 3469 1600 
z
M 2791 1931 
Q 2772 2513 2545 2808 
Q 2319 3103 1894 3103 
Q 1497 3103 1269 2806 
Q 1041 2509 991 1931 
L 2791 1931 
z
" transform="scale(0.015625)"/>
       <path id="DejaVuSans-Oblique-3b3" d="M 1491 2950 
L 1838 788 
L 3456 3500 
L 4066 3500 
L 1972 0 
L 1713 -1331 
L 1138 -1331 
L 1397 0 
L 988 2613 
Q 925 3006 628 3006 
L 475 3006 
L 569 3500 
L 788 3500 
Q 1403 3500 1491 2950 
z
" transform="scale(0.015625)"/>
       <path id="DejaVuSerif-5b" d="M 550 4863 
L 2003 4863 
L 2003 4531 
L 1147 4531 
L 1147 -513 
L 2003 -513 
L 2003 -844 
L 550 -844 
L 550 4863 
z
" transform="scale(0.015625)"/>
       <path id="DejaVuSerif-64" d="M 3359 331 
L 3909 331 
L 3909 0 
L 2784 0 
L 2784 519 
Q 2616 206 2355 57 
Q 2094 -91 1709 -91 
Q 1097 -91 708 395 
Q 319 881 319 1663 
Q 319 2444 706 2928 
Q 1094 3413 1709 3413 
Q 2094 3413 2355 3264 
Q 2616 3116 2784 2803 
L 2784 4531 
L 2241 4531 
L 2241 4863 
L 3359 4863 
L 3359 331 
z
M 2784 1497 
L 2784 1825 
Q 2784 2422 2554 2737 
Q 2325 3053 1888 3053 
Q 1444 3053 1217 2703 
Q 991 2353 991 1663 
Q 991 975 1217 622 
Q 1444 269 1888 269 
Q 2325 269 2554 583 
Q 2784 897 2784 1497 
z
" transform="scale(0.015625)"/>
       <path id="DejaVuSerif-5d" d="M 1947 4863 
L 1947 -844 
L 494 -844 
L 494 -513 
L 1350 -513 
L 1350 4531 
L 494 4531 
L 494 4863 
L 1947 4863 
z
" transform="scale(0.015625)"/>
      </defs>
      <use xlink:href="#DejaVuSerif-49" transform="translate(0 0.015625)"/>
      <use xlink:href="#DejaVuSerif-6e" transform="translate(39.501953 0.015625)"/>
      <use xlink:href="#DejaVuSerif-66" transform="translate(103.90625 0.015625)"/>
      <use xlink:href="#DejaVuSerif-6c" transform="translate(140.917969 0.015625)"/>
      <use xlink:href="#DejaVuSerif-6f" transform="translate(172.900391 0.015625)"/>
      <use xlink:href="#DejaVuSerif-77" transform="translate(233.105469 0.015625)"/>
      <use xlink:href="#DejaVuSerif-20" transform="translate(318.701172 0.015625)"/>
      <use xlink:href="#DejaVuSerif-61" transform="translate(350.488281 0.015625)"/>
      <use xlink:href="#DejaVuSerif-6e" transform="translate(410.107422 0.015625)"/>
      <use xlink:href="#DejaVuSerif-67" transform="translate(474.511719 0.015625)"/>
      <use xlink:href="#DejaVuSerif-6c" transform="translate(538.525391 0.015625)"/>
      <use xlink:href="#DejaVuSerif-65" transform="translate(570.507812 0.015625)"/>
      <use xlink:href="#DejaVuSerif-20" transform="translate(629.6875 0.015625)"/>
      <use xlink:href="#DejaVuSans-Oblique-3b3" transform="translate(661.474609 0.015625)"/>
      <use xlink:href="#DejaVuSerif-20" transform="translate(720.654297 0.015625)"/>
      <use xlink:href="#DejaVuSerif-5b" transform="translate(752.441406 0.015625)"/>
      <use xlink:href="#DejaVuSerif-64" transform="translate(791.455078 0.015625)"/>
      <use xlink:href="#DejaVuSerif-65" transform="translate(855.46875 0.015625)"/>
      <use xlink:href="#DejaVuSerif-67" transform="translate(914.648438 0.015625)"/>
      <use xlink:href="#DejaVuSerif-5d" transform="translate(978.662109 0.015625)"/>
     </g>
    </g>
   </g>
   <g id="matplotlib.axis_2">
    <g id="ytick_1">
     <g id="line2d_21"/>
     <g id="text_22">
      <!-- 0.10 -->
      <g style="fill: #262626" transform="translate(12.807115 30.882778) scale(0.07 -0.07)">
       <defs>
        <path id="DejaVuSerif-2e" d="M 603 325 
Q 603 500 722 622 
Q 841 744 1019 744 
Q 1191 744 1312 622 
Q 1434 500 1434 325 
Q 1434 153 1312 31 
Q 1191 -91 1019 -91 
Q 841 -91 722 29 
Q 603 150 603 325 
z
" transform="scale(0.015625)"/>
       </defs>
       <use xlink:href="#DejaVuSerif-30"/>
       <use xlink:href="#DejaVuSerif-2e" x="63.623047"/>
       <use xlink:href="#DejaVuSerif-31" x="95.410156"/>
       <use xlink:href="#DejaVuSerif-30" x="159.033203"/>
      </g>
     </g>
    </g>
    <g id="ytick_2">
     <g id="line2d_22"/>
     <g id="text_23">
      <!-- 0.15 -->
      <g style="fill: #262626" transform="translate(12.807115 71.28295) scale(0.07 -0.07)">
       <use xlink:href="#DejaVuSerif-30"/>
       <use xlink:href="#DejaVuSerif-2e" x="63.623047"/>
       <use xlink:href="#DejaVuSerif-31" x="95.410156"/>
       <use xlink:href="#DejaVuSerif-35" x="159.033203"/>
      </g>
     </g>
    </g>
    <g id="ytick_3">
     <g id="line2d_23"/>
     <g id="text_24">
      <!-- 0.20 -->
      <g style="fill: #262626" transform="translate(12.807115 111.683121) scale(0.07 -0.07)">
       <use xlink:href="#DejaVuSerif-30"/>
       <use xlink:href="#DejaVuSerif-2e" x="63.623047"/>
       <use xlink:href="#DejaVuSerif-32" x="95.410156"/>
       <use xlink:href="#DejaVuSerif-30" x="159.033203"/>
      </g>
     </g>
    </g>
    <g id="ytick_4">
     <g id="line2d_24"/>
     <g id="text_25">
      <!-- 0.25 -->
      <g style="fill: #262626" transform="translate(12.807115 152.083293) scale(0.07 -0.07)">
       <use xlink:href="#DejaVuSerif-30"/>
       <use xlink:href="#DejaVuSerif-2e" x="63.623047"/>
       <use xlink:href="#DejaVuSerif-32" x="95.410156"/>
       <use xlink:href="#DejaVuSerif-35" x="159.033203"/>
      </g>
     </g>
    </g>
    <g id="ytick_5">
     <g id="line2d_25"/>
     <g id="text_26">
      <!-- 0.30 -->
      <g style="fill: #262626" transform="translate(12.807115 192.483464) scale(0.07 -0.07)">
       <use xlink:href="#DejaVuSerif-30"/>
       <use xlink:href="#DejaVuSerif-2e" x="63.623047"/>
       <use xlink:href="#DejaVuSerif-33" x="95.410156"/>
       <use xlink:href="#DejaVuSerif-30" x="159.033203"/>
      </g>
     </g>
    </g>
    <g id="text_27">
     <!-- Rudder span [m] -->
     <g style="fill: #262626" transform="translate(7.559302 125.670532) rotate(-90) scale(0.06 -0.06)">
      <defs>
       <path id="DejaVuSerif-52" d="M 3066 2316 
Q 3284 2256 3442 2114 
Q 3600 1972 3725 1716 
L 4403 331 
L 4972 331 
L 4972 0 
L 3872 0 
L 3144 1484 
Q 2934 1916 2759 2042 
Q 2584 2169 2278 2169 
L 1581 2169 
L 1581 331 
L 2241 331 
L 2241 0 
L 353 0 
L 353 331 
L 947 331 
L 947 4331 
L 353 4331 
L 353 4666 
L 2719 4666 
Q 3400 4666 3770 4341 
Q 4141 4016 4141 3419 
Q 4141 2938 3870 2661 
Q 3600 2384 3066 2316 
z
M 1581 2503 
L 2503 2503 
Q 2975 2503 3200 2726 
Q 3425 2950 3425 3419 
Q 3425 3888 3200 4109 
Q 2975 4331 2503 4331 
L 1581 4331 
L 1581 2503 
z
" transform="scale(0.015625)"/>
       <path id="DejaVuSerif-75" d="M 2266 3322 
L 3341 3322 
L 3341 331 
L 3884 331 
L 3884 0 
L 2766 0 
L 2766 588 
Q 2606 256 2353 82 
Q 2100 -91 1766 -91 
Q 1213 -91 952 223 
Q 691 538 691 1209 
L 691 2988 
L 172 2988 
L 172 3322 
L 1269 3322 
L 1269 1388 
Q 1269 781 1417 556 
Q 1566 331 1947 331 
Q 2347 331 2556 625 
Q 2766 919 2766 1478 
L 2766 2988 
L 2266 2988 
L 2266 3322 
z
" transform="scale(0.015625)"/>
       <path id="DejaVuSerif-72" d="M 3059 3328 
L 3059 2497 
L 2728 2497 
Q 2713 2744 2591 2866 
Q 2469 2988 2234 2988 
Q 1809 2988 1582 2694 
Q 1356 2400 1356 1850 
L 1356 331 
L 2022 331 
L 2022 0 
L 263 0 
L 263 331 
L 781 331 
L 781 2994 
L 231 2994 
L 231 3322 
L 1356 3322 
L 1356 2731 
Q 1525 3078 1790 3245 
Q 2056 3413 2438 3413 
Q 2578 3413 2733 3391 
Q 2888 3369 3059 3328 
z
" transform="scale(0.015625)"/>
       <path id="DejaVuSerif-73" d="M 359 184 
L 359 959 
L 691 959 
Q 703 588 923 403 
Q 1144 219 1575 219 
Q 1963 219 2166 364 
Q 2369 509 2369 788 
Q 2369 1006 2220 1140 
Q 2072 1275 1594 1428 
L 1178 1569 
Q 750 1706 558 1912 
Q 366 2119 366 2438 
Q 366 2894 700 3153 
Q 1034 3413 1625 3413 
Q 1888 3413 2178 3344 
Q 2469 3275 2778 3144 
L 2778 2419 
L 2447 2419 
Q 2434 2741 2221 2922 
Q 2009 3103 1644 3103 
Q 1281 3103 1095 2975 
Q 909 2847 909 2591 
Q 909 2381 1050 2254 
Q 1191 2128 1613 1997 
L 2069 1856 
Q 2541 1709 2748 1489 
Q 2956 1269 2956 922 
Q 2956 450 2595 179 
Q 2234 -91 1600 -91 
Q 1278 -91 972 -22 
Q 666 47 359 184 
z
" transform="scale(0.015625)"/>
       <path id="DejaVuSerif-70" d="M 1313 1825 
L 1313 1497 
Q 1313 897 1542 583 
Q 1772 269 2209 269 
Q 2650 269 2876 622 
Q 3103 975 3103 1663 
Q 3103 2353 2876 2703 
Q 2650 3053 2209 3053 
Q 1772 3053 1542 2737 
Q 1313 2422 1313 1825 
z
M 738 2988 
L 184 2988 
L 184 3322 
L 1313 3322 
L 1313 2803 
Q 1481 3116 1742 3264 
Q 2003 3413 2388 3413 
Q 3000 3413 3387 2928 
Q 3775 2444 3775 1663 
Q 3775 881 3387 395 
Q 3000 -91 2388 -91 
Q 2003 -91 1742 57 
Q 1481 206 1313 519 
L 1313 -997 
L 1856 -997 
L 1856 -1331 
L 184 -1331 
L 184 -997 
L 738 -997 
L 738 2988 
z
" transform="scale(0.015625)"/>
       <path id="DejaVuSerif-6d" d="M 3316 2675 
Q 3481 3041 3739 3227 
Q 3997 3413 4341 3413 
Q 4863 3413 5119 3089 
Q 5375 2766 5375 2113 
L 5375 331 
L 5894 331 
L 5894 0 
L 4300 0 
L 4300 331 
L 4800 331 
L 4800 2047 
Q 4800 2556 4650 2772 
Q 4500 2988 4153 2988 
Q 3769 2988 3567 2697 
Q 3366 2406 3366 1850 
L 3366 331 
L 3866 331 
L 3866 0 
L 2291 0 
L 2291 331 
L 2791 331 
L 2791 2069 
Q 2791 2566 2641 2777 
Q 2491 2988 2144 2988 
Q 1759 2988 1557 2697 
Q 1356 2406 1356 1850 
L 1356 331 
L 1856 331 
L 1856 0 
L 263 0 
L 263 331 
L 781 331 
L 781 2994 
L 231 2994 
L 231 3322 
L 1356 3322 
L 1356 2731 
Q 1516 3063 1762 3238 
Q 2009 3413 2322 3413 
Q 2709 3413 2968 3220 
Q 3228 3028 3316 2675 
z
" transform="scale(0.015625)"/>
      </defs>
      <use xlink:href="#DejaVuSerif-52"/>
      <use xlink:href="#DejaVuSerif-75" x="75.292969"/>
      <use xlink:href="#DejaVuSerif-64" x="139.697266"/>
      <use xlink:href="#DejaVuSerif-64" x="203.710938"/>
      <use xlink:href="#DejaVuSerif-65" x="267.724609"/>
      <use xlink:href="#DejaVuSerif-72" x="326.904297"/>
      <use xlink:href="#DejaVuSerif-20" x="374.707031"/>
      <use xlink:href="#DejaVuSerif-73" x="406.494141"/>
      <use xlink:href="#DejaVuSerif-70" x="457.8125"/>
      <use xlink:href="#DejaVuSerif-61" x="521.826172"/>
      <use xlink:href="#DejaVuSerif-6e" x="581.445312"/>
      <use xlink:href="#DejaVuSerif-20" x="645.849609"/>
      <use xlink:href="#DejaVuSerif-5b" x="677.636719"/>
      <use xlink:href="#DejaVuSerif-6d" x="716.650391"/>
      <use xlink:href="#DejaVuSerif-5d" x="811.474609"/>
     </g>
    </g>
   </g>
   <g id="line2d_26">
    <path d="M 227.47152 13.649554 
L 230.845235 15.483606 
L 234.067479 17.23032 
L 236.957922 18.977028 
L 241.214261 20.723746 
L 241.12658 22.470463 
L 250.277091 24.217173 
L 255.177877 25.96388 
L 260.428879 27.710599 
L 265.553587 29.457308 
L 270.493081 31.204026 
L 275.189947 32.950739 
L 279.773314 34.697453 
L 283.794451 36.444159 
L 285.701964 38.190876 
L 287.326953 39.937588 
L 288.722789 41.684306 
L 288.248167 43.431019 
L 287.32513 45.177738 
L 286.369345 46.924446 
L 284.319849 48.671147 
L 281.853411 50.417872 
L 279.410784 52.164586 
L 276.38707 53.911299 
L 273.061476 55.658018 
L 269.777931 57.404725 
L 266.367811 59.151439 
L 262.900124 60.898152 
L 259.491758 62.644865 
L 256.481179 64.391579 
L 253.74621 66.138292 
L 251.137918 67.885005 
L 250.42975 69.631707 
L 250.589095 71.378426 
L 251.002096 73.125145 
L 254.353222 74.871858 
L 258.254195 76.618572 
L 262.283141 78.365285 
L 267.668142 80.111998 
L 272.571286 81.858712 
L 277.157401 83.605425 
L 281.511492 85.352138 
L 285.248559 87.098851 
L 288.520983 88.845565 
L 291.37801 90.592278 
L 293.852768 92.33898 
L 295.983129 94.085705 
L 297.889625 95.832418 
L 299.412983 97.579131 
L 300.745019 99.325845 
L 301.726083 101.072558 
L 302.284884 102.819271 
L 302.818127 104.565996 
L 303.344777 106.31271 
L 303.929064 108.059411 
L 304.914985 109.806136 
L 305.870336 111.552826 
L 306.089255 113.299539 
L 305.72011 115.046264 
L 302.929174 116.792978 
L 298.088811 118.539691 
L 288.641692 120.286404 
L 274.567428 122.033117 
L 255.906985 123.779831 
L 233.483254 125.526556 
L 208.346419 127.273269 
L 180.388247 129.019971 
L 148.909841 130.766696 
L 115.101848 132.513385 
L 83.082423 134.260099 
L 59.594208 136.006824 
L 48.90628 137.753525 
L 47.971506 139.50025 
L 50.608491 141.246964 
L 54.21271 142.993677 
L 57.291521 144.74039 
L 59.22268 146.487104 
L 60.093002 148.233817 
L 60.497195 149.98053 
L 60.921379 151.727255 
L 61.935256 153.473945 
L 63.195368 155.22067 
L 64.38309 156.967395 
L 65.464237 158.714085 
L 66.452911 160.46081 
L 67.379746 162.207523 
L 68.24617 163.954237 
L 68.987893 165.70095 
L 69.473371 167.447663 
L 69.559727 169.194377 
L 69.143608 170.94109 
L 68.178189 172.687815 
L 66.70937 174.434505 
L 64.937228 176.18123 
L 63.256981 177.927955 
L 62.18802 179.674644 
L 62.077735 181.42137 
L 63.008848 183.168083 
L 64.673408 184.914796 
L 66.544231 186.661509 
" clip-path="url(#pcc692b3f10)" style="fill: none; stroke: #008000; stroke-width: 0.4; stroke-linecap: round"/>
   </g>
   <g id="line2d_27">
    <path d="M 204.711101 13.649554 
L 204.711101 186.661509 
" clip-path="url(#pcc692b3f10)" style="fill: none; stroke: #008000; stroke-width: 0.4; stroke-linecap: round"/>
   </g>
   <g id="line2d_28">
    <path d="M 218.049713 13.649554 
L 214.884987 15.483606 
L 211.725393 17.23032 
L 208.62451 18.977028 
L 201.366056 20.723746 
L 192.884537 22.470463 
L 184.544676 24.217173 
L 176.149986 25.96388 
L 167.740374 27.710599 
L 159.484791 29.457308 
L 152.338177 31.204026 
L 147.289461 32.950739 
L 142.403333 34.697453 
L 138.1977 36.444159 
L 136.654741 38.190876 
L 135.443776 39.937588 
L 134.494862 41.684306 
L 135.891023 43.431019 
L 137.858673 45.177738 
L 139.891045 46.924446 
L 143.709766 48.671147 
L 148.225112 50.417872 
L 152.762028 52.164586 
L 160.36332 53.911299 
L 169.217282 55.658018 
L 177.571127 57.404725 
L 188.911613 59.151439 
L 200.741948 60.898152 
L 210.86905 62.644865 
L 220.913939 64.391579 
L 230.141333 66.138292 
L 238.150349 67.885005 
L 249.266164 69.631707 
L 259.946156 71.378426 
L 268.660024 73.125145 
L 276.665372 74.871858 
L 283.844602 76.618572 
L 289.813874 78.365285 
L 293.828923 80.111998 
L 297.674452 81.858712 
L 301.281316 83.605425 
L 304.511311 85.352138 
L 307.836171 87.098851 
L 311.555113 88.845565 
L 315.517838 90.592278 
L 319.651773 92.33898 
L 324.026401 94.085705 
L 328.50102 95.832418 
L 332.928974 97.579131 
L 337.336744 99.325845 
L 341.336466 101.072558 
L 344.683876 102.819271 
L 347.530766 104.565996 
L 348.763915 106.31271 
L 349.527203 108.059411 
L 348.447475 109.806136 
L 346.903134 111.552826 
L 343.987275 113.299539 
L 340.913241 115.046264 
L 337.935972 116.792978 
L 335.545866 118.539691 
L 334.521494 120.286404 
L 334.104271 122.033117 
L 333.814888 123.779831 
L 331.228112 125.526556 
L 324.371852 127.273269 
L 312.06388 129.019971 
L 293.325828 130.766696 
L 267.159158 132.513385 
L 233.457179 134.260099 
L 198.831942 136.006824 
L 165.591941 137.753525 
L 136.187784 139.50025 
L 118.614717 141.246964 
L 110.620561 142.993677 
L 108.6488 144.74039 
L 109.897185 146.487104 
L 113.413542 148.233817 
L 118.946644 149.98053 
L 125.935201 151.727255 
L 133.777382 153.473945 
L 142.017172 155.22067 
L 150.359466 156.967395 
L 158.643681 158.714085 
L 166.962027 160.46081 
L 175.311302 162.207523 
L 183.591638 163.954237 
L 191.691189 165.70095 
L 199.62579 167.447663 
L 207.465266 169.194377 
L 215.38328 170.94109 
L 223.567465 172.687815 
L 232.406951 174.434505 
L 242.85424 176.18123 
L 255.999926 177.927955 
L 272.222734 179.674644 
L 290.96499 181.42137 
L 310.498436 183.168083 
L 327.543453 184.914796 
L 339.361089 186.661509 
" clip-path="url(#pcc692b3f10)" style="fill: none; stroke: #ff0000; stroke-width: 0.4; stroke-linecap: round"/>
   </g>
   <g id="line2d_29">
    <path d="M 232.568986 13.649554 
L 232.568986 186.661509 
" clip-path="url(#pcc692b3f10)" style="fill: none; stroke: #ff0000; stroke-width: 0.4; stroke-linecap: round"/>
   </g>
   <g id="line2d_30">
    <path d="M 356.428674 13.562218 
L 362.392675 15.308935 
L 366.538738 17.055648 
L 369.540586 18.802358 
L 367.605058 20.549069 
L 363.779002 22.295788 
L 360.014893 24.042498 
L 355.986577 25.789215 
L 351.624652 27.535932 
L 347.324087 29.282641 
L 342.966889 31.029349 
L 338.318944 32.776068 
L 333.698155 34.522778 
L 329.134032 36.269495 
L 324.657614 38.016211 
L 320.227246 39.762921 
L 315.851218 41.509639 
L 311.76549 43.256348 
L 307.8016 45.003061 
L 304.06603 46.662439 
L 300.629039 48.321804 
L 297.246393 50.06853 
L 293.894077 51.815243 
L 290.82499 53.561956 
L 288.087452 55.308669 
L 285.380873 57.055383 
L 282.909836 58.802084 
L 280.755627 60.548809 
L 278.638255 62.295523 
L 276.782793 64.042236 
L 275.264121 65.788961 
L 273.787311 67.535663 
L 272.935824 69.282364 
L 272.677054 71.029089 
L 272.458671 72.775802 
L 273.284182 74.522516 
L 274.561159 76.269241 
L 275.706869 78.015942 
L 276.792273 79.762644 
L 277.751011 81.422033 
L 278.315902 83.081411 
L 277.436029 84.828112 
L 276.444995 86.574837 
L 274.342744 88.426354 
L 269.841156 91.116292 
L 266.309043 92.863005 
L 262.209333 94.609719 
L 258.183487 96.356432 
L 253.402339 98.103145 
L 248.792702 99.849859 
L 243.809806 101.596572 
L 238.7452 103.343285 
L 233.851787 105.089993 
L 229.034631 106.836712 
L 224.465287 108.583425 
L 220.254114 110.330138 
L 216.128571 112.076864 
L 212.085526 113.823565 
L 207.913257 115.570278 
L 203.681206 117.229656 
L 199.009117 118.889034 
L 193.448892 120.635753 
L 186.781755 122.382472 
L 179.051188 124.129162 
L 169.599575 125.875881 
L 158.177168 127.6226 
L 144.862053 129.369313 
L 129.877756 131.116021 
L 114.140382 132.86274 
L 98.74288 134.609453 
L 84.537824 136.356166 
L 72.971632 138.10288 
L 64.552081 139.849593 
L 57.632774 141.596318 
L 52.839474 143.34302 
L 49.85903 145.089733 
L 48.347176 146.836458 
L 48.150199 148.583148 
L 48.748417 150.329873 
L 49.891562 151.989251 
L 51.671939 153.648616 
L 54.084967 155.395341 
L 56.744986 157.142055 
L 59.332796 158.888768 
L 61.77518 160.635481 
L 64.299571 162.382195 
L 66.741414 164.128908 
L 68.844481 165.875621 
L 70.689251 167.622346 
L 72.219265 169.369036 
L 73.302831 171.115761 
L 73.794393 172.862486 
L 73.606625 174.609176 
L 72.776799 176.355901 
L 71.534679 178.102614 
L 70.348497 179.849328 
L 69.797444 181.596041 
L 70.313717 183.342754 
L 72.052182 185.089468 
L 74.295572 186.748845 
" clip-path="url(#pcc692b3f10)" style="fill: none; stroke-dasharray: 1.48,0.64; stroke-dashoffset: 0; stroke: #008000; stroke-width: 0.4"/>
   </g>
   <g id="line2d_31">
    <path d="M 208.447846 13.562218 
L 208.447846 186.748845 
" clip-path="url(#pcc692b3f10)" style="fill: none; stroke-dasharray: 1.48,0.64; stroke-dashoffset: 0; stroke: #008000; stroke-width: 0.4"/>
   </g>
   <g id="line2d_32">
    <path d="M 66.097656 13.649554 
L 61.519063 15.483606 
L 58.506097 17.23032 
L 56.524935 18.977028 
L 59.1121 20.723746 
L 62.964267 22.470463 
L 66.756471 24.217173 
L 70.624813 25.96388 
L 74.548752 27.710599 
L 78.419464 29.457308 
L 82.20589 31.204026 
L 85.882398 32.950739 
L 89.516033 34.697453 
L 93.090589 36.444159 
L 96.54955 38.190876 
L 99.970211 39.937588 
L 103.346891 41.684306 
L 106.552463 43.431019 
L 109.700624 45.177738 
L 112.832466 46.924446 
L 116.054852 48.671147 
L 119.300413 50.417872 
L 122.533513 52.164586 
L 126.303683 53.911299 
L 130.348541 55.658018 
L 134.364249 57.404725 
L 139.531129 59.151439 
L 145.372359 60.898152 
L 151.135027 62.644865 
L 159.498183 64.391579 
L 169.119458 66.138292 
L 178.743491 67.885005 
L 200.398235 69.631707 
L 223.55243 71.378426 
L 242.86947 73.125145 
L 261.478498 74.871858 
L 277.485272 76.618572 
L 290.001879 78.365285 
L 297.367478 80.111998 
L 303.73348 81.858712 
L 308.981852 83.605425 
L 312.883713 85.352138 
L 316.580282 87.098851 
L 320.273307 88.845565 
L 323.936769 90.592278 
L 327.629798 92.33898 
L 331.622813 94.085705 
L 335.621458 95.832418 
L 339.548403 97.579131 
L 343.467633 99.325845 
L 347.204302 101.072558 
L 350.666833 102.819271 
L 354.097596 104.565996 
L 357.382495 106.31271 
L 360.542235 108.059411 
L 362.898557 109.806136 
L 364.942166 111.552826 
L 365.660499 113.299539 
L 365.840662 115.046264 
L 364.550222 116.792978 
L 362.428602 118.539691 
L 358.664226 120.286404 
L 354.022693 122.033117 
L 348.731323 123.779831 
L 343.504081 125.526556 
L 338.714489 127.273269 
L 334.306247 129.019971 
L 329.869725 130.766696 
L 324.547328 132.513385 
L 317.439249 134.260099 
L 307.794144 136.006824 
L 294.561693 137.753525 
L 276.512521 139.50025 
L 254.3751 141.246964 
L 231.878597 142.993677 
L 211.097481 144.74039 
L 193.966756 146.487104 
L 181.205987 148.233817 
L 172.666957 149.98053 
L 168.010188 151.727255 
L 166.727696 153.473945 
L 167.784315 155.22067 
L 170.412141 156.967395 
L 174.893422 158.714085 
L 181.006181 160.46081 
L 188.246852 162.207523 
L 196.232131 163.954237 
L 204.601827 165.70095 
L 213.307731 167.447663 
L 222.319153 169.194377 
L 231.255091 170.94109 
L 239.595662 172.687815 
L 247.626638 174.434505 
L 256.401339 176.18123 
L 266.763839 177.927955 
L 279.330603 179.674644 
L 294.254318 181.42137 
L 310.565929 183.168083 
L 325.077861 184.914796 
L 335.591109 186.661509 
" clip-path="url(#pcc692b3f10)" style="fill: none; stroke-dasharray: 1.48,0.64; stroke-dashoffset: 0; stroke: #ff0000; stroke-width: 0.4"/>
   </g>
   <g id="line2d_33">
    <path d="M 226.545352 13.649554 
L 226.545352 186.661509 
" clip-path="url(#pcc692b3f10)" style="fill: none; stroke-dasharray: 1.48,0.64; stroke-dashoffset: 0; stroke: #ff0000; stroke-width: 0.4"/>
   </g>
   <g id="line2d_34">
    <defs>
     <path id="maa32c3d414" d="M 0 0.75 
C 0.198902 0.75 0.389685 0.670975 0.53033 0.53033 
C 0.670975 0.389685 0.75 0.198902 0.75 0 
C 0.75 -0.198902 0.670975 -0.389685 0.53033 -0.53033 
C 0.389685 -0.670975 0.198902 -0.75 0 -0.75 
C -0.198902 -0.75 -0.389685 -0.670975 -0.53033 -0.53033 
C -0.670975 -0.389685 -0.75 -0.198902 -0.75 0 
C -0.75 0.198902 -0.670975 0.389685 -0.53033 0.53033 
C -0.389685 0.670975 -0.198902 0.75 0 0.75 
z
" style="stroke: #ff0000"/>
    </defs>
    <g clip-path="url(#pcc692b3f10)">
     <use xlink:href="#maa32c3d414" x="216.026989" y="122.496531" style="fill: #ff0000; stroke: #ff0000"/>
    </g>
   </g>
   <g id="patch_3">
    <path d="M 31.893052 195.408176 
L 31.893052 4.902887 
" style="fill: none; stroke: #000000; stroke-linejoin: miter; stroke-linecap: square"/>
   </g>
   <g id="patch_4">
    <path d="M 31.893053 195.408177 
L 385.61904 195.408177 
" style="fill: none; stroke: #000000; stroke-linejoin: miter; stroke-linecap: square"/>
   </g>
   <g id="text_28">
    <!--  Propeller -->
    <g style="fill: #262626" transform="translate(216.026989 122.496531) scale(0.1 -0.1)">
     <defs>
      <path id="DejaVuSerif-50" d="M 1581 2375 
L 2406 2375 
Q 2872 2375 3115 2626 
Q 3359 2878 3359 3353 
Q 3359 3831 3115 4081 
Q 2872 4331 2406 4331 
L 1581 4331 
L 1581 2375 
z
M 353 0 
L 353 331 
L 947 331 
L 947 4331 
L 353 4331 
L 353 4666 
L 2559 4666 
Q 3259 4666 3668 4311 
Q 4078 3956 4078 3353 
Q 4078 2753 3668 2397 
Q 3259 2041 2559 2041 
L 1581 2041 
L 1581 331 
L 2303 331 
L 2303 0 
L 353 0 
z
" transform="scale(0.015625)"/>
     </defs>
     <use xlink:href="#DejaVuSerif-20"/>
     <use xlink:href="#DejaVuSerif-50" x="31.787109"/>
     <use xlink:href="#DejaVuSerif-72" x="99.072266"/>
     <use xlink:href="#DejaVuSerif-6f" x="146.875"/>
     <use xlink:href="#DejaVuSerif-70" x="207.080078"/>
     <use xlink:href="#DejaVuSerif-65" x="271.09375"/>
     <use xlink:href="#DejaVuSerif-6c" x="330.273438"/>
     <use xlink:href="#DejaVuSerif-6c" x="362.255859"/>
     <use xlink:href="#DejaVuSerif-65" x="394.238281"/>
     <use xlink:href="#DejaVuSerif-72" x="453.417969"/>
    </g>
   </g>
   <g id="text_29">
    <!-- Rudder root -->
    <g style="fill: #262626" transform="translate(35.430312 10.618045) scale(0.1 -0.1)">
     <defs>
      <path id="DejaVuSerif-74" d="M 691 2988 
L 184 2988 
L 184 3322 
L 691 3322 
L 691 4353 
L 1269 4353 
L 1269 3322 
L 2350 3322 
L 2350 2988 
L 1269 2988 
L 1269 878 
Q 1269 456 1350 337 
Q 1431 219 1650 219 
Q 1875 219 1978 351 
Q 2081 484 2088 781 
L 2522 781 
Q 2497 328 2275 118 
Q 2053 -91 1600 -91 
Q 1103 -91 897 129 
Q 691 350 691 878 
L 691 2988 
z
" transform="scale(0.015625)"/>
     </defs>
     <use xlink:href="#DejaVuSerif-52"/>
     <use xlink:href="#DejaVuSerif-75" x="75.292969"/>
     <use xlink:href="#DejaVuSerif-64" x="139.697266"/>
     <use xlink:href="#DejaVuSerif-64" x="203.710938"/>
     <use xlink:href="#DejaVuSerif-65" x="267.724609"/>
     <use xlink:href="#DejaVuSerif-72" x="326.904297"/>
     <use xlink:href="#DejaVuSerif-20" x="374.707031"/>
     <use xlink:href="#DejaVuSerif-72" x="406.494141"/>
     <use xlink:href="#DejaVuSerif-6f" x="454.296875"/>
     <use xlink:href="#DejaVuSerif-6f" x="514.501953"/>
     <use xlink:href="#DejaVuSerif-74" x="574.707031"/>
    </g>
   </g>
   <g id="text_30">
    <!-- Rudder tip -->
    <g style="fill: #262626" transform="translate(35.430312 189.693018) scale(0.1 -0.1)">
     <defs>
      <path id="DejaVuSerif-69" d="M 622 4353 
Q 622 4497 726 4603 
Q 831 4709 978 4709 
Q 1122 4709 1226 4603 
Q 1331 4497 1331 4353 
Q 1331 4206 1228 4103 
Q 1125 4000 978 4000 
Q 831 4000 726 4103 
Q 622 4206 622 4353 
z
M 1356 331 
L 1900 331 
L 1900 0 
L 231 0 
L 231 331 
L 781 331 
L 781 2988 
L 231 2988 
L 231 3322 
L 1356 3322 
L 1356 331 
z
" transform="scale(0.015625)"/>
     </defs>
     <use xlink:href="#DejaVuSerif-52"/>
     <use xlink:href="#DejaVuSerif-75" x="75.292969"/>
     <use xlink:href="#DejaVuSerif-64" x="139.697266"/>
     <use xlink:href="#DejaVuSerif-64" x="203.710938"/>
     <use xlink:href="#DejaVuSerif-65" x="267.724609"/>
     <use xlink:href="#DejaVuSerif-72" x="326.904297"/>
     <use xlink:href="#DejaVuSerif-20" x="374.707031"/>
     <use xlink:href="#DejaVuSerif-74" x="406.494141"/>
     <use xlink:href="#DejaVuSerif-69" x="446.679688"/>
     <use xlink:href="#DejaVuSerif-70" x="478.662109"/>
    </g>
   </g>
   <g id="legend_1">
    <g id="line2d_35">
     <path d="M 38.193052 84.070844 
L 45.193052 84.070844 
L 52.193052 84.070844 
" style="fill: none; stroke: #008000; stroke-width: 0.4; stroke-linecap: round"/>
    </g>
    <g id="text_31">
     <!-- Drift angle $\beta$=-10 [deg] -->
     <g style="fill: #262626" transform="translate(57.793052 86.520844) scale(0.07 -0.07)">
      <defs>
       <path id="DejaVuSerif-44" d="M 1581 331 
L 2163 331 
Q 3072 331 3558 850 
Q 4044 1369 4044 2338 
Q 4044 3306 3559 3818 
Q 3075 4331 2163 4331 
L 1581 4331 
L 1581 331 
z
M 353 0 
L 353 331 
L 947 331 
L 947 4331 
L 353 4331 
L 353 4666 
L 2209 4666 
Q 3416 4666 4089 4050 
Q 4763 3434 4763 2338 
Q 4763 1238 4088 619 
Q 3413 0 2209 0 
L 353 0 
z
" transform="scale(0.015625)"/>
       <path id="DejaVuSans-Oblique-3b2" d="M 872 216 
L 572 -1331 
L -6 -1331 
L 928 3478 
Q 1206 4903 2538 4903 
Q 3888 4903 3659 3700 
Q 3503 2844 2894 2531 
Q 3713 2250 3553 1416 
Q 3272 -69 1759 -66 
Q 1097 -63 872 216 
z
M 1019 966 
Q 1259 422 1875 425 
Q 2775 425 2966 1406 
Q 3138 2288 1675 2219 
L 1778 2750 
Q 2909 2731 3106 3750 
Q 3241 4438 2509 4434 
Q 1691 4434 1503 3459 
L 1019 966 
z
" transform="scale(0.015625)"/>
       <path id="DejaVuSerif-3d" d="M 678 2894 
L 4684 2894 
L 4684 2394 
L 678 2394 
L 678 2894 
z
M 678 1619 
L 4684 1619 
L 4684 1119 
L 678 1119 
L 678 1619 
z
" transform="scale(0.015625)"/>
       <path id="DejaVuSerif-2d" d="M 281 1959 
L 1881 1959 
L 1881 1472 
L 281 1472 
L 281 1959 
z
" transform="scale(0.015625)"/>
      </defs>
      <use xlink:href="#DejaVuSerif-44" transform="translate(0 0.390625)"/>
      <use xlink:href="#DejaVuSerif-72" transform="translate(80.175781 0.390625)"/>
      <use xlink:href="#DejaVuSerif-69" transform="translate(127.978516 0.390625)"/>
      <use xlink:href="#DejaVuSerif-66" transform="translate(159.960938 0.390625)"/>
      <use xlink:href="#DejaVuSerif-74" transform="translate(196.972656 0.390625)"/>
      <use xlink:href="#DejaVuSerif-20" transform="translate(237.158203 0.390625)"/>
      <use xlink:href="#DejaVuSerif-61" transform="translate(268.945312 0.390625)"/>
      <use xlink:href="#DejaVuSerif-6e" transform="translate(328.564453 0.390625)"/>
      <use xlink:href="#DejaVuSerif-67" transform="translate(392.96875 0.390625)"/>
      <use xlink:href="#DejaVuSerif-6c" transform="translate(456.982422 0.390625)"/>
      <use xlink:href="#DejaVuSerif-65" transform="translate(488.964844 0.390625)"/>
      <use xlink:href="#DejaVuSerif-20" transform="translate(548.144531 0.390625)"/>
      <use xlink:href="#DejaVuSans-Oblique-3b2" transform="translate(579.931641 0.390625)"/>
      <use xlink:href="#DejaVuSerif-3d" transform="translate(643.75 0.390625)"/>
      <use xlink:href="#DejaVuSerif-2d" transform="translate(727.539062 0.390625)"/>
      <use xlink:href="#DejaVuSerif-31" transform="translate(761.328125 0.390625)"/>
      <use xlink:href="#DejaVuSerif-30" transform="translate(824.951172 0.390625)"/>
      <use xlink:href="#DejaVuSerif-20" transform="translate(888.574219 0.390625)"/>
      <use xlink:href="#DejaVuSerif-5b" transform="translate(920.361328 0.390625)"/>
      <use xlink:href="#DejaVuSerif-64" transform="translate(959.375 0.390625)"/>
      <use xlink:href="#DejaVuSerif-65" transform="translate(1023.388672 0.390625)"/>
      <use xlink:href="#DejaVuSerif-67" transform="translate(1082.568359 0.390625)"/>
      <use xlink:href="#DejaVuSerif-5d" transform="translate(1146.582031 0.390625)"/>
     </g>
    </g>
    <g id="line2d_36">
     <path d="M 38.193052 94.570844 
L 45.193052 94.570844 
L 52.193052 94.570844 
" style="fill: none; stroke: #ff0000; stroke-width: 0.4; stroke-linecap: round"/>
    </g>
    <g id="text_32">
     <!-- Drift angle $\beta$=10 [deg] -->
     <g style="fill: #262626" transform="translate(57.793052 97.020844) scale(0.07 -0.07)">
      <use xlink:href="#DejaVuSerif-44" transform="translate(0 0.390625)"/>
      <use xlink:href="#DejaVuSerif-72" transform="translate(80.175781 0.390625)"/>
      <use xlink:href="#DejaVuSerif-69" transform="translate(127.978516 0.390625)"/>
      <use xlink:href="#DejaVuSerif-66" transform="translate(159.960938 0.390625)"/>
      <use xlink:href="#DejaVuSerif-74" transform="translate(196.972656 0.390625)"/>
      <use xlink:href="#DejaVuSerif-20" transform="translate(237.158203 0.390625)"/>
      <use xlink:href="#DejaVuSerif-61" transform="translate(268.945312 0.390625)"/>
      <use xlink:href="#DejaVuSerif-6e" transform="translate(328.564453 0.390625)"/>
      <use xlink:href="#DejaVuSerif-67" transform="translate(392.96875 0.390625)"/>
      <use xlink:href="#DejaVuSerif-6c" transform="translate(456.982422 0.390625)"/>
      <use xlink:href="#DejaVuSerif-65" transform="translate(488.964844 0.390625)"/>
      <use xlink:href="#DejaVuSerif-20" transform="translate(548.144531 0.390625)"/>
      <use xlink:href="#DejaVuSans-Oblique-3b2" transform="translate(579.931641 0.390625)"/>
      <use xlink:href="#DejaVuSerif-3d" transform="translate(643.75 0.390625)"/>
      <use xlink:href="#DejaVuSerif-31" transform="translate(727.539062 0.390625)"/>
      <use xlink:href="#DejaVuSerif-30" transform="translate(791.162109 0.390625)"/>
      <use xlink:href="#DejaVuSerif-20" transform="translate(854.785156 0.390625)"/>
      <use xlink:href="#DejaVuSerif-5b" transform="translate(886.572266 0.390625)"/>
      <use xlink:href="#DejaVuSerif-64" transform="translate(925.585938 0.390625)"/>
      <use xlink:href="#DejaVuSerif-65" transform="translate(989.599609 0.390625)"/>
      <use xlink:href="#DejaVuSerif-67" transform="translate(1048.779297 0.390625)"/>
      <use xlink:href="#DejaVuSerif-5d" transform="translate(1112.792969 0.390625)"/>
     </g>
    </g>
    <g id="line2d_37">
     <path d="M 38.193052 104.99975 
L 45.193052 104.99975 
L 52.193052 104.99975 
" style="fill: none; stroke-dasharray: 1.48,0.64; stroke-dashoffset: 0; stroke: #008000; stroke-width: 0.4"/>
    </g>
    <g id="text_33">
     <!-- Circle $r$=-0.07 [rad/s] -->
     <g style="fill: #262626" transform="translate(57.793052 107.44975) scale(0.07 -0.07)">
      <defs>
       <path id="DejaVuSerif-43" d="M 4513 1234 
Q 4306 581 3820 245 
Q 3334 -91 2591 -91 
Q 2134 -91 1743 65 
Q 1353 222 1050 525 
Q 700 875 529 1320 
Q 359 1766 359 2328 
Q 359 3416 987 4083 
Q 1616 4750 2644 4750 
Q 3025 4750 3456 4650 
Q 3888 4550 4384 4347 
L 4384 3272 
L 4031 3272 
Q 3916 3859 3567 4137 
Q 3219 4416 2591 4416 
Q 1844 4416 1459 3886 
Q 1075 3356 1075 2328 
Q 1075 1303 1459 773 
Q 1844 244 2591 244 
Q 3113 244 3450 492 
Q 3788 741 3938 1234 
L 4513 1234 
z
" transform="scale(0.015625)"/>
       <path id="DejaVuSerif-63" d="M 3291 997 
Q 3169 466 2822 187 
Q 2475 -91 1925 -91 
Q 1200 -91 759 389 
Q 319 869 319 1663 
Q 319 2459 759 2936 
Q 1200 3413 1925 3413 
Q 2241 3413 2553 3339 
Q 2866 3266 3181 3116 
L 3181 2266 
L 2847 2266 
Q 2781 2703 2561 2903 
Q 2341 3103 1931 3103 
Q 1466 3103 1228 2742 
Q 991 2381 991 1663 
Q 991 944 1227 581 
Q 1463 219 1931 219 
Q 2303 219 2525 412 
Q 2747 606 2828 997 
L 3291 997 
z
" transform="scale(0.015625)"/>
       <path id="DejaVuSans-Oblique-72" d="M 2853 2969 
Q 2766 3016 2653 3041 
Q 2541 3066 2413 3066 
Q 1953 3066 1609 2717 
Q 1266 2369 1153 1784 
L 800 0 
L 225 0 
L 909 3500 
L 1484 3500 
L 1375 2956 
Q 1603 3259 1920 3421 
Q 2238 3584 2597 3584 
Q 2691 3584 2781 3573 
Q 2872 3563 2963 3538 
L 2853 2969 
z
" transform="scale(0.015625)"/>
       <path id="DejaVuSerif-2f" d="M 1656 4666 
L 2156 4666 
L 500 -594 
L 0 -594 
L 1656 4666 
z
" transform="scale(0.015625)"/>
      </defs>
      <use xlink:href="#DejaVuSerif-43" transform="translate(0 0.015625)"/>
      <use xlink:href="#DejaVuSerif-69" transform="translate(76.513672 0.015625)"/>
      <use xlink:href="#DejaVuSerif-72" transform="translate(108.496094 0.015625)"/>
      <use xlink:href="#DejaVuSerif-63" transform="translate(156.298828 0.015625)"/>
      <use xlink:href="#DejaVuSerif-6c" transform="translate(212.304688 0.015625)"/>
      <use xlink:href="#DejaVuSerif-65" transform="translate(244.287109 0.015625)"/>
      <use xlink:href="#DejaVuSerif-20" transform="translate(303.466797 0.015625)"/>
      <use xlink:href="#DejaVuSans-Oblique-72" transform="translate(335.253906 0.015625)"/>
      <use xlink:href="#DejaVuSerif-3d" transform="translate(376.367188 0.015625)"/>
      <use xlink:href="#DejaVuSerif-2d" transform="translate(460.15625 0.015625)"/>
      <use xlink:href="#DejaVuSerif-30" transform="translate(493.945312 0.015625)"/>
      <use xlink:href="#DejaVuSerif-2e" transform="translate(557.568359 0.015625)"/>
      <use xlink:href="#DejaVuSerif-30" transform="translate(589.355469 0.015625)"/>
      <use xlink:href="#DejaVuSerif-37" transform="translate(652.978516 0.015625)"/>
      <use xlink:href="#DejaVuSerif-20" transform="translate(716.601562 0.015625)"/>
      <use xlink:href="#DejaVuSerif-5b" transform="translate(748.388672 0.015625)"/>
      <use xlink:href="#DejaVuSerif-72" transform="translate(787.402344 0.015625)"/>
      <use xlink:href="#DejaVuSerif-61" transform="translate(835.205078 0.015625)"/>
      <use xlink:href="#DejaVuSerif-64" transform="translate(894.824219 0.015625)"/>
      <use xlink:href="#DejaVuSerif-2f" transform="translate(958.837891 0.015625)"/>
      <use xlink:href="#DejaVuSerif-73" transform="translate(992.529297 0.015625)"/>
      <use xlink:href="#DejaVuSerif-5d" transform="translate(1043.847656 0.015625)"/>
     </g>
    </g>
    <g id="line2d_38">
     <path d="M 38.193052 115.274438 
L 45.193052 115.274438 
L 52.193052 115.274438 
" style="fill: none; stroke-dasharray: 1.48,0.64; stroke-dashoffset: 0; stroke: #ff0000; stroke-width: 0.4"/>
    </g>
    <g id="text_34">
     <!-- Circle $r$=0.07 [rad/s] -->
     <g style="fill: #262626" transform="translate(57.793052 117.724438) scale(0.07 -0.07)">
      <use xlink:href="#DejaVuSerif-43" transform="translate(0 0.015625)"/>
      <use xlink:href="#DejaVuSerif-69" transform="translate(76.513672 0.015625)"/>
      <use xlink:href="#DejaVuSerif-72" transform="translate(108.496094 0.015625)"/>
      <use xlink:href="#DejaVuSerif-63" transform="translate(156.298828 0.015625)"/>
      <use xlink:href="#DejaVuSerif-6c" transform="translate(212.304688 0.015625)"/>
      <use xlink:href="#DejaVuSerif-65" transform="translate(244.287109 0.015625)"/>
      <use xlink:href="#DejaVuSerif-20" transform="translate(303.466797 0.015625)"/>
      <use xlink:href="#DejaVuSans-Oblique-72" transform="translate(335.253906 0.015625)"/>
      <use xlink:href="#DejaVuSerif-3d" transform="translate(376.367188 0.015625)"/>
      <use xlink:href="#DejaVuSerif-30" transform="translate(460.15625 0.015625)"/>
      <use xlink:href="#DejaVuSerif-2e" transform="translate(523.779297 0.015625)"/>
      <use xlink:href="#DejaVuSerif-30" transform="translate(555.566406 0.015625)"/>
      <use xlink:href="#DejaVuSerif-37" transform="translate(619.189453 0.015625)"/>
      <use xlink:href="#DejaVuSerif-20" transform="translate(682.8125 0.015625)"/>
      <use xlink:href="#DejaVuSerif-5b" transform="translate(714.599609 0.015625)"/>
      <use xlink:href="#DejaVuSerif-72" transform="translate(753.613281 0.015625)"/>
      <use xlink:href="#DejaVuSerif-61" transform="translate(801.416016 0.015625)"/>
      <use xlink:href="#DejaVuSerif-64" transform="translate(861.035156 0.015625)"/>
      <use xlink:href="#DejaVuSerif-2f" transform="translate(925.048828 0.015625)"/>
      <use xlink:href="#DejaVuSerif-73" transform="translate(958.740234 0.015625)"/>
      <use xlink:href="#DejaVuSerif-5d" transform="translate(1010.058594 0.015625)"/>
     </g>
    </g>
   </g>
  </g>
 </g>
 <defs>
  <clipPath id="pcc692b3f10">
   <rect x="31.893052" y="4.902887" width="353.725988" height="190.50529"/>
  </clipPath>
 </defs>
</svg>
