<?xml version="1.0" encoding="utf-8" standalone="no"?>
<!DOCTYPE svg PUBLIC "-//W3C//DTD SVG 1.1//EN"
  "http://www.w3.org/Graphics/SVG/1.1/DTD/svg11.dtd">
<svg xmlns:xlink="http://www.w3.org/1999/xlink" width="194.30964pt" height="109.311552pt" viewBox="0 0 194.30964 109.311552" xmlns="http://www.w3.org/2000/svg" version="1.1">
 <metadata>
  <rdf:RDF xmlns:dc="http://purl.org/dc/elements/1.1/" xmlns:cc="http://creativecommons.org/ns#" xmlns:rdf="http://www.w3.org/1999/02/22-rdf-syntax-ns#">
   <cc:Work>
    <dc:type rdf:resource="http://purl.org/dc/dcmitype/StillImage"/>
    <dc:date>2024-12-09T10:32:21.020746</dc:date>
    <dc:format>image/svg+xml</dc:format>
    <dc:creator>
     <cc:Agent>
      <dc:title>Matplotlib v3.8.2, https://matplotlib.org/</dc:title>
     </cc:Agent>
    </dc:creator>
   </cc:Work>
  </rdf:RDF>
 </metadata>
 <defs>
  <style type="text/css">*{stroke-linejoin: round; stroke-linecap: butt}</style>
 </defs>
 <g id="figure_1">
  <g id="patch_1">
   <path d="M 0 109.311552 
L 194.30964 109.311552 
L 194.30964 0 
L 0 0 
z
" style="fill: #ffffff"/>
  </g>
  <g id="patch_2">
   <path d="M 45.499284 106.311312 
L 148.810356 106.311312 
L 148.810356 3.00024 
L 45.499284 3.00024 
z
" style="fill: #ffffff"/>
  </g>
  <g id="pane3d_1">
   <g id="patch_3">
    <path d="M 144.689409 75.435791 
L 98.550916 55.750323 
L 98.550916 13.104267 
L 146.463867 30.23069 
" style="fill: #f2f2f2; opacity: 0.5; stroke: #f2f2f2; stroke-linejoin: miter"/>
   </g>
  </g>
  <g id="pane3d_2">
   <g id="patch_4">
    <path d="M 52.412422 75.435791 
L 98.550916 55.750323 
L 98.550916 13.104267 
L 50.637964 30.23069 
" style="fill: #e6e6e6; opacity: 0.5; stroke: #e6e6e6; stroke-linejoin: miter"/>
   </g>
  </g>
  <g id="pane3d_3">
   <g id="patch_5">
    <path d="M 98.550916 98.307962 
L 144.689409 75.435791 
L 98.550916 55.750323 
L 52.412422 75.435791 
" style="fill: #ececec; opacity: 0.5; stroke: #ececec; stroke-linejoin: miter"/>
   </g>
  </g>
  <g id="grid3d_1">
   <g id="Line3DCollection_1">
    <path d="M 101.708386 96.742714 
L 55.553394 74.095663 
L 53.907879 29.061863 
" style="fill: none; stroke: #b0b0b0; stroke-width: 0.1"/>
    <path d="M 122.517466 86.427058 
L 76.314208 65.237846 
L 75.491004 21.347003 
" style="fill: none; stroke: #b0b0b0; stroke-width: 0.1"/>
    <path d="M 141.960171 76.788753 
L 95.807204 56.920956 
L 95.708844 14.120162 
" style="fill: none; stroke: #b0b0b0; stroke-width: 0.1"/>
   </g>
  </g>
  <g id="grid3d_2">
   <g id="Line3DCollection_2">
    <path d="M 139.10546 27.600437 
L 137.619553 72.419364 
L 91.447333 94.786513 
" style="fill: none; stroke: #b0b0b0; stroke-width: 0.1"/>
    <path d="M 126.018699 22.922591 
L 125.031622 67.048592 
L 78.829664 88.531574 
" style="fill: none; stroke: #b0b0b0; stroke-width: 0.1"/>
    <path d="M 113.443317 18.427537 
L 112.918234 61.880289 
L 66.724171 82.530535 
" style="fill: none; stroke: #b0b0b0; stroke-width: 0.1"/>
    <path d="M 101.349914 14.104765 
L 101.253052 56.903218 
L 55.10029 76.768244 
" style="fill: none; stroke: #b0b0b0; stroke-width: 0.1"/>
   </g>
  </g>
  <g id="grid3d_3">
   <g id="Line3DCollection_3">
    <path d="M 51.698391 57.245521 
L 98.550916 38.562351 
L 145.403441 57.245521 
" style="fill: none; stroke: #b0b0b0; stroke-width: 0.1"/>
    <path d="M 50.871308 36.175226 
L 98.550916 18.699266 
L 146.230523 36.175226 
" style="fill: none; stroke: #b0b0b0; stroke-width: 0.1"/>
   </g>
  </g>
  <g id="axis3d_1">
   <g id="line2d_1">
    <path d="M 144.689409 75.435791 
L 98.550916 98.307962 
" style="fill: none; stroke: #000000; stroke-linecap: round"/>
   </g>
   <g id="xtick_1">
    <g id="line2d_2">
     <path d="M 101.30967 96.547074 
L 102.507362 97.13475 
" style="fill: none; stroke: #262626; stroke-width: 0.8; stroke-linecap: round"/>
    </g>
    <g id="text_1">
     <!-- −10 -->
     <g style="fill: #262626" transform="translate(105.046901 117.247392) scale(0.07 -0.07)">
      <defs>
       <path id="DejaVuSerif-2212" d="M 678 2259 
L 4684 2259 
L 4684 1753 
L 678 1753 
L 678 2259 
z
" transform="scale(0.015625)"/>
       <path id="DejaVuSerif-31" d="M 909 0 
L 909 331 
L 1722 331 
L 1722 4213 
L 781 3603 
L 781 4013 
L 1919 4750 
L 2350 4750 
L 2350 331 
L 3163 331 
L 3163 0 
L 909 0 
z
" transform="scale(0.015625)"/>
       <path id="DejaVuSerif-30" d="M 2034 219 
Q 2513 219 2750 744 
Q 2988 1269 2988 2328 
Q 2988 3391 2750 3916 
Q 2513 4441 2034 4441 
Q 1556 4441 1318 3916 
Q 1081 3391 1081 2328 
Q 1081 1269 1318 744 
Q 1556 219 2034 219 
z
M 2034 -91 
Q 1275 -91 848 546 
Q 422 1184 422 2328 
Q 422 3475 848 4112 
Q 1275 4750 2034 4750 
Q 2797 4750 3222 4112 
Q 3647 3475 3647 2328 
Q 3647 1184 3222 546 
Q 2797 -91 2034 -91 
z
" transform="scale(0.015625)"/>
      </defs>
      <use xlink:href="#DejaVuSerif-2212"/>
      <use xlink:href="#DejaVuSerif-31" x="83.789062"/>
      <use xlink:href="#DejaVuSerif-30" x="147.412109"/>
     </g>
    </g>
   </g>
   <g id="xtick_2">
    <g id="line2d_3">
     <path d="M 122.119334 86.244471 
L 123.315219 86.792914 
" style="fill: none; stroke: #262626; stroke-width: 0.8; stroke-linecap: round"/>
    </g>
    <g id="text_2">
     <!-- 0 -->
     <g style="fill: #262626" transform="translate(130.824927 106.324461) scale(0.07 -0.07)">
      <use xlink:href="#DejaVuSerif-30"/>
     </g>
    </g>
   </g>
   <g id="xtick_3">
    <g id="line2d_4">
     <path d="M 141.563407 76.617955 
L 142.755135 77.130966 
" style="fill: none; stroke: #262626; stroke-width: 0.8; stroke-linecap: round"/>
    </g>
    <g id="text_3">
     <!-- 10 -->
     <g style="fill: #262626" transform="translate(147.851374 96.124632) scale(0.07 -0.07)">
      <use xlink:href="#DejaVuSerif-31"/>
      <use xlink:href="#DejaVuSerif-30" x="63.623047"/>
     </g>
    </g>
   </g>
   <g id="text_4">
    <!-- $\beta$ [deg] -->
    <g style="fill: #262626" transform="translate(134.818298 120.057881) scale(0.06 -0.06)">
     <defs>
      <path id="DejaVuSans-Oblique-3b2" d="M 872 216 
L 572 -1331 
L -6 -1331 
L 928 3478 
Q 1206 4903 2538 4903 
Q 3888 4903 3659 3700 
Q 3503 2844 2894 2531 
Q 3713 2250 3553 1416 
Q 3272 -69 1759 -66 
Q 1097 -63 872 216 
z
M 1019 966 
Q 1259 422 1875 425 
Q 2775 425 2966 1406 
Q 3138 2288 1675 2219 
L 1778 2750 
Q 2909 2731 3106 3750 
Q 3241 4438 2509 4434 
Q 1691 4434 1503 3459 
L 1019 966 
z
" transform="scale(0.015625)"/>
      <path id="DejaVuSerif-20" transform="scale(0.015625)"/>
      <path id="DejaVuSerif-5b" d="M 550 4863 
L 2003 4863 
L 2003 4531 
L 1147 4531 
L 1147 -513 
L 2003 -513 
L 2003 -844 
L 550 -844 
L 550 4863 
z
" transform="scale(0.015625)"/>
      <path id="DejaVuSerif-64" d="M 3359 331 
L 3909 331 
L 3909 0 
L 2784 0 
L 2784 519 
Q 2616 206 2355 57 
Q 2094 -91 1709 -91 
Q 1097 -91 708 395 
Q 319 881 319 1663 
Q 319 2444 706 2928 
Q 1094 3413 1709 3413 
Q 2094 3413 2355 3264 
Q 2616 3116 2784 2803 
L 2784 4531 
L 2241 4531 
L 2241 4863 
L 3359 4863 
L 3359 331 
z
M 2784 1497 
L 2784 1825 
Q 2784 2422 2554 2737 
Q 2325 3053 1888 3053 
Q 1444 3053 1217 2703 
Q 991 2353 991 1663 
Q 991 975 1217 622 
Q 1444 269 1888 269 
Q 2325 269 2554 583 
Q 2784 897 2784 1497 
z
" transform="scale(0.015625)"/>
      <path id="DejaVuSerif-65" d="M 3469 1600 
L 991 1600 
L 991 1575 
Q 991 903 1244 561 
Q 1497 219 1991 219 
Q 2369 219 2611 417 
Q 2853 616 2950 1006 
L 3413 1006 
Q 3275 459 2904 184 
Q 2534 -91 1931 -91 
Q 1203 -91 761 389 
Q 319 869 319 1663 
Q 319 2450 753 2931 
Q 1188 3413 1894 3413 
Q 2647 3413 3050 2948 
Q 3453 2484 3469 1600 
z
M 2791 1931 
Q 2772 2513 2545 2808 
Q 2319 3103 1894 3103 
Q 1497 3103 1269 2806 
Q 1041 2509 991 1931 
L 2791 1931 
z
" transform="scale(0.015625)"/>
      <path id="DejaVuSerif-67" d="M 3359 2988 
L 3359 72 
Q 3359 -644 2965 -1033 
Q 2572 -1422 1844 -1422 
Q 1516 -1422 1216 -1362 
Q 916 -1303 641 -1184 
L 641 -488 
L 941 -488 
Q 997 -813 1206 -963 
Q 1416 -1113 1806 -1113 
Q 2313 -1113 2548 -827 
Q 2784 -541 2784 72 
L 2784 519 
Q 2616 206 2355 57 
Q 2094 -91 1709 -91 
Q 1097 -91 708 395 
Q 319 881 319 1663 
Q 319 2444 706 2928 
Q 1094 3413 1709 3413 
Q 2094 3413 2355 3264 
Q 2616 3116 2784 2803 
L 2784 3322 
L 3909 3322 
L 3909 2988 
L 3359 2988 
z
M 2784 1825 
Q 2784 2422 2554 2737 
Q 2325 3053 1888 3053 
Q 1444 3053 1217 2703 
Q 991 2353 991 1663 
Q 991 975 1217 622 
Q 1444 269 1888 269 
Q 2325 269 2554 583 
Q 2784 897 2784 1497 
L 2784 1825 
z
" transform="scale(0.015625)"/>
      <path id="DejaVuSerif-5d" d="M 1947 4863 
L 1947 -844 
L 494 -844 
L 494 -513 
L 1350 -513 
L 1350 4531 
L 494 4531 
L 494 4863 
L 1947 4863 
z
" transform="scale(0.015625)"/>
     </defs>
     <use xlink:href="#DejaVuSans-Oblique-3b2" transform="translate(0 0.390625)"/>
     <use xlink:href="#DejaVuSerif-20" transform="translate(63.818359 0.390625)"/>
     <use xlink:href="#DejaVuSerif-5b" transform="translate(95.605469 0.390625)"/>
     <use xlink:href="#DejaVuSerif-64" transform="translate(134.619141 0.390625)"/>
     <use xlink:href="#DejaVuSerif-65" transform="translate(198.632812 0.390625)"/>
     <use xlink:href="#DejaVuSerif-67" transform="translate(257.8125 0.390625)"/>
     <use xlink:href="#DejaVuSerif-5d" transform="translate(321.826172 0.390625)"/>
    </g>
   </g>
  </g>
  <g id="axis3d_2">
   <g id="line2d_5">
    <path d="M 52.412422 75.435791 
L 98.550916 98.307962 
" style="fill: none; stroke: #000000; stroke-linecap: round"/>
   </g>
   <g id="xtick_4">
    <g id="line2d_6">
     <path d="M 91.846009 94.593383 
L 90.648449 95.173516 
" style="fill: none; stroke: #262626; stroke-width: 0.8; stroke-linecap: round"/>
    </g>
    <g id="text_5">
     <!-- −0.05 -->
     <g style="fill: #262626" transform="translate(70.031561 115.175532) scale(0.07 -0.07)">
      <defs>
       <path id="DejaVuSerif-2e" d="M 603 325 
Q 603 500 722 622 
Q 841 744 1019 744 
Q 1191 744 1312 622 
Q 1434 500 1434 325 
Q 1434 153 1312 31 
Q 1191 -91 1019 -91 
Q 841 -91 722 29 
Q 603 150 603 325 
z
" transform="scale(0.015625)"/>
       <path id="DejaVuSerif-35" d="M 3219 4666 
L 3219 4153 
L 1081 4153 
L 1081 2816 
Q 1244 2928 1461 2984 
Q 1678 3041 1947 3041 
Q 2703 3041 3140 2622 
Q 3578 2203 3578 1478 
Q 3578 738 3136 323 
Q 2694 -91 1894 -91 
Q 1572 -91 1234 -12 
Q 897 66 544 225 
L 544 1131 
L 897 1131 
Q 925 688 1179 453 
Q 1434 219 1894 219 
Q 2388 219 2653 544 
Q 2919 869 2919 1478 
Q 2919 2084 2655 2407 
Q 2391 2731 1894 2731 
Q 1613 2731 1398 2631 
Q 1184 2531 1019 2322 
L 750 2322 
L 750 4666 
L 3219 4666 
z
" transform="scale(0.015625)"/>
      </defs>
      <use xlink:href="#DejaVuSerif-2212"/>
      <use xlink:href="#DejaVuSerif-30" x="83.789062"/>
      <use xlink:href="#DejaVuSerif-2e" x="147.412109"/>
      <use xlink:href="#DejaVuSerif-30" x="179.199219"/>
      <use xlink:href="#DejaVuSerif-35" x="242.822266"/>
     </g>
    </g>
   </g>
   <g id="xtick_5">
    <g id="line2d_7">
     <path d="M 79.227989 88.346361 
L 78.031514 88.902698 
" style="fill: none; stroke: #262626; stroke-width: 0.8; stroke-linecap: round"/>
    </g>
    <g id="text_6">
     <!-- 0.00 -->
     <g style="fill: #262626" transform="translate(60.462433 108.55234) scale(0.07 -0.07)">
      <use xlink:href="#DejaVuSerif-30"/>
      <use xlink:href="#DejaVuSerif-2e" x="63.623047"/>
      <use xlink:href="#DejaVuSerif-30" x="95.410156"/>
      <use xlink:href="#DejaVuSerif-30" x="159.033203"/>
     </g>
    </g>
   </g>
   <g id="xtick_6">
    <g id="line2d_8">
     <path d="M 67.121846 82.352761 
L 65.927354 82.886738 
" style="fill: none; stroke: #262626; stroke-width: 0.8; stroke-linecap: round"/>
    </g>
    <g id="text_7">
     <!-- 0.05 -->
     <g style="fill: #262626" transform="translate(48.47214 102.200245) scale(0.07 -0.07)">
      <use xlink:href="#DejaVuSerif-30"/>
      <use xlink:href="#DejaVuSerif-2e" x="63.623047"/>
      <use xlink:href="#DejaVuSerif-30" x="95.410156"/>
      <use xlink:href="#DejaVuSerif-35" x="159.033203"/>
     </g>
    </g>
   </g>
   <g id="xtick_7">
    <g id="line2d_9">
     <path d="M 55.497051 76.597471 
L 54.305334 77.110409 
" style="fill: none; stroke: #262626; stroke-width: 0.8; stroke-linecap: round"/>
    </g>
    <g id="text_8">
     <!-- 0.10 -->
     <g style="fill: #262626" transform="translate(36.962783 96.102935) scale(0.07 -0.07)">
      <use xlink:href="#DejaVuSerif-30"/>
      <use xlink:href="#DejaVuSerif-2e" x="63.623047"/>
      <use xlink:href="#DejaVuSerif-31" x="95.410156"/>
      <use xlink:href="#DejaVuSerif-30" x="159.033203"/>
     </g>
    </g>
   </g>
   <g id="text_9">
    <!-- $r$ [rad/s] -->
    <g style="fill: #262626" transform="translate(39.213534 120.093506) scale(0.06 -0.06)">
     <defs>
      <path id="DejaVuSans-Oblique-72" d="M 2853 2969 
Q 2766 3016 2653 3041 
Q 2541 3066 2413 3066 
Q 1953 3066 1609 2717 
Q 1266 2369 1153 1784 
L 800 0 
L 225 0 
L 909 3500 
L 1484 3500 
L 1375 2956 
Q 1603 3259 1920 3421 
Q 2238 3584 2597 3584 
Q 2691 3584 2781 3573 
Q 2872 3563 2963 3538 
L 2853 2969 
z
" transform="scale(0.015625)"/>
      <path id="DejaVuSerif-72" d="M 3059 3328 
L 3059 2497 
L 2728 2497 
Q 2713 2744 2591 2866 
Q 2469 2988 2234 2988 
Q 1809 2988 1582 2694 
Q 1356 2400 1356 1850 
L 1356 331 
L 2022 331 
L 2022 0 
L 263 0 
L 263 331 
L 781 331 
L 781 2994 
L 231 2994 
L 231 3322 
L 1356 3322 
L 1356 2731 
Q 1525 3078 1790 3245 
Q 2056 3413 2438 3413 
Q 2578 3413 2733 3391 
Q 2888 3369 3059 3328 
z
" transform="scale(0.015625)"/>
      <path id="DejaVuSerif-61" d="M 2547 1044 
L 2547 1747 
L 1806 1747 
Q 1378 1747 1168 1562 
Q 959 1378 959 997 
Q 959 650 1171 447 
Q 1384 244 1747 244 
Q 2106 244 2326 466 
Q 2547 688 2547 1044 
z
M 3122 2075 
L 3122 331 
L 3634 331 
L 3634 0 
L 2547 0 
L 2547 359 
Q 2356 128 2106 18 
Q 1856 -91 1522 -91 
Q 969 -91 644 203 
Q 319 497 319 997 
Q 319 1513 691 1797 
Q 1063 2081 1741 2081 
L 2547 2081 
L 2547 2309 
Q 2547 2688 2317 2895 
Q 2088 3103 1672 3103 
Q 1328 3103 1125 2947 
Q 922 2791 872 2484 
L 575 2484 
L 575 3156 
Q 875 3284 1158 3348 
Q 1441 3413 1709 3413 
Q 2400 3413 2761 3070 
Q 3122 2728 3122 2075 
z
" transform="scale(0.015625)"/>
      <path id="DejaVuSerif-2f" d="M 1656 4666 
L 2156 4666 
L 500 -594 
L 0 -594 
L 1656 4666 
z
" transform="scale(0.015625)"/>
      <path id="DejaVuSerif-73" d="M 359 184 
L 359 959 
L 691 959 
Q 703 588 923 403 
Q 1144 219 1575 219 
Q 1963 219 2166 364 
Q 2369 509 2369 788 
Q 2369 1006 2220 1140 
Q 2072 1275 1594 1428 
L 1178 1569 
Q 750 1706 558 1912 
Q 366 2119 366 2438 
Q 366 2894 700 3153 
Q 1034 3413 1625 3413 
Q 1888 3413 2178 3344 
Q 2469 3275 2778 3144 
L 2778 2419 
L 2447 2419 
Q 2434 2741 2221 2922 
Q 2009 3103 1644 3103 
Q 1281 3103 1095 2975 
Q 909 2847 909 2591 
Q 909 2381 1050 2254 
Q 1191 2128 1613 1997 
L 2069 1856 
Q 2541 1709 2748 1489 
Q 2956 1269 2956 922 
Q 2956 450 2595 179 
Q 2234 -91 1600 -91 
Q 1278 -91 972 -22 
Q 666 47 359 184 
z
" transform="scale(0.015625)"/>
     </defs>
     <use xlink:href="#DejaVuSans-Oblique-72" transform="translate(0 0.015625)"/>
     <use xlink:href="#DejaVuSerif-20" transform="translate(41.113281 0.015625)"/>
     <use xlink:href="#DejaVuSerif-5b" transform="translate(72.900391 0.015625)"/>
     <use xlink:href="#DejaVuSerif-72" transform="translate(111.914062 0.015625)"/>
     <use xlink:href="#DejaVuSerif-61" transform="translate(159.716797 0.015625)"/>
     <use xlink:href="#DejaVuSerif-64" transform="translate(219.335938 0.015625)"/>
     <use xlink:href="#DejaVuSerif-2f" transform="translate(283.349609 0.015625)"/>
     <use xlink:href="#DejaVuSerif-73" transform="translate(317.041016 0.015625)"/>
     <use xlink:href="#DejaVuSerif-5d" transform="translate(368.359375 0.015625)"/>
    </g>
   </g>
  </g>
  <g id="axis3d_3">
   <g id="line2d_10">
    <path d="M 52.412422 75.435791 
L 50.637964 30.23069 
" style="fill: none; stroke: #000000; stroke-linecap: round"/>
   </g>
   <g id="xtick_8">
    <g id="line2d_11">
     <path d="M 52.101466 57.084788 
L 50.890766 57.567574 
" style="fill: none; stroke: #262626; stroke-width: 0.8; stroke-linecap: round"/>
    </g>
    <g id="text_10">
     <!-- 0 -->
     <g style="fill: #262626" transform="translate(29.444548 62.564427) scale(0.07 -0.07)">
      <use xlink:href="#DejaVuSerif-30"/>
     </g>
    </g>
   </g>
   <g id="xtick_9">
    <g id="line2d_12">
     <path d="M 51.282007 36.024693 
L 50.048384 36.476852 
" style="fill: none; stroke: #262626; stroke-width: 0.8; stroke-linecap: round"/>
    </g>
    <g id="text_11">
     <!-- 100 -->
     <g style="fill: #262626" transform="translate(23.810181 41.494133) scale(0.07 -0.07)">
      <use xlink:href="#DejaVuSerif-31"/>
      <use xlink:href="#DejaVuSerif-30" x="63.623047"/>
      <use xlink:href="#DejaVuSerif-30" x="127.246094"/>
     </g>
    </g>
   </g>
   <g id="text_12">
    <!-- $Y_H$ -->
    <g style="fill: #262626" transform="translate(18.327987 54.915305) scale(0.06 -0.06)">
     <defs>
      <path id="DejaVuSans-Oblique-59" d="M 403 4666 
L 1081 4666 
L 1953 2747 
L 3616 4666 
L 4325 4666 
L 2209 2222 
L 1778 0 
L 1147 0 
L 1575 2222 
L 403 4666 
z
" transform="scale(0.015625)"/>
      <path id="DejaVuSans-Oblique-48" d="M 1081 4666 
L 1716 4666 
L 1344 2753 
L 3634 2753 
L 4006 4666 
L 4641 4666 
L 3731 0 
L 3097 0 
L 3531 2222 
L 1241 2222 
L 806 0 
L 172 0 
L 1081 4666 
z
" transform="scale(0.015625)"/>
     </defs>
     <use xlink:href="#DejaVuSans-Oblique-59" transform="translate(0 0.09375)"/>
     <use xlink:href="#DejaVuSans-Oblique-48" transform="translate(61.083984 -16.3125) scale(0.7)"/>
    </g>
   </g>
  </g>
  <g id="axes_1">
   <g id="Path3DCollection_1">
    <defs>
     <path id="C0_0_43812a88cf" d="M 0 1.118034 
C 0.296506 1.118034 0.580908 1.000231 0.790569 0.790569 
C 1.000231 0.580908 1.118034 0.296506 1.118034 -0 
C 1.118034 -0.296506 1.000231 -0.580908 0.790569 -0.790569 
C 0.580908 -1.000231 0.296506 -1.118034 0 -1.118034 
C -0.296506 -1.118034 -0.580908 -1.000231 -0.790569 -0.790569 
C -1.000231 -0.580908 -1.118034 -0.296506 -1.118034 0 
C -1.118034 0.296506 -1.000231 0.580908 -0.790569 0.790569 
C -0.580908 1.000231 -0.296506 1.118034 0 1.118034 
z
"/>
    </defs>
    <g clip-path="url(#p5b80ac786b)">
     <use xlink:href="#C0_0_43812a88cf" x="98.550916" y="17.971048" style="fill-opacity: 0.3; stroke: #000000; stroke-opacity: 0.3"/>
    </g>
    <g clip-path="url(#p5b80ac786b)">
     <use xlink:href="#C0_0_43812a88cf" x="106.800309" y="28.806095" style="fill-opacity: 0.34673; stroke: #000000; stroke-opacity: 0.34673"/>
    </g>
    <g clip-path="url(#p5b80ac786b)">
     <use xlink:href="#C0_0_43812a88cf" x="110.739482" y="32.762316" style="fill-opacity: 0.375595; stroke: #000000; stroke-opacity: 0.375595"/>
    </g>
    <g clip-path="url(#p5b80ac786b)">
     <use xlink:href="#C0_0_43812a88cf" x="116.714935" y="39.106077" style="fill-opacity: 0.41754; stroke: #000000; stroke-opacity: 0.41754"/>
    </g>
    <g clip-path="url(#p5b80ac786b)">
     <use xlink:href="#C0_0_43812a88cf" x="96.946588" y="38.549782" style="fill-opacity: 0.422129; stroke: #000000; stroke-opacity: 0.422129"/>
    </g>
    <g clip-path="url(#p5b80ac786b)">
     <use xlink:href="#C0_0_43812a88cf" x="100.888169" y="42.172571" style="fill-opacity: 0.454015; stroke: #000000; stroke-opacity: 0.454015"/>
    </g>
    <g clip-path="url(#p5b80ac786b)">
     <use xlink:href="#C0_0_43812a88cf" x="122.803892" y="42.84867" style="fill-opacity: 0.474926; stroke: #000000; stroke-opacity: 0.474926"/>
    </g>
    <g clip-path="url(#p5b80ac786b)">
     <use xlink:href="#C0_0_43812a88cf" x="94.864075" y="47.276091" style="fill-opacity: 0.50564; stroke: #000000; stroke-opacity: 0.50564"/>
    </g>
    <g clip-path="url(#p5b80ac786b)">
     <use xlink:href="#C0_0_43812a88cf" x="116.924595" y="48.21569" style="fill-opacity: 0.525488; stroke: #000000; stroke-opacity: 0.525488"/>
    </g>
    <g clip-path="url(#p5b80ac786b)">
     <use xlink:href="#C0_0_43812a88cf" x="110.961763" y="53.234471" style="fill-opacity: 0.57928; stroke: #000000; stroke-opacity: 0.57928"/>
    </g>
    <g clip-path="url(#p5b80ac786b)">
     <use xlink:href="#C0_0_43812a88cf" x="106.937111" y="56.22539" style="fill-opacity: 0.617935; stroke: #000000; stroke-opacity: 0.617935"/>
    </g>
    <g clip-path="url(#p5b80ac786b)">
     <use xlink:href="#C0_0_43812a88cf" x="104.9081" y="57.688217" style="fill-opacity: 0.637688; stroke: #000000; stroke-opacity: 0.637688"/>
    </g>
    <g clip-path="url(#p5b80ac786b)">
     <use xlink:href="#C0_0_43812a88cf" x="113.127226" y="60.509269" style="fill-opacity: 0.677254; stroke: #000000; stroke-opacity: 0.677254"/>
    </g>
    <g clip-path="url(#p5b80ac786b)">
     <use xlink:href="#C0_0_43812a88cf" x="100.815365" y="60.598316" style="fill-opacity: 0.677774; stroke: #000000; stroke-opacity: 0.677774"/>
    </g>
    <g clip-path="url(#p5b80ac786b)">
     <use xlink:href="#C0_0_43812a88cf" x="86.40808" y="62.755328" style="fill-opacity: 0.694964; stroke: #000000; stroke-opacity: 0.694964"/>
    </g>
    <g clip-path="url(#p5b80ac786b)">
     <use xlink:href="#C0_0_43812a88cf" x="98.751292" y="62.091656" style="fill-opacity: 0.697838; stroke: #000000; stroke-opacity: 0.697838"/>
    </g>
    <g clip-path="url(#p5b80ac786b)">
     <use xlink:href="#C0_0_43812a88cf" x="94.587636" y="65.144087" style="fill-opacity: 0.738074; stroke: #000000; stroke-opacity: 0.738074"/>
    </g>
    <g clip-path="url(#p5b80ac786b)">
     <use xlink:href="#C0_0_43812a88cf" x="104.941564" y="66.651271" style="fill-opacity: 0.757485; stroke: #000000; stroke-opacity: 0.757485"/>
    </g>
    <g clip-path="url(#p5b80ac786b)">
     <use xlink:href="#C0_0_43812a88cf" x="88.256642" y="70.317457" style="fill-opacity: 0.796107; stroke: #000000; stroke-opacity: 0.796107"/>
    </g>
    <g clip-path="url(#p5b80ac786b)">
     <use xlink:href="#C0_0_43812a88cf" x="111.235403" y="71.507677" style="fill-opacity: 0.816825; stroke: #000000; stroke-opacity: 0.816825"/>
    </g>
    <g clip-path="url(#p5b80ac786b)">
     <use xlink:href="#C0_0_43812a88cf" x="98.678306" y="71.353348" style="fill-opacity: 0.818858; stroke: #000000; stroke-opacity: 0.818858"/>
    </g>
    <g clip-path="url(#p5b80ac786b)">
     <use xlink:href="#C0_0_43812a88cf" x="81.829202" y="76.161007" style="fill-opacity: 0.851524; stroke: #000000; stroke-opacity: 0.851524"/>
    </g>
    <g clip-path="url(#p5b80ac786b)">
     <use xlink:href="#C0_0_43812a88cf" x="104.969935" y="77.072984" style="fill-opacity: 0.874437; stroke: #000000; stroke-opacity: 0.874437"/>
    </g>
    <g clip-path="url(#p5b80ac786b)">
     <use xlink:href="#C0_0_43812a88cf" x="109.216956" y="81.155345" style="fill-opacity: 0.910612; stroke: #000000; stroke-opacity: 0.910612"/>
    </g>
    <g clip-path="url(#p5b80ac786b)">
     <use xlink:href="#C0_0_43812a88cf" x="87.997103" y="80.454594" style="fill-opacity: 0.916729; stroke: #000000; stroke-opacity: 0.916729"/>
    </g>
    <g clip-path="url(#p5b80ac786b)">
     <use xlink:href="#C0_0_43812a88cf" x="94.304376" y="87.728647" style="fill-opacity: 0.965155; stroke: #000000; stroke-opacity: 0.965155"/>
    </g>
    <g clip-path="url(#p5b80ac786b)">
     <use xlink:href="#C0_0_43812a88cf" x="98.550916" y="92.272043" style="stroke: #000000"/>
    </g>
   </g>
   <g id="Poly3DCollection_1">
    <path d="M 98.550916 29.74901 
L 100.598724 27.855967 
L 98.550916 26.455357 
L 96.503917 28.339691 
z
" clip-path="url(#p5b80ac786b)" style="fill: #b40426; fill-opacity: 0.75"/>
    <path d="M 96.492971 31.541864 
L 98.550916 29.74901 
L 96.503917 28.339691 
L 94.446632 30.123948 
z
" clip-path="url(#p5b80ac786b)" style="fill: #c32e31; fill-opacity: 0.75"/>
    <path d="M 100.609494 31.166302 
L 102.658089 29.264481 
L 100.598724 27.855967 
L 98.550916 29.74901 
z
" clip-path="url(#p5b80ac786b)" style="fill: #bd1f2d; fill-opacity: 0.75"/>
    <path d="M 94.4243 33.246238 
L 96.492971 31.541864 
L 94.446632 30.123948 
L 92.378491 31.81982 
z
" clip-path="url(#p5b80ac786b)" style="fill: #d0473d; fill-opacity: 0.75"/>
    <path d="M 98.550916 32.96782 
L 100.609494 31.166302 
L 98.550916 29.74901 
L 96.492971 31.541864 
z
" clip-path="url(#p5b80ac786b)" style="fill: #cc403a; fill-opacity: 0.75"/>
    <path d="M 102.67975 32.591634 
L 104.729107 30.680966 
L 102.658089 29.264481 
L 100.609494 31.166302 
z
" clip-path="url(#p5b80ac786b)" style="fill: #c53334; fill-opacity: 0.75"/>
    <path d="M 92.344382 34.874187 
L 94.4243 33.246238 
L 92.378491 31.81982 
L 90.298994 33.439337 
z
" clip-path="url(#p5b80ac786b)" style="fill: #da5a49; fill-opacity: 0.75"/>
    <path d="M 96.481742 34.680767 
L 98.550916 32.96782 
L 96.492971 31.541864 
L 94.4243 33.246238 
z
" clip-path="url(#p5b80ac786b)" style="fill: #d85646; fill-opacity: 0.75"/>
    <path d="M 100.620564 34.401887 
L 102.67975 32.591634 
L 100.609494 31.166302 
L 98.550916 32.96782 
z
" clip-path="url(#p5b80ac786b)" style="fill: #d44e41; fill-opacity: 0.75"/>
    <path d="M 104.761783 34.025074 
L 106.811879 32.105489 
L 104.729107 30.680966 
L 102.67975 32.591634 
z
" clip-path="url(#p5b80ac786b)" style="fill: #cf453c; fill-opacity: 0.75"/>
    <path d="M 90.252773 36.438084 
L 92.344382 34.874187 
L 90.298994 33.439337 
L 88.207719 34.994854 
z
" clip-path="url(#p5b80ac786b)" style="fill: #e36b54; fill-opacity: 0.75"/>
    <path d="M 94.401432 36.317217 
L 96.481742 34.680767 
L 94.4243 33.246238 
L 92.344382 34.874187 
z
" clip-path="url(#p5b80ac786b)" style="fill: #e16751; fill-opacity: 0.75"/>
    <path d="M 98.550916 36.123476 
L 100.620564 34.401887 
L 98.550916 32.96782 
L 96.481742 34.680767 
z
" clip-path="url(#p5b80ac786b)" style="fill: #df634e; fill-opacity: 0.75"/>
    <path d="M 102.702016 35.844132 
L 104.761783 34.025074 
L 102.67975 32.591634 
L 100.620564 34.401887 
z
" clip-path="url(#p5b80ac786b)" style="fill: #dc5d4a; fill-opacity: 0.75"/>
    <path d="M 106.855695 35.466693 
L 108.906504 33.53812 
L 106.811879 32.105489 
L 104.761783 34.025074 
z
" clip-path="url(#p5b80ac786b)" style="fill: #d65244; fill-opacity: 0.75"/>
    <path d="M 88.149111 37.950599 
L 90.252773 36.438084 
L 88.207719 34.994854 
L 86.104327 36.499017 
z
" clip-path="url(#p5b80ac786b)" style="fill: #e9785d; fill-opacity: 0.75"/>
    <path d="M 92.309519 37.889566 
L 94.401432 36.317217 
L 92.344382 34.874187 
L 90.252773 36.438084 
z
" clip-path="url(#p5b80ac786b)" style="fill: #e8765c; fill-opacity: 0.75"/>
    <path d="M 96.470242 37.768498 
L 98.550916 36.123476 
L 96.481742 34.680767 
L 94.401432 36.317217 
z
" clip-path="url(#p5b80ac786b)" style="fill: #e7745b; fill-opacity: 0.75"/>
    <path d="M 100.631922 37.574435 
L 102.702016 35.844132 
L 100.620564 34.401887 
L 98.550916 36.123476 
z
" clip-path="url(#p5b80ac786b)" style="fill: #e46e56; fill-opacity: 0.75"/>
    <path d="M 104.795374 37.294627 
L 106.855695 35.466693 
L 104.761783 34.025074 
L 102.702016 35.844132 
z
" clip-path="url(#p5b80ac786b)" style="fill: #e26952; fill-opacity: 0.75"/>
    <path d="M 108.961588 36.916559 
L 111.013085 34.978927 
L 108.906504 33.53812 
L 106.855695 35.466693 
z
" clip-path="url(#p5b80ac786b)" style="fill: #de614d; fill-opacity: 0.75"/>
    <path d="M 86.033116 39.424666 
L 88.149111 37.950599 
L 86.104327 36.499017 
L 83.988559 37.964738 
z
" clip-path="url(#p5b80ac786b)" style="fill: #ee8468; fill-opacity: 0.75"/>
    <path d="M 90.205619 39.410503 
L 92.309519 37.889566 
L 90.252773 36.438084 
L 88.149111 37.950599 
z
" clip-path="url(#p5b80ac786b)" style="fill: #ee8468; fill-opacity: 0.75"/>
    <path d="M 94.378056 39.349369 
L 96.470242 37.768498 
L 94.401432 36.317217 
L 92.309519 37.889566 
z
" clip-path="url(#p5b80ac786b)" style="fill: #ed8366; fill-opacity: 0.75"/>
    <path d="M 98.550916 39.2281 
L 100.631922 37.574435 
L 98.550916 36.123476 
L 96.470242 37.768498 
z
" clip-path="url(#p5b80ac786b)" style="fill: #ec7f63; fill-opacity: 0.75"/>
    <path d="M 102.724862 39.033715 
L 104.795374 37.294627 
L 102.702016 35.844132 
L 100.631922 37.574435 
z
" clip-path="url(#p5b80ac786b)" style="fill: #ea7b60; fill-opacity: 0.75"/>
    <path d="M 106.900739 38.753442 
L 108.961588 36.916559 
L 106.855695 35.466693 
L 104.795374 37.294627 
z
" clip-path="url(#p5b80ac786b)" style="fill: #e7745b; fill-opacity: 0.75"/>
    <path d="M 111.079564 38.374745 
L 113.131723 36.427982 
L 111.013085 34.978927 
L 108.961588 36.916559 
z
" clip-path="url(#p5b80ac786b)" style="fill: #e36c55; fill-opacity: 0.75"/>
    <path d="M 88.089429 40.892987 
L 90.205619 39.410503 
L 88.149111 37.950599 
L 86.033116 39.424666 
z
" clip-path="url(#p5b80ac786b)" style="fill: #f29072; fill-opacity: 0.75"/>
    <path d="M 83.904597 40.873453 
L 86.033116 39.424666 
L 83.988559 37.964738 
L 81.860248 39.405163 
z
" clip-path="url(#p5b80ac786b)" style="fill: #f29072; fill-opacity: 0.75"/>
    <path d="M 92.27395 40.878802 
L 94.378056 39.349369 
L 92.309519 37.889566 
L 90.205619 39.410503 
z
" clip-path="url(#p5b80ac786b)" style="fill: #f18f71; fill-opacity: 0.75"/>
    <path d="M 96.458488 40.817566 
L 98.550916 39.2281 
L 96.470242 37.768498 
L 94.378056 39.349369 
z
" clip-path="url(#p5b80ac786b)" style="fill: #f18d6f; fill-opacity: 0.75"/>
    <path d="M 100.643553 40.696096 
L 102.724862 39.033715 
L 100.631922 37.574435 
L 98.550916 39.2281 
z
" clip-path="url(#p5b80ac786b)" style="fill: #f08b6e; fill-opacity: 0.75"/>
    <path d="M 104.829839 40.501388 
L 106.900739 38.753442 
L 104.795374 37.294627 
L 102.724862 39.033715 
z
" clip-path="url(#p5b80ac786b)" style="fill: #ee8669; fill-opacity: 0.75"/>
    <path d="M 109.018216 40.220649 
L 111.079564 38.374745 
L 108.961588 36.916559 
L 106.900739 38.753442 
z
" clip-path="url(#p5b80ac786b)" style="fill: #ec8165; fill-opacity: 0.75"/>
    <path d="M 113.209728 39.841323 
L 115.262523 37.885354 
L 113.131723 36.427982 
L 111.079564 38.374745 
z
" clip-path="url(#p5b80ac786b)" style="fill: #e9785d; fill-opacity: 0.75"/>
    <path d="M 90.157597 42.369775 
L 92.27395 40.878802 
L 90.205619 39.410503 
L 88.089429 40.892987 
z
" clip-path="url(#p5b80ac786b)" style="fill: #f49a7b; fill-opacity: 0.75"/>
    <path d="M 85.960734 42.350208 
L 88.089429 40.892987 
L 86.033116 39.424666 
L 83.904597 40.873453 
z
" clip-path="url(#p5b80ac786b)" style="fill: #f49a7b; fill-opacity: 0.75"/>
    <path d="M 81.763453 42.310328 
L 83.904597 40.873453 
L 81.860248 39.405163 
L 79.719315 40.833638 
z
" clip-path="url(#p5b80ac786b)" style="fill: #f49a7b; fill-opacity: 0.75"/>
    <path d="M 94.354207 42.355566 
L 96.458488 40.817566 
L 94.378056 39.349369 
L 92.27395 40.878802 
z
" clip-path="url(#p5b80ac786b)" style="fill: #f49a7b; fill-opacity: 0.75"/>
    <path d="M 98.550916 42.294229 
L 100.643553 40.696096 
L 98.550916 39.2281 
L 96.458488 40.817566 
z
" clip-path="url(#p5b80ac786b)" style="fill: #f4987a; fill-opacity: 0.75"/>
    <path d="M 102.74826 42.172557 
L 104.829839 40.501388 
L 102.724862 39.033715 
L 100.643553 40.696096 
z
" clip-path="url(#p5b80ac786b)" style="fill: #f39577; fill-opacity: 0.75"/>
    <path d="M 106.946958 41.977526 
L 109.018216 40.220649 
L 106.900739 38.753442 
L 104.829839 40.501388 
z
" clip-path="url(#p5b80ac786b)" style="fill: #f29274; fill-opacity: 0.75"/>
    <path d="M 111.147909 41.69632 
L 113.209728 39.841323 
L 111.079564 38.374745 
L 109.018216 40.220649 
z
" clip-path="url(#p5b80ac786b)" style="fill: #f08b6e; fill-opacity: 0.75"/>
    <path d="M 115.352185 41.316363 
L 117.405589 39.351116 
L 115.262523 37.885354 
L 113.209728 39.841323 
z
" clip-path="url(#p5b80ac786b)" style="fill: #ee8468; fill-opacity: 0.75"/>
    <path d="M 92.237726 43.855103 
L 94.354207 42.355566 
L 92.27395 40.878802 
L 90.157597 42.369775 
z
" clip-path="url(#p5b80ac786b)" style="fill: #f6a385; fill-opacity: 0.75"/>
    <path d="M 88.028762 43.835504 
L 90.157597 42.369775 
L 88.089429 40.892987 
L 85.960734 42.350208 
z
" clip-path="url(#p5b80ac786b)" style="fill: #f6a385; fill-opacity: 0.75"/>
    <path d="M 83.819413 43.795557 
L 85.960734 42.350208 
L 83.904597 40.873453 
L 81.763453 42.310328 
z
" clip-path="url(#p5b80ac786b)" style="fill: #f6a385; fill-opacity: 0.75"/>
    <path d="M 96.446494 43.840871 
L 98.550916 42.294229 
L 96.458488 40.817566 
L 94.354207 42.355566 
z
" clip-path="url(#p5b80ac786b)" style="fill: #f6a385; fill-opacity: 0.75"/>
    <path d="M 79.609679 43.748817 
L 81.763453 42.310328 
L 79.719315 40.833638 
L 77.565778 42.263665 
z
" clip-path="url(#p5b80ac786b)" style="fill: #f6a385; fill-opacity: 0.75"/>
    <path d="M 100.655444 43.779431 
L 102.74826 42.172557 
L 100.643553 40.696096 
L 98.550916 42.294229 
z
" clip-path="url(#p5b80ac786b)" style="fill: #f6a283; fill-opacity: 0.75"/>
    <path d="M 104.865139 43.657558 
L 106.946958 41.977526 
L 104.829839 40.501388 
L 102.74826 42.172557 
z
" clip-path="url(#p5b80ac786b)" style="fill: #f5a081; fill-opacity: 0.75"/>
    <path d="M 109.076324 43.462203 
L 111.147909 41.69632 
L 109.018216 40.220649 
L 106.946958 41.977526 
z
" clip-path="url(#p5b80ac786b)" style="fill: #f59c7d; fill-opacity: 0.75"/>
    <path d="M 113.289924 43.18053 
L 115.352185 41.316363 
L 113.209728 39.841323 
L 111.147909 41.69632 
z
" clip-path="url(#p5b80ac786b)" style="fill: #f39778; fill-opacity: 0.75"/>
    <path d="M 117.507042 42.799941 
L 119.561028 40.825341 
L 117.405589 39.351116 
L 115.352185 41.316363 
z
" clip-path="url(#p5b80ac786b)" style="fill: #f18f71; fill-opacity: 0.75"/>
    <path d="M 94.329918 45.349045 
L 96.446494 43.840871 
L 94.354207 42.355566 
L 92.237726 43.855103 
z
" clip-path="url(#p5b80ac786b)" style="fill: #f7ad90; fill-opacity: 0.75"/>
    <path d="M 90.108783 45.329414 
L 92.237726 43.855103 
L 90.157597 42.369775 
L 88.028762 43.835504 
z
" clip-path="url(#p5b80ac786b)" style="fill: #f7ad90; fill-opacity: 0.75"/>
    <path d="M 85.887297 45.2894 
L 88.028762 43.835504 
L 85.960734 42.350208 
L 83.819413 43.795557 
z
" clip-path="url(#p5b80ac786b)" style="fill: #f7ad90; fill-opacity: 0.75"/>
    <path d="M 98.550916 45.334789 
L 100.655444 43.779431 
L 98.550916 42.294229 
L 96.446494 43.840871 
z
" clip-path="url(#p5b80ac786b)" style="fill: #f7ac8e; fill-opacity: 0.75"/>
    <path d="M 81.665434 45.242582 
L 83.819413 43.795557 
L 81.763453 42.310328 
L 79.609679 43.748817 
z
" clip-path="url(#p5b80ac786b)" style="fill: #f7ac8e; fill-opacity: 0.75"/>
    <path d="M 77.443363 45.202563 
L 79.609679 43.748817 
L 77.565778 42.263665 
L 75.399749 43.708864 
z
" clip-path="url(#p5b80ac786b)" style="fill: #f7ac8e; fill-opacity: 0.75"/>
    <path d="M 102.772178 45.273248 
L 104.865139 43.657558 
L 102.74826 42.172557 
L 100.655444 43.779431 
z
" clip-path="url(#p5b80ac786b)" style="fill: #f7ac8e; fill-opacity: 0.75"/>
    <path d="M 106.994296 45.151172 
L 109.076324 43.462203 
L 106.946958 41.977526 
L 104.865139 43.657558 
z
" clip-path="url(#p5b80ac786b)" style="fill: #f7a98b; fill-opacity: 0.75"/>
    <path d="M 111.218042 44.955493 
L 113.289924 43.18053 
L 111.147909 41.69632 
L 109.076324 43.462203 
z
" clip-path="url(#p5b80ac786b)" style="fill: #f7a688; fill-opacity: 0.75"/>
    <path d="M 115.444369 44.673352 
L 117.507042 42.799941 
L 115.352185 41.316363 
L 113.289924 43.18053 
z
" clip-path="url(#p5b80ac786b)" style="fill: #f5a081; fill-opacity: 0.75"/>
    <path d="M 119.674407 44.292131 
L 121.728947 42.308101 
L 119.561028 40.825341 
L 117.507042 42.799941 
z
" clip-path="url(#p5b80ac786b)" style="fill: #f49a7b; fill-opacity: 0.75"/>
    <path d="M 96.434279 46.851677 
L 98.550916 45.334789 
L 96.446494 43.840871 
L 94.329918 45.349045 
z
" clip-path="url(#p5b80ac786b)" style="fill: #f7b599; fill-opacity: 0.75"/>
    <path d="M 92.200903 46.832012 
L 94.329918 45.349045 
L 92.237726 43.855103 
L 90.108783 45.329414 
z
" clip-path="url(#p5b80ac786b)" style="fill: #f7b599; fill-opacity: 0.75"/>
    <path d="M 87.967208 46.791933 
L 90.108783 45.329414 
L 88.028762 43.835504 
L 85.887297 45.2894 
z
" clip-path="url(#p5b80ac786b)" style="fill: #f7b599; fill-opacity: 0.75"/>
    <path d="M 100.667577 46.837397 
L 102.772178 45.273248 
L 100.655444 43.779431 
L 98.550916 45.334789 
z
" clip-path="url(#p5b80ac786b)" style="fill: #f7b599; fill-opacity: 0.75"/>
    <path d="M 83.733148 46.745037 
L 85.887297 45.2894 
L 83.819413 43.795557 
L 81.665434 45.242582 
z
" clip-path="url(#p5b80ac786b)" style="fill: #f7b599; fill-opacity: 0.75"/>
    <path d="M 79.498866 46.704952 
L 81.665434 45.242582 
L 79.609679 43.748817 
L 77.443363 45.202563 
z
" clip-path="url(#p5b80ac786b)" style="fill: #f7b497; fill-opacity: 0.75"/>
    <path d="M 104.901225 46.775754 
L 106.994296 45.151172 
L 104.865139 43.657558 
L 102.772178 45.273248 
z
" clip-path="url(#p5b80ac786b)" style="fill: #f7b497; fill-opacity: 0.75"/>
    <path d="M 75.264697 46.685282 
L 77.443363 45.202563 
L 75.399749 43.708864 
L 73.221441 45.182927 
z
" clip-path="url(#p5b80ac786b)" style="fill: #f7b497; fill-opacity: 0.75"/>
    <path d="M 109.13584 46.653476 
L 111.218042 44.955493 
L 109.076324 43.462203 
L 106.994296 45.151172 
z
" clip-path="url(#p5b80ac786b)" style="fill: #f7b194; fill-opacity: 0.75"/>
    <path d="M 113.372222 46.457472 
L 115.444369 44.673352 
L 113.289924 43.18053 
L 111.218042 44.955493 
z
" clip-path="url(#p5b80ac786b)" style="fill: #f7af91; fill-opacity: 0.75"/>
    <path d="M 117.611352 46.174862 
L 119.674407 44.292131 
L 117.507042 42.799941 
L 115.444369 44.673352 
z
" clip-path="url(#p5b80ac786b)" style="fill: #f7aa8c; fill-opacity: 0.75"/>
    <path d="M 121.854389 45.793007 
L 123.909456 43.799472 
L 121.728947 42.308101 
L 119.674407 44.292131 
z
" clip-path="url(#p5b80ac786b)" style="fill: #f6a385; fill-opacity: 0.75"/>
    <path d="M 98.550916 48.363074 
L 100.667577 46.837397 
L 98.550916 45.334789 
L 96.434279 46.851677 
z
" clip-path="url(#p5b80ac786b)" style="fill: #f6bea4; fill-opacity: 0.75"/>
    <path d="M 94.305226 48.343376 
L 96.434279 46.851677 
L 94.329918 45.349045 
L 92.200903 46.832012 
z
" clip-path="url(#p5b80ac786b)" style="fill: #f6bea4; fill-opacity: 0.75"/>
    <path d="M 90.059253 48.30323 
L 92.200903 46.832012 
L 90.108783 45.329414 
L 87.967208 46.791933 
z
" clip-path="url(#p5b80ac786b)" style="fill: #f6bda2; fill-opacity: 0.75"/>
    <path d="M 102.796586 48.34877 
L 104.901225 46.775754 
L 102.772178 45.273248 
L 100.667577 46.837397 
z
" clip-path="url(#p5b80ac786b)" style="fill: #f6bda2; fill-opacity: 0.75"/>
    <path d="M 85.812925 48.256257 
L 87.967208 46.791933 
L 85.887297 45.2894 
L 83.733148 46.745037 
z
" clip-path="url(#p5b80ac786b)" style="fill: #f6bda2; fill-opacity: 0.75"/>
    <path d="M 81.56636 48.216105 
L 83.733148 46.745037 
L 81.665434 45.242582 
L 79.498866 46.704952 
z
" clip-path="url(#p5b80ac786b)" style="fill: #f6bda2; fill-opacity: 0.75"/>
    <path d="M 107.042692 48.287025 
L 109.13584 46.653476 
L 106.994296 45.151172 
L 104.901225 46.775754 
z
" clip-path="url(#p5b80ac786b)" style="fill: #f7bca1; fill-opacity: 0.75"/>
    <path d="M 77.319874 48.196403 
L 79.498866 46.704952 
L 77.443363 45.202563 
L 75.264697 46.685282 
z
" clip-path="url(#p5b80ac786b)" style="fill: #f7bca1; fill-opacity: 0.75"/>
    <path d="M 73.073969 48.21071 
L 75.264697 46.685282 
L 73.221441 45.182927 
L 71.031165 46.699566 
z
" clip-path="url(#p5b80ac786b)" style="fill: #f7bca1; fill-opacity: 0.75"/>
    <path d="M 111.289878 48.164544 
L 113.372222 46.457472 
L 111.218042 44.955493 
L 109.13584 46.653476 
z
" clip-path="url(#p5b80ac786b)" style="fill: #f7ba9f; fill-opacity: 0.75"/>
    <path d="M 115.538972 47.968214 
L 117.611352 46.174862 
L 115.444369 44.673352 
L 113.372222 46.457472 
z
" clip-path="url(#p5b80ac786b)" style="fill: #f7b79b; fill-opacity: 0.75"/>
    <path d="M 119.790983 47.685136 
L 121.854389 45.793007 
L 119.674407 44.292131 
L 117.611352 46.174862 
z
" clip-path="url(#p5b80ac786b)" style="fill: #f7b396; fill-opacity: 0.75"/>
    <path d="M 124.047099 47.302646 
L 126.102663 45.299528 
L 123.909456 43.799472 
L 121.854389 45.793007 
z
" clip-path="url(#p5b80ac786b)" style="fill: #f7ad90; fill-opacity: 0.75"/>
    <path d="M 100.679935 49.883312 
L 102.796586 48.34877 
L 100.667577 46.837397 
L 98.550916 48.363074 
z
" clip-path="url(#p5b80ac786b)" style="fill: #f4c5ad; fill-opacity: 0.75"/>
    <path d="M 96.421861 49.863583 
L 98.550916 48.363074 
L 96.434279 46.851677 
L 94.305226 48.343376 
z
" clip-path="url(#p5b80ac786b)" style="fill: #f4c5ad; fill-opacity: 0.75"/>
    <path d="M 92.163538 49.82337 
L 94.305226 48.343376 
L 92.200903 46.832012 
L 90.059253 48.30323 
z
" clip-path="url(#p5b80ac786b)" style="fill: #f4c5ad; fill-opacity: 0.75"/>
    <path d="M 104.93805 49.868985 
L 107.042692 48.287025 
L 104.901225 46.775754 
L 102.796586 48.34877 
z
" clip-path="url(#p5b80ac786b)" style="fill: #f4c5ad; fill-opacity: 0.75"/>
    <path d="M 87.904869 49.776319 
L 90.059253 48.30323 
L 87.967208 46.791933 
L 85.812925 48.256257 
z
" clip-path="url(#p5b80ac786b)" style="fill: #f5c4ac; fill-opacity: 0.75"/>
    <path d="M 70.87157 49.792552 
L 73.073969 48.21071 
L 71.031165 46.699566 
L 68.829337 48.272464 
z
" clip-path="url(#p5b80ac786b)" style="fill: #f5c4ac; fill-opacity: 0.75"/>
    <path d="M 83.645952 49.7361 
L 85.812925 48.256257 
L 83.733148 46.745037 
L 81.56636 48.216105 
z
" clip-path="url(#p5b80ac786b)" style="fill: #f5c4ac; fill-opacity: 0.75"/>
    <path d="M 109.196689 49.807137 
L 111.289878 48.164544 
L 109.13584 46.653476 
L 107.042692 48.287025 
z
" clip-path="url(#p5b80ac786b)" style="fill: #f5c4ac; fill-opacity: 0.75"/>
    <path d="M 79.387076 49.716366 
L 81.56636 48.216105 
L 79.498866 46.704952 
L 77.319874 48.196403 
z
" clip-path="url(#p5b80ac786b)" style="fill: #f5c4ac; fill-opacity: 0.75"/>
    <path d="M 75.128724 49.730697 
L 77.319874 48.196403 
L 75.264697 46.685282 
L 73.073969 48.21071 
z
" clip-path="url(#p5b80ac786b)" style="fill: #f5c4ac; fill-opacity: 0.75"/>
    <path d="M 113.45652 49.684453 
L 115.538972 47.968214 
L 113.372222 46.457472 
L 111.289878 48.164544 
z
" clip-path="url(#p5b80ac786b)" style="fill: #f5c1a9; fill-opacity: 0.75"/>
    <path d="M 117.718402 49.487799 
L 119.790983 47.685136 
L 117.611352 46.174862 
L 115.538972 47.968214 
z
" clip-path="url(#p5b80ac786b)" style="fill: #f6bfa6; fill-opacity: 0.75"/>
    <path d="M 121.983373 49.20425 
L 124.047099 47.302646 
L 121.854389 45.793007 
L 119.790983 47.685136 
z
" clip-path="url(#p5b80ac786b)" style="fill: #f7ba9f; fill-opacity: 0.75"/>
    <path d="M 126.252649 48.821125 
L 128.30868 46.808346 
L 126.102663 45.299528 
L 124.047099 47.302646 
z
" clip-path="url(#p5b80ac786b)" style="fill: #f7b599; fill-opacity: 0.75"/>
    <path d="M 102.821447 51.412471 
L 104.93805 49.868985 
L 102.796586 48.34877 
L 100.679935 49.883312 
z
" clip-path="url(#p5b80ac786b)" style="fill: #f1ccb8; fill-opacity: 0.75"/>
    <path d="M 98.550916 51.392709 
L 100.679935 49.883312 
L 98.550916 48.363074 
L 96.421861 49.863583 
z
" clip-path="url(#p5b80ac786b)" style="fill: #f1ccb8; fill-opacity: 0.75"/>
    <path d="M 68.657994 51.444426 
L 70.87157 49.792552 
L 68.829337 48.272464 
L 66.616471 49.915214 
z
" clip-path="url(#p5b80ac786b)" style="fill: #f2cbb7; fill-opacity: 0.75"/>
    <path d="M 94.280171 51.35243 
L 96.421861 49.863583 
L 94.305226 48.343376 
L 92.163538 49.82337 
z
" clip-path="url(#p5b80ac786b)" style="fill: #f2cbb7; fill-opacity: 0.75"/>
    <path d="M 107.09208 51.39812 
L 109.196689 49.807137 
L 107.042692 48.287025 
L 104.93805 49.868985 
z
" clip-path="url(#p5b80ac786b)" style="fill: #f2cbb7; fill-opacity: 0.75"/>
    <path d="M 90.00909 51.305301 
L 92.163538 49.82337 
L 90.059253 48.30323 
L 87.904869 49.776319 
z
" clip-path="url(#p5b80ac786b)" style="fill: #f2cbb7; fill-opacity: 0.75"/>
    <path d="M 72.925786 51.321561 
L 75.128724 49.730697 
L 73.073969 48.21071 
L 70.87157 49.792552 
z
" clip-path="url(#p5b80ac786b)" style="fill: #f2cab5; fill-opacity: 0.75"/>
    <path d="M 85.737747 51.265015 
L 87.904869 49.776319 
L 85.812925 48.256257 
L 83.645952 49.7361 
z
" clip-path="url(#p5b80ac786b)" style="fill: #f2cab5; fill-opacity: 0.75"/>
    <path d="M 111.363324 51.33617 
L 113.45652 49.684453 
L 111.289878 48.164544 
L 109.196689 49.807137 
z
" clip-path="url(#p5b80ac786b)" style="fill: #f2cab5; fill-opacity: 0.75"/>
    <path d="M 81.466409 51.245248 
L 83.645952 49.7361 
L 81.56636 48.216105 
L 79.387076 49.716366 
z
" clip-path="url(#p5b80ac786b)" style="fill: #f2cab5; fill-opacity: 0.75"/>
    <path d="M 77.195538 51.259603 
L 79.387076 49.716366 
L 77.319874 48.196403 
L 75.128724 49.730697 
z
" clip-path="url(#p5b80ac786b)" style="fill: #f2cab5; fill-opacity: 0.75"/>
    <path d="M 115.635877 51.213283 
L 117.718402 49.487799 
L 115.538972 47.968214 
L 113.45652 49.684453 
z
" clip-path="url(#p5b80ac786b)" style="fill: #f2c9b4; fill-opacity: 0.75"/>
    <path d="M 119.910624 51.016302 
L 121.983373 49.20425 
L 119.790983 47.685136 
L 117.718402 49.487799 
z
" clip-path="url(#p5b80ac786b)" style="fill: #f4c6af; fill-opacity: 0.75"/>
    <path d="M 124.188634 50.732283 
L 126.252649 48.821125 
L 124.047099 47.302646 
L 121.983373 49.20425 
z
" clip-path="url(#p5b80ac786b)" style="fill: #f5c2aa; fill-opacity: 0.75"/>
    <path d="M 128.471151 50.348521 
L 130.52762 48.326003 
L 128.30868 46.808346 
L 126.252649 48.821125 
z
" clip-path="url(#p5b80ac786b)" style="fill: #f6bda2; fill-opacity: 0.75"/>
    <path d="M 66.433835 53.179803 
L 68.657994 51.444426 
L 66.616471 49.915214 
L 64.393183 51.641266 
z
" clip-path="url(#p5b80ac786b)" style="fill: #edd2c3; fill-opacity: 0.75"/>
    <path d="M 104.975561 52.950629 
L 107.09208 51.39812 
L 104.93805 49.868985 
L 102.821447 51.412471 
z
" clip-path="url(#p5b80ac786b)" style="fill: #edd1c2; fill-opacity: 0.75"/>
    <path d="M 100.692499 52.930834 
L 102.821447 51.412471 
L 100.679935 49.883312 
L 98.550916 51.392709 
z
" clip-path="url(#p5b80ac786b)" style="fill: #edd1c2; fill-opacity: 0.75"/>
    <path d="M 70.71153 52.982637 
L 72.925786 51.321561 
L 70.87157 49.792552 
L 68.657994 51.444426 
z
" clip-path="url(#p5b80ac786b)" style="fill: #edd1c2; fill-opacity: 0.75"/>
    <path d="M 96.40926 52.890488 
L 98.550916 51.392709 
L 96.421861 49.863583 
L 94.280171 51.35243 
z
" clip-path="url(#p5b80ac786b)" style="fill: #edd1c2; fill-opacity: 0.75"/>
    <path d="M 109.258786 52.936254 
L 111.363324 51.33617 
L 109.196689 49.807137 
L 107.09208 51.39812 
z
" clip-path="url(#p5b80ac786b)" style="fill: #edd1c2; fill-opacity: 0.75"/>
    <path d="M 92.125695 52.843281 
L 94.280171 51.35243 
L 92.163538 49.82337 
L 90.00909 51.305301 
z
" clip-path="url(#p5b80ac786b)" style="fill: #eed0c0; fill-opacity: 0.75"/>
    <path d="M 74.992092 52.859568 
L 77.195538 51.259603 
L 75.128724 49.730697 
L 72.925786 51.321561 
z
" clip-path="url(#p5b80ac786b)" style="fill: #eed0c0; fill-opacity: 0.75"/>
    <path d="M 87.841853 52.802929 
L 90.00909 51.305301 
L 87.904869 49.776319 
L 85.737747 51.265015 
z
" clip-path="url(#p5b80ac786b)" style="fill: #eed0c0; fill-opacity: 0.75"/>
    <path d="M 113.542711 52.874202 
L 115.635877 51.213283 
L 113.45652 49.684453 
L 111.363324 51.33617 
z
" clip-path="url(#p5b80ac786b)" style="fill: #eed0c0; fill-opacity: 0.75"/>
    <path d="M 83.557981 52.783129 
L 85.737747 51.265015 
L 83.645952 49.7361 
L 81.466409 51.245248 
z
" clip-path="url(#p5b80ac786b)" style="fill: #efcfbf; fill-opacity: 0.75"/>
    <path d="M 79.274516 52.797507 
L 81.466409 51.245248 
L 79.387076 49.716366 
L 77.195538 51.259603 
z
" clip-path="url(#p5b80ac786b)" style="fill: #efcfbf; fill-opacity: 0.75"/>
    <path d="M 117.828061 52.751111 
L 119.910624 51.016302 
L 117.718402 49.487799 
L 115.635877 51.213283 
z
" clip-path="url(#p5b80ac786b)" style="fill: #efcebd; fill-opacity: 0.75"/>
    <path d="M 122.115752 52.553803 
L 124.188634 50.732283 
L 121.983373 49.20425 
L 119.910624 51.016302 
z
" clip-path="url(#p5b80ac786b)" style="fill: #f1cdba; fill-opacity: 0.75"/>
    <path d="M 126.406879 52.269313 
L 128.471151 50.348521 
L 126.252649 48.821125 
L 124.188634 50.732283 
z
" clip-path="url(#p5b80ac786b)" style="fill: #f2c9b4; fill-opacity: 0.75"/>
    <path d="M 130.70272 51.884914 
L 132.759597 49.852576 
L 130.52762 48.326003 
L 128.471151 50.348521 
z
" clip-path="url(#p5b80ac786b)" style="fill: #f4c5ad; fill-opacity: 0.75"/>
    <path d="M 64.19979 55.011946 
L 66.433835 53.179803 
L 64.393183 51.641266 
L 62.160191 53.463861 
z
" clip-path="url(#p5b80ac786b)" style="fill: #e5d8d1; fill-opacity: 0.75"/>
    <path d="M 68.486529 54.727419 
L 70.71153 52.982637 
L 68.657994 51.444426 
L 66.433835 53.179803 
z
" clip-path="url(#p5b80ac786b)" style="fill: #e7d7ce; fill-opacity: 0.75"/>
    <path d="M 107.142389 54.497865 
L 109.258786 52.936254 
L 107.09208 51.39812 
L 104.975561 52.950629 
z
" clip-path="url(#p5b80ac786b)" style="fill: #e9d5cb; fill-opacity: 0.75"/>
    <path d="M 102.846723 54.478037 
L 104.975561 52.950629 
L 102.821447 51.412471 
L 100.692499 52.930834 
z
" clip-path="url(#p5b80ac786b)" style="fill: #e9d5cb; fill-opacity: 0.75"/>
    <path d="M 72.777187 54.529926 
L 74.992092 52.859568 
L 72.925786 51.321561 
L 70.71153 52.982637 
z
" clip-path="url(#p5b80ac786b)" style="fill: #e9d5cb; fill-opacity: 0.75"/>
    <path d="M 98.550916 54.437625 
L 100.692499 52.930834 
L 98.550916 51.392709 
L 96.40926 52.890488 
z
" clip-path="url(#p5b80ac786b)" style="fill: #e9d5cb; fill-opacity: 0.75"/>
    <path d="M 111.43828 54.483467 
L 113.542711 52.874202 
L 111.363324 51.33617 
L 109.258786 52.936254 
z
" clip-path="url(#p5b80ac786b)" style="fill: #e9d5cb; fill-opacity: 0.75"/>
    <path d="M 94.254793 54.390339 
L 96.40926 52.890488 
L 94.280171 51.35243 
L 92.125695 52.843281 
z
" clip-path="url(#p5b80ac786b)" style="fill: #e9d5cb; fill-opacity: 0.75"/>
    <path d="M 77.070595 54.406654 
L 79.274516 52.797507 
L 77.195538 51.259603 
L 74.992092 52.859568 
z
" clip-path="url(#p5b80ac786b)" style="fill: #ead5c9; fill-opacity: 0.75"/>
    <path d="M 89.95838 54.349921 
L 92.125695 52.843281 
L 90.00909 51.305301 
L 87.841853 52.802929 
z
" clip-path="url(#p5b80ac786b)" style="fill: #ead5c9; fill-opacity: 0.75"/>
    <path d="M 115.734961 54.421311 
L 117.828061 52.751111 
L 115.635877 51.213283 
L 113.542711 52.874202 
z
" clip-path="url(#p5b80ac786b)" style="fill: #ead5c9; fill-opacity: 0.75"/>
    <path d="M 85.661899 54.330088 
L 87.841853 52.802929 
L 85.737747 51.265015 
L 83.557981 52.783129 
z
" clip-path="url(#p5b80ac786b)" style="fill: #ead5c9; fill-opacity: 0.75"/>
    <path d="M 81.365766 54.34449 
L 83.557981 52.783129 
L 81.466409 51.245248 
L 79.274516 52.797507 
z
" clip-path="url(#p5b80ac786b)" style="fill: #ead5c9; fill-opacity: 0.75"/>
    <path d="M 120.033186 54.298016 
L 122.115752 52.553803 
L 119.910624 51.016302 
L 117.828061 52.751111 
z
" clip-path="url(#p5b80ac786b)" style="fill: #ebd3c6; fill-opacity: 0.75"/>
    <path d="M 124.333899 54.100382 
L 126.406879 52.269313 
L 124.188634 50.732283 
L 122.115752 52.553803 
z
" clip-path="url(#p5b80ac786b)" style="fill: #edd2c3; fill-opacity: 0.75"/>
    <path d="M 128.638225 53.81542 
L 130.70272 51.884914 
L 128.471151 50.348521 
L 126.406879 52.269313 
z
" clip-path="url(#p5b80ac786b)" style="fill: #efcfbf; fill-opacity: 0.75"/>
    <path d="M 132.947473 53.430383 
L 135.004726 51.388144 
L 132.759597 49.852576 
L 130.70272 51.884914 
z
" clip-path="url(#p5b80ac786b)" style="fill: #f2cbb7; fill-opacity: 0.75"/>
    <path d="M 61.956654 56.953847 
L 64.19979 55.011946 
L 62.160191 53.463861 
L 59.91831 55.395967 
z
" clip-path="url(#p5b80ac786b)" style="fill: #dbdcde; fill-opacity: 0.75"/>
    <path d="M 66.251458 56.569192 
L 68.486529 54.727419 
L 66.433835 53.179803 
L 64.19979 55.011946 
z
" clip-path="url(#p5b80ac786b)" style="fill: #dedcdb; fill-opacity: 0.75"/>
    <path d="M 70.551373 56.284194 
L 72.777187 54.529926 
L 70.71153 52.982637 
L 68.486529 54.727419 
z
" clip-path="url(#p5b80ac786b)" style="fill: #e1dad6; fill-opacity: 0.75"/>
    <path d="M 109.322043 56.054261 
L 111.43828 54.483467 
L 109.258786 52.936254 
L 107.142389 54.497865 
z
" clip-path="url(#p5b80ac786b)" style="fill: #e2dad5; fill-opacity: 0.75"/>
    <path d="M 105.0137 56.0344 
L 107.142389 54.497865 
L 104.975561 52.950629 
L 102.846723 54.478037 
z
" clip-path="url(#p5b80ac786b)" style="fill: #e2dad5; fill-opacity: 0.75"/>
    <path d="M 74.855071 56.086374 
L 77.070595 54.406654 
L 74.992092 52.859568 
L 72.777187 54.529926 
z
" clip-path="url(#p5b80ac786b)" style="fill: #e2dad5; fill-opacity: 0.75"/>
    <path d="M 100.70525 55.99392 
L 102.846723 54.478037 
L 100.692499 52.930834 
L 98.550916 54.437625 
z
" clip-path="url(#p5b80ac786b)" style="fill: #e2dad5; fill-opacity: 0.75"/>
    <path d="M 113.630677 56.039838 
L 115.734961 54.421311 
L 113.542711 52.874202 
L 111.43828 54.483467 
z
" clip-path="url(#p5b80ac786b)" style="fill: #e3d9d3; fill-opacity: 0.75"/>
    <path d="M 96.396496 55.946557 
L 98.550916 54.437625 
L 96.40926 52.890488 
L 94.254793 54.390339 
z
" clip-path="url(#p5b80ac786b)" style="fill: #e3d9d3; fill-opacity: 0.75"/>
    <path d="M 79.161403 55.962898 
L 81.365766 54.34449 
L 79.274516 52.797507 
L 77.070595 54.406654 
z
" clip-path="url(#p5b80ac786b)" style="fill: #e3d9d3; fill-opacity: 0.75"/>
    <path d="M 92.087437 55.906071 
L 94.254793 54.390339 
L 92.125695 52.843281 
L 89.95838 54.349921 
z
" clip-path="url(#p5b80ac786b)" style="fill: #e3d9d3; fill-opacity: 0.75"/>
    <path d="M 117.94019 55.97758 
L 120.033186 54.298016 
L 117.828061 52.751111 
L 115.734961 54.421311 
z
" clip-path="url(#p5b80ac786b)" style="fill: #e3d9d3; fill-opacity: 0.75"/>
    <path d="M 87.778273 55.886205 
L 89.95838 54.349921 
L 87.841853 52.802929 
L 85.661899 54.330088 
z
" clip-path="url(#p5b80ac786b)" style="fill: #e4d9d2; fill-opacity: 0.75"/>
    <path d="M 83.469398 55.900631 
L 85.661899 54.330088 
L 83.557981 52.783129 
L 81.365766 54.34449 
z
" clip-path="url(#p5b80ac786b)" style="fill: #e4d9d2; fill-opacity: 0.75"/>
    <path d="M 122.251367 55.854081 
L 124.333899 54.100382 
L 122.115752 52.553803 
L 120.033186 54.298016 
z
" clip-path="url(#p5b80ac786b)" style="fill: #e5d8d1; fill-opacity: 0.75"/>
    <path d="M 126.56518 55.656119 
L 128.638225 53.81542 
L 126.406879 52.269313 
L 124.333899 54.100382 
z
" clip-path="url(#p5b80ac786b)" style="fill: #e8d6cc; fill-opacity: 0.75"/>
    <path d="M 130.882787 55.370685 
L 132.947473 53.430383 
L 130.70272 51.884914 
L 128.638225 53.81542 
z
" clip-path="url(#p5b80ac786b)" style="fill: #ead4c8; fill-opacity: 0.75"/>
    <path d="M 135.205525 54.985009 
L 137.263123 52.932787 
L 135.004726 51.388144 
L 132.947473 53.430383 
z
" clip-path="url(#p5b80ac786b)" style="fill: #edd1c2; fill-opacity: 0.75"/>
    <path d="M 59.705319 59.018156 
L 61.956654 56.953847 
L 59.91831 55.395967 
L 57.668452 57.450216 
z
" clip-path="url(#p5b80ac786b)" style="fill: #cfdaea; fill-opacity: 0.75"/>
    <path d="M 64.007092 58.520969 
L 66.251458 56.569192 
L 64.19979 55.011946 
L 61.956654 56.953847 
z
" clip-path="url(#p5b80ac786b)" style="fill: #d5dbe5; fill-opacity: 0.75"/>
    <path d="M 68.315302 58.135679 
L 70.551373 56.284194 
L 68.486529 54.727419 
L 66.251458 56.569192 
z
" clip-path="url(#p5b80ac786b)" style="fill: #d8dce2; fill-opacity: 0.75"/>
    <path d="M 72.628473 57.85021 
L 74.855071 56.086374 
L 72.777187 54.529926 
L 70.551373 56.284194 
z
" clip-path="url(#p5b80ac786b)" style="fill: #dadce0; fill-opacity: 0.75"/>
    <path d="M 111.514639 57.619897 
L 113.630677 56.039838 
L 111.43828 54.483467 
L 109.322043 56.054261 
z
" clip-path="url(#p5b80ac786b)" style="fill: #dcdddd; fill-opacity: 0.75"/>
    <path d="M 107.193542 57.600003 
L 109.322043 56.054261 
L 107.142389 54.497865 
L 105.0137 56.0344 
z
" clip-path="url(#p5b80ac786b)" style="fill: #dcdddd; fill-opacity: 0.75"/>
    <path d="M 76.945292 57.652063 
L 79.161403 55.962898 
L 77.070595 54.406654 
L 74.855071 56.086374 
z
" clip-path="url(#p5b80ac786b)" style="fill: #dcdddd; fill-opacity: 0.75"/>
    <path d="M 102.872376 57.559456 
L 105.0137 56.0344 
L 102.846723 54.478037 
L 100.70525 55.99392 
z
" clip-path="url(#p5b80ac786b)" style="fill: #dcdddd; fill-opacity: 0.75"/>
    <path d="M 115.83609 57.60545 
L 117.94019 55.97758 
L 115.734961 54.421311 
L 113.630677 56.039838 
z
" clip-path="url(#p5b80ac786b)" style="fill: #dcdddd; fill-opacity: 0.75"/>
    <path d="M 98.550916 57.512014 
L 100.70525 55.99392 
L 98.550916 54.437625 
L 96.396496 55.946557 
z
" clip-path="url(#p5b80ac786b)" style="fill: #dddcdc; fill-opacity: 0.75"/>
    <path d="M 81.264625 57.528383 
L 83.469398 55.900631 
L 81.365766 54.34449 
L 79.161403 55.962898 
z
" clip-path="url(#p5b80ac786b)" style="fill: #dddcdc; fill-opacity: 0.75"/>
    <path d="M 94.229137 57.471462 
L 96.396496 55.946557 
L 94.254793 54.390339 
L 92.087437 55.906071 
z
" clip-path="url(#p5b80ac786b)" style="fill: #dddcdc; fill-opacity: 0.75"/>
    <path d="M 120.158513 57.543089 
L 122.251367 55.854081 
L 120.033186 54.298016 
L 117.94019 55.97758 
z
" clip-path="url(#p5b80ac786b)" style="fill: #dddcdc; fill-opacity: 0.75"/>
    <path d="M 89.907214 57.451563 
L 92.087437 55.906071 
L 89.95838 54.349921 
L 87.778273 55.886205 
z
" clip-path="url(#p5b80ac786b)" style="fill: #dddcdc; fill-opacity: 0.75"/>
    <path d="M 85.58552 57.466013 
L 87.778273 55.886205 
L 85.661899 54.330088 
L 83.469398 55.900631 
z
" clip-path="url(#p5b80ac786b)" style="fill: #dddcdc; fill-opacity: 0.75"/>
    <path d="M 124.48272 57.419385 
L 126.56518 55.656119 
L 124.333899 54.100382 
L 122.251367 55.854081 
z
" clip-path="url(#p5b80ac786b)" style="fill: #dfdbd9; fill-opacity: 0.75"/>
    <path d="M 128.809714 57.221096 
L 130.882787 55.370685 
L 128.638225 53.81542 
L 126.56518 55.656119 
z
" clip-path="url(#p5b80ac786b)" style="fill: #e1dad6; fill-opacity: 0.75"/>
    <path d="M 133.140683 56.935189 
L 135.205525 54.985009 
L 132.947473 53.430383 
L 130.882787 55.370685 
z
" clip-path="url(#p5b80ac786b)" style="fill: #e4d9d2; fill-opacity: 0.75"/>
    <path d="M 137.476995 56.548873 
L 139.534906 54.486586 
L 137.263123 52.932787 
L 135.205525 54.985009 
z
" clip-path="url(#p5b80ac786b)" style="fill: #e9d5cb; fill-opacity: 0.75"/>
    <path d="M 61.754301 60.595423 
L 64.007092 58.520969 
L 61.956654 56.953847 
L 59.705319 59.018156 
z
" clip-path="url(#p5b80ac786b)" style="fill: #c9d7f0; fill-opacity: 0.75"/>
    <path d="M 66.06973 60.097416 
L 68.315302 58.135679 
L 66.251458 56.569192 
L 64.007092 58.520969 
z
" clip-path="url(#p5b80ac786b)" style="fill: #cdd9ec; fill-opacity: 0.75"/>
    <path d="M 70.391431 59.71149 
L 72.628473 57.85021 
L 70.551373 56.284194 
L 68.315302 58.135679 
z
" clip-path="url(#p5b80ac786b)" style="fill: #d1dae9; fill-opacity: 0.75"/>
    <path d="M 74.717939 59.42555 
L 76.945292 57.652063 
L 74.855071 56.086374 
L 72.628473 57.85021 
z
" clip-path="url(#p5b80ac786b)" style="fill: #d4dbe6; fill-opacity: 0.75"/>
    <path d="M 113.720292 59.194856 
L 115.83609 57.60545 
L 113.630677 56.039838 
L 111.514639 57.619897 
z
" clip-path="url(#p5b80ac786b)" style="fill: #d5dbe5; fill-opacity: 0.75"/>
    <path d="M 109.386365 59.174929 
L 111.514639 57.619897 
L 109.322043 56.054261 
L 107.193542 57.600003 
z
" clip-path="url(#p5b80ac786b)" style="fill: #d5dbe5; fill-opacity: 0.75"/>
    <path d="M 79.047959 59.227076 
L 81.264625 57.528383 
L 79.161403 55.962898 
L 76.945292 57.652063 
z
" clip-path="url(#p5b80ac786b)" style="fill: #d6dce4; fill-opacity: 0.75"/>
    <path d="M 105.052407 59.134315 
L 107.193542 57.600003 
L 105.0137 56.0344 
L 102.872376 57.559456 
z
" clip-path="url(#p5b80ac786b)" style="fill: #d6dce4; fill-opacity: 0.75"/>
    <path d="M 118.054636 59.180385 
L 120.158513 57.543089 
L 117.94019 55.97758 
L 115.83609 57.60545 
z
" clip-path="url(#p5b80ac786b)" style="fill: #d6dce4; fill-opacity: 0.75"/>
    <path d="M 100.718166 59.086795 
L 102.872376 57.559456 
L 100.70525 55.99392 
L 98.550916 57.512014 
z
" clip-path="url(#p5b80ac786b)" style="fill: #d6dce4; fill-opacity: 0.75"/>
    <path d="M 83.380372 59.10319 
L 85.58552 57.466013 
L 83.469398 55.900631 
L 81.264625 57.528383 
z
" clip-path="url(#p5b80ac786b)" style="fill: #d6dce4; fill-opacity: 0.75"/>
    <path d="M 96.383591 59.046175 
L 98.550916 57.512014 
L 96.396496 55.946557 
L 94.229137 57.471462 
z
" clip-path="url(#p5b80ac786b)" style="fill: #d7dce3; fill-opacity: 0.75"/>
    <path d="M 122.390046 59.117921 
L 124.48272 57.419385 
L 122.251367 55.854081 
L 120.158513 57.543089 
z
" clip-path="url(#p5b80ac786b)" style="fill: #d7dce3; fill-opacity: 0.75"/>
    <path d="M 92.048834 59.026244 
L 94.229137 57.471462 
L 92.087437 55.906071 
L 89.907214 57.451563 
z
" clip-path="url(#p5b80ac786b)" style="fill: #d7dce3; fill-opacity: 0.75"/>
    <path d="M 87.714245 59.040718 
L 89.907214 57.451563 
L 87.778273 55.886205 
L 85.58552 57.466013 
z
" clip-path="url(#p5b80ac786b)" style="fill: #d7dce3; fill-opacity: 0.75"/>
    <path d="M 126.727362 58.994013 
L 128.809714 57.221096 
L 126.56518 55.656119 
L 124.48272 57.419385 
z
" clip-path="url(#p5b80ac786b)" style="fill: #d8dce2; fill-opacity: 0.75"/>
    <path d="M 131.067618 58.795395 
L 133.140683 56.935189 
L 130.882787 55.370685 
L 128.809714 57.221096 
z
" clip-path="url(#p5b80ac786b)" style="fill: #dbdcde; fill-opacity: 0.75"/>
    <path d="M 135.412032 58.509015 
L 137.476995 56.548873 
L 135.205525 54.985009 
L 133.140683 56.935189 
z
" clip-path="url(#p5b80ac786b)" style="fill: #dedcdb; fill-opacity: 0.75"/>
    <path d="M 63.815507 62.182099 
L 66.06973 60.097416 
L 64.007092 58.520969 
L 61.754301 60.595423 
z
" clip-path="url(#p5b80ac786b)" style="fill: #c0d4f5; fill-opacity: 0.75"/>
    <path d="M 68.144678 61.683271 
L 70.391431 59.71149 
L 68.315302 58.135679 
L 66.06973 60.097416 
z
" clip-path="url(#p5b80ac786b)" style="fill: #c6d6f1; fill-opacity: 0.75"/>
    <path d="M 72.479954 61.296709 
L 74.717939 59.42555 
L 72.628473 57.85021 
L 70.391431 59.71149 
z
" clip-path="url(#p5b80ac786b)" style="fill: #cad8ef; fill-opacity: 0.75"/>
    <path d="M 76.819883 61.010297 
L 79.047959 59.227076 
L 76.945292 57.652063 
L 74.717939 59.42555 
z
" clip-path="url(#p5b80ac786b)" style="fill: #ccd9ed; fill-opacity: 0.75"/>
    <path d="M 115.939118 60.779221 
L 118.054636 59.180385 
L 115.83609 57.60545 
L 113.720292 59.194856 
z
" clip-path="url(#p5b80ac786b)" style="fill: #cedaeb; fill-opacity: 0.75"/>
    <path d="M 111.592286 60.759262 
L 113.720292 59.194856 
L 111.514639 57.619897 
L 109.386365 59.174929 
z
" clip-path="url(#p5b80ac786b)" style="fill: #cedaeb; fill-opacity: 0.75"/>
    <path d="M 81.163185 60.811495 
L 83.380372 59.10319 
L 81.264625 57.528383 
L 79.047959 59.227076 
z
" clip-path="url(#p5b80ac786b)" style="fill: #cedaeb; fill-opacity: 0.75"/>
    <path d="M 107.24546 60.718581 
L 109.386365 59.174929 
L 107.193542 57.600003 
L 105.052407 59.134315 
z
" clip-path="url(#p5b80ac786b)" style="fill: #cedaeb; fill-opacity: 0.75"/>
    <path d="M 120.286433 60.764727 
L 122.390046 59.117921 
L 120.158513 57.543089 
L 118.054636 59.180385 
z
" clip-path="url(#p5b80ac786b)" style="fill: #cedaeb; fill-opacity: 0.75"/>
    <path d="M 102.898362 60.670982 
L 105.052407 59.134315 
L 102.872376 57.559456 
L 100.718166 59.086795 
z
" clip-path="url(#p5b80ac786b)" style="fill: #cfdaea; fill-opacity: 0.75"/>
    <path d="M 85.508758 60.687405 
L 87.714245 59.040718 
L 85.58552 57.466013 
L 83.380372 59.10319 
z
" clip-path="url(#p5b80ac786b)" style="fill: #cfdaea; fill-opacity: 0.75"/>
    <path d="M 98.550916 60.630295 
L 100.718166 59.086795 
L 98.550916 57.512014 
L 96.383591 59.046175 
z
" clip-path="url(#p5b80ac786b)" style="fill: #cfdaea; fill-opacity: 0.75"/>
    <path d="M 124.634908 60.70216 
L 126.727362 58.994013 
L 124.48272 57.419385 
L 122.390046 59.117921 
z
" clip-path="url(#p5b80ac786b)" style="fill: #cfdaea; fill-opacity: 0.75"/>
    <path d="M 94.203248 60.610331 
L 96.383591 59.046175 
L 94.229137 57.471462 
L 92.048834 59.026244 
z
" clip-path="url(#p5b80ac786b)" style="fill: #cfdaea; fill-opacity: 0.75"/>
    <path d="M 89.855686 60.624829 
L 92.048834 59.026244 
L 89.907214 57.451563 
L 87.714245 59.040718 
z
" clip-path="url(#p5b80ac786b)" style="fill: #cfdaea; fill-opacity: 0.75"/>
    <path d="M 128.985414 60.578047 
L 131.067618 58.795395 
L 128.809714 57.221096 
L 126.727362 58.994013 
z
" clip-path="url(#p5b80ac786b)" style="fill: #d2dbe8; fill-opacity: 0.75"/>
    <path d="M 133.339013 60.3791 
L 135.412032 58.509015 
L 133.140683 56.935189 
L 131.067618 58.795395 
z
" clip-path="url(#p5b80ac786b)" style="fill: #d4dbe6; fill-opacity: 0.75"/>
    <path d="M 65.889045 63.778268 
L 68.144678 61.683271 
L 66.06973 60.097416 
L 63.815507 62.182099 
z
" clip-path="url(#p5b80ac786b)" style="fill: #b9d0f9; fill-opacity: 0.75"/>
    <path d="M 70.232047 63.27862 
L 72.479954 61.296709 
L 70.391431 59.71149 
L 68.144678 61.683271 
z
" clip-path="url(#p5b80ac786b)" style="fill: #bed2f6; fill-opacity: 0.75"/>
    <path d="M 74.580983 62.89142 
L 76.819883 61.010297 
L 74.717939 59.42555 
L 72.479954 61.296709 
z
" clip-path="url(#p5b80ac786b)" style="fill: #c3d5f4; fill-opacity: 0.75"/>
    <path d="M 78.934416 62.604535 
L 81.163185 60.811495 
L 79.047959 59.227076 
L 76.819883 61.010297 
z
" clip-path="url(#p5b80ac786b)" style="fill: #c5d6f2; fill-opacity: 0.75"/>
    <path d="M 118.171236 62.373079 
L 120.286433 60.764727 
L 118.054636 59.180385 
L 115.939118 60.779221 
z
" clip-path="url(#p5b80ac786b)" style="fill: #c6d6f1; fill-opacity: 0.75"/>
    <path d="M 113.811422 62.353086 
L 115.939118 60.779221 
L 113.720292 59.194856 
L 111.592286 60.759262 
z
" clip-path="url(#p5b80ac786b)" style="fill: #c6d6f1; fill-opacity: 0.75"/>
    <path d="M 83.291081 62.405405 
L 85.508758 60.687405 
L 83.380372 59.10319 
L 81.163185 60.811495 
z
" clip-path="url(#p5b80ac786b)" style="fill: #c7d7f0; fill-opacity: 0.75"/>
    <path d="M 109.451651 62.312338 
L 111.592286 60.759262 
L 109.386365 59.174929 
L 107.24546 60.718581 
z
" clip-path="url(#p5b80ac786b)" style="fill: #c7d7f0; fill-opacity: 0.75"/>
    <path d="M 122.5316 62.35856 
L 124.634908 60.70216 
L 122.390046 59.117921 
L 120.286433 60.764727 
z
" clip-path="url(#p5b80ac786b)" style="fill: #c7d7f0; fill-opacity: 0.75"/>
    <path d="M 105.091619 62.26466 
L 107.24546 60.718581 
L 105.052407 59.134315 
L 102.898362 60.670982 
z
" clip-path="url(#p5b80ac786b)" style="fill: #c7d7f0; fill-opacity: 0.75"/>
    <path d="M 87.649894 62.28111 
L 89.855686 60.624829 
L 87.714245 59.040718 
L 85.508758 60.687405 
z
" clip-path="url(#p5b80ac786b)" style="fill: #c9d7f0; fill-opacity: 0.75"/>
    <path d="M 100.731225 62.223906 
L 102.898362 60.670982 
L 100.718166 59.086795 
L 98.550916 60.630295 
z
" clip-path="url(#p5b80ac786b)" style="fill: #c9d7f0; fill-opacity: 0.75"/>
    <path d="M 126.893219 62.295889 
L 128.985414 60.578047 
L 126.727362 58.994013 
L 124.634908 60.70216 
z
" clip-path="url(#p5b80ac786b)" style="fill: #c9d7f0; fill-opacity: 0.75"/>
    <path d="M 96.37057 62.203909 
L 98.550916 60.630295 
L 96.383591 59.046175 
L 94.203248 60.610331 
z
" clip-path="url(#p5b80ac786b)" style="fill: #c9d7f0; fill-opacity: 0.75"/>
    <path d="M 92.009958 62.218431 
L 94.203248 60.610331 
L 92.048834 59.026244 
L 89.855686 60.624829 
z
" clip-path="url(#p5b80ac786b)" style="fill: #c9d7f0; fill-opacity: 0.75"/>
    <path d="M 131.256994 62.171571 
L 133.339013 60.3791 
L 131.067618 58.795395 
L 128.985414 60.578047 
z
" clip-path="url(#p5b80ac786b)" style="fill: #cad8ef; fill-opacity: 0.75"/>
    <path d="M 67.975028 65.384017 
L 70.232047 63.27862 
L 68.144678 61.683271 
L 65.889045 63.778268 
z
" clip-path="url(#p5b80ac786b)" style="fill: #afcafc; fill-opacity: 0.75"/>
    <path d="M 72.331948 64.883547 
L 74.580983 62.89142 
L 72.479954 61.296709 
L 70.232047 63.27862 
z
" clip-path="url(#p5b80ac786b)" style="fill: #b6cefa; fill-opacity: 0.75"/>
    <path d="M 76.694631 64.495709 
L 78.934416 62.604535 
L 76.819883 61.010297 
L 74.580983 62.89142 
z
" clip-path="url(#p5b80ac786b)" style="fill: #bad0f8; fill-opacity: 0.75"/>
    <path d="M 81.061652 64.208351 
L 83.291081 62.405405 
L 81.163185 60.811495 
L 78.934416 62.604535 
z
" clip-path="url(#p5b80ac786b)" style="fill: #bed2f6; fill-opacity: 0.75"/>
    <path d="M 120.416766 63.976512 
L 122.5316 62.35856 
L 120.286433 60.764727 
L 118.171236 62.373079 
z
" clip-path="url(#p5b80ac786b)" style="fill: #bfd3f6; fill-opacity: 0.75"/>
    <path d="M 116.043891 63.956487 
L 118.171236 62.373079 
L 115.939118 60.779221 
L 113.811422 62.353086 
z
" clip-path="url(#p5b80ac786b)" style="fill: #bfd3f6; fill-opacity: 0.75"/>
    <path d="M 85.431763 64.008892 
L 87.649894 62.28111 
L 85.508758 60.687405 
L 83.291081 62.405405 
z
" clip-path="url(#p5b80ac786b)" style="fill: #bfd3f6; fill-opacity: 0.75"/>
    <path d="M 111.671098 63.915672 
L 113.811422 62.353086 
L 111.592286 60.759262 
L 109.451651 62.312338 
z
" clip-path="url(#p5b80ac786b)" style="fill: #bfd3f6; fill-opacity: 0.75"/>
    <path d="M 124.790257 63.96197 
L 126.893219 62.295889 
L 124.634908 60.70216 
L 122.5316 62.35856 
z
" clip-path="url(#p5b80ac786b)" style="fill: #bfd3f6; fill-opacity: 0.75"/>
    <path d="M 107.298056 63.867915 
L 109.451651 62.312338 
L 107.24546 60.718581 
L 105.091619 62.26466 
z
" clip-path="url(#p5b80ac786b)" style="fill: #c0d4f5; fill-opacity: 0.75"/>
    <path d="M 89.803897 63.884392 
L 92.009958 62.218431 
L 89.855686 60.624829 
L 87.649894 62.28111 
z
" clip-path="url(#p5b80ac786b)" style="fill: #c0d4f5; fill-opacity: 0.75"/>
    <path d="M 102.924636 63.827094 
L 105.091619 62.26466 
L 102.898362 60.670982 
L 100.731225 62.223906 
z
" clip-path="url(#p5b80ac786b)" style="fill: #c0d4f5; fill-opacity: 0.75"/>
    <path d="M 129.1651 63.899196 
L 131.256994 62.171571 
L 128.985414 60.578047 
L 126.893219 62.295889 
z
" clip-path="url(#p5b80ac786b)" style="fill: #c0d4f5; fill-opacity: 0.75"/>
    <path d="M 98.550916 63.807063 
L 100.731225 62.223906 
L 98.550916 60.630295 
L 96.37057 62.203909 
z
" clip-path="url(#p5b80ac786b)" style="fill: #c1d4f4; fill-opacity: 0.75"/>
    <path d="M 94.177175 63.821609 
L 96.37057 62.203909 
L 94.203248 60.610331 
L 92.009958 62.218431 
z
" clip-path="url(#p5b80ac786b)" style="fill: #c1d4f4; fill-opacity: 0.75"/>
    <path d="M 70.073568 66.999432 
L 72.331948 64.883547 
L 70.232047 63.27862 
L 67.975028 65.384017 
z
" clip-path="url(#p5b80ac786b)" style="fill: #a7c5fe; fill-opacity: 0.75"/>
    <path d="M 74.444495 66.498138 
L 76.694631 64.495709 
L 74.580983 62.89142 
L 72.331948 64.883547 
z
" clip-path="url(#p5b80ac786b)" style="fill: #adc9fd; fill-opacity: 0.75"/>
    <path d="M 78.821011 66.109663 
L 81.061652 64.208351 
L 78.934416 62.604535 
L 76.694631 64.495709 
z
" clip-path="url(#p5b80ac786b)" style="fill: #b2ccfb; fill-opacity: 0.75"/>
    <path d="M 83.201706 65.821831 
L 85.431763 64.008892 
L 83.291081 62.405405 
L 81.061652 64.208351 
z
" clip-path="url(#p5b80ac786b)" style="fill: #b5cdfa; fill-opacity: 0.75"/>
    <path d="M 122.675829 65.58961 
L 124.790257 63.96197 
L 122.5316 62.35856 
L 120.416766 63.976512 
z
" clip-path="url(#p5b80ac786b)" style="fill: #b7cff9; fill-opacity: 0.75"/>
    <path d="M 118.289815 65.569551 
L 120.416766 63.976512 
L 118.171236 62.373079 
L 116.043891 63.956487 
z
" clip-path="url(#p5b80ac786b)" style="fill: #b7cff9; fill-opacity: 0.75"/>
    <path d="M 87.585346 65.622043 
L 89.803897 63.884392 
L 87.649894 62.28111 
L 85.431763 64.008892 
z
" clip-path="url(#p5b80ac786b)" style="fill: #b7cff9; fill-opacity: 0.75"/>
    <path d="M 113.903922 65.528668 
L 116.043891 63.956487 
L 113.811422 62.353086 
L 111.671098 63.915672 
z
" clip-path="url(#p5b80ac786b)" style="fill: #b7cff9; fill-opacity: 0.75"/>
    <path d="M 127.062527 65.575044 
L 129.1651 63.899196 
L 126.893219 62.295889 
L 124.790257 63.96197 
z
" clip-path="url(#p5b80ac786b)" style="fill: #b7cff9; fill-opacity: 0.75"/>
    <path d="M 109.517792 65.480833 
L 111.671098 63.915672 
L 109.451651 62.312338 
L 107.298056 63.867915 
z
" clip-path="url(#p5b80ac786b)" style="fill: #b7cff9; fill-opacity: 0.75"/>
    <path d="M 91.970882 65.497337 
L 94.177175 63.821609 
L 92.009958 62.218431 
L 89.803897 63.884392 
z
" clip-path="url(#p5b80ac786b)" style="fill: #b9d0f9; fill-opacity: 0.75"/>
    <path d="M 105.131268 65.439944 
L 107.298056 63.867915 
L 105.091619 62.26466 
L 102.924636 63.827094 
z
" clip-path="url(#p5b80ac786b)" style="fill: #b9d0f9; fill-opacity: 0.75"/>
    <path d="M 100.744404 65.419881 
L 102.924636 63.827094 
L 100.731225 62.223906 
L 98.550916 63.807063 
z
" clip-path="url(#p5b80ac786b)" style="fill: #b9d0f9; fill-opacity: 0.75"/>
    <path d="M 96.357455 65.434451 
L 98.550916 63.807063 
L 96.37057 62.203909 
L 94.177175 63.821609 
z
" clip-path="url(#p5b80ac786b)" style="fill: #b9d0f9; fill-opacity: 0.75"/>
    <path d="M 72.184778 68.6246 
L 74.444495 66.498138 
L 72.331948 64.883547 
L 70.073568 66.999432 
z
" clip-path="url(#p5b80ac786b)" style="fill: #9fbfff; fill-opacity: 0.75"/>
    <path d="M 76.569802 68.122483 
L 78.821011 66.109663 
L 76.694631 64.495709 
L 74.444495 66.498138 
z
" clip-path="url(#p5b80ac786b)" style="fill: #a5c3fe; fill-opacity: 0.75"/>
    <path d="M 80.960239 67.733368 
L 83.201706 65.821831 
L 81.061652 64.208351 
L 78.821011 66.109663 
z
" clip-path="url(#p5b80ac786b)" style="fill: #a9c6fd; fill-opacity: 0.75"/>
    <path d="M 85.354693 67.445062 
L 87.585346 65.622043 
L 85.431763 64.008892 
L 83.201706 65.821831 
z
" clip-path="url(#p5b80ac786b)" style="fill: #adc9fd; fill-opacity: 0.75"/>
    <path d="M 124.948548 67.212458 
L 127.062527 65.575044 
L 124.790257 63.96197 
L 122.675829 65.58961 
z
" clip-path="url(#p5b80ac786b)" style="fill: #aec9fc; fill-opacity: 0.75"/>
    <path d="M 120.549316 67.192366 
L 122.675829 65.58961 
L 120.416766 63.976512 
L 118.289815 65.569551 
z
" clip-path="url(#p5b80ac786b)" style="fill: #aec9fc; fill-opacity: 0.75"/>
    <path d="M 89.751946 67.244945 
L 91.970882 65.497337 
L 89.803897 63.884392 
L 87.585346 65.622043 
z
" clip-path="url(#p5b80ac786b)" style="fill: #aec9fc; fill-opacity: 0.75"/>
    <path d="M 116.150245 67.151416 
L 118.289815 65.569551 
L 116.043891 63.956487 
L 113.903922 65.528668 
z
" clip-path="url(#p5b80ac786b)" style="fill: #afcafc; fill-opacity: 0.75"/>
    <path d="M 111.750947 67.103502 
L 113.903922 65.528668 
L 111.671098 63.915672 
L 109.517792 65.480833 
z
" clip-path="url(#p5b80ac786b)" style="fill: #afcafc; fill-opacity: 0.75"/>
    <path d="M 94.150967 67.120033 
L 96.357455 65.434451 
L 94.177175 63.821609 
L 91.970882 65.497337 
z
" clip-path="url(#p5b80ac786b)" style="fill: #afcafc; fill-opacity: 0.75"/>
    <path d="M 107.351241 67.062546 
L 109.517792 65.480833 
L 107.298056 63.867915 
L 105.131268 65.439944 
z
" clip-path="url(#p5b80ac786b)" style="fill: #afcafc; fill-opacity: 0.75"/>
    <path d="M 102.951153 67.042449 
L 105.131268 65.439944 
L 102.924636 63.827094 
L 100.744404 65.419881 
z
" clip-path="url(#p5b80ac786b)" style="fill: #b1cbfc; fill-opacity: 0.75"/>
    <path d="M 98.550916 67.057043 
L 100.744404 65.419881 
L 98.550916 63.807063 
L 96.357455 65.434451 
z
" clip-path="url(#p5b80ac786b)" style="fill: #b1cbfc; fill-opacity: 0.75"/>
    <path d="M 74.308773 70.25961 
L 76.569802 68.122483 
L 74.444495 66.498138 
L 72.184778 68.6246 
z
" clip-path="url(#p5b80ac786b)" style="fill: #96b7ff; fill-opacity: 0.75"/>
    <path d="M 78.707985 69.756668 
L 80.960239 67.733368 
L 78.821011 66.109663 
L 76.569802 68.122483 
z
" clip-path="url(#p5b80ac786b)" style="fill: #9dbdff; fill-opacity: 0.75"/>
    <path d="M 83.112432 69.366913 
L 85.354693 67.445062 
L 83.201706 65.821831 
L 80.960239 67.733368 
z
" clip-path="url(#p5b80ac786b)" style="fill: #a1c0ff; fill-opacity: 0.75"/>
    <path d="M 87.520732 69.078133 
L 89.751946 67.244945 
L 87.585346 65.622043 
L 85.354693 67.445062 
z
" clip-path="url(#p5b80ac786b)" style="fill: #a3c2fe; fill-opacity: 0.75"/>
    <path d="M 122.822516 68.825021 
L 124.948548 67.212458 
L 122.675829 65.58961 
L 120.549316 67.192366 
z
" clip-path="url(#p5b80ac786b)" style="fill: #a6c4fe; fill-opacity: 0.75"/>
    <path d="M 91.931683 68.877686 
L 94.150967 67.120033 
L 91.970882 65.497337 
L 89.751946 67.244945 
z
" clip-path="url(#p5b80ac786b)" style="fill: #a6c4fe; fill-opacity: 0.75"/>
    <path d="M 118.410187 68.784003 
L 120.549316 67.192366 
L 118.289815 65.569551 
L 116.150245 67.151416 
z
" clip-path="url(#p5b80ac786b)" style="fill: #a6c4fe; fill-opacity: 0.75"/>
    <path d="M 113.997643 68.73601 
L 116.150245 67.151416 
L 113.903922 65.528668 
L 111.750947 67.103502 
z
" clip-path="url(#p5b80ac786b)" style="fill: #a7c5fe; fill-opacity: 0.75"/>
    <path d="M 96.344271 68.752569 
L 98.550916 67.057043 
L 96.357455 65.434451 
L 94.150967 67.120033 
z
" clip-path="url(#p5b80ac786b)" style="fill: #a7c5fe; fill-opacity: 0.75"/>
    <path d="M 109.584675 68.694986 
L 111.750947 67.103502 
L 109.517792 65.480833 
L 107.351241 67.062546 
z
" clip-path="url(#p5b80ac786b)" style="fill: #a7c5fe; fill-opacity: 0.75"/>
    <path d="M 105.171284 68.674856 
L 107.351241 67.062546 
L 105.131268 65.439944 
L 102.951153 67.042449 
z
" clip-path="url(#p5b80ac786b)" style="fill: #a7c5fe; fill-opacity: 0.75"/>
    <path d="M 100.757678 68.689474 
L 102.951153 67.042449 
L 100.744404 65.419881 
L 98.550916 67.057043 
z
" clip-path="url(#p5b80ac786b)" style="fill: #a7c5fe; fill-opacity: 0.75"/>
    <path d="M 76.44567 71.904551 
L 78.707985 69.756668 
L 76.569802 68.122483 
L 74.308773 70.25961 
z
" clip-path="url(#p5b80ac786b)" style="fill: #8db0fe; fill-opacity: 0.75"/>
    <path d="M 80.859162 71.400784 
L 83.112432 69.366913 
L 80.960239 67.733368 
L 78.707985 69.756668 
z
" clip-path="url(#p5b80ac786b)" style="fill: #93b5fe; fill-opacity: 0.75"/>
    <path d="M 85.277709 71.010389 
L 87.520732 69.078133 
L 85.354693 67.445062 
L 83.112432 69.366913 
z
" clip-path="url(#p5b80ac786b)" style="fill: #98b9ff; fill-opacity: 0.75"/>
    <path d="M 89.699942 70.721133 
L 91.931683 68.877686 
L 89.751946 67.244945 
L 87.520732 69.078133 
z
" clip-path="url(#p5b80ac786b)" style="fill: #9bbcff; fill-opacity: 0.75"/>
    <path d="M 94.124676 70.520357 
L 96.344271 68.752569 
L 94.150967 67.120033 
L 91.931683 68.877686 
z
" clip-path="url(#p5b80ac786b)" style="fill: #9ebeff; fill-opacity: 0.75"/>
    <path d="M 120.683875 70.42652 
L 122.822516 68.825021 
L 120.549316 67.192366 
L 118.410187 68.784003 
z
" clip-path="url(#p5b80ac786b)" style="fill: #9ebeff; fill-opacity: 0.75"/>
    <path d="M 116.258004 70.378447 
L 118.410187 68.784003 
L 116.150245 67.151416 
L 113.997643 68.73601 
z
" clip-path="url(#p5b80ac786b)" style="fill: #9ebeff; fill-opacity: 0.75"/>
    <path d="M 98.550916 70.395033 
L 100.757678 68.689474 
L 98.550916 67.057043 
L 96.344271 68.752569 
z
" clip-path="url(#p5b80ac786b)" style="fill: #9ebeff; fill-opacity: 0.75"/>
    <path d="M 111.831694 70.337356 
L 113.997643 68.73601 
L 111.750947 67.103502 
L 109.584675 68.694986 
z
" clip-path="url(#p5b80ac786b)" style="fill: #9fbfff; fill-opacity: 0.75"/>
    <path d="M 107.404919 70.317193 
L 109.584675 68.694986 
L 107.351241 67.062546 
L 105.171284 68.674856 
z
" clip-path="url(#p5b80ac786b)" style="fill: #9fbfff; fill-opacity: 0.75"/>
    <path d="M 102.977862 70.331835 
L 105.171284 68.674856 
L 102.951153 67.042449 
L 100.757678 68.689474 
z
" clip-path="url(#p5b80ac786b)" style="fill: #9fbfff; fill-opacity: 0.75"/>
    <path d="M 78.595587 73.559515 
L 80.859162 71.400784 
L 78.707985 69.756668 
L 76.44567 71.904551 
z
" clip-path="url(#p5b80ac786b)" style="fill: #84a7fc; fill-opacity: 0.75"/>
    <path d="M 83.023452 73.054922 
L 85.277709 71.010389 
L 83.112432 69.366913 
L 80.859162 71.400784 
z
" clip-path="url(#p5b80ac786b)" style="fill: #8badfd; fill-opacity: 0.75"/>
    <path d="M 87.456188 72.663886 
L 89.699942 70.721133 
L 87.520732 69.078133 
L 85.277709 71.010389 
z
" clip-path="url(#p5b80ac786b)" style="fill: #8fb1fe; fill-opacity: 0.75"/>
    <path d="M 91.892442 72.374155 
L 94.124676 70.520357 
L 91.931683 68.877686 
L 89.699942 70.721133 
z
" clip-path="url(#p5b80ac786b)" style="fill: #93b5fe; fill-opacity: 0.75"/>
    <path d="M 96.331046 72.173048 
L 98.550916 70.395033 
L 96.344271 68.752569 
L 94.124676 70.520357 
z
" clip-path="url(#p5b80ac786b)" style="fill: #94b6ff; fill-opacity: 0.75"/>
    <path d="M 118.532155 72.030905 
L 120.683875 70.42652 
L 118.410187 68.784003 
L 116.258004 70.378447 
z
" clip-path="url(#p5b80ac786b)" style="fill: #96b7ff; fill-opacity: 0.75"/>
    <path d="M 100.771022 72.047518 
L 102.977862 70.331835 
L 100.757678 68.689474 
L 98.550916 70.395033 
z
" clip-path="url(#p5b80ac786b)" style="fill: #96b7ff; fill-opacity: 0.75"/>
    <path d="M 114.092422 71.989746 
L 116.258004 70.378447 
L 113.997643 68.73601 
L 111.831694 70.337356 
z
" clip-path="url(#p5b80ac786b)" style="fill: #96b7ff; fill-opacity: 0.75"/>
    <path d="M 109.652182 71.96955 
L 111.831694 70.337356 
L 109.584675 68.694986 
L 107.404919 70.317193 
z
" clip-path="url(#p5b80ac786b)" style="fill: #96b7ff; fill-opacity: 0.75"/>
    <path d="M 105.211592 71.984216 
L 107.404919 70.317193 
L 105.171284 68.674856 
L 102.977862 70.331835 
z
" clip-path="url(#p5b80ac786b)" style="fill: #96b7ff; fill-opacity: 0.75"/>
    <path d="M 80.758643 75.224593 
L 83.023452 73.054922 
L 80.859162 71.400784 
L 78.595587 73.559515 
z
" clip-path="url(#p5b80ac786b)" style="fill: #7b9ff9; fill-opacity: 0.75"/>
    <path d="M 85.200974 74.719174 
L 87.456188 72.663886 
L 85.277709 71.010389 
L 83.023452 73.054922 
z
" clip-path="url(#p5b80ac786b)" style="fill: #81a4fb; fill-opacity: 0.75"/>
    <path d="M 89.647991 74.327496 
L 91.892442 72.374155 
L 89.699942 70.721133 
L 87.456188 72.663886 
z
" clip-path="url(#p5b80ac786b)" style="fill: #86a9fc; fill-opacity: 0.75"/>
    <path d="M 94.098355 74.037289 
L 96.331046 72.173048 
L 94.124676 70.520357 
L 91.892442 72.374155 
z
" clip-path="url(#p5b80ac786b)" style="fill: #89acfd; fill-opacity: 0.75"/>
    <path d="M 98.550916 73.835851 
L 100.771022 72.047518 
L 98.550916 70.395033 
L 96.331046 72.173048 
z
" clip-path="url(#p5b80ac786b)" style="fill: #8caffe; fill-opacity: 0.75"/>
    <path d="M 103.004714 73.710115 
L 105.211592 71.984216 
L 102.977862 70.331835 
L 100.771022 72.047518 
z
" clip-path="url(#p5b80ac786b)" style="fill: #8db0fe; fill-opacity: 0.75"/>
    <path d="M 116.366985 73.652248 
L 118.532155 72.030905 
L 116.258004 70.378447 
L 114.092422 71.989746 
z
" clip-path="url(#p5b80ac786b)" style="fill: #8db0fe; fill-opacity: 0.75"/>
    <path d="M 111.913197 73.632019 
L 114.092422 71.989746 
L 111.831694 70.337356 
L 109.652182 71.96955 
z
" clip-path="url(#p5b80ac786b)" style="fill: #8db0fe; fill-opacity: 0.75"/>
    <path d="M 107.458992 73.646709 
L 109.652182 71.96955 
L 107.404919 70.317193 
L 105.211592 71.984216 
z
" clip-path="url(#p5b80ac786b)" style="fill: #8db0fe; fill-opacity: 0.75"/>
    <path d="M 82.934959 76.899878 
L 85.200974 74.719174 
L 83.023452 73.054922 
L 80.758643 75.224593 
z
" clip-path="url(#p5b80ac786b)" style="fill: #7295f4; fill-opacity: 0.75"/>
    <path d="M 87.391851 76.393632 
L 89.647991 74.327496 
L 87.456188 72.663886 
L 85.200974 74.719174 
z
" clip-path="url(#p5b80ac786b)" style="fill: #799cf8; fill-opacity: 0.75"/>
    <path d="M 91.85324 76.001312 
L 94.098355 74.037289 
L 91.892442 72.374155 
L 89.647991 74.327496 
z
" clip-path="url(#p5b80ac786b)" style="fill: #7da0f9; fill-opacity: 0.75"/>
    <path d="M 96.317805 75.710628 
L 98.550916 73.835851 
L 96.331046 72.173048 
L 94.098355 74.037289 
z
" clip-path="url(#p5b80ac786b)" style="fill: #81a4fb; fill-opacity: 0.75"/>
    <path d="M 100.78441 75.50886 
L 103.004714 73.710115 
L 100.771022 72.047518 
L 98.550916 73.835851 
z
" clip-path="url(#p5b80ac786b)" style="fill: #82a6fb; fill-opacity: 0.75"/>
    <path d="M 105.252117 75.382917 
L 107.458992 73.646709 
L 105.211592 71.984216 
L 103.004714 73.710115 
z
" clip-path="url(#p5b80ac786b)" style="fill: #84a7fc; fill-opacity: 0.75"/>
    <path d="M 114.188092 75.304692 
L 116.366985 73.652248 
L 114.092422 71.989746 
L 111.913197 73.632019 
z
" clip-path="url(#p5b80ac786b)" style="fill: #85a8fc; fill-opacity: 0.75"/>
    <path d="M 109.720187 75.319407 
L 111.913197 73.632019 
L 109.652182 71.96955 
L 107.458992 73.646709 
z
" clip-path="url(#p5b80ac786b)" style="fill: #85a8fc; fill-opacity: 0.75"/>
    <path d="M 85.124657 78.585465 
L 87.391851 76.393632 
L 85.200974 74.719174 
L 82.934959 76.899878 
z
" clip-path="url(#p5b80ac786b)" style="fill: #6a8bef; fill-opacity: 0.75"/>
    <path d="M 89.596205 78.07839 
L 91.85324 76.001312 
L 89.647991 74.327496 
L 87.391851 76.393632 
z
" clip-path="url(#p5b80ac786b)" style="fill: #6f92f3; fill-opacity: 0.75"/>
    <path d="M 94.07206 77.685428 
L 96.317805 75.710628 
L 94.098355 74.037289 
L 91.85324 76.001312 
z
" clip-path="url(#p5b80ac786b)" style="fill: #7597f6; fill-opacity: 0.75"/>
    <path d="M 98.550916 77.394268 
L 100.78441 75.50886 
L 98.550916 73.835851 
L 96.317805 75.710628 
z
" clip-path="url(#p5b80ac786b)" style="fill: #779af7; fill-opacity: 0.75"/>
    <path d="M 103.031654 77.192168 
L 105.252117 75.382917 
L 103.004714 73.710115 
L 100.78441 75.50886 
z
" clip-path="url(#p5b80ac786b)" style="fill: #7a9df8; fill-opacity: 0.75"/>
    <path d="M 107.513357 77.066019 
L 109.720187 75.319407 
L 107.458992 73.646709 
L 105.252117 75.382917 
z
" clip-path="url(#p5b80ac786b)" style="fill: #7b9ff9; fill-opacity: 0.75"/>
    <path d="M 111.995306 77.002404 
L 114.188092 75.304692 
L 111.913197 73.632019 
L 109.720187 75.319407 
z
" clip-path="url(#p5b80ac786b)" style="fill: #7b9ff9; fill-opacity: 0.75"/>
    <path d="M 87.327861 80.281449 
L 89.596205 78.07839 
L 87.391851 76.393632 
L 85.124657 78.585465 
z
" clip-path="url(#p5b80ac786b)" style="fill: #6282ea; fill-opacity: 0.75"/>
    <path d="M 91.814161 79.773545 
L 94.07206 77.685428 
L 91.85324 76.001312 
L 89.596205 78.07839 
z
" clip-path="url(#p5b80ac786b)" style="fill: #6788ee; fill-opacity: 0.75"/>
    <path d="M 96.304576 79.37994 
L 98.550916 77.394268 
L 96.317805 75.710628 
L 94.07206 77.685428 
z
" clip-path="url(#p5b80ac786b)" style="fill: #6b8df0; fill-opacity: 0.75"/>
    <path d="M 100.797814 79.088303 
L 103.031654 77.192168 
L 100.78441 75.50886 
L 98.550916 77.394268 
z
" clip-path="url(#p5b80ac786b)" style="fill: #6f92f3; fill-opacity: 0.75"/>
    <path d="M 105.292777 78.885872 
L 107.513357 77.066019 
L 105.252117 75.382917 
L 103.031654 77.192168 
z
" clip-path="url(#p5b80ac786b)" style="fill: #7093f3; fill-opacity: 0.75"/>
    <path d="M 109.788562 78.759515 
L 111.995306 77.002404 
L 109.720187 75.319407 
L 107.513357 77.066019 
z
" clip-path="url(#p5b80ac786b)" style="fill: #7295f4; fill-opacity: 0.75"/>
    <path d="M 89.544697 81.987925 
L 91.814161 79.773545 
L 89.596205 78.07839 
L 87.327861 80.281449 
z
" clip-path="url(#p5b80ac786b)" style="fill: #5977e3; fill-opacity: 0.75"/>
    <path d="M 94.045846 81.479193 
L 96.304576 79.37994 
L 94.07206 77.685428 
L 91.814161 79.773545 
z
" clip-path="url(#p5b80ac786b)" style="fill: #5f7fe8; fill-opacity: 0.75"/>
    <path d="M 98.550916 81.084944 
L 100.797814 79.088303 
L 98.550916 77.394268 
L 96.304576 79.37994 
z
" clip-path="url(#p5b80ac786b)" style="fill: #6384eb; fill-opacity: 0.75"/>
    <path d="M 103.058629 80.792829 
L 105.292777 78.885872 
L 103.031654 77.192168 
L 100.797814 79.088303 
z
" clip-path="url(#p5b80ac786b)" style="fill: #6687ed; fill-opacity: 0.75"/>
    <path d="M 107.567905 80.590067 
L 109.788562 78.759515 
L 107.513357 77.066019 
L 105.292777 78.885872 
z
" clip-path="url(#p5b80ac786b)" style="fill: #688aef; fill-opacity: 0.75"/>
    <path d="M 91.775291 83.704993 
L 94.045846 81.479193 
L 91.814161 79.773545 
L 89.544697 81.987925 
z
" clip-path="url(#p5b80ac786b)" style="fill: #516ddb; fill-opacity: 0.75"/>
    <path d="M 96.291388 83.195431 
L 98.550916 81.084944 
L 96.304576 79.37994 
L 94.045846 81.479193 
z
" clip-path="url(#p5b80ac786b)" style="fill: #5673e0; fill-opacity: 0.75"/>
    <path d="M 100.811207 82.800538 
L 103.058629 80.792829 
L 100.797814 79.088303 
L 98.550916 81.084944 
z
" clip-path="url(#p5b80ac786b)" style="fill: #5b7ae5; fill-opacity: 0.75"/>
    <path d="M 105.33349 82.507946 
L 107.567905 80.590067 
L 105.292777 78.885872 
L 103.058629 80.792829 
z
" clip-path="url(#p5b80ac786b)" style="fill: #5e7de7; fill-opacity: 0.75"/>
    <path d="M 94.019772 85.43275 
L 96.291388 83.195431 
L 94.045846 81.479193 
L 91.775291 83.704993 
z
" clip-path="url(#p5b80ac786b)" style="fill: #4961d2; fill-opacity: 0.75"/>
    <path d="M 98.550916 84.922358 
L 100.811207 82.800538 
L 98.550916 81.084944 
L 96.291388 83.195431 
z
" clip-path="url(#p5b80ac786b)" style="fill: #4f69d9; fill-opacity: 0.75"/>
    <path d="M 103.085582 84.52682 
L 105.33349 82.507946 
L 103.058629 80.792829 
L 100.811207 82.800538 
z
" clip-path="url(#p5b80ac786b)" style="fill: #536edd; fill-opacity: 0.75"/>
    <path d="M 96.278269 87.171298 
L 98.550916 84.922358 
L 96.291388 83.195431 
L 94.019772 85.43275 
z
" clip-path="url(#p5b80ac786b)" style="fill: #4257c9; fill-opacity: 0.75"/>
    <path d="M 100.82456 86.660075 
L 103.085582 84.52682 
L 100.811207 82.800538 
L 98.550916 84.922358 
z
" clip-path="url(#p5b80ac786b)" style="fill: #465ecf; fill-opacity: 0.75"/>
    <path d="M 98.550916 88.920736 
L 100.82456 86.660075 
L 98.550916 84.922358 
L 96.278269 87.171298 
z
" clip-path="url(#p5b80ac786b)" style="fill: #3b4cc0; fill-opacity: 0.75"/>
   </g>
  </g>
 </g>
 <defs>
  <clipPath id="p5b80ac786b">
   <rect x="45.499284" y="3.00024" width="103.311072" height="103.311072"/>
  </clipPath>
 </defs>
</svg>
