<?xml version="1.0" encoding="utf-8" standalone="no"?>
<!DOCTYPE svg PUBLIC "-//W3C//DTD SVG 1.1//EN"
  "http://www.w3.org/Graphics/SVG/1.1/DTD/svg11.dtd">
<svg xmlns:xlink="http://www.w3.org/1999/xlink" width="129.53976pt" height="109.311552pt" viewBox="0 0 129.53976 109.311552" xmlns="http://www.w3.org/2000/svg" version="1.1">
 <metadata>
  <rdf:RDF xmlns:dc="http://purl.org/dc/elements/1.1/" xmlns:cc="http://creativecommons.org/ns#" xmlns:rdf="http://www.w3.org/1999/02/22-rdf-syntax-ns#">
   <cc:Work>
    <dc:type rdf:resource="http://purl.org/dc/dcmitype/StillImage"/>
    <dc:date>2025-01-02T13:56:56.223000</dc:date>
    <dc:format>image/svg+xml</dc:format>
    <dc:creator>
     <cc:Agent>
      <dc:title>Matplotlib v3.8.2, https://matplotlib.org/</dc:title>
     </cc:Agent>
    </dc:creator>
   </cc:Work>
  </rdf:RDF>
 </metadata>
 <defs>
  <style type="text/css">*{stroke-linejoin: round; stroke-linecap: butt}</style>
 </defs>
 <g id="figure_1">
  <g id="patch_1">
   <path d="M 0 109.311552 
L 129.53976 109.311552 
L 129.53976 0 
L 0 0 
z
" style="fill: #ffffff"/>
  </g>
  <g id="patch_2">
   <path d="M 13.114344 106.311312 
L 116.425416 106.311312 
L 116.425416 3.00024 
L 13.114344 3.00024 
z
" style="fill: #ffffff"/>
  </g>
  <g id="pane3d_1">
   <g id="patch_3">
    <path d="M 112.304469 75.435791 
L 66.165976 55.750323 
L 66.165976 13.104267 
L 114.078927 30.23069 
" style="fill: #f2f2f2; opacity: 0.5; stroke: #f2f2f2; stroke-linejoin: miter"/>
   </g>
  </g>
  <g id="pane3d_2">
   <g id="patch_4">
    <path d="M 20.027482 75.435791 
L 66.165976 55.750323 
L 66.165976 13.104267 
L 18.253024 30.23069 
" style="fill: #e6e6e6; opacity: 0.5; stroke: #e6e6e6; stroke-linejoin: miter"/>
   </g>
  </g>
  <g id="pane3d_3">
   <g id="patch_5">
    <path d="M 66.165976 98.307962 
L 112.304469 75.435791 
L 66.165976 55.750323 
L 20.027482 75.435791 
" style="fill: #ececec; opacity: 0.5; stroke: #ececec; stroke-linejoin: miter"/>
   </g>
  </g>
  <g id="grid3d_1">
   <g id="Line3DCollection_1">
    <path d="M 72.892591 94.973387 
L 26.721854 72.579568 
L 25.220774 27.740077 
" style="fill: none; stroke: #b0b0b0; stroke-width: 0.1"/>
    <path d="M 90.132526 86.427058 
L 43.929268 65.237846 
L 43.106064 21.347003 
" style="fill: none; stroke: #b0b0b0; stroke-width: 0.1"/>
    <path d="M 106.423925 78.350945 
L 60.25652 58.271654 
L 60.043549 15.292721 
" style="fill: none; stroke: #b0b0b0; stroke-width: 0.1"/>
   </g>
  </g>
  <g id="grid3d_2">
   <g id="Line3DCollection_2">
    <path d="M 104.495485 26.805101 
L 103.095687 71.506769 
L 56.91568 93.722326 
" style="fill: none; stroke: #b0b0b0; stroke-width: 0.1"/>
    <path d="M 89.225888 21.347003 
L 88.402683 65.237846 
L 42.199425 86.427058 
" style="fill: none; stroke: #b0b0b0; stroke-width: 0.1"/>
    <path d="M 74.652534 16.137776 
L 74.356242 59.244785 
L 28.17994 79.477198 
" style="fill: none; stroke: #b0b0b0; stroke-width: 0.1"/>
   </g>
  </g>
  <g id="grid3d_3">
   <g id="Line3DCollection_3">
    <path d="M 19.684669 66.702472 
L 66.165976 47.493594 
L 112.647282 66.702472 
" style="fill: none; stroke: #b0b0b0; stroke-width: 0.1"/>
    <path d="M 19.156992 53.25968 
L 66.165976 34.801077 
L 113.174959 53.25968 
" style="fill: none; stroke: #b0b0b0; stroke-width: 0.1"/>
    <path d="M 18.617198 39.508167 
L 66.165976 21.837952 
L 113.714754 39.508167 
" style="fill: none; stroke: #b0b0b0; stroke-width: 0.1"/>
   </g>
  </g>
  <g id="axis3d_1">
   <g id="line2d_1">
    <path d="M 112.304469 75.435791 
L 66.165976 98.307962 
" style="fill: none; stroke: #000000; stroke-linecap: round"/>
   </g>
   <g id="xtick_1">
    <g id="line2d_2">
     <path d="M 72.49391 94.780018 
L 73.691486 95.360869 
" style="fill: none; stroke: #262626; stroke-width: 0.8; stroke-linecap: round"/>
    </g>
    <g id="text_1">
     <!-- −10 -->
     <g style="fill: #262626" transform="translate(76.199249 115.373444) scale(0.07 -0.07)">
      <defs>
       <path id="DejaVuSerif-2212" d="M 678 2259 
L 4684 2259 
L 4684 1753 
L 678 1753 
L 678 2259 
z
" transform="scale(0.015625)"/>
       <path id="DejaVuSerif-31" d="M 909 0 
L 909 331 
L 1722 331 
L 1722 4213 
L 781 3603 
L 781 4013 
L 1919 4750 
L 2350 4750 
L 2350 331 
L 3163 331 
L 3163 0 
L 909 0 
z
" transform="scale(0.015625)"/>
       <path id="DejaVuSerif-30" d="M 2034 219 
Q 2513 219 2750 744 
Q 2988 1269 2988 2328 
Q 2988 3391 2750 3916 
Q 2513 4441 2034 4441 
Q 1556 4441 1318 3916 
Q 1081 3391 1081 2328 
Q 1081 1269 1318 744 
Q 1556 219 2034 219 
z
M 2034 -91 
Q 1275 -91 848 546 
Q 422 1184 422 2328 
Q 422 3475 848 4112 
Q 1275 4750 2034 4750 
Q 2797 4750 3222 4112 
Q 3647 3475 3647 2328 
Q 3647 1184 3222 546 
Q 2797 -91 2034 -91 
z
" transform="scale(0.015625)"/>
      </defs>
      <use xlink:href="#DejaVuSerif-2212"/>
      <use xlink:href="#DejaVuSerif-31" x="83.789062"/>
      <use xlink:href="#DejaVuSerif-30" x="147.412109"/>
     </g>
    </g>
   </g>
   <g id="xtick_2">
    <g id="line2d_3">
     <path d="M 89.734394 86.244471 
L 90.930279 86.792914 
" style="fill: none; stroke: #262626; stroke-width: 0.8; stroke-linecap: round"/>
    </g>
    <g id="text_2">
     <!-- 0 -->
     <g style="fill: #262626" transform="translate(98.439987 106.324461) scale(0.07 -0.07)">
      <use xlink:href="#DejaVuSerif-30"/>
     </g>
    </g>
   </g>
   <g id="xtick_3">
    <g id="line2d_4">
     <path d="M 106.026884 78.178263 
L 107.219449 78.696937 
" style="fill: none; stroke: #262626; stroke-width: 0.8; stroke-linecap: round"/>
    </g>
    <g id="text_3">
     <!-- 10 -->
     <g style="fill: #262626" transform="translate(112.34655 97.777452) scale(0.07 -0.07)">
      <use xlink:href="#DejaVuSerif-31"/>
      <use xlink:href="#DejaVuSerif-30" x="63.623047"/>
     </g>
    </g>
   </g>
   <g id="text_4">
    <!-- $\beta$ [deg] -->
    <g style="fill: #262626" transform="translate(102.433358 120.057881) scale(0.06 -0.06)">
     <defs>
      <path id="DejaVuSans-Oblique-3b2" d="M 872 216 
L 572 -1331 
L -6 -1331 
L 928 3478 
Q 1206 4903 2538 4903 
Q 3888 4903 3659 3700 
Q 3503 2844 2894 2531 
Q 3713 2250 3553 1416 
Q 3272 -69 1759 -66 
Q 1097 -63 872 216 
z
M 1019 966 
Q 1259 422 1875 425 
Q 2775 425 2966 1406 
Q 3138 2288 1675 2219 
L 1778 2750 
Q 2909 2731 3106 3750 
Q 3241 4438 2509 4434 
Q 1691 4434 1503 3459 
L 1019 966 
z
" transform="scale(0.015625)"/>
      <path id="DejaVuSerif-20" transform="scale(0.015625)"/>
      <path id="DejaVuSerif-5b" d="M 550 4863 
L 2003 4863 
L 2003 4531 
L 1147 4531 
L 1147 -513 
L 2003 -513 
L 2003 -844 
L 550 -844 
L 550 4863 
z
" transform="scale(0.015625)"/>
      <path id="DejaVuSerif-64" d="M 3359 331 
L 3909 331 
L 3909 0 
L 2784 0 
L 2784 519 
Q 2616 206 2355 57 
Q 2094 -91 1709 -91 
Q 1097 -91 708 395 
Q 319 881 319 1663 
Q 319 2444 706 2928 
Q 1094 3413 1709 3413 
Q 2094 3413 2355 3264 
Q 2616 3116 2784 2803 
L 2784 4531 
L 2241 4531 
L 2241 4863 
L 3359 4863 
L 3359 331 
z
M 2784 1497 
L 2784 1825 
Q 2784 2422 2554 2737 
Q 2325 3053 1888 3053 
Q 1444 3053 1217 2703 
Q 991 2353 991 1663 
Q 991 975 1217 622 
Q 1444 269 1888 269 
Q 2325 269 2554 583 
Q 2784 897 2784 1497 
z
" transform="scale(0.015625)"/>
      <path id="DejaVuSerif-65" d="M 3469 1600 
L 991 1600 
L 991 1575 
Q 991 903 1244 561 
Q 1497 219 1991 219 
Q 2369 219 2611 417 
Q 2853 616 2950 1006 
L 3413 1006 
Q 3275 459 2904 184 
Q 2534 -91 1931 -91 
Q 1203 -91 761 389 
Q 319 869 319 1663 
Q 319 2450 753 2931 
Q 1188 3413 1894 3413 
Q 2647 3413 3050 2948 
Q 3453 2484 3469 1600 
z
M 2791 1931 
Q 2772 2513 2545 2808 
Q 2319 3103 1894 3103 
Q 1497 3103 1269 2806 
Q 1041 2509 991 1931 
L 2791 1931 
z
" transform="scale(0.015625)"/>
      <path id="DejaVuSerif-67" d="M 3359 2988 
L 3359 72 
Q 3359 -644 2965 -1033 
Q 2572 -1422 1844 -1422 
Q 1516 -1422 1216 -1362 
Q 916 -1303 641 -1184 
L 641 -488 
L 941 -488 
Q 997 -813 1206 -963 
Q 1416 -1113 1806 -1113 
Q 2313 -1113 2548 -827 
Q 2784 -541 2784 72 
L 2784 519 
Q 2616 206 2355 57 
Q 2094 -91 1709 -91 
Q 1097 -91 708 395 
Q 319 881 319 1663 
Q 319 2444 706 2928 
Q 1094 3413 1709 3413 
Q 2094 3413 2355 3264 
Q 2616 3116 2784 2803 
L 2784 3322 
L 3909 3322 
L 3909 2988 
L 3359 2988 
z
M 2784 1825 
Q 2784 2422 2554 2737 
Q 2325 3053 1888 3053 
Q 1444 3053 1217 2703 
Q 991 2353 991 1663 
Q 991 975 1217 622 
Q 1444 269 1888 269 
Q 2325 269 2554 583 
Q 2784 897 2784 1497 
L 2784 1825 
z
" transform="scale(0.015625)"/>
      <path id="DejaVuSerif-5d" d="M 1947 4863 
L 1947 -844 
L 494 -844 
L 494 -513 
L 1350 -513 
L 1350 4531 
L 494 4531 
L 494 4863 
L 1947 4863 
z
" transform="scale(0.015625)"/>
     </defs>
     <use xlink:href="#DejaVuSans-Oblique-3b2" transform="translate(0 0.390625)"/>
     <use xlink:href="#DejaVuSerif-20" transform="translate(63.818359 0.390625)"/>
     <use xlink:href="#DejaVuSerif-5b" transform="translate(95.605469 0.390625)"/>
     <use xlink:href="#DejaVuSerif-64" transform="translate(134.619141 0.390625)"/>
     <use xlink:href="#DejaVuSerif-65" transform="translate(198.632812 0.390625)"/>
     <use xlink:href="#DejaVuSerif-67" transform="translate(257.8125 0.390625)"/>
     <use xlink:href="#DejaVuSerif-5d" transform="translate(321.826172 0.390625)"/>
    </g>
   </g>
  </g>
  <g id="axis3d_2">
   <g id="line2d_5">
    <path d="M 20.027482 75.435791 
L 66.165976 98.307962 
" style="fill: none; stroke: #000000; stroke-linecap: round"/>
   </g>
   <g id="xtick_4">
    <g id="line2d_6">
     <path d="M 57.314319 93.530555 
L 56.116873 94.106603 
" style="fill: none; stroke: #262626; stroke-width: 0.8; stroke-linecap: round"/>
    </g>
    <g id="text_5">
     <!-- −0.05 -->
     <g style="fill: #262626" transform="translate(35.519265 114.048523) scale(0.07 -0.07)">
      <defs>
       <path id="DejaVuSerif-2e" d="M 603 325 
Q 603 500 722 622 
Q 841 744 1019 744 
Q 1191 744 1312 622 
Q 1434 500 1434 325 
Q 1434 153 1312 31 
Q 1191 -91 1019 -91 
Q 841 -91 722 29 
Q 603 150 603 325 
z
" transform="scale(0.015625)"/>
       <path id="DejaVuSerif-35" d="M 3219 4666 
L 3219 4153 
L 1081 4153 
L 1081 2816 
Q 1244 2928 1461 2984 
Q 1678 3041 1947 3041 
Q 2703 3041 3140 2622 
Q 3578 2203 3578 1478 
Q 3578 738 3136 323 
Q 2694 -91 1894 -91 
Q 1572 -91 1234 -12 
Q 897 66 544 225 
L 544 1131 
L 897 1131 
Q 925 688 1179 453 
Q 1434 219 1894 219 
Q 2388 219 2653 544 
Q 2919 869 2919 1478 
Q 2919 2084 2655 2407 
Q 2391 2731 1894 2731 
Q 1613 2731 1398 2631 
Q 1184 2531 1019 2322 
L 750 2322 
L 750 4666 
L 3219 4666 
z
" transform="scale(0.015625)"/>
      </defs>
      <use xlink:href="#DejaVuSerif-2212"/>
      <use xlink:href="#DejaVuSerif-30" x="83.789062"/>
      <use xlink:href="#DejaVuSerif-2e" x="147.412109"/>
      <use xlink:href="#DejaVuSerif-30" x="179.199219"/>
      <use xlink:href="#DejaVuSerif-35" x="242.822266"/>
     </g>
    </g>
   </g>
   <g id="xtick_5">
    <g id="line2d_7">
     <path d="M 42.597557 86.244471 
L 41.401672 86.792914 
" style="fill: none; stroke: #262626; stroke-width: 0.8; stroke-linecap: round"/>
    </g>
    <g id="text_6">
     <!-- 0.00 -->
     <g style="fill: #262626" transform="translate(23.872121 106.324461) scale(0.07 -0.07)">
      <use xlink:href="#DejaVuSerif-30"/>
      <use xlink:href="#DejaVuSerif-2e" x="63.623047"/>
      <use xlink:href="#DejaVuSerif-30" x="95.410156"/>
      <use xlink:href="#DejaVuSerif-30" x="159.033203"/>
     </g>
    </g>
   </g>
   <g id="xtick_6">
    <g id="line2d_8">
     <path d="M 28.577166 79.303151 
L 27.384039 79.825927 
" style="fill: none; stroke: #262626; stroke-width: 0.8; stroke-linecap: round"/>
    </g>
    <g id="text_7">
     <!-- 0.05 -->
     <g style="fill: #262626" transform="translate(9.988117 98.969134) scale(0.07 -0.07)">
      <use xlink:href="#DejaVuSerif-30"/>
      <use xlink:href="#DejaVuSerif-2e" x="63.623047"/>
      <use xlink:href="#DejaVuSerif-30" x="95.410156"/>
      <use xlink:href="#DejaVuSerif-35" x="159.033203"/>
     </g>
    </g>
   </g>
   <g id="text_8">
    <!-- $r$ [rad/s] -->
    <g style="fill: #262626" transform="translate(6.828594 120.093506) scale(0.06 -0.06)">
     <defs>
      <path id="DejaVuSans-Oblique-72" d="M 2853 2969 
Q 2766 3016 2653 3041 
Q 2541 3066 2413 3066 
Q 1953 3066 1609 2717 
Q 1266 2369 1153 1784 
L 800 0 
L 225 0 
L 909 3500 
L 1484 3500 
L 1375 2956 
Q 1603 3259 1920 3421 
Q 2238 3584 2597 3584 
Q 2691 3584 2781 3573 
Q 2872 3563 2963 3538 
L 2853 2969 
z
" transform="scale(0.015625)"/>
      <path id="DejaVuSerif-72" d="M 3059 3328 
L 3059 2497 
L 2728 2497 
Q 2713 2744 2591 2866 
Q 2469 2988 2234 2988 
Q 1809 2988 1582 2694 
Q 1356 2400 1356 1850 
L 1356 331 
L 2022 331 
L 2022 0 
L 263 0 
L 263 331 
L 781 331 
L 781 2994 
L 231 2994 
L 231 3322 
L 1356 3322 
L 1356 2731 
Q 1525 3078 1790 3245 
Q 2056 3413 2438 3413 
Q 2578 3413 2733 3391 
Q 2888 3369 3059 3328 
z
" transform="scale(0.015625)"/>
      <path id="DejaVuSerif-61" d="M 2547 1044 
L 2547 1747 
L 1806 1747 
Q 1378 1747 1168 1562 
Q 959 1378 959 997 
Q 959 650 1171 447 
Q 1384 244 1747 244 
Q 2106 244 2326 466 
Q 2547 688 2547 1044 
z
M 3122 2075 
L 3122 331 
L 3634 331 
L 3634 0 
L 2547 0 
L 2547 359 
Q 2356 128 2106 18 
Q 1856 -91 1522 -91 
Q 969 -91 644 203 
Q 319 497 319 997 
Q 319 1513 691 1797 
Q 1063 2081 1741 2081 
L 2547 2081 
L 2547 2309 
Q 2547 2688 2317 2895 
Q 2088 3103 1672 3103 
Q 1328 3103 1125 2947 
Q 922 2791 872 2484 
L 575 2484 
L 575 3156 
Q 875 3284 1158 3348 
Q 1441 3413 1709 3413 
Q 2400 3413 2761 3070 
Q 3122 2728 3122 2075 
z
" transform="scale(0.015625)"/>
      <path id="DejaVuSerif-2f" d="M 1656 4666 
L 2156 4666 
L 500 -594 
L 0 -594 
L 1656 4666 
z
" transform="scale(0.015625)"/>
      <path id="DejaVuSerif-73" d="M 359 184 
L 359 959 
L 691 959 
Q 703 588 923 403 
Q 1144 219 1575 219 
Q 1963 219 2166 364 
Q 2369 509 2369 788 
Q 2369 1006 2220 1140 
Q 2072 1275 1594 1428 
L 1178 1569 
Q 750 1706 558 1912 
Q 366 2119 366 2438 
Q 366 2894 700 3153 
Q 1034 3413 1625 3413 
Q 1888 3413 2178 3344 
Q 2469 3275 2778 3144 
L 2778 2419 
L 2447 2419 
Q 2434 2741 2221 2922 
Q 2009 3103 1644 3103 
Q 1281 3103 1095 2975 
Q 909 2847 909 2591 
Q 909 2381 1050 2254 
Q 1191 2128 1613 1997 
L 2069 1856 
Q 2541 1709 2748 1489 
Q 2956 1269 2956 922 
Q 2956 450 2595 179 
Q 2234 -91 1600 -91 
Q 1278 -91 972 -22 
Q 666 47 359 184 
z
" transform="scale(0.015625)"/>
     </defs>
     <use xlink:href="#DejaVuSans-Oblique-72" transform="translate(0 0.015625)"/>
     <use xlink:href="#DejaVuSerif-20" transform="translate(41.113281 0.015625)"/>
     <use xlink:href="#DejaVuSerif-5b" transform="translate(72.900391 0.015625)"/>
     <use xlink:href="#DejaVuSerif-72" transform="translate(111.914062 0.015625)"/>
     <use xlink:href="#DejaVuSerif-61" transform="translate(159.716797 0.015625)"/>
     <use xlink:href="#DejaVuSerif-64" transform="translate(219.335938 0.015625)"/>
     <use xlink:href="#DejaVuSerif-2f" transform="translate(283.349609 0.015625)"/>
     <use xlink:href="#DejaVuSerif-73" transform="translate(317.041016 0.015625)"/>
     <use xlink:href="#DejaVuSerif-5d" transform="translate(368.359375 0.015625)"/>
    </g>
   </g>
  </g>
  <g id="axis3d_3">
   <g id="line2d_9">
    <path d="M 20.027482 75.435791 
L 18.253024 30.23069 
" style="fill: none; stroke: #000000; stroke-linecap: round"/>
   </g>
   <g id="xtick_7">
    <g id="line2d_10">
     <path d="M 20.084329 66.537308 
L 18.8839 67.033398 
" style="fill: none; stroke: #262626; stroke-width: 0.8; stroke-linecap: round"/>
    </g>
    <g id="text_9">
     <!-- −20 -->
     <g style="fill: #262626" transform="translate(-7.570263 72.021378) scale(0.07 -0.07)">
      <defs>
       <path id="DejaVuSerif-32" d="M 819 3553 
L 469 3553 
L 469 4384 
Q 803 4563 1142 4656 
Q 1481 4750 1806 4750 
Q 2534 4750 2956 4397 
Q 3378 4044 3378 3438 
Q 3378 2753 2422 1800 
Q 2347 1728 2309 1691 
L 1131 513 
L 3078 513 
L 3078 1088 
L 3444 1088 
L 3444 0 
L 434 0 
L 434 341 
L 1850 1753 
Q 2319 2222 2519 2614 
Q 2719 3006 2719 3438 
Q 2719 3909 2473 4175 
Q 2228 4441 1797 4441 
Q 1350 4441 1106 4219 
Q 863 3997 819 3553 
z
" transform="scale(0.015625)"/>
      </defs>
      <use xlink:href="#DejaVuSerif-2212"/>
      <use xlink:href="#DejaVuSerif-32" x="83.789062"/>
      <use xlink:href="#DejaVuSerif-30" x="147.412109"/>
     </g>
    </g>
   </g>
   <g id="xtick_8">
    <g id="line2d_11">
     <path d="M 19.561509 53.100843 
L 18.346476 53.577939 
" style="fill: none; stroke: #262626; stroke-width: 0.8; stroke-linecap: round"/>
    </g>
    <g id="text_10">
     <!-- 0 -->
     <g style="fill: #262626" transform="translate(-3.163728 58.578587) scale(0.07 -0.07)">
      <use xlink:href="#DejaVuSerif-30"/>
     </g>
    </g>
   </g>
   <g id="xtick_9">
    <g id="line2d_12">
     <path d="M 19.026689 39.355991 
L 17.796696 39.813084 
" style="fill: none; stroke: #262626; stroke-width: 0.8; stroke-linecap: round"/>
    </g>
    <g id="text_11">
     <!-- 20 -->
     <g style="fill: #262626" transform="translate(-6.161131 44.827073) scale(0.07 -0.07)">
      <use xlink:href="#DejaVuSerif-32"/>
      <use xlink:href="#DejaVuSerif-30" x="63.623047"/>
     </g>
    </g>
   </g>
   <g id="text_12">
    <!-- $Y_H$ -->
    <g style="fill: #262626" transform="translate(-14.056953 54.915305) scale(0.06 -0.06)">
     <defs>
      <path id="DejaVuSans-Oblique-59" d="M 403 4666 
L 1081 4666 
L 1953 2747 
L 3616 4666 
L 4325 4666 
L 2209 2222 
L 1778 0 
L 1147 0 
L 1575 2222 
L 403 4666 
z
" transform="scale(0.015625)"/>
      <path id="DejaVuSans-Oblique-48" d="M 1081 4666 
L 1716 4666 
L 1344 2753 
L 3634 2753 
L 4006 4666 
L 4641 4666 
L 3731 0 
L 3097 0 
L 3531 2222 
L 1241 2222 
L 806 0 
L 172 0 
L 1081 4666 
z
" transform="scale(0.015625)"/>
     </defs>
     <use xlink:href="#DejaVuSans-Oblique-59" transform="translate(0 0.09375)"/>
     <use xlink:href="#DejaVuSans-Oblique-48" transform="translate(61.083984 -16.3125) scale(0.7)"/>
    </g>
   </g>
  </g>
  <g id="axes_1">
   <g id="Path3DCollection_1">
    <defs>
     <path id="C0_0_9af68dec55" d="M 0 0.176777 
C 0.046882 0.176777 0.09185 0.15815 0.125 0.125 
C 0.15815 0.09185 0.176777 0.046882 0.176777 -0 
C 0.176777 -0.046882 0.15815 -0.09185 0.125 -0.125 
C 0.09185 -0.15815 0.046882 -0.176777 0 -0.176777 
C -0.046882 -0.176777 -0.09185 -0.15815 -0.125 -0.125 
C -0.15815 -0.09185 -0.176777 -0.046882 -0.176777 0 
C -0.176777 0.046882 -0.15815 0.09185 -0.125 0.125 
C -0.09185 0.15815 -0.046882 0.176777 0 0.176777 
z
"/>
    </defs>
    <g clip-path="url(#p52fdb054a2)">
     <use xlink:href="#C0_0_9af68dec55" x="66.165976" y="17.971048" style="fill-opacity: 0.3; stroke: #000000; stroke-opacity: 0.3"/>
    </g>
    <g clip-path="url(#p52fdb054a2)">
     <use xlink:href="#C0_0_9af68dec55" x="57.96493" y="28.005122" style="fill-opacity: 0.350424; stroke: #000000; stroke-opacity: 0.350424"/>
    </g>
    <g clip-path="url(#p52fdb054a2)">
     <use xlink:href="#C0_0_9af68dec55" x="72.367654" y="22.935988" style="fill-opacity: 0.352244; stroke: #000000; stroke-opacity: 0.352244"/>
    </g>
    <g clip-path="url(#p52fdb054a2)">
     <use xlink:href="#C0_0_9af68dec55" x="69.094685" y="27.214728" style="fill-opacity: 0.371343; stroke: #000000; stroke-opacity: 0.371343"/>
    </g>
    <g clip-path="url(#p52fdb054a2)">
     <use xlink:href="#C0_0_9af68dec55" x="64.148125" y="32.535322" style="fill-opacity: 0.406525; stroke: #000000; stroke-opacity: 0.406525"/>
    </g>
    <g clip-path="url(#p52fdb054a2)">
     <use xlink:href="#C0_0_9af68dec55" x="75.952051" y="31.376732" style="fill-opacity: 0.437077; stroke: #000000; stroke-opacity: 0.437077"/>
    </g>
    <g clip-path="url(#p52fdb054a2)">
     <use xlink:href="#C0_0_9af68dec55" x="59.146637" y="37.437386" style="fill-opacity: 0.444728; stroke: #000000; stroke-opacity: 0.444728"/>
    </g>
    <g clip-path="url(#p52fdb054a2)">
     <use xlink:href="#C0_0_9af68dec55" x="70.984489" y="38.931338" style="fill-opacity: 0.460846; stroke: #000000; stroke-opacity: 0.460846"/>
    </g>
    <g clip-path="url(#p52fdb054a2)">
     <use xlink:href="#C0_0_9af68dec55" x="55.782058" y="40.895528" style="fill-opacity: 0.469545; stroke: #000000; stroke-opacity: 0.469545"/>
    </g>
    <g clip-path="url(#p52fdb054a2)">
     <use xlink:href="#C0_0_9af68dec55" x="65.981306" y="42.482267" style="fill-opacity: 0.507752; stroke: #000000; stroke-opacity: 0.507752"/>
    </g>
    <g clip-path="url(#p52fdb054a2)">
     <use xlink:href="#C0_0_9af68dec55" x="48.997216" y="49.201847" style="fill-opacity: 0.512243; stroke: #000000; stroke-opacity: 0.512243"/>
    </g>
    <g clip-path="url(#p52fdb054a2)">
     <use xlink:href="#C0_0_9af68dec55" x="62.609342" y="45.570141" style="fill-opacity: 0.535433; stroke: #000000; stroke-opacity: 0.535433"/>
    </g>
    <g clip-path="url(#p52fdb054a2)">
     <use xlink:href="#C0_0_9af68dec55" x="55.789224" y="52.553341" style="fill-opacity: 0.587245; stroke: #000000; stroke-opacity: 0.587245"/>
    </g>
    <g clip-path="url(#p52fdb054a2)">
     <use xlink:href="#C0_0_9af68dec55" x="52.342497" y="56.2626" style="fill-opacity: 0.612411; stroke: #000000; stroke-opacity: 0.612411"/>
    </g>
    <g clip-path="url(#p52fdb054a2)">
     <use xlink:href="#C0_0_9af68dec55" x="85.14382" y="42.447868" style="fill-opacity: 0.627403; stroke: #000000; stroke-opacity: 0.627403"/>
    </g>
    <g clip-path="url(#p52fdb054a2)">
     <use xlink:href="#C0_0_9af68dec55" x="47.160541" y="64.087211" style="fill-opacity: 0.637523; stroke: #000000; stroke-opacity: 0.637523"/>
    </g>
    <g clip-path="url(#p52fdb054a2)">
     <use xlink:href="#C0_0_9af68dec55" x="80.069481" y="50.239376" style="fill-opacity: 0.652623; stroke: #000000; stroke-opacity: 0.652623"/>
    </g>
    <g clip-path="url(#p52fdb054a2)">
     <use xlink:href="#C0_0_9af68dec55" x="76.679199" y="53.97531" style="fill-opacity: 0.678267; stroke: #000000; stroke-opacity: 0.678267"/>
    </g>
    <g clip-path="url(#p52fdb054a2)">
     <use xlink:href="#C0_0_9af68dec55" x="69.824524" y="61.169561" style="fill-opacity: 0.732266; stroke: #000000; stroke-opacity: 0.732266"/>
    </g>
    <g clip-path="url(#p52fdb054a2)">
     <use xlink:href="#C0_0_9af68dec55" x="83.948489" y="57.462575" style="fill-opacity: 0.756973; stroke: #000000; stroke-opacity: 0.756973"/>
    </g>
    <g clip-path="url(#p52fdb054a2)">
     <use xlink:href="#C0_0_9af68dec55" x="66.357503" y="64.437296" style="fill-opacity: 0.761797; stroke: #000000; stroke-opacity: 0.761797"/>
    </g>
    <g clip-path="url(#p52fdb054a2)">
     <use xlink:href="#C0_0_9af68dec55" x="77.059414" y="66.230521" style="fill-opacity: 0.803367; stroke: #000000; stroke-opacity: 0.803367"/>
    </g>
    <g clip-path="url(#p52fdb054a2)">
     <use xlink:href="#C0_0_9af68dec55" x="61.097748" y="68.330575" style="fill-opacity: 0.812966; stroke: #000000; stroke-opacity: 0.812966"/>
    </g>
    <g clip-path="url(#p52fdb054a2)">
     <use xlink:href="#C0_0_9af68dec55" x="73.585196" y="69.983348" style="fill-opacity: 0.830884; stroke: #000000; stroke-opacity: 0.830884"/>
    </g>
    <g clip-path="url(#p52fdb054a2)">
     <use xlink:href="#C0_0_9af68dec55" x="55.79833" y="76.443097" style="fill-opacity: 0.839452; stroke: #000000; stroke-opacity: 0.839452"/>
    </g>
    <g clip-path="url(#p52fdb054a2)">
     <use xlink:href="#C0_0_9af68dec55" x="68.323796" y="75.421606" style="fill-opacity: 0.874066; stroke: #000000; stroke-opacity: 0.874066"/>
    </g>
    <g clip-path="url(#p52fdb054a2)">
     <use xlink:href="#C0_0_9af68dec55" x="62.999915" y="81.415386" style="fill-opacity: 0.914736; stroke: #000000; stroke-opacity: 0.914736"/>
    </g>
    <g clip-path="url(#p52fdb054a2)">
     <use xlink:href="#C0_0_9af68dec55" x="59.421717" y="86.236368" style="fill-opacity: 0.93719; stroke: #000000; stroke-opacity: 0.93719"/>
    </g>
    <g clip-path="url(#p52fdb054a2)">
     <use xlink:href="#C0_0_9af68dec55" x="75.089595" y="80.739354" style="fill-opacity: 0.939344; stroke: #000000; stroke-opacity: 0.939344"/>
    </g>
    <g clip-path="url(#p52fdb054a2)">
     <use xlink:href="#C0_0_9af68dec55" x="66.165976" y="92.272043" style="stroke: #000000"/>
    </g>
   </g>
   <g id="Poly3DCollection_1">
    <path d="M 66.165976 23.95622 
L 68.225234 21.017735 
L 66.165976 20.243965 
L 64.110323 23.171462 
z
" clip-path="url(#p52fdb054a2)" style="fill: #b40426; fill-opacity: 0.75"/>
    <path d="M 64.099862 26.701598 
L 66.165976 23.95622 
L 64.110323 23.171462 
L 62.047512 25.906329 
z
" clip-path="url(#p52fdb054a2)" style="fill: #cb3e38; fill-opacity: 0.75"/>
    <path d="M 68.235261 24.822654 
L 70.298 21.873162 
L 68.225234 21.017735 
L 66.165976 23.95622 
z
" clip-path="url(#p52fdb054a2)" style="fill: #b40426; fill-opacity: 0.75"/>
    <path d="M 62.025903 29.275592 
L 64.099862 26.701598 
L 62.047512 25.906329 
L 59.97659 28.470229 
z
" clip-path="url(#p52fdb054a2)" style="fill: #dd5f4b; fill-opacity: 0.75"/>
    <path d="M 66.165976 27.578584 
L 68.235261 24.822654 
L 66.165976 23.95622 
L 64.099862 26.701598 
z
" clip-path="url(#p52fdb054a2)" style="fill: #cc403a; fill-opacity: 0.75"/>
    <path d="M 59.943243 31.700647 
L 62.025903 29.275592 
L 59.97659 28.470229 
L 57.896743 30.885543 
z
" clip-path="url(#p52fdb054a2)" style="fill: #e97a5f; fill-opacity: 0.75"/>
    <path d="M 70.317955 25.762397 
L 72.384063 22.801872 
L 70.298 21.873162 
L 68.235261 24.822654 
z
" clip-path="url(#p52fdb054a2)" style="fill: #b50927; fill-opacity: 0.75"/>
    <path d="M 64.089115 30.162735 
L 66.165976 27.578584 
L 64.099862 26.701598 
L 62.025903 29.275592 
z
" clip-path="url(#p52fdb054a2)" style="fill: #de614d; fill-opacity: 0.75"/>
    <path d="M 57.851173 33.999873 
L 59.943243 31.700647 
L 57.896743 30.885543 
L 55.807301 33.175319 
z
" clip-path="url(#p52fdb054a2)" style="fill: #f18f71; fill-opacity: 0.75"/>
    <path d="M 68.245616 28.528925 
L 70.317955 25.762397 
L 68.235261 24.822654 
L 66.165976 27.578584 
z
" clip-path="url(#p52fdb054a2)" style="fill: #cd423b; fill-opacity: 0.75"/>
    <path d="M 62.003783 32.597609 
L 64.089115 30.162735 
L 62.025903 29.275592 
L 59.943243 31.700647 
z
" clip-path="url(#p52fdb054a2)" style="fill: #e97a5f; fill-opacity: 0.75"/>
    <path d="M 55.749132 36.196985 
L 57.851173 33.999873 
L 55.807301 33.175319 
L 53.707745 35.363207 
z
" clip-path="url(#p52fdb054a2)" style="fill: #f6a283; fill-opacity: 0.75"/>
    <path d="M 72.41389 26.766974 
L 74.483268 23.795384 
L 72.384063 22.801872 
L 70.317955 25.762397 
z
" clip-path="url(#p52fdb054a2)" style="fill: #b70d28; fill-opacity: 0.75"/>
    <path d="M 66.165976 31.123295 
L 68.245616 28.528925 
L 66.165976 27.578584 
L 64.089115 30.162735 
z
" clip-path="url(#p52fdb054a2)" style="fill: #df634e; fill-opacity: 0.75"/>
    <path d="M 59.909229 34.906381 
L 62.003783 32.597609 
L 59.943243 31.700647 
L 57.851173 33.999873 
z
" clip-path="url(#p52fdb054a2)" style="fill: #f29072; fill-opacity: 0.75"/>
    <path d="M 70.3386 29.544149 
L 72.41389 26.766974 
L 70.317955 25.762397 
L 68.245616 28.528925 
z
" clip-path="url(#p52fdb054a2)" style="fill: #cf453c; fill-opacity: 0.75"/>
    <path d="M 53.636723 38.316231 
L 55.749132 36.196985 
L 53.707745 35.363207 
L 51.59772 37.473389 
z
" clip-path="url(#p52fdb054a2)" style="fill: #f7b194; fill-opacity: 0.75"/>
    <path d="M 64.078098 33.56807 
L 66.165976 31.123295 
L 64.089115 30.162735 
L 62.003783 32.597609 
z
" clip-path="url(#p52fdb054a2)" style="fill: #ea7b60; fill-opacity: 0.75"/>
    <path d="M 74.522953 27.827808 
L 76.595516 24.845114 
L 74.483268 23.795384 
L 72.41389 26.766974 
z
" clip-path="url(#p52fdb054a2)" style="fill: #ba162b; fill-opacity: 0.75"/>
    <path d="M 57.80485 37.112826 
L 59.909229 34.906381 
L 57.851173 33.999873 
L 55.749132 36.196985 
z
" clip-path="url(#p52fdb054a2)" style="fill: #f6a283; fill-opacity: 0.75"/>
    <path d="M 68.256288 32.148805 
L 70.3386 29.544149 
L 68.245616 28.528925 
L 66.165976 31.123295 
z
" clip-path="url(#p52fdb054a2)" style="fill: #e0654f; fill-opacity: 0.75"/>
    <path d="M 61.981189 35.88648 
L 64.078098 33.56807 
L 62.003783 32.597609 
L 59.909229 34.906381 
z
" clip-path="url(#p52fdb054a2)" style="fill: #f29274; fill-opacity: 0.75"/>
    <path d="M 51.513712 40.382308 
L 53.636723 38.316231 
L 51.59772 37.473389 
L 49.477035 39.530494 
z
" clip-path="url(#p52fdb054a2)" style="fill: #f6bea4; fill-opacity: 0.75"/>
    <path d="M 72.444801 30.615686 
L 74.522953 27.827808 
L 72.41389 26.766974 
L 70.3386 29.544149 
z
" clip-path="url(#p52fdb054a2)" style="fill: #d1493f; fill-opacity: 0.75"/>
    <path d="M 66.165976 34.603559 
L 68.256288 32.148805 
L 66.165976 31.123295 
L 64.078098 33.56807 
z
" clip-path="url(#p52fdb054a2)" style="fill: #ec7f63; fill-opacity: 0.75"/>
    <path d="M 55.690207 39.241255 
L 57.80485 37.112826 
L 55.749132 36.196985 
L 53.636723 38.316231 
z
" clip-path="url(#p52fdb054a2)" style="fill: #f7b194; fill-opacity: 0.75"/>
    <path d="M 76.645088 28.936234 
L 78.720767 25.942387 
L 76.595516 24.845114 
L 74.522953 27.827808 
z
" clip-path="url(#p52fdb054a2)" style="fill: #be242e; fill-opacity: 0.75"/>
    <path d="M 59.874606 38.102363 
L 61.981189 35.88648 
L 59.909229 34.906381 
L 57.80485 37.112826 
z
" clip-path="url(#p52fdb054a2)" style="fill: #f6a385; fill-opacity: 0.75"/>
    <path d="M 70.35991 33.230696 
L 72.444801 30.615686 
L 70.3386 29.544149 
L 68.256288 32.148805 
z
" clip-path="url(#p52fdb054a2)" style="fill: #e26952; fill-opacity: 0.75"/>
    <path d="M 49.380041 42.420268 
L 51.513712 40.382308 
L 49.477035 39.530494 
L 47.345672 41.559508 
z
" clip-path="url(#p52fdb054a2)" style="fill: #f2c9b4; fill-opacity: 0.75"/>
    <path d="M 64.066828 36.9317 
L 66.165976 34.603559 
L 64.078098 33.56807 
L 61.981189 35.88648 
z
" clip-path="url(#p52fdb054a2)" style="fill: #f39475; fill-opacity: 0.75"/>
    <path d="M 53.565024 41.316429 
L 55.690207 39.241255 
L 53.636723 38.316231 
L 51.513712 40.382308 
z
" clip-path="url(#p52fdb054a2)" style="fill: #f6bea4; fill-opacity: 0.75"/>
    <path d="M 74.564149 31.734873 
L 76.645088 28.936234 
L 74.522953 27.827808 
L 72.444801 30.615686 
z
" clip-path="url(#p52fdb054a2)" style="fill: #d44e41; fill-opacity: 0.75"/>
    <path d="M 68.267261 35.695509 
L 70.35991 33.230696 
L 68.256288 32.148805 
L 66.165976 34.603559 
z
" clip-path="url(#p52fdb054a2)" style="fill: #ed8366; fill-opacity: 0.75"/>
    <path d="M 57.757866 40.240089 
L 59.874606 38.102363 
L 57.80485 37.112826 
L 55.690207 39.241255 
z
" clip-path="url(#p52fdb054a2)" style="fill: #f7b396; fill-opacity: 0.75"/>
    <path d="M 47.235827 44.455418 
L 49.380041 42.420268 
L 47.345672 41.559508 
L 45.203792 43.58567 
z
" clip-path="url(#p52fdb054a2)" style="fill: #edd1c2; fill-opacity: 0.75"/>
    <path d="M 78.780299 30.083495 
L 80.859038 27.078442 
L 78.720767 25.942387 
L 76.645088 28.936234 
z
" clip-path="url(#p52fdb054a2)" style="fill: #c12b30; fill-opacity: 0.75"/>
    <path d="M 61.95816 39.157122 
L 64.066828 36.9317 
L 61.981189 35.88648 
L 59.874606 38.102363 
z
" clip-path="url(#p52fdb054a2)" style="fill: #f7a688; fill-opacity: 0.75"/>
    <path d="M 72.476758 34.360306 
L 74.564149 31.734873 
L 72.444801 30.615686 
L 70.35991 33.230696 
z
" clip-path="url(#p52fdb054a2)" style="fill: #e36c55; fill-opacity: 0.75"/>
    <path d="M 51.429199 43.363466 
L 53.565024 41.316429 
L 51.513712 40.382308 
L 49.380041 42.420268 
z
" clip-path="url(#p52fdb054a2)" style="fill: #f2c9b4; fill-opacity: 0.75"/>
    <path d="M 66.165976 38.03347 
L 68.267261 35.695509 
L 66.165976 34.603559 
L 64.066828 36.9317 
z
" clip-path="url(#p52fdb054a2)" style="fill: #f39778; fill-opacity: 0.75"/>
    <path d="M 76.696633 32.892959 
L 78.780299 30.083495 
L 76.645088 28.936234 
L 74.564149 31.734873 
z
" clip-path="url(#p52fdb054a2)" style="fill: #d75445; fill-opacity: 0.75"/>
    <path d="M 55.630649 42.324481 
L 57.757866 40.240089 
L 55.690207 39.241255 
L 53.565024 41.316429 
z
" clip-path="url(#p52fdb054a2)" style="fill: #f6bfa6; fill-opacity: 0.75"/>
    <path d="M 45.081369 46.513201 
L 47.235827 44.455418 
L 45.203792 43.58567 
L 43.051737 45.634352 
z
" clip-path="url(#p52fdb054a2)" style="fill: #e5d8d1; fill-opacity: 0.75"/>
    <path d="M 70.381854 36.835258 
L 72.476758 34.360306 
L 70.35991 33.230696 
L 68.267261 35.695509 
z
" clip-path="url(#p52fdb054a2)" style="fill: #ee8669; fill-opacity: 0.75"/>
    <path d="M 59.839444 41.304255 
L 61.95816 39.157122 
L 59.874606 38.102363 
L 57.757866 40.240089 
z
" clip-path="url(#p52fdb054a2)" style="fill: #f7b599; fill-opacity: 0.75"/>
    <path d="M 80.928654 31.260752 
L 83.010412 28.24443 
L 80.859038 27.078442 
L 78.780299 30.083495 
z
" clip-path="url(#p52fdb054a2)" style="fill: #c53334; fill-opacity: 0.75"/>
    <path d="M 49.282808 45.407737 
L 51.429199 43.363466 
L 49.380041 42.420268 
L 47.235827 44.455418 
z
" clip-path="url(#p52fdb054a2)" style="fill: #edd1c2; fill-opacity: 0.75"/>
    <path d="M 74.606807 35.528887 
L 76.696633 32.892959 
L 74.564149 31.734873 
L 72.476758 34.360306 
z
" clip-path="url(#p52fdb054a2)" style="fill: #e67259; fill-opacity: 0.75"/>
    <path d="M 64.055326 40.26853 
L 66.165976 38.03347 
L 64.066828 36.9317 
L 61.95816 39.157122 
z
" clip-path="url(#p52fdb054a2)" style="fill: #f7a98b; fill-opacity: 0.75"/>
    <path d="M 53.492811 44.38072 
L 55.630649 42.324481 
L 53.565024 41.316429 
L 51.429199 43.363466 
z
" clip-path="url(#p52fdb054a2)" style="fill: #f2cab5; fill-opacity: 0.75"/>
    <path d="M 68.278518 39.183128 
L 70.381854 36.835258 
L 68.267261 35.695509 
L 66.165976 38.03347 
z
" clip-path="url(#p52fdb054a2)" style="fill: #f59c7d; fill-opacity: 0.75"/>
    <path d="M 42.917153 48.619068 
L 45.081369 46.513201 
L 43.051737 45.634352 
L 40.890032 47.730939 
z
" clip-path="url(#p52fdb054a2)" style="fill: #dcdddd; fill-opacity: 0.75"/>
    <path d="M 78.842305 34.08111 
L 80.928654 31.260752 
L 78.780299 30.083495 
L 76.696633 32.892959 
z
" clip-path="url(#p52fdb054a2)" style="fill: #da5a49; fill-opacity: 0.75"/>
    <path d="M 57.710317 43.397981 
L 59.839444 41.304255 
L 57.757866 40.240089 
L 55.630649 42.324481 
z
" clip-path="url(#p52fdb054a2)" style="fill: #f5c1a9; fill-opacity: 0.75"/>
    <path d="M 72.509717 38.014058 
L 74.606807 35.528887 
L 72.476758 34.360306 
L 70.381854 36.835258 
z
" clip-path="url(#p52fdb054a2)" style="fill: #f08b6e; fill-opacity: 0.75"/>
    <path d="M 47.126106 47.474752 
L 49.282808 45.407737 
L 47.235827 44.455418 
L 45.081369 46.513201 
z
" clip-path="url(#p52fdb054a2)" style="fill: #e5d8d1; fill-opacity: 0.75"/>
    <path d="M 61.93474 42.425175 
L 64.055326 40.26853 
L 61.95816 39.157122 
L 59.839444 41.304255 
z
" clip-path="url(#p52fdb054a2)" style="fill: #f7b89c; fill-opacity: 0.75"/>
    <path d="M 83.09028 32.459088 
L 85.175032 29.431427 
L 83.010412 28.24443 
L 80.928654 31.260752 
z
" clip-path="url(#p52fdb054a2)" style="fill: #ca3b37; fill-opacity: 0.75"/>
    <path d="M 51.344383 46.43424 
L 53.492811 44.38072 
L 51.429199 43.363466 
L 49.282808 45.407737 
z
" clip-path="url(#p52fdb054a2)" style="fill: #edd2c3; fill-opacity: 0.75"/>
    <path d="M 76.750093 36.727609 
L 78.842305 34.08111 
L 76.696633 32.892959 
L 74.606807 35.528887 
z
" clip-path="url(#p52fdb054a2)" style="fill: #e9785d; fill-opacity: 0.75"/>
    <path d="M 66.165976 41.427921 
L 68.278518 39.183128 
L 66.165976 38.03347 
L 64.055326 40.26853 
z
" clip-path="url(#p52fdb054a2)" style="fill: #f7ac8e; fill-opacity: 0.75"/>
    <path d="M 40.743846 50.798344 
L 42.917153 48.619068 
L 40.890032 47.730939 
L 38.719385 49.900687 
z
" clip-path="url(#p52fdb054a2)" style="fill: #d2dbe8; fill-opacity: 0.75"/>
    <path d="M 55.570591 45.463542 
L 57.710317 43.397981 
L 55.630649 42.324481 
L 53.492811 44.38072 
z
" clip-path="url(#p52fdb054a2)" style="fill: #f2cbb7; fill-opacity: 0.75"/>
    <path d="M 70.4044 40.371923 
L 72.509717 38.014058 
L 70.381854 36.835258 
L 68.278518 39.183128 
z
" clip-path="url(#p52fdb054a2)" style="fill: #f59f80; fill-opacity: 0.75"/>
    <path d="M 81.001281 35.290415 
L 83.09028 32.459088 
L 80.928654 31.260752 
L 78.842305 34.08111 
z
" clip-path="url(#p52fdb054a2)" style="fill: #de614d; fill-opacity: 0.75"/>
    <path d="M 44.959536 49.590027 
L 47.126106 47.474752 
L 45.081369 46.513201 
L 42.917153 48.619068 
z
" clip-path="url(#p52fdb054a2)" style="fill: #dbdcde; fill-opacity: 0.75"/>
    <path d="M 59.803813 44.528347 
L 61.93474 42.425175 
L 59.839444 41.304255 
L 57.710317 43.397981 
z
" clip-path="url(#p52fdb054a2)" style="fill: #f5c4ac; fill-opacity: 0.75"/>
    <path d="M 74.650871 39.22308 
L 76.750093 36.727609 
L 74.606807 35.528887 
L 72.509717 38.014058 
z
" clip-path="url(#p52fdb054a2)" style="fill: #f18f71; fill-opacity: 0.75"/>
    <path d="M 49.18558 48.510613 
L 51.344383 46.43424 
L 49.282808 45.407737 
L 47.126106 47.474752 
z
" clip-path="url(#p52fdb054a2)" style="fill: #e4d9d2; fill-opacity: 0.75"/>
    <path d="M 64.043612 43.59418 
L 66.165976 41.427921 
L 64.055326 40.26853 
L 61.93474 42.425175 
z
" clip-path="url(#p52fdb054a2)" style="fill: #f7ba9f; fill-opacity: 0.75"/>
    <path d="M 85.265374 33.669506 
L 87.353108 30.630427 
L 85.175032 29.431427 
L 83.09028 32.459088 
z
" clip-path="url(#p52fdb054a2)" style="fill: #cd423b; fill-opacity: 0.75"/>
    <path d="M 38.562302 53.076078 
L 40.743846 50.798344 
L 38.719385 49.900687 
L 36.54069 52.168578 
z
" clip-path="url(#p52fdb054a2)" style="fill: #c5d6f2; fill-opacity: 0.75"/>
    <path d="M 78.906717 37.947562 
L 81.001281 35.290415 
L 78.842305 34.08111 
L 76.750093 36.727609 
z
" clip-path="url(#p52fdb054a2)" style="fill: #eb7d62; fill-opacity: 0.75"/>
    <path d="M 53.420254 47.526433 
L 55.570591 45.463542 
L 53.492811 44.38072 
L 51.344383 46.43424 
z
" clip-path="url(#p52fdb054a2)" style="fill: #ebd3c6; fill-opacity: 0.75"/>
    <path d="M 68.29004 42.626542 
L 70.4044 40.371923 
L 68.278518 39.183128 
L 66.165976 41.427921 
z
" clip-path="url(#p52fdb054a2)" style="fill: #f7b093; fill-opacity: 0.75"/>
    <path d="M 42.783727 51.778953 
L 44.959536 49.590027 
L 42.917153 48.619068 
L 40.743846 50.798344 
z
" clip-path="url(#p52fdb054a2)" style="fill: #d1dae9; fill-opacity: 0.75"/>
    <path d="M 57.66231 46.603344 
L 59.803813 44.528347 
L 57.710317 43.397981 
L 55.570591 45.463542 
z
" clip-path="url(#p52fdb054a2)" style="fill: #f1cdba; fill-opacity: 0.75"/>
    <path d="M 72.54363 41.591025 
L 74.650871 39.22308 
L 72.509717 38.014058 
L 70.4044 40.371923 
z
" clip-path="url(#p52fdb054a2)" style="fill: #f6a385; fill-opacity: 0.75"/>
    <path d="M 83.173739 36.511881 
L 85.265374 33.669506 
L 83.09028 32.459088 
L 81.001281 35.290415 
z
" clip-path="url(#p52fdb054a2)" style="fill: #e16751; fill-opacity: 0.75"/>
    <path d="M 61.910977 45.706903 
L 64.043612 43.59418 
L 61.93474 42.425175 
L 59.803813 44.528347 
z
" clip-path="url(#p52fdb054a2)" style="fill: #f4c6af; fill-opacity: 0.75"/>
    <path d="M 47.016799 50.63542 
L 49.18558 48.510613 
L 47.126106 47.474752 
L 44.959536 49.590027 
z
" clip-path="url(#p52fdb054a2)" style="fill: #dadce0; fill-opacity: 0.75"/>
    <path d="M 36.373556 55.476884 
L 38.562302 53.076078 
L 36.54069 52.168578 
L 34.355021 54.559158 
z
" clip-path="url(#p52fdb054a2)" style="fill: #b6cefa; fill-opacity: 0.75"/>
    <path d="M 76.805399 40.453412 
L 78.906717 37.947562 
L 76.750093 36.727609 
L 74.650871 39.22308 
z
" clip-path="url(#p52fdb054a2)" style="fill: #f39475; fill-opacity: 0.75"/>
    <path d="M 66.165976 44.802513 
L 68.29004 42.626542 
L 66.165976 41.427921 
L 64.043612 43.59418 
z
" clip-path="url(#p52fdb054a2)" style="fill: #f6bda2; fill-opacity: 0.75"/>
    <path d="M 51.259475 49.612285 
L 53.420254 47.526433 
L 51.344383 46.43424 
L 49.18558 48.510613 
z
" clip-path="url(#p52fdb054a2)" style="fill: #e3d9d3; fill-opacity: 0.75"/>
    <path d="M 87.454198 34.882934 
L 89.544919 31.832349 
L 87.353108 30.630427 
L 85.265374 33.669506 
z
" clip-path="url(#p52fdb054a2)" style="fill: #d1493f; fill-opacity: 0.75"/>
    <path d="M 40.599489 54.066642 
L 42.783727 51.778953 
L 40.743846 50.798344 
L 38.562302 53.076078 
z
" clip-path="url(#p52fdb054a2)" style="fill: #c4d5f3; fill-opacity: 0.75"/>
    <path d="M 81.076843 39.179757 
L 83.173739 36.511881 
L 81.001281 35.290415 
L 78.906717 37.947562 
z
" clip-path="url(#p52fdb054a2)" style="fill: #ed8366; fill-opacity: 0.75"/>
    <path d="M 70.42751 43.855559 
L 72.54363 41.591025 
L 70.4044 40.371923 
L 68.29004 42.626542 
z
" clip-path="url(#p52fdb054a2)" style="fill: #f7b396; fill-opacity: 0.75"/>
    <path d="M 55.510174 48.675721 
L 57.66231 46.603344 
L 55.570591 45.463542 
L 53.420254 47.526433 
z
" clip-path="url(#p52fdb054a2)" style="fill: #ead5c9; fill-opacity: 0.75"/>
    <path d="M 34.178821 58.024773 
L 36.373556 55.476884 
L 34.355021 54.559158 
L 32.163626 57.096379 
z
" clip-path="url(#p52fdb054a2)" style="fill: #a6c4fe; fill-opacity: 0.75"/>
    <path d="M 44.838628 52.834113 
L 47.016799 50.63542 
L 44.959536 49.590027 
L 42.783727 51.778953 
z
" clip-path="url(#p52fdb054a2)" style="fill: #cfdaea; fill-opacity: 0.75"/>
    <path d="M 59.767792 47.791445 
L 61.910977 45.706903 
L 59.803813 44.528347 
L 57.66231 46.603344 
z
" clip-path="url(#p52fdb054a2)" style="fill: #efcfbf; fill-opacity: 0.75"/>
    <path d="M 74.696276 42.831522 
L 76.805399 40.453412 
L 74.650871 39.22308 
L 72.54363 41.591025 
z
" clip-path="url(#p52fdb054a2)" style="fill: #f7a889; fill-opacity: 0.75"/>
    <path d="M 85.359927 37.736443 
L 87.454198 34.882934 
L 85.265374 33.669506 
L 83.173739 36.511881 
z
" clip-path="url(#p52fdb054a2)" style="fill: #e36c55; fill-opacity: 0.75"/>
    <path d="M 64.031711 46.924887 
L 66.165976 44.802513 
L 64.043612 43.59418 
L 61.910977 45.706903 
z
" clip-path="url(#p52fdb054a2)" style="fill: #f2c9b4; fill-opacity: 0.75"/>
    <path d="M 49.088611 51.746742 
L 51.259475 49.612285 
L 49.18558 48.510613 
L 47.016799 50.63542 
z
" clip-path="url(#p52fdb054a2)" style="fill: #d9dce1; fill-opacity: 0.75"/>
    <path d="M 78.973454 41.69607 
L 81.076843 39.179757 
L 78.906717 37.947562 
L 76.805399 40.453412 
z
" clip-path="url(#p52fdb054a2)" style="fill: #f4987a; fill-opacity: 0.75"/>
    <path d="M 38.407821 56.477771 
L 40.599489 54.066642 
L 38.562302 53.076078 
L 36.373556 55.476884 
z
" clip-path="url(#p52fdb054a2)" style="fill: #b6cefa; fill-opacity: 0.75"/>
    <path d="M 68.301806 46.041333 
L 70.42751 43.855559 
L 68.29004 42.626542 
L 66.165976 44.802513 
z
" clip-path="url(#p52fdb054a2)" style="fill: #f5c0a7; fill-opacity: 0.75"/>
    <path d="M 53.347532 50.771169 
L 55.510174 48.675721 
L 53.420254 47.526433 
L 51.259475 49.612285 
z
" clip-path="url(#p52fdb054a2)" style="fill: #e1dad6; fill-opacity: 0.75"/>
    <path d="M 89.657085 36.09022 
L 91.750812 33.028032 
L 89.544919 31.832349 
L 87.454198 34.882934 
z
" clip-path="url(#p52fdb054a2)" style="fill: #d55042; fill-opacity: 0.75"/>
    <path d="M 31.97948 60.74299 
L 34.178821 58.024773 
L 32.163626 57.096379 
L 29.967924 59.803421 
z
" clip-path="url(#p52fdb054a2)" style="fill: #93b5fe; fill-opacity: 0.75"/>
    <path d="M 83.260704 40.415132 
L 85.359927 37.736443 
L 83.173739 36.511881 
L 81.076843 39.179757 
z
" clip-path="url(#p52fdb054a2)" style="fill: #ef886b; fill-opacity: 0.75"/>
    <path d="M 42.651838 55.131866 
L 44.838628 52.834113 
L 42.783727 51.778953 
L 40.599489 54.066642 
z
" clip-path="url(#p52fdb054a2)" style="fill: #c3d5f4; fill-opacity: 0.75"/>
    <path d="M 72.578441 45.106057 
L 74.696276 42.831522 
L 72.54363 41.591025 
L 70.42751 43.855559 
z
" clip-path="url(#p52fdb054a2)" style="fill: #f7b79b; fill-opacity: 0.75"/>
    <path d="M 57.613954 49.873418 
L 59.767792 47.791445 
L 57.66231 46.603344 
L 55.510174 48.675721 
z
" clip-path="url(#p52fdb054a2)" style="fill: #e8d6cc; fill-opacity: 0.75"/>
    <path d="M 61.886923 49.019077 
L 64.031711 46.924887 
L 61.910977 45.706903 
L 59.767792 47.791445 
z
" clip-path="url(#p52fdb054a2)" style="fill: #edd1c2; fill-opacity: 0.75"/>
    <path d="M 76.862474 44.084425 
L 78.973454 41.69607 
L 76.805399 40.453412 
L 74.696276 42.831522 
z
" clip-path="url(#p52fdb054a2)" style="fill: #f7ac8e; fill-opacity: 0.75"/>
    <path d="M 46.908205 53.955315 
L 49.088611 51.746742 
L 47.016799 50.63542 
L 44.838628 52.834113 
z
" clip-path="url(#p52fdb054a2)" style="fill: #cedaeb; fill-opacity: 0.75"/>
    <path d="M 36.209897 59.036413 
L 38.407821 56.477771 
L 36.373556 55.476884 
L 34.178821 58.024773 
z
" clip-path="url(#p52fdb054a2)" style="fill: #a5c3fe; fill-opacity: 0.75"/>
    <path d="M 87.560163 38.954955 
L 89.657085 36.09022 
L 87.454198 34.882934 
L 85.359927 37.736443 
z
" clip-path="url(#p52fdb054a2)" style="fill: #e67259; fill-opacity: 0.75"/>
    <path d="M 29.777079 63.653825 
L 31.97948 60.74299 
L 29.967924 59.803421 
L 27.769494 62.702518 
z
" clip-path="url(#p52fdb054a2)" style="fill: #7ea1fa; fill-opacity: 0.75"/>
    <path d="M 66.165976 48.173454 
L 68.301806 46.041333 
L 66.165976 44.802513 
L 64.031711 46.924887 
z
" clip-path="url(#p52fdb054a2)" style="fill: #f2cbb7; fill-opacity: 0.75"/>
    <path d="M 51.174696 52.915389 
L 53.347532 50.771169 
L 51.259475 49.612285 
L 49.088611 51.746742 
z
" clip-path="url(#p52fdb054a2)" style="fill: #d7dce3; fill-opacity: 0.75"/>
    <path d="M 81.15525 42.941988 
L 83.260704 40.415132 
L 81.076843 39.179757 
L 78.973454 41.69607 
z
" clip-path="url(#p52fdb054a2)" style="fill: #f59d7e; fill-opacity: 0.75"/>
    <path d="M 40.457386 57.553415 
L 42.651838 55.131866 
L 40.599489 54.066642 
L 38.407821 56.477771 
z
" clip-path="url(#p52fdb054a2)" style="fill: #b5cdfa; fill-opacity: 0.75"/>
    <path d="M 70.451143 47.301723 
L 72.578441 45.106057 
L 70.42751 43.855559 
L 68.301806 46.041333 
z
" clip-path="url(#p52fdb054a2)" style="fill: #f5c4ac; fill-opacity: 0.75"/>
    <path d="M 55.449544 51.978571 
L 57.613954 49.873418 
L 55.510174 48.675721 
L 53.347532 50.771169 
z
" clip-path="url(#p52fdb054a2)" style="fill: #dedcdb; fill-opacity: 0.75"/>
    <path d="M 91.874439 37.282135 
L 93.971207 34.208237 
L 91.750812 33.028032 
L 89.657085 36.09022 
z
" clip-path="url(#p52fdb054a2)" style="fill: #d85646; fill-opacity: 0.75"/>
    <path d="M 85.458601 41.644544 
L 87.560163 38.954955 
L 85.359927 37.736443 
L 83.260704 40.415132 
z
" clip-path="url(#p52fdb054a2)" style="fill: #f18d6f; fill-opacity: 0.75"/>
    <path d="M 34.007065 61.765869 
L 36.209897 59.036413 
L 34.178821 58.024773 
L 31.97948 60.74299 
z
" clip-path="url(#p52fdb054a2)" style="fill: #93b5fe; fill-opacity: 0.75"/>
    <path d="M 74.742952 46.369045 
L 76.862474 44.084425 
L 74.696276 42.831522 
L 72.578441 45.106057 
z
" clip-path="url(#p52fdb054a2)" style="fill: #f7ba9f; fill-opacity: 0.75"/>
    <path d="M 27.573315 66.778443 
L 29.777079 63.653825 
L 27.769494 62.702518 
L 25.570061 65.814782 
z
" clip-path="url(#p52fdb054a2)" style="fill: #6788ee; fill-opacity: 0.75"/>
    <path d="M 44.718988 56.263238 
L 46.908205 53.955315 
L 44.838628 52.834113 
L 42.651838 55.131866 
z
" clip-path="url(#p52fdb054a2)" style="fill: #c1d4f4; fill-opacity: 0.75"/>
    <path d="M 59.731462 51.110751 
L 61.886923 49.019077 
L 59.767792 47.791445 
L 57.613954 49.873418 
z
" clip-path="url(#p52fdb054a2)" style="fill: #e5d8d1; fill-opacity: 0.75"/>
    <path d="M 64.019648 50.277389 
L 66.165976 48.173454 
L 64.031711 46.924887 
L 61.886923 49.019077 
z
" clip-path="url(#p52fdb054a2)" style="fill: #ebd3c6; fill-opacity: 0.75"/>
    <path d="M 79.042425 45.340671 
L 81.15525 42.941988 
L 78.973454 41.69607 
L 76.862474 44.084425 
z
" clip-path="url(#p52fdb054a2)" style="fill: #f7b093; fill-opacity: 0.75"/>
    <path d="M 48.992165 55.133951 
L 51.174696 52.915389 
L 49.088611 51.746742 
L 46.908205 53.955315 
z
" clip-path="url(#p52fdb054a2)" style="fill: #ccd9ed; fill-opacity: 0.75"/>
    <path d="M 89.774836 40.158194 
L 91.874439 37.282135 
L 89.657085 36.09022 
L 87.560163 38.954955 
z
" clip-path="url(#p52fdb054a2)" style="fill: #e8765c; fill-opacity: 0.75"/>
    <path d="M 38.256409 60.122894 
L 40.457386 57.553415 
L 38.407821 56.477771 
L 36.209897 59.036413 
z
" clip-path="url(#p52fdb054a2)" style="fill: #a3c2fe; fill-opacity: 0.75"/>
    <path d="M 68.313794 49.443681 
L 70.451143 47.301723 
L 68.301806 46.041333 
L 66.165976 48.173454 
z
" clip-path="url(#p52fdb054a2)" style="fill: #f0cdbb; fill-opacity: 0.75"/>
    <path d="M 31.800838 64.688486 
L 34.007065 61.765869 
L 31.97948 60.74299 
L 29.777079 63.653825 
z
" clip-path="url(#p52fdb054a2)" style="fill: #7ea1fa; fill-opacity: 0.75"/>
    <path d="M 53.274832 54.132663 
L 55.449544 51.978571 
L 53.347532 50.771169 
L 51.174696 52.915389 
z
" clip-path="url(#p52fdb054a2)" style="fill: #d5dbe5; fill-opacity: 0.75"/>
    <path d="M 83.351076 44.182027 
L 85.458601 41.644544 
L 83.260704 40.415132 
L 81.15525 42.941988 
z
" clip-path="url(#p52fdb054a2)" style="fill: #f6a283; fill-opacity: 0.75"/>
    <path d="M 72.61409 48.574687 
L 74.742952 46.369045 
L 72.578441 45.106057 
L 70.451143 47.301723 
z
" clip-path="url(#p52fdb054a2)" style="fill: #f3c7b1; fill-opacity: 0.75"/>
    <path d="M 42.521875 58.695305 
L 44.718988 56.263238 
L 42.651838 55.131866 
L 40.457386 57.553415 
z
" clip-path="url(#p52fdb054a2)" style="fill: #b2ccfb; fill-opacity: 0.75"/>
    <path d="M 57.565366 53.225713 
L 59.731462 51.110751 
L 57.613954 49.873418 
L 55.449544 51.978571 
z
" clip-path="url(#p52fdb054a2)" style="fill: #dcdddd; fill-opacity: 0.75"/>
    <path d="M 94.106738 38.449365 
L 96.206599 35.36364 
L 93.971207 34.208237 
L 91.874439 37.282135 
z
" clip-path="url(#p52fdb054a2)" style="fill: #da5a49; fill-opacity: 0.75"/>
    <path d="M 87.670908 42.858774 
L 89.774836 40.158194 
L 87.560163 38.954955 
L 85.458601 41.644544 
z
" clip-path="url(#p52fdb054a2)" style="fill: #f29072; fill-opacity: 0.75"/>
    <path d="M 76.921229 47.635456 
L 79.042425 45.340671 
L 76.862474 44.084425 
L 74.742952 46.369045 
z
" clip-path="url(#p52fdb054a2)" style="fill: #f6bea4; fill-opacity: 0.75"/>
    <path d="M 36.050219 62.863658 
L 38.256409 60.122894 
L 36.209897 59.036413 
L 34.007065 61.765869 
z
" clip-path="url(#p52fdb054a2)" style="fill: #92b4fe; fill-opacity: 0.75"/>
    <path d="M 61.86263 52.378862 
L 64.019648 50.277389 
L 61.886923 49.019077 
L 59.731462 51.110751 
z
" clip-path="url(#p52fdb054a2)" style="fill: #e2dad5; fill-opacity: 0.75"/>
    <path d="M 46.800629 57.452147 
L 48.992165 55.133951 
L 46.908205 53.955315 
L 44.718988 56.263238 
z
" clip-path="url(#p52fdb054a2)" style="fill: #bfd3f6; fill-opacity: 0.75"/>
    <path d="M 29.59288 67.825479 
L 31.800838 64.688486 
L 29.777079 63.653825 
L 27.573315 66.778443 
z
" clip-path="url(#p52fdb054a2)" style="fill: #6788ee; fill-opacity: 0.75"/>
    <path d="M 66.165976 51.557453 
L 68.313794 49.443681 
L 66.165976 48.173454 
L 64.019648 50.277389 
z
" clip-path="url(#p52fdb054a2)" style="fill: #e9d5cb; fill-opacity: 0.75"/>
    <path d="M 81.2364 46.591119 
L 83.351076 44.182027 
L 81.15525 42.941988 
L 79.042425 45.340671 
z
" clip-path="url(#p52fdb054a2)" style="fill: #f7b497; fill-opacity: 0.75"/>
    <path d="M 51.090272 56.36132 
L 53.274832 54.132663 
L 51.174696 52.915389 
L 48.992165 55.133951 
z
" clip-path="url(#p52fdb054a2)" style="fill: #c9d7f0; fill-opacity: 0.75"/>
    <path d="M 92.004408 41.336852 
L 94.106738 38.449365 
L 91.874439 37.282135 
L 89.774836 40.158194 
z
" clip-path="url(#p52fdb054a2)" style="fill: #ea7b60; fill-opacity: 0.75"/>
    <path d="M 40.317965 61.275705 
L 42.521875 58.695305 
L 40.457386 57.553415 
L 38.256409 60.122894 
z
" clip-path="url(#p52fdb054a2)" style="fill: #a2c1ff; fill-opacity: 0.75"/>
    <path d="M 70.475254 50.726567 
L 72.61409 48.574687 
L 70.451143 47.301723 
L 68.313794 49.443681 
z
" clip-path="url(#p52fdb054a2)" style="fill: #eed0c0; fill-opacity: 0.75"/>
    <path d="M 85.561289 45.406968 
L 87.670908 42.858774 
L 85.458601 41.644544 
L 83.351076 44.182027 
z
" clip-path="url(#p52fdb054a2)" style="fill: #f7a688; fill-opacity: 0.75"/>
    <path d="M 55.388857 55.38978 
L 57.565366 53.225713 
L 55.449544 51.978571 
L 53.274832 54.132663 
z
" clip-path="url(#p52fdb054a2)" style="fill: #d2dbe8; fill-opacity: 0.75"/>
    <path d="M 33.840294 65.798106 
L 36.050219 62.863658 
L 34.007065 61.765869 
L 31.800838 64.688486 
z
" clip-path="url(#p52fdb054a2)" style="fill: #7da0f9; fill-opacity: 0.75"/>
    <path d="M 74.790819 49.851154 
L 76.921229 47.635456 
L 74.742952 46.369045 
L 72.61409 48.574687 
z
" clip-path="url(#p52fdb054a2)" style="fill: #f2cab5; fill-opacity: 0.75"/>
    <path d="M 44.600963 59.894827 
L 46.800629 57.452147 
L 44.718988 56.263238 
L 42.521875 58.695305 
z
" clip-path="url(#p52fdb054a2)" style="fill: #afcafc; fill-opacity: 0.75"/>
    <path d="M 59.694912 54.503734 
L 61.86263 52.378862 
L 59.731462 51.110751 
L 57.565366 53.225713 
z
" clip-path="url(#p52fdb054a2)" style="fill: #d9dce1; fill-opacity: 0.75"/>
    <path d="M 96.354537 39.582508 
L 98.457557 36.48483 
L 96.206599 35.36364 
L 94.106738 38.449365 
z
" clip-path="url(#p52fdb054a2)" style="fill: #de614d; fill-opacity: 0.75"/>
    <path d="M 89.898073 44.048517 
L 92.004408 41.336852 
L 89.774836 40.158194 
L 87.670908 42.858774 
z
" clip-path="url(#p52fdb054a2)" style="fill: #f39577; fill-opacity: 0.75"/>
    <path d="M 79.113528 48.896146 
L 81.2364 46.591119 
L 79.042425 45.340671 
L 76.921229 47.635456 
z
" clip-path="url(#p52fdb054a2)" style="fill: #f5c1a9; fill-opacity: 0.75"/>
    <path d="M 64.007449 53.668818 
L 66.165976 51.557453 
L 64.019648 50.277389 
L 61.86263 52.378862 
z
" clip-path="url(#p52fdb054a2)" style="fill: #e0dbd8; fill-opacity: 0.75"/>
    <path d="M 38.108534 64.027847 
L 40.317965 61.275705 
L 38.256409 60.122894 
L 36.050219 62.863658 
z
" clip-path="url(#p52fdb054a2)" style="fill: #8fb1fe; fill-opacity: 0.75"/>
    <path d="M 48.896511 58.68989 
L 51.090272 56.36132 
L 48.992165 55.133951 
L 46.800629 57.452147 
z
" clip-path="url(#p52fdb054a2)" style="fill: #bcd2f7; fill-opacity: 0.75"/>
    <path d="M 31.628269 68.947501 
L 33.840294 65.798106 
L 31.800838 64.688486 
L 29.59288 67.825479 
z
" clip-path="url(#p52fdb054a2)" style="fill: #6687ed; fill-opacity: 0.75"/>
    <path d="M 68.325978 52.850263 
L 70.475254 50.726567 
L 68.313794 49.443681 
L 66.165976 51.557453 
z
" clip-path="url(#p52fdb054a2)" style="fill: #e6d7cf; fill-opacity: 0.75"/>
    <path d="M 83.444742 47.826547 
L 85.561289 45.406968 
L 83.351076 44.182027 
L 81.2364 46.591119 
z
" clip-path="url(#p52fdb054a2)" style="fill: #f7b89c; fill-opacity: 0.75"/>
    <path d="M 53.202347 57.628633 
L 55.388857 55.38978 
L 53.274832 54.132663 
L 51.090272 56.36132 
z
" clip-path="url(#p52fdb054a2)" style="fill: #c6d6f1; fill-opacity: 0.75"/>
    <path d="M 94.249418 42.481535 
L 96.354537 39.582508 
L 94.106738 38.449365 
L 92.004408 41.336852 
z
" clip-path="url(#p52fdb054a2)" style="fill: #ec7f63; fill-opacity: 0.75"/>
    <path d="M 42.394225 62.486234 
L 44.600963 59.894827 
L 42.521875 58.695305 
L 40.317965 61.275705 
z
" clip-path="url(#p52fdb054a2)" style="fill: #9fbfff; fill-opacity: 0.75"/>
    <path d="M 72.650512 52.013037 
L 74.790819 49.851154 
L 72.61409 48.574687 
L 70.475254 50.726567 
z
" clip-path="url(#p52fdb054a2)" style="fill: #ecd3c5; fill-opacity: 0.75"/>
    <path d="M 57.51667 56.677874 
L 59.694912 54.503734 
L 57.565366 53.225713 
L 55.388857 55.38978 
z
" clip-path="url(#p52fdb054a2)" style="fill: #cedaeb; fill-opacity: 0.75"/>
    <path d="M 87.78632 46.607509 
L 89.898073 44.048517 
L 87.670908 42.858774 
L 85.561289 45.406968 
z
" clip-path="url(#p52fdb054a2)" style="fill: #f7aa8c; fill-opacity: 0.75"/>
    <path d="M 35.895025 66.97418 
L 38.108534 64.027847 
L 36.050219 62.863658 
L 33.840294 65.798106 
z
" clip-path="url(#p52fdb054a2)" style="fill: #7a9df8; fill-opacity: 0.75"/>
    <path d="M 76.981569 51.121976 
L 79.113528 48.896146 
L 76.921229 47.635456 
L 74.790819 49.851154 
z
" clip-path="url(#p52fdb054a2)" style="fill: #f1cdba; fill-opacity: 0.75"/>
    <path d="M 46.694382 61.143277 
L 48.896511 58.68989 
L 46.800629 57.452147 
L 44.600963 59.894827 
z
" clip-path="url(#p52fdb054a2)" style="fill: #adc9fd; fill-opacity: 0.75"/>
    <path d="M 61.838157 55.803692 
L 64.007449 53.668818 
L 61.86263 52.378862 
L 59.694912 54.503734 
z
" clip-path="url(#p52fdb054a2)" style="fill: #d6dce4; fill-opacity: 0.75"/>
    <path d="M 98.618471 40.672066 
L 100.724732 37.562298 
L 98.457557 36.48483 
L 96.354537 39.582508 
z
" clip-path="url(#p52fdb054a2)" style="fill: #df634e; fill-opacity: 0.75"/>
    <path d="M 92.140618 45.204384 
L 94.249418 42.481535 
L 92.004408 41.336852 
L 89.898073 44.048517 
z
" clip-path="url(#p52fdb054a2)" style="fill: #f4987a; fill-opacity: 0.75"/>
    <path d="M 81.320176 50.141891 
L 83.444742 47.826547 
L 81.2364 46.591119 
L 79.113528 48.896146 
z
" clip-path="url(#p52fdb054a2)" style="fill: #f4c5ad; fill-opacity: 0.75"/>
    <path d="M 66.165976 54.971607 
L 68.325978 52.850263 
L 66.165976 51.557453 
L 64.007449 53.668818 
z
" clip-path="url(#p52fdb054a2)" style="fill: #dddcdc; fill-opacity: 0.75"/>
    <path d="M 51.006437 59.967675 
L 53.202347 57.628633 
L 51.090272 56.36132 
L 48.896511 58.68989 
z
" clip-path="url(#p52fdb054a2)" style="fill: #b9d0f9; fill-opacity: 0.75"/>
    <path d="M 40.181654 65.249828 
L 42.394225 62.486234 
L 40.317965 61.275705 
L 38.108534 64.027847 
z
" clip-path="url(#p52fdb054a2)" style="fill: #8caffe; fill-opacity: 0.75"/>
    <path d="M 33.679039 70.136014 
L 35.895025 66.97418 
L 33.840294 65.798106 
L 31.628269 68.947501 
z
" clip-path="url(#p52fdb054a2)" style="fill: #6384eb; fill-opacity: 0.75"/>
    <path d="M 70.499795 54.146736 
L 72.650512 52.013037 
L 70.475254 50.726567 
L 68.325978 52.850263 
z
" clip-path="url(#p52fdb054a2)" style="fill: #e3d9d3; fill-opacity: 0.75"/>
    <path d="M 85.667866 49.037653 
L 87.78632 46.607509 
L 85.561289 45.406968 
L 83.444742 47.826547 
z
" clip-path="url(#p52fdb054a2)" style="fill: #f7ba9f; fill-opacity: 0.75"/>
    <path d="M 55.328271 58.927021 
L 57.51667 56.677874 
L 55.388857 55.38978 
L 53.202347 57.628633 
z
" clip-path="url(#p52fdb054a2)" style="fill: #c3d5f4; fill-opacity: 0.75"/>
    <path d="M 96.510485 43.582753 
L 98.618471 40.672066 
L 96.354537 39.582508 
L 94.249418 42.481535 
z
" clip-path="url(#p52fdb054a2)" style="fill: #ed8366; fill-opacity: 0.75"/>
    <path d="M 44.484904 63.745777 
L 46.694382 61.143277 
L 44.600963 59.894827 
L 42.394225 62.486234 
z
" clip-path="url(#p52fdb054a2)" style="fill: #9dbdff; fill-opacity: 0.75"/>
    <path d="M 74.839791 53.293937 
L 76.981569 51.121976 
L 74.790819 49.851154 
L 72.650512 52.013037 
z
" clip-path="url(#p52fdb054a2)" style="fill: #ead5c9; fill-opacity: 0.75"/>
    <path d="M 59.65823 57.987999 
L 61.838157 55.803692 
L 59.694912 54.503734 
L 57.51667 56.677874 
z
" clip-path="url(#p52fdb054a2)" style="fill: #cbd8ee; fill-opacity: 0.75"/>
    <path d="M 90.026677 47.774261 
L 92.140618 45.204384 
L 89.898073 44.048517 
L 87.78632 46.607509 
z
" clip-path="url(#p52fdb054a2)" style="fill: #f7ad90; fill-opacity: 0.75"/>
    <path d="M 37.964657 68.208107 
L 40.181654 65.249828 
L 38.108534 64.027847 
L 35.895025 66.97418 
z
" clip-path="url(#p52fdb054a2)" style="fill: #779af7; fill-opacity: 0.75"/>
    <path d="M 79.186651 52.377927 
L 81.320176 50.141891 
L 79.113528 48.896146 
L 76.981569 51.121976 
z
" clip-path="url(#p52fdb054a2)" style="fill: #efcfbf; fill-opacity: 0.75"/>
    <path d="M 48.80192 62.431862 
L 51.006437 59.967675 
L 48.896511 58.68989 
L 46.694382 61.143277 
z
" clip-path="url(#p52fdb054a2)" style="fill: #aac7fd; fill-opacity: 0.75"/>
    <path d="M 63.995142 57.116571 
L 66.165976 54.971607 
L 64.007449 53.668818 
L 61.838157 55.803692 
z
" clip-path="url(#p52fdb054a2)" style="fill: #d3dbe7; fill-opacity: 0.75"/>
    <path d="M 100.899256 41.708441 
L 103.008858 38.586435 
L 100.724732 37.562298 
L 98.618471 40.672066 
z
" clip-path="url(#p52fdb054a2)" style="fill: #e16751; fill-opacity: 0.75"/>
    <path d="M 83.541573 51.363388 
L 85.667866 49.037653 
L 83.444742 47.826547 
L 81.320176 50.141891 
z
" clip-path="url(#p52fdb054a2)" style="fill: #f3c8b2; fill-opacity: 0.75"/>
    <path d="M 94.399146 46.316889 
L 96.510485 43.582753 
L 94.249418 42.481535 
L 92.140618 45.204384 
z
" clip-path="url(#p52fdb054a2)" style="fill: #f59c7d; fill-opacity: 0.75"/>
    <path d="M 68.338333 56.27814 
L 70.499795 54.146736 
L 68.325978 52.850263 
L 66.165976 54.971607 
z
" clip-path="url(#p52fdb054a2)" style="fill: #d9dce1; fill-opacity: 0.75"/>
    <path d="M 53.130275 61.276629 
L 55.328271 58.927021 
L 53.202347 57.628633 
L 51.006437 59.967675 
z
" clip-path="url(#p52fdb054a2)" style="fill: #b5cdfa; fill-opacity: 0.75"/>
    <path d="M 42.269277 66.5209 
L 44.484904 63.745777 
L 42.394225 62.486234 
L 40.181654 65.249828 
z
" clip-path="url(#p52fdb054a2)" style="fill: #89acfd; fill-opacity: 0.75"/>
    <path d="M 35.744803 71.382425 
L 37.964657 68.208107 
L 35.895025 66.97418 
L 33.679039 70.136014 
z
" clip-path="url(#p52fdb054a2)" style="fill: #6282ea; fill-opacity: 0.75"/>
    <path d="M 72.687634 55.437714 
L 74.839791 53.293937 
L 72.650512 52.013037 
L 70.499795 54.146736 
z
" clip-path="url(#p52fdb054a2)" style="fill: #e0dbd8; fill-opacity: 0.75"/>
    <path d="M 87.906266 50.215047 
L 90.026677 47.774261 
L 87.78632 46.607509 
L 85.667866 49.037653 
z
" clip-path="url(#p52fdb054a2)" style="fill: #f6bda2; fill-opacity: 0.75"/>
    <path d="M 57.46799 60.247533 
L 59.65823 57.987999 
L 57.51667 56.677874 
L 55.328271 58.927021 
z
" clip-path="url(#p52fdb054a2)" style="fill: #bfd3f6; fill-opacity: 0.75"/>
    <path d="M 98.788309 44.630914 
L 100.899256 41.708441 
L 98.618471 40.672066 
L 96.510485 43.582753 
z
" clip-path="url(#p52fdb054a2)" style="fill: #ee8669; fill-opacity: 0.75"/>
    <path d="M 77.043388 54.560034 
L 79.186651 52.377927 
L 76.981569 51.121976 
L 74.839791 53.293937 
z
" clip-path="url(#p52fdb054a2)" style="fill: #e7d7ce; fill-opacity: 0.75"/>
    <path d="M 46.589775 65.045543 
L 48.80192 62.431862 
L 46.694382 61.143277 
L 44.484904 63.745777 
z
" clip-path="url(#p52fdb054a2)" style="fill: #98b9ff; fill-opacity: 0.75"/>
    <path d="M 61.813562 59.311134 
L 63.995142 57.116571 
L 61.838157 55.803692 
L 59.65823 57.987999 
z
" clip-path="url(#p52fdb054a2)" style="fill: #c7d7f0; fill-opacity: 0.75"/>
    <path d="M 92.282947 48.897739 
L 94.399146 46.316889 
L 92.140618 45.204384 
L 90.026677 47.774261 
z
" clip-path="url(#p52fdb054a2)" style="fill: #f7b093; fill-opacity: 0.75"/>
    <path d="M 40.048873 69.49119 
L 42.269277 66.5209 
L 40.181654 65.249828 
L 37.964657 68.208107 
z
" clip-path="url(#p52fdb054a2)" style="fill: #7597f6; fill-opacity: 0.75"/>
    <path d="M 81.40645 53.609695 
L 83.541573 51.363388 
L 81.320176 50.141891 
L 79.186651 52.377927 
z
" clip-path="url(#p52fdb054a2)" style="fill: #edd1c2; fill-opacity: 0.75"/>
    <path d="M 50.923428 63.75171 
L 53.130275 61.276629 
L 51.006437 59.967675 
L 48.80192 62.431862 
z
" clip-path="url(#p52fdb054a2)" style="fill: #a6c4fe; fill-opacity: 0.75"/>
    <path d="M 66.165976 58.433277 
L 68.338333 56.27814 
L 66.165976 54.971607 
L 63.995142 57.116571 
z
" clip-path="url(#p52fdb054a2)" style="fill: #cfdaea; fill-opacity: 0.75"/>
    <path d="M 103.197693 42.68192 
L 105.31075 39.547516 
L 103.008858 38.586435 
L 100.899256 41.708441 
z
" clip-path="url(#p52fdb054a2)" style="fill: #e26952; fill-opacity: 0.75"/>
    <path d="M 85.778195 52.551242 
L 87.906266 50.215047 
L 85.667866 49.037653 
L 83.541573 51.363388 
z
" clip-path="url(#p52fdb054a2)" style="fill: #f2cab5; fill-opacity: 0.75"/>
    <path d="M 70.524715 57.579254 
L 72.687634 55.437714 
L 70.499795 54.146736 
L 68.338333 56.27814 
z
" clip-path="url(#p52fdb054a2)" style="fill: #d7dce3; fill-opacity: 0.75"/>
    <path d="M 96.674342 47.376444 
L 98.788309 44.630914 
L 96.510485 43.582753 
L 94.399146 46.316889 
z
" clip-path="url(#p52fdb054a2)" style="fill: #f59f80; fill-opacity: 0.75"/>
    <path d="M 55.26795 62.607801 
L 57.46799 60.247533 
L 55.328271 58.927021 
L 53.130275 61.276629 
z
" clip-path="url(#p52fdb054a2)" style="fill: #b1cbfc; fill-opacity: 0.75"/>
    <path d="M 44.371161 67.832276 
L 46.589775 65.045543 
L 44.484904 63.745777 
L 42.269277 66.5209 
z
" clip-path="url(#p52fdb054a2)" style="fill: #85a8fc; fill-opacity: 0.75"/>
    <path d="M 37.825228 72.678046 
L 40.048873 69.49119 
L 37.964657 68.208107 
L 35.744803 71.382425 
z
" clip-path="url(#p52fdb054a2)" style="fill: #5e7de7; fill-opacity: 0.75"/>
    <path d="M 74.889776 56.71396 
L 77.043388 54.560034 
L 74.839791 53.293937 
L 72.687634 55.437714 
z
" clip-path="url(#p52fdb054a2)" style="fill: #dddcdc; fill-opacity: 0.75"/>
    <path d="M 90.160511 51.349246 
L 92.282947 48.897739 
L 90.026677 47.774261 
L 87.906266 50.215047 
z
" clip-path="url(#p52fdb054a2)" style="fill: #f6bfa6; fill-opacity: 0.75"/>
    <path d="M 59.621511 61.581145 
L 61.813562 59.311134 
L 59.65823 57.987999 
L 57.46799 60.247533 
z
" clip-path="url(#p52fdb054a2)" style="fill: #bbd1f8; fill-opacity: 0.75"/>
    <path d="M 48.70867 66.37666 
L 50.923428 63.75171 
L 48.80192 62.431862 
L 46.589775 65.045543 
z
" clip-path="url(#p52fdb054a2)" style="fill: #94b6ff; fill-opacity: 0.75"/>
    <path d="M 79.26167 55.802016 
L 81.40645 53.609695 
L 79.186651 52.377927 
L 77.043388 54.560034 
z
" clip-path="url(#p52fdb054a2)" style="fill: #e4d9d2; fill-opacity: 0.75"/>
    <path d="M 101.083675 45.616313 
L 103.197693 42.68192 
L 100.899256 41.708441 
L 98.788309 44.630914 
z
" clip-path="url(#p52fdb054a2)" style="fill: #ef886b; fill-opacity: 0.75"/>
    <path d="M 63.982758 60.638181 
L 66.165976 58.433277 
L 63.995142 57.116571 
L 61.813562 59.311134 
z
" clip-path="url(#p52fdb054a2)" style="fill: #c4d5f3; fill-opacity: 0.75"/>
    <path d="M 94.555799 49.968359 
L 96.674342 47.376444 
L 94.399146 46.316889 
L 92.282947 48.897739 
z
" clip-path="url(#p52fdb054a2)" style="fill: #f7b194; fill-opacity: 0.75"/>
    <path d="M 42.147415 70.81465 
L 44.371161 67.832276 
L 42.269277 66.5209 
L 40.048873 69.49119 
z
" clip-path="url(#p52fdb054a2)" style="fill: #7093f3; fill-opacity: 0.75"/>
    <path d="M 83.641427 54.807887 
L 85.778195 52.551242 
L 83.541573 51.363388 
L 81.40645 53.609695 
z
" clip-path="url(#p52fdb054a2)" style="fill: #ebd3c6; fill-opacity: 0.75"/>
    <path d="M 53.058817 65.093867 
L 55.26795 62.607801 
L 53.130275 61.276629 
L 50.923428 63.75171 
z
" clip-path="url(#p52fdb054a2)" style="fill: #a2c1ff; fill-opacity: 0.75"/>
    <path d="M 68.350833 59.744641 
L 70.524715 57.579254 
L 68.338333 56.27814 
L 66.165976 58.433277 
z
" clip-path="url(#p52fdb054a2)" style="fill: #ccd9ed; fill-opacity: 0.75"/>
    <path d="M 72.725383 58.865706 
L 74.889776 56.71396 
L 72.687634 55.437714 
L 70.524715 57.579254 
z
" clip-path="url(#p52fdb054a2)" style="fill: #d4dbe6; fill-opacity: 0.75"/>
    <path d="M 88.030598 53.695969 
L 90.160511 51.349246 
L 87.906266 50.215047 
L 85.778195 52.551242 
z
" clip-path="url(#p52fdb054a2)" style="fill: #f1ccb8; fill-opacity: 0.75"/>
    <path d="M 105.514671 43.582666 
L 107.631316 40.435692 
L 105.31075 39.547516 
L 103.197693 42.68192 
z
" clip-path="url(#p52fdb054a2)" style="fill: #e26952; fill-opacity: 0.75"/>
    <path d="M 57.419456 63.952163 
L 59.621511 61.581145 
L 57.46799 60.247533 
L 55.26795 62.607801 
z
" clip-path="url(#p52fdb054a2)" style="fill: #adc9fd; fill-opacity: 0.75"/>
    <path d="M 98.966973 48.37335 
L 101.083675 45.616313 
L 98.788309 44.630914 
L 96.674342 47.376444 
z
" clip-path="url(#p52fdb054a2)" style="fill: #f5a081; fill-opacity: 0.75"/>
    <path d="M 46.487121 69.175087 
L 48.70867 66.37666 
L 46.589775 65.045543 
L 44.371161 67.832276 
z
" clip-path="url(#p52fdb054a2)" style="fill: #82a6fb; fill-opacity: 0.75"/>
    <path d="M 39.920037 74.014107 
L 42.147415 70.81465 
L 40.048873 69.49119 
L 37.825228 72.678046 
z
" clip-path="url(#p52fdb054a2)" style="fill: #5b7ae5; fill-opacity: 0.75"/>
    <path d="M 77.106572 57.966154 
L 79.26167 55.802016 
L 77.043388 54.560034 
L 74.889776 56.71396 
z
" clip-path="url(#p52fdb054a2)" style="fill: #dbdcde; fill-opacity: 0.75"/>
    <path d="M 61.788908 62.918753 
L 63.982758 60.638181 
L 61.813562 59.311134 
L 59.621511 61.581145 
z
" clip-path="url(#p52fdb054a2)" style="fill: #b7cff9; fill-opacity: 0.75"/>
    <path d="M 92.431253 52.430663 
L 94.555799 49.968359 
L 92.282947 48.897739 
L 90.160511 51.349246 
z
" clip-path="url(#p52fdb054a2)" style="fill: #f5c1a9; fill-opacity: 0.75"/>
    <path d="M 50.841484 67.730177 
L 53.058817 65.093867 
L 50.923428 63.75171 
L 48.70867 66.37666 
z
" clip-path="url(#p52fdb054a2)" style="fill: #90b2fe; fill-opacity: 0.75"/>
    <path d="M 81.495082 57.010481 
L 83.641427 54.807887 
L 81.40645 53.609695 
L 79.26167 55.802016 
z
" clip-path="url(#p52fdb054a2)" style="fill: #e2dad5; fill-opacity: 0.75"/>
    <path d="M 66.165976 61.959964 
L 68.350833 59.744641 
L 66.165976 58.433277 
L 63.982758 60.638181 
z
" clip-path="url(#p52fdb054a2)" style="fill: #c0d4f5; fill-opacity: 0.75"/>
    <path d="M 103.397454 46.529121 
L 105.514671 43.582666 
L 103.197693 42.68192 
L 101.083675 45.616313 
z
" clip-path="url(#p52fdb054a2)" style="fill: #ef886b; fill-opacity: 0.75"/>
    <path d="M 44.26008 72.169625 
L 46.487121 69.175087 
L 44.371161 67.832276 
L 42.147415 70.81465 
z
" clip-path="url(#p52fdb054a2)" style="fill: #6e90f2; fill-opacity: 0.75"/>
    <path d="M 96.845984 50.976421 
L 98.966973 48.37335 
L 96.674342 47.376444 
L 94.555799 49.968359 
z
" clip-path="url(#p52fdb054a2)" style="fill: #f7b396; fill-opacity: 0.75"/>
    <path d="M 85.89212 55.96301 
L 88.030598 53.695969 
L 85.778195 52.551242 
L 83.641427 54.807887 
z
" clip-path="url(#p52fdb054a2)" style="fill: #ead5c9; fill-opacity: 0.75"/>
    <path d="M 55.20806 66.449305 
L 57.419456 63.952163 
L 55.26795 62.607801 
L 53.058817 65.093867 
z
" clip-path="url(#p52fdb054a2)" style="fill: #9ebeff; fill-opacity: 0.75"/>
    <path d="M 70.54996 61.041414 
L 72.725383 58.865706 
L 70.524715 57.579254 
L 68.350833 59.744641 
z
" clip-path="url(#p52fdb054a2)" style="fill: #c9d7f0; fill-opacity: 0.75"/>
    <path d="M 74.940675 60.128171 
L 77.106572 57.966154 
L 74.889776 56.71396 
L 72.725383 58.865706 
z
" clip-path="url(#p52fdb054a2)" style="fill: #d1dae9; fill-opacity: 0.75"/>
    <path d="M 59.584849 65.300611 
L 61.788908 62.918753 
L 59.621511 61.581145 
L 57.419456 63.952163 
z
" clip-path="url(#p52fdb054a2)" style="fill: #a9c6fd; fill-opacity: 0.75"/>
    <path d="M 90.299417 54.787979 
L 92.431253 52.430663 
L 90.160511 51.349246 
L 88.030598 53.695969 
z
" clip-path="url(#p52fdb054a2)" style="fill: #f1cdba; fill-opacity: 0.75"/>
    <path d="M 48.617035 70.540386 
L 50.841484 67.730177 
L 48.70867 66.37666 
L 46.487121 69.175087 
z
" clip-path="url(#p52fdb054a2)" style="fill: #7ea1fa; fill-opacity: 0.75"/>
    <path d="M 101.277897 49.297782 
L 103.397454 46.529121 
L 101.083675 45.616313 
L 98.966973 48.37335 
z
" clip-path="url(#p52fdb054a2)" style="fill: #f5a081; fill-opacity: 0.75"/>
    <path d="M 42.029012 75.381755 
L 44.26008 72.169625 
L 42.147415 70.81465 
L 39.920037 74.014107 
z
" clip-path="url(#p52fdb054a2)" style="fill: #5875e1; fill-opacity: 0.75"/>
    <path d="M 79.338452 59.18489 
L 81.495082 57.010481 
L 79.26167 55.802016 
L 77.106572 57.966154 
z
" clip-path="url(#p52fdb054a2)" style="fill: #d8dce2; fill-opacity: 0.75"/>
    <path d="M 63.970325 64.251182 
L 66.165976 61.959964 
L 63.982758 60.638181 
L 61.788908 62.918753 
z
" clip-path="url(#p52fdb054a2)" style="fill: #b3cdfb; fill-opacity: 0.75"/>
    <path d="M 94.719231 53.449598 
L 96.845984 50.976421 
L 94.555799 49.968359 
L 92.431253 52.430663 
z
" clip-path="url(#p52fdb054a2)" style="fill: #f5c2aa; fill-opacity: 0.75"/>
    <path d="M 52.988175 69.097067 
L 55.20806 66.449305 
L 53.058817 65.093867 
L 50.841484 67.730177 
z
" clip-path="url(#p52fdb054a2)" style="fill: #8caffe; fill-opacity: 0.75"/>
    <path d="M 83.744149 58.175934 
L 85.89212 55.96301 
L 83.641427 54.807887 
L 81.495082 57.010481 
z
" clip-path="url(#p52fdb054a2)" style="fill: #e0dbd8; fill-opacity: 0.75"/>
    <path d="M 68.363447 63.267232 
L 70.54996 61.041414 
L 68.350833 59.744641 
L 66.165976 61.959964 
z
" clip-path="url(#p52fdb054a2)" style="fill: #bed2f6; fill-opacity: 0.75"/>
    <path d="M 46.386729 73.547173 
L 48.617035 70.540386 
L 46.487121 69.175087 
L 44.26008 72.169625 
z
" clip-path="url(#p52fdb054a2)" style="fill: #6a8bef; fill-opacity: 0.75"/>
    <path d="M 57.371199 67.808919 
L 59.584849 65.300611 
L 57.419456 63.952163 
L 55.20806 66.449305 
z
" clip-path="url(#p52fdb054a2)" style="fill: #9abbff; fill-opacity: 0.75"/>
    <path d="M 72.763679 62.314267 
L 74.940675 60.128171 
L 72.725383 58.865706 
L 70.54996 61.041414 
z
" clip-path="url(#p52fdb054a2)" style="fill: #c6d6f1; fill-opacity: 0.75"/>
    <path d="M 88.15915 57.065474 
L 90.299417 54.787979 
L 88.030598 53.695969 
L 85.89212 55.96301 
z
" clip-path="url(#p52fdb054a2)" style="fill: #e9d5cb; fill-opacity: 0.75"/>
    <path d="M 99.154344 51.912105 
L 101.277897 49.297782 
L 98.966973 48.37335 
L 96.845984 50.976421 
z
" clip-path="url(#p52fdb054a2)" style="fill: #f7b497; fill-opacity: 0.75"/>
    <path d="M 77.171003 61.357236 
L 79.338452 59.18489 
L 77.106572 57.966154 
L 74.940675 60.128171 
z
" clip-path="url(#p52fdb054a2)" style="fill: #cedaeb; fill-opacity: 0.75"/>
    <path d="M 61.764257 66.643964 
L 63.970325 64.251182 
L 61.788908 62.918753 
L 59.584849 65.300611 
z
" clip-path="url(#p52fdb054a2)" style="fill: #a5c3fe; fill-opacity: 0.75"/>
    <path d="M 50.760843 71.91915 
L 52.988175 69.097067 
L 50.841484 67.730177 
L 48.617035 70.540386 
z
" clip-path="url(#p52fdb054a2)" style="fill: #7a9df8; fill-opacity: 0.75"/>
    <path d="M 92.585374 55.817571 
L 94.719231 53.449598 
L 92.431253 52.430663 
L 90.299417 54.787979 
z
" clip-path="url(#p52fdb054a2)" style="fill: #f0cdbb; fill-opacity: 0.75"/>
    <path d="M 44.151997 76.77206 
L 46.386729 73.547173 
L 44.26008 72.169625 
L 42.029012 75.381755 
z
" clip-path="url(#p52fdb054a2)" style="fill: #5470de; fill-opacity: 0.75"/>
    <path d="M 81.585923 60.360667 
L 83.744149 58.175934 
L 81.495082 57.010481 
L 79.338452 59.18489 
z
" clip-path="url(#p52fdb054a2)" style="fill: #d6dce4; fill-opacity: 0.75"/>
    <path d="M 66.165976 65.569173 
L 68.363447 63.267232 
L 66.165976 61.959964 
L 63.970325 64.251182 
z
" clip-path="url(#p52fdb054a2)" style="fill: #afcafc; fill-opacity: 0.75"/>
    <path d="M 55.148767 70.468227 
L 57.371199 67.808919 
L 55.20806 66.449305 
L 52.988175 69.097067 
z
" clip-path="url(#p52fdb054a2)" style="fill: #88abfd; fill-opacity: 0.75"/>
    <path d="M 97.025267 54.396232 
L 99.154344 51.912105 
L 96.845984 50.976421 
L 94.719231 53.449598 
z
" clip-path="url(#p52fdb054a2)" style="fill: #f5c2aa; fill-opacity: 0.75"/>
    <path d="M 86.009472 59.288777 
L 88.15915 57.065474 
L 85.89212 55.96301 
L 83.744149 58.175934 
z
" clip-path="url(#p52fdb054a2)" style="fill: #dfdbd9; fill-opacity: 0.75"/>
    <path d="M 70.575475 64.550649 
L 72.763679 62.314267 
L 70.54996 61.041414 
L 68.363447 63.267232 
z
" clip-path="url(#p52fdb054a2)" style="fill: #bad0f8; fill-opacity: 0.75"/>
    <path d="M 48.527286 74.938279 
L 50.760843 71.91915 
L 48.617035 70.540386 
L 46.386729 73.547173 
z
" clip-path="url(#p52fdb054a2)" style="fill: #6687ed; fill-opacity: 0.75"/>
    <path d="M 59.548344 69.16353 
L 61.764257 66.643964 
L 59.584849 65.300611 
L 57.371199 67.808919 
z
" clip-path="url(#p52fdb054a2)" style="fill: #96b7ff; fill-opacity: 0.75"/>
    <path d="M 74.992385 63.553781 
L 77.171003 61.357236 
L 74.940675 60.128171 
L 72.763679 62.314267 
z
" clip-path="url(#p52fdb054a2)" style="fill: #c3d5f4; fill-opacity: 0.75"/>
    <path d="M 90.443222 58.105573 
L 92.585374 55.817571 
L 90.299417 54.787979 
L 88.15915 57.065474 
z
" clip-path="url(#p52fdb054a2)" style="fill: #e8d6cc; fill-opacity: 0.75"/>
    <path d="M 63.957876 67.972964 
L 66.165976 65.569173 
L 63.970325 64.251182 
L 61.764257 66.643964 
z
" clip-path="url(#p52fdb054a2)" style="fill: #a2c1ff; fill-opacity: 0.75"/>
    <path d="M 79.416857 62.543396 
L 81.585923 60.360667 
L 79.338452 59.18489 
L 77.171003 61.357236 
z
" clip-path="url(#p52fdb054a2)" style="fill: #ccd9ed; fill-opacity: 0.75"/>
    <path d="M 52.918553 73.302282 
L 55.148767 70.468227 
L 52.988175 69.097067 
L 50.760843 71.91915 
z
" clip-path="url(#p52fdb054a2)" style="fill: #7699f6; fill-opacity: 0.75"/>
    <path d="M 94.889276 56.774921 
L 97.025267 54.396232 
L 94.719231 53.449598 
L 92.585374 55.817571 
z
" clip-path="url(#p52fdb054a2)" style="fill: #efcebd; fill-opacity: 0.75"/>
    <path d="M 46.288899 78.176016 
L 48.527286 74.938279 
L 46.386729 73.547173 
L 44.151997 76.77206 
z
" clip-path="url(#p52fdb054a2)" style="fill: #506bda; fill-opacity: 0.75"/>
    <path d="M 68.376147 66.863389 
L 70.575475 64.550649 
L 68.363447 63.267232 
L 66.165976 65.569173 
z
" clip-path="url(#p52fdb054a2)" style="fill: #adc9fd; fill-opacity: 0.75"/>
    <path d="M 83.849571 61.483883 
L 86.009472 59.288777 
L 83.744149 58.175934 
L 81.585923 60.360667 
z
" clip-path="url(#p52fdb054a2)" style="fill: #d5dbe5; fill-opacity: 0.75"/>
    <path d="M 57.323352 71.834478 
L 59.548344 69.16353 
L 57.371199 67.808919 
L 55.148767 70.468227 
z
" clip-path="url(#p52fdb054a2)" style="fill: #84a7fc; fill-opacity: 0.75"/>
    <path d="M 72.802439 65.800793 
L 74.992385 63.553781 
L 72.763679 62.314267 
L 70.575475 64.550649 
z
" clip-path="url(#p52fdb054a2)" style="fill: #b7cff9; fill-opacity: 0.75"/>
    <path d="M 88.291742 60.339302 
L 90.443222 58.105573 
L 88.15915 57.065474 
L 86.009472 59.288777 
z
" clip-path="url(#p52fdb054a2)" style="fill: #dedcdb; fill-opacity: 0.75"/>
    <path d="M 50.68174 76.333853 
L 52.918553 73.302282 
L 50.760843 71.91915 
L 48.527286 74.938279 
z
" clip-path="url(#p52fdb054a2)" style="fill: #6282ea; fill-opacity: 0.75"/>
    <path d="M 61.739674 70.503878 
L 63.957876 67.972964 
L 61.764257 66.643964 
L 59.548344 69.16353 
z
" clip-path="url(#p52fdb054a2)" style="fill: #92b4fe; fill-opacity: 0.75"/>
    <path d="M 77.236552 64.750446 
L 79.416857 62.543396 
L 77.171003 61.357236 
L 74.992385 63.553781 
z
" clip-path="url(#p52fdb054a2)" style="fill: #c0d4f5; fill-opacity: 0.75"/>
    <path d="M 92.745127 59.073479 
L 94.889276 56.774921 
L 92.585374 55.817571 
L 90.443222 58.105573 
z
" clip-path="url(#p52fdb054a2)" style="fill: #e7d7ce; fill-opacity: 0.75"/>
    <path d="M 66.165976 69.278271 
L 68.376147 66.863389 
L 66.165976 65.569173 
L 63.957876 67.972964 
z
" clip-path="url(#p52fdb054a2)" style="fill: #9ebeff; fill-opacity: 0.75"/>
    <path d="M 55.090239 74.680607 
L 57.323352 71.834478 
L 55.148767 70.468227 
L 52.918553 73.302282 
z
" clip-path="url(#p52fdb054a2)" style="fill: #7295f4; fill-opacity: 0.75"/>
    <path d="M 81.678809 63.677042 
L 83.849571 61.483883 
L 81.585923 60.360667 
L 79.416857 62.543396 
z
" clip-path="url(#p52fdb054a2)" style="fill: #cad8ef; fill-opacity: 0.75"/>
    <path d="M 48.439689 79.584545 
L 50.68174 76.333853 
L 48.527286 74.938279 
L 46.288899 78.176016 
z
" clip-path="url(#p52fdb054a2)" style="fill: #4c66d6; fill-opacity: 0.75"/>
    <path d="M 70.6012 68.124404 
L 72.802439 65.800793 
L 70.575475 64.550649 
L 68.376147 66.863389 
z
" clip-path="url(#p52fdb054a2)" style="fill: #aac7fd; fill-opacity: 0.75"/>
    <path d="M 86.13007 62.544822 
L 88.291742 60.339302 
L 86.009472 59.288777 
L 83.849571 61.483883 
z
" clip-path="url(#p52fdb054a2)" style="fill: #d4dbe6; fill-opacity: 0.75"/>
    <path d="M 59.512092 73.186566 
L 61.739674 70.503878 
L 59.548344 69.16353 
L 57.323352 71.834478 
z
" clip-path="url(#p52fdb054a2)" style="fill: #81a4fb; fill-opacity: 0.75"/>
    <path d="M 75.044797 67.008149 
L 77.236552 64.750446 
L 74.992385 63.553781 
L 72.802439 65.800793 
z
" clip-path="url(#p52fdb054a2)" style="fill: #b5cdfa; fill-opacity: 0.75"/>
    <path d="M 52.85015 77.72473 
L 55.090239 74.680607 
L 52.918553 73.302282 
L 50.68174 76.333853 
z
" clip-path="url(#p52fdb054a2)" style="fill: #5e7de7; fill-opacity: 0.75"/>
    <path d="M 90.591734 61.317676 
L 92.745127 59.073479 
L 90.443222 58.105573 
L 88.291742 60.339302 
z
" clip-path="url(#p52fdb054a2)" style="fill: #dddcdc; fill-opacity: 0.75"/>
    <path d="M 63.945442 71.820624 
L 66.165976 69.278271 
L 63.957876 67.972964 
L 61.739674 70.503878 
z
" clip-path="url(#p52fdb054a2)" style="fill: #8fb1fe; fill-opacity: 0.75"/>
    <path d="M 79.496735 65.894649 
L 81.678809 63.677042 
L 79.416857 62.543396 
L 77.236552 64.750446 
z
" clip-path="url(#p52fdb054a2)" style="fill: #bfd3f6; fill-opacity: 0.75"/>
    <path d="M 68.388902 70.550458 
L 70.6012 68.124404 
L 68.376147 66.863389 
L 66.165976 69.278271 
z
" clip-path="url(#p52fdb054a2)" style="fill: #9bbcff; fill-opacity: 0.75"/>
    <path d="M 57.276046 76.044875 
L 59.512092 73.186566 
L 57.323352 71.834478 
L 55.090239 74.680607 
z
" clip-path="url(#p52fdb054a2)" style="fill: #6e90f2; fill-opacity: 0.75"/>
    <path d="M 83.957515 64.748455 
L 86.13007 62.544822 
L 83.849571 61.483883 
L 81.678809 63.677042 
z
" clip-path="url(#p52fdb054a2)" style="fill: #c9d7f0; fill-opacity: 0.75"/>
    <path d="M 50.604406 80.988491 
L 52.85015 77.72473 
L 50.68174 76.333853 
L 48.439689 79.584545 
z
" clip-path="url(#p52fdb054a2)" style="fill: #4961d2; fill-opacity: 0.75"/>
    <path d="M 72.841577 69.3427 
L 75.044797 67.008149 
L 72.802439 65.800793 
L 70.6012 68.124404 
z
" clip-path="url(#p52fdb054a2)" style="fill: #a7c5fe; fill-opacity: 0.75"/>
    <path d="M 61.715223 74.515152 
L 63.945442 71.820624 
L 61.739674 70.503878 
L 59.512092 73.186566 
z
" clip-path="url(#p52fdb054a2)" style="fill: #7da0f9; fill-opacity: 0.75"/>
    <path d="M 88.428178 63.533648 
L 90.591734 61.317676 
L 88.291742 60.339302 
L 86.13007 62.544822 
z
" clip-path="url(#p52fdb054a2)" style="fill: #d4dbe6; fill-opacity: 0.75"/>
    <path d="M 77.303087 68.163099 
L 79.496735 65.894649 
L 77.236552 64.750446 
L 75.044797 67.008149 
z
" clip-path="url(#p52fdb054a2)" style="fill: #b2ccfb; fill-opacity: 0.75"/>
    <path d="M 55.032641 79.101665 
L 57.276046 76.044875 
L 55.090239 74.680607 
L 52.85015 77.72473 
z
" clip-path="url(#p52fdb054a2)" style="fill: #5a78e4; fill-opacity: 0.75"/>
    <path d="M 66.165976 73.104341 
L 68.388902 70.550458 
L 66.165976 69.278271 
L 63.945442 71.820624 
z
" clip-path="url(#p52fdb054a2)" style="fill: #8badfd; fill-opacity: 0.75"/>
    <path d="M 81.773573 66.976663 
L 83.957515 64.748455 
L 81.678809 63.677042 
L 79.496735 65.894649 
z
" clip-path="url(#p52fdb054a2)" style="fill: #bed2f6; fill-opacity: 0.75"/>
    <path d="M 59.476193 77.385754 
L 61.715223 74.515152 
L 59.512092 73.186566 
L 57.276046 76.044875 
z
" clip-path="url(#p52fdb054a2)" style="fill: #6a8bef; fill-opacity: 0.75"/>
    <path d="M 70.627077 71.780004 
L 72.841577 69.3427 
L 70.6012 68.124404 
L 68.388902 70.550458 
z
" clip-path="url(#p52fdb054a2)" style="fill: #98b9ff; fill-opacity: 0.75"/>
    <path d="M 52.783162 82.378624 
L 55.032641 79.101665 
L 52.85015 77.72473 
L 50.604406 80.988491 
z
" clip-path="url(#p52fdb054a2)" style="fill: #455cce; fill-opacity: 0.75"/>
    <path d="M 86.253716 65.747791 
L 88.428178 63.533648 
L 86.13007 62.544822 
L 83.957515 64.748455 
z
" clip-path="url(#p52fdb054a2)" style="fill: #c9d7f0; fill-opacity: 0.75"/>
    <path d="M 75.097799 70.508656 
L 77.303087 68.163099 
L 75.044797 67.008149 
L 72.841577 69.3427 
z
" clip-path="url(#p52fdb054a2)" style="fill: #a5c3fe; fill-opacity: 0.75"/>
    <path d="M 63.933055 75.810813 
L 66.165976 73.104341 
L 63.945442 71.820624 
L 61.715223 74.515152 
z
" clip-path="url(#p52fdb054a2)" style="fill: #7a9df8; fill-opacity: 0.75"/>
    <path d="M 57.229414 80.455337 
L 59.476193 77.385754 
L 57.276046 76.044875 
L 55.032641 79.101665 
z
" clip-path="url(#p52fdb054a2)" style="fill: #5673e0; fill-opacity: 0.75"/>
    <path d="M 79.57793 69.255914 
L 81.773573 66.976663 
L 79.496735 65.894649 
L 77.303087 68.163099 
z
" clip-path="url(#p52fdb054a2)" style="fill: #b1cbfc; fill-opacity: 0.75"/>
    <path d="M 68.401681 74.345509 
L 70.627077 71.780004 
L 68.388902 70.550458 
L 66.165976 73.104341 
z
" clip-path="url(#p52fdb054a2)" style="fill: #88abfd; fill-opacity: 0.75"/>
    <path d="M 84.067791 67.98664 
L 86.253716 65.747791 
L 83.957515 64.748455 
L 81.773573 66.976663 
z
" clip-path="url(#p52fdb054a2)" style="fill: #bed2f6; fill-opacity: 0.75"/>
    <path d="M 61.69097 78.693825 
L 63.933055 75.810813 
L 61.715223 74.515152 
L 59.476193 77.385754 
z
" clip-path="url(#p52fdb054a2)" style="fill: #6788ee; fill-opacity: 0.75"/>
    <path d="M 72.881005 72.957288 
L 75.097799 70.508656 
L 72.841577 69.3427 
L 70.627077 71.780004 
z
" clip-path="url(#p52fdb054a2)" style="fill: #96b7ff; fill-opacity: 0.75"/>
    <path d="M 54.976135 83.745632 
L 57.229414 80.455337 
L 55.032641 79.101665 
L 52.783162 82.378624 
z
" clip-path="url(#p52fdb054a2)" style="fill: #4358cb; fill-opacity: 0.75"/>
    <path d="M 77.370469 71.612539 
L 79.57793 69.255914 
L 77.303087 68.163099 
L 75.097799 70.508656 
z
" clip-path="url(#p52fdb054a2)" style="fill: #a3c2fe; fill-opacity: 0.75"/>
    <path d="M 66.165976 77.064031 
L 68.401681 74.345509 
L 66.165976 73.104341 
L 63.933055 75.810813 
z
" clip-path="url(#p52fdb054a2)" style="fill: #779af7; fill-opacity: 0.75"/>
    <path d="M 59.440743 81.776335 
L 61.69097 78.693825 
L 59.476193 77.385754 
L 57.229414 80.455337 
z
" clip-path="url(#p52fdb054a2)" style="fill: #5470de; fill-opacity: 0.75"/>
    <path d="M 81.870035 70.276739 
L 84.067791 67.98664 
L 81.773573 66.976663 
L 79.57793 69.255914 
z
" clip-path="url(#p52fdb054a2)" style="fill: #b1cbfc; fill-opacity: 0.75"/>
    <path d="M 70.653043 75.534506 
L 72.881005 72.957288 
L 70.627077 71.780004 
L 68.401681 74.345509 
z
" clip-path="url(#p52fdb054a2)" style="fill: #86a9fc; fill-opacity: 0.75"/>
    <path d="M 63.920747 79.959578 
L 66.165976 77.064031 
L 63.933055 75.810813 
L 61.69097 78.693825 
z
" clip-path="url(#p52fdb054a2)" style="fill: #6485ec; fill-opacity: 0.75"/>
    <path d="M 75.151273 74.072574 
L 77.370469 71.612539 
L 75.097799 70.508656 
L 72.881005 72.957288 
z
" clip-path="url(#p52fdb054a2)" style="fill: #94b6ff; fill-opacity: 0.75"/>
    <path d="M 57.183583 85.080119 
L 59.440743 81.776335 
L 57.229414 80.455337 
L 54.976135 83.745632 
z
" clip-path="url(#p52fdb054a2)" style="fill: #3f53c6; fill-opacity: 0.75"/>
    <path d="M 68.414453 78.265188 
L 70.653043 75.534506 
L 68.401681 74.345509 
L 66.165976 77.064031 
z
" clip-path="url(#p52fdb054a2)" style="fill: #7597f6; fill-opacity: 0.75"/>
    <path d="M 79.660279 72.644491 
L 81.870035 70.276739 
L 79.57793 69.255914 
L 77.370469 71.612539 
z
" clip-path="url(#p52fdb054a2)" style="fill: #a3c2fe; fill-opacity: 0.75"/>
    <path d="M 61.666978 83.055159 
L 63.920747 79.959578 
L 61.69097 78.693825 
L 59.440743 81.776335 
z
" clip-path="url(#p52fdb054a2)" style="fill: #516ddb; fill-opacity: 0.75"/>
    <path d="M 72.920632 76.661599 
L 75.151273 74.072574 
L 72.881005 72.957288 
L 70.653043 75.534506 
z
" clip-path="url(#p52fdb054a2)" style="fill: #85a8fc; fill-opacity: 0.75"/>
    <path d="M 66.165976 81.1734 
L 68.414453 78.265188 
L 66.165976 77.064031 
L 63.920747 79.959578 
z
" clip-path="url(#p52fdb054a2)" style="fill: #6384eb; fill-opacity: 0.75"/>
    <path d="M 59.405837 86.372597 
L 61.666978 83.055159 
L 59.440743 81.776335 
L 57.183583 85.080119 
z
" clip-path="url(#p52fdb054a2)" style="fill: #3d50c3; fill-opacity: 0.75"/>
    <path d="M 77.438555 75.116005 
L 79.660279 72.644491 
L 77.370469 71.612539 
L 75.151273 74.072574 
z
" clip-path="url(#p52fdb054a2)" style="fill: #94b6ff; fill-opacity: 0.75"/>
    <path d="M 70.679038 79.404555 
L 72.920632 76.661599 
L 70.653043 75.534506 
L 68.414453 78.265188 
z
" clip-path="url(#p52fdb054a2)" style="fill: #7396f5; fill-opacity: 0.75"/>
    <path d="M 63.908551 84.282205 
L 66.165976 81.1734 
L 63.920747 79.959578 
L 61.666978 83.055159 
z
" clip-path="url(#p52fdb054a2)" style="fill: #506bda; fill-opacity: 0.75"/>
    <path d="M 75.205103 77.71693 
L 77.438555 75.116005 
L 75.151273 74.072574 
L 72.920632 76.661599 
z
" clip-path="url(#p52fdb054a2)" style="fill: #84a7fc; fill-opacity: 0.75"/>
    <path d="M 68.427186 82.325568 
L 70.679038 79.404555 
L 68.414453 78.265188 
L 66.165976 81.1734 
z
" clip-path="url(#p52fdb054a2)" style="fill: #6282ea; fill-opacity: 0.75"/>
    <path d="M 61.64331 87.613476 
L 63.908551 84.282205 
L 61.666978 83.055159 
L 59.405837 86.372597 
z
" clip-path="url(#p52fdb054a2)" style="fill: #3c4ec2; fill-opacity: 0.75"/>
    <path d="M 72.960367 80.472277 
L 75.205103 77.71693 
L 72.920632 76.661599 
L 70.679038 79.404555 
z
" clip-path="url(#p52fdb054a2)" style="fill: #7396f5; fill-opacity: 0.75"/>
    <path d="M 66.165976 85.44776 
L 68.427186 82.325568 
L 66.165976 81.1734 
L 63.908551 84.282205 
z
" clip-path="url(#p52fdb054a2)" style="fill: #4f69d9; fill-opacity: 0.75"/>
    <path d="M 70.704999 83.406235 
L 72.960367 80.472277 
L 70.679038 79.404555 
L 68.427186 82.325568 
z
" clip-path="url(#p52fdb054a2)" style="fill: #6180e9; fill-opacity: 0.75"/>
    <path d="M 63.896497 88.793057 
L 66.165976 85.44776 
L 63.908551 84.282205 
L 61.64331 87.613476 
z
" clip-path="url(#p52fdb054a2)" style="fill: #3b4cc0; fill-opacity: 0.75"/>
    <path d="M 68.439851 86.541988 
L 70.704999 83.406235 
L 68.427186 82.325568 
L 66.165976 85.44776 
z
" clip-path="url(#p52fdb054a2)" style="fill: #4e68d8; fill-opacity: 0.75"/>
    <path d="M 66.165976 89.901518 
L 68.439851 86.541988 
L 66.165976 85.44776 
L 63.896497 88.793057 
z
" clip-path="url(#p52fdb054a2)" style="fill: #3b4cc0; fill-opacity: 0.75"/>
   </g>
  </g>
 </g>
 <defs>
  <clipPath id="p52fdb054a2">
   <rect x="13.114344" y="3.00024" width="103.311072" height="103.311072"/>
  </clipPath>
 </defs>
</svg>
