<?xml version="1.0" encoding="utf-8" standalone="no"?>
<!DOCTYPE svg PUBLIC "-//W3C//DTD SVG 1.1//EN"
  "http://www.w3.org/Graphics/SVG/1.1/DTD/svg11.dtd">
<svg xmlns:xlink="http://www.w3.org/1999/xlink" width="97.15482pt" height="54.655776pt" viewBox="0 0 97.15482 54.655776" xmlns="http://www.w3.org/2000/svg" version="1.1">
 <metadata>
  <rdf:RDF xmlns:dc="http://purl.org/dc/elements/1.1/" xmlns:cc="http://creativecommons.org/ns#" xmlns:rdf="http://www.w3.org/1999/02/22-rdf-syntax-ns#">
   <cc:Work>
    <dc:type rdf:resource="http://purl.org/dc/dcmitype/StillImage"/>
    <dc:date>2025-01-02T14:06:44.890660</dc:date>
    <dc:format>image/svg+xml</dc:format>
    <dc:creator>
     <cc:Agent>
      <dc:title>Matplotlib v3.8.2, https://matplotlib.org/</dc:title>
     </cc:Agent>
    </dc:creator>
   </cc:Work>
  </rdf:RDF>
 </metadata>
 <defs>
  <style type="text/css">*{stroke-linejoin: round; stroke-linecap: butt}</style>
 </defs>
 <g id="figure_1">
  <g id="patch_1">
   <path d="M 0 54.655776 
L 97.15482 54.655776 
L 97.15482 0 
L 0 0 
z
" style="fill: #ffffff"/>
  </g>
  <g id="axes_1">
   <g id="patch_2">
    <path d="M 26.626646 31.560849 
L 94.15458 31.560849 
L 94.15458 10.623865 
L 26.626646 10.623865 
z
" style="fill: #ffffff"/>
   </g>
   <g id="matplotlib.axis_1">
    <g id="xtick_1">
     <g id="line2d_1">
      <path d="M 39.927603 31.560849 
L 39.927603 10.623865 
" clip-path="url(#p4d2172cbc0)" style="fill: none; stroke: #b0b0b0; stroke-width: 0.1; stroke-linecap: round"/>
     </g>
     <g id="line2d_2"/>
     <g id="text_1">
      <!-- −10 -->
      <g style="fill: #262626" transform="translate(32.540962 40.379755) scale(0.07 -0.07)">
       <defs>
        <path id="DejaVuSerif-2212" d="M 678 2259 
L 4684 2259 
L 4684 1753 
L 678 1753 
L 678 2259 
z
" transform="scale(0.015625)"/>
        <path id="DejaVuSerif-31" d="M 909 0 
L 909 331 
L 1722 331 
L 1722 4213 
L 781 3603 
L 781 4013 
L 1919 4750 
L 2350 4750 
L 2350 331 
L 3163 331 
L 3163 0 
L 909 0 
z
" transform="scale(0.015625)"/>
        <path id="DejaVuSerif-30" d="M 2034 219 
Q 2513 219 2750 744 
Q 2988 1269 2988 2328 
Q 2988 3391 2750 3916 
Q 2513 4441 2034 4441 
Q 1556 4441 1318 3916 
Q 1081 3391 1081 2328 
Q 1081 1269 1318 744 
Q 1556 219 2034 219 
z
M 2034 -91 
Q 1275 -91 848 546 
Q 422 1184 422 2328 
Q 422 3475 848 4112 
Q 1275 4750 2034 4750 
Q 2797 4750 3222 4112 
Q 3647 3475 3647 2328 
Q 3647 1184 3222 546 
Q 2797 -91 2034 -91 
z
" transform="scale(0.015625)"/>
       </defs>
       <use xlink:href="#DejaVuSerif-2212"/>
       <use xlink:href="#DejaVuSerif-31" x="83.789062"/>
       <use xlink:href="#DejaVuSerif-30" x="147.412109"/>
      </g>
     </g>
    </g>
    <g id="xtick_2">
     <g id="line2d_3">
      <path d="M 60.390613 31.560849 
L 60.390613 10.623865 
" clip-path="url(#p4d2172cbc0)" style="fill: none; stroke: #b0b0b0; stroke-width: 0.1; stroke-linecap: round"/>
     </g>
     <g id="line2d_4"/>
     <g id="text_2">
      <!-- 0 -->
      <g style="fill: #262626" transform="translate(58.163738 40.379755) scale(0.07 -0.07)">
       <use xlink:href="#DejaVuSerif-30"/>
      </g>
     </g>
    </g>
    <g id="xtick_3">
     <g id="line2d_5">
      <path d="M 80.853623 31.560849 
L 80.853623 10.623865 
" clip-path="url(#p4d2172cbc0)" style="fill: none; stroke: #b0b0b0; stroke-width: 0.1; stroke-linecap: round"/>
     </g>
     <g id="line2d_6"/>
     <g id="text_3">
      <!-- 10 -->
      <g style="fill: #262626" transform="translate(76.399873 40.379755) scale(0.07 -0.07)">
       <use xlink:href="#DejaVuSerif-31"/>
       <use xlink:href="#DejaVuSerif-30" x="63.623047"/>
      </g>
     </g>
    </g>
    <g id="text_4">
     <!-- $\delta$ $[deg]$ -->
     <g style="fill: #262626" transform="translate(49.590613 50.395536) scale(0.06 -0.06)">
      <defs>
       <path id="DejaVuSans-Oblique-3b4" d="M 3472 4053 
Q 3197 4272 2450 4272 
Q 1659 4272 1588 3906 
Q 1531 3619 2328 3469 
Q 2953 3353 3253 3003 
Q 3616 2581 3447 1716 
Q 3284 888 2763 400 
Q 2238 -91 1488 -91 
Q 741 -91 406 400 
Q 72 888 241 1747 
Q 363 2384 891 2900 
Q 1097 3100 1353 3213 
Q 913 3459 1000 3900 
Q 1166 4750 2544 4750 
Q 3234 4750 3566 4531 
L 3472 4053 
z
M 1753 3056 
Q 1525 2966 1306 2738 
Q 969 2384 847 1747 
Q 722 1113 919 756 
Q 1119 397 1584 397 
Q 2044 397 2381 759 
Q 2722 1122 2838 1716 
Q 2956 2338 2731 2638 
Q 2491 2959 2103 2994 
Q 1906 3013 1753 3056 
z
" transform="scale(0.015625)"/>
       <path id="DejaVuSerif-20" transform="scale(0.015625)"/>
       <path id="DejaVuSans-5b" d="M 550 4863 
L 1875 4863 
L 1875 4416 
L 1125 4416 
L 1125 -397 
L 1875 -397 
L 1875 -844 
L 550 -844 
L 550 4863 
z
" transform="scale(0.015625)"/>
       <path id="DejaVuSans-Oblique-64" d="M 2675 525 
Q 2444 222 2128 65 
Q 1813 -91 1428 -91 
Q 903 -91 598 267 
Q 294 625 294 1247 
Q 294 1766 478 2236 
Q 663 2706 1013 3078 
Q 1244 3325 1534 3454 
Q 1825 3584 2144 3584 
Q 2481 3584 2739 3421 
Q 2997 3259 3138 2956 
L 3513 4863 
L 4091 4863 
L 3144 0 
L 2566 0 
L 2675 525 
z
M 891 1350 
Q 891 897 1095 644 
Q 1300 391 1663 391 
Q 1931 391 2161 520 
Q 2391 650 2566 903 
Q 2750 1166 2856 1509 
Q 2963 1853 2963 2188 
Q 2963 2622 2758 2865 
Q 2553 3109 2194 3109 
Q 1922 3109 1687 2981 
Q 1453 2853 1288 2613 
Q 1106 2353 998 2009 
Q 891 1666 891 1350 
z
" transform="scale(0.015625)"/>
       <path id="DejaVuSans-Oblique-65" d="M 3078 2063 
Q 3088 2113 3092 2166 
Q 3097 2219 3097 2272 
Q 3097 2653 2873 2875 
Q 2650 3097 2266 3097 
Q 1838 3097 1509 2826 
Q 1181 2556 1013 2059 
L 3078 2063 
z
M 3578 1613 
L 903 1613 
Q 884 1494 878 1425 
Q 872 1356 872 1306 
Q 872 872 1139 634 
Q 1406 397 1894 397 
Q 2269 397 2603 481 
Q 2938 566 3225 728 
L 3116 159 
Q 2806 34 2476 -28 
Q 2147 -91 1806 -91 
Q 1078 -91 686 257 
Q 294 606 294 1247 
Q 294 1794 489 2264 
Q 684 2734 1063 3103 
Q 1306 3334 1642 3459 
Q 1978 3584 2356 3584 
Q 2950 3584 3301 3228 
Q 3653 2872 3653 2272 
Q 3653 2128 3634 1964 
Q 3616 1800 3578 1613 
z
" transform="scale(0.015625)"/>
       <path id="DejaVuSans-Oblique-67" d="M 3816 3500 
L 3219 434 
Q 3047 -456 2561 -893 
Q 2075 -1331 1253 -1331 
Q 950 -1331 690 -1286 
Q 431 -1241 206 -1147 
L 313 -588 
Q 525 -725 762 -790 
Q 1000 -856 1269 -856 
Q 1816 -856 2167 -557 
Q 2519 -259 2631 300 
L 2681 563 
Q 2441 288 2122 144 
Q 1803 0 1434 0 
Q 903 0 598 351 
Q 294 703 294 1319 
Q 294 1803 478 2267 
Q 663 2731 997 3091 
Q 1219 3328 1514 3456 
Q 1809 3584 2131 3584 
Q 2484 3584 2746 3420 
Q 3009 3256 3138 2956 
L 3238 3500 
L 3816 3500 
z
M 2950 2216 
Q 2950 2641 2750 2872 
Q 2550 3103 2181 3103 
Q 1953 3103 1747 3012 
Q 1541 2922 1394 2759 
Q 1156 2491 1023 2127 
Q 891 1763 891 1375 
Q 891 944 1092 712 
Q 1294 481 1672 481 
Q 2219 481 2584 976 
Q 2950 1472 2950 2216 
z
" transform="scale(0.015625)"/>
       <path id="DejaVuSans-5d" d="M 1947 4863 
L 1947 -844 
L 622 -844 
L 622 -397 
L 1369 -397 
L 1369 4416 
L 622 4416 
L 622 4863 
L 1947 4863 
z
" transform="scale(0.015625)"/>
      </defs>
      <use xlink:href="#DejaVuSans-Oblique-3b4" transform="translate(0 0.015625)"/>
      <use xlink:href="#DejaVuSerif-20" transform="translate(61.181641 0.015625)"/>
      <use xlink:href="#DejaVuSans-5b" transform="translate(92.96875 0.015625)"/>
      <use xlink:href="#DejaVuSans-Oblique-64" transform="translate(131.982422 0.015625)"/>
      <use xlink:href="#DejaVuSans-Oblique-65" transform="translate(195.458984 0.015625)"/>
      <use xlink:href="#DejaVuSans-Oblique-67" transform="translate(256.982422 0.015625)"/>
      <use xlink:href="#DejaVuSans-5d" transform="translate(320.458984 0.015625)"/>
     </g>
    </g>
   </g>
   <g id="matplotlib.axis_2">
    <g id="ytick_1">
     <g id="line2d_7">
      <path d="M 26.626646 25.458634 
L 94.15458 25.458634 
" clip-path="url(#p4d2172cbc0)" style="fill: none; stroke: #b0b0b0; stroke-width: 0.1; stroke-linecap: round"/>
     </g>
     <g id="line2d_8"/>
     <g id="text_5">
      <!-- −5 -->
      <g style="fill: #262626" transform="translate(12.807115 28.118087) scale(0.07 -0.07)">
       <defs>
        <path id="DejaVuSerif-35" d="M 3219 4666 
L 3219 4153 
L 1081 4153 
L 1081 2816 
Q 1244 2928 1461 2984 
Q 1678 3041 1947 3041 
Q 2703 3041 3140 2622 
Q 3578 2203 3578 1478 
Q 3578 738 3136 323 
Q 2694 -91 1894 -91 
Q 1572 -91 1234 -12 
Q 897 66 544 225 
L 544 1131 
L 897 1131 
Q 925 688 1179 453 
Q 1434 219 1894 219 
Q 2388 219 2653 544 
Q 2919 869 2919 1478 
Q 2919 2084 2655 2407 
Q 2391 2731 1894 2731 
Q 1613 2731 1398 2631 
Q 1184 2531 1019 2322 
L 750 2322 
L 750 4666 
L 3219 4666 
z
" transform="scale(0.015625)"/>
       </defs>
       <use xlink:href="#DejaVuSerif-2212"/>
       <use xlink:href="#DejaVuSerif-35" x="83.789062"/>
      </g>
     </g>
    </g>
    <g id="ytick_2">
     <g id="line2d_9">
      <path d="M 26.626646 11.614929 
L 94.15458 11.614929 
" clip-path="url(#p4d2172cbc0)" style="fill: none; stroke: #b0b0b0; stroke-width: 0.1; stroke-linecap: round"/>
     </g>
     <g id="line2d_10"/>
     <g id="text_6">
      <!-- 0 -->
      <g style="fill: #262626" transform="translate(18.672896 14.274383) scale(0.07 -0.07)">
       <use xlink:href="#DejaVuSerif-30"/>
      </g>
     </g>
    </g>
    <g id="text_7">
     <!-- $X$ $[N]$ -->
     <g style="fill: #262626" transform="translate(7.559302 28.712357) rotate(-90) scale(0.06 -0.06)">
      <defs>
       <path id="DejaVuSans-Oblique-58" d="M 878 4666 
L 1516 4666 
L 2316 2981 
L 3763 4666 
L 4500 4666 
L 2578 2438 
L 3738 0 
L 3103 0 
L 2163 1966 
L 459 0 
L -275 0 
L 1906 2509 
L 878 4666 
z
" transform="scale(0.015625)"/>
       <path id="DejaVuSans-Oblique-4e" d="M 1081 4666 
L 1931 4666 
L 3219 666 
L 4000 4666 
L 4616 4666 
L 3706 0 
L 2853 0 
L 1569 4025 
L 788 0 
L 172 0 
L 1081 4666 
z
" transform="scale(0.015625)"/>
      </defs>
      <use xlink:href="#DejaVuSans-Oblique-58" transform="translate(0 0.015625)"/>
      <use xlink:href="#DejaVuSerif-20" transform="translate(68.505859 0.015625)"/>
      <use xlink:href="#DejaVuSans-5b" transform="translate(100.292969 0.015625)"/>
      <use xlink:href="#DejaVuSans-Oblique-4e" transform="translate(139.306641 0.015625)"/>
      <use xlink:href="#DejaVuSans-5d" transform="translate(214.111328 0.015625)"/>
     </g>
    </g>
   </g>
   <g id="line2d_11">
    <defs>
     <path id="ma49c43547f" d="M 0 0.75 
C 0.198902 0.75 0.389685 0.670975 0.53033 0.53033 
C 0.670975 0.389685 0.75 0.198902 0.75 0 
C 0.75 -0.198902 0.670975 -0.389685 0.53033 -0.53033 
C 0.389685 -0.670975 0.198902 -0.75 0 -0.75 
C -0.198902 -0.75 -0.389685 -0.670975 -0.53033 -0.53033 
C -0.670975 -0.389685 -0.75 -0.198902 -0.75 0 
C -0.75 0.198902 -0.670975 0.389685 -0.53033 0.53033 
C -0.389685 0.670975 -0.198902 0.75 0 0.75 
z
" style="stroke: #000000"/>
    </defs>
    <g clip-path="url(#p4d2172cbc0)">
     <use xlink:href="#ma49c43547f" x="29.696098" y="17.707786" style="stroke: #000000"/>
     <use xlink:href="#ma49c43547f" x="39.927603" y="14.262182" style="stroke: #000000"/>
     <use xlink:href="#ma49c43547f" x="48.112807" y="12.570365" style="stroke: #000000"/>
     <use xlink:href="#ma49c43547f" x="54.25171" y="11.906506" style="stroke: #000000"/>
     <use xlink:href="#ma49c43547f" x="66.529516" y="11.906506" style="stroke: #000000"/>
     <use xlink:href="#ma49c43547f" x="72.668419" y="12.570365" style="stroke: #000000"/>
     <use xlink:href="#ma49c43547f" x="80.853623" y="14.262182" style="stroke: #000000"/>
     <use xlink:href="#ma49c43547f" x="91.085128" y="17.707786" style="stroke: #000000"/>
    </g>
   </g>
   <g id="line2d_12">
    <defs>
     <path id="m58316fe633" d="M 0 0.75 
C 0.198902 0.75 0.389685 0.670975 0.53033 0.53033 
C 0.670975 0.389685 0.75 0.198902 0.75 0 
C 0.75 -0.198902 0.670975 -0.389685 0.53033 -0.53033 
C 0.389685 -0.670975 0.198902 -0.75 0 -0.75 
C -0.198902 -0.75 -0.389685 -0.670975 -0.53033 -0.53033 
C -0.670975 -0.389685 -0.75 -0.198902 -0.75 0 
C -0.75 0.198902 -0.670975 0.389685 -0.53033 0.53033 
C -0.389685 0.670975 -0.198902 0.75 0 0.75 
z
" style="stroke: #00bfbf"/>
    </defs>
    <g clip-path="url(#p4d2172cbc0)">
     <use xlink:href="#m58316fe633" x="29.696098" y="30.338945" style="fill: #00bfbf; stroke: #00bfbf"/>
     <use xlink:href="#m58316fe633" x="39.927603" y="30.50576" style="fill: #00bfbf; stroke: #00bfbf"/>
     <use xlink:href="#m58316fe633" x="48.112807" y="30.609167" style="fill: #00bfbf; stroke: #00bfbf"/>
     <use xlink:href="#m58316fe633" x="54.25171" y="30.57997" style="fill: #00bfbf; stroke: #00bfbf"/>
     <use xlink:href="#m58316fe633" x="66.529516" y="30.57997" style="fill: #00bfbf; stroke: #00bfbf"/>
     <use xlink:href="#m58316fe633" x="72.668419" y="30.609167" style="fill: #00bfbf; stroke: #00bfbf"/>
     <use xlink:href="#m58316fe633" x="80.853623" y="30.50576" style="fill: #00bfbf; stroke: #00bfbf"/>
     <use xlink:href="#m58316fe633" x="91.085128" y="30.338945" style="fill: #00bfbf; stroke: #00bfbf"/>
    </g>
   </g>
   <g id="line2d_13">
    <defs>
     <path id="mf99ead2d27" d="M 0 0.75 
C 0.198902 0.75 0.389685 0.670975 0.53033 0.53033 
C 0.670975 0.389685 0.75 0.198902 0.75 0 
C 0.75 -0.198902 0.670975 -0.389685 0.53033 -0.53033 
C 0.389685 -0.670975 0.198902 -0.75 0 -0.75 
C -0.198902 -0.75 -0.389685 -0.670975 -0.53033 -0.53033 
C -0.670975 -0.389685 -0.75 -0.198902 -0.75 0 
C -0.75 0.198902 -0.670975 0.389685 -0.53033 0.53033 
C -0.389685 0.670975 -0.198902 0.75 0 0.75 
z
" style="stroke: #ff0000"/>
    </defs>
    <g clip-path="url(#p4d2172cbc0)">
     <use xlink:href="#mf99ead2d27" x="29.696098" y="21.547618" style="fill: #ff0000; stroke: #ff0000"/>
     <use xlink:href="#mf99ead2d27" x="39.927603" y="17.758563" style="fill: #ff0000; stroke: #ff0000"/>
     <use xlink:href="#mf99ead2d27" x="48.112807" y="15.859095" style="fill: #ff0000; stroke: #ff0000"/>
     <use xlink:href="#mf99ead2d27" x="54.25171" y="15.177792" style="fill: #ff0000; stroke: #ff0000"/>
     <use xlink:href="#mf99ead2d27" x="66.529516" y="15.177792" style="fill: #ff0000; stroke: #ff0000"/>
     <use xlink:href="#mf99ead2d27" x="72.668419" y="15.859095" style="fill: #ff0000; stroke: #ff0000"/>
     <use xlink:href="#mf99ead2d27" x="80.853623" y="17.758563" style="fill: #ff0000; stroke: #ff0000"/>
     <use xlink:href="#mf99ead2d27" x="91.085128" y="21.547618" style="fill: #ff0000; stroke: #ff0000"/>
    </g>
   </g>
   <g id="line2d_14">
    <path d="M 29.696098 18.582992 
L 39.927603 14.379107 
L 48.112807 12.37709 
L 54.25171 11.575546 
L 66.529516 11.575546 
L 72.668419 12.37709 
L 80.853623 14.379107 
L 91.085128 18.582992 
" clip-path="url(#p4d2172cbc0)" style="fill: none; stroke: #000000; stroke-width: 0.4; stroke-linecap: round"/>
   </g>
   <g id="line2d_15">
    <path d="M 29.696098 30.565933 
L 39.927603 30.565933 
L 48.112807 30.565933 
L 54.25171 30.565933 
L 66.529516 30.565933 
L 72.668419 30.565933 
L 80.853623 30.565933 
L 91.085128 30.565933 
" clip-path="url(#p4d2172cbc0)" style="fill: none; stroke: #00bfbf; stroke-width: 0.4; stroke-linecap: round"/>
   </g>
   <g id="line2d_16">
    <path d="M 29.696098 22.195837 
L 39.927603 17.815315 
L 48.112807 15.709054 
L 54.25171 14.860869 
L 66.529516 14.860869 
L 72.668419 15.709054 
L 80.853623 17.815315 
L 91.085128 22.195837 
" clip-path="url(#p4d2172cbc0)" style="fill: none; stroke: #ff0000; stroke-width: 0.4; stroke-linecap: round"/>
   </g>
   <g id="patch_3">
    <path d="M 26.626646 31.560849 
L 26.626646 10.623865 
" style="fill: none; stroke: #000000; stroke-linejoin: miter; stroke-linecap: square"/>
   </g>
   <g id="patch_4">
    <path d="M 26.626646 31.560849 
L 94.15458 31.560849 
" style="fill: none; stroke: #000000; stroke-linejoin: miter; stroke-linecap: square"/>
   </g>
  </g>
 </g>
 <defs>
  <clipPath id="p4d2172cbc0">
   <rect x="26.626646" y="10.623865" width="67.527934" height="20.936983"/>
  </clipPath>
 </defs>
</svg>
