<?xml version="1.0" encoding="utf-8" standalone="no"?>
<!DOCTYPE svg PUBLIC "-//W3C//DTD SVG 1.1//EN"
  "http://www.w3.org/Graphics/SVG/1.1/DTD/svg11.dtd">
<svg xmlns:xlink="http://www.w3.org/1999/xlink" width="155.447712pt" height="54.655776pt" viewBox="0 0 155.447712 54.655776" xmlns="http://www.w3.org/2000/svg" version="1.1">
 <metadata>
  <rdf:RDF xmlns:dc="http://purl.org/dc/elements/1.1/" xmlns:cc="http://creativecommons.org/ns#" xmlns:rdf="http://www.w3.org/1999/02/22-rdf-syntax-ns#">
   <cc:Work>
    <dc:type rdf:resource="http://purl.org/dc/dcmitype/StillImage"/>
    <dc:date>2025-01-02T16:14:00.800239</dc:date>
    <dc:format>image/svg+xml</dc:format>
    <dc:creator>
     <cc:Agent>
      <dc:title>Matplotlib v3.8.2, https://matplotlib.org/</dc:title>
     </cc:Agent>
    </dc:creator>
   </cc:Work>
  </rdf:RDF>
 </metadata>
 <defs>
  <style type="text/css">*{stroke-linejoin: round; stroke-linecap: butt}</style>
 </defs>
 <g id="figure_1">
  <g id="patch_1">
   <path d="M 0 54.655776 
L 155.447712 54.655776 
L 155.447712 0 
L 0 0 
z
" style="fill: #ffffff"/>
  </g>
  <g id="axes_1">
   <g id="patch_2">
    <path d="M 16.488 23.351161 
L 151.127712 23.351161 
L 151.127712 2.7 
L 16.488 2.7 
z
" style="fill: #ffffff"/>
   </g>
   <g id="matplotlib.axis_1">
    <g id="xtick_1">
     <g id="line2d_1"/>
    </g>
    <g id="xtick_2">
     <g id="line2d_2"/>
    </g>
    <g id="xtick_3">
     <g id="line2d_3"/>
    </g>
    <g id="xtick_4">
     <g id="line2d_4"/>
    </g>
   </g>
   <g id="matplotlib.axis_2">
    <g id="ytick_1">
     <g id="line2d_5"/>
     <g id="text_1">
      <!-- −10 -->
      <g style="fill: #262626" transform="translate(-1.785281 25.058947) scale(0.07 -0.07)">
       <defs>
        <path id="DejaVuSerif-2212" d="M 678 2259 
L 4684 2259 
L 4684 1753 
L 678 1753 
L 678 2259 
z
" transform="scale(0.015625)"/>
        <path id="DejaVuSerif-31" d="M 909 0 
L 909 331 
L 1722 331 
L 1722 4213 
L 781 3603 
L 781 4013 
L 1919 4750 
L 2350 4750 
L 2350 331 
L 3163 331 
L 3163 0 
L 909 0 
z
" transform="scale(0.015625)"/>
        <path id="DejaVuSerif-30" d="M 2034 219 
Q 2513 219 2750 744 
Q 2988 1269 2988 2328 
Q 2988 3391 2750 3916 
Q 2513 4441 2034 4441 
Q 1556 4441 1318 3916 
Q 1081 3391 1081 2328 
Q 1081 1269 1318 744 
Q 1556 219 2034 219 
z
M 2034 -91 
Q 1275 -91 848 546 
Q 422 1184 422 2328 
Q 422 3475 848 4112 
Q 1275 4750 2034 4750 
Q 2797 4750 3222 4112 
Q 3647 3475 3647 2328 
Q 3647 1184 3222 546 
Q 2797 -91 2034 -91 
z
" transform="scale(0.015625)"/>
       </defs>
       <use xlink:href="#DejaVuSerif-2212"/>
       <use xlink:href="#DejaVuSerif-31" x="83.789062"/>
       <use xlink:href="#DejaVuSerif-30" x="147.412109"/>
      </g>
     </g>
    </g>
    <g id="ytick_2">
     <g id="line2d_6"/>
     <g id="text_2">
      <!-- 0 -->
      <g style="fill: #262626" transform="translate(8.53425 16.056839) scale(0.07 -0.07)">
       <use xlink:href="#DejaVuSerif-30"/>
      </g>
     </g>
    </g>
    <g id="ytick_3">
     <g id="line2d_7"/>
     <g id="text_3">
      <!-- 10 -->
      <g style="fill: #262626" transform="translate(4.0805 7.054732) scale(0.07 -0.07)">
       <use xlink:href="#DejaVuSerif-31"/>
       <use xlink:href="#DejaVuSerif-30" x="63.623047"/>
      </g>
     </g>
    </g>
    <g id="text_4">
     <!-- $\beta$ [deg] -->
     <g style="fill: #262626" transform="translate(-7.165281 23.85558) rotate(-90) scale(0.06 -0.06)">
      <defs>
       <path id="DejaVuSans-Oblique-3b2" d="M 872 216 
L 572 -1331 
L -6 -1331 
L 928 3478 
Q 1206 4903 2538 4903 
Q 3888 4903 3659 3700 
Q 3503 2844 2894 2531 
Q 3713 2250 3553 1416 
Q 3272 -69 1759 -66 
Q 1097 -63 872 216 
z
M 1019 966 
Q 1259 422 1875 425 
Q 2775 425 2966 1406 
Q 3138 2288 1675 2219 
L 1778 2750 
Q 2909 2731 3106 3750 
Q 3241 4438 2509 4434 
Q 1691 4434 1503 3459 
L 1019 966 
z
" transform="scale(0.015625)"/>
       <path id="DejaVuSerif-20" transform="scale(0.015625)"/>
       <path id="DejaVuSerif-5b" d="M 550 4863 
L 2003 4863 
L 2003 4531 
L 1147 4531 
L 1147 -513 
L 2003 -513 
L 2003 -844 
L 550 -844 
L 550 4863 
z
" transform="scale(0.015625)"/>
       <path id="DejaVuSerif-64" d="M 3359 331 
L 3909 331 
L 3909 0 
L 2784 0 
L 2784 519 
Q 2616 206 2355 57 
Q 2094 -91 1709 -91 
Q 1097 -91 708 395 
Q 319 881 319 1663 
Q 319 2444 706 2928 
Q 1094 3413 1709 3413 
Q 2094 3413 2355 3264 
Q 2616 3116 2784 2803 
L 2784 4531 
L 2241 4531 
L 2241 4863 
L 3359 4863 
L 3359 331 
z
M 2784 1497 
L 2784 1825 
Q 2784 2422 2554 2737 
Q 2325 3053 1888 3053 
Q 1444 3053 1217 2703 
Q 991 2353 991 1663 
Q 991 975 1217 622 
Q 1444 269 1888 269 
Q 2325 269 2554 583 
Q 2784 897 2784 1497 
z
" transform="scale(0.015625)"/>
       <path id="DejaVuSerif-65" d="M 3469 1600 
L 991 1600 
L 991 1575 
Q 991 903 1244 561 
Q 1497 219 1991 219 
Q 2369 219 2611 417 
Q 2853 616 2950 1006 
L 3413 1006 
Q 3275 459 2904 184 
Q 2534 -91 1931 -91 
Q 1203 -91 761 389 
Q 319 869 319 1663 
Q 319 2450 753 2931 
Q 1188 3413 1894 3413 
Q 2647 3413 3050 2948 
Q 3453 2484 3469 1600 
z
M 2791 1931 
Q 2772 2513 2545 2808 
Q 2319 3103 1894 3103 
Q 1497 3103 1269 2806 
Q 1041 2509 991 1931 
L 2791 1931 
z
" transform="scale(0.015625)"/>
       <path id="DejaVuSerif-67" d="M 3359 2988 
L 3359 72 
Q 3359 -644 2965 -1033 
Q 2572 -1422 1844 -1422 
Q 1516 -1422 1216 -1362 
Q 916 -1303 641 -1184 
L 641 -488 
L 941 -488 
Q 997 -813 1206 -963 
Q 1416 -1113 1806 -1113 
Q 2313 -1113 2548 -827 
Q 2784 -541 2784 72 
L 2784 519 
Q 2616 206 2355 57 
Q 2094 -91 1709 -91 
Q 1097 -91 708 395 
Q 319 881 319 1663 
Q 319 2444 706 2928 
Q 1094 3413 1709 3413 
Q 2094 3413 2355 3264 
Q 2616 3116 2784 2803 
L 2784 3322 
L 3909 3322 
L 3909 2988 
L 3359 2988 
z
M 2784 1825 
Q 2784 2422 2554 2737 
Q 2325 3053 1888 3053 
Q 1444 3053 1217 2703 
Q 991 2353 991 1663 
Q 991 975 1217 622 
Q 1444 269 1888 269 
Q 2325 269 2554 583 
Q 2784 897 2784 1497 
L 2784 1825 
z
" transform="scale(0.015625)"/>
       <path id="DejaVuSerif-5d" d="M 1947 4863 
L 1947 -844 
L 494 -844 
L 494 -513 
L 1350 -513 
L 1350 4531 
L 494 4531 
L 494 4863 
L 1947 4863 
z
" transform="scale(0.015625)"/>
      </defs>
      <use xlink:href="#DejaVuSans-Oblique-3b2" transform="translate(0 0.390625)"/>
      <use xlink:href="#DejaVuSerif-20" transform="translate(63.818359 0.390625)"/>
      <use xlink:href="#DejaVuSerif-5b" transform="translate(95.605469 0.390625)"/>
      <use xlink:href="#DejaVuSerif-64" transform="translate(134.619141 0.390625)"/>
      <use xlink:href="#DejaVuSerif-65" transform="translate(198.632812 0.390625)"/>
      <use xlink:href="#DejaVuSerif-67" transform="translate(257.8125 0.390625)"/>
      <use xlink:href="#DejaVuSerif-5d" transform="translate(321.826172 0.390625)"/>
     </g>
    </g>
   </g>
   <g id="line2d_8">
    <path d="M 22.607987 13.397386 
L 23.802533 13.509231 
L 24.997078 13.847831 
L 27.983442 15.020421 
L 40.320216 20.115912 
L 41.494166 20.353812 
L 42.688711 20.36733 
L 44.048022 20.153166 
L 46.457709 19.473523 
L 50.144324 18.232596 
L 54.572381 16.47335 
L 59.350564 14.322546 
L 71.151851 8.914184 
L 74.735488 7.601981 
L 78.071977 6.612619 
L 81.429063 5.843864 
L 84.992104 5.25162 
L 89.070036 4.802016 
L 92.591886 4.610784 
L 93.951196 4.815108 
L 95.495867 5.286944 
L 100.727153 7.346429 
L 106.80286 9.979423 
L 114.649789 13.677008 
L 121.858254 17.028192 
L 125.874399 18.659899 
L 129.499227 19.899859 
L 132.732739 20.772637 
L 136.048633 21.435791 
L 139.776439 21.944878 
L 144.019136 22.296897 
L 144.801769 22.341577 
L 144.801769 22.341577 
" clip-path="url(#pdcd98a6610)" style="fill: none; stroke: #00bfbf; stroke-width: 0.4; stroke-linecap: round"/>
   </g>
   <g id="line2d_9">
    <path d="M 22.607987 13.397386 
L 23.802533 13.485649 
L 24.976483 13.798901 
L 27.592126 14.808857 
L 32.390904 16.966956 
L 36.983726 18.934889 
L 39.990686 19.978506 
L 41.329401 20.275626 
L 42.544542 20.299263 
L 43.903853 20.096032 
L 46.395922 19.407362 
L 50.164919 18.176751 
L 53.995704 16.690547 
L 57.785297 14.974266 
L 62.913605 12.353056 
L 68.453825 9.581518 
L 71.687337 8.215778 
L 74.797275 7.151815 
L 77.82483 6.349029 
L 81.16132 5.700171 
L 84.86853 5.206483 
L 89.337779 4.838498 
L 91.788657 4.80029 
L 93.189158 5.069915 
L 94.754425 5.574658 
L 104.146026 9.184179 
L 109.789224 11.598455 
L 115.35004 14.227583 
L 122.002423 17.333365 
L 125.58606 18.751644 
L 128.881359 19.816866 
L 132.011892 20.597588 
L 135.389573 21.207492 
L 139.282144 21.678366 
L 143.99854 22.020295 
L 145.007725 22.071398 
L 145.007725 22.071398 
" clip-path="url(#pdcd98a6610)" style="fill: none; stroke: #bf00bf; stroke-width: 0.4; stroke-linecap: round"/>
   </g>
   <g id="patch_3">
    <path d="M 16.488 23.351161 
L 16.488 2.7 
" style="fill: none; stroke: #000000; stroke-linejoin: miter; stroke-linecap: square"/>
   </g>
   <g id="patch_4">
    <path d="M 16.488 23.351161 
L 151.127712 23.351161 
" style="fill: none; stroke: #000000; stroke-linejoin: miter; stroke-linecap: square"/>
   </g>
   <g id="line2d_10">
    <path d="M 22.607987 13.469618 
L 23.884896 13.636722 
L 25.697311 14.140205 
L 30.619687 15.62671 
L 33.276503 16.779994 
L 38.940299 19.290765 
L 40.587944 19.80815 
L 41.94724 19.969164 
L 43.32714 19.905758 
L 47.83759 19.190392 
L 49.650002 18.657477 
L 52.368628 17.585684 
L 62.85182 13.16684 
L 73.726292 8.166796 
L 77.866027 6.618451 
L 81.902751 5.424911 
L 84.621356 4.799687 
L 88.987626 4.014869 
L 92.035786 3.675507 
L 93.477474 3.663997 
L 95.001548 3.914083 
L 96.257882 4.292059 
L 97.884965 4.811655 
L 100.66534 5.702077 
L 103.837089 7.123285 
L 109.150739 9.664624 
L 114.382021 11.90334 
L 123.650099 15.939856 
L 129.581583 18.374256 
L 133.371178 19.683242 
L 139.570462 21.398467 
L 142.927537 22.073065 
L 145.007725 22.412472 
L 145.007725 22.412472 
" clip-path="url(#pdcd98a6610)" style="fill: none; stroke: #000000; stroke-width: 0.7; stroke-linecap: round"/>
   </g>
  </g>
  <g id="axes_2">
   <g id="patch_5">
    <path d="M 16.488 46.840776 
L 151.127712 46.840776 
L 151.127712 26.189615 
L 16.488 26.189615 
z
" style="fill: #ffffff"/>
   </g>
   <g id="matplotlib.axis_3">
    <g id="xtick_5">
     <g id="line2d_11"/>
     <g id="text_5">
      <!-- 0 -->
      <g style="fill: #262626" transform="translate(20.381112 55.659682) scale(0.07 -0.07)">
       <use xlink:href="#DejaVuSerif-30"/>
      </g>
     </g>
    </g>
    <g id="xtick_6">
     <g id="line2d_12"/>
     <g id="text_6">
      <!-- 20 -->
      <g style="fill: #262626" transform="translate(59.345466 55.659682) scale(0.07 -0.07)">
       <defs>
        <path id="DejaVuSerif-32" d="M 819 3553 
L 469 3553 
L 469 4384 
Q 803 4563 1142 4656 
Q 1481 4750 1806 4750 
Q 2534 4750 2956 4397 
Q 3378 4044 3378 3438 
Q 3378 2753 2422 1800 
Q 2347 1728 2309 1691 
L 1131 513 
L 3078 513 
L 3078 1088 
L 3444 1088 
L 3444 0 
L 434 0 
L 434 341 
L 1850 1753 
Q 2319 2222 2519 2614 
Q 2719 3006 2719 3438 
Q 2719 3909 2473 4175 
Q 2228 4441 1797 4441 
Q 1350 4441 1106 4219 
Q 863 3997 819 3553 
z
" transform="scale(0.015625)"/>
       </defs>
       <use xlink:href="#DejaVuSerif-32"/>
       <use xlink:href="#DejaVuSerif-30" x="63.623047"/>
      </g>
     </g>
    </g>
    <g id="xtick_7">
     <g id="line2d_13"/>
     <g id="text_7">
      <!-- 40 -->
      <g style="fill: #262626" transform="translate(100.536696 55.659682) scale(0.07 -0.07)">
       <defs>
        <path id="DejaVuSerif-34" d="M 2234 1581 
L 2234 4063 
L 641 1581 
L 2234 1581 
z
M 3609 0 
L 1484 0 
L 1484 331 
L 2234 331 
L 2234 1247 
L 197 1247 
L 197 1588 
L 2241 4750 
L 2859 4750 
L 2859 1581 
L 3750 1581 
L 3750 1247 
L 2859 1247 
L 2859 331 
L 3609 331 
L 3609 0 
z
" transform="scale(0.015625)"/>
       </defs>
       <use xlink:href="#DejaVuSerif-34"/>
       <use xlink:href="#DejaVuSerif-30" x="63.623047"/>
      </g>
     </g>
    </g>
    <g id="xtick_8">
     <g id="line2d_14"/>
     <g id="text_8">
      <!-- 60 -->
      <g style="fill: #262626" transform="translate(141.727925 55.659682) scale(0.07 -0.07)">
       <defs>
        <path id="DejaVuSerif-36" d="M 2094 219 
Q 2534 219 2771 542 
Q 3009 866 3009 1472 
Q 3009 2078 2771 2401 
Q 2534 2725 2094 2725 
Q 1647 2725 1412 2412 
Q 1178 2100 1178 1509 
Q 1178 888 1415 553 
Q 1653 219 2094 219 
z
M 1075 2569 
Q 1288 2803 1556 2918 
Q 1825 3034 2163 3034 
Q 2859 3034 3264 2615 
Q 3669 2197 3669 1472 
Q 3669 763 3233 336 
Q 2797 -91 2069 -91 
Q 1278 -91 853 498 
Q 428 1088 428 2181 
Q 428 3406 931 4078 
Q 1434 4750 2350 4750 
Q 2597 4750 2869 4703 
Q 3141 4656 3425 4563 
L 3425 3794 
L 3072 3794 
Q 3034 4109 2831 4275 
Q 2628 4441 2284 4441 
Q 1678 4441 1381 3981 
Q 1084 3522 1075 2569 
z
" transform="scale(0.015625)"/>
       </defs>
       <use xlink:href="#DejaVuSerif-36"/>
       <use xlink:href="#DejaVuSerif-30" x="63.623047"/>
      </g>
     </g>
    </g>
    <g id="text_9">
     <!-- Time [s] -->
     <g style="fill: #262626" transform="translate(71.393012 65.674526) scale(0.06 -0.06)">
      <defs>
       <path id="DejaVuSerif-54" d="M 1222 0 
L 1222 331 
L 1819 331 
L 1819 4294 
L 447 4294 
L 447 3566 
L 63 3566 
L 63 4666 
L 4206 4666 
L 4206 3566 
L 3822 3566 
L 3822 4294 
L 2450 4294 
L 2450 331 
L 3047 331 
L 3047 0 
L 1222 0 
z
" transform="scale(0.015625)"/>
       <path id="DejaVuSerif-69" d="M 622 4353 
Q 622 4497 726 4603 
Q 831 4709 978 4709 
Q 1122 4709 1226 4603 
Q 1331 4497 1331 4353 
Q 1331 4206 1228 4103 
Q 1125 4000 978 4000 
Q 831 4000 726 4103 
Q 622 4206 622 4353 
z
M 1356 331 
L 1900 331 
L 1900 0 
L 231 0 
L 231 331 
L 781 331 
L 781 2988 
L 231 2988 
L 231 3322 
L 1356 3322 
L 1356 331 
z
" transform="scale(0.015625)"/>
       <path id="DejaVuSerif-6d" d="M 3316 2675 
Q 3481 3041 3739 3227 
Q 3997 3413 4341 3413 
Q 4863 3413 5119 3089 
Q 5375 2766 5375 2113 
L 5375 331 
L 5894 331 
L 5894 0 
L 4300 0 
L 4300 331 
L 4800 331 
L 4800 2047 
Q 4800 2556 4650 2772 
Q 4500 2988 4153 2988 
Q 3769 2988 3567 2697 
Q 3366 2406 3366 1850 
L 3366 331 
L 3866 331 
L 3866 0 
L 2291 0 
L 2291 331 
L 2791 331 
L 2791 2069 
Q 2791 2566 2641 2777 
Q 2491 2988 2144 2988 
Q 1759 2988 1557 2697 
Q 1356 2406 1356 1850 
L 1356 331 
L 1856 331 
L 1856 0 
L 263 0 
L 263 331 
L 781 331 
L 781 2994 
L 231 2994 
L 231 3322 
L 1356 3322 
L 1356 2731 
Q 1516 3063 1762 3238 
Q 2009 3413 2322 3413 
Q 2709 3413 2968 3220 
Q 3228 3028 3316 2675 
z
" transform="scale(0.015625)"/>
       <path id="DejaVuSerif-73" d="M 359 184 
L 359 959 
L 691 959 
Q 703 588 923 403 
Q 1144 219 1575 219 
Q 1963 219 2166 364 
Q 2369 509 2369 788 
Q 2369 1006 2220 1140 
Q 2072 1275 1594 1428 
L 1178 1569 
Q 750 1706 558 1912 
Q 366 2119 366 2438 
Q 366 2894 700 3153 
Q 1034 3413 1625 3413 
Q 1888 3413 2178 3344 
Q 2469 3275 2778 3144 
L 2778 2419 
L 2447 2419 
Q 2434 2741 2221 2922 
Q 2009 3103 1644 3103 
Q 1281 3103 1095 2975 
Q 909 2847 909 2591 
Q 909 2381 1050 2254 
Q 1191 2128 1613 1997 
L 2069 1856 
Q 2541 1709 2748 1489 
Q 2956 1269 2956 922 
Q 2956 450 2595 179 
Q 2234 -91 1600 -91 
Q 1278 -91 972 -22 
Q 666 47 359 184 
z
" transform="scale(0.015625)"/>
      </defs>
      <use xlink:href="#DejaVuSerif-54"/>
      <use xlink:href="#DejaVuSerif-69" x="66.699219"/>
      <use xlink:href="#DejaVuSerif-6d" x="98.681641"/>
      <use xlink:href="#DejaVuSerif-65" x="193.505859"/>
      <use xlink:href="#DejaVuSerif-20" x="252.685547"/>
      <use xlink:href="#DejaVuSerif-5b" x="284.472656"/>
      <use xlink:href="#DejaVuSerif-73" x="323.486328"/>
      <use xlink:href="#DejaVuSerif-5d" x="374.804688"/>
     </g>
    </g>
   </g>
   <g id="matplotlib.axis_4">
    <g id="ytick_4">
     <g id="line2d_15"/>
     <g id="text_10">
      <!-- −25 -->
      <g style="fill: #262626" transform="translate(-1.785281 46.016517) scale(0.07 -0.07)">
       <defs>
        <path id="DejaVuSerif-35" d="M 3219 4666 
L 3219 4153 
L 1081 4153 
L 1081 2816 
Q 1244 2928 1461 2984 
Q 1678 3041 1947 3041 
Q 2703 3041 3140 2622 
Q 3578 2203 3578 1478 
Q 3578 738 3136 323 
Q 2694 -91 1894 -91 
Q 1572 -91 1234 -12 
Q 897 66 544 225 
L 544 1131 
L 897 1131 
Q 925 688 1179 453 
Q 1434 219 1894 219 
Q 2388 219 2653 544 
Q 2919 869 2919 1478 
Q 2919 2084 2655 2407 
Q 2391 2731 1894 2731 
Q 1613 2731 1398 2631 
Q 1184 2531 1019 2322 
L 750 2322 
L 750 4666 
L 3219 4666 
z
" transform="scale(0.015625)"/>
       </defs>
       <use xlink:href="#DejaVuSerif-2212"/>
       <use xlink:href="#DejaVuSerif-32" x="83.789062"/>
       <use xlink:href="#DejaVuSerif-35" x="147.412109"/>
      </g>
     </g>
    </g>
    <g id="ytick_5">
     <g id="line2d_16"/>
     <g id="text_11">
      <!-- 0 -->
      <g style="fill: #262626" transform="translate(8.53425 39.202242) scale(0.07 -0.07)">
       <use xlink:href="#DejaVuSerif-30"/>
      </g>
     </g>
    </g>
    <g id="ytick_6">
     <g id="line2d_17"/>
     <g id="text_12">
      <!-- 25 -->
      <g style="fill: #262626" transform="translate(4.0805 32.387967) scale(0.07 -0.07)">
       <use xlink:href="#DejaVuSerif-32"/>
       <use xlink:href="#DejaVuSerif-35" x="63.623047"/>
      </g>
     </g>
    </g>
    <g id="text_13">
     <!-- $\psi$ [deg] -->
     <g style="fill: #262626" transform="translate(-7.165281 47.405196) rotate(-90) scale(0.06 -0.06)">
      <defs>
       <path id="DejaVuSans-Oblique-3c8" d="M 1591 -78 
Q 891 38 616 341 
Q 278 713 425 1472 
L 819 3500 
L 1400 3500 
L 1009 1494 
Q 900 922 1119 684 
Q 1313 478 1691 434 
L 2284 3500 
L 2856 3500 
L 2263 438 
Q 2681 481 2928 688 
Q 3247 950 3353 1497 
L 3741 3500 
L 4322 3500 
L 3928 1475 
Q 3775 688 3300 344 
Q 2872 34 2163 -75 
L 1919 -1331 
L 1347 -1331 
L 1591 -78 
z
" transform="scale(0.015625)"/>
      </defs>
      <use xlink:href="#DejaVuSans-Oblique-3c8" transform="translate(0 0.015625)"/>
      <use xlink:href="#DejaVuSerif-20" transform="translate(65.966797 0.015625)"/>
      <use xlink:href="#DejaVuSerif-5b" transform="translate(97.753906 0.015625)"/>
      <use xlink:href="#DejaVuSerif-64" transform="translate(136.767578 0.015625)"/>
      <use xlink:href="#DejaVuSerif-65" transform="translate(200.78125 0.015625)"/>
      <use xlink:href="#DejaVuSerif-67" transform="translate(259.960938 0.015625)"/>
      <use xlink:href="#DejaVuSerif-5d" transform="translate(323.974609 0.015625)"/>
     </g>
    </g>
   </g>
   <g id="line2d_18">
    <path d="M 22.607987 36.542789 
L 25.532564 36.652985 
L 27.736295 36.989636 
L 30.187173 37.594596 
L 32.864603 38.490258 
L 35.727393 39.685496 
L 38.837331 41.229577 
L 45.098398 44.442395 
L 47.096173 45.070287 
L 49.320499 45.534324 
L 51.771377 45.816903 
L 54.469403 45.900855 
L 57.291002 45.766062 
L 60.194984 45.40396 
L 63.181348 44.806482 
L 66.27069 43.957969 
L 69.483606 42.840784 
L 72.98486 41.380689 
L 76.918623 39.493503 
L 81.67621 36.954039 
L 88.266807 33.160049 
L 95.24872 29.175059 
L 97.184708 28.395097 
L 99.244269 27.811864 
L 101.530382 27.399455 
L 104.084239 27.169891 
L 106.905838 27.143679 
L 109.933393 27.340302 
L 113.084522 27.769126 
L 116.276843 28.428463 
L 119.572141 29.338864 
L 122.970417 30.51086 
L 126.57465 31.994568 
L 130.42603 33.825763 
L 134.93647 36.227586 
L 141.156345 39.813904 
L 144.801769 41.992411 
L 144.801769 41.992411 
" clip-path="url(#p72bb7eb90d)" style="fill: none; stroke: #00bfbf; stroke-width: 0.4; stroke-linecap: round"/>
   </g>
   <g id="line2d_19">
    <path d="M 22.607987 36.542789 
L 25.656138 36.652879 
L 27.859869 36.990041 
L 30.24896 37.58413 
L 32.864603 38.468851 
L 35.727393 39.67694 
L 38.960905 41.29058 
L 44.707081 44.226608 
L 46.704856 44.878633 
L 48.949778 45.372757 
L 51.441847 45.689743 
L 54.119277 45.803647 
L 56.858494 45.698138 
L 59.577115 45.371226 
L 62.336928 44.813201 
L 65.179123 44.009873 
L 68.206678 42.920135 
L 71.604954 41.453315 
L 75.724077 39.423149 
L 81.34668 36.381802 
L 94.754425 29.032978 
L 96.731604 28.356241 
L 98.976526 27.827746 
L 101.509787 27.464268 
L 104.351982 27.288004 
L 107.420728 27.322866 
L 110.592453 27.581359 
L 113.702391 28.058406 
L 116.812329 28.762409 
L 120.004649 29.715796 
L 123.402925 30.965343 
L 127.213114 32.610817 
L 131.682362 34.79379 
L 138.149385 38.226217 
L 145.007725 41.987118 
L 145.007725 41.987118 
" clip-path="url(#p72bb7eb90d)" style="fill: none; stroke: #bf00bf; stroke-width: 0.4; stroke-linecap: round"/>
   </g>
   <g id="patch_6">
    <path d="M 16.488 46.840776 
L 16.488 26.189615 
" style="fill: none; stroke: #000000; stroke-linejoin: miter; stroke-linecap: square"/>
   </g>
   <g id="patch_7">
    <path d="M 16.488 46.840776 
L 151.127712 46.840776 
" style="fill: none; stroke: #000000; stroke-linejoin: miter; stroke-linecap: square"/>
   </g>
   <g id="line2d_20">
    <path d="M 22.607987 36.592222 
L 25.326579 36.739244 
L 27.509745 37.108201 
L 29.919403 37.745564 
L 32.55571 38.677952 
L 35.336073 39.898409 
L 38.425475 41.506211 
L 43.492006 44.193274 
L 45.263136 44.793711 
L 47.508075 45.311595 
L 50.123703 45.683606 
L 52.821721 45.843189 
L 55.622733 45.785442 
L 58.485527 45.503083 
L 61.430696 44.988391 
L 64.54065 44.215225 
L 67.712354 43.19874 
L 70.987063 41.913503 
L 74.859059 40.140916 
L 80.028536 37.51015 
L 87.751908 33.315137 
L 94.672014 29.622773 
L 96.587429 28.881253 
L 98.564591 28.373332 
L 100.994872 27.982514 
L 103.981236 27.735985 
L 107.194164 27.690798 
L 110.468902 27.869212 
L 113.908322 28.279516 
L 117.409577 28.921973 
L 121.013809 29.810362 
L 124.597442 30.922592 
L 128.119296 32.250098 
L 132.011867 33.965753 
L 138.005191 36.883276 
L 145.007725 40.485251 
L 145.007725 40.485251 
" clip-path="url(#p72bb7eb90d)" style="fill: none; stroke: #000000; stroke-width: 0.7; stroke-linecap: round"/>
   </g>
  </g>
 </g>
 <defs>
  <clipPath id="pdcd98a6610">
   <rect x="16.488" y="2.7" width="134.639712" height="20.651161"/>
  </clipPath>
  <clipPath id="p72bb7eb90d">
   <rect x="16.488" y="26.189615" width="134.639712" height="20.651161"/>
  </clipPath>
 </defs>
</svg>
