<?xml version="1.0" encoding="utf-8" standalone="no"?>
<!DOCTYPE svg PUBLIC "-//W3C//DTD SVG 1.1//EN"
  "http://www.w3.org/Graphics/SVG/1.1/DTD/svg11.dtd">
<svg xmlns:xlink="http://www.w3.org/1999/xlink" width="194.30964pt" height="145.748736pt" viewBox="0 0 194.30964 145.748736" xmlns="http://www.w3.org/2000/svg" version="1.1">
 <metadata>
  <rdf:RDF xmlns:dc="http://purl.org/dc/elements/1.1/" xmlns:cc="http://creativecommons.org/ns#" xmlns:rdf="http://www.w3.org/1999/02/22-rdf-syntax-ns#">
   <cc:Work>
    <dc:type rdf:resource="http://purl.org/dc/dcmitype/StillImage"/>
    <dc:date>2024-12-09T17:34:46.674558</dc:date>
    <dc:format>image/svg+xml</dc:format>
    <dc:creator>
     <cc:Agent>
      <dc:title>Matplotlib v3.8.2, https://matplotlib.org/</dc:title>
     </cc:Agent>
    </dc:creator>
   </cc:Work>
  </rdf:RDF>
 </metadata>
 <defs>
  <style type="text/css">*{stroke-linejoin: round; stroke-linecap: butt}</style>
 </defs>
 <g id="figure_1">
  <g id="patch_1">
   <path d="M 0 145.748736 
L 194.30964 145.748736 
L 194.30964 0 
L 0 0 
z
" style="fill: #ffffff"/>
  </g>
  <g id="axes_1">
   <g id="patch_2">
    <path d="M 20.61 62.269762 
L 188.90964 62.269762 
L 188.90964 7.2 
L 20.61 7.2 
z
" style="fill: #ffffff"/>
   </g>
   <g id="matplotlib.axis_1">
    <g id="xtick_1">
     <g id="line2d_1"/>
    </g>
    <g id="xtick_2">
     <g id="line2d_2"/>
    </g>
    <g id="xtick_3">
     <g id="line2d_3"/>
    </g>
    <g id="xtick_4">
     <g id="line2d_4"/>
    </g>
    <g id="xtick_5">
     <g id="line2d_5"/>
    </g>
    <g id="xtick_6">
     <g id="line2d_6"/>
    </g>
    <g id="xtick_7">
     <g id="line2d_7"/>
    </g>
   </g>
   <g id="matplotlib.axis_2">
    <g id="ytick_1">
     <g id="line2d_8"/>
     <g id="text_1">
      <!-- −10 -->
      <g style="fill: #262626" transform="translate(2.336719 62.391436) scale(0.07 -0.07)">
       <defs>
        <path id="DejaVuSerif-2212" d="M 678 2259 
L 4684 2259 
L 4684 1753 
L 678 1753 
L 678 2259 
z
" transform="scale(0.015625)"/>
        <path id="DejaVuSerif-31" d="M 909 0 
L 909 331 
L 1722 331 
L 1722 4213 
L 781 3603 
L 781 4013 
L 1919 4750 
L 2350 4750 
L 2350 331 
L 3163 331 
L 3163 0 
L 909 0 
z
" transform="scale(0.015625)"/>
        <path id="DejaVuSerif-30" d="M 2034 219 
Q 2513 219 2750 744 
Q 2988 1269 2988 2328 
Q 2988 3391 2750 3916 
Q 2513 4441 2034 4441 
Q 1556 4441 1318 3916 
Q 1081 3391 1081 2328 
Q 1081 1269 1318 744 
Q 1556 219 2034 219 
z
M 2034 -91 
Q 1275 -91 848 546 
Q 422 1184 422 2328 
Q 422 3475 848 4112 
Q 1275 4750 2034 4750 
Q 2797 4750 3222 4112 
Q 3647 3475 3647 2328 
Q 3647 1184 3222 546 
Q 2797 -91 2034 -91 
z
" transform="scale(0.015625)"/>
       </defs>
       <use xlink:href="#DejaVuSerif-2212"/>
       <use xlink:href="#DejaVuSerif-31" x="83.789062"/>
       <use xlink:href="#DejaVuSerif-30" x="147.412109"/>
      </g>
     </g>
    </g>
    <g id="ytick_2">
     <g id="line2d_9"/>
     <g id="text_2">
      <!-- 0 -->
      <g style="fill: #262626" transform="translate(12.65625 38.385816) scale(0.07 -0.07)">
       <use xlink:href="#DejaVuSerif-30"/>
      </g>
     </g>
    </g>
    <g id="ytick_3">
     <g id="line2d_10"/>
     <g id="text_3">
      <!-- 10 -->
      <g style="fill: #262626" transform="translate(8.2025 14.380197) scale(0.07 -0.07)">
       <use xlink:href="#DejaVuSerif-31"/>
       <use xlink:href="#DejaVuSerif-30" x="63.623047"/>
      </g>
     </g>
    </g>
    <g id="text_4">
     <!-- $\beta$ [deg] -->
     <g style="fill: #262626" transform="translate(-3.043281 45.564881) rotate(-90) scale(0.06 -0.06)">
      <defs>
       <path id="DejaVuSans-Oblique-3b2" d="M 872 216 
L 572 -1331 
L -6 -1331 
L 928 3478 
Q 1206 4903 2538 4903 
Q 3888 4903 3659 3700 
Q 3503 2844 2894 2531 
Q 3713 2250 3553 1416 
Q 3272 -69 1759 -66 
Q 1097 -63 872 216 
z
M 1019 966 
Q 1259 422 1875 425 
Q 2775 425 2966 1406 
Q 3138 2288 1675 2219 
L 1778 2750 
Q 2909 2731 3106 3750 
Q 3241 4438 2509 4434 
Q 1691 4434 1503 3459 
L 1019 966 
z
" transform="scale(0.015625)"/>
       <path id="DejaVuSerif-20" transform="scale(0.015625)"/>
       <path id="DejaVuSerif-5b" d="M 550 4863 
L 2003 4863 
L 2003 4531 
L 1147 4531 
L 1147 -513 
L 2003 -513 
L 2003 -844 
L 550 -844 
L 550 4863 
z
" transform="scale(0.015625)"/>
       <path id="DejaVuSerif-64" d="M 3359 331 
L 3909 331 
L 3909 0 
L 2784 0 
L 2784 519 
Q 2616 206 2355 57 
Q 2094 -91 1709 -91 
Q 1097 -91 708 395 
Q 319 881 319 1663 
Q 319 2444 706 2928 
Q 1094 3413 1709 3413 
Q 2094 3413 2355 3264 
Q 2616 3116 2784 2803 
L 2784 4531 
L 2241 4531 
L 2241 4863 
L 3359 4863 
L 3359 331 
z
M 2784 1497 
L 2784 1825 
Q 2784 2422 2554 2737 
Q 2325 3053 1888 3053 
Q 1444 3053 1217 2703 
Q 991 2353 991 1663 
Q 991 975 1217 622 
Q 1444 269 1888 269 
Q 2325 269 2554 583 
Q 2784 897 2784 1497 
z
" transform="scale(0.015625)"/>
       <path id="DejaVuSerif-65" d="M 3469 1600 
L 991 1600 
L 991 1575 
Q 991 903 1244 561 
Q 1497 219 1991 219 
Q 2369 219 2611 417 
Q 2853 616 2950 1006 
L 3413 1006 
Q 3275 459 2904 184 
Q 2534 -91 1931 -91 
Q 1203 -91 761 389 
Q 319 869 319 1663 
Q 319 2450 753 2931 
Q 1188 3413 1894 3413 
Q 2647 3413 3050 2948 
Q 3453 2484 3469 1600 
z
M 2791 1931 
Q 2772 2513 2545 2808 
Q 2319 3103 1894 3103 
Q 1497 3103 1269 2806 
Q 1041 2509 991 1931 
L 2791 1931 
z
" transform="scale(0.015625)"/>
       <path id="DejaVuSerif-67" d="M 3359 2988 
L 3359 72 
Q 3359 -644 2965 -1033 
Q 2572 -1422 1844 -1422 
Q 1516 -1422 1216 -1362 
Q 916 -1303 641 -1184 
L 641 -488 
L 941 -488 
Q 997 -813 1206 -963 
Q 1416 -1113 1806 -1113 
Q 2313 -1113 2548 -827 
Q 2784 -541 2784 72 
L 2784 519 
Q 2616 206 2355 57 
Q 2094 -91 1709 -91 
Q 1097 -91 708 395 
Q 319 881 319 1663 
Q 319 2444 706 2928 
Q 1094 3413 1709 3413 
Q 2094 3413 2355 3264 
Q 2616 3116 2784 2803 
L 2784 3322 
L 3909 3322 
L 3909 2988 
L 3359 2988 
z
M 2784 1825 
Q 2784 2422 2554 2737 
Q 2325 3053 1888 3053 
Q 1444 3053 1217 2703 
Q 991 2353 991 1663 
Q 991 975 1217 622 
Q 1444 269 1888 269 
Q 2325 269 2554 583 
Q 2784 897 2784 1497 
L 2784 1825 
z
" transform="scale(0.015625)"/>
       <path id="DejaVuSerif-5d" d="M 1947 4863 
L 1947 -844 
L 494 -844 
L 494 -513 
L 1350 -513 
L 1350 4531 
L 494 4531 
L 494 4863 
L 1947 4863 
z
" transform="scale(0.015625)"/>
      </defs>
      <use xlink:href="#DejaVuSans-Oblique-3b2" transform="translate(0 0.390625)"/>
      <use xlink:href="#DejaVuSerif-20" transform="translate(63.818359 0.390625)"/>
      <use xlink:href="#DejaVuSerif-5b" transform="translate(95.605469 0.390625)"/>
      <use xlink:href="#DejaVuSerif-64" transform="translate(134.619141 0.390625)"/>
      <use xlink:href="#DejaVuSerif-65" transform="translate(198.632812 0.390625)"/>
      <use xlink:href="#DejaVuSerif-67" transform="translate(257.8125 0.390625)"/>
      <use xlink:href="#DejaVuSerif-5d" transform="translate(321.826172 0.390625)"/>
     </g>
    </g>
   </g>
   <g id="line2d_11">
    <path d="M 28.259984 35.726363 
L 29.186786 35.840228 
L 30.087844 36.175735 
L 31.040392 36.774278 
L 33.280165 38.561327 
L 36.395251 41.355325 
L 46.976248 51.075033 
L 49.756656 53.197956 
L 51.121116 54.032189 
L 52.047919 54.312563 
L 52.974721 54.35836 
L 53.953013 54.178006 
L 55.060027 53.741775 
L 56.630443 52.830257 
L 59.797019 50.763489 
L 62.860616 48.4774 
L 66.619316 45.345349 
L 70.197804 42.090824 
L 74.651606 37.729143 
L 87.060464 25.424832 
L 90.252784 22.67831 
L 93.213404 20.418526 
L 95.942322 18.602531 
L 98.696986 17.035913 
L 101.503138 15.704458 
L 104.283546 14.62744 
L 107.3214 13.701345 
L 110.539464 12.958003 
L 114.014974 12.378333 
L 115.559645 12.274295 
L 116.537937 12.478105 
L 117.619207 12.932197 
L 118.880688 13.724887 
L 120.708549 15.206112 
L 128.019992 21.471267 
L 133.117407 26.237675 
L 139.141624 32.207013 
L 152.21984 45.312536 
L 155.721094 48.428755 
L 158.939159 51.001906 
L 161.771056 52.998883 
L 164.396997 54.590634 
L 167.022938 55.926284 
L 169.59739 56.994125 
L 172.455031 57.931482 
L 175.518629 58.698912 
L 178.685205 59.270644 
L 181.002211 59.577539 
L 181.002211 59.577539 
" clip-path="url(#p0c8902bba9)" style="fill: none; stroke: #00bfbf; stroke-width: 0.4; stroke-linecap: round"/>
   </g>
   <g id="line2d_12">
    <path d="M 28.259984 35.726363 
L 29.186786 35.80044 
L 30.087844 36.100007 
L 31.014647 36.649199 
L 32.97123 38.170447 
L 35.571427 40.48241 
L 39.536083 44.315465 
L 44.170096 48.709874 
L 47.104971 51.197908 
L 49.653678 53.054705 
L 51.095371 53.88809 
L 51.99643 54.132579 
L 52.948977 54.158311 
L 53.953013 53.956074 
L 55.060027 53.498891 
L 56.887888 52.431639 
L 59.899997 50.495894 
L 63.118062 48.154146 
L 66.773783 45.143469 
L 69.708658 42.453469 
L 72.900979 39.232575 
L 76.968612 34.806082 
L 84.460267 26.658891 
L 87.446631 23.77277 
L 90.046828 21.5576 
L 92.647024 19.636897 
L 95.118498 18.08136 
L 97.615716 16.769664 
L 100.267402 15.633279 
L 103.073554 14.676023 
L 106.188641 13.860475 
L 109.509684 13.221089 
L 113.42285 12.695207 
L 114.349653 12.725322 
L 115.353689 12.988462 
L 116.512193 13.533549 
L 117.722185 14.313681 
L 119.884725 16.036816 
L 129.332963 23.75211 
L 134.713567 28.556445 
L 139.012902 32.667836 
L 144.599462 38.367169 
L 150.520701 44.353597 
L 154.021956 47.5812 
L 156.905342 49.945094 
L 159.68575 51.943509 
L 162.311691 53.555359 
L 164.834654 54.844058 
L 167.486339 55.949858 
L 170.266747 56.867727 
L 173.330345 57.644269 
L 176.702877 58.277519 
L 180.822 58.811549 
L 181.259656 58.85706 
L 181.259656 58.85706 
" clip-path="url(#p0c8902bba9)" style="fill: none; stroke: #bf00bf; stroke-width: 0.4; stroke-linecap: round"/>
   </g>
   <g id="patch_3">
    <path d="M 20.61 62.269762 
L 20.61 7.2 
" style="fill: none; stroke: #000000; stroke-linejoin: miter; stroke-linecap: square"/>
   </g>
   <g id="patch_4">
    <path d="M 20.61 62.269762 
L 188.90964 62.269762 
" style="fill: none; stroke: #000000; stroke-linejoin: miter; stroke-linecap: square"/>
   </g>
   <g id="legend_1">
    <g id="line2d_13">
     <path d="M 66.815992 31.415075 
L 73.815992 31.415075 
L 80.815992 31.415075 
" style="fill: none; stroke: #000000; stroke-width: 0.7; stroke-linecap: round"/>
    </g>
    <g id="text_5">
     <!-- experiment -->
     <g style="fill: #262626" transform="translate(86.415992 33.865075) scale(0.07 -0.07)">
      <defs>
       <path id="DejaVuSerif-78" d="M 1863 2028 
L 2559 2988 
L 2113 2988 
L 2113 3322 
L 3391 3322 
L 3391 2988 
L 2950 2988 
L 2059 1759 
L 3097 331 
L 3531 331 
L 3531 0 
L 1997 0 
L 1997 331 
L 2419 331 
L 1697 1325 
L 972 331 
L 1403 331 
L 1403 0 
L 141 0 
L 141 331 
L 581 331 
L 1497 1594 
L 488 2988 
L 78 2988 
L 78 3322 
L 1563 3322 
L 1563 2988 
L 1166 2988 
L 1863 2028 
z
" transform="scale(0.015625)"/>
       <path id="DejaVuSerif-70" d="M 1313 1825 
L 1313 1497 
Q 1313 897 1542 583 
Q 1772 269 2209 269 
Q 2650 269 2876 622 
Q 3103 975 3103 1663 
Q 3103 2353 2876 2703 
Q 2650 3053 2209 3053 
Q 1772 3053 1542 2737 
Q 1313 2422 1313 1825 
z
M 738 2988 
L 184 2988 
L 184 3322 
L 1313 3322 
L 1313 2803 
Q 1481 3116 1742 3264 
Q 2003 3413 2388 3413 
Q 3000 3413 3387 2928 
Q 3775 2444 3775 1663 
Q 3775 881 3387 395 
Q 3000 -91 2388 -91 
Q 2003 -91 1742 57 
Q 1481 206 1313 519 
L 1313 -997 
L 1856 -997 
L 1856 -1331 
L 184 -1331 
L 184 -997 
L 738 -997 
L 738 2988 
z
" transform="scale(0.015625)"/>
       <path id="DejaVuSerif-72" d="M 3059 3328 
L 3059 2497 
L 2728 2497 
Q 2713 2744 2591 2866 
Q 2469 2988 2234 2988 
Q 1809 2988 1582 2694 
Q 1356 2400 1356 1850 
L 1356 331 
L 2022 331 
L 2022 0 
L 263 0 
L 263 331 
L 781 331 
L 781 2994 
L 231 2994 
L 231 3322 
L 1356 3322 
L 1356 2731 
Q 1525 3078 1790 3245 
Q 2056 3413 2438 3413 
Q 2578 3413 2733 3391 
Q 2888 3369 3059 3328 
z
" transform="scale(0.015625)"/>
       <path id="DejaVuSerif-69" d="M 622 4353 
Q 622 4497 726 4603 
Q 831 4709 978 4709 
Q 1122 4709 1226 4603 
Q 1331 4497 1331 4353 
Q 1331 4206 1228 4103 
Q 1125 4000 978 4000 
Q 831 4000 726 4103 
Q 622 4206 622 4353 
z
M 1356 331 
L 1900 331 
L 1900 0 
L 231 0 
L 231 331 
L 781 331 
L 781 2988 
L 231 2988 
L 231 3322 
L 1356 3322 
L 1356 331 
z
" transform="scale(0.015625)"/>
       <path id="DejaVuSerif-6d" d="M 3316 2675 
Q 3481 3041 3739 3227 
Q 3997 3413 4341 3413 
Q 4863 3413 5119 3089 
Q 5375 2766 5375 2113 
L 5375 331 
L 5894 331 
L 5894 0 
L 4300 0 
L 4300 331 
L 4800 331 
L 4800 2047 
Q 4800 2556 4650 2772 
Q 4500 2988 4153 2988 
Q 3769 2988 3567 2697 
Q 3366 2406 3366 1850 
L 3366 331 
L 3866 331 
L 3866 0 
L 2291 0 
L 2291 331 
L 2791 331 
L 2791 2069 
Q 2791 2566 2641 2777 
Q 2491 2988 2144 2988 
Q 1759 2988 1557 2697 
Q 1356 2406 1356 1850 
L 1356 331 
L 1856 331 
L 1856 0 
L 263 0 
L 263 331 
L 781 331 
L 781 2994 
L 231 2994 
L 231 3322 
L 1356 3322 
L 1356 2731 
Q 1516 3063 1762 3238 
Q 2009 3413 2322 3413 
Q 2709 3413 2968 3220 
Q 3228 3028 3316 2675 
z
" transform="scale(0.015625)"/>
       <path id="DejaVuSerif-6e" d="M 263 0 
L 263 331 
L 781 331 
L 781 2988 
L 231 2988 
L 231 3322 
L 1356 3322 
L 1356 2731 
Q 1516 3069 1770 3241 
Q 2025 3413 2363 3413 
Q 2913 3413 3172 3097 
Q 3431 2781 3431 2113 
L 3431 331 
L 3944 331 
L 3944 0 
L 2356 0 
L 2356 331 
L 2853 331 
L 2853 1931 
Q 2853 2541 2703 2767 
Q 2553 2994 2175 2994 
Q 1775 2994 1565 2701 
Q 1356 2409 1356 1850 
L 1356 331 
L 1856 331 
L 1856 0 
L 263 0 
z
" transform="scale(0.015625)"/>
       <path id="DejaVuSerif-74" d="M 691 2988 
L 184 2988 
L 184 3322 
L 691 3322 
L 691 4353 
L 1269 4353 
L 1269 3322 
L 2350 3322 
L 2350 2988 
L 1269 2988 
L 1269 878 
Q 1269 456 1350 337 
Q 1431 219 1650 219 
Q 1875 219 1978 351 
Q 2081 484 2088 781 
L 2522 781 
Q 2497 328 2275 118 
Q 2053 -91 1600 -91 
Q 1103 -91 897 129 
Q 691 350 691 878 
L 691 2988 
z
" transform="scale(0.015625)"/>
      </defs>
      <use xlink:href="#DejaVuSerif-65"/>
      <use xlink:href="#DejaVuSerif-78" x="59.179688"/>
      <use xlink:href="#DejaVuSerif-70" x="115.576172"/>
      <use xlink:href="#DejaVuSerif-65" x="179.589844"/>
      <use xlink:href="#DejaVuSerif-72" x="238.769531"/>
      <use xlink:href="#DejaVuSerif-69" x="286.572266"/>
      <use xlink:href="#DejaVuSerif-6d" x="318.554688"/>
      <use xlink:href="#DejaVuSerif-65" x="413.378906"/>
      <use xlink:href="#DejaVuSerif-6e" x="472.558594"/>
      <use xlink:href="#DejaVuSerif-74" x="536.962891"/>
     </g>
    </g>
    <g id="line2d_14">
     <path d="M 66.815992 41.689762 
L 73.815992 41.689762 
L 80.815992 41.689762 
" style="fill: none; stroke: #00bfbf; stroke-width: 0.4; stroke-linecap: round"/>
    </g>
    <g id="text_6">
     <!-- MMG original -->
     <g style="fill: #262626" transform="translate(86.415992 44.139762) scale(0.07 -0.07)">
      <defs>
       <path id="DejaVuSerif-4d" d="M 353 0 
L 353 331 
L 947 331 
L 947 4331 
L 319 4331 
L 319 4666 
L 1678 4666 
L 3316 1344 
L 4953 4666 
L 6228 4666 
L 6228 4331 
L 5606 4331 
L 5606 331 
L 6203 331 
L 6203 0 
L 4378 0 
L 4378 331 
L 4972 331 
L 4972 3938 
L 3372 684 
L 2931 684 
L 1331 3938 
L 1331 331 
L 1925 331 
L 1925 0 
L 353 0 
z
" transform="scale(0.015625)"/>
       <path id="DejaVuSerif-47" d="M 4097 3272 
Q 3988 3856 3641 4136 
Q 3294 4416 2675 4416 
Q 1869 4416 1472 3897 
Q 1075 3378 1075 2328 
Q 1075 1300 1484 772 
Q 1894 244 2688 244 
Q 3041 244 3362 331 
Q 3684 419 3975 594 
L 3975 1797 
L 3097 1797 
L 3097 2131 
L 4609 2131 
L 4609 391 
Q 4194 150 3714 29 
Q 3234 -91 2688 -91 
Q 1631 -91 995 570 
Q 359 1231 359 2328 
Q 359 3434 996 4092 
Q 1634 4750 2713 4750 
Q 3113 4750 3539 4658 
Q 3966 4566 4447 4378 
L 4447 3272 
L 4097 3272 
z
" transform="scale(0.015625)"/>
       <path id="DejaVuSerif-6f" d="M 1925 219 
Q 2388 219 2623 584 
Q 2859 950 2859 1663 
Q 2859 2375 2623 2739 
Q 2388 3103 1925 3103 
Q 1463 3103 1227 2739 
Q 991 2375 991 1663 
Q 991 950 1228 584 
Q 1466 219 1925 219 
z
M 1925 -91 
Q 1200 -91 759 389 
Q 319 869 319 1663 
Q 319 2456 758 2934 
Q 1197 3413 1925 3413 
Q 2653 3413 3092 2934 
Q 3531 2456 3531 1663 
Q 3531 869 3092 389 
Q 2653 -91 1925 -91 
z
" transform="scale(0.015625)"/>
       <path id="DejaVuSerif-61" d="M 2547 1044 
L 2547 1747 
L 1806 1747 
Q 1378 1747 1168 1562 
Q 959 1378 959 997 
Q 959 650 1171 447 
Q 1384 244 1747 244 
Q 2106 244 2326 466 
Q 2547 688 2547 1044 
z
M 3122 2075 
L 3122 331 
L 3634 331 
L 3634 0 
L 2547 0 
L 2547 359 
Q 2356 128 2106 18 
Q 1856 -91 1522 -91 
Q 969 -91 644 203 
Q 319 497 319 997 
Q 319 1513 691 1797 
Q 1063 2081 1741 2081 
L 2547 2081 
L 2547 2309 
Q 2547 2688 2317 2895 
Q 2088 3103 1672 3103 
Q 1328 3103 1125 2947 
Q 922 2791 872 2484 
L 575 2484 
L 575 3156 
Q 875 3284 1158 3348 
Q 1441 3413 1709 3413 
Q 2400 3413 2761 3070 
Q 3122 2728 3122 2075 
z
" transform="scale(0.015625)"/>
       <path id="DejaVuSerif-6c" d="M 1313 331 
L 1856 331 
L 1856 0 
L 184 0 
L 184 331 
L 738 331 
L 738 4531 
L 184 4531 
L 184 4863 
L 1313 4863 
L 1313 331 
z
" transform="scale(0.015625)"/>
      </defs>
      <use xlink:href="#DejaVuSerif-4d"/>
      <use xlink:href="#DejaVuSerif-4d" x="102.392578"/>
      <use xlink:href="#DejaVuSerif-47" x="204.785156"/>
      <use xlink:href="#DejaVuSerif-20" x="284.667969"/>
      <use xlink:href="#DejaVuSerif-6f" x="316.455078"/>
      <use xlink:href="#DejaVuSerif-72" x="376.660156"/>
      <use xlink:href="#DejaVuSerif-69" x="424.462891"/>
      <use xlink:href="#DejaVuSerif-67" x="456.445312"/>
      <use xlink:href="#DejaVuSerif-69" x="520.458984"/>
      <use xlink:href="#DejaVuSerif-6e" x="552.441406"/>
      <use xlink:href="#DejaVuSerif-61" x="616.845703"/>
      <use xlink:href="#DejaVuSerif-6c" x="676.464844"/>
     </g>
    </g>
    <g id="line2d_15">
     <path d="M 66.815992 52.063981 
L 73.815992 52.063981 
L 80.815992 52.063981 
" style="fill: none; stroke: #bf00bf; stroke-width: 0.4; stroke-linecap: round"/>
    </g>
    <g id="text_7">
     <!-- MMG quadratic -->
     <g style="fill: #262626" transform="translate(86.415992 54.513981) scale(0.07 -0.07)">
      <defs>
       <path id="DejaVuSerif-71" d="M 3359 2988 
L 3359 -997 
L 3909 -997 
L 3909 -1331 
L 2241 -1331 
L 2241 -997 
L 2784 -997 
L 2784 519 
Q 2616 206 2355 57 
Q 2094 -91 1709 -91 
Q 1097 -91 708 395 
Q 319 881 319 1663 
Q 319 2444 706 2928 
Q 1094 3413 1709 3413 
Q 2094 3413 2355 3264 
Q 2616 3116 2784 2803 
L 2784 3322 
L 3909 3322 
L 3909 2988 
L 3359 2988 
z
M 2784 1825 
Q 2784 2422 2554 2737 
Q 2325 3053 1888 3053 
Q 1444 3053 1217 2703 
Q 991 2353 991 1663 
Q 991 975 1217 622 
Q 1444 269 1888 269 
Q 2325 269 2554 583 
Q 2784 897 2784 1497 
L 2784 1825 
z
" transform="scale(0.015625)"/>
       <path id="DejaVuSerif-75" d="M 2266 3322 
L 3341 3322 
L 3341 331 
L 3884 331 
L 3884 0 
L 2766 0 
L 2766 588 
Q 2606 256 2353 82 
Q 2100 -91 1766 -91 
Q 1213 -91 952 223 
Q 691 538 691 1209 
L 691 2988 
L 172 2988 
L 172 3322 
L 1269 3322 
L 1269 1388 
Q 1269 781 1417 556 
Q 1566 331 1947 331 
Q 2347 331 2556 625 
Q 2766 919 2766 1478 
L 2766 2988 
L 2266 2988 
L 2266 3322 
z
" transform="scale(0.015625)"/>
       <path id="DejaVuSerif-63" d="M 3291 997 
Q 3169 466 2822 187 
Q 2475 -91 1925 -91 
Q 1200 -91 759 389 
Q 319 869 319 1663 
Q 319 2459 759 2936 
Q 1200 3413 1925 3413 
Q 2241 3413 2553 3339 
Q 2866 3266 3181 3116 
L 3181 2266 
L 2847 2266 
Q 2781 2703 2561 2903 
Q 2341 3103 1931 3103 
Q 1466 3103 1228 2742 
Q 991 2381 991 1663 
Q 991 944 1227 581 
Q 1463 219 1931 219 
Q 2303 219 2525 412 
Q 2747 606 2828 997 
L 3291 997 
z
" transform="scale(0.015625)"/>
      </defs>
      <use xlink:href="#DejaVuSerif-4d"/>
      <use xlink:href="#DejaVuSerif-4d" x="102.392578"/>
      <use xlink:href="#DejaVuSerif-47" x="204.785156"/>
      <use xlink:href="#DejaVuSerif-20" x="284.667969"/>
      <use xlink:href="#DejaVuSerif-71" x="316.455078"/>
      <use xlink:href="#DejaVuSerif-75" x="380.46875"/>
      <use xlink:href="#DejaVuSerif-61" x="444.873047"/>
      <use xlink:href="#DejaVuSerif-64" x="504.492188"/>
      <use xlink:href="#DejaVuSerif-72" x="568.505859"/>
      <use xlink:href="#DejaVuSerif-61" x="616.308594"/>
      <use xlink:href="#DejaVuSerif-74" x="675.927734"/>
      <use xlink:href="#DejaVuSerif-69" x="716.113281"/>
      <use xlink:href="#DejaVuSerif-63" x="748.095703"/>
     </g>
    </g>
   </g>
   <g id="line2d_16">
    <path d="M 28.259984 35.918982 
L 29.238252 36.123215 
L 30.268025 36.56955 
L 31.992941 37.629981 
L 37.605244 41.139248 
L 39.407329 42.653207 
L 42.084775 45.237963 
L 46.950471 50.003451 
L 49.885351 52.369485 
L 50.940884 52.905803 
L 51.99643 53.196415 
L 53.051921 53.260503 
L 54.081697 53.103055 
L 55.188709 52.694697 
L 57.042335 52.165202 
L 58.921669 51.564318 
L 60.337636 50.891433 
L 61.779329 49.961235 
L 63.632918 48.478405 
L 71.17606 42.091535 
L 73.982253 39.633524 
L 78.204357 35.472899 
L 91.153819 22.639715 
L 95.736379 18.816159 
L 98.259311 17.024629 
L 102.532878 14.377311 
L 104.489549 13.386526 
L 109.689885 11.218584 
L 112.779263 10.274482 
L 115.482384 9.737389 
L 116.537919 9.725354 
L 117.438975 9.930448 
L 119.035194 10.572552 
L 120.013411 11.193248 
L 122.201711 12.739201 
L 125.007871 14.53677 
L 126.501089 15.789688 
L 128.715066 17.865428 
L 131.10936 20.428685 
L 134.559087 24.089399 
L 137.210775 26.435716 
L 140.686265 29.563535 
L 161.178904 48.351017 
L 164.654416 51.025606 
L 167.409077 52.919615 
L 173.613519 56.6368 
L 177.011785 58.206006 
L 180.976441 59.677379 
L 181.259656 59.766591 
L 181.259656 59.766591 
" clip-path="url(#p0c8902bba9)" style="fill: none; stroke: #000000; stroke-width: 0.7; stroke-linecap: round"/>
   </g>
  </g>
  <g id="axes_2">
   <g id="patch_5">
    <path d="M 20.61 124.908736 
L 188.90964 124.908736 
L 188.90964 69.838974 
L 20.61 69.838974 
z
" style="fill: #ffffff"/>
   </g>
   <g id="matplotlib.axis_3">
    <g id="xtick_8">
     <g id="line2d_17"/>
     <g id="text_8">
      <!-- 0 -->
      <g style="fill: #262626" transform="translate(26.033109 133.727642) scale(0.07 -0.07)">
       <use xlink:href="#DejaVuSerif-30"/>
      </g>
     </g>
    </g>
    <g id="xtick_9">
     <g id="line2d_18"/>
     <g id="text_9">
      <!-- 10 -->
      <g style="fill: #262626" transform="translate(49.550752 133.727642) scale(0.07 -0.07)">
       <use xlink:href="#DejaVuSerif-31"/>
       <use xlink:href="#DejaVuSerif-30" x="63.623047"/>
      </g>
     </g>
    </g>
    <g id="xtick_10">
     <g id="line2d_19"/>
     <g id="text_10">
      <!-- 20 -->
      <g style="fill: #262626" transform="translate(75.29527 133.727642) scale(0.07 -0.07)">
       <defs>
        <path id="DejaVuSerif-32" d="M 819 3553 
L 469 3553 
L 469 4384 
Q 803 4563 1142 4656 
Q 1481 4750 1806 4750 
Q 2534 4750 2956 4397 
Q 3378 4044 3378 3438 
Q 3378 2753 2422 1800 
Q 2347 1728 2309 1691 
L 1131 513 
L 3078 513 
L 3078 1088 
L 3444 1088 
L 3444 0 
L 434 0 
L 434 341 
L 1850 1753 
Q 2319 2222 2519 2614 
Q 2719 3006 2719 3438 
Q 2719 3909 2473 4175 
Q 2228 4441 1797 4441 
Q 1350 4441 1106 4219 
Q 863 3997 819 3553 
z
" transform="scale(0.015625)"/>
       </defs>
       <use xlink:href="#DejaVuSerif-32"/>
       <use xlink:href="#DejaVuSerif-30" x="63.623047"/>
      </g>
     </g>
    </g>
    <g id="xtick_11">
     <g id="line2d_20"/>
     <g id="text_11">
      <!-- 30 -->
      <g style="fill: #262626" transform="translate(101.039789 133.727642) scale(0.07 -0.07)">
       <defs>
        <path id="DejaVuSerif-33" d="M 622 4469 
Q 988 4606 1323 4678 
Q 1659 4750 1953 4750 
Q 2638 4750 3022 4454 
Q 3406 4159 3406 3634 
Q 3406 3213 3140 2930 
Q 2875 2647 2388 2547 
Q 2963 2466 3280 2130 
Q 3597 1794 3597 1259 
Q 3597 606 3158 257 
Q 2719 -91 1894 -91 
Q 1528 -91 1179 -12 
Q 831 66 488 225 
L 488 1131 
L 838 1131 
Q 869 681 1141 450 
Q 1413 219 1906 219 
Q 2384 219 2661 495 
Q 2938 772 2938 1253 
Q 2938 1803 2653 2086 
Q 2369 2369 1819 2369 
L 1522 2369 
L 1522 2688 
L 1678 2688 
Q 2225 2688 2498 2914 
Q 2772 3141 2772 3597 
Q 2772 4006 2547 4223 
Q 2322 4441 1900 4441 
Q 1478 4441 1245 4241 
Q 1013 4041 972 3647 
L 622 3647 
L 622 4469 
z
" transform="scale(0.015625)"/>
       </defs>
       <use xlink:href="#DejaVuSerif-33"/>
       <use xlink:href="#DejaVuSerif-30" x="63.623047"/>
      </g>
     </g>
    </g>
    <g id="xtick_12">
     <g id="line2d_21"/>
     <g id="text_12">
      <!-- 40 -->
      <g style="fill: #262626" transform="translate(126.784307 133.727642) scale(0.07 -0.07)">
       <defs>
        <path id="DejaVuSerif-34" d="M 2234 1581 
L 2234 4063 
L 641 1581 
L 2234 1581 
z
M 3609 0 
L 1484 0 
L 1484 331 
L 2234 331 
L 2234 1247 
L 197 1247 
L 197 1588 
L 2241 4750 
L 2859 4750 
L 2859 1581 
L 3750 1581 
L 3750 1247 
L 2859 1247 
L 2859 331 
L 3609 331 
L 3609 0 
z
" transform="scale(0.015625)"/>
       </defs>
       <use xlink:href="#DejaVuSerif-34"/>
       <use xlink:href="#DejaVuSerif-30" x="63.623047"/>
      </g>
     </g>
    </g>
    <g id="xtick_13">
     <g id="line2d_22"/>
     <g id="text_13">
      <!-- 50 -->
      <g style="fill: #262626" transform="translate(152.528826 133.727642) scale(0.07 -0.07)">
       <defs>
        <path id="DejaVuSerif-35" d="M 3219 4666 
L 3219 4153 
L 1081 4153 
L 1081 2816 
Q 1244 2928 1461 2984 
Q 1678 3041 1947 3041 
Q 2703 3041 3140 2622 
Q 3578 2203 3578 1478 
Q 3578 738 3136 323 
Q 2694 -91 1894 -91 
Q 1572 -91 1234 -12 
Q 897 66 544 225 
L 544 1131 
L 897 1131 
Q 925 688 1179 453 
Q 1434 219 1894 219 
Q 2388 219 2653 544 
Q 2919 869 2919 1478 
Q 2919 2084 2655 2407 
Q 2391 2731 1894 2731 
Q 1613 2731 1398 2631 
Q 1184 2531 1019 2322 
L 750 2322 
L 750 4666 
L 3219 4666 
z
" transform="scale(0.015625)"/>
       </defs>
       <use xlink:href="#DejaVuSerif-35"/>
       <use xlink:href="#DejaVuSerif-30" x="63.623047"/>
      </g>
     </g>
    </g>
    <g id="xtick_14">
     <g id="line2d_23"/>
     <g id="text_14">
      <!-- 60 -->
      <g style="fill: #262626" transform="translate(178.273344 133.727642) scale(0.07 -0.07)">
       <defs>
        <path id="DejaVuSerif-36" d="M 2094 219 
Q 2534 219 2771 542 
Q 3009 866 3009 1472 
Q 3009 2078 2771 2401 
Q 2534 2725 2094 2725 
Q 1647 2725 1412 2412 
Q 1178 2100 1178 1509 
Q 1178 888 1415 553 
Q 1653 219 2094 219 
z
M 1075 2569 
Q 1288 2803 1556 2918 
Q 1825 3034 2163 3034 
Q 2859 3034 3264 2615 
Q 3669 2197 3669 1472 
Q 3669 763 3233 336 
Q 2797 -91 2069 -91 
Q 1278 -91 853 498 
Q 428 1088 428 2181 
Q 428 3406 931 4078 
Q 1434 4750 2350 4750 
Q 2597 4750 2869 4703 
Q 3141 4656 3425 4563 
L 3425 3794 
L 3072 3794 
Q 3034 4109 2831 4275 
Q 2628 4441 2284 4441 
Q 1678 4441 1381 3981 
Q 1084 3522 1075 2569 
z
" transform="scale(0.015625)"/>
       </defs>
       <use xlink:href="#DejaVuSerif-36"/>
       <use xlink:href="#DejaVuSerif-30" x="63.623047"/>
      </g>
     </g>
    </g>
    <g id="text_15">
     <!-- Time [s] -->
     <g style="fill: #262626" transform="translate(92.344976 143.742486) scale(0.06 -0.06)">
      <defs>
       <path id="DejaVuSerif-54" d="M 1222 0 
L 1222 331 
L 1819 331 
L 1819 4294 
L 447 4294 
L 447 3566 
L 63 3566 
L 63 4666 
L 4206 4666 
L 4206 3566 
L 3822 3566 
L 3822 4294 
L 2450 4294 
L 2450 331 
L 3047 331 
L 3047 0 
L 1222 0 
z
" transform="scale(0.015625)"/>
       <path id="DejaVuSerif-73" d="M 359 184 
L 359 959 
L 691 959 
Q 703 588 923 403 
Q 1144 219 1575 219 
Q 1963 219 2166 364 
Q 2369 509 2369 788 
Q 2369 1006 2220 1140 
Q 2072 1275 1594 1428 
L 1178 1569 
Q 750 1706 558 1912 
Q 366 2119 366 2438 
Q 366 2894 700 3153 
Q 1034 3413 1625 3413 
Q 1888 3413 2178 3344 
Q 2469 3275 2778 3144 
L 2778 2419 
L 2447 2419 
Q 2434 2741 2221 2922 
Q 2009 3103 1644 3103 
Q 1281 3103 1095 2975 
Q 909 2847 909 2591 
Q 909 2381 1050 2254 
Q 1191 2128 1613 1997 
L 2069 1856 
Q 2541 1709 2748 1489 
Q 2956 1269 2956 922 
Q 2956 450 2595 179 
Q 2234 -91 1600 -91 
Q 1278 -91 972 -22 
Q 666 47 359 184 
z
" transform="scale(0.015625)"/>
      </defs>
      <use xlink:href="#DejaVuSerif-54"/>
      <use xlink:href="#DejaVuSerif-69" x="66.699219"/>
      <use xlink:href="#DejaVuSerif-6d" x="98.681641"/>
      <use xlink:href="#DejaVuSerif-65" x="193.505859"/>
      <use xlink:href="#DejaVuSerif-20" x="252.685547"/>
      <use xlink:href="#DejaVuSerif-5b" x="284.472656"/>
      <use xlink:href="#DejaVuSerif-73" x="323.486328"/>
      <use xlink:href="#DejaVuSerif-5d" x="374.804688"/>
     </g>
    </g>
   </g>
   <g id="matplotlib.axis_4">
    <g id="ytick_4">
     <g id="line2d_24"/>
     <g id="text_16">
      <!-- −25 -->
      <g style="fill: #262626" transform="translate(2.336719 118.27829) scale(0.07 -0.07)">
       <use xlink:href="#DejaVuSerif-2212"/>
       <use xlink:href="#DejaVuSerif-32" x="83.789062"/>
       <use xlink:href="#DejaVuSerif-35" x="147.412109"/>
      </g>
     </g>
    </g>
    <g id="ytick_5">
     <g id="line2d_25"/>
     <g id="text_17">
      <!-- 0 -->
      <g style="fill: #262626" transform="translate(12.65625 100.10689) scale(0.07 -0.07)">
       <use xlink:href="#DejaVuSerif-30"/>
      </g>
     </g>
    </g>
    <g id="ytick_6">
     <g id="line2d_26"/>
     <g id="text_18">
      <!-- 25 -->
      <g style="fill: #262626" transform="translate(8.2025 81.93549) scale(0.07 -0.07)">
       <use xlink:href="#DejaVuSerif-32"/>
       <use xlink:href="#DejaVuSerif-35" x="63.623047"/>
      </g>
     </g>
    </g>
    <g id="text_19">
     <!-- $\psi$ [deg] -->
     <g style="fill: #262626" transform="translate(-3.043281 108.263855) rotate(-90) scale(0.06 -0.06)">
      <defs>
       <path id="DejaVuSans-Oblique-3c8" d="M 1591 -78 
Q 891 38 616 341 
Q 278 713 425 1472 
L 819 3500 
L 1400 3500 
L 1009 1494 
Q 900 922 1119 684 
Q 1313 478 1691 434 
L 2284 3500 
L 2856 3500 
L 2263 438 
Q 2681 481 2928 688 
Q 3247 950 3353 1497 
L 3741 3500 
L 4322 3500 
L 3928 1475 
Q 3775 688 3300 344 
Q 2872 34 2163 -75 
L 1919 -1331 
L 1347 -1331 
L 1591 -78 
z
" transform="scale(0.015625)"/>
      </defs>
      <use xlink:href="#DejaVuSans-Oblique-3c8" transform="translate(0 0.015625)"/>
      <use xlink:href="#DejaVuSerif-20" transform="translate(65.966797 0.015625)"/>
      <use xlink:href="#DejaVuSerif-5b" transform="translate(97.753906 0.015625)"/>
      <use xlink:href="#DejaVuSerif-64" transform="translate(136.767578 0.015625)"/>
      <use xlink:href="#DejaVuSerif-65" transform="translate(200.78125 0.015625)"/>
      <use xlink:href="#DejaVuSerif-67" transform="translate(259.960938 0.015625)"/>
      <use xlink:href="#DejaVuSerif-5d" transform="translate(323.974609 0.015625)"/>
     </g>
    </g>
   </g>
   <g id="line2d_27">
    <path d="M 28.259984 97.447437 
L 30.834435 97.556405 
L 32.430596 97.864492 
L 34.155478 98.428353 
L 36.009084 99.270854 
L 38.017156 100.430389 
L 40.20544 101.957788 
L 42.548191 103.87258 
L 45.04541 106.20819 
L 47.748584 109.050455 
L 50.812182 112.607149 
L 54.133225 116.444101 
L 55.858107 118.088107 
L 57.480012 119.329773 
L 59.17915 120.354728 
L 60.955522 121.16926 
L 62.834872 121.785456 
L 64.791455 122.190175 
L 66.851017 122.386978 
L 68.987812 122.366472 
L 71.150351 122.123308 
L 73.36438 121.650327 
L 75.655642 120.930916 
L 77.998393 119.959231 
L 80.418378 118.710411 
L 82.915596 117.169845 
L 85.541537 115.283234 
L 88.321945 113.006033 
L 91.359798 110.225024 
L 94.706586 106.854388 
L 98.568263 102.63535 
L 103.125043 97.314759 
L 109.200749 89.847409 
L 118.54601 78.327078 
L 120.270892 76.677071 
L 121.892797 75.429864 
L 123.591935 74.401716 
L 125.368307 73.586356 
L 127.221912 72.979969 
L 129.20424 72.568207 
L 131.289546 72.364565 
L 133.47783 72.374379 
L 135.769092 72.60777 
L 138.163333 73.078312 
L 140.609062 73.788593 
L 143.10628 74.74875 
L 145.654987 75.970107 
L 148.280928 77.476975 
L 151.009847 79.301479 
L 153.841744 81.466515 
L 156.853853 84.05511 
L 160.020429 87.072461 
L 163.470194 90.675733 
L 167.409105 95.122275 
L 172.326308 101.028486 
L 178.94265 109.343481 
L 181.002211 111.979764 
L 181.002211 111.979764 
" clip-path="url(#pcf6705b1be)" style="fill: none; stroke: #00bfbf; stroke-width: 0.4; stroke-linecap: round"/>
   </g>
   <g id="line2d_28">
    <path d="M 28.259984 97.447437 
L 30.988903 97.55585 
L 32.610807 97.870703 
L 34.33569 98.438498 
L 36.163551 99.277356 
L 38.120134 100.420848 
L 40.256929 101.932864 
L 42.573936 103.852545 
L 45.096899 106.239978 
L 47.903051 109.211646 
L 51.327072 113.180942 
L 54.055991 116.243577 
L 55.806618 117.873614 
L 57.454267 119.101264 
L 59.204895 120.125811 
L 61.032756 120.936356 
L 62.963594 121.547697 
L 64.945922 121.943622 
L 67.005484 122.129585 
L 69.09079 122.09697 
L 71.176096 121.844016 
L 73.261402 121.368403 
L 75.372452 120.659378 
L 77.534992 119.698059 
L 79.774765 118.458676 
L 82.143261 116.890456 
L 84.666223 114.947688 
L 87.420887 112.53813 
L 90.561718 109.484082 
L 94.21744 105.610834 
L 98.799964 100.412549 
L 105.44205 92.510743 
L 116.769638 79.006 
L 118.54601 77.333331 
L 120.193659 76.080906 
L 121.944286 75.030424 
L 123.797891 74.176475 
L 125.780219 73.510734 
L 127.839781 73.05435 
L 130.053809 72.791705 
L 132.370816 72.742248 
L 134.765056 72.913817 
L 137.210785 73.313576 
L 139.63077 73.936075 
L 142.050755 74.791271 
L 144.496484 75.894055 
L 146.993702 77.26698 
L 149.619643 78.970211 
L 152.374307 81.025213 
L 155.334926 83.515302 
L 158.630225 86.584115 
L 162.337435 90.350987 
L 166.894215 95.317532 
L 173.484812 102.863207 
L 181.259656 111.965647 
L 181.259656 111.965647 
" clip-path="url(#pcf6705b1be)" style="fill: none; stroke: #bf00bf; stroke-width: 0.4; stroke-linecap: round"/>
   </g>
   <g id="patch_6">
    <path d="M 20.61 124.908736 
L 20.61 69.838974 
" style="fill: none; stroke: #000000; stroke-linejoin: miter; stroke-linecap: square"/>
   </g>
   <g id="patch_7">
    <path d="M 20.61 124.908736 
L 188.90964 124.908736 
" style="fill: none; stroke: #000000; stroke-linejoin: miter; stroke-linecap: square"/>
   </g>
   <g id="line2d_29">
    <path d="M 28.259984 97.57926 
L 30.602722 97.758068 
L 32.173138 98.111558 
L 33.872258 98.726095 
L 35.72586 99.637686 
L 37.733941 100.879084 
L 39.896472 102.483701 
L 42.213484 104.486196 
L 44.659226 106.90301 
L 47.36238 109.898339 
L 54.313408 117.803671 
L 55.755111 118.921418 
L 57.428497 119.929624 
L 59.307857 120.800131 
L 61.341674 121.495336 
L 63.401251 121.968011 
L 65.486549 122.219197 
L 67.623324 122.251704 
L 69.785907 122.059994 
L 71.999889 121.636821 
L 74.265412 120.97432 
L 76.582419 120.061391 
L 79.028146 118.853711 
L 81.576881 117.345191 
L 84.177049 115.545056 
L 86.854477 113.418545 
L 89.73786 110.839838 
L 93.187618 107.440316 
L 97.281007 103.081729 
L 102.841871 96.828392 
L 112.98516 84.964212 
L 117.490461 79.84514 
L 119.344064 78.080077 
L 120.837238 76.947991 
L 122.433437 76.026628 
L 124.235512 75.244533 
L 126.24359 74.620037 
L 128.509112 74.155043 
L 130.980594 73.876689 
L 133.426375 73.823162 
L 135.897782 73.991133 
L 138.472246 74.391913 
L 141.123996 75.029896 
L 143.827098 75.910446 
L 146.581777 77.043166 
L 149.439398 78.460097 
L 152.348555 80.153615 
L 155.257662 82.105769 
L 158.166798 84.328468 
L 161.178904 86.916512 
L 164.577286 90.141731 
L 169.314172 94.974114 
L 175.64732 101.755645 
L 181.259656 107.96067 
L 181.259656 107.96067 
" clip-path="url(#pcf6705b1be)" style="fill: none; stroke: #000000; stroke-width: 0.7; stroke-linecap: round"/>
   </g>
  </g>
 </g>
 <defs>
  <clipPath id="p0c8902bba9">
   <rect x="20.61" y="7.2" width="168.29964" height="55.069762"/>
  </clipPath>
  <clipPath id="pcf6705b1be">
   <rect x="20.61" y="69.838974" width="168.29964" height="55.069762"/>
  </clipPath>
 </defs>
</svg>
