<?xml version="1.0" encoding="utf-8" standalone="no"?>
<!DOCTYPE svg PUBLIC "-//W3C//DTD SVG 1.1//EN"
  "http://www.w3.org/Graphics/SVG/1.1/DTD/svg11.dtd">
<svg xmlns:xlink="http://www.w3.org/1999/xlink" width="194.30964pt" height="109.311552pt" viewBox="0 0 194.30964 109.311552" xmlns="http://www.w3.org/2000/svg" version="1.1">
 <metadata>
  <rdf:RDF xmlns:dc="http://purl.org/dc/elements/1.1/" xmlns:cc="http://creativecommons.org/ns#" xmlns:rdf="http://www.w3.org/1999/02/22-rdf-syntax-ns#">
   <cc:Work>
    <dc:type rdf:resource="http://purl.org/dc/dcmitype/StillImage"/>
    <dc:date>2025-01-02T14:20:42.384072</dc:date>
    <dc:format>image/svg+xml</dc:format>
    <dc:creator>
     <cc:Agent>
      <dc:title>Matplotlib v3.8.2, https://matplotlib.org/</dc:title>
     </cc:Agent>
    </dc:creator>
   </cc:Work>
  </rdf:RDF>
 </metadata>
 <defs>
  <style type="text/css">*{stroke-linejoin: round; stroke-linecap: butt}</style>
 </defs>
 <g id="figure_1">
  <g id="patch_1">
   <path d="M 0 109.311552 
L 194.30964 109.311552 
L 194.30964 0 
L 0 0 
z
" style="fill: #ffffff"/>
  </g>
  <g id="axes_1">
   <g id="patch_2">
    <path d="M 31.080396 86.036625 
L 191.3094 86.036625 
L 191.3094 3.00024 
L 31.080396 3.00024 
z
" style="fill: #ffffff"/>
   </g>
   <g id="matplotlib.axis_1">
    <g id="xtick_1">
     <g id="line2d_1"/>
     <g id="text_1">
      <!-- −20 -->
      <g style="fill: #262626" transform="translate(40.934847 94.855531) scale(0.07 -0.07)">
       <defs>
        <path id="DejaVuSerif-2212" d="M 678 2259 
L 4684 2259 
L 4684 1753 
L 678 1753 
L 678 2259 
z
" transform="scale(0.015625)"/>
        <path id="DejaVuSerif-32" d="M 819 3553 
L 469 3553 
L 469 4384 
Q 803 4563 1142 4656 
Q 1481 4750 1806 4750 
Q 2534 4750 2956 4397 
Q 3378 4044 3378 3438 
Q 3378 2753 2422 1800 
Q 2347 1728 2309 1691 
L 1131 513 
L 3078 513 
L 3078 1088 
L 3444 1088 
L 3444 0 
L 434 0 
L 434 341 
L 1850 1753 
Q 2319 2222 2519 2614 
Q 2719 3006 2719 3438 
Q 2719 3909 2473 4175 
Q 2228 4441 1797 4441 
Q 1350 4441 1106 4219 
Q 863 3997 819 3553 
z
" transform="scale(0.015625)"/>
        <path id="DejaVuSerif-30" d="M 2034 219 
Q 2513 219 2750 744 
Q 2988 1269 2988 2328 
Q 2988 3391 2750 3916 
Q 2513 4441 2034 4441 
Q 1556 4441 1318 3916 
Q 1081 3391 1081 2328 
Q 1081 1269 1318 744 
Q 1556 219 2034 219 
z
M 2034 -91 
Q 1275 -91 848 546 
Q 422 1184 422 2328 
Q 422 3475 848 4112 
Q 1275 4750 2034 4750 
Q 2797 4750 3222 4112 
Q 3647 3475 3647 2328 
Q 3647 1184 3222 546 
Q 2797 -91 2034 -91 
z
" transform="scale(0.015625)"/>
       </defs>
       <use xlink:href="#DejaVuSerif-2212"/>
       <use xlink:href="#DejaVuSerif-32" x="83.789062"/>
       <use xlink:href="#DejaVuSerif-30" x="147.412109"/>
      </g>
     </g>
    </g>
    <g id="xtick_2">
     <g id="line2d_2"/>
     <g id="text_2">
      <!-- −10 -->
      <g style="fill: #262626" transform="translate(67.523529 94.855531) scale(0.07 -0.07)">
       <defs>
        <path id="DejaVuSerif-31" d="M 909 0 
L 909 331 
L 1722 331 
L 1722 4213 
L 781 3603 
L 781 4013 
L 1919 4750 
L 2350 4750 
L 2350 331 
L 3163 331 
L 3163 0 
L 909 0 
z
" transform="scale(0.015625)"/>
       </defs>
       <use xlink:href="#DejaVuSerif-2212"/>
       <use xlink:href="#DejaVuSerif-31" x="83.789062"/>
       <use xlink:href="#DejaVuSerif-30" x="147.412109"/>
      </g>
     </g>
    </g>
    <g id="xtick_3">
     <g id="line2d_3"/>
     <g id="text_3">
      <!-- 0 -->
      <g style="fill: #262626" transform="translate(99.271977 94.855531) scale(0.07 -0.07)">
       <use xlink:href="#DejaVuSerif-30"/>
      </g>
     </g>
    </g>
    <g id="xtick_4">
     <g id="line2d_4"/>
     <g id="text_4">
      <!-- 10 -->
      <g style="fill: #262626" transform="translate(123.633784 94.855531) scale(0.07 -0.07)">
       <use xlink:href="#DejaVuSerif-31"/>
       <use xlink:href="#DejaVuSerif-30" x="63.623047"/>
      </g>
     </g>
    </g>
    <g id="xtick_5">
     <g id="line2d_5"/>
     <g id="text_5">
      <!-- 20 -->
      <g style="fill: #262626" transform="translate(150.222465 94.855531) scale(0.07 -0.07)">
       <use xlink:href="#DejaVuSerif-32"/>
       <use xlink:href="#DejaVuSerif-30" x="63.623047"/>
      </g>
     </g>
    </g>
    <g id="xtick_6">
     <g id="line2d_6"/>
     <g id="text_6">
      <!-- 30 -->
      <g style="fill: #262626" transform="translate(176.811147 94.855531) scale(0.07 -0.07)">
       <defs>
        <path id="DejaVuSerif-33" d="M 622 4469 
Q 988 4606 1323 4678 
Q 1659 4750 1953 4750 
Q 2638 4750 3022 4454 
Q 3406 4159 3406 3634 
Q 3406 3213 3140 2930 
Q 2875 2647 2388 2547 
Q 2963 2466 3280 2130 
Q 3597 1794 3597 1259 
Q 3597 606 3158 257 
Q 2719 -91 1894 -91 
Q 1528 -91 1179 -12 
Q 831 66 488 225 
L 488 1131 
L 838 1131 
Q 869 681 1141 450 
Q 1413 219 1906 219 
Q 2384 219 2661 495 
Q 2938 772 2938 1253 
Q 2938 1803 2653 2086 
Q 2369 2369 1819 2369 
L 1522 2369 
L 1522 2688 
L 1678 2688 
Q 2225 2688 2498 2914 
Q 2772 3141 2772 3597 
Q 2772 4006 2547 4223 
Q 2322 4441 1900 4441 
Q 1478 4441 1245 4241 
Q 1013 4041 972 3647 
L 622 3647 
L 622 4469 
z
" transform="scale(0.015625)"/>
       </defs>
       <use xlink:href="#DejaVuSerif-33"/>
       <use xlink:href="#DejaVuSerif-30" x="63.623047"/>
      </g>
     </g>
    </g>
    <g id="text_7">
     <!-- $\beta_R$ [deg] -->
     <g style="fill: #262626" transform="translate(98.804898 104.931312) scale(0.06 -0.06)">
      <defs>
       <path id="DejaVuSans-Oblique-3b2" d="M 872 216 
L 572 -1331 
L -6 -1331 
L 928 3478 
Q 1206 4903 2538 4903 
Q 3888 4903 3659 3700 
Q 3503 2844 2894 2531 
Q 3713 2250 3553 1416 
Q 3272 -69 1759 -66 
Q 1097 -63 872 216 
z
M 1019 966 
Q 1259 422 1875 425 
Q 2775 425 2966 1406 
Q 3138 2288 1675 2219 
L 1778 2750 
Q 2909 2731 3106 3750 
Q 3241 4438 2509 4434 
Q 1691 4434 1503 3459 
L 1019 966 
z
" transform="scale(0.015625)"/>
       <path id="DejaVuSans-Oblique-52" d="M 1613 4147 
L 1294 2491 
L 2106 2491 
Q 2584 2491 2879 2755 
Q 3175 3019 3175 3444 
Q 3175 3784 2976 3965 
Q 2778 4147 2406 4147 
L 1613 4147 
z
M 2772 2241 
Q 2972 2194 3105 2009 
Q 3238 1825 3413 1275 
L 3809 0 
L 3144 0 
L 2778 1197 
Q 2638 1659 2453 1815 
Q 2269 1972 1888 1972 
L 1191 1972 
L 806 0 
L 172 0 
L 1081 4666 
L 2503 4666 
Q 3150 4666 3495 4373 
Q 3841 4081 3841 3531 
Q 3841 3044 3547 2687 
Q 3253 2331 2772 2241 
z
" transform="scale(0.015625)"/>
       <path id="DejaVuSerif-20" transform="scale(0.015625)"/>
       <path id="DejaVuSerif-5b" d="M 550 4863 
L 2003 4863 
L 2003 4531 
L 1147 4531 
L 1147 -513 
L 2003 -513 
L 2003 -844 
L 550 -844 
L 550 4863 
z
" transform="scale(0.015625)"/>
       <path id="DejaVuSerif-64" d="M 3359 331 
L 3909 331 
L 3909 0 
L 2784 0 
L 2784 519 
Q 2616 206 2355 57 
Q 2094 -91 1709 -91 
Q 1097 -91 708 395 
Q 319 881 319 1663 
Q 319 2444 706 2928 
Q 1094 3413 1709 3413 
Q 2094 3413 2355 3264 
Q 2616 3116 2784 2803 
L 2784 4531 
L 2241 4531 
L 2241 4863 
L 3359 4863 
L 3359 331 
z
M 2784 1497 
L 2784 1825 
Q 2784 2422 2554 2737 
Q 2325 3053 1888 3053 
Q 1444 3053 1217 2703 
Q 991 2353 991 1663 
Q 991 975 1217 622 
Q 1444 269 1888 269 
Q 2325 269 2554 583 
Q 2784 897 2784 1497 
z
" transform="scale(0.015625)"/>
       <path id="DejaVuSerif-65" d="M 3469 1600 
L 991 1600 
L 991 1575 
Q 991 903 1244 561 
Q 1497 219 1991 219 
Q 2369 219 2611 417 
Q 2853 616 2950 1006 
L 3413 1006 
Q 3275 459 2904 184 
Q 2534 -91 1931 -91 
Q 1203 -91 761 389 
Q 319 869 319 1663 
Q 319 2450 753 2931 
Q 1188 3413 1894 3413 
Q 2647 3413 3050 2948 
Q 3453 2484 3469 1600 
z
M 2791 1931 
Q 2772 2513 2545 2808 
Q 2319 3103 1894 3103 
Q 1497 3103 1269 2806 
Q 1041 2509 991 1931 
L 2791 1931 
z
" transform="scale(0.015625)"/>
       <path id="DejaVuSerif-67" d="M 3359 2988 
L 3359 72 
Q 3359 -644 2965 -1033 
Q 2572 -1422 1844 -1422 
Q 1516 -1422 1216 -1362 
Q 916 -1303 641 -1184 
L 641 -488 
L 941 -488 
Q 997 -813 1206 -963 
Q 1416 -1113 1806 -1113 
Q 2313 -1113 2548 -827 
Q 2784 -541 2784 72 
L 2784 519 
Q 2616 206 2355 57 
Q 2094 -91 1709 -91 
Q 1097 -91 708 395 
Q 319 881 319 1663 
Q 319 2444 706 2928 
Q 1094 3413 1709 3413 
Q 2094 3413 2355 3264 
Q 2616 3116 2784 2803 
L 2784 3322 
L 3909 3322 
L 3909 2988 
L 3359 2988 
z
M 2784 1825 
Q 2784 2422 2554 2737 
Q 2325 3053 1888 3053 
Q 1444 3053 1217 2703 
Q 991 2353 991 1663 
Q 991 975 1217 622 
Q 1444 269 1888 269 
Q 2325 269 2554 583 
Q 2784 897 2784 1497 
L 2784 1825 
z
" transform="scale(0.015625)"/>
       <path id="DejaVuSerif-5d" d="M 1947 4863 
L 1947 -844 
L 494 -844 
L 494 -513 
L 1350 -513 
L 1350 4531 
L 494 4531 
L 494 4863 
L 1947 4863 
z
" transform="scale(0.015625)"/>
      </defs>
      <use xlink:href="#DejaVuSans-Oblique-3b2" transform="translate(0 0.390625)"/>
      <use xlink:href="#DejaVuSans-Oblique-52" transform="translate(63.818359 -16.015625) scale(0.7)"/>
      <use xlink:href="#DejaVuSerif-20" transform="translate(115.19043 0.390625)"/>
      <use xlink:href="#DejaVuSerif-5b" transform="translate(146.977539 0.390625)"/>
      <use xlink:href="#DejaVuSerif-64" transform="translate(185.991211 0.390625)"/>
      <use xlink:href="#DejaVuSerif-65" transform="translate(250.004883 0.390625)"/>
      <use xlink:href="#DejaVuSerif-67" transform="translate(309.18457 0.390625)"/>
      <use xlink:href="#DejaVuSerif-5d" transform="translate(373.198242 0.390625)"/>
     </g>
    </g>
   </g>
   <g id="matplotlib.axis_2">
    <g id="ytick_1">
     <g id="line2d_7"/>
     <g id="text_8">
      <!-- −10 -->
      <g style="fill: #262626" transform="translate(12.807115 85.598626) scale(0.07 -0.07)">
       <use xlink:href="#DejaVuSerif-2212"/>
       <use xlink:href="#DejaVuSerif-31" x="83.789062"/>
       <use xlink:href="#DejaVuSerif-30" x="147.412109"/>
      </g>
     </g>
    </g>
    <g id="ytick_2">
     <g id="line2d_8"/>
     <g id="text_9">
      <!-- 0 -->
      <g style="fill: #262626" transform="translate(23.126646 55.831813) scale(0.07 -0.07)">
       <use xlink:href="#DejaVuSerif-30"/>
      </g>
     </g>
    </g>
    <g id="ytick_3">
     <g id="line2d_9"/>
     <g id="text_10">
      <!-- 10 -->
      <g style="fill: #262626" transform="translate(18.672896 26.064999) scale(0.07 -0.07)">
       <use xlink:href="#DejaVuSerif-31"/>
       <use xlink:href="#DejaVuSerif-30" x="63.623047"/>
      </g>
     </g>
    </g>
    <g id="text_11">
     <!-- $Y_R$ [N] -->
     <g style="fill: #262626" transform="translate(7.559302 53.818432) rotate(-90) scale(0.06 -0.06)">
      <defs>
       <path id="DejaVuSans-Oblique-59" d="M 403 4666 
L 1081 4666 
L 1953 2747 
L 3616 4666 
L 4325 4666 
L 2209 2222 
L 1778 0 
L 1147 0 
L 1575 2222 
L 403 4666 
z
" transform="scale(0.015625)"/>
       <path id="DejaVuSerif-4e" d="M 313 0 
L 313 331 
L 941 331 
L 941 4331 
L 313 4331 
L 313 4666 
L 1509 4666 
L 4306 984 
L 4306 4331 
L 3681 4331 
L 3681 4666 
L 5319 4666 
L 5319 4331 
L 4691 4331 
L 4691 -91 
L 4313 -91 
L 1325 3841 
L 1325 331 
L 1953 331 
L 1953 0 
L 313 0 
z
" transform="scale(0.015625)"/>
      </defs>
      <use xlink:href="#DejaVuSans-Oblique-59" transform="translate(0 0.015625)"/>
      <use xlink:href="#DejaVuSans-Oblique-52" transform="translate(61.083984 -16.390625) scale(0.7)"/>
      <use xlink:href="#DejaVuSerif-20" transform="translate(112.456055 0.015625)"/>
      <use xlink:href="#DejaVuSerif-5b" transform="translate(144.243164 0.015625)"/>
      <use xlink:href="#DejaVuSerif-4e" transform="translate(183.256836 0.015625)"/>
      <use xlink:href="#DejaVuSerif-5d" transform="translate(270.756836 0.015625)"/>
     </g>
    </g>
   </g>
   <g id="line2d_10">
    <defs>
     <path id="m5bba60c5cf" d="M 0 0.75 
C 0.198902 0.75 0.389685 0.670975 0.53033 0.53033 
C 0.670975 0.389685 0.75 0.198902 0.75 0 
C 0.75 -0.198902 0.670975 -0.389685 0.53033 -0.53033 
C 0.389685 -0.670975 0.198902 -0.75 0 -0.75 
C -0.198902 -0.75 -0.389685 -0.670975 -0.53033 -0.53033 
C -0.670975 -0.389685 -0.75 -0.198902 -0.75 0 
C -0.75 0.198902 -0.670975 0.389685 -0.53033 0.53033 
C -0.389685 0.670975 -0.198902 0.75 0 0.75 
z
" style="stroke: #2a2eec"/>
    </defs>
    <g clip-path="url(#p1ce454050c)">
     <use xlink:href="#m5bba60c5cf" x="64.952215" y="64.995621" style="fill: #2a2eec; stroke: #2a2eec"/>
     <use xlink:href="#m5bba60c5cf" x="74.088874" y="63.011314" style="fill: #2a2eec; stroke: #2a2eec"/>
     <use xlink:href="#m5bba60c5cf" x="87.793863" y="60.406703" style="fill: #2a2eec; stroke: #2a2eec"/>
     <use xlink:href="#m5bba60c5cf" x="115.20384" y="50.839608" style="fill: #2a2eec; stroke: #2a2eec"/>
     <use xlink:href="#m5bba60c5cf" x="128.908829" y="47.185272" style="fill: #2a2eec; stroke: #2a2eec"/>
     <use xlink:href="#m5bba60c5cf" x="138.045488" y="43.135064" style="fill: #2a2eec; stroke: #2a2eec"/>
    </g>
   </g>
   <g id="line2d_11">
    <defs>
     <path id="m7e21d3cb7b" d="M 0 0.75 
C 0.198902 0.75 0.389685 0.670975 0.53033 0.53033 
C 0.670975 0.389685 0.75 0.198902 0.75 0 
C 0.75 -0.198902 0.670975 -0.389685 0.53033 -0.53033 
C 0.389685 -0.670975 0.198902 -0.75 0 -0.75 
C -0.198902 -0.75 -0.389685 -0.670975 -0.53033 -0.53033 
C -0.670975 -0.389685 -0.75 -0.198902 -0.75 0 
C -0.75 0.198902 -0.670975 0.389685 -0.53033 0.53033 
C -0.389685 0.670975 -0.198902 0.75 0 0.75 
z
" style="stroke: #fa7c17"/>
    </defs>
    <g clip-path="url(#p1ce454050c)">
     <use xlink:href="#m7e21d3cb7b" x="38.363533" y="82.262243" style="fill: #fa7c17; stroke: #fa7c17"/>
     <use xlink:href="#m7e21d3cb7b" x="47.500192" y="74.678044" style="fill: #fa7c17; stroke: #fa7c17"/>
     <use xlink:href="#m7e21d3cb7b" x="51.657874" y="72.525208" style="fill: #fa7c17; stroke: #fa7c17"/>
     <use xlink:href="#m7e21d3cb7b" x="60.794533" y="68.42956" style="fill: #fa7c17; stroke: #fa7c17"/>
     <use xlink:href="#m7e21d3cb7b" x="61.222291" y="66.897317" style="fill: #fa7c17; stroke: #fa7c17"/>
     <use xlink:href="#m7e21d3cb7b" x="68.771138" y="64.042449" style="fill: #fa7c17; stroke: #fa7c17"/>
     <use xlink:href="#m7e21d3cb7b" x="74.499522" y="62.157013" style="fill: #fa7c17; stroke: #fa7c17"/>
     <use xlink:href="#m7e21d3cb7b" x="82.476126" y="60.24931" style="fill: #fa7c17; stroke: #fa7c17"/>
     <use xlink:href="#m7e21d3cb7b" x="93.111599" y="59.342339" style="fill: #fa7c17; stroke: #fa7c17"/>
     <use xlink:href="#m7e21d3cb7b" x="101.909499" y="54.065388" style="fill: #fa7c17; stroke: #fa7c17"/>
     <use xlink:href="#m7e21d3cb7b" x="134.226566" y="42.078126" style="fill: #fa7c17; stroke: #fa7c17"/>
     <use xlink:href="#m7e21d3cb7b" x="141.775413" y="37.218398" style="fill: #fa7c17; stroke: #fa7c17"/>
     <use xlink:href="#m7e21d3cb7b" x="142.20317" y="36.023833" style="fill: #fa7c17; stroke: #fa7c17"/>
     <use xlink:href="#m7e21d3cb7b" x="151.339829" y="32.505511" style="fill: #fa7c17; stroke: #fa7c17"/>
     <use xlink:href="#m7e21d3cb7b" x="155.497511" y="28.124985" style="fill: #fa7c17; stroke: #fa7c17"/>
     <use xlink:href="#m7e21d3cb7b" x="164.63417" y="19.014224" style="fill: #fa7c17; stroke: #fa7c17"/>
     <use xlink:href="#m7e21d3cb7b" x="184.026263" y="6.774621" style="fill: #fa7c17; stroke: #fa7c17"/>
    </g>
   </g>
   <g id="line2d_12">
    <defs>
     <path id="m6614b9c733" d="M 0 0.75 
C 0.198902 0.75 0.389685 0.670975 0.53033 0.53033 
C 0.670975 0.389685 0.75 0.198902 0.75 0 
C 0.75 -0.198902 0.670975 -0.389685 0.53033 -0.53033 
C 0.389685 -0.670975 0.198902 -0.75 0 -0.75 
C -0.198902 -0.75 -0.389685 -0.670975 -0.53033 -0.53033 
C -0.670975 -0.389685 -0.75 -0.198902 -0.75 0 
C -0.75 0.198902 -0.670975 0.389685 -0.53033 0.53033 
C -0.389685 0.670975 -0.198902 0.75 0 0.75 
z
" style="stroke: #328c06"/>
    </defs>
    <g clip-path="url(#p1ce454050c)">
     <use xlink:href="#m6614b9c733" x="74.91017" y="60.100191" style="fill: #328c06; stroke: #328c06"/>
     <use xlink:href="#m6614b9c733" x="82.886774" y="57.788081" style="fill: #328c06; stroke: #328c06"/>
     <use xlink:href="#m6614b9c733" x="90.863379" y="57.55729" style="fill: #328c06; stroke: #328c06"/>
     <use xlink:href="#m6614b9c733" x="96.181115" y="56.903312" style="fill: #328c06; stroke: #328c06"/>
     <use xlink:href="#m6614b9c733" x="98.839983" y="56.579255" style="fill: #328c06; stroke: #328c06"/>
     <use xlink:href="#m6614b9c733" x="104.15772" y="54.637578" style="fill: #328c06; stroke: #328c06"/>
     <use xlink:href="#m6614b9c733" x="106.816588" y="53.71608" style="fill: #328c06; stroke: #328c06"/>
     <use xlink:href="#m6614b9c733" x="112.134324" y="51.360436" style="fill: #328c06; stroke: #328c06"/>
     <use xlink:href="#m6614b9c733" x="120.110929" y="46.505019" style="fill: #328c06; stroke: #328c06"/>
     <use xlink:href="#m6614b9c733" x="128.087534" y="46.122753" style="fill: #328c06; stroke: #328c06"/>
    </g>
   </g>
   <g id="line2d_13">
    <path d="M 38.363533 77.516847 
L 47.500192 73.872885 
L 51.657874 72.445147 
L 60.794533 68.947814 
L 61.222291 68.8417 
L 64.952215 67.232334 
L 68.771138 65.828162 
L 74.088874 63.66531 
L 74.499522 63.656541 
L 74.91017 63.50197 
L 82.476126 60.507969 
L 82.886774 60.403611 
L 87.793863 58.411919 
L 90.863379 57.291191 
L 93.111599 56.383868 
L 96.181115 55.226112 
L 98.839983 54.19803 
L 101.909499 52.982129 
L 104.15772 51.951432 
L 106.816588 50.726258 
L 112.134324 48.263262 
L 115.20384 46.824251 
L 120.110929 44.780982 
L 128.087534 41.064513 
L 128.908829 40.430917 
L 134.226566 38.128859 
L 138.045488 36.179522 
L 141.775413 34.726357 
L 142.20317 34.595115 
L 151.339829 30.18465 
L 155.497511 28.613326 
L 164.63417 24.478357 
L 184.026263 15.828879 
" clip-path="url(#p1ce454050c)" style="fill: none; stroke: #00bfbf; stroke-width: 0.4; stroke-linecap: round"/>
   </g>
   <g id="patch_3">
    <path d="M 31.080396 86.036625 
L 31.080396 3.00024 
" style="fill: none; stroke: #000000; stroke-linejoin: miter; stroke-linecap: square"/>
   </g>
   <g id="patch_4">
    <path d="M 31.080396 86.036625 
L 191.3094 86.036625 
" style="fill: none; stroke: #000000; stroke-linejoin: miter; stroke-linecap: square"/>
   </g>
   <g id="legend_1">
    <g id="line2d_14">
     <g>
      <use xlink:href="#m5bba60c5cf" x="44.380396" y="12.169146" style="fill: #2a2eec; stroke: #2a2eec"/>
     </g>
    </g>
    <g id="text_12">
     <!-- Circle -->
     <g style="fill: #262626" transform="translate(56.980396 14.619146) scale(0.07 -0.07)">
      <defs>
       <path id="DejaVuSerif-43" d="M 4513 1234 
Q 4306 581 3820 245 
Q 3334 -91 2591 -91 
Q 2134 -91 1743 65 
Q 1353 222 1050 525 
Q 700 875 529 1320 
Q 359 1766 359 2328 
Q 359 3416 987 4083 
Q 1616 4750 2644 4750 
Q 3025 4750 3456 4650 
Q 3888 4550 4384 4347 
L 4384 3272 
L 4031 3272 
Q 3916 3859 3567 4137 
Q 3219 4416 2591 4416 
Q 1844 4416 1459 3886 
Q 1075 3356 1075 2328 
Q 1075 1303 1459 773 
Q 1844 244 2591 244 
Q 3113 244 3450 492 
Q 3788 741 3938 1234 
L 4513 1234 
z
" transform="scale(0.015625)"/>
       <path id="DejaVuSerif-69" d="M 622 4353 
Q 622 4497 726 4603 
Q 831 4709 978 4709 
Q 1122 4709 1226 4603 
Q 1331 4497 1331 4353 
Q 1331 4206 1228 4103 
Q 1125 4000 978 4000 
Q 831 4000 726 4103 
Q 622 4206 622 4353 
z
M 1356 331 
L 1900 331 
L 1900 0 
L 231 0 
L 231 331 
L 781 331 
L 781 2988 
L 231 2988 
L 231 3322 
L 1356 3322 
L 1356 331 
z
" transform="scale(0.015625)"/>
       <path id="DejaVuSerif-72" d="M 3059 3328 
L 3059 2497 
L 2728 2497 
Q 2713 2744 2591 2866 
Q 2469 2988 2234 2988 
Q 1809 2988 1582 2694 
Q 1356 2400 1356 1850 
L 1356 331 
L 2022 331 
L 2022 0 
L 263 0 
L 263 331 
L 781 331 
L 781 2994 
L 231 2994 
L 231 3322 
L 1356 3322 
L 1356 2731 
Q 1525 3078 1790 3245 
Q 2056 3413 2438 3413 
Q 2578 3413 2733 3391 
Q 2888 3369 3059 3328 
z
" transform="scale(0.015625)"/>
       <path id="DejaVuSerif-63" d="M 3291 997 
Q 3169 466 2822 187 
Q 2475 -91 1925 -91 
Q 1200 -91 759 389 
Q 319 869 319 1663 
Q 319 2459 759 2936 
Q 1200 3413 1925 3413 
Q 2241 3413 2553 3339 
Q 2866 3266 3181 3116 
L 3181 2266 
L 2847 2266 
Q 2781 2703 2561 2903 
Q 2341 3103 1931 3103 
Q 1466 3103 1228 2742 
Q 991 2381 991 1663 
Q 991 944 1227 581 
Q 1463 219 1931 219 
Q 2303 219 2525 412 
Q 2747 606 2828 997 
L 3291 997 
z
" transform="scale(0.015625)"/>
       <path id="DejaVuSerif-6c" d="M 1313 331 
L 1856 331 
L 1856 0 
L 184 0 
L 184 331 
L 738 331 
L 738 4531 
L 184 4531 
L 184 4863 
L 1313 4863 
L 1313 331 
z
" transform="scale(0.015625)"/>
      </defs>
      <use xlink:href="#DejaVuSerif-43"/>
      <use xlink:href="#DejaVuSerif-69" x="76.513672"/>
      <use xlink:href="#DejaVuSerif-72" x="108.496094"/>
      <use xlink:href="#DejaVuSerif-63" x="156.298828"/>
      <use xlink:href="#DejaVuSerif-6c" x="212.304688"/>
      <use xlink:href="#DejaVuSerif-65" x="244.287109"/>
     </g>
    </g>
    <g id="line2d_15">
     <g>
      <use xlink:href="#m7e21d3cb7b" x="44.380396" y="22.443834" style="fill: #fa7c17; stroke: #fa7c17"/>
     </g>
    </g>
    <g id="text_13">
     <!-- Circle + Drift -->
     <g style="fill: #262626" transform="translate(56.980396 24.893834) scale(0.07 -0.07)">
      <defs>
       <path id="DejaVuSerif-2b" d="M 2931 4013 
L 2931 2259 
L 4684 2259 
L 4684 1753 
L 2931 1753 
L 2931 0 
L 2431 0 
L 2431 1753 
L 678 1753 
L 678 2259 
L 2431 2259 
L 2431 4013 
L 2931 4013 
z
" transform="scale(0.015625)"/>
       <path id="DejaVuSerif-44" d="M 1581 331 
L 2163 331 
Q 3072 331 3558 850 
Q 4044 1369 4044 2338 
Q 4044 3306 3559 3818 
Q 3075 4331 2163 4331 
L 1581 4331 
L 1581 331 
z
M 353 0 
L 353 331 
L 947 331 
L 947 4331 
L 353 4331 
L 353 4666 
L 2209 4666 
Q 3416 4666 4089 4050 
Q 4763 3434 4763 2338 
Q 4763 1238 4088 619 
Q 3413 0 2209 0 
L 353 0 
z
" transform="scale(0.015625)"/>
       <path id="DejaVuSerif-66" d="M 2753 4078 
L 2450 4078 
Q 2447 4313 2317 4434 
Q 2188 4556 1941 4556 
Q 1619 4556 1487 4379 
Q 1356 4203 1356 3750 
L 1356 3322 
L 2284 3322 
L 2284 2988 
L 1356 2988 
L 1356 331 
L 2094 331 
L 2094 0 
L 231 0 
L 231 331 
L 781 331 
L 781 2988 
L 231 2988 
L 231 3322 
L 781 3322 
L 781 3738 
Q 781 4294 1070 4578 
Q 1359 4863 1919 4863 
Q 2128 4863 2337 4825 
Q 2547 4788 2753 4709 
L 2753 4078 
z
" transform="scale(0.015625)"/>
       <path id="DejaVuSerif-74" d="M 691 2988 
L 184 2988 
L 184 3322 
L 691 3322 
L 691 4353 
L 1269 4353 
L 1269 3322 
L 2350 3322 
L 2350 2988 
L 1269 2988 
L 1269 878 
Q 1269 456 1350 337 
Q 1431 219 1650 219 
Q 1875 219 1978 351 
Q 2081 484 2088 781 
L 2522 781 
Q 2497 328 2275 118 
Q 2053 -91 1600 -91 
Q 1103 -91 897 129 
Q 691 350 691 878 
L 691 2988 
z
" transform="scale(0.015625)"/>
      </defs>
      <use xlink:href="#DejaVuSerif-43"/>
      <use xlink:href="#DejaVuSerif-69" x="76.513672"/>
      <use xlink:href="#DejaVuSerif-72" x="108.496094"/>
      <use xlink:href="#DejaVuSerif-63" x="156.298828"/>
      <use xlink:href="#DejaVuSerif-6c" x="212.304688"/>
      <use xlink:href="#DejaVuSerif-65" x="244.287109"/>
      <use xlink:href="#DejaVuSerif-20" x="303.466797"/>
      <use xlink:href="#DejaVuSerif-2b" x="335.253906"/>
      <use xlink:href="#DejaVuSerif-20" x="419.042969"/>
      <use xlink:href="#DejaVuSerif-44" x="450.830078"/>
      <use xlink:href="#DejaVuSerif-72" x="531.005859"/>
      <use xlink:href="#DejaVuSerif-69" x="578.808594"/>
      <use xlink:href="#DejaVuSerif-66" x="610.791016"/>
      <use xlink:href="#DejaVuSerif-74" x="647.802734"/>
     </g>
    </g>
    <g id="line2d_16">
     <g>
      <use xlink:href="#m6614b9c733" x="44.380396" y="32.718521" style="fill: #328c06; stroke: #328c06"/>
     </g>
    </g>
    <g id="text_14">
     <!-- Drift angle -->
     <g style="fill: #262626" transform="translate(56.980396 35.168521) scale(0.07 -0.07)">
      <defs>
       <path id="DejaVuSerif-61" d="M 2547 1044 
L 2547 1747 
L 1806 1747 
Q 1378 1747 1168 1562 
Q 959 1378 959 997 
Q 959 650 1171 447 
Q 1384 244 1747 244 
Q 2106 244 2326 466 
Q 2547 688 2547 1044 
z
M 3122 2075 
L 3122 331 
L 3634 331 
L 3634 0 
L 2547 0 
L 2547 359 
Q 2356 128 2106 18 
Q 1856 -91 1522 -91 
Q 969 -91 644 203 
Q 319 497 319 997 
Q 319 1513 691 1797 
Q 1063 2081 1741 2081 
L 2547 2081 
L 2547 2309 
Q 2547 2688 2317 2895 
Q 2088 3103 1672 3103 
Q 1328 3103 1125 2947 
Q 922 2791 872 2484 
L 575 2484 
L 575 3156 
Q 875 3284 1158 3348 
Q 1441 3413 1709 3413 
Q 2400 3413 2761 3070 
Q 3122 2728 3122 2075 
z
" transform="scale(0.015625)"/>
       <path id="DejaVuSerif-6e" d="M 263 0 
L 263 331 
L 781 331 
L 781 2988 
L 231 2988 
L 231 3322 
L 1356 3322 
L 1356 2731 
Q 1516 3069 1770 3241 
Q 2025 3413 2363 3413 
Q 2913 3413 3172 3097 
Q 3431 2781 3431 2113 
L 3431 331 
L 3944 331 
L 3944 0 
L 2356 0 
L 2356 331 
L 2853 331 
L 2853 1931 
Q 2853 2541 2703 2767 
Q 2553 2994 2175 2994 
Q 1775 2994 1565 2701 
Q 1356 2409 1356 1850 
L 1356 331 
L 1856 331 
L 1856 0 
L 263 0 
z
" transform="scale(0.015625)"/>
      </defs>
      <use xlink:href="#DejaVuSerif-44"/>
      <use xlink:href="#DejaVuSerif-72" x="80.175781"/>
      <use xlink:href="#DejaVuSerif-69" x="127.978516"/>
      <use xlink:href="#DejaVuSerif-66" x="159.960938"/>
      <use xlink:href="#DejaVuSerif-74" x="196.972656"/>
      <use xlink:href="#DejaVuSerif-20" x="237.158203"/>
      <use xlink:href="#DejaVuSerif-61" x="268.945312"/>
      <use xlink:href="#DejaVuSerif-6e" x="328.564453"/>
      <use xlink:href="#DejaVuSerif-67" x="392.96875"/>
      <use xlink:href="#DejaVuSerif-6c" x="456.982422"/>
      <use xlink:href="#DejaVuSerif-65" x="488.964844"/>
     </g>
    </g>
    <g id="line2d_17">
     <path d="M 37.380396 43.09274 
L 44.380396 43.09274 
L 51.380396 43.09274 
" style="fill: none; stroke: #00bfbf; stroke-width: 0.4; stroke-linecap: round"/>
    </g>
    <g id="text_15">
     <!-- MMG original -->
     <g style="fill: #262626" transform="translate(56.980396 45.54274) scale(0.07 -0.07)">
      <defs>
       <path id="DejaVuSerif-4d" d="M 353 0 
L 353 331 
L 947 331 
L 947 4331 
L 319 4331 
L 319 4666 
L 1678 4666 
L 3316 1344 
L 4953 4666 
L 6228 4666 
L 6228 4331 
L 5606 4331 
L 5606 331 
L 6203 331 
L 6203 0 
L 4378 0 
L 4378 331 
L 4972 331 
L 4972 3938 
L 3372 684 
L 2931 684 
L 1331 3938 
L 1331 331 
L 1925 331 
L 1925 0 
L 353 0 
z
" transform="scale(0.015625)"/>
       <path id="DejaVuSerif-47" d="M 4097 3272 
Q 3988 3856 3641 4136 
Q 3294 4416 2675 4416 
Q 1869 4416 1472 3897 
Q 1075 3378 1075 2328 
Q 1075 1300 1484 772 
Q 1894 244 2688 244 
Q 3041 244 3362 331 
Q 3684 419 3975 594 
L 3975 1797 
L 3097 1797 
L 3097 2131 
L 4609 2131 
L 4609 391 
Q 4194 150 3714 29 
Q 3234 -91 2688 -91 
Q 1631 -91 995 570 
Q 359 1231 359 2328 
Q 359 3434 996 4092 
Q 1634 4750 2713 4750 
Q 3113 4750 3539 4658 
Q 3966 4566 4447 4378 
L 4447 3272 
L 4097 3272 
z
" transform="scale(0.015625)"/>
       <path id="DejaVuSerif-6f" d="M 1925 219 
Q 2388 219 2623 584 
Q 2859 950 2859 1663 
Q 2859 2375 2623 2739 
Q 2388 3103 1925 3103 
Q 1463 3103 1227 2739 
Q 991 2375 991 1663 
Q 991 950 1228 584 
Q 1466 219 1925 219 
z
M 1925 -91 
Q 1200 -91 759 389 
Q 319 869 319 1663 
Q 319 2456 758 2934 
Q 1197 3413 1925 3413 
Q 2653 3413 3092 2934 
Q 3531 2456 3531 1663 
Q 3531 869 3092 389 
Q 2653 -91 1925 -91 
z
" transform="scale(0.015625)"/>
      </defs>
      <use xlink:href="#DejaVuSerif-4d"/>
      <use xlink:href="#DejaVuSerif-4d" x="102.392578"/>
      <use xlink:href="#DejaVuSerif-47" x="204.785156"/>
      <use xlink:href="#DejaVuSerif-20" x="284.667969"/>
      <use xlink:href="#DejaVuSerif-6f" x="316.455078"/>
      <use xlink:href="#DejaVuSerif-72" x="376.660156"/>
      <use xlink:href="#DejaVuSerif-69" x="424.462891"/>
      <use xlink:href="#DejaVuSerif-67" x="456.445312"/>
      <use xlink:href="#DejaVuSerif-69" x="520.458984"/>
      <use xlink:href="#DejaVuSerif-6e" x="552.441406"/>
      <use xlink:href="#DejaVuSerif-61" x="616.845703"/>
      <use xlink:href="#DejaVuSerif-6c" x="676.464844"/>
     </g>
    </g>
   </g>
  </g>
 </g>
 <defs>
  <clipPath id="p1ce454050c">
   <rect x="31.080396" y="3.00024" width="160.229004" height="83.036384"/>
  </clipPath>
 </defs>
</svg>
