<?xml version="1.0" encoding="utf-8" standalone="no"?>
<!DOCTYPE svg PUBLIC "-//W3C//DTD SVG 1.1//EN"
  "http://www.w3.org/Graphics/SVG/1.1/DTD/svg11.dtd">
<svg xmlns:xlink="http://www.w3.org/1999/xlink" width="194.30964pt" height="109.311552pt" viewBox="0 0 194.30964 109.311552" xmlns="http://www.w3.org/2000/svg" version="1.1">
 <metadata>
  <rdf:RDF xmlns:dc="http://purl.org/dc/elements/1.1/" xmlns:cc="http://creativecommons.org/ns#" xmlns:rdf="http://www.w3.org/1999/02/22-rdf-syntax-ns#">
   <cc:Work>
    <dc:type rdf:resource="http://purl.org/dc/dcmitype/StillImage"/>
    <dc:date>2024-12-28T15:31:55.745882</dc:date>
    <dc:format>image/svg+xml</dc:format>
    <dc:creator>
     <cc:Agent>
      <dc:title>Matplotlib v3.8.2, https://matplotlib.org/</dc:title>
     </cc:Agent>
    </dc:creator>
   </cc:Work>
  </rdf:RDF>
 </metadata>
 <defs>
  <style type="text/css">*{stroke-linejoin: round; stroke-linecap: butt}</style>
 </defs>
 <g id="figure_1">
  <g id="patch_1">
   <path d="M 0 109.311552 
L 194.30964 109.311552 
L 194.30964 0 
L 0 0 
z
" style="fill: #ffffff"/>
  </g>
  <g id="axes_1">
   <g id="patch_2">
    <path d="M 37.771959 86.22975 
L 191.3094 86.22975 
L 191.3094 3.00024 
L 37.771959 3.00024 
z
" style="fill: #ffffff"/>
   </g>
   <g id="matplotlib.axis_1">
    <g id="xtick_1">
     <g id="line2d_1"/>
     <g id="text_1">
      <!-- 30 -->
      <g style="fill: #262626" transform="translate(69.624407 95.048656) scale(0.07 -0.07)">
       <defs>
        <path id="DejaVuSerif-33" d="M 622 4469 
Q 988 4606 1323 4678 
Q 1659 4750 1953 4750 
Q 2638 4750 3022 4454 
Q 3406 4159 3406 3634 
Q 3406 3213 3140 2930 
Q 2875 2647 2388 2547 
Q 2963 2466 3280 2130 
Q 3597 1794 3597 1259 
Q 3597 606 3158 257 
Q 2719 -91 1894 -91 
Q 1528 -91 1179 -12 
Q 831 66 488 225 
L 488 1131 
L 838 1131 
Q 869 681 1141 450 
Q 1413 219 1906 219 
Q 2384 219 2661 495 
Q 2938 772 2938 1253 
Q 2938 1803 2653 2086 
Q 2369 2369 1819 2369 
L 1522 2369 
L 1522 2688 
L 1678 2688 
Q 2225 2688 2498 2914 
Q 2772 3141 2772 3597 
Q 2772 4006 2547 4223 
Q 2322 4441 1900 4441 
Q 1478 4441 1245 4241 
Q 1013 4041 972 3647 
L 622 3647 
L 622 4469 
z
" transform="scale(0.015625)"/>
        <path id="DejaVuSerif-30" d="M 2034 219 
Q 2513 219 2750 744 
Q 2988 1269 2988 2328 
Q 2988 3391 2750 3916 
Q 2513 4441 2034 4441 
Q 1556 4441 1318 3916 
Q 1081 3391 1081 2328 
Q 1081 1269 1318 744 
Q 1556 219 2034 219 
z
M 2034 -91 
Q 1275 -91 848 546 
Q 422 1184 422 2328 
Q 422 3475 848 4112 
Q 1275 4750 2034 4750 
Q 2797 4750 3222 4112 
Q 3647 3475 3647 2328 
Q 3647 1184 3222 546 
Q 2797 -91 2034 -91 
z
" transform="scale(0.015625)"/>
       </defs>
       <use xlink:href="#DejaVuSerif-33"/>
       <use xlink:href="#DejaVuSerif-30" x="63.623047"/>
      </g>
     </g>
    </g>
    <g id="xtick_2">
     <g id="line2d_2"/>
     <g id="text_2">
      <!-- 35 -->
      <g style="fill: #262626" transform="translate(106.375249 95.048656) scale(0.07 -0.07)">
       <defs>
        <path id="DejaVuSerif-35" d="M 3219 4666 
L 3219 4153 
L 1081 4153 
L 1081 2816 
Q 1244 2928 1461 2984 
Q 1678 3041 1947 3041 
Q 2703 3041 3140 2622 
Q 3578 2203 3578 1478 
Q 3578 738 3136 323 
Q 2694 -91 1894 -91 
Q 1572 -91 1234 -12 
Q 897 66 544 225 
L 544 1131 
L 897 1131 
Q 925 688 1179 453 
Q 1434 219 1894 219 
Q 2388 219 2653 544 
Q 2919 869 2919 1478 
Q 2919 2084 2655 2407 
Q 2391 2731 1894 2731 
Q 1613 2731 1398 2631 
Q 1184 2531 1019 2322 
L 750 2322 
L 750 4666 
L 3219 4666 
z
" transform="scale(0.015625)"/>
       </defs>
       <use xlink:href="#DejaVuSerif-33"/>
       <use xlink:href="#DejaVuSerif-35" x="63.623047"/>
      </g>
     </g>
    </g>
    <g id="xtick_3">
     <g id="line2d_3"/>
     <g id="text_3">
      <!-- 40 -->
      <g style="fill: #262626" transform="translate(143.126091 95.048656) scale(0.07 -0.07)">
       <defs>
        <path id="DejaVuSerif-34" d="M 2234 1581 
L 2234 4063 
L 641 1581 
L 2234 1581 
z
M 3609 0 
L 1484 0 
L 1484 331 
L 2234 331 
L 2234 1247 
L 197 1247 
L 197 1588 
L 2241 4750 
L 2859 4750 
L 2859 1581 
L 3750 1581 
L 3750 1247 
L 2859 1247 
L 2859 331 
L 3609 331 
L 3609 0 
z
" transform="scale(0.015625)"/>
       </defs>
       <use xlink:href="#DejaVuSerif-34"/>
       <use xlink:href="#DejaVuSerif-30" x="63.623047"/>
      </g>
     </g>
    </g>
    <g id="xtick_4">
     <g id="line2d_4"/>
     <g id="text_4">
      <!-- 45 -->
      <g style="fill: #262626" transform="translate(179.876933 95.048656) scale(0.07 -0.07)">
       <use xlink:href="#DejaVuSerif-34"/>
       <use xlink:href="#DejaVuSerif-35" x="63.623047"/>
      </g>
     </g>
    </g>
    <g id="text_5">
     <!-- time -->
     <g style="fill: #262626" transform="translate(107.755054 105.0635) scale(0.06 -0.06)">
      <defs>
       <path id="DejaVuSerif-74" d="M 691 2988 
L 184 2988 
L 184 3322 
L 691 3322 
L 691 4353 
L 1269 4353 
L 1269 3322 
L 2350 3322 
L 2350 2988 
L 1269 2988 
L 1269 878 
Q 1269 456 1350 337 
Q 1431 219 1650 219 
Q 1875 219 1978 351 
Q 2081 484 2088 781 
L 2522 781 
Q 2497 328 2275 118 
Q 2053 -91 1600 -91 
Q 1103 -91 897 129 
Q 691 350 691 878 
L 691 2988 
z
" transform="scale(0.015625)"/>
       <path id="DejaVuSerif-69" d="M 622 4353 
Q 622 4497 726 4603 
Q 831 4709 978 4709 
Q 1122 4709 1226 4603 
Q 1331 4497 1331 4353 
Q 1331 4206 1228 4103 
Q 1125 4000 978 4000 
Q 831 4000 726 4103 
Q 622 4206 622 4353 
z
M 1356 331 
L 1900 331 
L 1900 0 
L 231 0 
L 231 331 
L 781 331 
L 781 2988 
L 231 2988 
L 231 3322 
L 1356 3322 
L 1356 331 
z
" transform="scale(0.015625)"/>
       <path id="DejaVuSerif-6d" d="M 3316 2675 
Q 3481 3041 3739 3227 
Q 3997 3413 4341 3413 
Q 4863 3413 5119 3089 
Q 5375 2766 5375 2113 
L 5375 331 
L 5894 331 
L 5894 0 
L 4300 0 
L 4300 331 
L 4800 331 
L 4800 2047 
Q 4800 2556 4650 2772 
Q 4500 2988 4153 2988 
Q 3769 2988 3567 2697 
Q 3366 2406 3366 1850 
L 3366 331 
L 3866 331 
L 3866 0 
L 2291 0 
L 2291 331 
L 2791 331 
L 2791 2069 
Q 2791 2566 2641 2777 
Q 2491 2988 2144 2988 
Q 1759 2988 1557 2697 
Q 1356 2406 1356 1850 
L 1356 331 
L 1856 331 
L 1856 0 
L 263 0 
L 263 331 
L 781 331 
L 781 2994 
L 231 2994 
L 231 3322 
L 1356 3322 
L 1356 2731 
Q 1516 3063 1762 3238 
Q 2009 3413 2322 3413 
Q 2709 3413 2968 3220 
Q 3228 3028 3316 2675 
z
" transform="scale(0.015625)"/>
       <path id="DejaVuSerif-65" d="M 3469 1600 
L 991 1600 
L 991 1575 
Q 991 903 1244 561 
Q 1497 219 1991 219 
Q 2369 219 2611 417 
Q 2853 616 2950 1006 
L 3413 1006 
Q 3275 459 2904 184 
Q 2534 -91 1931 -91 
Q 1203 -91 761 389 
Q 319 869 319 1663 
Q 319 2450 753 2931 
Q 1188 3413 1894 3413 
Q 2647 3413 3050 2948 
Q 3453 2484 3469 1600 
z
M 2791 1931 
Q 2772 2513 2545 2808 
Q 2319 3103 1894 3103 
Q 1497 3103 1269 2806 
Q 1041 2509 991 1931 
L 2791 1931 
z
" transform="scale(0.015625)"/>
      </defs>
      <use xlink:href="#DejaVuSerif-74"/>
      <use xlink:href="#DejaVuSerif-69" x="40.185547"/>
      <use xlink:href="#DejaVuSerif-6d" x="72.167969"/>
      <use xlink:href="#DejaVuSerif-65" x="166.992188"/>
     </g>
    </g>
   </g>
   <g id="matplotlib.axis_2">
    <g id="ytick_1">
     <g id="line2d_5"/>
     <g id="text_6">
      <!-- −0.01 -->
      <g style="fill: #262626" transform="translate(12.82024 75.055539) scale(0.07 -0.07)">
       <defs>
        <path id="DejaVuSerif-2212" d="M 678 2259 
L 4684 2259 
L 4684 1753 
L 678 1753 
L 678 2259 
z
" transform="scale(0.015625)"/>
        <path id="DejaVuSerif-2e" d="M 603 325 
Q 603 500 722 622 
Q 841 744 1019 744 
Q 1191 744 1312 622 
Q 1434 500 1434 325 
Q 1434 153 1312 31 
Q 1191 -91 1019 -91 
Q 841 -91 722 29 
Q 603 150 603 325 
z
" transform="scale(0.015625)"/>
        <path id="DejaVuSerif-31" d="M 909 0 
L 909 331 
L 1722 331 
L 1722 4213 
L 781 3603 
L 781 4013 
L 1919 4750 
L 2350 4750 
L 2350 331 
L 3163 331 
L 3163 0 
L 909 0 
z
" transform="scale(0.015625)"/>
       </defs>
       <use xlink:href="#DejaVuSerif-2212"/>
       <use xlink:href="#DejaVuSerif-30" x="83.789062"/>
       <use xlink:href="#DejaVuSerif-2e" x="147.412109"/>
       <use xlink:href="#DejaVuSerif-30" x="179.199219"/>
       <use xlink:href="#DejaVuSerif-31" x="242.822266"/>
      </g>
     </g>
    </g>
    <g id="ytick_2">
     <g id="line2d_6"/>
     <g id="text_7">
      <!-- 0.00 -->
      <g style="fill: #262626" transform="translate(18.686021 50.433033) scale(0.07 -0.07)">
       <use xlink:href="#DejaVuSerif-30"/>
       <use xlink:href="#DejaVuSerif-2e" x="63.623047"/>
       <use xlink:href="#DejaVuSerif-30" x="95.410156"/>
       <use xlink:href="#DejaVuSerif-30" x="159.033203"/>
      </g>
     </g>
    </g>
    <g id="ytick_3">
     <g id="line2d_7"/>
     <g id="text_8">
      <!-- 0.01 -->
      <g style="fill: #262626" transform="translate(18.686021 25.810526) scale(0.07 -0.07)">
       <use xlink:href="#DejaVuSerif-30"/>
       <use xlink:href="#DejaVuSerif-2e" x="63.623047"/>
       <use xlink:href="#DejaVuSerif-30" x="95.410156"/>
       <use xlink:href="#DejaVuSerif-31" x="159.033203"/>
      </g>
     </g>
    </g>
    <g id="text_9">
     <!-- $y_0$ [m] -->
     <g style="fill: #262626" transform="translate(7.56024 53.974995) rotate(-90) scale(0.06 -0.06)">
      <defs>
       <path id="DejaVuSans-Oblique-79" d="M 1588 -325 
Q 1188 -997 936 -1164 
Q 684 -1331 294 -1331 
L -159 -1331 
L -63 -850 
L 269 -850 
Q 509 -850 678 -719 
Q 847 -588 1056 -206 
L 1234 128 
L 459 3500 
L 1069 3500 
L 1650 819 
L 3256 3500 
L 3859 3500 
L 1588 -325 
z
" transform="scale(0.015625)"/>
       <path id="DejaVuSans-30" d="M 2034 4250 
Q 1547 4250 1301 3770 
Q 1056 3291 1056 2328 
Q 1056 1369 1301 889 
Q 1547 409 2034 409 
Q 2525 409 2770 889 
Q 3016 1369 3016 2328 
Q 3016 3291 2770 3770 
Q 2525 4250 2034 4250 
z
M 2034 4750 
Q 2819 4750 3233 4129 
Q 3647 3509 3647 2328 
Q 3647 1150 3233 529 
Q 2819 -91 2034 -91 
Q 1250 -91 836 529 
Q 422 1150 422 2328 
Q 422 3509 836 4129 
Q 1250 4750 2034 4750 
z
" transform="scale(0.015625)"/>
       <path id="DejaVuSerif-20" transform="scale(0.015625)"/>
       <path id="DejaVuSerif-5b" d="M 550 4863 
L 2003 4863 
L 2003 4531 
L 1147 4531 
L 1147 -513 
L 2003 -513 
L 2003 -844 
L 550 -844 
L 550 4863 
z
" transform="scale(0.015625)"/>
       <path id="DejaVuSerif-5d" d="M 1947 4863 
L 1947 -844 
L 494 -844 
L 494 -513 
L 1350 -513 
L 1350 4531 
L 494 4531 
L 494 4863 
L 1947 4863 
z
" transform="scale(0.015625)"/>
      </defs>
      <use xlink:href="#DejaVuSans-Oblique-79" transform="translate(0 0.015625)"/>
      <use xlink:href="#DejaVuSans-30" transform="translate(59.179688 -16.390625) scale(0.7)"/>
      <use xlink:href="#DejaVuSerif-20" transform="translate(106.450195 0.015625)"/>
      <use xlink:href="#DejaVuSerif-5b" transform="translate(138.237305 0.015625)"/>
      <use xlink:href="#DejaVuSerif-6d" transform="translate(177.250977 0.015625)"/>
      <use xlink:href="#DejaVuSerif-5d" transform="translate(272.075195 0.015625)"/>
     </g>
    </g>
   </g>
   <g id="line2d_8">
    <path d="M 44.750933 52.233307 
L 46.73531 21.292126 
L 47.470268 13.25646 
L 48.058289 9.077958 
L 48.499527 7.34374 
L 48.793335 6.838558 
L 49.013847 6.806388 
L 49.234382 7.095501 
L 49.52844 7.977906 
L 49.969421 10.216076 
L 50.483954 14.057774 
L 51.145359 20.866794 
L 52.101021 33.504149 
L 54.89407 71.661871 
L 55.55549 77.492803 
L 56.069972 80.494457 
L 56.511056 81.958008 
L 56.805063 82.391247 
L 57.025516 82.440286 
L 57.24608 82.257525 
L 57.540101 81.60855 
L 57.981038 79.824488 
L 58.495638 76.663659 
L 59.230618 70.723733 
L 60.11269 61.602223 
L 62.832193 32.079753 
L 63.567328 26.875645 
L 64.155231 24.1768 
L 64.596263 23.143397 
L 64.890307 22.904099 
L 65.110819 22.971004 
L 65.404723 23.358781 
L 65.772364 24.268829 
L 66.286824 26.297451 
L 66.874786 29.625405 
L 67.756975 36.204461 
L 69.373792 50.384013 
L 70.549899 59.595298 
L 71.358499 64.230564 
L 71.872871 66.182894 
L 72.313903 67.117995 
L 72.681706 67.489428 
L 72.975433 67.488098 
L 73.269381 67.192387 
L 73.636933 66.44861 
L 74.151416 64.875823 
L 74.813004 62.021511 
L 75.621457 57.429673 
L 76.94459 48.448707 
L 78.267569 39.861577 
L 79.076132 35.810463 
L 79.737536 33.543669 
L 80.252078 32.500982 
L 80.619608 32.163096 
L 80.913534 32.153049 
L 81.207666 32.34133 
L 81.575292 32.870395 
L 82.089973 34.171456 
L 82.75112 36.506578 
L 83.633207 40.597071 
L 85.103226 48.62304 
L 86.132205 53.687234 
L 87.087675 57.260554 
L 87.675748 58.707634 
L 88.190267 59.488931 
L 88.557731 59.728954 
L 88.925276 59.706622 
L 89.292858 59.433068 
L 89.807252 58.713759 
L 90.395354 57.421869 
L 91.056847 55.373775 
L 92.232852 50.799295 
L 94.070431 43.571594 
L 95.172919 40.241178 
L 95.834479 39.023565 
L 96.275606 38.582422 
L 96.71644 38.406131 
L 97.157509 38.49505 
L 97.52501 38.799193 
L 98.039478 39.589798 
L 98.701147 41.070813 
L 99.656508 43.855838 
L 102.302583 51.943865 
L 102.96426 53.423779 
L 103.625591 54.440877 
L 104.213627 54.921637 
L 104.654725 54.998278 
L 105.095735 54.790014 
L 105.683653 54.189511 
L 106.345337 53.206654 
L 107.521188 50.747691 
L 110.240728 44.643638 
L 111.049327 43.357621 
L 111.637363 42.773141 
L 112.225281 42.497314 
L 112.960312 42.436326 
L 113.327821 42.575821 
L 113.842318 43.072225 
L 114.797818 44.409302 
L 115.45959 45.727158 
L 117.737907 50.639246 
L 118.546418 51.765577 
L 119.208014 52.311124 
L 119.722526 52.477813 
L 120.236986 52.419061 
L 121.045498 52.045686 
L 121.486566 51.719341 
L 122.368638 50.659845 
L 123.250548 49.240527 
L 125.749789 45.485945 
L 126.264124 45.090224 
L 127.513741 44.5026 
L 128.248765 44.434384 
L 128.910325 44.605608 
L 129.645217 45.051728 
L 130.527215 45.878758 
L 131.776729 47.393692 
L 133.614293 49.577031 
L 134.496306 50.284573 
L 135.157931 50.570324 
L 135.819476 50.601457 
L 136.55436 50.372421 
L 137.583678 49.76032 
L 138.68621 48.971693 
L 141.184996 46.709125 
L 142.140474 46.103419 
L 143.096039 45.622455 
L 143.904558 45.445268 
L 144.713018 45.510899 
L 145.595104 45.83292 
L 146.624142 46.459819 
L 150.00519 48.713879 
L 151.034214 49.029925 
L 152.871881 49.330781 
L 154.194735 48.948931 
L 156.84081 47.610723 
L 157.649358 47.286233 
L 159.486871 46.513352 
L 160.368906 46.416602 
L 161.471394 46.538656 
L 162.94145 46.951007 
L 164.411623 47.572634 
L 166.028587 48.443376 
L 167.719118 48.735166 
L 169.777107 48.493112 
L 172.643775 47.536302 
L 173.305224 47.487517 
L 176.098303 46.931131 
L 177.715436 47.050462 
L 178.744327 47.29845 
L 179.479344 47.684962 
L 180.214346 48.122025 
L 182.125382 48.664446 
L 183.595438 48.789187 
L 184.330425 48.753145 
L 184.330425 48.753145 
" clip-path="url(#pc9f4958b6c)" style="fill: none; stroke: #0000ff; stroke-width: 0.4; stroke-linecap: round"/>
   </g>
   <g id="line2d_9">
    <path d="M 44.750933 41.149732 
L 45.412257 42.740521 
L 47.470268 46.612874 
L 47.764377 47.044403 
L 49.234382 49.40103 
L 49.601824 49.731523 
L 50.777902 50.716084 
L 51.07199 50.782094 
L 51.439418 50.878031 
L 51.73341 50.947666 
L 52.83606 51.101521 
L 53.497546 51.060741 
L 54.89407 50.973038 
L 55.849467 50.449333 
L 56.143547 50.345762 
L 56.658228 50.13787 
L 57.540101 49.600051 
L 58.716092 49.26642 
L 58.863161 49.294029 
L 59.010047 49.300215 
L 59.37757 49.259693 
L 59.598274 49.276456 
L 60.406638 49.410962 
L 60.92123 49.41921 
L 61.215399 49.34417 
L 61.582657 49.31591 
L 64.155231 48.94121 
L 64.522717 49.009165 
L 66.580809 48.91373 
L 66.874786 48.758511 
L 67.168793 48.679869 
L 68.050901 48.393564 
L 68.418277 48.310712 
L 68.932848 48.126026 
L 69.153412 48.072771 
L 69.888296 47.923045 
L 70.623533 47.762147 
L 70.844016 47.685048 
L 71.138016 47.574651 
L 71.285232 47.558011 
L 71.725904 47.467768 
L 72.313903 47.298925 
L 72.607903 47.176374 
L 72.754891 47.167997 
L 73.563388 46.90448 
L 75.842013 47.314771 
L 76.356547 47.470461 
L 78.047064 47.76891 
L 78.341034 47.794608 
L 78.782059 47.79498 
L 79.149516 47.822565 
L 79.443566 47.894446 
L 79.884635 47.956601 
L 80.105177 47.995706 
L 80.472553 48.027952 
L 81.281057 48.115085 
L 81.942624 48.257068 
L 82.31014 48.334634 
L 82.75112 48.30188 
L 83.045134 48.323562 
L 83.486122 48.309071 
L 85.985194 48.170381 
L 86.426249 47.979312 
L 87.087675 47.849388 
L 88.337219 47.630489 
L 88.631292 47.536515 
L 91.644868 47.608362 
L 92.012303 47.677802 
L 92.232852 47.665644 
L 94.143947 47.910992 
L 94.437895 47.942167 
L 97.966108 47.836083 
L 98.406994 47.861178 
L 99.068509 47.974599 
L 99.583138 48.047196 
L 101.641244 47.802794 
L 102.082048 47.87912 
L 102.523103 47.980669 
L 103.184574 47.978211 
L 103.699107 47.985553 
L 104.507663 47.931269 
L 105.316247 47.783266 
L 105.757265 47.737133 
L 107.08031 47.669663 
L 107.741707 47.760705 
L 108.035692 47.787456 
L 108.917727 47.975918 
L 109.285346 48.002595 
L 109.579205 48.101161 
L 109.946743 48.142154 
L 113.254348 48.193347 
L 115.532857 48.363922 
L 116.12087 48.595763 
L 117.22341 48.852609 
L 117.884918 48.861377 
L 119.575471 48.513776 
L 120.677967 48.059567 
L 122.956541 47.476188 
L 123.250548 47.385101 
L 123.544643 47.398554 
L 124.206099 47.33611 
L 124.794172 47.360129 
L 125.823203 47.315149 
L 126.85227 47.726181 
L 127.587177 47.842378 
L 130.674196 48.17303 
L 131.041756 48.177135 
L 131.482707 48.244355 
L 131.85023 48.237446 
L 132.217864 48.301262 
L 132.438295 48.313068 
L 133.614293 48.301382 
L 134.569815 48.261932 
L 135.451835 48.091866 
L 135.966361 47.98314 
L 136.407533 47.82911 
L 137.583678 47.509955 
L 138.318415 47.554604 
L 139.421021 47.496297 
L 139.788515 47.532623 
L 140.523547 47.450427 
L 140.964498 47.471815 
L 141.405501 47.600233 
L 142.140474 47.663175 
L 142.948992 47.593861 
L 143.610492 47.583739 
L 144.345553 47.562989 
L 145.81558 47.567207 
L 146.550538 47.584442 
L 146.991555 47.581353 
L 147.506111 47.613074 
L 148.020594 47.615406 
L 149.049771 47.601021 
L 151.769201 47.583492 
L 152.50427 47.78383 
L 153.239279 47.822808 
L 154.85625 47.894457 
L 155.150345 47.966629 
L 155.664857 47.975222 
L 155.959055 47.926808 
L 158.016962 48.078905 
L 158.60488 47.93915 
L 158.972425 47.895585 
L 159.266381 47.818936 
L 159.927881 47.721823 
L 160.736451 47.623388 
L 162.133027 47.464861 
L 163.162021 47.342421 
L 163.602987 47.303422 
L 164.191037 47.273529 
L 165.220024 47.544588 
L 166.028587 47.584942 
L 166.322682 47.559025 
L 166.910585 47.67301 
L 167.278035 47.669367 
L 169.336133 47.730544 
L 169.92411 47.763369 
L 170.438879 47.740098 
L 170.806138 47.775434 
L 171.100137 47.819023 
L 171.614678 47.790847 
L 172.129197 47.783615 
L 172.643775 47.881978 
L 173.452301 48.036589 
L 174.628255 47.972558 
L 174.995719 47.906233 
L 175.730839 47.839903 
L 176.318764 47.792692 
L 178.376921 47.594612 
L 179.258839 47.670647 
L 180.140881 47.96683 
L 180.728894 47.941437 
L 181.978504 48.038365 
L 182.272606 48.061237 
L 182.933989 48.073179 
L 183.44842 48.095064 
L 184.330425 48.067582 
L 184.330425 48.067582 
" clip-path="url(#pc9f4958b6c)" style="fill: none; stroke: #ff0000; stroke-width: 0.4; stroke-linecap: round"/>
   </g>
   <g id="patch_3">
    <path d="M 37.771959 86.22975 
L 37.771959 3.00024 
" style="fill: none; stroke: #000000; stroke-linejoin: miter; stroke-linecap: square"/>
   </g>
   <g id="patch_4">
    <path d="M 37.771959 86.22975 
L 191.3094 86.22975 
" style="fill: none; stroke: #000000; stroke-linejoin: miter; stroke-linecap: square"/>
   </g>
   <g id="legend_1">
    <g id="line2d_10">
     <path d="M 110.086431 12.169146 
L 117.086431 12.169146 
L 124.086431 12.169146 
" style="fill: none; stroke: #0000ff; stroke-width: 0.4; stroke-linecap: round"/>
    </g>
    <g id="text_10">
     <!-- original data -->
     <g style="fill: #262626" transform="translate(129.686431 14.619146) scale(0.07 -0.07)">
      <defs>
       <path id="DejaVuSerif-6f" d="M 1925 219 
Q 2388 219 2623 584 
Q 2859 950 2859 1663 
Q 2859 2375 2623 2739 
Q 2388 3103 1925 3103 
Q 1463 3103 1227 2739 
Q 991 2375 991 1663 
Q 991 950 1228 584 
Q 1466 219 1925 219 
z
M 1925 -91 
Q 1200 -91 759 389 
Q 319 869 319 1663 
Q 319 2456 758 2934 
Q 1197 3413 1925 3413 
Q 2653 3413 3092 2934 
Q 3531 2456 3531 1663 
Q 3531 869 3092 389 
Q 2653 -91 1925 -91 
z
" transform="scale(0.015625)"/>
       <path id="DejaVuSerif-72" d="M 3059 3328 
L 3059 2497 
L 2728 2497 
Q 2713 2744 2591 2866 
Q 2469 2988 2234 2988 
Q 1809 2988 1582 2694 
Q 1356 2400 1356 1850 
L 1356 331 
L 2022 331 
L 2022 0 
L 263 0 
L 263 331 
L 781 331 
L 781 2994 
L 231 2994 
L 231 3322 
L 1356 3322 
L 1356 2731 
Q 1525 3078 1790 3245 
Q 2056 3413 2438 3413 
Q 2578 3413 2733 3391 
Q 2888 3369 3059 3328 
z
" transform="scale(0.015625)"/>
       <path id="DejaVuSerif-67" d="M 3359 2988 
L 3359 72 
Q 3359 -644 2965 -1033 
Q 2572 -1422 1844 -1422 
Q 1516 -1422 1216 -1362 
Q 916 -1303 641 -1184 
L 641 -488 
L 941 -488 
Q 997 -813 1206 -963 
Q 1416 -1113 1806 -1113 
Q 2313 -1113 2548 -827 
Q 2784 -541 2784 72 
L 2784 519 
Q 2616 206 2355 57 
Q 2094 -91 1709 -91 
Q 1097 -91 708 395 
Q 319 881 319 1663 
Q 319 2444 706 2928 
Q 1094 3413 1709 3413 
Q 2094 3413 2355 3264 
Q 2616 3116 2784 2803 
L 2784 3322 
L 3909 3322 
L 3909 2988 
L 3359 2988 
z
M 2784 1825 
Q 2784 2422 2554 2737 
Q 2325 3053 1888 3053 
Q 1444 3053 1217 2703 
Q 991 2353 991 1663 
Q 991 975 1217 622 
Q 1444 269 1888 269 
Q 2325 269 2554 583 
Q 2784 897 2784 1497 
L 2784 1825 
z
" transform="scale(0.015625)"/>
       <path id="DejaVuSerif-6e" d="M 263 0 
L 263 331 
L 781 331 
L 781 2988 
L 231 2988 
L 231 3322 
L 1356 3322 
L 1356 2731 
Q 1516 3069 1770 3241 
Q 2025 3413 2363 3413 
Q 2913 3413 3172 3097 
Q 3431 2781 3431 2113 
L 3431 331 
L 3944 331 
L 3944 0 
L 2356 0 
L 2356 331 
L 2853 331 
L 2853 1931 
Q 2853 2541 2703 2767 
Q 2553 2994 2175 2994 
Q 1775 2994 1565 2701 
Q 1356 2409 1356 1850 
L 1356 331 
L 1856 331 
L 1856 0 
L 263 0 
z
" transform="scale(0.015625)"/>
       <path id="DejaVuSerif-61" d="M 2547 1044 
L 2547 1747 
L 1806 1747 
Q 1378 1747 1168 1562 
Q 959 1378 959 997 
Q 959 650 1171 447 
Q 1384 244 1747 244 
Q 2106 244 2326 466 
Q 2547 688 2547 1044 
z
M 3122 2075 
L 3122 331 
L 3634 331 
L 3634 0 
L 2547 0 
L 2547 359 
Q 2356 128 2106 18 
Q 1856 -91 1522 -91 
Q 969 -91 644 203 
Q 319 497 319 997 
Q 319 1513 691 1797 
Q 1063 2081 1741 2081 
L 2547 2081 
L 2547 2309 
Q 2547 2688 2317 2895 
Q 2088 3103 1672 3103 
Q 1328 3103 1125 2947 
Q 922 2791 872 2484 
L 575 2484 
L 575 3156 
Q 875 3284 1158 3348 
Q 1441 3413 1709 3413 
Q 2400 3413 2761 3070 
Q 3122 2728 3122 2075 
z
" transform="scale(0.015625)"/>
       <path id="DejaVuSerif-6c" d="M 1313 331 
L 1856 331 
L 1856 0 
L 184 0 
L 184 331 
L 738 331 
L 738 4531 
L 184 4531 
L 184 4863 
L 1313 4863 
L 1313 331 
z
" transform="scale(0.015625)"/>
       <path id="DejaVuSerif-64" d="M 3359 331 
L 3909 331 
L 3909 0 
L 2784 0 
L 2784 519 
Q 2616 206 2355 57 
Q 2094 -91 1709 -91 
Q 1097 -91 708 395 
Q 319 881 319 1663 
Q 319 2444 706 2928 
Q 1094 3413 1709 3413 
Q 2094 3413 2355 3264 
Q 2616 3116 2784 2803 
L 2784 4531 
L 2241 4531 
L 2241 4863 
L 3359 4863 
L 3359 331 
z
M 2784 1497 
L 2784 1825 
Q 2784 2422 2554 2737 
Q 2325 3053 1888 3053 
Q 1444 3053 1217 2703 
Q 991 2353 991 1663 
Q 991 975 1217 622 
Q 1444 269 1888 269 
Q 2325 269 2554 583 
Q 2784 897 2784 1497 
z
" transform="scale(0.015625)"/>
      </defs>
      <use xlink:href="#DejaVuSerif-6f"/>
      <use xlink:href="#DejaVuSerif-72" x="60.205078"/>
      <use xlink:href="#DejaVuSerif-69" x="108.007812"/>
      <use xlink:href="#DejaVuSerif-67" x="139.990234"/>
      <use xlink:href="#DejaVuSerif-69" x="204.003906"/>
      <use xlink:href="#DejaVuSerif-6e" x="235.986328"/>
      <use xlink:href="#DejaVuSerif-61" x="300.390625"/>
      <use xlink:href="#DejaVuSerif-6c" x="360.009766"/>
      <use xlink:href="#DejaVuSerif-20" x="391.992188"/>
      <use xlink:href="#DejaVuSerif-64" x="423.779297"/>
      <use xlink:href="#DejaVuSerif-61" x="487.792969"/>
      <use xlink:href="#DejaVuSerif-74" x="547.412109"/>
      <use xlink:href="#DejaVuSerif-61" x="587.597656"/>
     </g>
    </g>
    <g id="line2d_11">
     <path d="M 110.086431 27.19049 
L 117.086431 27.19049 
L 124.086431 27.19049 
" style="fill: none; stroke: #ff0000; stroke-width: 0.4; stroke-linecap: round"/>
    </g>
    <g id="text_11">
     <!-- transformed to  -->
     <g style="fill: #262626" transform="translate(129.686431 24.993365) scale(0.07 -0.07)">
      <defs>
       <path id="DejaVuSerif-73" d="M 359 184 
L 359 959 
L 691 959 
Q 703 588 923 403 
Q 1144 219 1575 219 
Q 1963 219 2166 364 
Q 2369 509 2369 788 
Q 2369 1006 2220 1140 
Q 2072 1275 1594 1428 
L 1178 1569 
Q 750 1706 558 1912 
Q 366 2119 366 2438 
Q 366 2894 700 3153 
Q 1034 3413 1625 3413 
Q 1888 3413 2178 3344 
Q 2469 3275 2778 3144 
L 2778 2419 
L 2447 2419 
Q 2434 2741 2221 2922 
Q 2009 3103 1644 3103 
Q 1281 3103 1095 2975 
Q 909 2847 909 2591 
Q 909 2381 1050 2254 
Q 1191 2128 1613 1997 
L 2069 1856 
Q 2541 1709 2748 1489 
Q 2956 1269 2956 922 
Q 2956 450 2595 179 
Q 2234 -91 1600 -91 
Q 1278 -91 972 -22 
Q 666 47 359 184 
z
" transform="scale(0.015625)"/>
       <path id="DejaVuSerif-66" d="M 2753 4078 
L 2450 4078 
Q 2447 4313 2317 4434 
Q 2188 4556 1941 4556 
Q 1619 4556 1487 4379 
Q 1356 4203 1356 3750 
L 1356 3322 
L 2284 3322 
L 2284 2988 
L 1356 2988 
L 1356 331 
L 2094 331 
L 2094 0 
L 231 0 
L 231 331 
L 781 331 
L 781 2988 
L 231 2988 
L 231 3322 
L 781 3322 
L 781 3738 
Q 781 4294 1070 4578 
Q 1359 4863 1919 4863 
Q 2128 4863 2337 4825 
Q 2547 4788 2753 4709 
L 2753 4078 
z
" transform="scale(0.015625)"/>
      </defs>
      <use xlink:href="#DejaVuSerif-74"/>
      <use xlink:href="#DejaVuSerif-72" x="40.185547"/>
      <use xlink:href="#DejaVuSerif-61" x="87.988281"/>
      <use xlink:href="#DejaVuSerif-6e" x="147.607422"/>
      <use xlink:href="#DejaVuSerif-73" x="212.011719"/>
      <use xlink:href="#DejaVuSerif-66" x="263.330078"/>
      <use xlink:href="#DejaVuSerif-6f" x="300.341797"/>
      <use xlink:href="#DejaVuSerif-72" x="360.546875"/>
      <use xlink:href="#DejaVuSerif-6d" x="408.349609"/>
      <use xlink:href="#DejaVuSerif-65" x="503.173828"/>
      <use xlink:href="#DejaVuSerif-64" x="562.353516"/>
      <use xlink:href="#DejaVuSerif-20" x="626.367188"/>
      <use xlink:href="#DejaVuSerif-74" x="658.154297"/>
      <use xlink:href="#DejaVuSerif-6f" x="698.339844"/>
      <use xlink:href="#DejaVuSerif-20" x="758.544922"/>
     </g>
     <!--  roll centre -->
     <g style="fill: #262626" transform="translate(129.686431 32.831834) scale(0.07 -0.07)">
      <defs>
       <path id="DejaVuSerif-63" d="M 3291 997 
Q 3169 466 2822 187 
Q 2475 -91 1925 -91 
Q 1200 -91 759 389 
Q 319 869 319 1663 
Q 319 2459 759 2936 
Q 1200 3413 1925 3413 
Q 2241 3413 2553 3339 
Q 2866 3266 3181 3116 
L 3181 2266 
L 2847 2266 
Q 2781 2703 2561 2903 
Q 2341 3103 1931 3103 
Q 1466 3103 1228 2742 
Q 991 2381 991 1663 
Q 991 944 1227 581 
Q 1463 219 1931 219 
Q 2303 219 2525 412 
Q 2747 606 2828 997 
L 3291 997 
z
" transform="scale(0.015625)"/>
      </defs>
      <use xlink:href="#DejaVuSerif-20"/>
      <use xlink:href="#DejaVuSerif-72" x="31.787109"/>
      <use xlink:href="#DejaVuSerif-6f" x="79.589844"/>
      <use xlink:href="#DejaVuSerif-6c" x="139.794922"/>
      <use xlink:href="#DejaVuSerif-6c" x="171.777344"/>
      <use xlink:href="#DejaVuSerif-20" x="203.759766"/>
      <use xlink:href="#DejaVuSerif-63" x="235.546875"/>
      <use xlink:href="#DejaVuSerif-65" x="291.552734"/>
      <use xlink:href="#DejaVuSerif-6e" x="350.732422"/>
      <use xlink:href="#DejaVuSerif-74" x="415.136719"/>
      <use xlink:href="#DejaVuSerif-72" x="455.322266"/>
      <use xlink:href="#DejaVuSerif-65" x="503.125"/>
     </g>
    </g>
   </g>
  </g>
 </g>
 <defs>
  <clipPath id="pc9f4958b6c">
   <rect x="37.771959" y="3.00024" width="153.537441" height="83.229509"/>
  </clipPath>
 </defs>
</svg>
