<?xml version="1.0" encoding="utf-8" standalone="no"?>
<!DOCTYPE svg PUBLIC "-//W3C//DTD SVG 1.1//EN"
  "http://www.w3.org/Graphics/SVG/1.1/DTD/svg11.dtd">
<svg xmlns:xlink="http://www.w3.org/1999/xlink" width="388.61928pt" height="218.623104pt" viewBox="0 0 388.61928 218.623104" xmlns="http://www.w3.org/2000/svg" version="1.1">
 <metadata>
  <rdf:RDF xmlns:dc="http://purl.org/dc/elements/1.1/" xmlns:cc="http://creativecommons.org/ns#" xmlns:rdf="http://www.w3.org/1999/02/22-rdf-syntax-ns#">
   <cc:Work>
    <dc:type rdf:resource="http://purl.org/dc/dcmitype/StillImage"/>
    <dc:date>2024-11-12T08:06:45.440920</dc:date>
    <dc:format>image/svg+xml</dc:format>
    <dc:creator>
     <cc:Agent>
      <dc:title>Matplotlib v3.8.2, https://matplotlib.org/</dc:title>
     </cc:Agent>
    </dc:creator>
   </cc:Work>
  </rdf:RDF>
 </metadata>
 <defs>
  <style type="text/css">*{stroke-linejoin: round; stroke-linecap: butt}</style>
 </defs>
 <g id="figure_1">
  <g id="patch_1">
   <path d="M 0 218.623104 
L 388.61928 218.623104 
L 388.61928 0 
L 0 0 
z
" style="fill: #ffffff"/>
  </g>
  <g id="axes_1">
   <g id="patch_2">
    <path d="M 41.22 187.363104 
L 188.90964 187.363104 
L 188.90964 10.8 
L 41.22 10.8 
z
" style="fill: #ffffff"/>
   </g>
   <g id="matplotlib.axis_1">
    <g id="xtick_1">
     <g id="line2d_1"/>
     <g id="text_1">
      <!-- 0 -->
      <g style="fill: #262626" transform="translate(45.70629 196.18201) scale(0.07 -0.07)">
       <defs>
        <path id="DejaVuSerif-30" d="M 2034 219 
Q 2513 219 2750 744 
Q 2988 1269 2988 2328 
Q 2988 3391 2750 3916 
Q 2513 4441 2034 4441 
Q 1556 4441 1318 3916 
Q 1081 3391 1081 2328 
Q 1081 1269 1318 744 
Q 1556 219 2034 219 
z
M 2034 -91 
Q 1275 -91 848 546 
Q 422 1184 422 2328 
Q 422 3475 848 4112 
Q 1275 4750 2034 4750 
Q 2797 4750 3222 4112 
Q 3647 3475 3647 2328 
Q 3647 1184 3222 546 
Q 2797 -91 2034 -91 
z
" transform="scale(0.015625)"/>
       </defs>
       <use xlink:href="#DejaVuSerif-30"/>
      </g>
     </g>
    </g>
    <g id="xtick_2">
     <g id="line2d_2"/>
     <g id="text_2">
      <!-- 10 -->
      <g style="fill: #262626" transform="translate(68.556612 196.18201) scale(0.07 -0.07)">
       <defs>
        <path id="DejaVuSerif-31" d="M 909 0 
L 909 331 
L 1722 331 
L 1722 4213 
L 781 3603 
L 781 4013 
L 1919 4750 
L 2350 4750 
L 2350 331 
L 3163 331 
L 3163 0 
L 909 0 
z
" transform="scale(0.015625)"/>
       </defs>
       <use xlink:href="#DejaVuSerif-31"/>
       <use xlink:href="#DejaVuSerif-30" x="63.623047"/>
      </g>
     </g>
    </g>
    <g id="xtick_3">
     <g id="line2d_3"/>
     <g id="text_3">
      <!-- 20 -->
      <g style="fill: #262626" transform="translate(93.633808 196.18201) scale(0.07 -0.07)">
       <defs>
        <path id="DejaVuSerif-32" d="M 819 3553 
L 469 3553 
L 469 4384 
Q 803 4563 1142 4656 
Q 1481 4750 1806 4750 
Q 2534 4750 2956 4397 
Q 3378 4044 3378 3438 
Q 3378 2753 2422 1800 
Q 2347 1728 2309 1691 
L 1131 513 
L 3078 513 
L 3078 1088 
L 3444 1088 
L 3444 0 
L 434 0 
L 434 341 
L 1850 1753 
Q 2319 2222 2519 2614 
Q 2719 3006 2719 3438 
Q 2719 3909 2473 4175 
Q 2228 4441 1797 4441 
Q 1350 4441 1106 4219 
Q 863 3997 819 3553 
z
" transform="scale(0.015625)"/>
       </defs>
       <use xlink:href="#DejaVuSerif-32"/>
       <use xlink:href="#DejaVuSerif-30" x="63.623047"/>
      </g>
     </g>
    </g>
    <g id="xtick_4">
     <g id="line2d_4"/>
     <g id="text_4">
      <!-- 30 -->
      <g style="fill: #262626" transform="translate(118.711004 196.18201) scale(0.07 -0.07)">
       <defs>
        <path id="DejaVuSerif-33" d="M 622 4469 
Q 988 4606 1323 4678 
Q 1659 4750 1953 4750 
Q 2638 4750 3022 4454 
Q 3406 4159 3406 3634 
Q 3406 3213 3140 2930 
Q 2875 2647 2388 2547 
Q 2963 2466 3280 2130 
Q 3597 1794 3597 1259 
Q 3597 606 3158 257 
Q 2719 -91 1894 -91 
Q 1528 -91 1179 -12 
Q 831 66 488 225 
L 488 1131 
L 838 1131 
Q 869 681 1141 450 
Q 1413 219 1906 219 
Q 2384 219 2661 495 
Q 2938 772 2938 1253 
Q 2938 1803 2653 2086 
Q 2369 2369 1819 2369 
L 1522 2369 
L 1522 2688 
L 1678 2688 
Q 2225 2688 2498 2914 
Q 2772 3141 2772 3597 
Q 2772 4006 2547 4223 
Q 2322 4441 1900 4441 
Q 1478 4441 1245 4241 
Q 1013 4041 972 3647 
L 622 3647 
L 622 4469 
z
" transform="scale(0.015625)"/>
       </defs>
       <use xlink:href="#DejaVuSerif-33"/>
       <use xlink:href="#DejaVuSerif-30" x="63.623047"/>
      </g>
     </g>
    </g>
    <g id="xtick_5">
     <g id="line2d_5"/>
     <g id="text_5">
      <!-- 40 -->
      <g style="fill: #262626" transform="translate(143.788201 196.18201) scale(0.07 -0.07)">
       <defs>
        <path id="DejaVuSerif-34" d="M 2234 1581 
L 2234 4063 
L 641 1581 
L 2234 1581 
z
M 3609 0 
L 1484 0 
L 1484 331 
L 2234 331 
L 2234 1247 
L 197 1247 
L 197 1588 
L 2241 4750 
L 2859 4750 
L 2859 1581 
L 3750 1581 
L 3750 1247 
L 2859 1247 
L 2859 331 
L 3609 331 
L 3609 0 
z
" transform="scale(0.015625)"/>
       </defs>
       <use xlink:href="#DejaVuSerif-34"/>
       <use xlink:href="#DejaVuSerif-30" x="63.623047"/>
      </g>
     </g>
    </g>
    <g id="xtick_6">
     <g id="line2d_6"/>
     <g id="text_6">
      <!-- 50 -->
      <g style="fill: #262626" transform="translate(168.865397 196.18201) scale(0.07 -0.07)">
       <defs>
        <path id="DejaVuSerif-35" d="M 3219 4666 
L 3219 4153 
L 1081 4153 
L 1081 2816 
Q 1244 2928 1461 2984 
Q 1678 3041 1947 3041 
Q 2703 3041 3140 2622 
Q 3578 2203 3578 1478 
Q 3578 738 3136 323 
Q 2694 -91 1894 -91 
Q 1572 -91 1234 -12 
Q 897 66 544 225 
L 544 1131 
L 897 1131 
Q 925 688 1179 453 
Q 1434 219 1894 219 
Q 2388 219 2653 544 
Q 2919 869 2919 1478 
Q 2919 2084 2655 2407 
Q 2391 2731 1894 2731 
Q 1613 2731 1398 2631 
Q 1184 2531 1019 2322 
L 750 2322 
L 750 4666 
L 3219 4666 
z
" transform="scale(0.015625)"/>
       </defs>
       <use xlink:href="#DejaVuSerif-35"/>
       <use xlink:href="#DejaVuSerif-30" x="63.623047"/>
      </g>
     </g>
    </g>
    <g id="text_7">
     <!-- Time [s] -->
     <g style="fill: #262626" transform="translate(102.649976 206.196854) scale(0.06 -0.06)">
      <defs>
       <path id="DejaVuSerif-54" d="M 1222 0 
L 1222 331 
L 1819 331 
L 1819 4294 
L 447 4294 
L 447 3566 
L 63 3566 
L 63 4666 
L 4206 4666 
L 4206 3566 
L 3822 3566 
L 3822 4294 
L 2450 4294 
L 2450 331 
L 3047 331 
L 3047 0 
L 1222 0 
z
" transform="scale(0.015625)"/>
       <path id="DejaVuSerif-69" d="M 622 4353 
Q 622 4497 726 4603 
Q 831 4709 978 4709 
Q 1122 4709 1226 4603 
Q 1331 4497 1331 4353 
Q 1331 4206 1228 4103 
Q 1125 4000 978 4000 
Q 831 4000 726 4103 
Q 622 4206 622 4353 
z
M 1356 331 
L 1900 331 
L 1900 0 
L 231 0 
L 231 331 
L 781 331 
L 781 2988 
L 231 2988 
L 231 3322 
L 1356 3322 
L 1356 331 
z
" transform="scale(0.015625)"/>
       <path id="DejaVuSerif-6d" d="M 3316 2675 
Q 3481 3041 3739 3227 
Q 3997 3413 4341 3413 
Q 4863 3413 5119 3089 
Q 5375 2766 5375 2113 
L 5375 331 
L 5894 331 
L 5894 0 
L 4300 0 
L 4300 331 
L 4800 331 
L 4800 2047 
Q 4800 2556 4650 2772 
Q 4500 2988 4153 2988 
Q 3769 2988 3567 2697 
Q 3366 2406 3366 1850 
L 3366 331 
L 3866 331 
L 3866 0 
L 2291 0 
L 2291 331 
L 2791 331 
L 2791 2069 
Q 2791 2566 2641 2777 
Q 2491 2988 2144 2988 
Q 1759 2988 1557 2697 
Q 1356 2406 1356 1850 
L 1356 331 
L 1856 331 
L 1856 0 
L 263 0 
L 263 331 
L 781 331 
L 781 2994 
L 231 2994 
L 231 3322 
L 1356 3322 
L 1356 2731 
Q 1516 3063 1762 3238 
Q 2009 3413 2322 3413 
Q 2709 3413 2968 3220 
Q 3228 3028 3316 2675 
z
" transform="scale(0.015625)"/>
       <path id="DejaVuSerif-65" d="M 3469 1600 
L 991 1600 
L 991 1575 
Q 991 903 1244 561 
Q 1497 219 1991 219 
Q 2369 219 2611 417 
Q 2853 616 2950 1006 
L 3413 1006 
Q 3275 459 2904 184 
Q 2534 -91 1931 -91 
Q 1203 -91 761 389 
Q 319 869 319 1663 
Q 319 2450 753 2931 
Q 1188 3413 1894 3413 
Q 2647 3413 3050 2948 
Q 3453 2484 3469 1600 
z
M 2791 1931 
Q 2772 2513 2545 2808 
Q 2319 3103 1894 3103 
Q 1497 3103 1269 2806 
Q 1041 2509 991 1931 
L 2791 1931 
z
" transform="scale(0.015625)"/>
       <path id="DejaVuSerif-20" transform="scale(0.015625)"/>
       <path id="DejaVuSerif-5b" d="M 550 4863 
L 2003 4863 
L 2003 4531 
L 1147 4531 
L 1147 -513 
L 2003 -513 
L 2003 -844 
L 550 -844 
L 550 4863 
z
" transform="scale(0.015625)"/>
       <path id="DejaVuSerif-73" d="M 359 184 
L 359 959 
L 691 959 
Q 703 588 923 403 
Q 1144 219 1575 219 
Q 1963 219 2166 364 
Q 2369 509 2369 788 
Q 2369 1006 2220 1140 
Q 2072 1275 1594 1428 
L 1178 1569 
Q 750 1706 558 1912 
Q 366 2119 366 2438 
Q 366 2894 700 3153 
Q 1034 3413 1625 3413 
Q 1888 3413 2178 3344 
Q 2469 3275 2778 3144 
L 2778 2419 
L 2447 2419 
Q 2434 2741 2221 2922 
Q 2009 3103 1644 3103 
Q 1281 3103 1095 2975 
Q 909 2847 909 2591 
Q 909 2381 1050 2254 
Q 1191 2128 1613 1997 
L 2069 1856 
Q 2541 1709 2748 1489 
Q 2956 1269 2956 922 
Q 2956 450 2595 179 
Q 2234 -91 1600 -91 
Q 1278 -91 972 -22 
Q 666 47 359 184 
z
" transform="scale(0.015625)"/>
       <path id="DejaVuSerif-5d" d="M 1947 4863 
L 1947 -844 
L 494 -844 
L 494 -513 
L 1350 -513 
L 1350 4531 
L 494 4531 
L 494 4863 
L 1947 4863 
z
" transform="scale(0.015625)"/>
      </defs>
      <use xlink:href="#DejaVuSerif-54"/>
      <use xlink:href="#DejaVuSerif-69" x="66.699219"/>
      <use xlink:href="#DejaVuSerif-6d" x="98.681641"/>
      <use xlink:href="#DejaVuSerif-65" x="193.505859"/>
      <use xlink:href="#DejaVuSerif-20" x="252.685547"/>
      <use xlink:href="#DejaVuSerif-5b" x="284.472656"/>
      <use xlink:href="#DejaVuSerif-73" x="323.486328"/>
      <use xlink:href="#DejaVuSerif-5d" x="374.804688"/>
     </g>
    </g>
   </g>
   <g id="matplotlib.axis_2">
    <g id="ytick_1">
     <g id="line2d_7"/>
     <g id="text_8">
      <!-- −10 -->
      <g style="fill: #262626" transform="translate(22.946719 175.990677) scale(0.07 -0.07)">
       <defs>
        <path id="DejaVuSerif-2212" d="M 678 2259 
L 4684 2259 
L 4684 1753 
L 678 1753 
L 678 2259 
z
" transform="scale(0.015625)"/>
       </defs>
       <use xlink:href="#DejaVuSerif-2212"/>
       <use xlink:href="#DejaVuSerif-31" x="83.789062"/>
       <use xlink:href="#DejaVuSerif-30" x="147.412109"/>
      </g>
     </g>
    </g>
    <g id="ytick_2">
     <g id="line2d_8"/>
     <g id="text_9">
      <!-- −5 -->
      <g style="fill: #262626" transform="translate(27.400469 137.374659) scale(0.07 -0.07)">
       <use xlink:href="#DejaVuSerif-2212"/>
       <use xlink:href="#DejaVuSerif-35" x="83.789062"/>
      </g>
     </g>
    </g>
    <g id="ytick_3">
     <g id="line2d_9"/>
     <g id="text_10">
      <!-- 0 -->
      <g style="fill: #262626" transform="translate(33.26625 98.758642) scale(0.07 -0.07)">
       <use xlink:href="#DejaVuSerif-30"/>
      </g>
     </g>
    </g>
    <g id="ytick_4">
     <g id="line2d_10"/>
     <g id="text_11">
      <!-- 5 -->
      <g style="fill: #262626" transform="translate(33.26625 60.142625) scale(0.07 -0.07)">
       <use xlink:href="#DejaVuSerif-35"/>
      </g>
     </g>
    </g>
    <g id="ytick_5">
     <g id="line2d_11"/>
     <g id="text_12">
      <!-- 10 -->
      <g style="fill: #262626" transform="translate(28.8125 21.526607) scale(0.07 -0.07)">
       <use xlink:href="#DejaVuSerif-31"/>
       <use xlink:href="#DejaVuSerif-30" x="63.623047"/>
      </g>
     </g>
    </g>
    <g id="text_13">
     <!-- $\beta$ [deg] -->
     <g style="fill: #262626" transform="translate(17.566719 109.911552) rotate(-90) scale(0.06 -0.06)">
      <defs>
       <path id="DejaVuSans-Oblique-3b2" d="M 872 216 
L 572 -1331 
L -6 -1331 
L 928 3478 
Q 1206 4903 2538 4903 
Q 3888 4903 3659 3700 
Q 3503 2844 2894 2531 
Q 3713 2250 3553 1416 
Q 3272 -69 1759 -66 
Q 1097 -63 872 216 
z
M 1019 966 
Q 1259 422 1875 425 
Q 2775 425 2966 1406 
Q 3138 2288 1675 2219 
L 1778 2750 
Q 2909 2731 3106 3750 
Q 3241 4438 2509 4434 
Q 1691 4434 1503 3459 
L 1019 966 
z
" transform="scale(0.015625)"/>
       <path id="DejaVuSerif-64" d="M 3359 331 
L 3909 331 
L 3909 0 
L 2784 0 
L 2784 519 
Q 2616 206 2355 57 
Q 2094 -91 1709 -91 
Q 1097 -91 708 395 
Q 319 881 319 1663 
Q 319 2444 706 2928 
Q 1094 3413 1709 3413 
Q 2094 3413 2355 3264 
Q 2616 3116 2784 2803 
L 2784 4531 
L 2241 4531 
L 2241 4863 
L 3359 4863 
L 3359 331 
z
M 2784 1497 
L 2784 1825 
Q 2784 2422 2554 2737 
Q 2325 3053 1888 3053 
Q 1444 3053 1217 2703 
Q 991 2353 991 1663 
Q 991 975 1217 622 
Q 1444 269 1888 269 
Q 2325 269 2554 583 
Q 2784 897 2784 1497 
z
" transform="scale(0.015625)"/>
       <path id="DejaVuSerif-67" d="M 3359 2988 
L 3359 72 
Q 3359 -644 2965 -1033 
Q 2572 -1422 1844 -1422 
Q 1516 -1422 1216 -1362 
Q 916 -1303 641 -1184 
L 641 -488 
L 941 -488 
Q 997 -813 1206 -963 
Q 1416 -1113 1806 -1113 
Q 2313 -1113 2548 -827 
Q 2784 -541 2784 72 
L 2784 519 
Q 2616 206 2355 57 
Q 2094 -91 1709 -91 
Q 1097 -91 708 395 
Q 319 881 319 1663 
Q 319 2444 706 2928 
Q 1094 3413 1709 3413 
Q 2094 3413 2355 3264 
Q 2616 3116 2784 2803 
L 2784 3322 
L 3909 3322 
L 3909 2988 
L 3359 2988 
z
M 2784 1825 
Q 2784 2422 2554 2737 
Q 2325 3053 1888 3053 
Q 1444 3053 1217 2703 
Q 991 2353 991 1663 
Q 991 975 1217 622 
Q 1444 269 1888 269 
Q 2325 269 2554 583 
Q 2784 897 2784 1497 
L 2784 1825 
z
" transform="scale(0.015625)"/>
      </defs>
      <use xlink:href="#DejaVuSans-Oblique-3b2" transform="translate(0 0.390625)"/>
      <use xlink:href="#DejaVuSerif-20" transform="translate(63.818359 0.390625)"/>
      <use xlink:href="#DejaVuSerif-5b" transform="translate(95.605469 0.390625)"/>
      <use xlink:href="#DejaVuSerif-64" transform="translate(134.619141 0.390625)"/>
      <use xlink:href="#DejaVuSerif-65" transform="translate(198.632812 0.390625)"/>
      <use xlink:href="#DejaVuSerif-67" transform="translate(257.8125 0.390625)"/>
      <use xlink:href="#DejaVuSerif-5d" transform="translate(321.826172 0.390625)"/>
     </g>
    </g>
   </g>
   <g id="line2d_12">
    <path d="M 47.933165 96.099189 
L 48.434709 95.956425 
L 48.961331 95.566316 
L 49.563183 94.8223 
L 50.21519 93.63585 
L 51.117969 91.449645 
L 52.72291 87.028671 
L 54.578622 81.29655 
L 57.111419 72.762343 
L 62.352553 54.897765 
L 64.70981 47.771767 
L 66.841371 42.051139 
L 68.471389 38.226385 
L 69.048165 37.410504 
L 69.549709 37.05111 
L 70.001098 36.978546 
L 70.477565 37.123173 
L 71.029263 37.537963 
L 71.706348 38.352332 
L 72.584049 39.788595 
L 74.18899 42.942413 
L 76.746864 48.398515 
L 78.878426 53.406142 
L 81.737226 60.840107 
L 84.696335 69.100591 
L 87.254209 76.816951 
L 90.564399 87.58333 
L 93.573663 98.067459 
L 99.040492 118.14835 
L 104.933633 139.761956 
L 107.792433 149.436265 
L 109.949072 156.009085 
L 111.804784 160.973979 
L 113.309416 164.389976 
L 114.864202 167.368906 
L 116.243448 169.563077 
L 117.74808 171.549943 
L 119.102249 173.001478 
L 120.331031 173.996363 
L 121.885817 174.984609 
L 123.239986 175.575179 
L 123.666298 175.616908 
L 124.017379 175.37869 
L 124.443691 174.784857 
L 124.99539 173.578085 
L 125.772783 171.285469 
L 126.976488 166.936381 
L 130.462219 154.059001 
L 133.521636 144.635477 
L 137.082598 133.391461 
L 139.138928 126.177689 
L 141.446031 117.379552 
L 143.728055 107.825598 
L 146.336084 96.090105 
L 155.238489 55.309909 
L 157.445282 46.655889 
L 159.275917 40.337643 
L 160.931012 35.40326 
L 162.510875 31.377662 
L 163.915198 28.373842 
L 165.269367 25.987933 
L 166.623536 24.0365 
L 168.002781 22.436283 
L 169.306796 21.256003 
L 170.736196 20.271025 
L 172.015133 19.67315 
L 173.620073 19.178346 
L 175.250091 18.935681 
L 177.030572 18.825596 
L 177.030572 18.825596 
" clip-path="url(#p4706e60e87)" style="fill: none; stroke: #ff0000; stroke-width: 0.4; stroke-linecap: round"/>
   </g>
   <g id="line2d_13">
    <path d="M 47.933165 96.099189 
L 48.459787 95.9082 
L 48.986408 95.469168 
L 49.563183 94.683302 
L 50.190113 93.418434 
L 50.992583 91.208547 
L 52.622601 86.054247 
L 54.6037 79.06738 
L 62.904252 49.030759 
L 64.835196 43.335068 
L 66.640754 38.635372 
L 67.719073 36.294995 
L 68.320926 35.508409 
L 68.847547 35.152007 
L 69.324014 35.082747 
L 69.800481 35.241539 
L 70.327102 35.676356 
L 70.928954 36.487395 
L 71.606039 37.79714 
L 72.383432 39.824555 
L 81.110296 65.80627 
L 87.580213 86.562474 
L 99.542035 125.4918 
L 102.651608 134.489047 
L 105.234559 141.31094 
L 107.616893 146.998108 
L 109.798609 151.672527 
L 111.75463 155.342396 
L 113.560188 158.285447 
L 115.541287 161.103906 
L 117.271613 163.185946 
L 119.102249 165.072309 
L 121.258887 166.956151 
L 123.315218 168.444695 
L 125.221085 169.574666 
L 127.101874 170.45794 
L 127.603418 170.422041 
L 128.130039 170.147199 
L 128.706815 169.582345 
L 129.383899 168.582053 
L 130.161292 166.999946 
L 131.038994 164.668897 
L 132.242699 160.729646 
L 135.176731 150.987187 
L 140.493097 133.454258 
L 143.050971 124.239677 
L 147.038245 108.862296 
L 151.752758 89.483801 
L 157.946826 64.078322 
L 160.5047 54.565479 
L 162.661339 47.386086 
L 164.517051 41.915403 
L 166.322609 37.297607 
L 168.002781 33.604298 
L 169.708031 30.419242 
L 171.187585 28.069182 
L 172.66714 26.118421 
L 174.247003 24.385001 
L 176.077639 22.754441 
L 177.958428 21.414019 
L 179.688755 20.446386 
L 181.594622 19.640698 
L 182.196475 19.415884 
L 182.196475 19.415884 
" clip-path="url(#p4706e60e87)" style="fill: none; stroke: #0000ff; stroke-width: 0.4; stroke-linecap: round"/>
   </g>
   <g id="patch_3">
    <path d="M 41.22 187.363104 
L 41.22 10.8 
" style="fill: none; stroke: #000000; stroke-linejoin: miter; stroke-linecap: square"/>
   </g>
   <g id="patch_4">
    <path d="M 41.22 187.363104 
L 188.90964 187.363104 
" style="fill: none; stroke: #000000; stroke-linejoin: miter; stroke-linecap: square"/>
   </g>
   <g id="legend_1">
    <g id="line2d_14">
     <path d="M 47.52 19.968906 
L 54.52 19.968906 
L 61.52 19.968906 
" style="fill: none; stroke: #000000; stroke-width: 0.7; stroke-linecap: round"/>
    </g>
    <g id="text_14">
     <!-- experiment -->
     <g style="fill: #262626" transform="translate(67.12 22.418906) scale(0.07 -0.07)">
      <defs>
       <path id="DejaVuSerif-78" d="M 1863 2028 
L 2559 2988 
L 2113 2988 
L 2113 3322 
L 3391 3322 
L 3391 2988 
L 2950 2988 
L 2059 1759 
L 3097 331 
L 3531 331 
L 3531 0 
L 1997 0 
L 1997 331 
L 2419 331 
L 1697 1325 
L 972 331 
L 1403 331 
L 1403 0 
L 141 0 
L 141 331 
L 581 331 
L 1497 1594 
L 488 2988 
L 78 2988 
L 78 3322 
L 1563 3322 
L 1563 2988 
L 1166 2988 
L 1863 2028 
z
" transform="scale(0.015625)"/>
       <path id="DejaVuSerif-70" d="M 1313 1825 
L 1313 1497 
Q 1313 897 1542 583 
Q 1772 269 2209 269 
Q 2650 269 2876 622 
Q 3103 975 3103 1663 
Q 3103 2353 2876 2703 
Q 2650 3053 2209 3053 
Q 1772 3053 1542 2737 
Q 1313 2422 1313 1825 
z
M 738 2988 
L 184 2988 
L 184 3322 
L 1313 3322 
L 1313 2803 
Q 1481 3116 1742 3264 
Q 2003 3413 2388 3413 
Q 3000 3413 3387 2928 
Q 3775 2444 3775 1663 
Q 3775 881 3387 395 
Q 3000 -91 2388 -91 
Q 2003 -91 1742 57 
Q 1481 206 1313 519 
L 1313 -997 
L 1856 -997 
L 1856 -1331 
L 184 -1331 
L 184 -997 
L 738 -997 
L 738 2988 
z
" transform="scale(0.015625)"/>
       <path id="DejaVuSerif-72" d="M 3059 3328 
L 3059 2497 
L 2728 2497 
Q 2713 2744 2591 2866 
Q 2469 2988 2234 2988 
Q 1809 2988 1582 2694 
Q 1356 2400 1356 1850 
L 1356 331 
L 2022 331 
L 2022 0 
L 263 0 
L 263 331 
L 781 331 
L 781 2994 
L 231 2994 
L 231 3322 
L 1356 3322 
L 1356 2731 
Q 1525 3078 1790 3245 
Q 2056 3413 2438 3413 
Q 2578 3413 2733 3391 
Q 2888 3369 3059 3328 
z
" transform="scale(0.015625)"/>
       <path id="DejaVuSerif-6e" d="M 263 0 
L 263 331 
L 781 331 
L 781 2988 
L 231 2988 
L 231 3322 
L 1356 3322 
L 1356 2731 
Q 1516 3069 1770 3241 
Q 2025 3413 2363 3413 
Q 2913 3413 3172 3097 
Q 3431 2781 3431 2113 
L 3431 331 
L 3944 331 
L 3944 0 
L 2356 0 
L 2356 331 
L 2853 331 
L 2853 1931 
Q 2853 2541 2703 2767 
Q 2553 2994 2175 2994 
Q 1775 2994 1565 2701 
Q 1356 2409 1356 1850 
L 1356 331 
L 1856 331 
L 1856 0 
L 263 0 
z
" transform="scale(0.015625)"/>
       <path id="DejaVuSerif-74" d="M 691 2988 
L 184 2988 
L 184 3322 
L 691 3322 
L 691 4353 
L 1269 4353 
L 1269 3322 
L 2350 3322 
L 2350 2988 
L 1269 2988 
L 1269 878 
Q 1269 456 1350 337 
Q 1431 219 1650 219 
Q 1875 219 1978 351 
Q 2081 484 2088 781 
L 2522 781 
Q 2497 328 2275 118 
Q 2053 -91 1600 -91 
Q 1103 -91 897 129 
Q 691 350 691 878 
L 691 2988 
z
" transform="scale(0.015625)"/>
      </defs>
      <use xlink:href="#DejaVuSerif-65"/>
      <use xlink:href="#DejaVuSerif-78" x="59.179688"/>
      <use xlink:href="#DejaVuSerif-70" x="115.576172"/>
      <use xlink:href="#DejaVuSerif-65" x="179.589844"/>
      <use xlink:href="#DejaVuSerif-72" x="238.769531"/>
      <use xlink:href="#DejaVuSerif-69" x="286.572266"/>
      <use xlink:href="#DejaVuSerif-6d" x="318.554688"/>
      <use xlink:href="#DejaVuSerif-65" x="413.378906"/>
      <use xlink:href="#DejaVuSerif-6e" x="472.558594"/>
      <use xlink:href="#DejaVuSerif-74" x="536.962891"/>
     </g>
    </g>
    <g id="line2d_15">
     <path d="M 47.52 30.243594 
L 54.52 30.243594 
L 61.52 30.243594 
" style="fill: none; stroke: #ff0000; stroke-width: 0.4; stroke-linecap: round"/>
    </g>
    <g id="text_15">
     <!-- polynomial rudder -->
     <g style="fill: #262626" transform="translate(67.12 32.693594) scale(0.07 -0.07)">
      <defs>
       <path id="DejaVuSerif-6f" d="M 1925 219 
Q 2388 219 2623 584 
Q 2859 950 2859 1663 
Q 2859 2375 2623 2739 
Q 2388 3103 1925 3103 
Q 1463 3103 1227 2739 
Q 991 2375 991 1663 
Q 991 950 1228 584 
Q 1466 219 1925 219 
z
M 1925 -91 
Q 1200 -91 759 389 
Q 319 869 319 1663 
Q 319 2456 758 2934 
Q 1197 3413 1925 3413 
Q 2653 3413 3092 2934 
Q 3531 2456 3531 1663 
Q 3531 869 3092 389 
Q 2653 -91 1925 -91 
z
" transform="scale(0.015625)"/>
       <path id="DejaVuSerif-6c" d="M 1313 331 
L 1856 331 
L 1856 0 
L 184 0 
L 184 331 
L 738 331 
L 738 4531 
L 184 4531 
L 184 4863 
L 1313 4863 
L 1313 331 
z
" transform="scale(0.015625)"/>
       <path id="DejaVuSerif-79" d="M 1381 -609 
L 1600 -56 
L 359 2988 
L -19 2988 
L -19 3322 
L 1509 3322 
L 1509 2988 
L 978 2988 
L 1913 703 
L 2847 2988 
L 2350 2988 
L 2350 3322 
L 3597 3322 
L 3597 2988 
L 3225 2988 
L 1703 -750 
Q 1547 -1138 1356 -1280 
Q 1166 -1422 819 -1422 
Q 672 -1422 517 -1397 
Q 363 -1372 206 -1325 
L 206 -691 
L 500 -691 
Q 519 -903 608 -995 
Q 697 -1088 884 -1088 
Q 1056 -1088 1161 -992 
Q 1266 -897 1381 -609 
z
" transform="scale(0.015625)"/>
       <path id="DejaVuSerif-61" d="M 2547 1044 
L 2547 1747 
L 1806 1747 
Q 1378 1747 1168 1562 
Q 959 1378 959 997 
Q 959 650 1171 447 
Q 1384 244 1747 244 
Q 2106 244 2326 466 
Q 2547 688 2547 1044 
z
M 3122 2075 
L 3122 331 
L 3634 331 
L 3634 0 
L 2547 0 
L 2547 359 
Q 2356 128 2106 18 
Q 1856 -91 1522 -91 
Q 969 -91 644 203 
Q 319 497 319 997 
Q 319 1513 691 1797 
Q 1063 2081 1741 2081 
L 2547 2081 
L 2547 2309 
Q 2547 2688 2317 2895 
Q 2088 3103 1672 3103 
Q 1328 3103 1125 2947 
Q 922 2791 872 2484 
L 575 2484 
L 575 3156 
Q 875 3284 1158 3348 
Q 1441 3413 1709 3413 
Q 2400 3413 2761 3070 
Q 3122 2728 3122 2075 
z
" transform="scale(0.015625)"/>
       <path id="DejaVuSerif-75" d="M 2266 3322 
L 3341 3322 
L 3341 331 
L 3884 331 
L 3884 0 
L 2766 0 
L 2766 588 
Q 2606 256 2353 82 
Q 2100 -91 1766 -91 
Q 1213 -91 952 223 
Q 691 538 691 1209 
L 691 2988 
L 172 2988 
L 172 3322 
L 1269 3322 
L 1269 1388 
Q 1269 781 1417 556 
Q 1566 331 1947 331 
Q 2347 331 2556 625 
Q 2766 919 2766 1478 
L 2766 2988 
L 2266 2988 
L 2266 3322 
z
" transform="scale(0.015625)"/>
      </defs>
      <use xlink:href="#DejaVuSerif-70"/>
      <use xlink:href="#DejaVuSerif-6f" x="64.013672"/>
      <use xlink:href="#DejaVuSerif-6c" x="124.21875"/>
      <use xlink:href="#DejaVuSerif-79" x="156.201172"/>
      <use xlink:href="#DejaVuSerif-6e" x="212.695312"/>
      <use xlink:href="#DejaVuSerif-6f" x="277.099609"/>
      <use xlink:href="#DejaVuSerif-6d" x="337.304688"/>
      <use xlink:href="#DejaVuSerif-69" x="432.128906"/>
      <use xlink:href="#DejaVuSerif-61" x="464.111328"/>
      <use xlink:href="#DejaVuSerif-6c" x="523.730469"/>
      <use xlink:href="#DejaVuSerif-20" x="555.712891"/>
      <use xlink:href="#DejaVuSerif-72" x="587.5"/>
      <use xlink:href="#DejaVuSerif-75" x="635.302734"/>
      <use xlink:href="#DejaVuSerif-64" x="699.707031"/>
      <use xlink:href="#DejaVuSerif-64" x="763.720703"/>
      <use xlink:href="#DejaVuSerif-65" x="827.734375"/>
      <use xlink:href="#DejaVuSerif-72" x="886.914062"/>
     </g>
    </g>
    <g id="line2d_16">
     <path d="M 47.52 40.617813 
L 54.52 40.617813 
L 61.52 40.617813 
" style="fill: none; stroke: #0000ff; stroke-width: 0.4; stroke-linecap: round"/>
    </g>
    <g id="text_16">
     <!-- semi-empirical rudder -->
     <g style="fill: #262626" transform="translate(67.12 43.067813) scale(0.07 -0.07)">
      <defs>
       <path id="DejaVuSerif-2d" d="M 281 1959 
L 1881 1959 
L 1881 1472 
L 281 1472 
L 281 1959 
z
" transform="scale(0.015625)"/>
       <path id="DejaVuSerif-63" d="M 3291 997 
Q 3169 466 2822 187 
Q 2475 -91 1925 -91 
Q 1200 -91 759 389 
Q 319 869 319 1663 
Q 319 2459 759 2936 
Q 1200 3413 1925 3413 
Q 2241 3413 2553 3339 
Q 2866 3266 3181 3116 
L 3181 2266 
L 2847 2266 
Q 2781 2703 2561 2903 
Q 2341 3103 1931 3103 
Q 1466 3103 1228 2742 
Q 991 2381 991 1663 
Q 991 944 1227 581 
Q 1463 219 1931 219 
Q 2303 219 2525 412 
Q 2747 606 2828 997 
L 3291 997 
z
" transform="scale(0.015625)"/>
      </defs>
      <use xlink:href="#DejaVuSerif-73"/>
      <use xlink:href="#DejaVuSerif-65" x="51.318359"/>
      <use xlink:href="#DejaVuSerif-6d" x="110.498047"/>
      <use xlink:href="#DejaVuSerif-69" x="205.322266"/>
      <use xlink:href="#DejaVuSerif-2d" x="237.304688"/>
      <use xlink:href="#DejaVuSerif-65" x="271.09375"/>
      <use xlink:href="#DejaVuSerif-6d" x="330.273438"/>
      <use xlink:href="#DejaVuSerif-70" x="425.097656"/>
      <use xlink:href="#DejaVuSerif-69" x="489.111328"/>
      <use xlink:href="#DejaVuSerif-72" x="521.09375"/>
      <use xlink:href="#DejaVuSerif-69" x="568.896484"/>
      <use xlink:href="#DejaVuSerif-63" x="600.878906"/>
      <use xlink:href="#DejaVuSerif-61" x="656.884766"/>
      <use xlink:href="#DejaVuSerif-6c" x="716.503906"/>
      <use xlink:href="#DejaVuSerif-20" x="748.486328"/>
      <use xlink:href="#DejaVuSerif-72" x="780.273438"/>
      <use xlink:href="#DejaVuSerif-75" x="828.076172"/>
      <use xlink:href="#DejaVuSerif-64" x="892.480469"/>
      <use xlink:href="#DejaVuSerif-64" x="956.494141"/>
      <use xlink:href="#DejaVuSerif-65" x="1020.507812"/>
      <use xlink:href="#DejaVuSerif-72" x="1079.6875"/>
     </g>
    </g>
   </g>
   <g id="line2d_17">
    <path d="M 47.933165 96.05156 
L 48.509893 95.941202 
L 49.136856 95.58031 
L 49.763738 94.970933 
L 50.465972 93.961182 
L 53.199334 89.047455 
L 54.904588 85.51887 
L 56.559668 81.517063 
L 58.239858 76.781561 
L 60.697401 69.127684 
L 66.490231 50.942904 
L 68.897654 44.367878 
L 70.051285 41.827165 
L 70.903825 40.502233 
L 71.656171 39.719777 
L 72.383397 39.267766 
L 73.035379 39.102648 
L 73.587107 39.187207 
L 74.063564 39.488348 
L 74.590198 40.090028 
L 75.718641 41.284741 
L 77.298505 42.911648 
L 78.602592 44.573393 
L 79.580532 46.175118 
L 80.683936 48.514703 
L 81.962883 51.764841 
L 83.969044 57.517407 
L 87.028452 66.893885 
L 93.498386 87.669736 
L 97.711365 101.136599 
L 103.805106 120.822257 
L 109.07132 137.705375 
L 113.710596 150.942629 
L 116.343702 157.524768 
L 118.349898 162.025443 
L 120.356053 166.08098 
L 122.562867 169.81378 
L 124.518885 172.802861 
L 126.299351 175.135434 
L 129.308617 178.364719 
L 130.211394 179.161942 
L 130.738055 179.328161 
L 131.314796 179.278163 
L 131.916633 178.987932 
L 132.668967 178.353032 
L 133.396193 177.434456 
L 134.173586 176.045575 
L 135.151607 173.793375 
L 136.054376 171.97218 
L 140.192181 164.312274 
L 141.295545 161.440011 
L 143.051001 156.159924 
L 145.107269 149.3401 
L 150.498841 131.274084 
L 153.508142 122.574193 
L 156.542448 113.432342 
L 172.015088 64.713795 
L 175.952235 53.350599 
L 178.159031 47.704181 
L 181.995802 38.816514 
L 182.196419 38.404728 
L 182.196419 38.404728 
" clip-path="url(#p4706e60e87)" style="fill: none; stroke: #000000; stroke-width: 0.7; stroke-linecap: round"/>
   </g>
  </g>
  <g id="axes_2">
   <g id="patch_5">
    <path d="M 230.12964 187.363104 
L 377.81928 187.363104 
L 377.81928 10.8 
L 230.12964 10.8 
z
" style="fill: #ffffff"/>
   </g>
   <g id="matplotlib.axis_3">
    <g id="xtick_7">
     <g id="line2d_18">
      <path d="M 260.753578 187.363104 
L 260.753578 10.8 
" clip-path="url(#p36cfe247cb)" style="fill: none; stroke: #b0b0b0; stroke-width: 0.1; stroke-linecap: round"/>
     </g>
     <g id="line2d_19"/>
     <g id="text_17">
      <!-- 0 -->
      <g style="fill: #262626" transform="translate(258.526703 196.18201) scale(0.07 -0.07)">
       <use xlink:href="#DejaVuSerif-30"/>
      </g>
     </g>
    </g>
    <g id="xtick_8">
     <g id="line2d_20">
      <path d="M 299.3385 187.363104 
L 299.3385 10.8 
" clip-path="url(#p36cfe247cb)" style="fill: none; stroke: #b0b0b0; stroke-width: 0.1; stroke-linecap: round"/>
     </g>
     <g id="line2d_21"/>
     <g id="text_18">
      <!-- 20 -->
      <g style="fill: #262626" transform="translate(294.88475 196.18201) scale(0.07 -0.07)">
       <use xlink:href="#DejaVuSerif-32"/>
       <use xlink:href="#DejaVuSerif-30" x="63.623047"/>
      </g>
     </g>
    </g>
    <g id="xtick_9">
     <g id="line2d_22">
      <path d="M 337.923422 187.363104 
L 337.923422 10.8 
" clip-path="url(#p36cfe247cb)" style="fill: none; stroke: #b0b0b0; stroke-width: 0.1; stroke-linecap: round"/>
     </g>
     <g id="line2d_23"/>
     <g id="text_19">
      <!-- 40 -->
      <g style="fill: #262626" transform="translate(333.469672 196.18201) scale(0.07 -0.07)">
       <use xlink:href="#DejaVuSerif-34"/>
       <use xlink:href="#DejaVuSerif-30" x="63.623047"/>
      </g>
     </g>
    </g>
    <g id="xtick_10">
     <g id="line2d_24">
      <path d="M 376.508344 187.363104 
L 376.508344 10.8 
" clip-path="url(#p36cfe247cb)" style="fill: none; stroke: #b0b0b0; stroke-width: 0.1; stroke-linecap: round"/>
     </g>
     <g id="line2d_25"/>
     <g id="text_20">
      <!-- 60 -->
      <g style="fill: #262626" transform="translate(372.054594 196.18201) scale(0.07 -0.07)">
       <defs>
        <path id="DejaVuSerif-36" d="M 2094 219 
Q 2534 219 2771 542 
Q 3009 866 3009 1472 
Q 3009 2078 2771 2401 
Q 2534 2725 2094 2725 
Q 1647 2725 1412 2412 
Q 1178 2100 1178 1509 
Q 1178 888 1415 553 
Q 1653 219 2094 219 
z
M 1075 2569 
Q 1288 2803 1556 2918 
Q 1825 3034 2163 3034 
Q 2859 3034 3264 2615 
Q 3669 2197 3669 1472 
Q 3669 763 3233 336 
Q 2797 -91 2069 -91 
Q 1278 -91 853 498 
Q 428 1088 428 2181 
Q 428 3406 931 4078 
Q 1434 4750 2350 4750 
Q 2597 4750 2869 4703 
Q 3141 4656 3425 4563 
L 3425 3794 
L 3072 3794 
Q 3034 4109 2831 4275 
Q 2628 4441 2284 4441 
Q 1678 4441 1381 3981 
Q 1084 3522 1075 2569 
z
" transform="scale(0.015625)"/>
       </defs>
       <use xlink:href="#DejaVuSerif-36"/>
       <use xlink:href="#DejaVuSerif-30" x="63.623047"/>
      </g>
     </g>
    </g>
    <g id="text_21">
     <!-- $y_0$ $[m]$ -->
     <g style="fill: #262626" transform="translate(294.55446 206.197792) scale(0.06 -0.06)">
      <defs>
       <path id="DejaVuSans-Oblique-79" d="M 1588 -325 
Q 1188 -997 936 -1164 
Q 684 -1331 294 -1331 
L -159 -1331 
L -63 -850 
L 269 -850 
Q 509 -850 678 -719 
Q 847 -588 1056 -206 
L 1234 128 
L 459 3500 
L 1069 3500 
L 1650 819 
L 3256 3500 
L 3859 3500 
L 1588 -325 
z
" transform="scale(0.015625)"/>
       <path id="DejaVuSans-30" d="M 2034 4250 
Q 1547 4250 1301 3770 
Q 1056 3291 1056 2328 
Q 1056 1369 1301 889 
Q 1547 409 2034 409 
Q 2525 409 2770 889 
Q 3016 1369 3016 2328 
Q 3016 3291 2770 3770 
Q 2525 4250 2034 4250 
z
M 2034 4750 
Q 2819 4750 3233 4129 
Q 3647 3509 3647 2328 
Q 3647 1150 3233 529 
Q 2819 -91 2034 -91 
Q 1250 -91 836 529 
Q 422 1150 422 2328 
Q 422 3509 836 4129 
Q 1250 4750 2034 4750 
z
" transform="scale(0.015625)"/>
       <path id="DejaVuSans-5b" d="M 550 4863 
L 1875 4863 
L 1875 4416 
L 1125 4416 
L 1125 -397 
L 1875 -397 
L 1875 -844 
L 550 -844 
L 550 4863 
z
" transform="scale(0.015625)"/>
       <path id="DejaVuSans-Oblique-6d" d="M 5747 2113 
L 5338 0 
L 4763 0 
L 5166 2094 
Q 5191 2228 5203 2325 
Q 5216 2422 5216 2491 
Q 5216 2772 5059 2928 
Q 4903 3084 4622 3084 
Q 4203 3084 3875 2770 
Q 3547 2456 3450 1953 
L 3066 0 
L 2491 0 
L 2900 2094 
Q 2925 2209 2937 2307 
Q 2950 2406 2950 2484 
Q 2950 2769 2794 2926 
Q 2638 3084 2363 3084 
Q 1938 3084 1609 2770 
Q 1281 2456 1184 1953 
L 800 0 
L 225 0 
L 909 3500 
L 1484 3500 
L 1375 2956 
Q 1609 3263 1923 3423 
Q 2238 3584 2597 3584 
Q 2978 3584 3223 3384 
Q 3469 3184 3519 2828 
Q 3781 3197 4126 3390 
Q 4472 3584 4856 3584 
Q 5306 3584 5551 3325 
Q 5797 3066 5797 2591 
Q 5797 2488 5784 2364 
Q 5772 2241 5747 2113 
z
" transform="scale(0.015625)"/>
       <path id="DejaVuSans-5d" d="M 1947 4863 
L 1947 -844 
L 622 -844 
L 622 -397 
L 1369 -397 
L 1369 4416 
L 622 4416 
L 622 4863 
L 1947 4863 
z
" transform="scale(0.015625)"/>
      </defs>
      <use xlink:href="#DejaVuSans-Oblique-79" transform="translate(0 0.015625)"/>
      <use xlink:href="#DejaVuSans-30" transform="translate(59.179688 -16.390625) scale(0.7)"/>
      <use xlink:href="#DejaVuSerif-20" transform="translate(106.450195 0.015625)"/>
      <use xlink:href="#DejaVuSans-5b" transform="translate(138.237305 0.015625)"/>
      <use xlink:href="#DejaVuSans-Oblique-6d" transform="translate(177.250977 0.015625)"/>
      <use xlink:href="#DejaVuSans-5d" transform="translate(274.663086 0.015625)"/>
     </g>
    </g>
   </g>
   <g id="matplotlib.axis_4">
    <g id="ytick_6">
     <g id="line2d_26">
      <path d="M 230.12964 179.465504 
L 377.81928 179.465504 
" clip-path="url(#p36cfe247cb)" style="fill: none; stroke: #b0b0b0; stroke-width: 0.1; stroke-linecap: round"/>
     </g>
     <g id="line2d_27"/>
     <g id="text_22">
      <!-- −40 -->
      <g style="fill: #262626" transform="translate(211.856359 182.124957) scale(0.07 -0.07)">
       <use xlink:href="#DejaVuSerif-2212"/>
       <use xlink:href="#DejaVuSerif-34" x="83.789062"/>
       <use xlink:href="#DejaVuSerif-30" x="147.412109"/>
      </g>
     </g>
    </g>
    <g id="ytick_7">
     <g id="line2d_28">
      <path d="M 230.12964 140.880582 
L 377.81928 140.880582 
" clip-path="url(#p36cfe247cb)" style="fill: none; stroke: #b0b0b0; stroke-width: 0.1; stroke-linecap: round"/>
     </g>
     <g id="line2d_29"/>
     <g id="text_23">
      <!-- −20 -->
      <g style="fill: #262626" transform="translate(211.856359 143.540035) scale(0.07 -0.07)">
       <use xlink:href="#DejaVuSerif-2212"/>
       <use xlink:href="#DejaVuSerif-32" x="83.789062"/>
       <use xlink:href="#DejaVuSerif-30" x="147.412109"/>
      </g>
     </g>
    </g>
    <g id="ytick_8">
     <g id="line2d_30">
      <path d="M 230.12964 102.29566 
L 377.81928 102.29566 
" clip-path="url(#p36cfe247cb)" style="fill: none; stroke: #b0b0b0; stroke-width: 0.1; stroke-linecap: round"/>
     </g>
     <g id="line2d_31"/>
     <g id="text_24">
      <!-- 0 -->
      <g style="fill: #262626" transform="translate(222.17589 104.955113) scale(0.07 -0.07)">
       <use xlink:href="#DejaVuSerif-30"/>
      </g>
     </g>
    </g>
    <g id="ytick_9">
     <g id="line2d_32">
      <path d="M 230.12964 63.710738 
L 377.81928 63.710738 
" clip-path="url(#p36cfe247cb)" style="fill: none; stroke: #b0b0b0; stroke-width: 0.1; stroke-linecap: round"/>
     </g>
     <g id="line2d_33"/>
     <g id="text_25">
      <!-- 20 -->
      <g style="fill: #262626" transform="translate(217.72214 66.370191) scale(0.07 -0.07)">
       <use xlink:href="#DejaVuSerif-32"/>
       <use xlink:href="#DejaVuSerif-30" x="63.623047"/>
      </g>
     </g>
    </g>
    <g id="ytick_10">
     <g id="line2d_34">
      <path d="M 230.12964 25.125816 
L 377.81928 25.125816 
" clip-path="url(#p36cfe247cb)" style="fill: none; stroke: #b0b0b0; stroke-width: 0.1; stroke-linecap: round"/>
     </g>
     <g id="line2d_35"/>
     <g id="text_26">
      <!-- 40 -->
      <g style="fill: #262626" transform="translate(217.72214 27.785269) scale(0.07 -0.07)">
       <use xlink:href="#DejaVuSerif-34"/>
       <use xlink:href="#DejaVuSerif-30" x="63.623047"/>
      </g>
     </g>
    </g>
    <g id="text_27">
     <!-- $x_0$ $[m]$ -->
     <g style="fill: #262626" transform="translate(206.608546 108.501552) rotate(-90) scale(0.06 -0.06)">
      <defs>
       <path id="DejaVuSans-Oblique-78" d="M 3841 3500 
L 2234 1784 
L 3219 0 
L 2559 0 
L 1819 1388 
L 531 0 
L -166 0 
L 1556 1844 
L 641 3500 
L 1300 3500 
L 1972 2234 
L 3144 3500 
L 3841 3500 
z
" transform="scale(0.015625)"/>
      </defs>
      <use xlink:href="#DejaVuSans-Oblique-78" transform="translate(0 0.015625)"/>
      <use xlink:href="#DejaVuSans-30" transform="translate(59.179688 -16.390625) scale(0.7)"/>
      <use xlink:href="#DejaVuSerif-20" transform="translate(106.450195 0.015625)"/>
      <use xlink:href="#DejaVuSans-5b" transform="translate(138.237305 0.015625)"/>
      <use xlink:href="#DejaVuSans-Oblique-6d" transform="translate(177.250977 0.015625)"/>
      <use xlink:href="#DejaVuSans-5d" transform="translate(274.663086 0.015625)"/>
     </g>
    </g>
   </g>
   <g id="line2d_36">
    <path d="M 260.753578 102.29566 
L 262.084758 102.186216 
L 262.875749 101.88875 
L 263.647448 101.344507 
L 264.496316 100.45983 
L 265.441646 99.139759 
L 266.502732 97.25602 
L 267.679572 94.691972 
L 268.972167 91.324373 
L 270.438394 86.858506 
L 272.116838 80.997358 
L 274.046084 73.416779 
L 276.284009 63.685897 
L 279.042831 51.648424 
L 280.296841 47.248349 
L 281.454389 43.958035 
L 282.611937 41.313478 
L 283.750192 39.248336 
L 284.849862 37.697394 
L 285.891655 36.596855 
L 286.914155 35.825911 
L 287.917363 35.342317 
L 288.901279 35.114056 
L 289.865902 35.114911 
L 290.830525 35.336815 
L 291.833733 35.803419 
L 292.875526 36.539379 
L 293.994489 37.61295 
L 295.152036 39.037638 
L 296.386754 40.920248 
L 297.717934 43.37232 
L 299.126283 46.449967 
L 300.611803 50.241516 
L 302.174492 54.849737 
L 303.833644 60.454022 
L 305.589258 67.190911 
L 307.441334 75.206221 
L 309.428457 84.82529 
L 311.666383 96.801805 
L 314.270865 111.981903 
L 317.222612 130.536018 
L 321.891387 160.181544 
L 323.029642 165.490996 
L 324.11002 169.486922 
L 325.151813 172.528141 
L 326.174314 174.853569 
L 327.158229 176.564777 
L 328.10356 177.78188 
L 329.010305 178.602183 
L 329.878466 179.09659 
L 330.708042 179.315801 
L 331.518325 179.304234 
L 332.347901 179.070568 
L 333.216062 178.588562 
L 334.122808 177.826026 
L 335.126015 176.677041 
L 336.206393 175.082452 
L 337.363941 172.959787 
L 338.617951 170.178983 
L 339.987716 166.579401 
L 341.473235 162.029217 
L 343.074509 156.389567 
L 344.830123 149.36748 
L 346.778662 140.620824 
L 348.997295 129.59248 
L 351.582485 115.55749 
L 354.707863 97.318853 
L 358.624233 73.070729 
L 360.071168 63.819645 
L 360.071168 63.819645 
" clip-path="url(#p36cfe247cb)" style="fill: none; stroke: #ff0000; stroke-width: 0.4; stroke-linecap: round"/>
   </g>
   <g id="line2d_37">
    <path d="M 260.753578 102.29566 
L 262.026881 102.186799 
L 262.779287 101.898649 
L 263.493108 101.374293 
L 264.284099 100.503935 
L 265.190844 99.153791 
L 266.213345 97.205693 
L 267.370892 94.493972 
L 268.68278 90.821266 
L 270.168299 85.969853 
L 271.885328 79.56844 
L 273.930329 71.043326 
L 276.534811 59.160813 
L 278.40618 51.026893 
L 279.58302 46.851828 
L 280.586228 44.080372 
L 281.589436 41.937827 
L 282.573352 40.341381 
L 283.537975 39.187348 
L 284.464013 38.411158 
L 285.370759 37.930791 
L 286.277504 37.6966 
L 287.203542 37.684286 
L 288.168165 37.894979 
L 289.190666 38.348211 
L 290.290336 39.082694 
L 291.467176 40.140223 
L 292.701894 41.555347 
L 294.033074 43.42747 
L 295.460716 45.825281 
L 297.004113 48.870547 
L 298.682557 52.695382 
L 300.496048 57.397944 
L 302.463879 63.139746 
L 304.605342 70.093762 
L 306.978315 78.584431 
L 309.621382 88.902902 
L 312.9011 102.654014 
L 317.415536 122.63346 
L 324.515162 154.170104 
L 325.653417 157.924552 
L 326.69521 160.617631 
L 327.71771 162.662987 
L 328.720918 164.187276 
L 329.704834 165.291354 
L 330.650165 166.027001 
L 331.576203 166.470172 
L 332.482948 166.659607 
L 333.389694 166.618959 
L 334.315732 166.347389 
L 335.280355 165.826777 
L 336.322148 165.00137 
L 337.421818 163.838911 
L 338.617951 162.236788 
L 339.891253 160.142432 
L 341.261018 157.442248 
L 342.727245 154.036521 
L 344.309227 149.77556 
L 346.006964 144.546379 
L 347.878332 138.037105 
L 349.98121 129.889611 
L 352.469938 119.305226 
L 355.576024 105.061907 
L 360.32197 82.099284 
L 364.045415 63.72605 
L 364.045415 63.72605 
" clip-path="url(#p36cfe247cb)" style="fill: none; stroke: #0000ff; stroke-width: 0.4; stroke-linecap: round"/>
   </g>
   <g id="line2d_38">
    <path d="M 260.753578 102.29566 
L 260.643194 92.609514 
L 260.344551 89.484821 
L 259.882956 86.936398 
L 259.283227 84.830976 
L 258.453379 82.756201 
L 257.22285 80.308076 
L 255.332595 77.081443 
L 250.977678 69.782631 
L 249.804516 67.286199 
L 249.009906 65.082627 
L 248.497039 63.013949 
L 248.230231 61.01842 
L 248.196433 59.093088 
L 248.386056 57.234444 
L 248.784423 55.495628 
L 249.414182 53.774051 
L 250.390734 51.782645 
L 251.83997 49.354045 
L 254.052269 46.113324 
L 257.988641 40.387861 
L 259.270325 38.084732 
L 260.130866 36.091239 
L 260.687006 34.251458 
L 260.984494 32.510618 
L 261.044997 30.848467 
L 260.896834 29.370166 
L 260.896834 29.370166 
" clip-path="url(#p36cfe247cb)" style="fill: none; stroke: #ff0000; stroke-width: 0.4; stroke-linecap: round"/>
   </g>
   <g id="line2d_39">
    <path d="M 260.753578 102.29566 
L 260.643469 92.681405 
L 260.336708 89.487458 
L 259.856605 86.781095 
L 259.219793 84.432145 
L 258.376668 82.188732 
L 257.110969 79.492508 
L 254.988972 75.553898 
L 251.887589 69.759907 
L 250.682014 67.008587 
L 249.877101 64.626092 
L 249.363095 62.417745 
L 249.097776 60.303561 
L 249.064739 58.263371 
L 249.253935 56.291751 
L 249.656435 54.411382 
L 250.271125 52.613993 
L 251.234351 50.526 
L 252.741745 47.822301 
L 255.51528 43.381017 
L 258.146666 39.019142 
L 259.554618 36.255615 
L 260.543942 33.835188 
L 261.235542 31.566305 
L 261.673808 29.373267 
L 261.874426 27.241162 
L 261.84678 25.166878 
L 261.598221 23.161857 
L 261.598221 23.161857 
" clip-path="url(#p36cfe247cb)" style="fill: none; stroke: #0000ff; stroke-width: 0.4; stroke-linecap: round"/>
   </g>
   <g id="patch_6">
    <path d="M 230.12964 187.363104 
L 230.12964 10.8 
" style="fill: none; stroke: #000000; stroke-linejoin: miter; stroke-linecap: square"/>
   </g>
   <g id="patch_7">
    <path d="M 230.12964 187.363104 
L 377.81928 187.363104 
" style="fill: none; stroke: #000000; stroke-linejoin: miter; stroke-linecap: square"/>
   </g>
   <g id="text_28">
    <!-- Track plot -->
    <g style="fill: #262626" transform="translate(285.813288 4.8) scale(0.07 -0.07)">
     <defs>
      <path id="DejaVuSerif-6b" d="M 1831 0 
L 219 0 
L 219 331 
L 738 331 
L 738 4531 
L 184 4531 
L 184 4863 
L 1313 4863 
L 1313 1697 
L 2713 2988 
L 2234 2988 
L 2234 3322 
L 3738 3322 
L 3738 2988 
L 3169 2988 
L 2181 2075 
L 3444 331 
L 3922 331 
L 3922 0 
L 2284 0 
L 2284 331 
L 2759 331 
L 1766 1697 
L 1313 1275 
L 1313 331 
L 1831 331 
L 1831 0 
z
" transform="scale(0.015625)"/>
     </defs>
     <use xlink:href="#DejaVuSerif-54"/>
     <use xlink:href="#DejaVuSerif-72" x="66.699219"/>
     <use xlink:href="#DejaVuSerif-61" x="114.501953"/>
     <use xlink:href="#DejaVuSerif-63" x="174.121094"/>
     <use xlink:href="#DejaVuSerif-6b" x="230.126953"/>
     <use xlink:href="#DejaVuSerif-20" x="290.722656"/>
     <use xlink:href="#DejaVuSerif-70" x="322.509766"/>
     <use xlink:href="#DejaVuSerif-6c" x="386.523438"/>
     <use xlink:href="#DejaVuSerif-6f" x="418.505859"/>
     <use xlink:href="#DejaVuSerif-74" x="478.710938"/>
    </g>
   </g>
   <g id="legend_2"/>
   <g id="line2d_40">
    <path d="M 260.736314 96.430408 
L 260.312208 96.893141 
L 260.100885 97.3552 
L 259.891022 98.278644 
L 259.911468 104.73804 
L 259.976764 105.199223 
L 260.127173 105.660137 
L 261.403873 105.656096 
L 261.551361 105.194239 
L 261.613736 104.732651 
L 261.59329 98.273256 
L 261.377585 97.351158 
L 261.163341 96.890446 
L 260.736314 96.430408 
" clip-path="url(#p36cfe247cb)" style="fill: none; stroke: #0000ff; stroke-opacity: 0.2; stroke-width: 0.4; stroke-linecap: round"/>
   </g>
   <g id="patch_8">
    <path d="M 260.736314 96.430408 
L 260.312208 96.893141 
L 260.100885 97.3552 
L 259.891022 98.278644 
L 259.911468 104.73804 
L 259.976764 105.199223 
L 260.127173 105.660137 
L 261.403873 105.656096 
L 261.551361 105.194239 
L 261.613736 104.732651 
L 261.59329 98.273256 
L 261.377585 97.351158 
L 261.163341 96.890446 
z
" clip-path="url(#p36cfe247cb)" style="fill: #0000ff; opacity: 0.2"/>
   </g>
   <g id="line2d_41">
    <path d="M 258.959424 84.316656 
L 258.666225 84.871653 
L 258.578712 85.37215 
L 258.609374 86.318644 
L 260.26381 92.562605 
L 260.443691 92.992253 
L 260.705845 93.4001 
L 261.939965 93.0731 
L 261.965772 92.588953 
L 261.909304 92.126606 
L 260.254867 85.882645 
L 259.812832 85.04515 
L 259.488972 84.653653 
L 258.959424 84.316656 
" clip-path="url(#p36cfe247cb)" style="fill: none; stroke: #0000ff; stroke-opacity: 0.2; stroke-width: 0.4; stroke-linecap: round"/>
   </g>
   <g id="patch_9">
    <path d="M 258.959424 84.316656 
L 258.666225 84.871653 
L 258.578712 85.37215 
L 258.609374 86.318644 
L 260.26381 92.562605 
L 260.443691 92.992253 
L 260.705845 93.4001 
L 261.939965 93.0731 
L 261.965772 92.588953 
L 261.909304 92.126606 
L 260.254867 85.882645 
L 259.812832 85.04515 
L 259.488972 84.653653 
z
" clip-path="url(#p36cfe247cb)" style="fill: #0000ff; opacity: 0.2"/>
   </g>
   <g id="line2d_42">
    <path d="M 253.679872 74.253251 
L 253.582524 74.873341 
L 253.662068 75.375166 
L 253.998049 76.260552 
L 257.588157 81.630406 
L 257.897661 81.978488 
L 258.277922 82.279264 
L 259.339274 81.569678 
L 259.206662 81.103333 
L 259.003294 80.684292 
L 255.413185 75.314438 
L 254.72342 74.66558 
L 254.290092 74.400284 
L 253.679872 74.253251 
" clip-path="url(#p36cfe247cb)" style="fill: none; stroke: #0000ff; stroke-opacity: 0.2; stroke-width: 0.4; stroke-linecap: round"/>
   </g>
   <g id="patch_10">
    <path d="M 253.679872 74.253251 
L 253.582524 74.873341 
L 253.662068 75.375166 
L 253.998049 76.260552 
L 257.588157 81.630406 
L 257.897661 81.978488 
L 258.277922 82.279264 
L 259.339274 81.569678 
L 259.206662 81.103333 
L 259.003294 80.684292 
L 255.413185 75.314438 
L 254.72342 74.66558 
L 254.290092 74.400284 
z
" clip-path="url(#p36cfe247cb)" style="fill: #0000ff; opacity: 0.2"/>
   </g>
   <g id="line2d_43">
    <path d="M 248.543671 64.472293 
L 248.381707 65.078721 
L 248.408083 65.586127 
L 248.649174 66.501914 
L 251.655187 72.219265 
L 251.926403 72.597941 
L 252.272956 72.937007 
L 253.402991 72.342868 
L 253.320114 71.865169 
L 253.1619 71.42708 
L 250.155888 65.709729 
L 249.538119 64.991988 
L 249.135064 64.682629 
L 248.543671 64.472293 
" clip-path="url(#p36cfe247cb)" style="fill: none; stroke: #0000ff; stroke-opacity: 0.2; stroke-width: 0.4; stroke-linecap: round"/>
   </g>
   <g id="patch_11">
    <path d="M 248.543671 64.472293 
L 248.381707 65.078721 
L 248.408083 65.586127 
L 248.649174 66.501914 
L 251.655187 72.219265 
L 251.926403 72.597941 
L 252.272956 72.937007 
L 253.402991 72.342868 
L 253.320114 71.865169 
L 253.1619 71.42708 
L 250.155888 65.709729 
L 249.538119 64.991988 
L 249.135064 64.682629 
z
" clip-path="url(#p36cfe247cb)" style="fill: #0000ff; opacity: 0.2"/>
   </g>
   <g id="line2d_44">
    <path d="M 246.084689 53.935283 
L 245.704845 54.434988 
L 245.536824 54.914493 
L 245.412605 55.853302 
L 246.02584 62.283555 
L 246.133189 62.736798 
L 246.325268 63.181961 
L 247.596209 63.060755 
L 247.700683 62.587311 
L 247.720427 62.121947 
L 247.107193 55.691694 
L 246.807764 54.793287 
L 246.552138 54.354184 
L 246.084689 53.935283 
" clip-path="url(#p36cfe247cb)" style="fill: none; stroke: #0000ff; stroke-opacity: 0.2; stroke-width: 0.4; stroke-linecap: round"/>
   </g>
   <g id="patch_12">
    <path d="M 246.084689 53.935283 
L 245.704845 54.434988 
L 245.536824 54.914493 
L 245.412605 55.853302 
L 246.02584 62.283555 
L 246.133189 62.736798 
L 246.325268 63.181961 
L 247.596209 63.060755 
L 247.700683 62.587311 
L 247.720427 62.121947 
L 247.107193 55.691694 
L 246.807764 54.793287 
L 246.552138 54.354184 
z
" clip-path="url(#p36cfe247cb)" style="fill: #0000ff; opacity: 0.2"/>
   </g>
   <g id="line2d_45">
    <path d="M 248.046964 44.39947 
L 247.476513 44.661337 
L 247.102429 45.005163 
L 246.550627 45.774778 
L 244.062575 51.735802 
L 243.943767 52.186178 
L 243.903505 52.669337 
L 245.081703 53.161101 
L 245.396877 52.792686 
L 245.633505 52.391487 
L 248.121557 46.430463 
L 248.280626 45.496927 
L 248.261978 44.989179 
L 248.046964 44.39947 
" clip-path="url(#p36cfe247cb)" style="fill: none; stroke: #0000ff; stroke-opacity: 0.2; stroke-width: 0.4; stroke-linecap: round"/>
   </g>
   <g id="patch_13">
    <path d="M 248.046964 44.39947 
L 247.476513 44.661337 
L 247.102429 45.005163 
L 246.550627 45.774778 
L 244.062575 51.735802 
L 243.943767 52.186178 
L 243.903505 52.669337 
L 245.081703 53.161101 
L 245.396877 52.792686 
L 245.633505 52.391487 
L 248.121557 46.430463 
L 248.280626 45.496927 
L 248.261978 44.989179 
z
" clip-path="url(#p36cfe247cb)" style="fill: #0000ff; opacity: 0.2"/>
   </g>
   <g id="line2d_46">
    <path d="M 252.036356 36.369922 
L 251.429612 36.5307 
L 251.002387 36.805718 
L 250.327454 37.46999 
L 246.859556 42.919567 
L 246.665704 43.343094 
L 246.54366 43.812317 
L 247.62077 44.497747 
L 247.994139 44.188459 
L 248.295702 43.833475 
L 251.763601 38.383898 
L 252.079496 37.491148 
L 252.147685 36.987654 
L 252.036356 36.369922 
" clip-path="url(#p36cfe247cb)" style="fill: none; stroke: #0000ff; stroke-opacity: 0.2; stroke-width: 0.4; stroke-linecap: round"/>
   </g>
   <g id="patch_14">
    <path d="M 252.036356 36.369922 
L 251.429612 36.5307 
L 251.002387 36.805718 
L 250.327454 37.46999 
L 246.859556 42.919567 
L 246.665704 43.343094 
L 246.54366 43.812317 
L 247.62077 44.497747 
L 247.994139 44.188459 
L 248.295702 43.833475 
L 251.763601 38.383898 
L 252.079496 37.491148 
L 252.147685 36.987654 
z
" clip-path="url(#p36cfe247cb)" style="fill: #0000ff; opacity: 0.2"/>
   </g>
   <g id="line2d_47">
    <path d="M 255.73898 27.959559 
L 255.161083 28.204554 
L 254.777059 28.537243 
L 254.202886 29.290315 
L 251.540791 35.175675 
L 251.408803 35.622366 
L 251.354365 36.104134 
L 252.517607 36.630298 
L 252.843469 36.271301 
L 253.09178 35.877226 
L 255.753876 29.991866 
L 255.940302 29.063407 
L 255.936578 28.55533 
L 255.73898 27.959559 
" clip-path="url(#p36cfe247cb)" style="fill: none; stroke: #0000ff; stroke-opacity: 0.2; stroke-width: 0.4; stroke-linecap: round"/>
   </g>
   <g id="patch_15">
    <path d="M 255.73898 27.959559 
L 255.161083 28.204554 
L 254.777059 28.537243 
L 254.202886 29.290315 
L 251.540791 35.175675 
L 251.408803 35.622366 
L 251.354365 36.104134 
L 252.517607 36.630298 
L 252.843469 36.271301 
L 253.09178 35.877226 
L 255.753876 29.991866 
L 255.940302 29.063407 
L 255.936578 28.55533 
z
" clip-path="url(#p36cfe247cb)" style="fill: #0000ff; opacity: 0.2"/>
   </g>
   <g id="line2d_48">
    <path d="M 257.241325 18.826718 
L 256.789402 19.262325 
L 256.549897 19.710424 
L 256.283304 20.619115 
L 255.904074 27.067402 
L 255.940711 27.531741 
L 256.062316 28.001078 
L 257.336821 28.076033 
L 257.512601 27.624186 
L 257.603414 27.167341 
L 257.982643 20.719055 
L 257.824401 19.785379 
L 257.639072 19.312295 
L 257.241325 18.826718 
" clip-path="url(#p36cfe247cb)" style="fill: none; stroke: #ff0000; stroke-opacity: 0.2; stroke-width: 0.4; stroke-linecap: round"/>
   </g>
   <g id="patch_16">
    <path d="M 257.241325 18.826718 
L 256.789402 19.262325 
L 256.549897 19.710424 
L 256.283304 20.619115 
L 255.904074 27.067402 
L 255.940711 27.531741 
L 256.062316 28.001078 
L 257.336821 28.076033 
L 257.512601 27.624186 
L 257.603414 27.167341 
L 257.982643 20.719055 
L 257.824401 19.785379 
L 257.639072 19.312295 
z
" clip-path="url(#p36cfe247cb)" style="fill: #ff0000; opacity: 0.2"/>
   </g>
   <g id="line2d_49">
    <path d="M 260.753578 97.681782 
L 260.328009 98.14317 
L 260.115225 98.604558 
L 259.90244 99.527333 
L 259.90244 105.986761 
L 259.966276 106.448149 
L 260.115225 106.909537 
L 261.391932 106.909537 
L 261.540881 106.448149 
L 261.604716 105.986761 
L 261.604716 99.527333 
L 261.391932 98.604558 
L 261.179147 98.14317 
L 260.753578 97.681782 
" clip-path="url(#p36cfe247cb)" style="fill: none; stroke: #0000ff; stroke-opacity: 0.2; stroke-width: 0.4; stroke-linecap: round"/>
   </g>
   <g id="patch_17">
    <path d="M 260.753578 97.681782 
L 260.328009 98.14317 
L 260.115225 98.604558 
L 259.90244 99.527333 
L 259.90244 105.986761 
L 259.966276 106.448149 
L 260.115225 106.909537 
L 261.391932 106.909537 
L 261.540881 106.448149 
L 261.604716 105.986761 
L 261.604716 99.527333 
L 261.391932 98.604558 
L 261.179147 98.14317 
z
" clip-path="url(#p36cfe247cb)" style="fill: #0000ff; opacity: 0.2"/>
   </g>
   <g id="line2d_50">
    <path d="M 259.119954 84.694594 
L 258.826264 85.249332 
L 258.738309 85.749751 
L 258.768134 86.696272 
L 260.417051 92.941693 
L 260.596552 93.371499 
L 260.858346 93.779578 
L 262.092754 93.453669 
L 262.118989 92.969545 
L 262.062929 92.507148 
L 260.414012 86.261727 
L 259.972717 85.423842 
L 259.649203 85.032059 
L 259.119954 84.694594 
" clip-path="url(#p36cfe247cb)" style="fill: none; stroke: #0000ff; stroke-opacity: 0.2; stroke-width: 0.4; stroke-linecap: round"/>
   </g>
   <g id="patch_18">
    <path d="M 259.119954 84.694594 
L 258.826264 85.249332 
L 258.738309 85.749751 
L 258.768134 86.696272 
L 260.417051 92.941693 
L 260.596552 93.371499 
L 260.858346 93.779578 
L 262.092754 93.453669 
L 262.118989 92.969545 
L 262.062929 92.507148 
L 260.414012 86.261727 
L 259.972717 85.423842 
L 259.649203 85.032059 
z
" clip-path="url(#p36cfe247cb)" style="fill: #0000ff; opacity: 0.2"/>
   </g>
   <g id="line2d_51">
    <path d="M 253.166985 73.977968 
L 253.075136 74.598896 
L 253.159124 75.099996 
L 253.502938 75.982371 
L 257.140491 81.320199 
L 257.453067 81.665525 
L 257.835979 81.962919 
L 258.891001 81.243956 
L 258.754262 80.778804 
L 258.547188 80.361582 
L 254.909635 75.023753 
L 254.214147 74.381033 
L 253.778485 74.119587 
L 253.166985 73.977968 
" clip-path="url(#p36cfe247cb)" style="fill: none; stroke: #0000ff; stroke-opacity: 0.2; stroke-width: 0.4; stroke-linecap: round"/>
   </g>
   <g id="patch_19">
    <path d="M 253.166985 73.977968 
L 253.075136 74.598896 
L 253.159124 75.099996 
L 253.502938 75.982371 
L 257.140491 81.320199 
L 257.453067 81.665525 
L 257.835979 81.962919 
L 258.891001 81.243956 
L 258.754262 80.778804 
L 258.547188 80.361582 
L 254.909635 75.023753 
L 254.214147 74.381033 
L 253.778485 74.119587 
z
" clip-path="url(#p36cfe247cb)" style="fill: #0000ff; opacity: 0.2"/>
   </g>
   <g id="line2d_52">
    <path d="M 248.567335 63.00712 
L 248.288903 63.56967 
L 248.214645 64.072305 
L 248.270306 65.017659 
L 250.08915 71.215724 
L 250.28032 71.640468 
L 250.55316 72.041246 
L 251.778209 71.681751 
L 251.791213 71.197091 
L 251.722548 70.736398 
L 249.903704 64.538332 
L 249.439694 63.71281 
L 249.105602 63.330007 
L 248.567335 63.00712 
" clip-path="url(#p36cfe247cb)" style="fill: none; stroke: #0000ff; stroke-opacity: 0.2; stroke-width: 0.4; stroke-linecap: round"/>
   </g>
   <g id="patch_20">
    <path d="M 248.567335 63.00712 
L 248.288903 63.56967 
L 248.214645 64.072305 
L 248.270306 65.017659 
L 250.08915 71.215724 
L 250.28032 71.640468 
L 250.55316 72.041246 
L 251.778209 71.681751 
L 251.791213 71.197091 
L 251.722548 70.736398 
L 249.903704 64.538332 
L 249.439694 63.71281 
L 249.105602 63.330007 
z
" clip-path="url(#p36cfe247cb)" style="fill: #0000ff; opacity: 0.2"/>
   </g>
   <g id="line2d_53">
    <path d="M 250.29657 52.172142 
L 249.727353 52.43668 
L 249.354886 52.782257 
L 248.806699 53.554451 
L 246.346628 59.527077 
L 246.229933 59.978005 
L 246.191938 60.461348 
L 247.372428 60.947581 
L 247.685872 60.577693 
L 247.920615 60.175388 
L 250.380686 54.202762 
L 250.535376 53.268491 
L 250.514347 52.760836 
L 250.29657 52.172142 
" clip-path="url(#p36cfe247cb)" style="fill: none; stroke: #0000ff; stroke-opacity: 0.2; stroke-width: 0.4; stroke-linecap: round"/>
   </g>
   <g id="patch_21">
    <path d="M 250.29657 52.172142 
L 249.727353 52.43668 
L 249.354886 52.782257 
L 248.806699 53.554451 
L 246.346628 59.527077 
L 246.229933 59.978005 
L 246.191938 60.461348 
L 247.372428 60.947581 
L 247.685872 60.577693 
L 247.920615 60.175388 
L 250.380686 54.202762 
L 250.535376 53.268491 
L 250.514347 52.760836 
z
" clip-path="url(#p36cfe247cb)" style="fill: #0000ff; opacity: 0.2"/>
   </g>
   <g id="line2d_54">
    <path d="M 255.981086 43.768969 
L 255.361747 43.870985 
L 254.910179 44.103884 
L 254.174813 44.700566 
L 250.201645 49.793516 
L 249.968178 50.196563 
L 249.80182 50.651963 
L 250.808442 51.437261 
L 251.209679 51.165097 
L 251.543808 50.840579 
L 255.516976 45.747629 
L 255.916802 44.889182 
L 256.032829 44.394517 
L 255.981086 43.768969 
" clip-path="url(#p36cfe247cb)" style="fill: none; stroke: #0000ff; stroke-opacity: 0.2; stroke-width: 0.4; stroke-linecap: round"/>
   </g>
   <g id="patch_22">
    <path d="M 255.981086 43.768969 
L 255.361747 43.870985 
L 254.910179 44.103884 
L 254.174813 44.700566 
L 250.201645 49.793516 
L 249.968178 50.196563 
L 249.80182 50.651963 
L 250.808442 51.437261 
L 251.209679 51.165097 
L 251.543808 50.840579 
L 255.516976 45.747629 
L 255.916802 44.889182 
L 256.032829 44.394517 
z
" clip-path="url(#p36cfe247cb)" style="fill: #0000ff; opacity: 0.2"/>
   </g>
   <g id="line2d_55">
    <path d="M 260.571885 34.642125 
L 260.004168 34.909866 
L 259.633653 35.257536 
L 259.089825 36.032805 
L 256.663442 42.019196 
L 256.549289 42.470774 
L 256.514017 42.954324 
L 257.697228 43.433899 
L 258.008583 43.06225 
L 258.241056 42.658629 
L 260.66744 36.672239 
L 260.816864 35.737111 
L 260.792975 35.229582 
L 260.571885 34.642125 
" clip-path="url(#p36cfe247cb)" style="fill: none; stroke: #0000ff; stroke-opacity: 0.2; stroke-width: 0.4; stroke-linecap: round"/>
   </g>
   <g id="patch_23">
    <path d="M 260.571885 34.642125 
L 260.004168 34.909866 
L 259.633653 35.257536 
L 259.089825 36.032805 
L 256.663442 42.019196 
L 256.549289 42.470774 
L 256.514017 42.954324 
L 257.697228 43.433899 
L 258.008583 43.06225 
L 258.241056 42.658629 
L 260.66744 36.672239 
L 260.816864 35.737111 
L 260.792975 35.229582 
z
" clip-path="url(#p36cfe247cb)" style="fill: #0000ff; opacity: 0.2"/>
   </g>
   <g id="line2d_56">
    <path d="M 259.321888 25.033415 
L 259.079375 25.612358 
L 259.036866 26.118667 
L 259.151851 27.058651 
L 261.356775 33.130102 
L 261.57427 33.541987 
L 261.871768 33.924818 
L 263.071791 33.489015 
L 263.054299 33.004496 
L 262.956806 32.549031 
L 260.751882 26.477579 
L 260.236889 25.682863 
L 259.879391 25.321822 
L 259.321888 25.033415 
" clip-path="url(#p36cfe247cb)" style="fill: none; stroke: #ff0000; stroke-opacity: 0.2; stroke-width: 0.4; stroke-linecap: round"/>
   </g>
   <g id="patch_24">
    <path d="M 259.321888 25.033415 
L 259.079375 25.612358 
L 259.036866 26.118667 
L 259.151851 27.058651 
L 261.356775 33.130102 
L 261.57427 33.541987 
L 261.871768 33.924818 
L 263.071791 33.489015 
L 263.054299 33.004496 
L 262.956806 32.549031 
L 260.751882 26.477579 
L 260.236889 25.682863 
L 259.879391 25.321822 
z
" clip-path="url(#p36cfe247cb)" style="fill: #ff0000; opacity: 0.2"/>
   </g>
   <g id="line2d_57">
    <path d="M 260.753578 97.681782 
L 260.328009 98.14317 
L 260.115225 98.604558 
L 259.90244 99.527333 
L 259.90244 105.986761 
L 259.966276 106.448149 
L 260.115225 106.909537 
L 261.391932 106.909537 
L 261.540881 106.448149 
L 261.604716 105.986761 
L 261.604716 99.527333 
L 261.391932 98.604558 
L 261.179147 98.14317 
L 260.753578 97.681782 
" clip-path="url(#p36cfe247cb)" style="fill: none; stroke: #0000ff; stroke-opacity: 0.2; stroke-width: 0.4; stroke-linecap: round"/>
   </g>
   <g id="patch_25">
    <path d="M 260.753578 97.681782 
L 260.328009 98.14317 
L 260.115225 98.604558 
L 259.90244 99.527333 
L 259.90244 105.986761 
L 259.966276 106.448149 
L 260.115225 106.909537 
L 261.391932 106.909537 
L 261.540881 106.448149 
L 261.604716 105.986761 
L 261.604716 99.527333 
L 261.391932 98.604558 
L 261.179147 98.14317 
z
" clip-path="url(#p36cfe247cb)" style="fill: #0000ff; opacity: 0.2"/>
   </g>
   <g id="line2d_58">
    <path d="M 259.398055 85.491609 
L 259.083085 86.034546 
L 258.975801 86.531181 
L 258.968917 87.478147 
L 260.37453 93.782785 
L 260.537237 94.219225 
L 260.783017 94.637144 
L 262.02913 94.359325 
L 262.074109 93.876581 
L 262.036014 93.412359 
L 260.630401 87.107721 
L 260.221913 86.253361 
L 259.913827 85.849333 
L 259.398055 85.491609 
" clip-path="url(#p36cfe247cb)" style="fill: none; stroke: #0000ff; stroke-opacity: 0.2; stroke-width: 0.4; stroke-linecap: round"/>
   </g>
   <g id="patch_26">
    <path d="M 259.398055 85.491609 
L 259.083085 86.034546 
L 258.975801 86.531181 
L 258.968917 87.478147 
L 260.37453 93.782785 
L 260.537237 94.219225 
L 260.783017 94.637144 
L 262.02913 94.359325 
L 262.074109 93.876581 
L 262.036014 93.412359 
L 260.630401 87.107721 
L 260.221913 86.253361 
L 259.913827 85.849333 
z
" clip-path="url(#p36cfe247cb)" style="fill: #0000ff; opacity: 0.2"/>
   </g>
   <g id="line2d_59">
    <path d="M 254.403874 74.981672 
L 254.28211 75.597433 
L 254.341772 76.102009 
L 254.642521 76.999974 
L 258.017737 82.507435 
L 258.313252 82.867469 
L 258.681336 83.183029 
L 259.769887 82.515917 
L 259.655797 82.044698 
L 259.469138 81.617952 
L 256.093922 76.110491 
L 255.430323 75.434896 
L 255.007811 75.152692 
L 254.403874 74.981672 
" clip-path="url(#p36cfe247cb)" style="fill: none; stroke: #0000ff; stroke-opacity: 0.2; stroke-width: 0.4; stroke-linecap: round"/>
   </g>
   <g id="patch_27">
    <path d="M 254.403874 74.981672 
L 254.28211 75.597433 
L 254.341772 76.102009 
L 254.642521 76.999974 
L 258.017737 82.507435 
L 258.313252 82.867469 
L 258.681336 83.183029 
L 259.769887 82.515917 
L 259.655797 82.044698 
L 259.469138 81.617952 
L 256.093922 76.110491 
L 255.430323 75.434896 
L 255.007811 75.152692 
z
" clip-path="url(#p36cfe247cb)" style="fill: #0000ff; opacity: 0.2"/>
   </g>
   <g id="line2d_60">
    <path d="M 249.926537 64.608665 
L 249.684318 65.187731 
L 249.642067 65.694062 
L 249.75753 66.633987 
L 251.965544 72.704316 
L 252.183249 73.11609 
L 252.480941 73.49877 
L 253.680743 73.062355 
L 253.663004 72.577845 
L 253.565279 72.12243 
L 251.357265 66.052102 
L 250.841868 65.257647 
L 250.484186 64.896788 
L 249.926537 64.608665 
" clip-path="url(#p36cfe247cb)" style="fill: none; stroke: #0000ff; stroke-opacity: 0.2; stroke-width: 0.4; stroke-linecap: round"/>
   </g>
   <g id="patch_28">
    <path d="M 249.926537 64.608665 
L 249.684318 65.187731 
L 249.642067 65.694062 
L 249.75753 66.633987 
L 251.965544 72.704316 
L 252.183249 73.11609 
L 252.480941 73.49877 
L 253.680743 73.062355 
L 253.663004 72.577845 
L 253.565279 72.12243 
L 251.357265 66.052102 
L 250.841868 65.257647 
L 250.484186 64.896788 
z
" clip-path="url(#p36cfe247cb)" style="fill: #0000ff; opacity: 0.2"/>
   </g>
   <g id="line2d_61">
    <path d="M 249.945212 53.946739 
L 249.438833 54.31764 
L 249.141263 54.729475 
L 248.754935 55.594081 
L 247.512306 61.932857 
L 247.48619 62.397907 
L 247.543598 62.879331 
L 248.796458 63.124936 
L 249.031384 62.700821 
L 249.182787 62.260331 
L 250.425415 55.921555 
L 250.394124 54.975081 
L 250.274073 54.481377 
L 249.945212 53.946739 
" clip-path="url(#p36cfe247cb)" style="fill: none; stroke: #0000ff; stroke-opacity: 0.2; stroke-width: 0.4; stroke-linecap: round"/>
   </g>
   <g id="patch_29">
    <path d="M 249.945212 53.946739 
L 249.438833 54.31764 
L 249.141263 54.729475 
L 248.754935 55.594081 
L 247.512306 61.932857 
L 247.48619 62.397907 
L 247.543598 62.879331 
L 248.796458 63.124936 
L 249.031384 62.700821 
L 249.182787 62.260331 
L 250.425415 55.921555 
L 250.394124 54.975081 
L 250.274073 54.481377 
z
" clip-path="url(#p36cfe247cb)" style="fill: #0000ff; opacity: 0.2"/>
   </g>
   <g id="line2d_62">
    <path d="M 254.579627 45.398778 
L 253.967004 45.535452 
L 253.529243 45.79337 
L 252.828586 46.43045 
L 249.148025 51.738716 
L 248.937586 52.154251 
L 248.797094 52.618283 
L 249.846273 53.345747 
L 250.231575 53.051455 
L 250.546931 52.708667 
L 254.227492 47.400401 
L 254.578423 46.520834 
L 254.666457 46.020428 
L 254.579627 45.398778 
" clip-path="url(#p36cfe247cb)" style="fill: none; stroke: #0000ff; stroke-opacity: 0.2; stroke-width: 0.4; stroke-linecap: round"/>
   </g>
   <g id="patch_30">
    <path d="M 254.579627 45.398778 
L 253.967004 45.535452 
L 253.529243 45.79337 
L 252.828586 46.43045 
L 249.148025 51.738716 
L 248.937586 52.154251 
L 248.797094 52.618283 
L 249.846273 53.345747 
L 250.231575 53.051455 
L 250.546931 52.708667 
L 254.227492 47.400401 
L 254.578423 46.520834 
L 254.666457 46.020428 
z
" clip-path="url(#p36cfe247cb)" style="fill: #0000ff; opacity: 0.2"/>
   </g>
   <g id="line2d_63">
    <path d="M 259.209517 37.051305 
L 258.612534 37.245211 
L 258.201082 37.543309 
L 257.563706 38.243698 
L 254.400784 43.875761 
L 254.23052 44.309308 
L 254.134467 44.784533 
L 255.247646 45.409685 
L 255.603439 45.080329 
L 255.885021 44.709297 
L 259.047943 39.077234 
L 259.31426 38.168461 
L 259.354653 37.661979 
L 259.209517 37.051305 
" clip-path="url(#p36cfe247cb)" style="fill: none; stroke: #0000ff; stroke-opacity: 0.2; stroke-width: 0.4; stroke-linecap: round"/>
   </g>
   <g id="patch_31">
    <path d="M 259.209517 37.051305 
L 258.612534 37.245211 
L 258.201082 37.543309 
L 257.563706 38.243698 
L 254.400784 43.875761 
L 254.23052 44.309308 
L 254.134467 44.784533 
L 255.247646 45.409685 
L 255.603439 45.080329 
L 255.885021 44.709297 
L 259.047943 39.077234 
L 259.31426 38.168461 
L 259.354653 37.661979 
z
" clip-path="url(#p36cfe247cb)" style="fill: #0000ff; opacity: 0.2"/>
   </g>
   <g id="line2d_64">
    <path d="M 261.695802 27.808414 
L 261.206993 28.202182 
L 260.928654 28.62725 
L 260.582445 29.508687 
L 259.632273 35.897848 
L 259.627544 36.363607 
L 259.707004 36.841886 
L 260.969822 37.029688 
L 261.185021 36.595229 
L 261.316031 36.148251 
L 262.266204 29.759089 
L 262.191473 28.815052 
L 262.048872 28.327383 
L 261.695802 27.808414 
" clip-path="url(#p36cfe247cb)" style="fill: none; stroke: #0000ff; stroke-opacity: 0.2; stroke-width: 0.4; stroke-linecap: round"/>
   </g>
   <g id="patch_32">
    <path d="M 261.695802 27.808414 
L 261.206993 28.202182 
L 260.928654 28.62725 
L 260.582445 29.508687 
L 259.632273 35.897848 
L 259.627544 36.363607 
L 259.707004 36.841886 
L 260.969822 37.029688 
L 261.185021 36.595229 
L 261.316031 36.148251 
L 262.266204 29.759089 
L 262.191473 28.815052 
L 262.048872 28.327383 
z
" clip-path="url(#p36cfe247cb)" style="fill: #0000ff; opacity: 0.2"/>
   </g>
   <g id="line2d_65">
    <path d="M 260.021929 18.825596 
L 259.779595 19.404614 
L 259.737243 19.910936 
L 259.85252 20.850884 
L 262.05933 26.921651 
L 262.276953 27.333468 
L 262.574569 27.716207 
L 263.774457 27.280031 
L 263.756815 26.795517 
L 263.65918 26.340082 
L 261.452371 20.269316 
L 260.937131 19.47476 
L 260.579521 19.11383 
L 260.021929 18.825596 
" clip-path="url(#p36cfe247cb)" style="fill: none; stroke: #ff0000; stroke-opacity: 0.2; stroke-width: 0.4; stroke-linecap: round"/>
   </g>
   <g id="patch_33">
    <path d="M 260.021929 18.825596 
L 259.779595 19.404614 
L 259.737243 19.910936 
L 259.85252 20.850884 
L 262.05933 26.921651 
L 262.276953 27.333468 
L 262.574569 27.716207 
L 263.774457 27.280031 
L 263.756815 26.795517 
L 263.65918 26.340082 
L 261.452371 20.269316 
L 260.937131 19.47476 
L 260.579521 19.11383 
z
" clip-path="url(#p36cfe247cb)" style="fill: #ff0000; opacity: 0.2"/>
   </g>
   <g id="line2d_66">
    <path d="M 260.753578 102.554663 
L 261.988267 102.486378 
L 262.759963 102.213696 
L 263.493077 101.708827 
L 264.341949 100.839449 
L 265.325849 99.494693 
L 266.444835 97.572439 
L 267.718126 94.920754 
L 269.107164 91.493518 
L 270.650565 87.066201 
L 272.425488 81.260629 
L 274.528359 73.58001 
L 277.24859 62.740888 
L 279.737327 53.012605 
L 280.991337 48.996179 
L 282.01383 46.436904 
L 283.074929 44.365054 
L 284.155291 42.726374 
L 285.216394 41.509354 
L 286.238908 40.668082 
L 287.2035 40.152327 
L 288.148846 39.895158 
L 289.094177 39.866593 
L 290.078073 40.060989 
L 291.100577 40.491596 
L 292.200242 41.199437 
L 293.415728 42.25486 
L 294.72756 43.695187 
L 296.116632 45.558048 
L 297.602131 47.939096 
L 299.184112 50.908638 
L 300.82402 54.466054 
L 302.541037 58.734652 
L 304.335211 63.797391 
L 306.283804 69.988313 
L 308.444499 77.617594 
L 311.26122 88.461222 
L 314.965367 103.629381 
L 319.788486 124.396453 
L 326.039226 151.292329 
L 327.331821 155.722361 
L 328.373619 158.549948 
L 329.492569 160.948649 
L 330.650165 162.923186 
L 331.84626 164.533976 
L 333.042387 165.785343 
L 334.257843 166.741295 
L 335.492534 167.433505 
L 336.707959 167.862164 
L 337.86553 168.036076 
L 339.023056 167.984501 
L 340.199896 167.708892 
L 341.396027 167.197384 
L 342.611444 166.427728 
L 343.904043 165.340058 
L 345.273825 163.890554 
L 346.720767 162.025057 
L 348.302745 159.610607 
L 349.981168 156.633636 
L 351.794663 152.94683 
L 353.685321 148.590019 
L 355.672442 143.44287 
L 357.910377 137.000843 
L 360.553429 128.685191 
L 363.833151 117.567765 
L 364.045372 116.827653 
L 364.045372 116.827653 
" clip-path="url(#p36cfe247cb)" style="fill: none; stroke: #000000; stroke-width: 0.7; stroke-linecap: round"/>
   </g>
   <g id="line2d_67">
    <path d="M 260.750918 101.044262 
L 260.627101 93.358512 
L 260.31852 89.99316 
L 259.847654 87.21861 
L 259.218869 84.819904 
L 258.387709 82.544266 
L 257.129342 79.793535 
L 255.445357 76.653786 
L 251.863922 70.605161 
L 249.599945 66.521282 
L 248.20354 63.555639 
L 247.209132 60.932634 
L 246.508528 58.468484 
L 246.062581 56.095145 
L 245.856927 53.812524 
L 245.878325 51.595993 
L 246.120491 49.453185 
L 246.574503 47.407385 
L 247.290058 45.252898 
L 248.428928 42.554689 
L 250.011846 39.400641 
L 254.686207 30.353051 
L 255.839754 27.497576 
L 256.611132 25.006928 
L 256.970446 23.432637 
L 256.970446 23.432637 
" clip-path="url(#p36cfe247cb)" style="fill: none; stroke: #000000; stroke-width: 0.7; stroke-linecap: round"/>
   </g>
  </g>
  <g id="text_29">
   <!-- zigzag 20/20 -->
   <g style="fill: #262626" transform="translate(171.735187 9.591837) scale(0.07 -0.07)">
    <defs>
     <path id="DejaVuSerif-7a" d="M 256 0 
L 256 269 
L 2338 2988 
L 691 2988 
L 691 2413 
L 359 2413 
L 359 3322 
L 3078 3322 
L 3078 3053 
L 997 331 
L 2803 331 
L 2803 934 
L 3138 934 
L 3138 0 
L 256 0 
z
" transform="scale(0.015625)"/>
     <path id="DejaVuSerif-2f" d="M 1656 4666 
L 2156 4666 
L 500 -594 
L 0 -594 
L 1656 4666 
z
" transform="scale(0.015625)"/>
    </defs>
    <use xlink:href="#DejaVuSerif-7a"/>
    <use xlink:href="#DejaVuSerif-69" x="52.685547"/>
    <use xlink:href="#DejaVuSerif-67" x="84.667969"/>
    <use xlink:href="#DejaVuSerif-7a" x="148.681641"/>
    <use xlink:href="#DejaVuSerif-61" x="201.367188"/>
    <use xlink:href="#DejaVuSerif-67" x="260.986328"/>
    <use xlink:href="#DejaVuSerif-20" x="325"/>
    <use xlink:href="#DejaVuSerif-32" x="356.787109"/>
    <use xlink:href="#DejaVuSerif-30" x="420.410156"/>
    <use xlink:href="#DejaVuSerif-2f" x="484.033203"/>
    <use xlink:href="#DejaVuSerif-32" x="517.724609"/>
    <use xlink:href="#DejaVuSerif-30" x="581.347656"/>
   </g>
  </g>
 </g>
 <defs>
  <clipPath id="p4706e60e87">
   <rect x="41.22" y="10.8" width="147.68964" height="176.563104"/>
  </clipPath>
  <clipPath id="p36cfe247cb">
   <rect x="230.12964" y="10.8" width="147.68964" height="176.563104"/>
  </clipPath>
 </defs>
</svg>
